%TF.GenerationSoftware,KiCad,Pcbnew,7.0.5*%
%TF.CreationDate,2023-06-06T16:58:07-04:00*%
%TF.ProjectId,SIDE,53494445-2e6b-4696-9361-645f70636258,rev?*%
%TF.SameCoordinates,Original*%
%TF.FileFunction,Legend,Bot*%
%TF.FilePolarity,Positive*%
%FSLAX46Y46*%
G04 Gerber Fmt 4.6, Leading zero omitted, Abs format (unit mm)*
G04 Created by KiCad (PCBNEW 7.0.5) date 2023-06-06 16:58:07*
%MOMM*%
%LPD*%
G01*
G04 APERTURE LIST*
%ADD10C,0.120000*%
%ADD11C,0.200000*%
G04 APERTURE END LIST*
D10*
%TO.C,R5*%
X156425276Y-97165522D02*
X156934724Y-97165522D01*
X156425276Y-98210522D02*
X156934724Y-98210522D01*
%TO.C,R11*%
X148704724Y-94280522D02*
X148195276Y-94280522D01*
X148704724Y-93235522D02*
X148195276Y-93235522D01*
%TO.C,R2*%
X157307500Y-72972746D02*
X157307500Y-72463298D01*
X158352500Y-72972746D02*
X158352500Y-72463298D01*
D11*
%TO.C,Q2*%
X148530000Y-97108022D02*
X148530000Y-97583022D01*
X150310000Y-97933022D02*
X148710000Y-97933022D01*
X148710000Y-97933022D02*
X148710000Y-98433022D01*
X150310000Y-98433022D02*
X150310000Y-97933022D01*
X148710000Y-98433022D02*
X150310000Y-98433022D01*
D10*
%TO.C,R4*%
X152767500Y-91822746D02*
X152767500Y-91313298D01*
X153812500Y-91822746D02*
X153812500Y-91313298D01*
%TO.C,C2*%
X148303733Y-95538022D02*
X148596267Y-95538022D01*
X148303733Y-96558022D02*
X148596267Y-96558022D01*
%TO.C,R3*%
X157307500Y-76782746D02*
X157307500Y-76273298D01*
X158352500Y-76782746D02*
X158352500Y-76273298D01*
%TO.C,D1*%
X155260000Y-53895522D02*
X155260000Y-51035522D01*
X157180000Y-53895522D02*
X155260000Y-53895522D01*
X157180000Y-51035522D02*
X157180000Y-53895522D01*
%TO.C,U2*%
X154680000Y-95618022D02*
X154680000Y-94068022D01*
X152880000Y-94068022D02*
X152880000Y-95368022D01*
D11*
%TO.C,Q1*%
X152210000Y-93975022D02*
X152210000Y-93500022D01*
X150430000Y-93150022D02*
X152030000Y-93150022D01*
X152030000Y-93150022D02*
X152030000Y-92650022D01*
X150430000Y-92650022D02*
X150430000Y-93150022D01*
X152030000Y-92650022D02*
X150430000Y-92650022D01*
D10*
%TO.C,J4*%
X155830000Y-72933022D02*
X155830000Y-70433022D01*
X155830000Y-70433022D02*
X154780000Y-70433022D01*
X154780000Y-70433022D02*
X154780000Y-69443022D01*
X154660000Y-74903022D02*
X148780000Y-74903022D01*
X147610000Y-72933022D02*
X147610000Y-70433022D01*
X147610000Y-70433022D02*
X148660000Y-70433022D01*
%TO.C,C1*%
X158070000Y-95204289D02*
X158070000Y-94911755D01*
X159090000Y-95204289D02*
X159090000Y-94911755D01*
%TO.C,R1*%
X151965276Y-97165522D02*
X152474724Y-97165522D01*
X151965276Y-98210522D02*
X152474724Y-98210522D01*
%TD*%
M02*
