M48
; DRILL file {KiCad 7.0.5} date Tue Jun  6 16:58:09 2023
; FORMAT={-:-/ absolute / inch / decimal}
; #@! TF.CreationDate,2023-06-06T16:58:09-04:00
; #@! TF.GenerationSoftware,Kicad,Pcbnew,7.0.5
; #@! TF.FileFunction,Plated,1,2,PTH
FMAT,2
INCH
; #@! TA.AperFunction,Plated,PTH,ViaDrill
T1C0.0130
; #@! TA.AperFunction,Plated,PTH,ComponentDrill
T2C0.0315
%
G90
G05
T1
X5.7075Y-2.9417
X5.7075Y-3.1385
X5.7075Y-3.3354
X5.8105Y-3.6913
X5.8105Y-3.7814
X5.8354Y-1.9279
X5.8354Y-5.5696
X5.8701Y-3.6906
X5.8748Y-1.9672
X5.8748Y-5.609
X5.9043Y-4.1228
X5.9043Y-4.3196
X5.9043Y-4.5165
X5.9043Y-4.7133
X5.9043Y-4.9102
X5.9142Y-1.9279
X5.9142Y-5.5696
X5.9535Y-1.9672
X5.9535Y-5.609
X5.957Y-3.846
X5.9929Y-1.9279
X5.9929Y-5.5696
X6.0024Y-3.744
X6.0028Y-3.4141
X6.0323Y-1.9672
X6.0323Y-2.8684
X6.0323Y-5.609
X6.0421Y-3.3747
X6.0421Y-3.4141
X6.0717Y-1.9279
X6.0717Y-5.5696
X6.0815Y-3.3354
X6.0815Y-3.3747
X6.0815Y-3.4141
X6.0913Y-2.1543
X6.0913Y-2.3511
X6.1012Y-4.1228
X6.1012Y-4.3196
X6.1012Y-4.5165
X6.1012Y-4.7133
X6.1012Y-4.9102
X6.1012Y-5.107
X6.1043Y-3.7629
X6.1063Y-3.8094
X6.1071Y-3.7263
X6.111Y-1.9672
X6.111Y-5.609
X6.1209Y-3.296
X6.1209Y-3.3354
X6.1209Y-3.3747
X6.1209Y-3.4141
X6.1209Y-3.6109
X6.1504Y-1.9279
X6.1504Y-2.5591
X6.1504Y-5.5696
X6.1602Y-3.2566
X6.1602Y-3.296
X6.1898Y-1.9672
X6.1898Y-5.609
X6.1996Y-3.2172
X6.1996Y-3.2566
X6.2142Y-2.9775
X6.2291Y-1.9279
X6.2291Y-5.5696
X6.2433Y-3.7086
X6.2433Y-3.7764
X6.2504Y-3.3838
X6.2685Y-1.9672
X6.2685Y-5.609
X6.2882Y-2.7362
X6.2882Y-3.483
X6.2882Y-3.5224
X6.2882Y-3.5617
X6.298Y-2.1543
X6.298Y-2.3511
X6.298Y-2.9417
X6.298Y-3.1385
X6.298Y-3.3354
X6.298Y-4.3196
X6.298Y-4.5165
X6.298Y-4.7133
X6.298Y-4.9102
X6.298Y-5.3039
X6.3079Y-1.9279
X6.3079Y-5.5696
X6.3276Y-3.483
X6.3276Y-3.5224
X6.3276Y-3.5617
X6.3445Y-3.846
X6.4949Y-2.1543
X6.4949Y-2.3511
X6.4949Y-2.548
X6.4949Y-2.7448
X6.4949Y-2.9417
X6.4949Y-3.1385
X6.4949Y-3.3354
X6.4949Y-3.5322
X6.4949Y-3.7291
X6.4949Y-3.9259
X6.4949Y-4.1228
X6.4949Y-4.3196
X6.4949Y-4.5165
X6.4949Y-4.7133
X6.4949Y-4.9102
X6.4949Y-5.107
X6.4949Y-5.3039
X6.4949Y-5.5007
T2
X5.5106Y-2.1327
X5.5106Y-2.5327
T0
M30
