%TF.GenerationSoftware,KiCad,Pcbnew,7.0.5*%
%TF.CreationDate,2023-06-02T12:39:11-04:00*%
%TF.ProjectId,MCU,4d43552e-6b69-4636-9164-5f7063625858,rev?*%
%TF.SameCoordinates,Original*%
%TF.FileFunction,Drillmap*%
%TF.FilePolarity,Positive*%
%FSLAX45Y45*%
G04 Gerber Fmt 4.5, Leading zero omitted, Abs format (unit mm)*
G04 Created by KiCad (PCBNEW 7.0.5) date 2023-06-02 12:39:11*
%MOMM*%
%LPD*%
G01*
G04 APERTURE LIST*
%ADD10C,0.100000*%
%ADD11C,0.200000*%
%ADD12C,0.033020*%
%ADD13C,0.043180*%
G04 APERTURE END LIST*
D10*
X13016000Y-8855761D02*
X13016000Y-11165162D01*
X16926000Y-11049692D02*
G75*
G03*
X16926000Y-11049692I-110000J0D01*
G01*
X13016000Y-11165162D02*
X15016000Y-12319862D01*
X16926000Y-8971231D02*
G75*
G03*
X16926000Y-8971231I-110000J0D01*
G01*
X13326000Y-8971231D02*
G75*
G03*
X13326000Y-8971231I-110000J0D01*
G01*
X15016000Y-7701060D02*
X13016000Y-8855761D01*
X17016000Y-8855761D02*
X15016000Y-7701060D01*
X15126000Y-7932000D02*
G75*
G03*
X15126000Y-7932000I-110000J0D01*
G01*
X15126000Y-12088922D02*
G75*
G03*
X15126000Y-12088922I-110000J0D01*
G01*
X17016000Y-11165162D02*
X17016000Y-8855761D01*
X15016000Y-12319862D02*
X17016000Y-11165162D01*
X13326000Y-11049692D02*
G75*
G03*
X13326000Y-11049692I-110000J0D01*
G01*
D11*
D12*
X13099490Y-9303352D02*
X13132510Y-9336372D01*
X13132510Y-9303352D02*
X13099490Y-9336372D01*
X13099490Y-9703352D02*
X13132510Y-9736372D01*
X13132510Y-9703352D02*
X13099490Y-9736372D01*
X13099490Y-10503352D02*
X13132510Y-10536372D01*
X13132510Y-10503352D02*
X13099490Y-10536372D01*
X13099490Y-10703352D02*
X13132510Y-10736372D01*
X13132510Y-10703352D02*
X13099490Y-10736372D01*
X13299490Y-9303352D02*
X13332510Y-9336372D01*
X13332510Y-9303352D02*
X13299490Y-9336372D01*
X13299490Y-9703352D02*
X13332510Y-9736372D01*
X13332510Y-9703352D02*
X13299490Y-9736372D01*
X13299490Y-10503352D02*
X13332510Y-10536372D01*
X13332510Y-10503352D02*
X13299490Y-10536372D01*
X13299490Y-10703352D02*
X13332510Y-10736372D01*
X13332510Y-10703352D02*
X13299490Y-10736372D01*
X13334490Y-9524352D02*
X13367510Y-9557372D01*
X13367510Y-9524352D02*
X13334490Y-9557372D01*
X13463490Y-9521352D02*
X13496510Y-9554372D01*
X13496510Y-9521352D02*
X13463490Y-9554372D01*
X13499490Y-8903352D02*
X13532510Y-8936372D01*
X13532510Y-8903352D02*
X13499490Y-8936372D01*
X13499490Y-9103352D02*
X13532510Y-9136372D01*
X13532510Y-9103352D02*
X13499490Y-9136372D01*
X13499490Y-9703352D02*
X13532510Y-9736372D01*
X13532510Y-9703352D02*
X13499490Y-9736372D01*
X13499490Y-9903352D02*
X13532510Y-9936372D01*
X13532510Y-9903352D02*
X13499490Y-9936372D01*
X13499490Y-10103352D02*
X13532510Y-10136372D01*
X13532510Y-10103352D02*
X13499490Y-10136372D01*
X13499490Y-10303352D02*
X13532510Y-10336372D01*
X13532510Y-10303352D02*
X13499490Y-10336372D01*
X13499490Y-10503352D02*
X13532510Y-10536372D01*
X13532510Y-10503352D02*
X13499490Y-10536372D01*
X13499490Y-10703352D02*
X13532510Y-10736372D01*
X13532510Y-10703352D02*
X13499490Y-10736372D01*
X13499490Y-10903352D02*
X13532510Y-10936372D01*
X13532510Y-10903352D02*
X13499490Y-10936372D01*
X13499490Y-11103352D02*
X13532510Y-11136372D01*
X13532510Y-11103352D02*
X13499490Y-11136372D01*
X13699490Y-8903352D02*
X13732510Y-8936372D01*
X13732510Y-8903352D02*
X13699490Y-8936372D01*
X13699490Y-9503352D02*
X13732510Y-9536372D01*
X13732510Y-9503352D02*
X13699490Y-9536372D01*
X13699490Y-9703352D02*
X13732510Y-9736372D01*
X13732510Y-9703352D02*
X13699490Y-9736372D01*
X13699490Y-9903352D02*
X13732510Y-9936372D01*
X13732510Y-9903352D02*
X13699490Y-9936372D01*
X13699490Y-10103352D02*
X13732510Y-10136372D01*
X13732510Y-10103352D02*
X13699490Y-10136372D01*
X13699490Y-10303352D02*
X13732510Y-10336372D01*
X13732510Y-10303352D02*
X13699490Y-10336372D01*
X13699490Y-10703352D02*
X13732510Y-10736372D01*
X13732510Y-10703352D02*
X13699490Y-10736372D01*
X13699490Y-10903352D02*
X13732510Y-10936372D01*
X13732510Y-10903352D02*
X13699490Y-10936372D01*
X13699490Y-11103352D02*
X13732510Y-11136372D01*
X13732510Y-11103352D02*
X13699490Y-11136372D01*
X13699490Y-11303352D02*
X13732510Y-11336372D01*
X13732510Y-11303352D02*
X13699490Y-11336372D01*
X13725490Y-9271490D02*
X13758510Y-9304510D01*
X13758510Y-9271490D02*
X13725490Y-9304510D01*
X13800490Y-9105352D02*
X13833510Y-9138372D01*
X13833510Y-9105352D02*
X13800490Y-9138372D01*
X13869490Y-9363352D02*
X13902510Y-9396372D01*
X13902510Y-9363352D02*
X13869490Y-9396372D01*
X13899490Y-9703352D02*
X13932510Y-9736372D01*
X13932510Y-9703352D02*
X13899490Y-9736372D01*
X13899490Y-9903352D02*
X13932510Y-9936372D01*
X13932510Y-9903352D02*
X13899490Y-9936372D01*
X13899490Y-10103352D02*
X13932510Y-10136372D01*
X13932510Y-10103352D02*
X13899490Y-10136372D01*
X13899490Y-10303352D02*
X13932510Y-10336372D01*
X13932510Y-10303352D02*
X13899490Y-10336372D01*
X13899490Y-11103352D02*
X13932510Y-11136372D01*
X13932510Y-11103352D02*
X13899490Y-11136372D01*
X13899490Y-11303352D02*
X13932510Y-11336372D01*
X13932510Y-11303352D02*
X13899490Y-11336372D01*
X13948490Y-9582352D02*
X13981510Y-9615372D01*
X13981510Y-9582352D02*
X13948490Y-9615372D01*
X13959490Y-10711352D02*
X13992510Y-10744372D01*
X13992510Y-10711352D02*
X13959490Y-10744372D01*
X13989490Y-10423352D02*
X14022510Y-10456372D01*
X14022510Y-10423352D02*
X13989490Y-10456372D01*
X14009490Y-9493352D02*
X14042510Y-9526372D01*
X14042510Y-9493352D02*
X14009490Y-9526372D01*
X14099490Y-9903352D02*
X14132510Y-9936372D01*
X14132510Y-9903352D02*
X14099490Y-9936372D01*
X14099490Y-10283352D02*
X14132510Y-10316372D01*
X14132510Y-10283352D02*
X14099490Y-10316372D01*
X14099490Y-10563352D02*
X14132510Y-10596372D01*
X14132510Y-10563352D02*
X14099490Y-10596372D01*
X14099490Y-11103352D02*
X14132510Y-11136372D01*
X14132510Y-11103352D02*
X14099490Y-11136372D01*
X14099490Y-11303352D02*
X14132510Y-11336372D01*
X14132510Y-11303352D02*
X14099490Y-11336372D01*
X14099490Y-11503352D02*
X14132510Y-11536372D01*
X14132510Y-11503352D02*
X14099490Y-11536372D01*
X14182490Y-9106352D02*
X14215510Y-9139372D01*
X14215510Y-9106352D02*
X14182490Y-9139372D01*
X14228490Y-9695490D02*
X14261510Y-9728510D01*
X14261510Y-9695490D02*
X14228490Y-9728510D01*
X14348490Y-8893352D02*
X14381510Y-8926372D01*
X14381510Y-8893352D02*
X14348490Y-8926372D01*
X14362490Y-10885352D02*
X14395510Y-10918372D01*
X14395510Y-10885352D02*
X14362490Y-10918372D01*
X14372490Y-9459352D02*
X14405510Y-9492372D01*
X14405510Y-9459352D02*
X14372490Y-9492372D01*
X14499490Y-8203352D02*
X14532510Y-8236372D01*
X14532510Y-8203352D02*
X14499490Y-8236372D01*
X14499490Y-11803352D02*
X14532510Y-11836372D01*
X14532510Y-11803352D02*
X14499490Y-11836372D01*
X14532490Y-9370352D02*
X14565510Y-9403372D01*
X14565510Y-9370352D02*
X14532490Y-9403372D01*
X14594490Y-9289352D02*
X14627510Y-9322372D01*
X14627510Y-9289352D02*
X14594490Y-9322372D01*
X14695490Y-9380490D02*
X14728510Y-9413510D01*
X14728510Y-9380490D02*
X14695490Y-9413510D01*
X14699490Y-8003352D02*
X14732510Y-8036372D01*
X14732510Y-8003352D02*
X14699490Y-8036372D01*
X14699490Y-8203352D02*
X14732510Y-8236372D01*
X14732510Y-8203352D02*
X14699490Y-8236372D01*
X14699490Y-11803352D02*
X14732510Y-11836372D01*
X14732510Y-11803352D02*
X14699490Y-11836372D01*
X14699490Y-12003352D02*
X14732510Y-12036372D01*
X14732510Y-12003352D02*
X14699490Y-12036372D01*
X14766490Y-10189352D02*
X14799510Y-10222372D01*
X14799510Y-10189352D02*
X14766490Y-10222372D01*
X14773490Y-9708490D02*
X14806510Y-9741510D01*
X14806510Y-9708490D02*
X14773490Y-9741510D01*
X14800490Y-9123352D02*
X14833510Y-9156372D01*
X14833510Y-9123352D02*
X14800490Y-9156372D01*
X14868490Y-9370490D02*
X14901510Y-9403510D01*
X14901510Y-9370490D02*
X14868490Y-9403510D01*
X14897490Y-10194352D02*
X14930510Y-10227372D01*
X14930510Y-10194352D02*
X14897490Y-10227372D01*
X14899490Y-8203352D02*
X14932510Y-8236372D01*
X14932510Y-8203352D02*
X14899490Y-8236372D01*
X14899490Y-11803352D02*
X14932510Y-11836372D01*
X14932510Y-11803352D02*
X14899490Y-11836372D01*
X14964490Y-9276352D02*
X14997510Y-9309372D01*
X14997510Y-9276352D02*
X14964490Y-9309372D01*
X14989490Y-9797490D02*
X15022510Y-9830510D01*
X15022510Y-9797490D02*
X14989490Y-9830510D01*
X15028490Y-9686490D02*
X15061510Y-9719510D01*
X15061510Y-9686490D02*
X15028490Y-9719510D01*
X15088490Y-9592490D02*
X15121510Y-9625510D01*
X15121510Y-9592490D02*
X15088490Y-9625510D01*
X15099490Y-8203352D02*
X15132510Y-8236372D01*
X15132510Y-8203352D02*
X15099490Y-8236372D01*
X15099490Y-11803352D02*
X15132510Y-11836372D01*
X15132510Y-11803352D02*
X15099490Y-11836372D01*
X15200490Y-9391352D02*
X15233510Y-9424372D01*
X15233510Y-9391352D02*
X15200490Y-9424372D01*
X15228240Y-9149490D02*
X15261260Y-9182510D01*
X15261260Y-9149490D02*
X15228240Y-9182510D01*
X15228240Y-9267490D02*
X15261260Y-9300510D01*
X15261260Y-9267490D02*
X15228240Y-9300510D01*
X15293490Y-9399352D02*
X15326510Y-9432372D01*
X15326510Y-9399352D02*
X15293490Y-9432372D01*
X15298490Y-9909352D02*
X15331510Y-9942372D01*
X15331510Y-9909352D02*
X15298490Y-9942372D01*
X15298920Y-8003352D02*
X15331940Y-8036372D01*
X15331940Y-8003352D02*
X15298920Y-8036372D01*
X15299490Y-8203352D02*
X15332510Y-8236372D01*
X15332510Y-8203352D02*
X15299490Y-8236372D01*
X15299490Y-11803352D02*
X15332510Y-11836372D01*
X15332510Y-11803352D02*
X15299490Y-11836372D01*
X15299490Y-12003352D02*
X15332510Y-12036372D01*
X15332510Y-12003352D02*
X15299490Y-12036372D01*
X15301490Y-10080352D02*
X15334510Y-10113372D01*
X15334510Y-10080352D02*
X15301490Y-10113372D01*
X15346490Y-9245490D02*
X15379510Y-9278510D01*
X15379510Y-9245490D02*
X15346490Y-9278510D01*
X15373490Y-9444490D02*
X15406510Y-9477510D01*
X15406510Y-9444490D02*
X15373490Y-9477510D01*
X15436490Y-8941490D02*
X15469510Y-8974510D01*
X15469510Y-8941490D02*
X15436490Y-8974510D01*
X15499490Y-8203352D02*
X15532510Y-8236372D01*
X15532510Y-8203352D02*
X15499490Y-8236372D01*
X15499490Y-10703352D02*
X15532510Y-10736372D01*
X15532510Y-10703352D02*
X15499490Y-10736372D01*
X15499490Y-10903352D02*
X15532510Y-10936372D01*
X15532510Y-10903352D02*
X15499490Y-10936372D01*
X15499490Y-11103352D02*
X15532510Y-11136372D01*
X15532510Y-11103352D02*
X15499490Y-11136372D01*
X15499490Y-11803352D02*
X15532510Y-11836372D01*
X15532510Y-11803352D02*
X15499490Y-11836372D01*
X15586490Y-9278490D02*
X15619510Y-9311510D01*
X15619510Y-9278490D02*
X15586490Y-9311510D01*
X15599990Y-9567490D02*
X15633010Y-9600510D01*
X15633010Y-9567490D02*
X15599990Y-9600510D01*
X15619490Y-9775490D02*
X15652510Y-9808510D01*
X15652510Y-9775490D02*
X15619490Y-9808510D01*
X15667490Y-9352352D02*
X15700510Y-9385372D01*
X15700510Y-9352352D02*
X15667490Y-9385372D01*
X15699490Y-10103352D02*
X15732510Y-10136372D01*
X15732510Y-10103352D02*
X15699490Y-10136372D01*
X15709490Y-10503352D02*
X15742510Y-10536372D01*
X15742510Y-10503352D02*
X15709490Y-10536372D01*
X15709490Y-10703352D02*
X15742510Y-10736372D01*
X15742510Y-10703352D02*
X15709490Y-10736372D01*
X15709490Y-10903352D02*
X15742510Y-10936372D01*
X15742510Y-10903352D02*
X15709490Y-10936372D01*
X15709490Y-11103352D02*
X15742510Y-11136372D01*
X15742510Y-11103352D02*
X15709490Y-11136372D01*
X15792490Y-9857490D02*
X15825510Y-9890510D01*
X15825510Y-9857490D02*
X15792490Y-9890510D01*
X15819490Y-9113352D02*
X15852510Y-9146372D01*
X15852510Y-9113352D02*
X15819490Y-9146372D01*
X15819490Y-9293352D02*
X15852510Y-9326372D01*
X15852510Y-9293352D02*
X15819490Y-9326372D01*
X15899490Y-10303352D02*
X15932510Y-10336372D01*
X15932510Y-10303352D02*
X15899490Y-10336372D01*
X15899490Y-10503352D02*
X15932510Y-10536372D01*
X15932510Y-10503352D02*
X15899490Y-10536372D01*
X15899490Y-10703352D02*
X15932510Y-10736372D01*
X15932510Y-10703352D02*
X15899490Y-10736372D01*
X15899490Y-10903352D02*
X15932510Y-10936372D01*
X15932510Y-10903352D02*
X15899490Y-10936372D01*
X15899490Y-11103352D02*
X15932510Y-11136372D01*
X15932510Y-11103352D02*
X15899490Y-11136372D01*
X15899490Y-11303352D02*
X15932510Y-11336372D01*
X15932510Y-11303352D02*
X15899490Y-11336372D01*
X15899490Y-11503352D02*
X15932510Y-11536372D01*
X15932510Y-11503352D02*
X15899490Y-11536372D01*
X15901490Y-9203240D02*
X15934510Y-9236260D01*
X15934510Y-9203240D02*
X15901490Y-9236260D01*
X15989490Y-9113352D02*
X16022510Y-9146372D01*
X16022510Y-9113352D02*
X15989490Y-9146372D01*
X15989490Y-9293352D02*
X16022510Y-9326372D01*
X16022510Y-9293352D02*
X15989490Y-9326372D01*
X15999490Y-8503352D02*
X16032510Y-8536372D01*
X16032510Y-8503352D02*
X15999490Y-8536372D01*
X16027490Y-8870490D02*
X16060510Y-8903510D01*
X16060510Y-8870490D02*
X16027490Y-8903510D01*
X16099490Y-10303352D02*
X16132510Y-10336372D01*
X16132510Y-10303352D02*
X16099490Y-10336372D01*
X16099490Y-10503352D02*
X16132510Y-10536372D01*
X16132510Y-10503352D02*
X16099490Y-10536372D01*
X16099490Y-10703352D02*
X16132510Y-10736372D01*
X16132510Y-10703352D02*
X16099490Y-10736372D01*
X16099490Y-10903352D02*
X16132510Y-10936372D01*
X16132510Y-10903352D02*
X16099490Y-10936372D01*
X16099490Y-11103352D02*
X16132510Y-11136372D01*
X16132510Y-11103352D02*
X16099490Y-11136372D01*
X16099490Y-11303352D02*
X16132510Y-11336372D01*
X16132510Y-11303352D02*
X16099490Y-11336372D01*
X16099490Y-11503352D02*
X16132510Y-11536372D01*
X16132510Y-11503352D02*
X16099490Y-11536372D01*
X16183490Y-9550352D02*
X16216510Y-9583372D01*
X16216510Y-9550352D02*
X16183490Y-9583372D01*
X16199490Y-8703352D02*
X16232510Y-8736372D01*
X16232510Y-8703352D02*
X16199490Y-8736372D01*
X16238240Y-9278239D02*
X16271260Y-9311259D01*
X16271260Y-9278239D02*
X16238240Y-9311259D01*
X16299490Y-10703352D02*
X16332510Y-10736372D01*
X16332510Y-10703352D02*
X16299490Y-10736372D01*
X16299490Y-10903352D02*
X16332510Y-10936372D01*
X16332510Y-10903352D02*
X16299490Y-10936372D01*
X16299490Y-11103352D02*
X16332510Y-11136372D01*
X16332510Y-11103352D02*
X16299490Y-11136372D01*
X16299490Y-11303352D02*
X16332510Y-11336372D01*
X16332510Y-11303352D02*
X16299490Y-11336372D01*
X16399490Y-8903352D02*
X16432510Y-8936372D01*
X16432510Y-8903352D02*
X16399490Y-8936372D01*
X16499490Y-10703352D02*
X16532510Y-10736372D01*
X16532510Y-10703352D02*
X16499490Y-10736372D01*
X16499490Y-10903352D02*
X16532510Y-10936372D01*
X16532510Y-10903352D02*
X16499490Y-10936372D01*
X16499490Y-11103352D02*
X16532510Y-11136372D01*
X16532510Y-11103352D02*
X16499490Y-11136372D01*
X16539490Y-9553352D02*
X16572510Y-9586372D01*
X16572510Y-9553352D02*
X16539490Y-9586372D01*
X16539490Y-9763352D02*
X16572510Y-9796372D01*
X16572510Y-9763352D02*
X16539490Y-9796372D01*
X16559490Y-10333352D02*
X16592510Y-10366372D01*
X16592510Y-10333352D02*
X16559490Y-10366372D01*
X16599490Y-9103352D02*
X16632510Y-9136372D01*
X16632510Y-9103352D02*
X16599490Y-9136372D01*
X16599490Y-9303352D02*
X16632510Y-9336372D01*
X16632510Y-9303352D02*
X16599490Y-9336372D01*
X16699490Y-10703352D02*
X16732510Y-10736372D01*
X16732510Y-10703352D02*
X16699490Y-10736372D01*
X16799490Y-9303352D02*
X16832510Y-9336372D01*
X16832510Y-9303352D02*
X16799490Y-9336372D01*
X16899490Y-10703352D02*
X16932510Y-10736372D01*
X16932510Y-10703352D02*
X16899490Y-10736372D01*
D13*
X16305591Y-10258712D02*
G75*
G03*
X16305591Y-10258712I-21590J0D01*
G01*
D10*
X14381000Y-8342560D02*
X14381000Y-8442560D01*
X14331000Y-8392560D02*
X14431000Y-8392560D01*
X14381000Y-8596560D02*
X14381000Y-8696560D01*
X14331000Y-8646560D02*
X14431000Y-8646560D01*
X14381000Y-9101000D02*
X14381000Y-9201000D01*
X14331000Y-9151000D02*
X14431000Y-9151000D01*
X14381000Y-11324362D02*
X14381000Y-11424362D01*
X14331000Y-11374362D02*
X14431000Y-11374362D01*
X14381000Y-11578362D02*
X14381000Y-11678362D01*
X14331000Y-11628362D02*
X14431000Y-11628362D01*
X14635000Y-8342560D02*
X14635000Y-8442560D01*
X14585000Y-8392560D02*
X14685000Y-8392560D01*
X14635000Y-8596560D02*
X14635000Y-8696560D01*
X14585000Y-8646560D02*
X14685000Y-8646560D01*
X14635000Y-9101000D02*
X14635000Y-9201000D01*
X14585000Y-9151000D02*
X14685000Y-9151000D01*
X14635000Y-11324362D02*
X14635000Y-11424362D01*
X14585000Y-11374362D02*
X14685000Y-11374362D01*
X14635000Y-11578362D02*
X14635000Y-11678362D01*
X14585000Y-11628362D02*
X14685000Y-11628362D01*
X14889000Y-8342560D02*
X14889000Y-8442560D01*
X14839000Y-8392560D02*
X14939000Y-8392560D01*
X14889000Y-8596560D02*
X14889000Y-8696560D01*
X14839000Y-8646560D02*
X14939000Y-8646560D01*
X14889000Y-11324362D02*
X14889000Y-11424362D01*
X14839000Y-11374362D02*
X14939000Y-11374362D01*
X14889000Y-11578362D02*
X14889000Y-11678362D01*
X14839000Y-11628362D02*
X14939000Y-11628362D01*
X15143000Y-8342560D02*
X15143000Y-8442560D01*
X15093000Y-8392560D02*
X15193000Y-8392560D01*
X15143000Y-8596560D02*
X15143000Y-8696560D01*
X15093000Y-8646560D02*
X15193000Y-8646560D01*
X15143000Y-11324362D02*
X15143000Y-11424362D01*
X15093000Y-11374362D02*
X15193000Y-11374362D01*
X15143000Y-11578362D02*
X15143000Y-11678362D01*
X15093000Y-11628362D02*
X15193000Y-11628362D01*
X15397000Y-8342560D02*
X15397000Y-8442560D01*
X15347000Y-8392560D02*
X15447000Y-8392560D01*
X15397000Y-8596560D02*
X15397000Y-8696560D01*
X15347000Y-8646560D02*
X15447000Y-8646560D01*
X15397000Y-11324362D02*
X15397000Y-11424362D01*
X15347000Y-11374362D02*
X15447000Y-11374362D01*
X15397000Y-11578362D02*
X15397000Y-11678362D01*
X15347000Y-11628362D02*
X15447000Y-11628362D01*
X15651000Y-8342560D02*
X15651000Y-8442560D01*
X15601000Y-8392560D02*
X15701000Y-8392560D01*
X15651000Y-8596560D02*
X15651000Y-8696560D01*
X15601000Y-8646560D02*
X15701000Y-8646560D01*
X15651000Y-11324362D02*
X15651000Y-11424362D01*
X15601000Y-11374362D02*
X15701000Y-11374362D01*
X15651000Y-11578362D02*
X15651000Y-11678362D01*
X15601000Y-11628362D02*
X15701000Y-11628362D01*
D11*
X13271777Y-12636346D02*
X13271777Y-12436346D01*
X13271777Y-12436346D02*
X13319396Y-12436346D01*
X13319396Y-12436346D02*
X13347967Y-12445870D01*
X13347967Y-12445870D02*
X13367015Y-12464917D01*
X13367015Y-12464917D02*
X13376539Y-12483965D01*
X13376539Y-12483965D02*
X13386062Y-12522060D01*
X13386062Y-12522060D02*
X13386062Y-12550632D01*
X13386062Y-12550632D02*
X13376539Y-12588727D01*
X13376539Y-12588727D02*
X13367015Y-12607774D01*
X13367015Y-12607774D02*
X13347967Y-12626822D01*
X13347967Y-12626822D02*
X13319396Y-12636346D01*
X13319396Y-12636346D02*
X13271777Y-12636346D01*
X13471777Y-12636346D02*
X13471777Y-12503012D01*
X13471777Y-12541108D02*
X13481301Y-12522060D01*
X13481301Y-12522060D02*
X13490824Y-12512536D01*
X13490824Y-12512536D02*
X13509872Y-12503012D01*
X13509872Y-12503012D02*
X13528920Y-12503012D01*
X13595586Y-12636346D02*
X13595586Y-12503012D01*
X13595586Y-12436346D02*
X13586062Y-12445870D01*
X13586062Y-12445870D02*
X13595586Y-12455393D01*
X13595586Y-12455393D02*
X13605110Y-12445870D01*
X13605110Y-12445870D02*
X13595586Y-12436346D01*
X13595586Y-12436346D02*
X13595586Y-12455393D01*
X13719396Y-12636346D02*
X13700348Y-12626822D01*
X13700348Y-12626822D02*
X13690824Y-12607774D01*
X13690824Y-12607774D02*
X13690824Y-12436346D01*
X13824158Y-12636346D02*
X13805110Y-12626822D01*
X13805110Y-12626822D02*
X13795586Y-12607774D01*
X13795586Y-12607774D02*
X13795586Y-12436346D01*
X14052729Y-12636346D02*
X14052729Y-12436346D01*
X14052729Y-12436346D02*
X14119396Y-12579203D01*
X14119396Y-12579203D02*
X14186062Y-12436346D01*
X14186062Y-12436346D02*
X14186062Y-12636346D01*
X14367015Y-12636346D02*
X14367015Y-12531584D01*
X14367015Y-12531584D02*
X14357491Y-12512536D01*
X14357491Y-12512536D02*
X14338443Y-12503012D01*
X14338443Y-12503012D02*
X14300348Y-12503012D01*
X14300348Y-12503012D02*
X14281301Y-12512536D01*
X14367015Y-12626822D02*
X14347967Y-12636346D01*
X14347967Y-12636346D02*
X14300348Y-12636346D01*
X14300348Y-12636346D02*
X14281301Y-12626822D01*
X14281301Y-12626822D02*
X14271777Y-12607774D01*
X14271777Y-12607774D02*
X14271777Y-12588727D01*
X14271777Y-12588727D02*
X14281301Y-12569679D01*
X14281301Y-12569679D02*
X14300348Y-12560155D01*
X14300348Y-12560155D02*
X14347967Y-12560155D01*
X14347967Y-12560155D02*
X14367015Y-12550632D01*
X14462253Y-12503012D02*
X14462253Y-12703012D01*
X14462253Y-12512536D02*
X14481301Y-12503012D01*
X14481301Y-12503012D02*
X14519396Y-12503012D01*
X14519396Y-12503012D02*
X14538443Y-12512536D01*
X14538443Y-12512536D02*
X14547967Y-12522060D01*
X14547967Y-12522060D02*
X14557491Y-12541108D01*
X14557491Y-12541108D02*
X14557491Y-12598251D01*
X14557491Y-12598251D02*
X14547967Y-12617298D01*
X14547967Y-12617298D02*
X14538443Y-12626822D01*
X14538443Y-12626822D02*
X14519396Y-12636346D01*
X14519396Y-12636346D02*
X14481301Y-12636346D01*
X14481301Y-12636346D02*
X14462253Y-12626822D01*
X14643205Y-12617298D02*
X14652729Y-12626822D01*
X14652729Y-12626822D02*
X14643205Y-12636346D01*
X14643205Y-12636346D02*
X14633682Y-12626822D01*
X14633682Y-12626822D02*
X14643205Y-12617298D01*
X14643205Y-12617298D02*
X14643205Y-12636346D01*
X14643205Y-12512536D02*
X14652729Y-12522060D01*
X14652729Y-12522060D02*
X14643205Y-12531584D01*
X14643205Y-12531584D02*
X14633682Y-12522060D01*
X14633682Y-12522060D02*
X14643205Y-12512536D01*
X14643205Y-12512536D02*
X14643205Y-12531584D01*
D12*
X12977980Y-12948352D02*
X13011000Y-12981372D01*
X13011000Y-12948352D02*
X12977980Y-12981372D01*
D11*
X13309872Y-12856346D02*
X13328920Y-12856346D01*
X13328920Y-12856346D02*
X13347967Y-12865870D01*
X13347967Y-12865870D02*
X13357491Y-12875393D01*
X13357491Y-12875393D02*
X13367015Y-12894441D01*
X13367015Y-12894441D02*
X13376539Y-12932536D01*
X13376539Y-12932536D02*
X13376539Y-12980155D01*
X13376539Y-12980155D02*
X13367015Y-13018251D01*
X13367015Y-13018251D02*
X13357491Y-13037298D01*
X13357491Y-13037298D02*
X13347967Y-13046822D01*
X13347967Y-13046822D02*
X13328920Y-13056346D01*
X13328920Y-13056346D02*
X13309872Y-13056346D01*
X13309872Y-13056346D02*
X13290824Y-13046822D01*
X13290824Y-13046822D02*
X13281301Y-13037298D01*
X13281301Y-13037298D02*
X13271777Y-13018251D01*
X13271777Y-13018251D02*
X13262253Y-12980155D01*
X13262253Y-12980155D02*
X13262253Y-12932536D01*
X13262253Y-12932536D02*
X13271777Y-12894441D01*
X13271777Y-12894441D02*
X13281301Y-12875393D01*
X13281301Y-12875393D02*
X13290824Y-12865870D01*
X13290824Y-12865870D02*
X13309872Y-12856346D01*
X13462253Y-13037298D02*
X13471777Y-13046822D01*
X13471777Y-13046822D02*
X13462253Y-13056346D01*
X13462253Y-13056346D02*
X13452729Y-13046822D01*
X13452729Y-13046822D02*
X13462253Y-13037298D01*
X13462253Y-13037298D02*
X13462253Y-13056346D01*
X13538443Y-12856346D02*
X13662253Y-12856346D01*
X13662253Y-12856346D02*
X13595586Y-12932536D01*
X13595586Y-12932536D02*
X13624158Y-12932536D01*
X13624158Y-12932536D02*
X13643205Y-12942060D01*
X13643205Y-12942060D02*
X13652729Y-12951584D01*
X13652729Y-12951584D02*
X13662253Y-12970632D01*
X13662253Y-12970632D02*
X13662253Y-13018251D01*
X13662253Y-13018251D02*
X13652729Y-13037298D01*
X13652729Y-13037298D02*
X13643205Y-13046822D01*
X13643205Y-13046822D02*
X13624158Y-13056346D01*
X13624158Y-13056346D02*
X13567015Y-13056346D01*
X13567015Y-13056346D02*
X13547967Y-13046822D01*
X13547967Y-13046822D02*
X13538443Y-13037298D01*
X13728920Y-12856346D02*
X13852729Y-12856346D01*
X13852729Y-12856346D02*
X13786062Y-12932536D01*
X13786062Y-12932536D02*
X13814634Y-12932536D01*
X13814634Y-12932536D02*
X13833682Y-12942060D01*
X13833682Y-12942060D02*
X13843205Y-12951584D01*
X13843205Y-12951584D02*
X13852729Y-12970632D01*
X13852729Y-12970632D02*
X13852729Y-13018251D01*
X13852729Y-13018251D02*
X13843205Y-13037298D01*
X13843205Y-13037298D02*
X13833682Y-13046822D01*
X13833682Y-13046822D02*
X13814634Y-13056346D01*
X13814634Y-13056346D02*
X13757491Y-13056346D01*
X13757491Y-13056346D02*
X13738443Y-13046822D01*
X13738443Y-13046822D02*
X13728920Y-13037298D01*
X13976539Y-12856346D02*
X13995586Y-12856346D01*
X13995586Y-12856346D02*
X14014634Y-12865870D01*
X14014634Y-12865870D02*
X14024158Y-12875393D01*
X14024158Y-12875393D02*
X14033682Y-12894441D01*
X14033682Y-12894441D02*
X14043205Y-12932536D01*
X14043205Y-12932536D02*
X14043205Y-12980155D01*
X14043205Y-12980155D02*
X14033682Y-13018251D01*
X14033682Y-13018251D02*
X14024158Y-13037298D01*
X14024158Y-13037298D02*
X14014634Y-13046822D01*
X14014634Y-13046822D02*
X13995586Y-13056346D01*
X13995586Y-13056346D02*
X13976539Y-13056346D01*
X13976539Y-13056346D02*
X13957491Y-13046822D01*
X13957491Y-13046822D02*
X13947967Y-13037298D01*
X13947967Y-13037298D02*
X13938443Y-13018251D01*
X13938443Y-13018251D02*
X13928920Y-12980155D01*
X13928920Y-12980155D02*
X13928920Y-12932536D01*
X13928920Y-12932536D02*
X13938443Y-12894441D01*
X13938443Y-12894441D02*
X13947967Y-12875393D01*
X13947967Y-12875393D02*
X13957491Y-12865870D01*
X13957491Y-12865870D02*
X13976539Y-12856346D01*
X14128920Y-13056346D02*
X14128920Y-12923012D01*
X14128920Y-12942060D02*
X14138443Y-12932536D01*
X14138443Y-12932536D02*
X14157491Y-12923012D01*
X14157491Y-12923012D02*
X14186063Y-12923012D01*
X14186063Y-12923012D02*
X14205110Y-12932536D01*
X14205110Y-12932536D02*
X14214634Y-12951584D01*
X14214634Y-12951584D02*
X14214634Y-13056346D01*
X14214634Y-12951584D02*
X14224158Y-12932536D01*
X14224158Y-12932536D02*
X14243205Y-12923012D01*
X14243205Y-12923012D02*
X14271777Y-12923012D01*
X14271777Y-12923012D02*
X14290824Y-12932536D01*
X14290824Y-12932536D02*
X14300348Y-12951584D01*
X14300348Y-12951584D02*
X14300348Y-13056346D01*
X14395586Y-13056346D02*
X14395586Y-12923012D01*
X14395586Y-12942060D02*
X14405110Y-12932536D01*
X14405110Y-12932536D02*
X14424158Y-12923012D01*
X14424158Y-12923012D02*
X14452729Y-12923012D01*
X14452729Y-12923012D02*
X14471777Y-12932536D01*
X14471777Y-12932536D02*
X14481301Y-12951584D01*
X14481301Y-12951584D02*
X14481301Y-13056346D01*
X14481301Y-12951584D02*
X14490824Y-12932536D01*
X14490824Y-12932536D02*
X14509872Y-12923012D01*
X14509872Y-12923012D02*
X14538443Y-12923012D01*
X14538443Y-12923012D02*
X14557491Y-12932536D01*
X14557491Y-12932536D02*
X14567015Y-12951584D01*
X14567015Y-12951584D02*
X14567015Y-13056346D01*
X14957491Y-12846822D02*
X14786063Y-13103965D01*
X15214634Y-12856346D02*
X15233682Y-12856346D01*
X15233682Y-12856346D02*
X15252729Y-12865870D01*
X15252729Y-12865870D02*
X15262253Y-12875393D01*
X15262253Y-12875393D02*
X15271777Y-12894441D01*
X15271777Y-12894441D02*
X15281301Y-12932536D01*
X15281301Y-12932536D02*
X15281301Y-12980155D01*
X15281301Y-12980155D02*
X15271777Y-13018251D01*
X15271777Y-13018251D02*
X15262253Y-13037298D01*
X15262253Y-13037298D02*
X15252729Y-13046822D01*
X15252729Y-13046822D02*
X15233682Y-13056346D01*
X15233682Y-13056346D02*
X15214634Y-13056346D01*
X15214634Y-13056346D02*
X15195586Y-13046822D01*
X15195586Y-13046822D02*
X15186063Y-13037298D01*
X15186063Y-13037298D02*
X15176539Y-13018251D01*
X15176539Y-13018251D02*
X15167015Y-12980155D01*
X15167015Y-12980155D02*
X15167015Y-12932536D01*
X15167015Y-12932536D02*
X15176539Y-12894441D01*
X15176539Y-12894441D02*
X15186063Y-12875393D01*
X15186063Y-12875393D02*
X15195586Y-12865870D01*
X15195586Y-12865870D02*
X15214634Y-12856346D01*
X15367015Y-13037298D02*
X15376539Y-13046822D01*
X15376539Y-13046822D02*
X15367015Y-13056346D01*
X15367015Y-13056346D02*
X15357491Y-13046822D01*
X15357491Y-13046822D02*
X15367015Y-13037298D01*
X15367015Y-13037298D02*
X15367015Y-13056346D01*
X15500348Y-12856346D02*
X15519396Y-12856346D01*
X15519396Y-12856346D02*
X15538444Y-12865870D01*
X15538444Y-12865870D02*
X15547967Y-12875393D01*
X15547967Y-12875393D02*
X15557491Y-12894441D01*
X15557491Y-12894441D02*
X15567015Y-12932536D01*
X15567015Y-12932536D02*
X15567015Y-12980155D01*
X15567015Y-12980155D02*
X15557491Y-13018251D01*
X15557491Y-13018251D02*
X15547967Y-13037298D01*
X15547967Y-13037298D02*
X15538444Y-13046822D01*
X15538444Y-13046822D02*
X15519396Y-13056346D01*
X15519396Y-13056346D02*
X15500348Y-13056346D01*
X15500348Y-13056346D02*
X15481301Y-13046822D01*
X15481301Y-13046822D02*
X15471777Y-13037298D01*
X15471777Y-13037298D02*
X15462253Y-13018251D01*
X15462253Y-13018251D02*
X15452729Y-12980155D01*
X15452729Y-12980155D02*
X15452729Y-12932536D01*
X15452729Y-12932536D02*
X15462253Y-12894441D01*
X15462253Y-12894441D02*
X15471777Y-12875393D01*
X15471777Y-12875393D02*
X15481301Y-12865870D01*
X15481301Y-12865870D02*
X15500348Y-12856346D01*
X15757491Y-13056346D02*
X15643206Y-13056346D01*
X15700348Y-13056346D02*
X15700348Y-12856346D01*
X15700348Y-12856346D02*
X15681301Y-12884917D01*
X15681301Y-12884917D02*
X15662253Y-12903965D01*
X15662253Y-12903965D02*
X15643206Y-12913489D01*
X15824158Y-12856346D02*
X15947967Y-12856346D01*
X15947967Y-12856346D02*
X15881301Y-12932536D01*
X15881301Y-12932536D02*
X15909872Y-12932536D01*
X15909872Y-12932536D02*
X15928920Y-12942060D01*
X15928920Y-12942060D02*
X15938444Y-12951584D01*
X15938444Y-12951584D02*
X15947967Y-12970632D01*
X15947967Y-12970632D02*
X15947967Y-13018251D01*
X15947967Y-13018251D02*
X15938444Y-13037298D01*
X15938444Y-13037298D02*
X15928920Y-13046822D01*
X15928920Y-13046822D02*
X15909872Y-13056346D01*
X15909872Y-13056346D02*
X15852729Y-13056346D01*
X15852729Y-13056346D02*
X15833682Y-13046822D01*
X15833682Y-13046822D02*
X15824158Y-13037298D01*
X16071777Y-12856346D02*
X16090825Y-12856346D01*
X16090825Y-12856346D02*
X16109872Y-12865870D01*
X16109872Y-12865870D02*
X16119396Y-12875393D01*
X16119396Y-12875393D02*
X16128920Y-12894441D01*
X16128920Y-12894441D02*
X16138444Y-12932536D01*
X16138444Y-12932536D02*
X16138444Y-12980155D01*
X16138444Y-12980155D02*
X16128920Y-13018251D01*
X16128920Y-13018251D02*
X16119396Y-13037298D01*
X16119396Y-13037298D02*
X16109872Y-13046822D01*
X16109872Y-13046822D02*
X16090825Y-13056346D01*
X16090825Y-13056346D02*
X16071777Y-13056346D01*
X16071777Y-13056346D02*
X16052729Y-13046822D01*
X16052729Y-13046822D02*
X16043206Y-13037298D01*
X16043206Y-13037298D02*
X16033682Y-13018251D01*
X16033682Y-13018251D02*
X16024158Y-12980155D01*
X16024158Y-12980155D02*
X16024158Y-12932536D01*
X16024158Y-12932536D02*
X16033682Y-12894441D01*
X16033682Y-12894441D02*
X16043206Y-12875393D01*
X16043206Y-12875393D02*
X16052729Y-12865870D01*
X16052729Y-12865870D02*
X16071777Y-12856346D01*
X16214634Y-12856346D02*
X16214634Y-12894441D01*
X16290825Y-12856346D02*
X16290825Y-12894441D01*
X16586063Y-13132536D02*
X16576539Y-13123012D01*
X16576539Y-13123012D02*
X16557491Y-13094441D01*
X16557491Y-13094441D02*
X16547968Y-13075393D01*
X16547968Y-13075393D02*
X16538444Y-13046822D01*
X16538444Y-13046822D02*
X16528920Y-12999203D01*
X16528920Y-12999203D02*
X16528920Y-12961108D01*
X16528920Y-12961108D02*
X16538444Y-12913489D01*
X16538444Y-12913489D02*
X16547968Y-12884917D01*
X16547968Y-12884917D02*
X16557491Y-12865870D01*
X16557491Y-12865870D02*
X16576539Y-12837298D01*
X16576539Y-12837298D02*
X16586063Y-12827774D01*
X16767015Y-13056346D02*
X16652729Y-13056346D01*
X16709872Y-13056346D02*
X16709872Y-12856346D01*
X16709872Y-12856346D02*
X16690825Y-12884917D01*
X16690825Y-12884917D02*
X16671777Y-12903965D01*
X16671777Y-12903965D02*
X16652729Y-12913489D01*
X16938444Y-12923012D02*
X16938444Y-13056346D01*
X16890825Y-12846822D02*
X16843206Y-12989679D01*
X16843206Y-12989679D02*
X16967015Y-12989679D01*
X17128920Y-12923012D02*
X17128920Y-13056346D01*
X17081301Y-12846822D02*
X17033682Y-12989679D01*
X17033682Y-12989679D02*
X17157491Y-12989679D01*
X17386063Y-13056346D02*
X17386063Y-12856346D01*
X17471777Y-13056346D02*
X17471777Y-12951584D01*
X17471777Y-12951584D02*
X17462253Y-12932536D01*
X17462253Y-12932536D02*
X17443206Y-12923012D01*
X17443206Y-12923012D02*
X17414634Y-12923012D01*
X17414634Y-12923012D02*
X17395587Y-12932536D01*
X17395587Y-12932536D02*
X17386063Y-12942060D01*
X17595587Y-13056346D02*
X17576539Y-13046822D01*
X17576539Y-13046822D02*
X17567015Y-13037298D01*
X17567015Y-13037298D02*
X17557492Y-13018251D01*
X17557492Y-13018251D02*
X17557492Y-12961108D01*
X17557492Y-12961108D02*
X17567015Y-12942060D01*
X17567015Y-12942060D02*
X17576539Y-12932536D01*
X17576539Y-12932536D02*
X17595587Y-12923012D01*
X17595587Y-12923012D02*
X17624158Y-12923012D01*
X17624158Y-12923012D02*
X17643206Y-12932536D01*
X17643206Y-12932536D02*
X17652730Y-12942060D01*
X17652730Y-12942060D02*
X17662253Y-12961108D01*
X17662253Y-12961108D02*
X17662253Y-13018251D01*
X17662253Y-13018251D02*
X17652730Y-13037298D01*
X17652730Y-13037298D02*
X17643206Y-13046822D01*
X17643206Y-13046822D02*
X17624158Y-13056346D01*
X17624158Y-13056346D02*
X17595587Y-13056346D01*
X17776539Y-13056346D02*
X17757492Y-13046822D01*
X17757492Y-13046822D02*
X17747968Y-13027774D01*
X17747968Y-13027774D02*
X17747968Y-12856346D01*
X17928920Y-13046822D02*
X17909873Y-13056346D01*
X17909873Y-13056346D02*
X17871777Y-13056346D01*
X17871777Y-13056346D02*
X17852730Y-13046822D01*
X17852730Y-13046822D02*
X17843206Y-13027774D01*
X17843206Y-13027774D02*
X17843206Y-12951584D01*
X17843206Y-12951584D02*
X17852730Y-12932536D01*
X17852730Y-12932536D02*
X17871777Y-12923012D01*
X17871777Y-12923012D02*
X17909873Y-12923012D01*
X17909873Y-12923012D02*
X17928920Y-12932536D01*
X17928920Y-12932536D02*
X17938444Y-12951584D01*
X17938444Y-12951584D02*
X17938444Y-12970632D01*
X17938444Y-12970632D02*
X17843206Y-12989679D01*
X18014634Y-13046822D02*
X18033682Y-13056346D01*
X18033682Y-13056346D02*
X18071777Y-13056346D01*
X18071777Y-13056346D02*
X18090825Y-13046822D01*
X18090825Y-13046822D02*
X18100349Y-13027774D01*
X18100349Y-13027774D02*
X18100349Y-13018251D01*
X18100349Y-13018251D02*
X18090825Y-12999203D01*
X18090825Y-12999203D02*
X18071777Y-12989679D01*
X18071777Y-12989679D02*
X18043206Y-12989679D01*
X18043206Y-12989679D02*
X18024158Y-12980155D01*
X18024158Y-12980155D02*
X18014634Y-12961108D01*
X18014634Y-12961108D02*
X18014634Y-12951584D01*
X18014634Y-12951584D02*
X18024158Y-12932536D01*
X18024158Y-12932536D02*
X18043206Y-12923012D01*
X18043206Y-12923012D02*
X18071777Y-12923012D01*
X18071777Y-12923012D02*
X18090825Y-12932536D01*
X18167015Y-13132536D02*
X18176539Y-13123012D01*
X18176539Y-13123012D02*
X18195587Y-13094441D01*
X18195587Y-13094441D02*
X18205111Y-13075393D01*
X18205111Y-13075393D02*
X18214634Y-13046822D01*
X18214634Y-13046822D02*
X18224158Y-12999203D01*
X18224158Y-12999203D02*
X18224158Y-12961108D01*
X18224158Y-12961108D02*
X18214634Y-12913489D01*
X18214634Y-12913489D02*
X18205111Y-12884917D01*
X18205111Y-12884917D02*
X18195587Y-12865870D01*
X18195587Y-12865870D02*
X18176539Y-12837298D01*
X18176539Y-12837298D02*
X18167015Y-12827774D01*
D13*
X13011000Y-13228862D02*
G75*
G03*
X13011000Y-13228862I-21590J0D01*
G01*
D11*
X13309872Y-13120346D02*
X13328920Y-13120346D01*
X13328920Y-13120346D02*
X13347967Y-13129870D01*
X13347967Y-13129870D02*
X13357491Y-13139393D01*
X13357491Y-13139393D02*
X13367015Y-13158441D01*
X13367015Y-13158441D02*
X13376539Y-13196536D01*
X13376539Y-13196536D02*
X13376539Y-13244155D01*
X13376539Y-13244155D02*
X13367015Y-13282251D01*
X13367015Y-13282251D02*
X13357491Y-13301298D01*
X13357491Y-13301298D02*
X13347967Y-13310822D01*
X13347967Y-13310822D02*
X13328920Y-13320346D01*
X13328920Y-13320346D02*
X13309872Y-13320346D01*
X13309872Y-13320346D02*
X13290824Y-13310822D01*
X13290824Y-13310822D02*
X13281301Y-13301298D01*
X13281301Y-13301298D02*
X13271777Y-13282251D01*
X13271777Y-13282251D02*
X13262253Y-13244155D01*
X13262253Y-13244155D02*
X13262253Y-13196536D01*
X13262253Y-13196536D02*
X13271777Y-13158441D01*
X13271777Y-13158441D02*
X13281301Y-13139393D01*
X13281301Y-13139393D02*
X13290824Y-13129870D01*
X13290824Y-13129870D02*
X13309872Y-13120346D01*
X13462253Y-13301298D02*
X13471777Y-13310822D01*
X13471777Y-13310822D02*
X13462253Y-13320346D01*
X13462253Y-13320346D02*
X13452729Y-13310822D01*
X13452729Y-13310822D02*
X13462253Y-13301298D01*
X13462253Y-13301298D02*
X13462253Y-13320346D01*
X13643205Y-13187012D02*
X13643205Y-13320346D01*
X13595586Y-13110822D02*
X13547967Y-13253679D01*
X13547967Y-13253679D02*
X13671777Y-13253679D01*
X13728920Y-13120346D02*
X13852729Y-13120346D01*
X13852729Y-13120346D02*
X13786062Y-13196536D01*
X13786062Y-13196536D02*
X13814634Y-13196536D01*
X13814634Y-13196536D02*
X13833682Y-13206060D01*
X13833682Y-13206060D02*
X13843205Y-13215584D01*
X13843205Y-13215584D02*
X13852729Y-13234632D01*
X13852729Y-13234632D02*
X13852729Y-13282251D01*
X13852729Y-13282251D02*
X13843205Y-13301298D01*
X13843205Y-13301298D02*
X13833682Y-13310822D01*
X13833682Y-13310822D02*
X13814634Y-13320346D01*
X13814634Y-13320346D02*
X13757491Y-13320346D01*
X13757491Y-13320346D02*
X13738443Y-13310822D01*
X13738443Y-13310822D02*
X13728920Y-13301298D01*
X13928920Y-13139393D02*
X13938443Y-13129870D01*
X13938443Y-13129870D02*
X13957491Y-13120346D01*
X13957491Y-13120346D02*
X14005110Y-13120346D01*
X14005110Y-13120346D02*
X14024158Y-13129870D01*
X14024158Y-13129870D02*
X14033682Y-13139393D01*
X14033682Y-13139393D02*
X14043205Y-13158441D01*
X14043205Y-13158441D02*
X14043205Y-13177489D01*
X14043205Y-13177489D02*
X14033682Y-13206060D01*
X14033682Y-13206060D02*
X13919396Y-13320346D01*
X13919396Y-13320346D02*
X14043205Y-13320346D01*
X14128920Y-13320346D02*
X14128920Y-13187012D01*
X14128920Y-13206060D02*
X14138443Y-13196536D01*
X14138443Y-13196536D02*
X14157491Y-13187012D01*
X14157491Y-13187012D02*
X14186063Y-13187012D01*
X14186063Y-13187012D02*
X14205110Y-13196536D01*
X14205110Y-13196536D02*
X14214634Y-13215584D01*
X14214634Y-13215584D02*
X14214634Y-13320346D01*
X14214634Y-13215584D02*
X14224158Y-13196536D01*
X14224158Y-13196536D02*
X14243205Y-13187012D01*
X14243205Y-13187012D02*
X14271777Y-13187012D01*
X14271777Y-13187012D02*
X14290824Y-13196536D01*
X14290824Y-13196536D02*
X14300348Y-13215584D01*
X14300348Y-13215584D02*
X14300348Y-13320346D01*
X14395586Y-13320346D02*
X14395586Y-13187012D01*
X14395586Y-13206060D02*
X14405110Y-13196536D01*
X14405110Y-13196536D02*
X14424158Y-13187012D01*
X14424158Y-13187012D02*
X14452729Y-13187012D01*
X14452729Y-13187012D02*
X14471777Y-13196536D01*
X14471777Y-13196536D02*
X14481301Y-13215584D01*
X14481301Y-13215584D02*
X14481301Y-13320346D01*
X14481301Y-13215584D02*
X14490824Y-13196536D01*
X14490824Y-13196536D02*
X14509872Y-13187012D01*
X14509872Y-13187012D02*
X14538443Y-13187012D01*
X14538443Y-13187012D02*
X14557491Y-13196536D01*
X14557491Y-13196536D02*
X14567015Y-13215584D01*
X14567015Y-13215584D02*
X14567015Y-13320346D01*
X14957491Y-13110822D02*
X14786063Y-13367965D01*
X15214634Y-13120346D02*
X15233682Y-13120346D01*
X15233682Y-13120346D02*
X15252729Y-13129870D01*
X15252729Y-13129870D02*
X15262253Y-13139393D01*
X15262253Y-13139393D02*
X15271777Y-13158441D01*
X15271777Y-13158441D02*
X15281301Y-13196536D01*
X15281301Y-13196536D02*
X15281301Y-13244155D01*
X15281301Y-13244155D02*
X15271777Y-13282251D01*
X15271777Y-13282251D02*
X15262253Y-13301298D01*
X15262253Y-13301298D02*
X15252729Y-13310822D01*
X15252729Y-13310822D02*
X15233682Y-13320346D01*
X15233682Y-13320346D02*
X15214634Y-13320346D01*
X15214634Y-13320346D02*
X15195586Y-13310822D01*
X15195586Y-13310822D02*
X15186063Y-13301298D01*
X15186063Y-13301298D02*
X15176539Y-13282251D01*
X15176539Y-13282251D02*
X15167015Y-13244155D01*
X15167015Y-13244155D02*
X15167015Y-13196536D01*
X15167015Y-13196536D02*
X15176539Y-13158441D01*
X15176539Y-13158441D02*
X15186063Y-13139393D01*
X15186063Y-13139393D02*
X15195586Y-13129870D01*
X15195586Y-13129870D02*
X15214634Y-13120346D01*
X15367015Y-13301298D02*
X15376539Y-13310822D01*
X15376539Y-13310822D02*
X15367015Y-13320346D01*
X15367015Y-13320346D02*
X15357491Y-13310822D01*
X15357491Y-13310822D02*
X15367015Y-13301298D01*
X15367015Y-13301298D02*
X15367015Y-13320346D01*
X15500348Y-13120346D02*
X15519396Y-13120346D01*
X15519396Y-13120346D02*
X15538444Y-13129870D01*
X15538444Y-13129870D02*
X15547967Y-13139393D01*
X15547967Y-13139393D02*
X15557491Y-13158441D01*
X15557491Y-13158441D02*
X15567015Y-13196536D01*
X15567015Y-13196536D02*
X15567015Y-13244155D01*
X15567015Y-13244155D02*
X15557491Y-13282251D01*
X15557491Y-13282251D02*
X15547967Y-13301298D01*
X15547967Y-13301298D02*
X15538444Y-13310822D01*
X15538444Y-13310822D02*
X15519396Y-13320346D01*
X15519396Y-13320346D02*
X15500348Y-13320346D01*
X15500348Y-13320346D02*
X15481301Y-13310822D01*
X15481301Y-13310822D02*
X15471777Y-13301298D01*
X15471777Y-13301298D02*
X15462253Y-13282251D01*
X15462253Y-13282251D02*
X15452729Y-13244155D01*
X15452729Y-13244155D02*
X15452729Y-13196536D01*
X15452729Y-13196536D02*
X15462253Y-13158441D01*
X15462253Y-13158441D02*
X15471777Y-13139393D01*
X15471777Y-13139393D02*
X15481301Y-13129870D01*
X15481301Y-13129870D02*
X15500348Y-13120346D01*
X15757491Y-13320346D02*
X15643206Y-13320346D01*
X15700348Y-13320346D02*
X15700348Y-13120346D01*
X15700348Y-13120346D02*
X15681301Y-13148917D01*
X15681301Y-13148917D02*
X15662253Y-13167965D01*
X15662253Y-13167965D02*
X15643206Y-13177489D01*
X15824158Y-13120346D02*
X15957491Y-13120346D01*
X15957491Y-13120346D02*
X15871777Y-13320346D01*
X16071777Y-13120346D02*
X16090825Y-13120346D01*
X16090825Y-13120346D02*
X16109872Y-13129870D01*
X16109872Y-13129870D02*
X16119396Y-13139393D01*
X16119396Y-13139393D02*
X16128920Y-13158441D01*
X16128920Y-13158441D02*
X16138444Y-13196536D01*
X16138444Y-13196536D02*
X16138444Y-13244155D01*
X16138444Y-13244155D02*
X16128920Y-13282251D01*
X16128920Y-13282251D02*
X16119396Y-13301298D01*
X16119396Y-13301298D02*
X16109872Y-13310822D01*
X16109872Y-13310822D02*
X16090825Y-13320346D01*
X16090825Y-13320346D02*
X16071777Y-13320346D01*
X16071777Y-13320346D02*
X16052729Y-13310822D01*
X16052729Y-13310822D02*
X16043206Y-13301298D01*
X16043206Y-13301298D02*
X16033682Y-13282251D01*
X16033682Y-13282251D02*
X16024158Y-13244155D01*
X16024158Y-13244155D02*
X16024158Y-13196536D01*
X16024158Y-13196536D02*
X16033682Y-13158441D01*
X16033682Y-13158441D02*
X16043206Y-13139393D01*
X16043206Y-13139393D02*
X16052729Y-13129870D01*
X16052729Y-13129870D02*
X16071777Y-13120346D01*
X16214634Y-13120346D02*
X16214634Y-13158441D01*
X16290825Y-13120346D02*
X16290825Y-13158441D01*
X16586063Y-13396536D02*
X16576539Y-13387012D01*
X16576539Y-13387012D02*
X16557491Y-13358441D01*
X16557491Y-13358441D02*
X16547968Y-13339393D01*
X16547968Y-13339393D02*
X16538444Y-13310822D01*
X16538444Y-13310822D02*
X16528920Y-13263203D01*
X16528920Y-13263203D02*
X16528920Y-13225108D01*
X16528920Y-13225108D02*
X16538444Y-13177489D01*
X16538444Y-13177489D02*
X16547968Y-13148917D01*
X16547968Y-13148917D02*
X16557491Y-13129870D01*
X16557491Y-13129870D02*
X16576539Y-13101298D01*
X16576539Y-13101298D02*
X16586063Y-13091774D01*
X16767015Y-13320346D02*
X16652729Y-13320346D01*
X16709872Y-13320346D02*
X16709872Y-13120346D01*
X16709872Y-13120346D02*
X16690825Y-13148917D01*
X16690825Y-13148917D02*
X16671777Y-13167965D01*
X16671777Y-13167965D02*
X16652729Y-13177489D01*
X17005111Y-13320346D02*
X17005111Y-13120346D01*
X17090825Y-13320346D02*
X17090825Y-13215584D01*
X17090825Y-13215584D02*
X17081301Y-13196536D01*
X17081301Y-13196536D02*
X17062253Y-13187012D01*
X17062253Y-13187012D02*
X17033682Y-13187012D01*
X17033682Y-13187012D02*
X17014634Y-13196536D01*
X17014634Y-13196536D02*
X17005111Y-13206060D01*
X17214634Y-13320346D02*
X17195587Y-13310822D01*
X17195587Y-13310822D02*
X17186063Y-13301298D01*
X17186063Y-13301298D02*
X17176539Y-13282251D01*
X17176539Y-13282251D02*
X17176539Y-13225108D01*
X17176539Y-13225108D02*
X17186063Y-13206060D01*
X17186063Y-13206060D02*
X17195587Y-13196536D01*
X17195587Y-13196536D02*
X17214634Y-13187012D01*
X17214634Y-13187012D02*
X17243206Y-13187012D01*
X17243206Y-13187012D02*
X17262253Y-13196536D01*
X17262253Y-13196536D02*
X17271777Y-13206060D01*
X17271777Y-13206060D02*
X17281301Y-13225108D01*
X17281301Y-13225108D02*
X17281301Y-13282251D01*
X17281301Y-13282251D02*
X17271777Y-13301298D01*
X17271777Y-13301298D02*
X17262253Y-13310822D01*
X17262253Y-13310822D02*
X17243206Y-13320346D01*
X17243206Y-13320346D02*
X17214634Y-13320346D01*
X17395587Y-13320346D02*
X17376539Y-13310822D01*
X17376539Y-13310822D02*
X17367015Y-13291774D01*
X17367015Y-13291774D02*
X17367015Y-13120346D01*
X17547968Y-13310822D02*
X17528920Y-13320346D01*
X17528920Y-13320346D02*
X17490825Y-13320346D01*
X17490825Y-13320346D02*
X17471777Y-13310822D01*
X17471777Y-13310822D02*
X17462253Y-13291774D01*
X17462253Y-13291774D02*
X17462253Y-13215584D01*
X17462253Y-13215584D02*
X17471777Y-13196536D01*
X17471777Y-13196536D02*
X17490825Y-13187012D01*
X17490825Y-13187012D02*
X17528920Y-13187012D01*
X17528920Y-13187012D02*
X17547968Y-13196536D01*
X17547968Y-13196536D02*
X17557492Y-13215584D01*
X17557492Y-13215584D02*
X17557492Y-13234632D01*
X17557492Y-13234632D02*
X17462253Y-13253679D01*
X17624158Y-13396536D02*
X17633682Y-13387012D01*
X17633682Y-13387012D02*
X17652730Y-13358441D01*
X17652730Y-13358441D02*
X17662253Y-13339393D01*
X17662253Y-13339393D02*
X17671777Y-13310822D01*
X17671777Y-13310822D02*
X17681301Y-13263203D01*
X17681301Y-13263203D02*
X17681301Y-13225108D01*
X17681301Y-13225108D02*
X17671777Y-13177489D01*
X17671777Y-13177489D02*
X17662253Y-13148917D01*
X17662253Y-13148917D02*
X17652730Y-13129870D01*
X17652730Y-13129870D02*
X17633682Y-13101298D01*
X17633682Y-13101298D02*
X17624158Y-13091774D01*
D10*
X12961000Y-13442862D02*
X12961000Y-13542862D01*
X12911000Y-13492862D02*
X13011000Y-13492862D01*
D11*
X13376539Y-13584346D02*
X13262253Y-13584346D01*
X13319396Y-13584346D02*
X13319396Y-13384346D01*
X13319396Y-13384346D02*
X13300348Y-13412917D01*
X13300348Y-13412917D02*
X13281301Y-13431965D01*
X13281301Y-13431965D02*
X13262253Y-13441489D01*
X13462253Y-13565298D02*
X13471777Y-13574822D01*
X13471777Y-13574822D02*
X13462253Y-13584346D01*
X13462253Y-13584346D02*
X13452729Y-13574822D01*
X13452729Y-13574822D02*
X13462253Y-13565298D01*
X13462253Y-13565298D02*
X13462253Y-13584346D01*
X13595586Y-13384346D02*
X13614634Y-13384346D01*
X13614634Y-13384346D02*
X13633682Y-13393870D01*
X13633682Y-13393870D02*
X13643205Y-13403393D01*
X13643205Y-13403393D02*
X13652729Y-13422441D01*
X13652729Y-13422441D02*
X13662253Y-13460536D01*
X13662253Y-13460536D02*
X13662253Y-13508155D01*
X13662253Y-13508155D02*
X13652729Y-13546251D01*
X13652729Y-13546251D02*
X13643205Y-13565298D01*
X13643205Y-13565298D02*
X13633682Y-13574822D01*
X13633682Y-13574822D02*
X13614634Y-13584346D01*
X13614634Y-13584346D02*
X13595586Y-13584346D01*
X13595586Y-13584346D02*
X13576539Y-13574822D01*
X13576539Y-13574822D02*
X13567015Y-13565298D01*
X13567015Y-13565298D02*
X13557491Y-13546251D01*
X13557491Y-13546251D02*
X13547967Y-13508155D01*
X13547967Y-13508155D02*
X13547967Y-13460536D01*
X13547967Y-13460536D02*
X13557491Y-13422441D01*
X13557491Y-13422441D02*
X13567015Y-13403393D01*
X13567015Y-13403393D02*
X13576539Y-13393870D01*
X13576539Y-13393870D02*
X13595586Y-13384346D01*
X13786062Y-13384346D02*
X13805110Y-13384346D01*
X13805110Y-13384346D02*
X13824158Y-13393870D01*
X13824158Y-13393870D02*
X13833682Y-13403393D01*
X13833682Y-13403393D02*
X13843205Y-13422441D01*
X13843205Y-13422441D02*
X13852729Y-13460536D01*
X13852729Y-13460536D02*
X13852729Y-13508155D01*
X13852729Y-13508155D02*
X13843205Y-13546251D01*
X13843205Y-13546251D02*
X13833682Y-13565298D01*
X13833682Y-13565298D02*
X13824158Y-13574822D01*
X13824158Y-13574822D02*
X13805110Y-13584346D01*
X13805110Y-13584346D02*
X13786062Y-13584346D01*
X13786062Y-13584346D02*
X13767015Y-13574822D01*
X13767015Y-13574822D02*
X13757491Y-13565298D01*
X13757491Y-13565298D02*
X13747967Y-13546251D01*
X13747967Y-13546251D02*
X13738443Y-13508155D01*
X13738443Y-13508155D02*
X13738443Y-13460536D01*
X13738443Y-13460536D02*
X13747967Y-13422441D01*
X13747967Y-13422441D02*
X13757491Y-13403393D01*
X13757491Y-13403393D02*
X13767015Y-13393870D01*
X13767015Y-13393870D02*
X13786062Y-13384346D01*
X13976539Y-13384346D02*
X13995586Y-13384346D01*
X13995586Y-13384346D02*
X14014634Y-13393870D01*
X14014634Y-13393870D02*
X14024158Y-13403393D01*
X14024158Y-13403393D02*
X14033682Y-13422441D01*
X14033682Y-13422441D02*
X14043205Y-13460536D01*
X14043205Y-13460536D02*
X14043205Y-13508155D01*
X14043205Y-13508155D02*
X14033682Y-13546251D01*
X14033682Y-13546251D02*
X14024158Y-13565298D01*
X14024158Y-13565298D02*
X14014634Y-13574822D01*
X14014634Y-13574822D02*
X13995586Y-13584346D01*
X13995586Y-13584346D02*
X13976539Y-13584346D01*
X13976539Y-13584346D02*
X13957491Y-13574822D01*
X13957491Y-13574822D02*
X13947967Y-13565298D01*
X13947967Y-13565298D02*
X13938443Y-13546251D01*
X13938443Y-13546251D02*
X13928920Y-13508155D01*
X13928920Y-13508155D02*
X13928920Y-13460536D01*
X13928920Y-13460536D02*
X13938443Y-13422441D01*
X13938443Y-13422441D02*
X13947967Y-13403393D01*
X13947967Y-13403393D02*
X13957491Y-13393870D01*
X13957491Y-13393870D02*
X13976539Y-13384346D01*
X14128920Y-13584346D02*
X14128920Y-13451012D01*
X14128920Y-13470060D02*
X14138443Y-13460536D01*
X14138443Y-13460536D02*
X14157491Y-13451012D01*
X14157491Y-13451012D02*
X14186063Y-13451012D01*
X14186063Y-13451012D02*
X14205110Y-13460536D01*
X14205110Y-13460536D02*
X14214634Y-13479584D01*
X14214634Y-13479584D02*
X14214634Y-13584346D01*
X14214634Y-13479584D02*
X14224158Y-13460536D01*
X14224158Y-13460536D02*
X14243205Y-13451012D01*
X14243205Y-13451012D02*
X14271777Y-13451012D01*
X14271777Y-13451012D02*
X14290824Y-13460536D01*
X14290824Y-13460536D02*
X14300348Y-13479584D01*
X14300348Y-13479584D02*
X14300348Y-13584346D01*
X14395586Y-13584346D02*
X14395586Y-13451012D01*
X14395586Y-13470060D02*
X14405110Y-13460536D01*
X14405110Y-13460536D02*
X14424158Y-13451012D01*
X14424158Y-13451012D02*
X14452729Y-13451012D01*
X14452729Y-13451012D02*
X14471777Y-13460536D01*
X14471777Y-13460536D02*
X14481301Y-13479584D01*
X14481301Y-13479584D02*
X14481301Y-13584346D01*
X14481301Y-13479584D02*
X14490824Y-13460536D01*
X14490824Y-13460536D02*
X14509872Y-13451012D01*
X14509872Y-13451012D02*
X14538443Y-13451012D01*
X14538443Y-13451012D02*
X14557491Y-13460536D01*
X14557491Y-13460536D02*
X14567015Y-13479584D01*
X14567015Y-13479584D02*
X14567015Y-13584346D01*
X14957491Y-13374822D02*
X14786063Y-13631965D01*
X15214634Y-13384346D02*
X15233682Y-13384346D01*
X15233682Y-13384346D02*
X15252729Y-13393870D01*
X15252729Y-13393870D02*
X15262253Y-13403393D01*
X15262253Y-13403393D02*
X15271777Y-13422441D01*
X15271777Y-13422441D02*
X15281301Y-13460536D01*
X15281301Y-13460536D02*
X15281301Y-13508155D01*
X15281301Y-13508155D02*
X15271777Y-13546251D01*
X15271777Y-13546251D02*
X15262253Y-13565298D01*
X15262253Y-13565298D02*
X15252729Y-13574822D01*
X15252729Y-13574822D02*
X15233682Y-13584346D01*
X15233682Y-13584346D02*
X15214634Y-13584346D01*
X15214634Y-13584346D02*
X15195586Y-13574822D01*
X15195586Y-13574822D02*
X15186063Y-13565298D01*
X15186063Y-13565298D02*
X15176539Y-13546251D01*
X15176539Y-13546251D02*
X15167015Y-13508155D01*
X15167015Y-13508155D02*
X15167015Y-13460536D01*
X15167015Y-13460536D02*
X15176539Y-13422441D01*
X15176539Y-13422441D02*
X15186063Y-13403393D01*
X15186063Y-13403393D02*
X15195586Y-13393870D01*
X15195586Y-13393870D02*
X15214634Y-13384346D01*
X15367015Y-13565298D02*
X15376539Y-13574822D01*
X15376539Y-13574822D02*
X15367015Y-13584346D01*
X15367015Y-13584346D02*
X15357491Y-13574822D01*
X15357491Y-13574822D02*
X15367015Y-13565298D01*
X15367015Y-13565298D02*
X15367015Y-13584346D01*
X15500348Y-13384346D02*
X15519396Y-13384346D01*
X15519396Y-13384346D02*
X15538444Y-13393870D01*
X15538444Y-13393870D02*
X15547967Y-13403393D01*
X15547967Y-13403393D02*
X15557491Y-13422441D01*
X15557491Y-13422441D02*
X15567015Y-13460536D01*
X15567015Y-13460536D02*
X15567015Y-13508155D01*
X15567015Y-13508155D02*
X15557491Y-13546251D01*
X15557491Y-13546251D02*
X15547967Y-13565298D01*
X15547967Y-13565298D02*
X15538444Y-13574822D01*
X15538444Y-13574822D02*
X15519396Y-13584346D01*
X15519396Y-13584346D02*
X15500348Y-13584346D01*
X15500348Y-13584346D02*
X15481301Y-13574822D01*
X15481301Y-13574822D02*
X15471777Y-13565298D01*
X15471777Y-13565298D02*
X15462253Y-13546251D01*
X15462253Y-13546251D02*
X15452729Y-13508155D01*
X15452729Y-13508155D02*
X15452729Y-13460536D01*
X15452729Y-13460536D02*
X15462253Y-13422441D01*
X15462253Y-13422441D02*
X15471777Y-13403393D01*
X15471777Y-13403393D02*
X15481301Y-13393870D01*
X15481301Y-13393870D02*
X15500348Y-13384346D01*
X15633682Y-13384346D02*
X15757491Y-13384346D01*
X15757491Y-13384346D02*
X15690825Y-13460536D01*
X15690825Y-13460536D02*
X15719396Y-13460536D01*
X15719396Y-13460536D02*
X15738444Y-13470060D01*
X15738444Y-13470060D02*
X15747967Y-13479584D01*
X15747967Y-13479584D02*
X15757491Y-13498632D01*
X15757491Y-13498632D02*
X15757491Y-13546251D01*
X15757491Y-13546251D02*
X15747967Y-13565298D01*
X15747967Y-13565298D02*
X15738444Y-13574822D01*
X15738444Y-13574822D02*
X15719396Y-13584346D01*
X15719396Y-13584346D02*
X15662253Y-13584346D01*
X15662253Y-13584346D02*
X15643206Y-13574822D01*
X15643206Y-13574822D02*
X15633682Y-13565298D01*
X15852729Y-13584346D02*
X15890825Y-13584346D01*
X15890825Y-13584346D02*
X15909872Y-13574822D01*
X15909872Y-13574822D02*
X15919396Y-13565298D01*
X15919396Y-13565298D02*
X15938444Y-13536727D01*
X15938444Y-13536727D02*
X15947967Y-13498632D01*
X15947967Y-13498632D02*
X15947967Y-13422441D01*
X15947967Y-13422441D02*
X15938444Y-13403393D01*
X15938444Y-13403393D02*
X15928920Y-13393870D01*
X15928920Y-13393870D02*
X15909872Y-13384346D01*
X15909872Y-13384346D02*
X15871777Y-13384346D01*
X15871777Y-13384346D02*
X15852729Y-13393870D01*
X15852729Y-13393870D02*
X15843206Y-13403393D01*
X15843206Y-13403393D02*
X15833682Y-13422441D01*
X15833682Y-13422441D02*
X15833682Y-13470060D01*
X15833682Y-13470060D02*
X15843206Y-13489108D01*
X15843206Y-13489108D02*
X15852729Y-13498632D01*
X15852729Y-13498632D02*
X15871777Y-13508155D01*
X15871777Y-13508155D02*
X15909872Y-13508155D01*
X15909872Y-13508155D02*
X15928920Y-13498632D01*
X15928920Y-13498632D02*
X15938444Y-13489108D01*
X15938444Y-13489108D02*
X15947967Y-13470060D01*
X16119396Y-13451012D02*
X16119396Y-13584346D01*
X16071777Y-13374822D02*
X16024158Y-13517679D01*
X16024158Y-13517679D02*
X16147967Y-13517679D01*
X16214634Y-13384346D02*
X16214634Y-13422441D01*
X16290825Y-13384346D02*
X16290825Y-13422441D01*
X16586063Y-13660536D02*
X16576539Y-13651012D01*
X16576539Y-13651012D02*
X16557491Y-13622441D01*
X16557491Y-13622441D02*
X16547968Y-13603393D01*
X16547968Y-13603393D02*
X16538444Y-13574822D01*
X16538444Y-13574822D02*
X16528920Y-13527203D01*
X16528920Y-13527203D02*
X16528920Y-13489108D01*
X16528920Y-13489108D02*
X16538444Y-13441489D01*
X16538444Y-13441489D02*
X16547968Y-13412917D01*
X16547968Y-13412917D02*
X16557491Y-13393870D01*
X16557491Y-13393870D02*
X16576539Y-13365298D01*
X16576539Y-13365298D02*
X16586063Y-13355774D01*
X16652729Y-13403393D02*
X16662253Y-13393870D01*
X16662253Y-13393870D02*
X16681301Y-13384346D01*
X16681301Y-13384346D02*
X16728920Y-13384346D01*
X16728920Y-13384346D02*
X16747968Y-13393870D01*
X16747968Y-13393870D02*
X16757491Y-13403393D01*
X16757491Y-13403393D02*
X16767015Y-13422441D01*
X16767015Y-13422441D02*
X16767015Y-13441489D01*
X16767015Y-13441489D02*
X16757491Y-13470060D01*
X16757491Y-13470060D02*
X16643206Y-13584346D01*
X16643206Y-13584346D02*
X16767015Y-13584346D01*
X16938444Y-13384346D02*
X16900349Y-13384346D01*
X16900349Y-13384346D02*
X16881301Y-13393870D01*
X16881301Y-13393870D02*
X16871777Y-13403393D01*
X16871777Y-13403393D02*
X16852730Y-13431965D01*
X16852730Y-13431965D02*
X16843206Y-13470060D01*
X16843206Y-13470060D02*
X16843206Y-13546251D01*
X16843206Y-13546251D02*
X16852730Y-13565298D01*
X16852730Y-13565298D02*
X16862253Y-13574822D01*
X16862253Y-13574822D02*
X16881301Y-13584346D01*
X16881301Y-13584346D02*
X16919396Y-13584346D01*
X16919396Y-13584346D02*
X16938444Y-13574822D01*
X16938444Y-13574822D02*
X16947968Y-13565298D01*
X16947968Y-13565298D02*
X16957491Y-13546251D01*
X16957491Y-13546251D02*
X16957491Y-13498632D01*
X16957491Y-13498632D02*
X16947968Y-13479584D01*
X16947968Y-13479584D02*
X16938444Y-13470060D01*
X16938444Y-13470060D02*
X16919396Y-13460536D01*
X16919396Y-13460536D02*
X16881301Y-13460536D01*
X16881301Y-13460536D02*
X16862253Y-13470060D01*
X16862253Y-13470060D02*
X16852730Y-13479584D01*
X16852730Y-13479584D02*
X16843206Y-13498632D01*
X17195587Y-13584346D02*
X17195587Y-13384346D01*
X17281301Y-13584346D02*
X17281301Y-13479584D01*
X17281301Y-13479584D02*
X17271777Y-13460536D01*
X17271777Y-13460536D02*
X17252730Y-13451012D01*
X17252730Y-13451012D02*
X17224158Y-13451012D01*
X17224158Y-13451012D02*
X17205111Y-13460536D01*
X17205111Y-13460536D02*
X17195587Y-13470060D01*
X17405111Y-13584346D02*
X17386063Y-13574822D01*
X17386063Y-13574822D02*
X17376539Y-13565298D01*
X17376539Y-13565298D02*
X17367015Y-13546251D01*
X17367015Y-13546251D02*
X17367015Y-13489108D01*
X17367015Y-13489108D02*
X17376539Y-13470060D01*
X17376539Y-13470060D02*
X17386063Y-13460536D01*
X17386063Y-13460536D02*
X17405111Y-13451012D01*
X17405111Y-13451012D02*
X17433682Y-13451012D01*
X17433682Y-13451012D02*
X17452730Y-13460536D01*
X17452730Y-13460536D02*
X17462253Y-13470060D01*
X17462253Y-13470060D02*
X17471777Y-13489108D01*
X17471777Y-13489108D02*
X17471777Y-13546251D01*
X17471777Y-13546251D02*
X17462253Y-13565298D01*
X17462253Y-13565298D02*
X17452730Y-13574822D01*
X17452730Y-13574822D02*
X17433682Y-13584346D01*
X17433682Y-13584346D02*
X17405111Y-13584346D01*
X17586063Y-13584346D02*
X17567015Y-13574822D01*
X17567015Y-13574822D02*
X17557492Y-13555774D01*
X17557492Y-13555774D02*
X17557492Y-13384346D01*
X17738444Y-13574822D02*
X17719396Y-13584346D01*
X17719396Y-13584346D02*
X17681301Y-13584346D01*
X17681301Y-13584346D02*
X17662253Y-13574822D01*
X17662253Y-13574822D02*
X17652730Y-13555774D01*
X17652730Y-13555774D02*
X17652730Y-13479584D01*
X17652730Y-13479584D02*
X17662253Y-13460536D01*
X17662253Y-13460536D02*
X17681301Y-13451012D01*
X17681301Y-13451012D02*
X17719396Y-13451012D01*
X17719396Y-13451012D02*
X17738444Y-13460536D01*
X17738444Y-13460536D02*
X17747968Y-13479584D01*
X17747968Y-13479584D02*
X17747968Y-13498632D01*
X17747968Y-13498632D02*
X17652730Y-13517679D01*
X17824158Y-13574822D02*
X17843206Y-13584346D01*
X17843206Y-13584346D02*
X17881301Y-13584346D01*
X17881301Y-13584346D02*
X17900349Y-13574822D01*
X17900349Y-13574822D02*
X17909873Y-13555774D01*
X17909873Y-13555774D02*
X17909873Y-13546251D01*
X17909873Y-13546251D02*
X17900349Y-13527203D01*
X17900349Y-13527203D02*
X17881301Y-13517679D01*
X17881301Y-13517679D02*
X17852730Y-13517679D01*
X17852730Y-13517679D02*
X17833682Y-13508155D01*
X17833682Y-13508155D02*
X17824158Y-13489108D01*
X17824158Y-13489108D02*
X17824158Y-13479584D01*
X17824158Y-13479584D02*
X17833682Y-13460536D01*
X17833682Y-13460536D02*
X17852730Y-13451012D01*
X17852730Y-13451012D02*
X17881301Y-13451012D01*
X17881301Y-13451012D02*
X17900349Y-13460536D01*
X17976539Y-13660536D02*
X17986063Y-13651012D01*
X17986063Y-13651012D02*
X18005111Y-13622441D01*
X18005111Y-13622441D02*
X18014634Y-13603393D01*
X18014634Y-13603393D02*
X18024158Y-13574822D01*
X18024158Y-13574822D02*
X18033682Y-13527203D01*
X18033682Y-13527203D02*
X18033682Y-13489108D01*
X18033682Y-13489108D02*
X18024158Y-13441489D01*
X18024158Y-13441489D02*
X18014634Y-13412917D01*
X18014634Y-13412917D02*
X18005111Y-13393870D01*
X18005111Y-13393870D02*
X17986063Y-13365298D01*
X17986063Y-13365298D02*
X17976539Y-13355774D01*
M02*
