%TF.GenerationSoftware,KiCad,Pcbnew,7.0.5*%
%TF.CreationDate,2023-06-02T12:39:08-04:00*%
%TF.ProjectId,MCU,4d43552e-6b69-4636-9164-5f7063625858,rev?*%
%TF.SameCoordinates,Original*%
%TF.FileFunction,Paste,Top*%
%TF.FilePolarity,Positive*%
%FSLAX46Y46*%
G04 Gerber Fmt 4.6, Leading zero omitted, Abs format (unit mm)*
G04 Created by KiCad (PCBNEW 7.0.5) date 2023-06-02 12:39:08*
%MOMM*%
%LPD*%
G01*
G04 APERTURE LIST*
G04 Aperture macros list*
%AMRoundRect*
0 Rectangle with rounded corners*
0 $1 Rounding radius*
0 $2 $3 $4 $5 $6 $7 $8 $9 X,Y pos of 4 corners*
0 Add a 4 corners polygon primitive as box body*
4,1,4,$2,$3,$4,$5,$6,$7,$8,$9,$2,$3,0*
0 Add four circle primitives for the rounded corners*
1,1,$1+$1,$2,$3*
1,1,$1+$1,$4,$5*
1,1,$1+$1,$6,$7*
1,1,$1+$1,$8,$9*
0 Add four rect primitives between the rounded corners*
20,1,$1+$1,$2,$3,$4,$5,0*
20,1,$1+$1,$4,$5,$6,$7,0*
20,1,$1+$1,$6,$7,$8,$9,0*
20,1,$1+$1,$8,$9,$2,$3,0*%
G04 Aperture macros list end*
%ADD10C,0.010000*%
%ADD11R,0.350000X0.800000*%
%ADD12R,0.850000X0.350000*%
%ADD13RoundRect,0.237500X0.287500X0.237500X-0.287500X0.237500X-0.287500X-0.237500X0.287500X-0.237500X0*%
%ADD14RoundRect,0.155000X0.212500X0.155000X-0.212500X0.155000X-0.212500X-0.155000X0.212500X-0.155000X0*%
%ADD15RoundRect,0.140000X0.140000X0.170000X-0.140000X0.170000X-0.140000X-0.170000X0.140000X-0.170000X0*%
%ADD16RoundRect,0.160000X0.160000X-0.197500X0.160000X0.197500X-0.160000X0.197500X-0.160000X-0.197500X0*%
%ADD17RoundRect,0.160000X-0.197500X-0.160000X0.197500X-0.160000X0.197500X0.160000X-0.197500X0.160000X0*%
%ADD18RoundRect,0.237500X0.237500X-0.287500X0.237500X0.287500X-0.237500X0.287500X-0.237500X-0.287500X0*%
%ADD19RoundRect,0.160000X0.197500X0.160000X-0.197500X0.160000X-0.197500X-0.160000X0.197500X-0.160000X0*%
%ADD20RoundRect,0.250000X-0.475000X0.337500X-0.475000X-0.337500X0.475000X-0.337500X0.475000X0.337500X0*%
%ADD21R,0.660000X0.310000*%
%ADD22RoundRect,0.125000X0.125000X-0.537500X0.125000X0.537500X-0.125000X0.537500X-0.125000X-0.537500X0*%
%ADD23RoundRect,0.135000X0.135000X0.185000X-0.135000X0.185000X-0.135000X-0.185000X0.135000X-0.185000X0*%
%ADD24RoundRect,0.237500X0.237500X-0.250000X0.237500X0.250000X-0.237500X0.250000X-0.237500X-0.250000X0*%
%ADD25R,0.400000X0.600000*%
%ADD26R,0.600000X0.400000*%
%ADD27R,1.100000X1.500000*%
%ADD28RoundRect,0.140000X-0.140000X-0.170000X0.140000X-0.170000X0.140000X0.170000X-0.140000X0.170000X0*%
%ADD29RoundRect,0.140000X-0.170000X0.140000X-0.170000X-0.140000X0.170000X-0.140000X0.170000X0.140000X0*%
%ADD30RoundRect,0.160000X-0.160000X0.197500X-0.160000X-0.197500X0.160000X-0.197500X0.160000X0.197500X0*%
%ADD31R,1.400000X0.400000*%
%ADD32R,1.900000X2.300000*%
%ADD33R,1.900000X1.800000*%
G04 APERTURE END LIST*
%TO.C,U1*%
D10*
X160002000Y-93051500D02*
X158358000Y-93051500D01*
X158358000Y-91343500D01*
X160002000Y-91343500D01*
X160002000Y-93051500D01*
G36*
X160002000Y-93051500D02*
G01*
X158358000Y-93051500D01*
X158358000Y-91343500D01*
X160002000Y-91343500D01*
X160002000Y-93051500D01*
G37*
%TD*%
D11*
%TO.C,U1*%
X157930000Y-94197500D03*
X158430000Y-94197500D03*
X158930000Y-94197500D03*
X159430000Y-94197500D03*
X159930000Y-94197500D03*
X160430000Y-94197500D03*
D12*
X161155000Y-93447500D03*
X161155000Y-92947500D03*
X161155000Y-92447500D03*
X161155000Y-91947500D03*
X161155000Y-91447500D03*
X161155000Y-90947500D03*
D11*
X160430000Y-90197500D03*
X159930000Y-90197500D03*
X159430000Y-90197500D03*
X158930000Y-90197500D03*
X158430000Y-90197500D03*
X157930000Y-90197500D03*
D12*
X157205000Y-90947500D03*
X157205000Y-91447500D03*
X157205000Y-91947500D03*
X157205000Y-92447500D03*
X157205000Y-92947500D03*
X157205000Y-93447500D03*
%TD*%
D13*
%TO.C,L1*%
X156165000Y-95840000D03*
X154415000Y-95840000D03*
%TD*%
D14*
%TO.C,C5*%
X155287500Y-97350000D03*
X154152500Y-97350000D03*
%TD*%
D15*
%TO.C,C1*%
X161400000Y-88870000D03*
X160440000Y-88870000D03*
%TD*%
D14*
%TO.C,C2*%
X155287500Y-105040000D03*
X154152500Y-105040000D03*
%TD*%
D16*
%TO.C,R11*%
X147160000Y-107436121D03*
X147160000Y-106241121D03*
%TD*%
D17*
%TO.C,R6*%
X162122500Y-100750000D03*
X163317500Y-100750000D03*
%TD*%
D18*
%TO.C,D1*%
X145670000Y-108228621D03*
X145670000Y-106478621D03*
%TD*%
D19*
%TO.C,R2*%
X152447500Y-91660000D03*
X151252500Y-91660000D03*
%TD*%
D20*
%TO.C,C9*%
X162840000Y-102587110D03*
X162840000Y-104662110D03*
%TD*%
D21*
%TO.C,IC1*%
X159230000Y-96358621D03*
X159230000Y-96858621D03*
X159230000Y-97358621D03*
X160700000Y-97358621D03*
X160700000Y-96858621D03*
X160700000Y-96358621D03*
%TD*%
D22*
%TO.C,U3*%
X138820000Y-92387500D03*
X139470000Y-92387500D03*
X140120000Y-92387500D03*
X140770000Y-92387500D03*
X140770000Y-90112500D03*
X140120000Y-90112500D03*
X139470000Y-90112500D03*
X138820000Y-90112500D03*
%TD*%
D23*
%TO.C,R4*%
X137410000Y-92830000D03*
X136390000Y-92830000D03*
%TD*%
D20*
%TO.C,Y1*%
X154720000Y-101467500D03*
X154720000Y-103542500D03*
%TD*%
D15*
%TO.C,C3*%
X163510000Y-92950000D03*
X162550000Y-92950000D03*
%TD*%
%TO.C,C7*%
X163510000Y-91950000D03*
X162550000Y-91950000D03*
%TD*%
D24*
%TO.C,R3*%
X149460000Y-92572500D03*
X149460000Y-90747500D03*
%TD*%
D25*
%TO.C,U2*%
X141189995Y-104399991D03*
X142289995Y-104399991D03*
X143089995Y-104399991D03*
X144689995Y-104399991D03*
X145089995Y-103499991D03*
X145489995Y-104399991D03*
X145889995Y-103499991D03*
X146289995Y-104399991D03*
X146689995Y-103499991D03*
X147089995Y-104399991D03*
X147489995Y-103499991D03*
X147889995Y-104399991D03*
X148289995Y-103499991D03*
X148689995Y-104399991D03*
D26*
X152089995Y-104549991D03*
X152089995Y-103749991D03*
X152089995Y-102949991D03*
X152089995Y-102149991D03*
X151189995Y-101749991D03*
X152089995Y-101349991D03*
X151189995Y-100949991D03*
X152089995Y-100549991D03*
X151189995Y-100149991D03*
X152089995Y-99749991D03*
X151189995Y-99349991D03*
X152089995Y-98949991D03*
X151189995Y-98549991D03*
X152089995Y-98149991D03*
X151189995Y-97749991D03*
X152089995Y-97349991D03*
X152089995Y-96549991D03*
X152089995Y-95749991D03*
X152089995Y-94949991D03*
D25*
X151089995Y-95099991D03*
X150289995Y-95099991D03*
X149889995Y-95999991D03*
X149489995Y-95099991D03*
X149089995Y-95999991D03*
X148689995Y-95099991D03*
X148289995Y-95999991D03*
X147889995Y-95099991D03*
X147489995Y-95999991D03*
X146689995Y-95999991D03*
X146289995Y-95099991D03*
X145889995Y-95999991D03*
X145489995Y-95099991D03*
X145089995Y-95999991D03*
X144689995Y-95099991D03*
X144289995Y-95999991D03*
X143489995Y-95999991D03*
X143089995Y-95099991D03*
X142689995Y-95999991D03*
X142289995Y-95099991D03*
X141889995Y-95999991D03*
X141189995Y-95099991D03*
D26*
X145489995Y-101749991D03*
X145489995Y-100949991D03*
X145489995Y-100149991D03*
X145489995Y-99349991D03*
X145489995Y-98549991D03*
X145489995Y-97749991D03*
%TD*%
D14*
%TO.C,C6*%
X155287500Y-98450000D03*
X154152500Y-98450000D03*
%TD*%
D27*
%TO.C,SW1*%
X132190000Y-103398621D03*
X132190000Y-98698621D03*
X133890000Y-103398621D03*
X133890000Y-98698621D03*
%TD*%
D28*
%TO.C,C10*%
X138820000Y-88520000D03*
X139780000Y-88520000D03*
%TD*%
D29*
%TO.C,C11*%
X162000000Y-96510000D03*
X162000000Y-97470000D03*
%TD*%
D17*
%TO.C,R5*%
X162122500Y-99630000D03*
X163317500Y-99630000D03*
%TD*%
D29*
%TO.C,C8*%
X155730000Y-90480000D03*
X155730000Y-91440000D03*
%TD*%
D19*
%TO.C,R1*%
X152447500Y-92840000D03*
X151252500Y-92840000D03*
%TD*%
D14*
%TO.C,C4*%
X155287500Y-99970000D03*
X154152500Y-99970000D03*
%TD*%
D30*
%TO.C,R8*%
X149564000Y-106255000D03*
X149564000Y-107450000D03*
%TD*%
%TO.C,R7*%
X148360000Y-106255000D03*
X148360000Y-107450000D03*
%TD*%
D31*
%TO.C,J3*%
X165550000Y-101404610D03*
X165550000Y-100754610D03*
X165550000Y-100104610D03*
X165550000Y-99454610D03*
X165550000Y-98804610D03*
D32*
X168400000Y-103854610D03*
D33*
X168400000Y-101254610D03*
X168400000Y-98954610D03*
D32*
X168400000Y-96354610D03*
%TD*%
M02*
