M48
; DRILL file {KiCad 7.0.5} date Fri Jun  2 12:39:10 2023
; FORMAT={-:-/ absolute / inch / decimal}
; #@! TF.CreationDate,2023-06-02T12:39:10-04:00
; #@! TF.GenerationSoftware,Kicad,Pcbnew,7.0.5
; #@! TF.FileFunction,Plated,1,2,PTH
FMAT,2
INCH
; #@! TA.AperFunction,Plated,PTH,ViaDrill
T1C0.0130
; #@! TA.AperFunction,Plated,PTH,ViaDrill
T2C0.0170
; #@! TA.AperFunction,Plated,PTH,ComponentDrill
T3C0.0394
%
G90
G05
T1
X5.1638Y-3.6692
X5.1638Y-3.8267
X5.1638Y-4.1417
X5.1638Y-4.2204
X5.2425Y-3.6692
X5.2425Y-3.8267
X5.2425Y-4.1417
X5.2425Y-4.2204
X5.2563Y-3.7562
X5.3071Y-3.7551
X5.3213Y-3.5118
X5.3213Y-3.5905
X5.3213Y-3.8267
X5.3213Y-3.9055
X5.3213Y-3.9842
X5.3213Y-4.0629
X5.3213Y-4.1417
X5.3213Y-4.2204
X5.3213Y-4.2992
X5.3213Y-4.3779
X5.4Y-3.5118
X5.4Y-3.748
X5.4Y-3.8267
X5.4Y-3.9055
X5.4Y-3.9842
X5.4Y-4.0629
X5.4Y-4.2204
X5.4Y-4.2992
X5.4Y-4.3779
X5.4Y-4.4566
X5.4102Y-3.6567
X5.4398Y-3.5913
X5.4669Y-3.6929
X5.4787Y-3.8267
X5.4787Y-3.9055
X5.4787Y-3.9842
X5.4787Y-4.0629
X5.4787Y-4.3779
X5.4787Y-4.4566
X5.498Y-3.7791
X5.5024Y-4.2236
X5.5142Y-4.1102
X5.522Y-3.744
X5.5575Y-3.9055
X5.5575Y-4.0551
X5.5575Y-4.1653
X5.5575Y-4.3779
X5.5575Y-4.4566
X5.5575Y-4.5354
X5.5902Y-3.5917
X5.6083Y-3.8236
X5.6555Y-3.5078
X5.661Y-4.2921
X5.665Y-3.7307
X5.715Y-3.2362
X5.715Y-4.6535
X5.728Y-3.6956
X5.7524Y-3.6637
X5.7921Y-3.6996
X5.7937Y-3.1574
X5.7937Y-3.2362
X5.7937Y-4.6535
X5.7937Y-4.7322
X5.8201Y-4.0181
X5.8228Y-3.8287
X5.8335Y-3.5984
X5.8602Y-3.6957
X5.8717Y-4.02
X5.8724Y-3.2362
X5.8724Y-4.6535
X5.898Y-3.6586
X5.9079Y-3.8638
X5.9232Y-3.8201
X5.9469Y-3.7831
X5.9512Y-3.2362
X5.9512Y-4.6535
X5.9909Y-3.7039
X6.0019Y-3.6087
X6.0019Y-3.6551
X6.0276Y-3.707
X6.0295Y-3.9078
X6.0297Y-3.1574
X6.0299Y-3.2362
X6.0299Y-4.6535
X6.0299Y-4.7322
X6.0307Y-3.9751
X6.0484Y-3.6465
X6.0591Y-3.7248
X6.0839Y-3.5268
X6.1087Y-3.2362
X6.1087Y-4.2204
X6.1087Y-4.2992
X6.1087Y-4.3779
X6.1087Y-4.6535
X6.1429Y-3.6594
X6.1482Y-3.7732
X6.1559Y-3.8551
X6.1748Y-3.6885
X6.1874Y-3.9842
X6.1913Y-4.1417
X6.1913Y-4.2204
X6.1913Y-4.2992
X6.1913Y-4.3779
X6.224Y-3.8874
X6.2346Y-3.5944
X6.2346Y-3.6653
X6.2661Y-4.0629
X6.2661Y-4.1417
X6.2661Y-4.2204
X6.2661Y-4.2992
X6.2661Y-4.3779
X6.2661Y-4.4566
X6.2661Y-4.5354
X6.2669Y-3.6298
X6.3016Y-3.5944
X6.3016Y-3.6653
X6.3055Y-3.3543
X6.3165Y-3.4988
X6.3449Y-4.0629
X6.3449Y-4.1417
X6.3449Y-4.2204
X6.3449Y-4.2992
X6.3449Y-4.3779
X6.3449Y-4.4566
X6.3449Y-4.5354
X6.378Y-3.7665
X6.3843Y-3.433
X6.3995Y-3.6593
X6.4236Y-4.2204
X6.4236Y-4.2992
X6.4236Y-4.3779
X6.4236Y-4.4566
X6.463Y-3.5118
X6.5024Y-4.2204
X6.5024Y-4.2992
X6.5024Y-4.3779
X6.5181Y-3.7677
X6.5181Y-3.8503
X6.526Y-4.0747
X6.5417Y-3.5905
X6.5417Y-3.6692
X6.5811Y-4.2204
X6.6205Y-3.6692
X6.6598Y-4.2204
T2
X6.411Y-4.0389
T3
X5.6618Y-3.3042
X5.6618Y-3.4042
X5.6618Y-3.6028
X5.6618Y-4.4781
X5.6618Y-4.5781
X5.7618Y-3.3042
X5.7618Y-3.4042
X5.7618Y-3.6028
X5.7618Y-4.4781
X5.7618Y-4.5781
X5.8618Y-3.3042
X5.8618Y-3.4042
X5.8618Y-4.4781
X5.8618Y-4.5781
X5.9618Y-3.3042
X5.9618Y-3.4042
X5.9618Y-4.4781
X5.9618Y-4.5781
X6.0618Y-3.3042
X6.0618Y-3.4042
X6.0618Y-4.4781
X6.0618Y-4.5781
X6.1618Y-3.3042
X6.1618Y-3.4042
X6.1618Y-4.4781
X6.1618Y-4.5781
T0
M30
