%TF.GenerationSoftware,KiCad,Pcbnew,7.0.5*%
%TF.CreationDate,2023-06-02T12:39:08-04:00*%
%TF.ProjectId,MCU,4d43552e-6b69-4636-9164-5f7063625858,rev?*%
%TF.SameCoordinates,Original*%
%TF.FileFunction,Copper,L2,Bot*%
%TF.FilePolarity,Positive*%
%FSLAX46Y46*%
G04 Gerber Fmt 4.6, Leading zero omitted, Abs format (unit mm)*
G04 Created by KiCad (PCBNEW 7.0.5) date 2023-06-02 12:39:08*
%MOMM*%
%LPD*%
G01*
G04 APERTURE LIST*
%TA.AperFunction,ComponentPad*%
%ADD10R,1.700000X1.700000*%
%TD*%
%TA.AperFunction,ComponentPad*%
%ADD11O,1.700000X1.700000*%
%TD*%
%TA.AperFunction,ViaPad*%
%ADD12C,0.660400*%
%TD*%
%TA.AperFunction,ViaPad*%
%ADD13C,0.863600*%
%TD*%
%TA.AperFunction,Conductor*%
%ADD14C,0.254000*%
%TD*%
%TA.AperFunction,Conductor*%
%ADD15C,0.381000*%
%TD*%
%TA.AperFunction,Conductor*%
%ADD16C,0.152400*%
%TD*%
%TA.AperFunction,Conductor*%
%ADD17C,0.508000*%
%TD*%
G04 APERTURE END LIST*
D10*
%TO.P,J4,1,Pin_1*%
%TO.N,/SWDCLK*%
X143810000Y-91510000D03*
D11*
%TO.P,J4,2,Pin_2*%
%TO.N,/SWDIO*%
X146350000Y-91510000D03*
%TD*%
D10*
%TO.P,J1,1,Pin_1*%
%TO.N,/VBAT*%
X143810000Y-86465599D03*
D11*
%TO.P,J1,2,Pin_2*%
%TO.N,/~{EN}*%
X143810000Y-83925599D03*
%TO.P,J1,3,Pin_3*%
%TO.N,VCC*%
X146350000Y-86465599D03*
%TO.P,J1,4,Pin_4*%
%TO.N,/VBAT_OK*%
X146350000Y-83925599D03*
%TO.P,J1,5,Pin_5*%
%TO.N,/~{I2C_RESET}*%
X148890000Y-86465599D03*
%TO.P,J1,6,Pin_6*%
%TO.N,+5V*%
X148890000Y-83925599D03*
%TO.P,J1,7,Pin_7*%
%TO.N,/RXD*%
X151430000Y-86465599D03*
%TO.P,J1,8,Pin_8*%
%TO.N,GND*%
X151430000Y-83925599D03*
%TO.P,J1,9,Pin_9*%
%TO.N,/TXD*%
X153970000Y-86465599D03*
%TO.P,J1,10,Pin_10*%
%TO.N,GND*%
X153970000Y-83925599D03*
%TO.P,J1,11,Pin_11*%
%TO.N,/SDA*%
X156510000Y-86465599D03*
%TO.P,J1,12,Pin_12*%
%TO.N,/SCL*%
X156510000Y-83925599D03*
%TD*%
D10*
%TO.P,J2,1,Pin_1*%
%TO.N,/D11*%
X156510000Y-113743621D03*
D11*
%TO.P,J2,2,Pin_2*%
%TO.N,/D13*%
X156510000Y-116283621D03*
%TO.P,J2,3,Pin_3*%
%TO.N,/A1*%
X153970000Y-113743621D03*
%TO.P,J2,4,Pin_4*%
%TO.N,/D6*%
X153970000Y-116283621D03*
%TO.P,J2,5,Pin_5*%
%TO.N,/SCK*%
X151430000Y-113743621D03*
%TO.P,J2,6,Pin_6*%
%TO.N,/A5*%
X151430000Y-116283621D03*
%TO.P,J2,7,Pin_7*%
%TO.N,/MOSI*%
X148890000Y-113743621D03*
%TO.P,J2,8,Pin_8*%
%TO.N,/~{CS}*%
X148890000Y-116283621D03*
%TO.P,J2,9,Pin_9*%
%TO.N,/MISO*%
X146350000Y-113743621D03*
%TO.P,J2,10,Pin_10*%
%TO.N,GND*%
X146350000Y-116283621D03*
%TO.P,J2,11,Pin_11*%
%TO.N,/LED2*%
X143810000Y-113743621D03*
%TO.P,J2,12,Pin_12*%
%TO.N,GND*%
X143810000Y-116283621D03*
%TD*%
D12*
%TO.N,GND*%
X135160000Y-107198621D03*
X159160000Y-111198621D03*
X159180000Y-92197500D03*
X135160000Y-101198621D03*
X151160000Y-82198621D03*
X159160000Y-107198621D03*
X133160000Y-107198621D03*
X161160000Y-109198621D03*
X149160000Y-118198621D03*
X163160000Y-107198621D03*
X133160000Y-93198621D03*
X137160000Y-99198621D03*
X157160000Y-101198621D03*
X163160000Y-113198621D03*
X157260000Y-107198621D03*
X158360000Y-93098621D03*
X163160000Y-111198621D03*
X163160000Y-109198621D03*
X155160000Y-107198621D03*
X161160000Y-107198621D03*
X159160000Y-115198621D03*
X155160000Y-118198621D03*
X135160000Y-105198621D03*
X153154300Y-80198620D03*
X165160000Y-111198621D03*
X131160000Y-107198621D03*
X149160000Y-82198621D03*
X159160000Y-103198621D03*
X160060000Y-91298621D03*
X140260000Y-95098621D03*
X141160000Y-111198621D03*
X153100000Y-94158621D03*
X165160000Y-109198621D03*
X147160000Y-118198621D03*
X169160000Y-107198621D03*
X137160000Y-113198621D03*
X135160000Y-111198621D03*
X131160000Y-105198621D03*
X147160000Y-80198621D03*
X137160000Y-111198621D03*
X158360000Y-91298621D03*
X155160000Y-111198621D03*
X161160000Y-103198621D03*
X157260000Y-109198621D03*
X161160000Y-115198621D03*
X160060000Y-93098621D03*
X159160000Y-105198621D03*
X153160000Y-120198621D03*
X159160000Y-109198621D03*
X133160000Y-105198621D03*
X167160000Y-107198621D03*
X166160000Y-93198621D03*
X135160000Y-89198621D03*
X137160000Y-97198621D03*
X137160000Y-103198621D03*
X137160000Y-95198621D03*
X141160000Y-102998621D03*
X131160000Y-97198621D03*
X139160000Y-97198621D03*
X141160000Y-115198621D03*
X153160000Y-118198621D03*
X137160000Y-109198621D03*
X159160000Y-113198621D03*
X168160000Y-93198621D03*
X147160000Y-120198621D03*
X164160000Y-89198621D03*
X151160000Y-118198621D03*
X131160000Y-93198621D03*
X165560000Y-95698621D03*
X145160000Y-82198621D03*
X145160000Y-118198621D03*
X137160000Y-107198621D03*
X162160000Y-87198621D03*
X140060000Y-104398621D03*
X135160000Y-91198621D03*
X161160000Y-111198621D03*
X166160000Y-91198621D03*
X139160000Y-113198621D03*
X137160000Y-101198621D03*
X139160000Y-99198621D03*
X165760000Y-103498621D03*
X137160000Y-89198621D03*
X157260000Y-105198621D03*
X135160000Y-99198621D03*
X155160000Y-109198621D03*
X135160000Y-109198621D03*
X153160000Y-82198621D03*
X135160000Y-97198621D03*
X165560000Y-97798621D03*
X135160000Y-103198621D03*
X138860000Y-93798621D03*
X155160000Y-82198621D03*
X139160000Y-101198621D03*
X147160000Y-82198621D03*
X141160000Y-99198621D03*
X157260000Y-111198621D03*
X139160000Y-111198621D03*
X141160000Y-105798621D03*
X165160000Y-107198621D03*
X139160000Y-103198621D03*
X141160000Y-113198621D03*
X133160000Y-97198621D03*
X161160000Y-113198621D03*
X160160000Y-85198621D03*
X161160000Y-105198621D03*
%TO.N,VCC*%
X162000000Y-95668621D03*
X160440000Y-88870000D03*
X156165000Y-95840000D03*
X162547503Y-92947490D03*
D13*
%TO.N,+5V*%
X162840010Y-102587120D03*
D12*
X153900000Y-94610000D03*
%TO.N,/VBAT*%
X139760000Y-107278621D03*
X141990000Y-91228621D03*
X143790000Y-109018621D03*
%TO.N,/SDA*%
X152447500Y-92840000D03*
X156840000Y-93688621D03*
X150450000Y-97030000D03*
%TO.N,/SCL*%
X154530000Y-89580000D03*
X152447500Y-91660000D03*
X156030000Y-92950000D03*
X153630000Y-92620000D03*
X150060000Y-98140000D03*
%TO.N,/MOSI*%
X148850000Y-93870000D03*
%TO.N,/D11*%
X153180000Y-100968621D03*
%TO.N,/MISO*%
X147120000Y-93970000D03*
%TO.N,/SCK*%
X149140000Y-102108621D03*
%TO.N,/D2*%
X139650000Y-95988621D03*
X137420000Y-92880000D03*
%TO.N,/~{CS}*%
X147830000Y-102058621D03*
%TO.N,/RXD*%
X146110000Y-93058621D03*
%TO.N,/~{RESET}*%
X133510000Y-95408621D03*
X143650000Y-89098621D03*
%TO.N,Net-(JP1-A)*%
X138170000Y-91218621D03*
X134800000Y-95378621D03*
%TO.N,/USB+*%
X151050000Y-96090000D03*
X158090000Y-98740000D03*
%TO.N,/USB-*%
X156360000Y-97920000D03*
X152170000Y-94078621D03*
%TO.N,Net-(U2-P0.18{slash}~{RESET})*%
X149810000Y-92928621D03*
X147900000Y-97250000D03*
%TO.N,/~{EN}*%
X142450000Y-97120000D03*
%TO.N,/VBAT_OK*%
X145490000Y-93868621D03*
%TO.N,/D13*%
X153150000Y-99258621D03*
%TO.N,/TXD*%
X143890000Y-94758621D03*
%TO.N,/~{I2C_RESET}*%
X148170000Y-91398621D03*
%TD*%
D14*
%TO.N,VCC*%
X162547503Y-90977503D02*
X162547503Y-92947490D01*
D15*
X161828621Y-95840000D02*
X162000000Y-95668621D01*
D14*
X162000000Y-95668621D02*
X162547503Y-95121118D01*
D15*
X156165000Y-95840000D02*
X161828621Y-95840000D01*
D14*
X162547503Y-95121118D02*
X162547503Y-92947490D01*
X160440000Y-88870000D02*
X162547503Y-90977503D01*
D16*
%TO.N,+5V*%
X153900000Y-94610000D02*
X154701379Y-94610000D01*
D17*
X158922284Y-85198621D02*
X159191142Y-85467479D01*
D16*
X155320000Y-95968621D02*
X155900000Y-96548621D01*
D17*
X164720000Y-96868621D02*
X164720000Y-90996338D01*
D16*
X160640020Y-96548621D02*
X162840010Y-98748611D01*
X154701379Y-94610000D02*
X155320000Y-95228621D01*
X155900000Y-96548621D02*
X160640020Y-96548621D01*
D17*
X150155000Y-85198621D02*
X158922284Y-85198621D01*
X148890000Y-83933621D02*
X150155000Y-85198621D01*
X162840010Y-102587120D02*
X162840010Y-98748611D01*
D16*
X155320000Y-95228621D02*
X155320000Y-95968621D01*
D17*
X162840010Y-98748611D02*
X164720000Y-96868621D01*
X164720000Y-90996338D02*
X159191142Y-85467479D01*
D16*
%TO.N,/VBAT*%
X141990000Y-91228621D02*
X141990000Y-95368621D01*
X141500000Y-109018621D02*
X143790000Y-109018621D01*
X143790000Y-97168621D02*
X143790000Y-109018621D01*
X141990000Y-95368621D02*
X143790000Y-97168621D01*
X139760000Y-107278621D02*
X141500000Y-109018621D01*
%TO.N,/SDA*%
X156510000Y-88777500D02*
X156510000Y-86385599D01*
X150450000Y-94837500D02*
X152447500Y-92840000D01*
X152447500Y-92840000D02*
X153176121Y-93568621D01*
X156720000Y-93568621D02*
X156840000Y-93688621D01*
X153176121Y-93568621D02*
X156720000Y-93568621D01*
X152447500Y-92840000D02*
X156510000Y-88777500D01*
X150450000Y-97030000D02*
X150450000Y-94837500D01*
%TO.N,/SCL*%
X156030000Y-92950000D02*
X153960000Y-92950000D01*
X154250000Y-89860000D02*
X154530000Y-89580000D01*
X149620000Y-94487500D02*
X152447500Y-91660000D01*
X152450000Y-91660000D02*
X154250000Y-89860000D01*
X150060000Y-98140000D02*
X149620000Y-97700000D01*
X153960000Y-92950000D02*
X153630000Y-92620000D01*
X149620000Y-97700000D02*
X149620000Y-94487500D01*
X152447500Y-91660000D02*
X152450000Y-91660000D01*
%TO.N,/MOSI*%
X146547900Y-111401521D02*
X148890000Y-113743621D01*
X148058621Y-93870000D02*
X146547900Y-95380721D01*
X146547900Y-95380721D02*
X146547900Y-111401521D01*
X148850000Y-93870000D02*
X148058621Y-93870000D01*
%TO.N,/D11*%
X153180000Y-100968621D02*
X156510000Y-104298621D01*
X156510000Y-104298621D02*
X156510000Y-113823621D01*
%TO.N,/MISO*%
X147120000Y-93970000D02*
X145500000Y-95590000D01*
X145500000Y-95590000D02*
X145500000Y-112893621D01*
X145500000Y-112893621D02*
X146350000Y-113743621D01*
%TO.N,/SCK*%
X149140000Y-102108621D02*
X149140000Y-111453621D01*
X149140000Y-111453621D02*
X151430000Y-113743621D01*
%TO.N,/D2*%
X137420000Y-92880000D02*
X137420000Y-93758621D01*
X137420000Y-93758621D02*
X139650000Y-95988621D01*
%TO.N,/~{CS}*%
X149955900Y-113302110D02*
X149955900Y-115217721D01*
X149955900Y-115217721D02*
X148890000Y-116283621D01*
X147830000Y-111176210D02*
X149955900Y-113302110D01*
X147830000Y-102058621D02*
X147830000Y-111176210D01*
%TO.N,/RXD*%
X151430000Y-89408621D02*
X151430000Y-86465599D01*
X147780000Y-93058621D02*
X151430000Y-89408621D01*
X146110000Y-93058621D02*
X147780000Y-93058621D01*
%TO.N,/~{RESET}*%
X133510000Y-94328621D02*
X133510000Y-95408621D01*
X143650000Y-89098621D02*
X138740000Y-89098621D01*
X138740000Y-89098621D02*
X133510000Y-94328621D01*
%TO.N,Net-(JP1-A)*%
X134800000Y-93628621D02*
X134800000Y-95378621D01*
X138170000Y-91218621D02*
X137210000Y-91218621D01*
X137210000Y-91218621D02*
X134800000Y-93628621D01*
%TO.N,/USB+*%
X151050000Y-96090000D02*
X152881379Y-96090000D01*
X152881379Y-96090000D02*
X155531379Y-98740000D01*
X155531379Y-98740000D02*
X158090000Y-98740000D01*
%TO.N,/USB-*%
X155331752Y-97920000D02*
X156360000Y-97920000D01*
X152600000Y-94508621D02*
X152600000Y-95188248D01*
X152170000Y-94078621D02*
X152600000Y-94508621D01*
X152600000Y-95188248D02*
X155331752Y-97920000D01*
%TO.N,Net-(U2-P0.18{slash}~{RESET})*%
X146860000Y-95538621D02*
X146860000Y-96958621D01*
X147151379Y-97250000D02*
X147900000Y-97250000D01*
X149810000Y-92928621D02*
X149810000Y-93748621D01*
X147840000Y-94558621D02*
X146860000Y-95538621D01*
X149810000Y-93748621D02*
X149000000Y-94558621D01*
X146860000Y-96958621D02*
X147151379Y-97250000D01*
X149000000Y-94558621D02*
X147840000Y-94558621D01*
%TO.N,/~{EN}*%
X142340000Y-87328621D02*
X143190000Y-88178621D01*
X143190000Y-88178621D02*
X144300000Y-88178621D01*
X144690000Y-88568621D02*
X144690000Y-89548621D01*
X144690000Y-89548621D02*
X144320000Y-89918621D01*
X144300000Y-88178621D02*
X144690000Y-88568621D01*
X141110000Y-95780000D02*
X142450000Y-97120000D01*
X142170000Y-89918621D02*
X141110000Y-90978621D01*
X143810000Y-83925599D02*
X142340000Y-85395599D01*
X141110000Y-90978621D02*
X141110000Y-95780000D01*
X142340000Y-85395599D02*
X142340000Y-87328621D01*
X144320000Y-89918621D02*
X142170000Y-89918621D01*
%TO.N,/VBAT_OK*%
X145490000Y-93868621D02*
X145090000Y-93468621D01*
X145090000Y-93468621D02*
X145090000Y-85105599D01*
X145090000Y-85105599D02*
X146350000Y-83845599D01*
%TO.N,/D13*%
X156510000Y-116363621D02*
X158070000Y-114803621D01*
X158070000Y-114803621D02*
X158070000Y-104178621D01*
X158070000Y-104178621D02*
X153150000Y-99258621D01*
%TO.N,/TXD*%
X145672303Y-94458621D02*
X144190000Y-94458621D01*
X153970000Y-87667680D02*
X148213780Y-93423900D01*
X153970000Y-86465599D02*
X153970000Y-87667680D01*
X146707024Y-93423900D02*
X145672303Y-94458621D01*
X148213780Y-93423900D02*
X146707024Y-93423900D01*
X144190000Y-94458621D02*
X143890000Y-94758621D01*
%TO.N,/~{I2C_RESET}*%
X148890000Y-90678621D02*
X148890000Y-86385599D01*
X148170000Y-91398621D02*
X148890000Y-90678621D01*
%TD*%
%TA.AperFunction,Conductor*%
%TO.N,GND*%
G36*
X150203946Y-77388502D02*
G01*
X169810750Y-88708494D01*
X169849399Y-88754554D01*
X169854700Y-88784618D01*
X169854700Y-111424599D01*
X169834135Y-111481100D01*
X169810750Y-111500723D01*
X150203949Y-122820715D01*
X150144735Y-122831156D01*
X150116049Y-122820715D01*
X149138254Y-122256185D01*
X146770601Y-120889220D01*
X148749884Y-120889220D01*
X148769115Y-121121316D01*
X148769116Y-121121322D01*
X148826286Y-121347080D01*
X148826289Y-121347088D01*
X148897987Y-121510541D01*
X148919840Y-121560361D01*
X148919844Y-121560367D01*
X149047215Y-121755325D01*
X149047216Y-121755327D01*
X149047220Y-121755331D01*
X149204954Y-121926676D01*
X149388740Y-122069722D01*
X149593563Y-122180567D01*
X149813837Y-122256187D01*
X149813839Y-122256187D01*
X149813841Y-122256188D01*
X150043550Y-122294520D01*
X150043554Y-122294520D01*
X150276450Y-122294520D01*
X150506158Y-122256188D01*
X150506158Y-122256187D01*
X150506163Y-122256187D01*
X150726437Y-122180567D01*
X150931260Y-122069722D01*
X151115046Y-121926676D01*
X151272780Y-121755331D01*
X151400160Y-121560361D01*
X151493712Y-121347084D01*
X151550884Y-121121317D01*
X151570116Y-120889220D01*
X151550884Y-120657123D01*
X151550883Y-120657117D01*
X151493713Y-120431359D01*
X151493710Y-120431351D01*
X151400164Y-120218089D01*
X151400160Y-120218079D01*
X151319435Y-120094520D01*
X151272784Y-120023114D01*
X151272783Y-120023112D01*
X151115050Y-119851768D01*
X151115048Y-119851767D01*
X151115046Y-119851764D01*
X150931260Y-119708718D01*
X150726437Y-119597873D01*
X150726433Y-119597871D01*
X150726430Y-119597870D01*
X150506167Y-119522254D01*
X150506158Y-119522251D01*
X150276450Y-119483920D01*
X150276446Y-119483920D01*
X150043554Y-119483920D01*
X150043550Y-119483920D01*
X149813841Y-119522251D01*
X149813832Y-119522254D01*
X149593569Y-119597870D01*
X149388740Y-119708718D01*
X149204949Y-119851768D01*
X149047216Y-120023112D01*
X149047215Y-120023114D01*
X148919844Y-120218072D01*
X148919835Y-120218089D01*
X148826289Y-120431351D01*
X148826286Y-120431359D01*
X148769116Y-120657117D01*
X148769115Y-120657123D01*
X148749884Y-120889220D01*
X146770601Y-120889220D01*
X139013440Y-116410621D01*
X142815259Y-116410621D01*
X142822105Y-116480132D01*
X142879419Y-116669073D01*
X142972504Y-116843222D01*
X143097759Y-116995845D01*
X143097775Y-116995861D01*
X143250398Y-117121116D01*
X143250397Y-117121116D01*
X143424547Y-117214201D01*
X143613491Y-117271516D01*
X143613498Y-117271517D01*
X143682999Y-117278362D01*
X143683000Y-117278362D01*
X143683000Y-116770502D01*
X143774237Y-116783621D01*
X143845763Y-116783621D01*
X143937000Y-116770502D01*
X143937000Y-117278362D01*
X144006501Y-117271517D01*
X144006508Y-117271516D01*
X144195452Y-117214201D01*
X144369601Y-117121116D01*
X144522224Y-116995861D01*
X144522240Y-116995845D01*
X144647495Y-116843222D01*
X144740580Y-116669073D01*
X144797894Y-116480132D01*
X144804741Y-116410621D01*
X145355259Y-116410621D01*
X145362105Y-116480132D01*
X145419419Y-116669073D01*
X145512504Y-116843222D01*
X145637759Y-116995845D01*
X145637775Y-116995861D01*
X145790398Y-117121116D01*
X145790397Y-117121116D01*
X145964547Y-117214201D01*
X146153491Y-117271516D01*
X146153498Y-117271517D01*
X146222999Y-117278362D01*
X146223000Y-117278362D01*
X146223000Y-116770502D01*
X146314237Y-116783621D01*
X146385763Y-116783621D01*
X146477000Y-116770502D01*
X146477000Y-117278362D01*
X146546501Y-117271517D01*
X146546508Y-117271516D01*
X146735452Y-117214201D01*
X146909601Y-117121116D01*
X147062224Y-116995861D01*
X147062240Y-116995845D01*
X147187495Y-116843222D01*
X147280580Y-116669073D01*
X147337894Y-116480132D01*
X147344741Y-116410621D01*
X146833818Y-116410621D01*
X146850000Y-116355510D01*
X146850000Y-116211732D01*
X146833818Y-116156621D01*
X147344741Y-116156621D01*
X147337894Y-116087109D01*
X147280580Y-115898168D01*
X147187495Y-115724019D01*
X147062240Y-115571396D01*
X147062224Y-115571380D01*
X146909601Y-115446125D01*
X146909602Y-115446125D01*
X146735452Y-115353040D01*
X146546511Y-115295726D01*
X146546512Y-115295726D01*
X146477000Y-115288879D01*
X146477000Y-115796739D01*
X146385763Y-115783621D01*
X146314237Y-115783621D01*
X146223000Y-115796739D01*
X146223000Y-115288879D01*
X146153488Y-115295726D01*
X145964547Y-115353040D01*
X145790398Y-115446125D01*
X145637775Y-115571380D01*
X145637759Y-115571396D01*
X145512504Y-115724019D01*
X145419419Y-115898168D01*
X145362105Y-116087109D01*
X145355259Y-116156621D01*
X145866182Y-116156621D01*
X145850000Y-116211732D01*
X145850000Y-116355510D01*
X145866182Y-116410621D01*
X145355259Y-116410621D01*
X144804741Y-116410621D01*
X144293818Y-116410621D01*
X144310000Y-116355510D01*
X144310000Y-116211732D01*
X144293818Y-116156621D01*
X144804741Y-116156621D01*
X144797894Y-116087109D01*
X144740580Y-115898168D01*
X144647495Y-115724019D01*
X144522240Y-115571396D01*
X144522224Y-115571380D01*
X144369601Y-115446125D01*
X144369602Y-115446125D01*
X144195452Y-115353040D01*
X144006511Y-115295726D01*
X144006512Y-115295726D01*
X143937000Y-115288879D01*
X143937000Y-115796739D01*
X143845763Y-115783621D01*
X143774237Y-115783621D01*
X143683000Y-115796739D01*
X143683000Y-115288879D01*
X143613488Y-115295726D01*
X143424547Y-115353040D01*
X143250398Y-115446125D01*
X143097775Y-115571380D01*
X143097759Y-115571396D01*
X142972504Y-115724019D01*
X142879419Y-115898168D01*
X142822105Y-116087109D01*
X142815259Y-116156621D01*
X143326182Y-116156621D01*
X143310000Y-116211732D01*
X143310000Y-116355510D01*
X143326182Y-116410621D01*
X142815259Y-116410621D01*
X139013440Y-116410621D01*
X134394061Y-113743621D01*
X142802247Y-113743621D01*
X142821612Y-113940230D01*
X142878957Y-114129269D01*
X142878958Y-114129271D01*
X142972084Y-114303499D01*
X143097411Y-114456210D01*
X143250122Y-114581537D01*
X143424350Y-114674663D01*
X143520573Y-114703852D01*
X143602864Y-114728815D01*
X143613397Y-114732010D01*
X143810000Y-114751374D01*
X144006603Y-114732010D01*
X144195650Y-114674663D01*
X144369878Y-114581537D01*
X144522589Y-114456210D01*
X144647916Y-114303499D01*
X144741042Y-114129271D01*
X144798389Y-113940224D01*
X144817753Y-113743621D01*
X144798389Y-113547018D01*
X144741042Y-113357971D01*
X144647916Y-113183743D01*
X144522589Y-113031032D01*
X144369878Y-112905705D01*
X144195650Y-112812579D01*
X144195649Y-112812578D01*
X144195648Y-112812578D01*
X144006609Y-112755233D01*
X144006604Y-112755232D01*
X144006603Y-112755232D01*
X143810000Y-112735868D01*
X143613397Y-112755232D01*
X143613395Y-112755232D01*
X143613390Y-112755233D01*
X143424351Y-112812578D01*
X143250121Y-112905705D01*
X143097413Y-113031030D01*
X143097409Y-113031034D01*
X142972084Y-113183742D01*
X142878957Y-113357972D01*
X142821612Y-113547011D01*
X142802247Y-113743621D01*
X134394061Y-113743621D01*
X130509248Y-111500723D01*
X130470600Y-111454664D01*
X130465300Y-111424605D01*
X130465300Y-110496915D01*
X130749884Y-110496915D01*
X130769115Y-110729011D01*
X130769116Y-110729017D01*
X130826286Y-110954775D01*
X130826289Y-110954783D01*
X130897987Y-111118236D01*
X130919840Y-111168056D01*
X130919844Y-111168062D01*
X131047215Y-111363020D01*
X131047216Y-111363022D01*
X131196925Y-111525650D01*
X131204954Y-111534371D01*
X131388740Y-111677417D01*
X131593563Y-111788262D01*
X131813837Y-111863882D01*
X131813839Y-111863882D01*
X131813841Y-111863883D01*
X132043550Y-111902215D01*
X132043554Y-111902215D01*
X132276450Y-111902215D01*
X132506158Y-111863883D01*
X132506158Y-111863882D01*
X132506163Y-111863882D01*
X132726437Y-111788262D01*
X132931260Y-111677417D01*
X133115046Y-111534371D01*
X133272780Y-111363026D01*
X133400160Y-111168056D01*
X133493712Y-110954779D01*
X133550884Y-110729012D01*
X133570116Y-110496915D01*
X133550884Y-110264818D01*
X133550883Y-110264812D01*
X133493713Y-110039054D01*
X133493710Y-110039046D01*
X133400164Y-109825784D01*
X133400160Y-109825774D01*
X133319435Y-109702215D01*
X133272784Y-109630809D01*
X133272783Y-109630807D01*
X133115050Y-109459463D01*
X133115048Y-109459462D01*
X133115046Y-109459459D01*
X132931260Y-109316413D01*
X132726437Y-109205568D01*
X132726433Y-109205566D01*
X132726430Y-109205565D01*
X132506167Y-109129949D01*
X132506158Y-109129946D01*
X132276450Y-109091615D01*
X132276446Y-109091615D01*
X132043554Y-109091615D01*
X132043550Y-109091615D01*
X131813841Y-109129946D01*
X131813832Y-109129949D01*
X131593569Y-109205565D01*
X131593564Y-109205567D01*
X131593563Y-109205568D01*
X131388740Y-109316413D01*
X131297436Y-109387478D01*
X131204949Y-109459463D01*
X131047216Y-109630807D01*
X131047215Y-109630809D01*
X130919844Y-109825767D01*
X130919835Y-109825784D01*
X130826289Y-110039046D01*
X130826286Y-110039054D01*
X130769116Y-110264812D01*
X130769115Y-110264818D01*
X130749884Y-110496915D01*
X130465300Y-110496915D01*
X130465300Y-95408624D01*
X133021932Y-95408624D01*
X133041700Y-95546119D01*
X133041701Y-95546124D01*
X133041702Y-95546126D01*
X133085709Y-95642488D01*
X133098240Y-95669927D01*
X133099411Y-95672490D01*
X133141566Y-95721140D01*
X133188366Y-95775151D01*
X133190383Y-95777478D01*
X133190385Y-95777479D01*
X133190386Y-95777480D01*
X133307245Y-95852581D01*
X133307246Y-95852581D01*
X133307249Y-95852583D01*
X133379249Y-95873724D01*
X133440536Y-95891720D01*
X133440539Y-95891720D01*
X133440541Y-95891721D01*
X133440542Y-95891721D01*
X133579458Y-95891721D01*
X133579459Y-95891721D01*
X133579461Y-95891720D01*
X133579463Y-95891720D01*
X133595305Y-95887067D01*
X133712751Y-95852583D01*
X133829617Y-95777478D01*
X133920589Y-95672490D01*
X133978298Y-95546126D01*
X133982611Y-95516126D01*
X133998068Y-95408624D01*
X133998068Y-95408617D01*
X133978299Y-95271122D01*
X133978298Y-95271121D01*
X133978298Y-95271116D01*
X133920589Y-95144752D01*
X133829617Y-95039764D01*
X133779476Y-95007540D01*
X133743064Y-94959694D01*
X133739100Y-94933595D01*
X133739100Y-94459927D01*
X133759665Y-94403426D01*
X133764845Y-94397772D01*
X134420845Y-93741772D01*
X134475339Y-93716361D01*
X134533417Y-93731924D01*
X134567905Y-93781177D01*
X134570900Y-93803927D01*
X134570900Y-94903595D01*
X134550335Y-94960096D01*
X134530523Y-94977540D01*
X134510987Y-94990096D01*
X134480383Y-95009764D01*
X134480381Y-95009765D01*
X134389410Y-95114753D01*
X134331702Y-95241116D01*
X134331700Y-95241122D01*
X134311932Y-95378617D01*
X134311932Y-95378624D01*
X134331700Y-95516119D01*
X134331701Y-95516124D01*
X134331702Y-95516126D01*
X134389411Y-95642490D01*
X134480383Y-95747478D01*
X134480385Y-95747479D01*
X134480386Y-95747480D01*
X134597245Y-95822581D01*
X134597246Y-95822581D01*
X134597249Y-95822583D01*
X134688035Y-95849240D01*
X134730536Y-95861720D01*
X134730539Y-95861720D01*
X134730541Y-95861721D01*
X134730542Y-95861721D01*
X134869458Y-95861721D01*
X134869459Y-95861721D01*
X134869461Y-95861720D01*
X134869463Y-95861720D01*
X134900580Y-95852583D01*
X135002751Y-95822583D01*
X135119617Y-95747478D01*
X135210589Y-95642490D01*
X135268298Y-95516126D01*
X135275809Y-95463886D01*
X135288068Y-95378624D01*
X135288068Y-95378617D01*
X135268299Y-95241122D01*
X135268298Y-95241121D01*
X135268298Y-95241116D01*
X135210589Y-95114752D01*
X135119617Y-95009764D01*
X135069476Y-94977540D01*
X135033064Y-94929694D01*
X135029100Y-94903595D01*
X135029100Y-93759927D01*
X135049665Y-93703426D01*
X135054845Y-93697772D01*
X135872614Y-92880003D01*
X136931932Y-92880003D01*
X136951700Y-93017498D01*
X136951701Y-93017503D01*
X136951702Y-93017505D01*
X137009411Y-93143869D01*
X137096746Y-93244660D01*
X137100384Y-93248858D01*
X137118011Y-93260186D01*
X137150521Y-93281078D01*
X137186935Y-93328924D01*
X137190900Y-93355025D01*
X137190900Y-93751471D01*
X137190840Y-93753772D01*
X137189084Y-93787282D01*
X137188666Y-93795260D01*
X137197177Y-93817433D01*
X137201092Y-93830650D01*
X137206031Y-93853888D01*
X137210124Y-93859521D01*
X137221071Y-93879682D01*
X137223567Y-93886183D01*
X137223568Y-93886185D01*
X137240364Y-93902982D01*
X137249320Y-93913468D01*
X137263276Y-93932677D01*
X137263278Y-93932679D01*
X137269308Y-93936160D01*
X137287510Y-93950127D01*
X139151444Y-95814061D01*
X139176855Y-95868555D01*
X139176294Y-95888725D01*
X139161932Y-95988617D01*
X139161932Y-95988624D01*
X139181700Y-96126119D01*
X139181701Y-96126124D01*
X139181702Y-96126126D01*
X139239411Y-96252490D01*
X139289097Y-96309831D01*
X139319436Y-96344845D01*
X139330383Y-96357478D01*
X139330385Y-96357479D01*
X139330386Y-96357480D01*
X139447245Y-96432581D01*
X139447246Y-96432581D01*
X139447249Y-96432583D01*
X139536723Y-96458855D01*
X139580536Y-96471720D01*
X139580539Y-96471720D01*
X139580541Y-96471721D01*
X139580542Y-96471721D01*
X139719458Y-96471721D01*
X139719459Y-96471721D01*
X139719461Y-96471720D01*
X139719463Y-96471720D01*
X139735305Y-96467067D01*
X139852751Y-96432583D01*
X139969617Y-96357478D01*
X140060589Y-96252490D01*
X140118298Y-96126126D01*
X140125091Y-96078881D01*
X140138068Y-95988624D01*
X140138068Y-95988617D01*
X140118299Y-95851122D01*
X140118298Y-95851121D01*
X140118298Y-95851116D01*
X140060589Y-95724752D01*
X139969617Y-95619764D01*
X139969615Y-95619763D01*
X139969613Y-95619761D01*
X139852754Y-95544660D01*
X139852751Y-95544659D01*
X139819631Y-95534934D01*
X139719463Y-95505521D01*
X139719459Y-95505521D01*
X139580541Y-95505521D01*
X139580538Y-95505521D01*
X139561283Y-95511175D01*
X139501277Y-95507360D01*
X139474365Y-95488990D01*
X138576483Y-94591108D01*
X137674845Y-93689469D01*
X137649434Y-93634975D01*
X137649100Y-93627314D01*
X137649100Y-93355025D01*
X137669665Y-93298524D01*
X137689477Y-93281079D01*
X137739617Y-93248857D01*
X137830589Y-93143869D01*
X137888298Y-93017505D01*
X137901077Y-92928624D01*
X137908068Y-92880003D01*
X137908068Y-92879996D01*
X137888299Y-92742501D01*
X137888298Y-92742500D01*
X137888298Y-92742495D01*
X137830589Y-92616131D01*
X137741501Y-92513317D01*
X137739618Y-92511144D01*
X137739613Y-92511140D01*
X137622754Y-92436039D01*
X137622751Y-92436038D01*
X137596092Y-92428210D01*
X137489463Y-92396900D01*
X137489459Y-92396900D01*
X137350541Y-92396900D01*
X137350536Y-92396900D01*
X137217249Y-92436038D01*
X137217245Y-92436039D01*
X137100386Y-92511140D01*
X137100381Y-92511144D01*
X137009410Y-92616132D01*
X136951702Y-92742495D01*
X136951700Y-92742501D01*
X136931932Y-92879996D01*
X136931932Y-92880003D01*
X135872614Y-92880003D01*
X137279152Y-91473466D01*
X137333646Y-91448055D01*
X137341307Y-91447721D01*
X137689141Y-91447721D01*
X137745642Y-91468286D01*
X137755572Y-91478059D01*
X137759410Y-91482488D01*
X137759411Y-91482490D01*
X137850383Y-91587478D01*
X137850385Y-91587479D01*
X137850386Y-91587480D01*
X137967245Y-91662581D01*
X137967246Y-91662581D01*
X137967249Y-91662583D01*
X138058035Y-91689240D01*
X138100536Y-91701720D01*
X138100539Y-91701720D01*
X138100541Y-91701721D01*
X138100542Y-91701721D01*
X138239458Y-91701721D01*
X138239459Y-91701721D01*
X138239461Y-91701720D01*
X138239463Y-91701720D01*
X138255305Y-91697067D01*
X138372751Y-91662583D01*
X138489617Y-91587478D01*
X138580589Y-91482490D01*
X138638298Y-91356126D01*
X138642758Y-91325104D01*
X138658068Y-91218624D01*
X138658068Y-91218617D01*
X138638299Y-91081122D01*
X138638298Y-91081121D01*
X138638298Y-91081116D01*
X138580589Y-90954752D01*
X138489617Y-90849764D01*
X138489615Y-90849763D01*
X138489613Y-90849761D01*
X138372754Y-90774660D01*
X138372751Y-90774659D01*
X138346092Y-90766831D01*
X138239463Y-90735521D01*
X138239459Y-90735521D01*
X138100541Y-90735521D01*
X138100536Y-90735521D01*
X137967249Y-90774659D01*
X137967245Y-90774660D01*
X137850386Y-90849761D01*
X137850381Y-90849765D01*
X137755572Y-90959183D01*
X137703030Y-90988417D01*
X137689141Y-90989521D01*
X137385306Y-90989521D01*
X137328805Y-90968956D01*
X137298741Y-90916885D01*
X137309182Y-90857671D01*
X137323151Y-90839466D01*
X138012663Y-90149955D01*
X138809151Y-89353466D01*
X138863646Y-89328055D01*
X138871307Y-89327721D01*
X143169141Y-89327721D01*
X143225642Y-89348286D01*
X143235572Y-89358059D01*
X143239410Y-89362488D01*
X143239411Y-89362490D01*
X143249094Y-89373665D01*
X143328341Y-89465122D01*
X143330383Y-89467478D01*
X143330385Y-89467479D01*
X143330386Y-89467480D01*
X143424051Y-89527675D01*
X143460465Y-89575522D01*
X143457604Y-89635581D01*
X143416807Y-89679750D01*
X143376529Y-89689521D01*
X142177149Y-89689521D01*
X142174848Y-89689461D01*
X142133360Y-89687287D01*
X142111188Y-89695797D01*
X142097972Y-89699711D01*
X142074736Y-89704651D01*
X142074735Y-89704651D01*
X142069095Y-89708749D01*
X142048942Y-89719691D01*
X142042435Y-89722189D01*
X142042432Y-89722191D01*
X142025639Y-89738984D01*
X142015154Y-89747939D01*
X141995945Y-89761895D01*
X141995938Y-89761902D01*
X141992458Y-89767931D01*
X141978493Y-89786130D01*
X140953040Y-90811582D01*
X140951372Y-90813165D01*
X140920514Y-90840950D01*
X140916809Y-90849271D01*
X140910849Y-90862655D01*
X140904278Y-90874758D01*
X140898195Y-90884127D01*
X140891338Y-90894686D01*
X140890248Y-90901568D01*
X140883735Y-90923555D01*
X140880900Y-90929924D01*
X140880900Y-90953672D01*
X140879818Y-90967421D01*
X140876103Y-90990876D01*
X140876103Y-90990879D01*
X140877905Y-90997603D01*
X140880900Y-91020354D01*
X140880900Y-95772850D01*
X140880840Y-95775151D01*
X140878666Y-95816639D01*
X140887177Y-95838812D01*
X140891091Y-95852026D01*
X140891210Y-95852583D01*
X140896031Y-95875267D01*
X140900124Y-95880900D01*
X140911071Y-95901061D01*
X140913567Y-95907562D01*
X140913568Y-95907564D01*
X140930364Y-95924361D01*
X140939320Y-95934847D01*
X140953276Y-95954056D01*
X140953278Y-95954058D01*
X140959308Y-95957539D01*
X140977510Y-95971506D01*
X141951444Y-96945440D01*
X141976855Y-96999934D01*
X141976294Y-97020104D01*
X141961932Y-97119996D01*
X141961932Y-97120003D01*
X141981700Y-97257498D01*
X141981701Y-97257503D01*
X141981702Y-97257505D01*
X142039411Y-97383869D01*
X142087602Y-97439485D01*
X142121928Y-97479100D01*
X142130383Y-97488857D01*
X142130385Y-97488858D01*
X142130386Y-97488859D01*
X142247245Y-97563960D01*
X142247246Y-97563960D01*
X142247249Y-97563962D01*
X142338035Y-97590619D01*
X142380536Y-97603099D01*
X142380539Y-97603099D01*
X142380541Y-97603100D01*
X142380542Y-97603100D01*
X142519458Y-97603100D01*
X142519459Y-97603100D01*
X142519461Y-97603099D01*
X142519463Y-97603099D01*
X142535305Y-97598447D01*
X142652751Y-97563962D01*
X142769617Y-97488857D01*
X142860589Y-97383869D01*
X142918298Y-97257505D01*
X142921135Y-97237771D01*
X142938068Y-97120003D01*
X142938068Y-97119996D01*
X142918299Y-96982501D01*
X142918298Y-96982500D01*
X142918298Y-96982495D01*
X142860589Y-96856131D01*
X142769617Y-96751143D01*
X142769615Y-96751142D01*
X142769613Y-96751140D01*
X142652754Y-96676039D01*
X142652751Y-96676038D01*
X142626092Y-96668210D01*
X142519463Y-96636900D01*
X142519459Y-96636900D01*
X142380541Y-96636900D01*
X142380538Y-96636900D01*
X142361283Y-96642554D01*
X142301277Y-96638739D01*
X142274365Y-96620369D01*
X141821664Y-96167668D01*
X141364845Y-95710848D01*
X141339434Y-95656354D01*
X141339100Y-95648693D01*
X141339100Y-91325104D01*
X141359665Y-91268603D01*
X141411736Y-91238539D01*
X141470950Y-91248980D01*
X141509599Y-91295040D01*
X141514005Y-91312595D01*
X141521700Y-91366119D01*
X141521701Y-91366124D01*
X141521702Y-91366126D01*
X141579411Y-91492490D01*
X141617221Y-91536125D01*
X141670384Y-91597479D01*
X141696673Y-91614373D01*
X141720521Y-91629699D01*
X141756935Y-91677545D01*
X141760900Y-91703646D01*
X141760900Y-95361471D01*
X141760840Y-95363772D01*
X141758666Y-95405260D01*
X141767177Y-95427433D01*
X141771092Y-95440650D01*
X141776031Y-95463888D01*
X141780124Y-95469521D01*
X141791071Y-95489682D01*
X141793567Y-95496183D01*
X141793568Y-95496185D01*
X141810364Y-95512982D01*
X141819320Y-95523468D01*
X141833276Y-95542677D01*
X141833278Y-95542679D01*
X141839308Y-95546160D01*
X141857510Y-95560127D01*
X142697055Y-96399672D01*
X143535155Y-97237771D01*
X143560566Y-97292265D01*
X143560900Y-97299926D01*
X143560900Y-108543595D01*
X143540335Y-108600096D01*
X143520523Y-108617541D01*
X143470383Y-108649764D01*
X143470381Y-108649765D01*
X143375572Y-108759183D01*
X143323030Y-108788417D01*
X143309141Y-108789521D01*
X141631306Y-108789521D01*
X141574805Y-108768956D01*
X141569151Y-108763776D01*
X140258555Y-107453179D01*
X140233144Y-107398685D01*
X140233704Y-107378520D01*
X140248068Y-107278621D01*
X140248068Y-107278617D01*
X140228299Y-107141122D01*
X140228298Y-107141121D01*
X140228298Y-107141116D01*
X140170589Y-107014752D01*
X140079617Y-106909764D01*
X140079615Y-106909763D01*
X140079613Y-106909761D01*
X139962754Y-106834660D01*
X139962751Y-106834659D01*
X139936092Y-106826831D01*
X139829463Y-106795521D01*
X139829459Y-106795521D01*
X139690541Y-106795521D01*
X139690536Y-106795521D01*
X139557249Y-106834659D01*
X139557245Y-106834660D01*
X139440386Y-106909761D01*
X139440381Y-106909765D01*
X139349410Y-107014753D01*
X139291702Y-107141116D01*
X139291700Y-107141122D01*
X139271932Y-107278617D01*
X139271932Y-107278624D01*
X139291700Y-107416119D01*
X139291701Y-107416124D01*
X139291702Y-107416126D01*
X139349411Y-107542490D01*
X139440383Y-107647478D01*
X139440385Y-107647479D01*
X139440386Y-107647480D01*
X139557245Y-107722581D01*
X139557246Y-107722581D01*
X139557249Y-107722583D01*
X139648035Y-107749240D01*
X139690536Y-107761720D01*
X139690539Y-107761720D01*
X139690541Y-107761721D01*
X139690542Y-107761721D01*
X139829460Y-107761721D01*
X139829463Y-107761720D01*
X139848711Y-107756068D01*
X139908718Y-107759879D01*
X139935634Y-107778251D01*
X141332951Y-109175569D01*
X141334535Y-109177238D01*
X141362330Y-109208107D01*
X141384027Y-109217767D01*
X141396141Y-109224344D01*
X141416064Y-109237283D01*
X141422940Y-109238371D01*
X141444944Y-109244889D01*
X141451303Y-109247721D01*
X141475052Y-109247721D01*
X141488801Y-109248803D01*
X141493877Y-109249606D01*
X141512259Y-109252518D01*
X141518984Y-109250715D01*
X141541734Y-109247721D01*
X143309141Y-109247721D01*
X143365642Y-109268286D01*
X143375572Y-109278059D01*
X143379410Y-109282488D01*
X143379411Y-109282490D01*
X143470383Y-109387478D01*
X143470385Y-109387479D01*
X143470386Y-109387480D01*
X143587245Y-109462581D01*
X143587246Y-109462581D01*
X143587249Y-109462583D01*
X143678035Y-109489240D01*
X143720536Y-109501720D01*
X143720539Y-109501720D01*
X143720541Y-109501721D01*
X143720542Y-109501721D01*
X143859458Y-109501721D01*
X143859459Y-109501721D01*
X143859461Y-109501720D01*
X143859463Y-109501720D01*
X143875305Y-109497067D01*
X143992751Y-109462583D01*
X144109617Y-109387478D01*
X144200589Y-109282490D01*
X144258298Y-109156126D01*
X144278068Y-109018621D01*
X144278068Y-109018617D01*
X144258299Y-108881122D01*
X144258298Y-108881121D01*
X144258298Y-108881116D01*
X144200589Y-108754752D01*
X144109617Y-108649764D01*
X144059476Y-108617540D01*
X144023064Y-108569694D01*
X144019100Y-108543595D01*
X144019100Y-97175768D01*
X144019160Y-97173467D01*
X144019473Y-97167498D01*
X144021334Y-97131981D01*
X144016735Y-97120000D01*
X144012823Y-97109808D01*
X144008906Y-97096584D01*
X144005781Y-97081884D01*
X144003969Y-97073356D01*
X143999874Y-97067720D01*
X143988927Y-97047556D01*
X143986433Y-97041059D01*
X143986432Y-97041058D01*
X143986432Y-97041057D01*
X143969630Y-97024255D01*
X143960677Y-97013771D01*
X143950915Y-97000335D01*
X143946722Y-96994563D01*
X143946721Y-96994562D01*
X143946722Y-96994562D01*
X143940692Y-96991081D01*
X143922488Y-96977113D01*
X142244845Y-95299469D01*
X142219434Y-95244975D01*
X142219100Y-95237314D01*
X142219100Y-91703646D01*
X142239665Y-91647145D01*
X142259477Y-91629700D01*
X142309617Y-91597478D01*
X142400589Y-91492490D01*
X142458298Y-91366126D01*
X142478068Y-91228621D01*
X142478068Y-91228617D01*
X142458299Y-91091122D01*
X142458298Y-91091121D01*
X142458298Y-91091116D01*
X142400589Y-90964752D01*
X142309617Y-90859764D01*
X142309615Y-90859763D01*
X142309613Y-90859761D01*
X142192754Y-90784660D01*
X142192751Y-90784659D01*
X142166092Y-90776831D01*
X142059463Y-90745521D01*
X142059459Y-90745521D01*
X141920541Y-90745521D01*
X141920536Y-90745521D01*
X141892181Y-90753847D01*
X141832175Y-90750032D01*
X141788660Y-90708539D01*
X141781997Y-90648782D01*
X141805262Y-90607354D01*
X142239151Y-90173466D01*
X142293645Y-90148055D01*
X142301306Y-90147721D01*
X144312851Y-90147721D01*
X144315152Y-90147781D01*
X144322843Y-90148183D01*
X144356639Y-90149955D01*
X144378809Y-90141444D01*
X144392027Y-90137528D01*
X144415265Y-90132590D01*
X144420894Y-90128499D01*
X144441061Y-90117548D01*
X144447564Y-90115053D01*
X144464365Y-90098250D01*
X144474840Y-90089304D01*
X144494058Y-90075343D01*
X144497538Y-90069315D01*
X144511502Y-90051114D01*
X144710845Y-89851771D01*
X144765339Y-89826361D01*
X144823418Y-89841924D01*
X144857905Y-89891177D01*
X144860900Y-89913927D01*
X144860900Y-90445897D01*
X144840335Y-90502398D01*
X144788264Y-90532462D01*
X144729050Y-90522021D01*
X144724166Y-90518983D01*
X144719660Y-90515972D01*
X144689924Y-90510057D01*
X144675057Y-90507100D01*
X144675056Y-90507100D01*
X142944941Y-90507100D01*
X142900341Y-90515972D01*
X142849767Y-90549765D01*
X142849764Y-90549768D01*
X142815971Y-90600341D01*
X142807100Y-90644943D01*
X142807100Y-92375058D01*
X142815972Y-92419658D01*
X142849766Y-92470234D01*
X142866701Y-92481550D01*
X142900341Y-92504028D01*
X142905786Y-92505111D01*
X142944943Y-92512900D01*
X144675056Y-92512899D01*
X144675058Y-92512899D01*
X144687750Y-92510374D01*
X144719658Y-92504028D01*
X144724164Y-92501016D01*
X144782568Y-92486724D01*
X144836495Y-92513317D01*
X144860712Y-92568352D01*
X144860900Y-92574102D01*
X144860900Y-93461471D01*
X144860840Y-93463772D01*
X144858666Y-93505260D01*
X144867177Y-93527433D01*
X144871091Y-93540647D01*
X144872667Y-93548060D01*
X144876031Y-93563888D01*
X144880124Y-93569521D01*
X144891071Y-93589682D01*
X144893567Y-93596183D01*
X144893568Y-93596185D01*
X144910364Y-93612982D01*
X144919320Y-93623468D01*
X144933276Y-93642677D01*
X144933278Y-93642679D01*
X144939308Y-93646160D01*
X144957510Y-93660127D01*
X144991444Y-93694061D01*
X145016855Y-93748555D01*
X145016294Y-93768725D01*
X145001932Y-93868617D01*
X145001932Y-93868624D01*
X145021700Y-94006119D01*
X145021702Y-94006125D01*
X145066905Y-94105106D01*
X145071670Y-94165044D01*
X145036793Y-94214022D01*
X144986948Y-94229521D01*
X144197149Y-94229521D01*
X144194848Y-94229461D01*
X144167451Y-94228025D01*
X144153361Y-94227287D01*
X144153360Y-94227287D01*
X144153359Y-94227287D01*
X144131188Y-94235797D01*
X144117971Y-94239712D01*
X144111238Y-94241144D01*
X144094735Y-94244652D01*
X144094732Y-94244653D01*
X144089095Y-94248749D01*
X144068942Y-94259691D01*
X144062435Y-94262189D01*
X144054685Y-94267222D01*
X144053127Y-94264823D01*
X144011127Y-94284402D01*
X143978715Y-94281175D01*
X143974454Y-94279924D01*
X143959459Y-94275521D01*
X143820541Y-94275521D01*
X143820536Y-94275521D01*
X143687249Y-94314659D01*
X143687245Y-94314660D01*
X143570386Y-94389761D01*
X143570381Y-94389765D01*
X143479410Y-94494753D01*
X143421702Y-94621116D01*
X143421700Y-94621122D01*
X143401932Y-94758617D01*
X143401932Y-94758624D01*
X143421700Y-94896119D01*
X143421701Y-94896124D01*
X143421702Y-94896126D01*
X143454877Y-94968769D01*
X143472583Y-95007540D01*
X143479411Y-95022490D01*
X143570383Y-95127478D01*
X143570385Y-95127479D01*
X143570386Y-95127480D01*
X143687245Y-95202581D01*
X143687246Y-95202581D01*
X143687249Y-95202583D01*
X143763210Y-95224887D01*
X143820536Y-95241720D01*
X143820539Y-95241720D01*
X143820541Y-95241721D01*
X143820542Y-95241721D01*
X143959458Y-95241721D01*
X143959459Y-95241721D01*
X143959461Y-95241720D01*
X143959463Y-95241720D01*
X143975305Y-95237068D01*
X144092751Y-95202583D01*
X144209617Y-95127478D01*
X144300589Y-95022490D01*
X144358298Y-94896126D01*
X144362391Y-94867660D01*
X144377423Y-94763112D01*
X144405819Y-94710112D01*
X144461639Y-94687765D01*
X144464428Y-94687721D01*
X145665154Y-94687721D01*
X145667455Y-94687781D01*
X145675146Y-94688183D01*
X145708942Y-94689955D01*
X145731112Y-94681444D01*
X145744330Y-94677528D01*
X145767568Y-94672590D01*
X145773197Y-94668499D01*
X145793364Y-94657548D01*
X145799867Y-94655053D01*
X145816668Y-94638250D01*
X145827143Y-94629304D01*
X145846361Y-94615343D01*
X145849843Y-94609311D01*
X145863806Y-94591112D01*
X146489283Y-93965635D01*
X146543776Y-93940225D01*
X146601854Y-93955788D01*
X146636342Y-94005041D01*
X146638443Y-94015283D01*
X146646294Y-94069895D01*
X146633978Y-94128747D01*
X146621443Y-94144558D01*
X145343040Y-95422961D01*
X145341372Y-95424544D01*
X145310514Y-95452329D01*
X145310513Y-95452330D01*
X145310514Y-95452330D01*
X145300849Y-95474034D01*
X145294278Y-95486137D01*
X145285226Y-95500076D01*
X145281338Y-95506065D01*
X145280248Y-95512947D01*
X145273735Y-95534934D01*
X145270900Y-95541303D01*
X145270900Y-95565051D01*
X145269818Y-95578800D01*
X145266103Y-95602255D01*
X145266103Y-95602258D01*
X145267905Y-95608982D01*
X145270900Y-95631733D01*
X145270900Y-112886471D01*
X145270840Y-112888772D01*
X145268666Y-112930260D01*
X145277177Y-112952433D01*
X145281092Y-112965650D01*
X145286031Y-112988888D01*
X145290124Y-112994521D01*
X145301071Y-113014682D01*
X145303567Y-113021183D01*
X145303568Y-113021185D01*
X145320364Y-113037982D01*
X145329320Y-113048468D01*
X145343276Y-113067677D01*
X145343278Y-113067679D01*
X145349308Y-113071160D01*
X145367510Y-113085127D01*
X145449978Y-113167595D01*
X145475389Y-113222089D01*
X145465344Y-113271185D01*
X145418958Y-113357968D01*
X145418957Y-113357972D01*
X145361612Y-113547011D01*
X145342247Y-113743621D01*
X145361612Y-113940230D01*
X145418957Y-114129269D01*
X145418958Y-114129271D01*
X145512084Y-114303499D01*
X145637411Y-114456210D01*
X145790122Y-114581537D01*
X145964350Y-114674663D01*
X146060573Y-114703852D01*
X146142864Y-114728815D01*
X146153397Y-114732010D01*
X146350000Y-114751374D01*
X146546603Y-114732010D01*
X146735650Y-114674663D01*
X146909878Y-114581537D01*
X147062589Y-114456210D01*
X147187916Y-114303499D01*
X147281042Y-114129271D01*
X147338389Y-113940224D01*
X147357753Y-113743621D01*
X147338389Y-113547018D01*
X147281042Y-113357971D01*
X147187916Y-113183743D01*
X147062589Y-113031032D01*
X146909878Y-112905705D01*
X146735650Y-112812579D01*
X146735649Y-112812578D01*
X146735648Y-112812578D01*
X146546609Y-112755233D01*
X146546604Y-112755232D01*
X146546603Y-112755232D01*
X146350000Y-112735868D01*
X146153397Y-112755232D01*
X146153395Y-112755232D01*
X146153390Y-112755233D01*
X145964351Y-112812578D01*
X145964347Y-112812579D01*
X145877565Y-112858965D01*
X145818041Y-112867463D01*
X145773974Y-112843597D01*
X145754844Y-112824466D01*
X145729434Y-112769972D01*
X145729100Y-112762313D01*
X145729100Y-95721306D01*
X145749665Y-95664805D01*
X145754845Y-95659151D01*
X145961667Y-95452329D01*
X146173509Y-95240486D01*
X146228002Y-95215076D01*
X146286080Y-95230638D01*
X146320568Y-95279892D01*
X146317242Y-95322250D01*
X146320720Y-95322990D01*
X146318800Y-95332023D01*
X146318800Y-95355772D01*
X146317718Y-95369521D01*
X146314003Y-95392976D01*
X146314003Y-95392979D01*
X146315805Y-95399703D01*
X146318800Y-95422454D01*
X146318800Y-111394371D01*
X146318740Y-111396672D01*
X146316566Y-111438160D01*
X146325077Y-111460333D01*
X146328991Y-111473547D01*
X146330567Y-111480960D01*
X146333931Y-111496788D01*
X146338024Y-111502421D01*
X146348971Y-111522582D01*
X146351467Y-111529083D01*
X146351468Y-111529085D01*
X146368264Y-111545882D01*
X146377220Y-111556368D01*
X146391176Y-111575577D01*
X146391178Y-111575579D01*
X146397208Y-111579060D01*
X146415410Y-111593027D01*
X147989978Y-113167595D01*
X148015389Y-113222089D01*
X148005344Y-113271185D01*
X147958958Y-113357968D01*
X147958957Y-113357972D01*
X147901612Y-113547011D01*
X147882247Y-113743620D01*
X147901612Y-113940230D01*
X147958957Y-114129269D01*
X147958958Y-114129271D01*
X148052084Y-114303499D01*
X148177411Y-114456210D01*
X148330122Y-114581537D01*
X148504350Y-114674663D01*
X148600573Y-114703852D01*
X148682864Y-114728815D01*
X148693397Y-114732010D01*
X148890000Y-114751374D01*
X149086603Y-114732010D01*
X149275650Y-114674663D01*
X149449878Y-114581537D01*
X149583136Y-114472174D01*
X149639859Y-114452226D01*
X149696132Y-114473406D01*
X149725626Y-114525802D01*
X149726800Y-114540121D01*
X149726800Y-115086413D01*
X149706235Y-115142914D01*
X149701055Y-115148568D01*
X149466024Y-115383599D01*
X149411530Y-115409010D01*
X149362434Y-115398965D01*
X149275652Y-115352579D01*
X149275648Y-115352578D01*
X149086609Y-115295233D01*
X149086604Y-115295232D01*
X149086603Y-115295232D01*
X148890000Y-115275868D01*
X148889999Y-115275868D01*
X148842657Y-115280530D01*
X148693397Y-115295232D01*
X148693395Y-115295232D01*
X148693390Y-115295233D01*
X148504351Y-115352578D01*
X148330121Y-115445705D01*
X148177413Y-115571030D01*
X148177409Y-115571034D01*
X148052084Y-115723742D01*
X147958957Y-115897972D01*
X147901612Y-116087011D01*
X147882247Y-116283621D01*
X147901612Y-116480230D01*
X147958898Y-116669073D01*
X147958958Y-116669271D01*
X148052084Y-116843499D01*
X148177411Y-116996210D01*
X148330122Y-117121537D01*
X148504350Y-117214663D01*
X148638715Y-117255422D01*
X148691771Y-117271517D01*
X148693397Y-117272010D01*
X148890000Y-117291374D01*
X149086603Y-117272010D01*
X149275650Y-117214663D01*
X149449878Y-117121537D01*
X149602589Y-116996210D01*
X149727916Y-116843499D01*
X149821042Y-116669271D01*
X149878389Y-116480224D01*
X149897753Y-116283621D01*
X150422247Y-116283621D01*
X150441612Y-116480230D01*
X150498898Y-116669073D01*
X150498958Y-116669271D01*
X150592084Y-116843499D01*
X150717411Y-116996210D01*
X150870122Y-117121537D01*
X151044350Y-117214663D01*
X151178715Y-117255422D01*
X151231771Y-117271517D01*
X151233397Y-117272010D01*
X151430000Y-117291374D01*
X151626603Y-117272010D01*
X151815650Y-117214663D01*
X151989878Y-117121537D01*
X152142589Y-116996210D01*
X152267916Y-116843499D01*
X152361042Y-116669271D01*
X152418389Y-116480224D01*
X152437753Y-116283621D01*
X152962247Y-116283621D01*
X152981612Y-116480230D01*
X153038898Y-116669073D01*
X153038958Y-116669271D01*
X153132084Y-116843499D01*
X153257411Y-116996210D01*
X153410122Y-117121537D01*
X153584350Y-117214663D01*
X153718715Y-117255422D01*
X153771771Y-117271517D01*
X153773397Y-117272010D01*
X153970000Y-117291374D01*
X154166603Y-117272010D01*
X154355650Y-117214663D01*
X154529878Y-117121537D01*
X154682589Y-116996210D01*
X154807916Y-116843499D01*
X154901042Y-116669271D01*
X154958389Y-116480224D01*
X154977753Y-116283621D01*
X154958389Y-116087018D01*
X154901042Y-115897971D01*
X154807916Y-115723743D01*
X154682589Y-115571032D01*
X154529878Y-115445705D01*
X154355650Y-115352579D01*
X154355649Y-115352578D01*
X154355648Y-115352578D01*
X154166609Y-115295233D01*
X154166604Y-115295232D01*
X154166603Y-115295232D01*
X153970000Y-115275868D01*
X153773397Y-115295232D01*
X153773395Y-115295232D01*
X153773390Y-115295233D01*
X153584351Y-115352578D01*
X153410121Y-115445705D01*
X153257413Y-115571030D01*
X153257409Y-115571034D01*
X153132084Y-115723742D01*
X153038957Y-115897972D01*
X152981612Y-116087011D01*
X152962247Y-116283621D01*
X152437753Y-116283621D01*
X152418389Y-116087018D01*
X152361042Y-115897971D01*
X152267916Y-115723743D01*
X152142589Y-115571032D01*
X151989878Y-115445705D01*
X151815650Y-115352579D01*
X151815649Y-115352578D01*
X151815648Y-115352578D01*
X151626609Y-115295233D01*
X151626604Y-115295232D01*
X151626603Y-115295232D01*
X151430000Y-115275868D01*
X151429999Y-115275868D01*
X151382657Y-115280530D01*
X151233397Y-115295232D01*
X151233395Y-115295232D01*
X151233390Y-115295233D01*
X151044351Y-115352578D01*
X150870121Y-115445705D01*
X150717413Y-115571030D01*
X150717409Y-115571034D01*
X150592084Y-115723742D01*
X150498957Y-115897972D01*
X150441612Y-116087011D01*
X150422247Y-116283621D01*
X149897753Y-116283621D01*
X149878389Y-116087018D01*
X149821042Y-115897971D01*
X149774653Y-115811183D01*
X149766156Y-115751663D01*
X149790018Y-115707597D01*
X150112865Y-115384750D01*
X150114498Y-115383201D01*
X150145386Y-115355391D01*
X150155045Y-115333694D01*
X150161619Y-115321585D01*
X150174561Y-115301658D01*
X150175649Y-115294781D01*
X150182165Y-115272783D01*
X150185000Y-115266418D01*
X150185000Y-115242668D01*
X150186082Y-115228917D01*
X150189797Y-115205463D01*
X150189796Y-115205459D01*
X150189796Y-115205457D01*
X150187995Y-115198735D01*
X150185000Y-115175987D01*
X150185000Y-113309277D01*
X150185060Y-113306976D01*
X150186935Y-113271186D01*
X150187235Y-113265471D01*
X150178724Y-113243302D01*
X150174807Y-113230075D01*
X150169870Y-113206847D01*
X150169869Y-113206845D01*
X150165774Y-113201209D01*
X150154827Y-113181047D01*
X150152332Y-113174546D01*
X150135536Y-113157750D01*
X150126578Y-113147261D01*
X150112621Y-113128051D01*
X150106592Y-113124570D01*
X150088388Y-113110602D01*
X148084845Y-111107058D01*
X148059434Y-111052564D01*
X148059100Y-111044903D01*
X148059100Y-102533646D01*
X148079665Y-102477145D01*
X148099477Y-102459700D01*
X148149617Y-102427478D01*
X148240589Y-102322490D01*
X148298298Y-102196126D01*
X148310879Y-102108624D01*
X148651932Y-102108624D01*
X148671700Y-102246119D01*
X148671701Y-102246124D01*
X148671702Y-102246126D01*
X148729411Y-102372490D01*
X148820383Y-102477478D01*
X148820384Y-102477479D01*
X148833097Y-102485649D01*
X148870521Y-102509699D01*
X148906935Y-102557545D01*
X148910900Y-102583646D01*
X148910900Y-111446471D01*
X148910840Y-111448772D01*
X148908666Y-111490260D01*
X148917177Y-111512433D01*
X148921092Y-111525650D01*
X148926031Y-111548888D01*
X148930124Y-111554521D01*
X148941071Y-111574682D01*
X148943567Y-111581183D01*
X148943568Y-111581185D01*
X148960364Y-111597982D01*
X148969320Y-111608468D01*
X148983276Y-111627677D01*
X148983278Y-111627679D01*
X148989308Y-111631160D01*
X149007510Y-111645127D01*
X150529978Y-113167596D01*
X150555389Y-113222090D01*
X150545344Y-113271186D01*
X150498958Y-113357968D01*
X150498957Y-113357972D01*
X150441612Y-113547011D01*
X150422247Y-113743620D01*
X150441612Y-113940230D01*
X150498957Y-114129269D01*
X150498958Y-114129271D01*
X150592084Y-114303499D01*
X150717411Y-114456210D01*
X150870122Y-114581537D01*
X151044350Y-114674663D01*
X151140573Y-114703852D01*
X151222864Y-114728815D01*
X151233397Y-114732010D01*
X151430000Y-114751374D01*
X151626603Y-114732010D01*
X151815650Y-114674663D01*
X151989878Y-114581537D01*
X152142589Y-114456210D01*
X152267916Y-114303499D01*
X152361042Y-114129271D01*
X152418389Y-113940224D01*
X152437753Y-113743621D01*
X152437753Y-113743620D01*
X152962247Y-113743620D01*
X152981612Y-113940230D01*
X153038957Y-114129269D01*
X153038958Y-114129271D01*
X153132084Y-114303499D01*
X153257411Y-114456210D01*
X153410122Y-114581537D01*
X153584350Y-114674663D01*
X153680573Y-114703852D01*
X153762864Y-114728815D01*
X153773397Y-114732010D01*
X153970000Y-114751374D01*
X154166603Y-114732010D01*
X154355650Y-114674663D01*
X154529878Y-114581537D01*
X154682589Y-114456210D01*
X154807916Y-114303499D01*
X154901042Y-114129271D01*
X154958389Y-113940224D01*
X154977753Y-113743621D01*
X154958389Y-113547018D01*
X154901042Y-113357971D01*
X154807916Y-113183743D01*
X154682589Y-113031032D01*
X154529878Y-112905705D01*
X154355650Y-112812579D01*
X154355649Y-112812578D01*
X154355648Y-112812578D01*
X154166609Y-112755233D01*
X154166604Y-112755232D01*
X154166603Y-112755232D01*
X153970000Y-112735868D01*
X153773397Y-112755232D01*
X153773395Y-112755232D01*
X153773390Y-112755233D01*
X153584351Y-112812578D01*
X153410121Y-112905705D01*
X153257413Y-113031030D01*
X153257409Y-113031034D01*
X153132084Y-113183742D01*
X153038957Y-113357972D01*
X152981612Y-113547011D01*
X152962247Y-113743620D01*
X152437753Y-113743620D01*
X152418389Y-113547018D01*
X152361042Y-113357971D01*
X152267916Y-113183743D01*
X152142589Y-113031032D01*
X151989878Y-112905705D01*
X151815650Y-112812579D01*
X151815649Y-112812578D01*
X151815648Y-112812578D01*
X151626609Y-112755233D01*
X151626604Y-112755232D01*
X151626603Y-112755232D01*
X151430000Y-112735868D01*
X151429999Y-112735868D01*
X151382657Y-112740530D01*
X151233397Y-112755232D01*
X151233395Y-112755232D01*
X151233390Y-112755233D01*
X151044351Y-112812578D01*
X151044347Y-112812579D01*
X150957564Y-112858965D01*
X150898040Y-112867463D01*
X150853974Y-112843599D01*
X149394845Y-111384469D01*
X149369434Y-111329975D01*
X149369100Y-111322314D01*
X149369100Y-102583646D01*
X149389665Y-102527145D01*
X149409477Y-102509700D01*
X149459617Y-102477478D01*
X149550589Y-102372490D01*
X149608298Y-102246126D01*
X149619228Y-102170107D01*
X149628068Y-102108624D01*
X149628068Y-102108617D01*
X149608299Y-101971122D01*
X149608298Y-101971121D01*
X149608298Y-101971116D01*
X149550589Y-101844752D01*
X149459617Y-101739764D01*
X149459615Y-101739763D01*
X149459613Y-101739761D01*
X149342754Y-101664660D01*
X149342751Y-101664659D01*
X149316092Y-101656831D01*
X149209463Y-101625521D01*
X149209459Y-101625521D01*
X149070541Y-101625521D01*
X149070536Y-101625521D01*
X148937249Y-101664659D01*
X148937245Y-101664660D01*
X148820386Y-101739761D01*
X148820381Y-101739765D01*
X148729410Y-101844753D01*
X148671702Y-101971116D01*
X148671700Y-101971122D01*
X148651932Y-102108617D01*
X148651932Y-102108624D01*
X148310879Y-102108624D01*
X148318068Y-102058621D01*
X148318068Y-102058617D01*
X148298299Y-101921122D01*
X148298298Y-101921121D01*
X148298298Y-101921116D01*
X148240589Y-101794752D01*
X148149617Y-101689764D01*
X148149615Y-101689763D01*
X148149613Y-101689761D01*
X148032754Y-101614660D01*
X148032751Y-101614659D01*
X148006092Y-101606831D01*
X147899463Y-101575521D01*
X147899459Y-101575521D01*
X147760541Y-101575521D01*
X147760536Y-101575521D01*
X147627249Y-101614659D01*
X147627245Y-101614660D01*
X147510386Y-101689761D01*
X147510381Y-101689765D01*
X147419410Y-101794753D01*
X147361702Y-101921116D01*
X147361700Y-101921122D01*
X147341932Y-102058617D01*
X147341932Y-102058624D01*
X147361700Y-102196119D01*
X147361701Y-102196124D01*
X147361702Y-102196126D01*
X147419411Y-102322490D01*
X147462736Y-102372490D01*
X147510384Y-102427479D01*
X147521283Y-102434483D01*
X147560521Y-102459699D01*
X147596935Y-102507545D01*
X147600900Y-102533646D01*
X147600900Y-111169060D01*
X147600840Y-111171361D01*
X147598666Y-111212849D01*
X147607177Y-111235022D01*
X147611092Y-111248239D01*
X147616031Y-111271477D01*
X147620124Y-111277110D01*
X147631071Y-111297271D01*
X147633567Y-111303772D01*
X147633568Y-111303774D01*
X147650364Y-111320571D01*
X147659320Y-111331057D01*
X147673276Y-111350266D01*
X147673278Y-111350268D01*
X147679308Y-111353749D01*
X147697510Y-111367716D01*
X148918496Y-112588702D01*
X148943907Y-112643196D01*
X148928344Y-112701274D01*
X148879091Y-112735762D01*
X148864957Y-112738334D01*
X148754751Y-112749188D01*
X148693397Y-112755232D01*
X148693395Y-112755232D01*
X148693390Y-112755233D01*
X148504351Y-112812578D01*
X148504347Y-112812579D01*
X148417564Y-112858965D01*
X148358040Y-112867463D01*
X148313974Y-112843599D01*
X146802745Y-111332369D01*
X146777334Y-111277875D01*
X146777000Y-111270214D01*
X146777000Y-100968624D01*
X152691932Y-100968624D01*
X152711700Y-101106119D01*
X152711701Y-101106124D01*
X152711702Y-101106126D01*
X152769411Y-101232490D01*
X152860383Y-101337478D01*
X152860385Y-101337479D01*
X152860386Y-101337480D01*
X152977245Y-101412581D01*
X152977246Y-101412581D01*
X152977249Y-101412583D01*
X153068035Y-101439240D01*
X153110536Y-101451720D01*
X153110539Y-101451720D01*
X153110541Y-101451721D01*
X153110542Y-101451721D01*
X153249460Y-101451721D01*
X153249463Y-101451720D01*
X153268711Y-101446068D01*
X153328718Y-101449879D01*
X153355634Y-101468251D01*
X156255155Y-104367771D01*
X156280566Y-104422265D01*
X156280900Y-104429926D01*
X156280900Y-112652821D01*
X156260335Y-112709322D01*
X156208264Y-112739386D01*
X156193000Y-112740721D01*
X155644941Y-112740721D01*
X155600341Y-112749593D01*
X155549767Y-112783386D01*
X155549764Y-112783389D01*
X155515971Y-112833962D01*
X155507100Y-112878564D01*
X155507100Y-114608679D01*
X155515972Y-114653279D01*
X155549766Y-114703855D01*
X155557053Y-114708724D01*
X155600341Y-114737649D01*
X155607741Y-114739120D01*
X155644943Y-114746521D01*
X157375056Y-114746520D01*
X157375058Y-114746520D01*
X157387750Y-114743995D01*
X157419658Y-114737649D01*
X157470234Y-114703855D01*
X157504028Y-114653279D01*
X157512900Y-114608678D01*
X157512899Y-112878565D01*
X157512899Y-112878564D01*
X157512899Y-112878562D01*
X157509001Y-112858965D01*
X157504028Y-112833963D01*
X157470234Y-112783387D01*
X157470002Y-112783232D01*
X157419658Y-112749592D01*
X157382456Y-112742192D01*
X157375057Y-112740721D01*
X157375056Y-112740721D01*
X156827000Y-112740721D01*
X156770499Y-112720156D01*
X156740435Y-112668085D01*
X156739100Y-112652821D01*
X156739100Y-104305768D01*
X156739160Y-104303467D01*
X156740729Y-104273517D01*
X156741334Y-104261981D01*
X156732823Y-104239808D01*
X156728906Y-104226584D01*
X156723969Y-104203357D01*
X156723967Y-104203353D01*
X156719875Y-104197721D01*
X156708927Y-104177556D01*
X156706433Y-104171059D01*
X156706432Y-104171058D01*
X156706432Y-104171057D01*
X156689630Y-104154255D01*
X156680677Y-104143771D01*
X156679377Y-104141982D01*
X156666722Y-104124563D01*
X156666721Y-104124562D01*
X156666722Y-104124562D01*
X156660692Y-104121081D01*
X156642488Y-104107113D01*
X153678555Y-101143179D01*
X153653144Y-101088685D01*
X153653704Y-101068520D01*
X153668068Y-100968621D01*
X153668068Y-100968617D01*
X153648299Y-100831122D01*
X153648298Y-100831121D01*
X153648298Y-100831116D01*
X153590589Y-100704752D01*
X153499617Y-100599764D01*
X153499615Y-100599763D01*
X153499613Y-100599761D01*
X153382754Y-100524660D01*
X153382751Y-100524659D01*
X153356092Y-100516831D01*
X153249463Y-100485521D01*
X153249459Y-100485521D01*
X153110541Y-100485521D01*
X153110536Y-100485521D01*
X152977249Y-100524659D01*
X152977245Y-100524660D01*
X152860386Y-100599761D01*
X152860381Y-100599765D01*
X152769410Y-100704753D01*
X152711702Y-100831116D01*
X152711700Y-100831122D01*
X152691932Y-100968617D01*
X152691932Y-100968624D01*
X146777000Y-100968624D01*
X146777000Y-99258624D01*
X152661932Y-99258624D01*
X152681700Y-99396119D01*
X152681701Y-99396124D01*
X152681702Y-99396126D01*
X152739411Y-99522490D01*
X152830383Y-99627478D01*
X152830385Y-99627479D01*
X152830386Y-99627480D01*
X152947245Y-99702581D01*
X152947246Y-99702581D01*
X152947249Y-99702583D01*
X153038035Y-99729240D01*
X153080536Y-99741720D01*
X153080539Y-99741720D01*
X153080541Y-99741721D01*
X153080542Y-99741721D01*
X153219460Y-99741721D01*
X153219463Y-99741720D01*
X153238711Y-99736068D01*
X153298718Y-99739879D01*
X153325634Y-99758251D01*
X157815155Y-104247772D01*
X157840566Y-104302266D01*
X157840900Y-104309927D01*
X157840900Y-114672314D01*
X157820335Y-114728815D01*
X157815155Y-114734469D01*
X157138158Y-115411465D01*
X157083664Y-115436876D01*
X157034567Y-115426831D01*
X156895648Y-115352578D01*
X156706609Y-115295233D01*
X156706604Y-115295232D01*
X156706603Y-115295232D01*
X156510000Y-115275868D01*
X156509999Y-115275868D01*
X156462657Y-115280530D01*
X156313397Y-115295232D01*
X156313395Y-115295232D01*
X156313390Y-115295233D01*
X156124351Y-115352578D01*
X155950121Y-115445705D01*
X155797413Y-115571030D01*
X155797409Y-115571034D01*
X155672084Y-115723742D01*
X155578957Y-115897972D01*
X155521612Y-116087011D01*
X155502247Y-116283621D01*
X155521612Y-116480230D01*
X155578898Y-116669073D01*
X155578958Y-116669271D01*
X155672084Y-116843499D01*
X155797411Y-116996210D01*
X155950122Y-117121537D01*
X156124350Y-117214663D01*
X156258715Y-117255422D01*
X156311771Y-117271517D01*
X156313397Y-117272010D01*
X156510000Y-117291374D01*
X156706603Y-117272010D01*
X156895650Y-117214663D01*
X157069878Y-117121537D01*
X157222589Y-116996210D01*
X157347916Y-116843499D01*
X157441042Y-116669271D01*
X157498389Y-116480224D01*
X157517753Y-116283621D01*
X157498389Y-116087018D01*
X157441042Y-115897971D01*
X157422520Y-115863320D01*
X157414022Y-115803797D01*
X157437884Y-115759731D01*
X158226965Y-114970650D01*
X158228598Y-114969101D01*
X158259486Y-114941291D01*
X158269145Y-114919594D01*
X158275719Y-114907485D01*
X158288661Y-114887558D01*
X158289749Y-114880681D01*
X158296265Y-114858683D01*
X158299100Y-114852318D01*
X158299100Y-114828568D01*
X158300182Y-114814817D01*
X158303897Y-114791363D01*
X158303896Y-114791359D01*
X158303896Y-114791357D01*
X158302095Y-114784635D01*
X158299100Y-114761887D01*
X158299100Y-110496914D01*
X166749884Y-110496914D01*
X166769115Y-110729011D01*
X166769116Y-110729017D01*
X166826286Y-110954775D01*
X166826289Y-110954783D01*
X166897987Y-111118236D01*
X166919840Y-111168056D01*
X166919844Y-111168062D01*
X167047215Y-111363020D01*
X167047216Y-111363022D01*
X167196925Y-111525650D01*
X167204954Y-111534371D01*
X167388740Y-111677417D01*
X167593563Y-111788262D01*
X167813837Y-111863882D01*
X167813839Y-111863882D01*
X167813841Y-111863883D01*
X168043550Y-111902215D01*
X168043554Y-111902215D01*
X168276450Y-111902215D01*
X168506158Y-111863883D01*
X168506158Y-111863882D01*
X168506163Y-111863882D01*
X168726437Y-111788262D01*
X168931260Y-111677417D01*
X169115046Y-111534371D01*
X169272780Y-111363026D01*
X169400160Y-111168056D01*
X169493712Y-110954779D01*
X169550884Y-110729012D01*
X169570116Y-110496915D01*
X169550884Y-110264818D01*
X169550883Y-110264812D01*
X169493713Y-110039054D01*
X169493710Y-110039046D01*
X169400164Y-109825784D01*
X169400160Y-109825774D01*
X169319435Y-109702215D01*
X169272784Y-109630809D01*
X169272783Y-109630807D01*
X169115050Y-109459463D01*
X169115048Y-109459462D01*
X169115046Y-109459459D01*
X168931260Y-109316413D01*
X168726437Y-109205568D01*
X168726433Y-109205566D01*
X168726430Y-109205565D01*
X168506167Y-109129949D01*
X168506158Y-109129946D01*
X168276450Y-109091615D01*
X168276446Y-109091615D01*
X168043554Y-109091615D01*
X168043550Y-109091615D01*
X167813841Y-109129946D01*
X167813832Y-109129949D01*
X167593569Y-109205565D01*
X167593564Y-109205567D01*
X167593563Y-109205568D01*
X167388740Y-109316413D01*
X167297436Y-109387478D01*
X167204949Y-109459463D01*
X167047216Y-109630807D01*
X167047215Y-109630809D01*
X166919844Y-109825767D01*
X166919835Y-109825784D01*
X166826289Y-110039046D01*
X166826286Y-110039054D01*
X166769116Y-110264812D01*
X166769115Y-110264818D01*
X166749884Y-110496914D01*
X158299100Y-110496914D01*
X158299100Y-104185776D01*
X158299160Y-104183476D01*
X158299810Y-104171059D01*
X158301334Y-104141982D01*
X158292819Y-104119800D01*
X158288907Y-104106592D01*
X158283969Y-104083356D01*
X158279874Y-104077720D01*
X158268927Y-104057556D01*
X158266433Y-104051059D01*
X158266432Y-104051058D01*
X158266432Y-104051057D01*
X158249630Y-104034255D01*
X158240677Y-104023771D01*
X158226721Y-104004562D01*
X158226722Y-104004562D01*
X158220692Y-104001081D01*
X158202488Y-103987113D01*
X153648555Y-99433179D01*
X153623144Y-99378685D01*
X153623704Y-99358520D01*
X153638068Y-99258621D01*
X153638068Y-99258617D01*
X153618299Y-99121122D01*
X153618298Y-99121121D01*
X153618298Y-99121116D01*
X153560589Y-98994752D01*
X153475850Y-98896957D01*
X153469618Y-98889765D01*
X153469613Y-98889761D01*
X153352754Y-98814660D01*
X153352751Y-98814659D01*
X153326092Y-98806831D01*
X153219463Y-98775521D01*
X153219459Y-98775521D01*
X153080541Y-98775521D01*
X153080536Y-98775521D01*
X152947249Y-98814659D01*
X152947245Y-98814660D01*
X152830386Y-98889761D01*
X152830381Y-98889765D01*
X152739410Y-98994753D01*
X152681702Y-99121116D01*
X152681700Y-99121122D01*
X152661932Y-99258617D01*
X152661932Y-99258624D01*
X146777000Y-99258624D01*
X146777000Y-97411826D01*
X146797565Y-97355325D01*
X146849636Y-97325261D01*
X146908850Y-97335702D01*
X146927055Y-97349672D01*
X146984330Y-97406947D01*
X146985913Y-97408616D01*
X147013708Y-97439485D01*
X147013709Y-97439486D01*
X147035406Y-97449146D01*
X147047528Y-97455728D01*
X147067441Y-97468660D01*
X147067443Y-97468661D01*
X147074316Y-97469749D01*
X147096317Y-97476266D01*
X147102682Y-97479100D01*
X147126432Y-97479100D01*
X147140181Y-97480181D01*
X147163637Y-97483897D01*
X147170362Y-97482094D01*
X147193112Y-97479100D01*
X147419141Y-97479100D01*
X147475642Y-97499665D01*
X147485572Y-97509438D01*
X147566729Y-97603100D01*
X147580383Y-97618857D01*
X147580385Y-97618858D01*
X147580386Y-97618859D01*
X147697245Y-97693960D01*
X147697246Y-97693960D01*
X147697249Y-97693962D01*
X147788035Y-97720619D01*
X147830536Y-97733099D01*
X147830539Y-97733099D01*
X147830541Y-97733100D01*
X147830542Y-97733100D01*
X147969458Y-97733100D01*
X147969459Y-97733100D01*
X147969461Y-97733099D01*
X147969463Y-97733099D01*
X147985305Y-97728446D01*
X148102751Y-97693962D01*
X148219617Y-97618857D01*
X148310589Y-97513869D01*
X148368298Y-97387505D01*
X148372925Y-97355325D01*
X148388068Y-97250003D01*
X148388068Y-97249996D01*
X148368299Y-97112501D01*
X148368298Y-97112500D01*
X148368298Y-97112495D01*
X148310589Y-96986131D01*
X148229459Y-96892501D01*
X148219618Y-96881144D01*
X148219613Y-96881140D01*
X148102754Y-96806039D01*
X148102751Y-96806038D01*
X148076092Y-96798210D01*
X147969463Y-96766900D01*
X147969459Y-96766900D01*
X147830541Y-96766900D01*
X147830536Y-96766900D01*
X147697249Y-96806038D01*
X147697245Y-96806039D01*
X147580386Y-96881140D01*
X147580381Y-96881144D01*
X147535390Y-96933068D01*
X147490136Y-96985295D01*
X147485572Y-96990562D01*
X147433030Y-97019796D01*
X147419141Y-97020900D01*
X147282684Y-97020900D01*
X147226183Y-97000335D01*
X147220529Y-96995154D01*
X147114845Y-96889469D01*
X147089434Y-96834976D01*
X147089100Y-96827315D01*
X147089100Y-95669927D01*
X147109665Y-95613426D01*
X147114845Y-95607772D01*
X147909151Y-94813466D01*
X147963645Y-94788055D01*
X147971306Y-94787721D01*
X148992851Y-94787721D01*
X148995152Y-94787781D01*
X149002843Y-94788183D01*
X149036639Y-94789955D01*
X149058809Y-94781444D01*
X149072027Y-94777528D01*
X149095265Y-94772590D01*
X149100894Y-94768499D01*
X149121061Y-94757548D01*
X149127564Y-94755053D01*
X149144365Y-94738250D01*
X149154840Y-94729304D01*
X149174058Y-94715343D01*
X149177540Y-94709311D01*
X149191508Y-94691108D01*
X149240846Y-94641771D01*
X149295340Y-94616360D01*
X149353418Y-94631923D01*
X149387905Y-94681177D01*
X149390900Y-94703926D01*
X149390900Y-97692850D01*
X149390840Y-97695151D01*
X149388851Y-97733100D01*
X149388666Y-97736639D01*
X149397177Y-97758812D01*
X149401092Y-97772029D01*
X149406031Y-97795267D01*
X149410124Y-97800900D01*
X149421071Y-97821061D01*
X149423567Y-97827562D01*
X149423568Y-97827564D01*
X149440364Y-97844361D01*
X149449320Y-97854847D01*
X149463278Y-97874058D01*
X149469049Y-97877390D01*
X149469309Y-97877540D01*
X149487513Y-97891509D01*
X149561444Y-97965441D01*
X149586855Y-98019935D01*
X149586294Y-98040104D01*
X149571932Y-98139996D01*
X149571932Y-98140003D01*
X149591700Y-98277498D01*
X149591701Y-98277503D01*
X149591702Y-98277505D01*
X149649411Y-98403869D01*
X149740383Y-98508857D01*
X149740385Y-98508858D01*
X149740386Y-98508859D01*
X149857245Y-98583960D01*
X149857246Y-98583960D01*
X149857249Y-98583962D01*
X149948035Y-98610619D01*
X149990536Y-98623099D01*
X149990539Y-98623099D01*
X149990541Y-98623100D01*
X149990542Y-98623100D01*
X150129458Y-98623100D01*
X150129459Y-98623100D01*
X150129461Y-98623099D01*
X150129463Y-98623099D01*
X150145305Y-98618447D01*
X150262751Y-98583962D01*
X150379617Y-98508857D01*
X150470589Y-98403869D01*
X150528298Y-98277505D01*
X150534160Y-98236735D01*
X150548068Y-98140003D01*
X150548068Y-98139996D01*
X150528299Y-98002501D01*
X150528298Y-98002500D01*
X150528298Y-98002495D01*
X150470589Y-97876131D01*
X150389459Y-97782501D01*
X150379618Y-97771144D01*
X150379613Y-97771140D01*
X150262754Y-97696039D01*
X150262751Y-97696038D01*
X150236092Y-97688210D01*
X150129463Y-97656900D01*
X150129459Y-97656900D01*
X149990541Y-97656900D01*
X149990540Y-97656900D01*
X149971285Y-97662554D01*
X149911279Y-97658740D01*
X149884363Y-97640365D01*
X149874842Y-97630843D01*
X149849434Y-97576348D01*
X149849100Y-97568692D01*
X149849100Y-97281216D01*
X149869665Y-97224715D01*
X149921736Y-97194651D01*
X149980950Y-97205092D01*
X150016956Y-97244699D01*
X150039411Y-97293869D01*
X150087764Y-97349672D01*
X150120546Y-97387505D01*
X150130383Y-97398857D01*
X150130385Y-97398858D01*
X150130386Y-97398859D01*
X150247245Y-97473960D01*
X150247246Y-97473960D01*
X150247249Y-97473962D01*
X150334786Y-97499665D01*
X150380536Y-97513099D01*
X150380539Y-97513099D01*
X150380541Y-97513100D01*
X150380542Y-97513100D01*
X150519458Y-97513100D01*
X150519459Y-97513100D01*
X150519461Y-97513099D01*
X150519463Y-97513099D01*
X150535305Y-97508446D01*
X150652751Y-97473962D01*
X150769617Y-97398857D01*
X150860589Y-97293869D01*
X150918298Y-97167505D01*
X150926455Y-97110771D01*
X150938068Y-97030003D01*
X150938068Y-97029996D01*
X150918299Y-96892501D01*
X150918298Y-96892500D01*
X150918298Y-96892495D01*
X150860589Y-96766131D01*
X150791351Y-96686226D01*
X150769894Y-96630059D01*
X150789560Y-96573239D01*
X150841148Y-96542353D01*
X150882545Y-96544325D01*
X150941435Y-96561617D01*
X150980536Y-96573099D01*
X150980539Y-96573099D01*
X150980541Y-96573100D01*
X150980542Y-96573100D01*
X151119458Y-96573100D01*
X151119459Y-96573100D01*
X151119461Y-96573099D01*
X151119463Y-96573099D01*
X151135305Y-96568446D01*
X151252751Y-96533962D01*
X151369617Y-96458857D01*
X151460589Y-96353869D01*
X151460589Y-96353867D01*
X151464428Y-96349438D01*
X151516970Y-96320204D01*
X151530859Y-96319100D01*
X152750073Y-96319100D01*
X152806574Y-96339665D01*
X152812228Y-96344845D01*
X155364338Y-98896957D01*
X155365922Y-98898626D01*
X155393707Y-98929484D01*
X155393710Y-98929487D01*
X155415398Y-98939143D01*
X155427520Y-98945724D01*
X155447441Y-98958661D01*
X155447443Y-98958662D01*
X155454319Y-98959750D01*
X155476323Y-98966268D01*
X155482682Y-98969100D01*
X155506431Y-98969100D01*
X155520180Y-98970181D01*
X155543637Y-98973897D01*
X155550362Y-98972094D01*
X155573112Y-98969100D01*
X157609141Y-98969100D01*
X157665642Y-98989665D01*
X157675572Y-98999438D01*
X157679410Y-99003867D01*
X157679411Y-99003869D01*
X157770383Y-99108857D01*
X157770385Y-99108858D01*
X157770386Y-99108859D01*
X157887245Y-99183960D01*
X157887246Y-99183960D01*
X157887249Y-99183962D01*
X157978035Y-99210619D01*
X158020536Y-99223099D01*
X158020539Y-99223099D01*
X158020541Y-99223100D01*
X158020542Y-99223100D01*
X158159458Y-99223100D01*
X158159459Y-99223100D01*
X158159461Y-99223099D01*
X158159463Y-99223099D01*
X158175305Y-99218446D01*
X158292751Y-99183962D01*
X158409617Y-99108857D01*
X158500589Y-99003869D01*
X158558298Y-98877505D01*
X158578068Y-98740000D01*
X158578068Y-98739996D01*
X158558299Y-98602501D01*
X158558298Y-98602500D01*
X158558298Y-98602495D01*
X158500589Y-98476131D01*
X158409617Y-98371143D01*
X158409615Y-98371142D01*
X158409613Y-98371140D01*
X158292754Y-98296039D01*
X158292751Y-98296038D01*
X158266092Y-98288210D01*
X158159463Y-98256900D01*
X158159459Y-98256900D01*
X158020541Y-98256900D01*
X158020536Y-98256900D01*
X157887249Y-98296038D01*
X157887245Y-98296039D01*
X157770386Y-98371140D01*
X157770381Y-98371144D01*
X157675572Y-98480562D01*
X157623030Y-98509796D01*
X157609141Y-98510900D01*
X156633471Y-98510900D01*
X156576970Y-98490335D01*
X156546906Y-98438264D01*
X156557347Y-98379050D01*
X156585949Y-98349054D01*
X156624893Y-98324025D01*
X156679617Y-98288857D01*
X156770589Y-98183869D01*
X156828298Y-98057505D01*
X156848068Y-97920000D01*
X156848068Y-97919996D01*
X156828299Y-97782501D01*
X156828298Y-97782500D01*
X156828298Y-97782495D01*
X156770589Y-97656131D01*
X156679617Y-97551143D01*
X156679615Y-97551142D01*
X156679613Y-97551140D01*
X156562754Y-97476039D01*
X156562751Y-97476038D01*
X156536092Y-97468210D01*
X156429463Y-97436900D01*
X156429459Y-97436900D01*
X156290541Y-97436900D01*
X156290536Y-97436900D01*
X156157249Y-97476038D01*
X156157245Y-97476039D01*
X156040386Y-97551140D01*
X156040381Y-97551144D01*
X155945572Y-97660562D01*
X155893030Y-97689796D01*
X155879141Y-97690900D01*
X155463058Y-97690900D01*
X155406557Y-97670335D01*
X155400903Y-97665155D01*
X152854845Y-95119096D01*
X152829434Y-95064602D01*
X152829100Y-95056941D01*
X152829100Y-94515776D01*
X152829160Y-94513476D01*
X152829478Y-94507399D01*
X152831334Y-94471982D01*
X152822819Y-94449800D01*
X152818907Y-94436592D01*
X152813969Y-94413356D01*
X152809874Y-94407720D01*
X152798927Y-94387556D01*
X152796433Y-94381059D01*
X152796432Y-94381058D01*
X152796432Y-94381057D01*
X152779630Y-94364255D01*
X152770677Y-94353771D01*
X152765126Y-94346131D01*
X152756722Y-94334563D01*
X152750690Y-94331080D01*
X152732486Y-94317111D01*
X152668555Y-94253179D01*
X152643144Y-94198685D01*
X152643704Y-94178520D01*
X152658068Y-94078621D01*
X152658068Y-94078617D01*
X152638299Y-93941122D01*
X152638298Y-93941121D01*
X152638298Y-93941116D01*
X152580589Y-93814752D01*
X152489617Y-93709764D01*
X152489615Y-93709763D01*
X152489613Y-93709761D01*
X152372754Y-93634660D01*
X152372751Y-93634659D01*
X152323958Y-93620332D01*
X152239463Y-93595521D01*
X152239459Y-93595521D01*
X152228184Y-93595521D01*
X152171683Y-93574956D01*
X152141619Y-93522885D01*
X152152060Y-93463671D01*
X152166029Y-93445467D01*
X152271864Y-93339631D01*
X152326358Y-93314220D01*
X152358784Y-93317446D01*
X152378036Y-93323099D01*
X152378039Y-93323099D01*
X152378041Y-93323100D01*
X152378042Y-93323100D01*
X152516960Y-93323100D01*
X152516963Y-93323099D01*
X152536211Y-93317447D01*
X152596218Y-93321258D01*
X152623134Y-93339630D01*
X153009080Y-93725578D01*
X153010664Y-93727247D01*
X153038449Y-93758105D01*
X153038452Y-93758108D01*
X153060140Y-93767764D01*
X153072262Y-93774345D01*
X153092183Y-93787282D01*
X153092185Y-93787283D01*
X153099061Y-93788371D01*
X153121065Y-93794889D01*
X153127424Y-93797721D01*
X153151173Y-93797721D01*
X153164922Y-93798803D01*
X153169998Y-93799606D01*
X153188380Y-93802518D01*
X153195105Y-93800715D01*
X153217855Y-93797721D01*
X156302240Y-93797721D01*
X156358741Y-93818286D01*
X156382196Y-93849105D01*
X156429411Y-93952490D01*
X156520383Y-94057478D01*
X156520385Y-94057479D01*
X156520386Y-94057480D01*
X156637245Y-94132581D01*
X156637246Y-94132581D01*
X156637249Y-94132583D01*
X156728035Y-94159240D01*
X156770536Y-94171720D01*
X156770539Y-94171720D01*
X156770541Y-94171721D01*
X156770542Y-94171721D01*
X156909458Y-94171721D01*
X156909459Y-94171721D01*
X156909461Y-94171720D01*
X156909463Y-94171720D01*
X156928810Y-94166039D01*
X157042751Y-94132583D01*
X157159617Y-94057478D01*
X157250589Y-93952490D01*
X157308298Y-93826126D01*
X157313466Y-93790182D01*
X157328068Y-93688624D01*
X157328068Y-93688617D01*
X157308299Y-93551122D01*
X157308298Y-93551121D01*
X157308298Y-93551116D01*
X157250589Y-93424752D01*
X157159617Y-93319764D01*
X157159615Y-93319763D01*
X157159613Y-93319761D01*
X157042754Y-93244660D01*
X157042751Y-93244659D01*
X157016092Y-93236831D01*
X156909463Y-93205521D01*
X156909459Y-93205521D01*
X156770541Y-93205521D01*
X156770536Y-93205521D01*
X156637249Y-93244659D01*
X156637244Y-93244661D01*
X156590828Y-93274491D01*
X156532178Y-93287738D01*
X156478735Y-93260186D01*
X156455506Y-93204727D01*
X156463350Y-93164029D01*
X156468863Y-93151959D01*
X156498298Y-93087505D01*
X156502451Y-93058621D01*
X156518068Y-92950003D01*
X156518068Y-92949996D01*
X156498299Y-92812501D01*
X156498298Y-92812500D01*
X156498298Y-92812495D01*
X156440589Y-92686131D01*
X156354893Y-92587232D01*
X156349618Y-92581144D01*
X156349613Y-92581140D01*
X156232754Y-92506039D01*
X156232751Y-92506038D01*
X156206092Y-92498210D01*
X156099463Y-92466900D01*
X156099459Y-92466900D01*
X155960541Y-92466900D01*
X155960536Y-92466900D01*
X155827249Y-92506038D01*
X155827245Y-92506039D01*
X155710386Y-92581140D01*
X155710381Y-92581144D01*
X155615572Y-92690562D01*
X155563030Y-92719796D01*
X155549141Y-92720900D01*
X154205003Y-92720900D01*
X154148502Y-92700335D01*
X154118438Y-92648264D01*
X154118089Y-92626287D01*
X154118068Y-92626287D01*
X154118068Y-92624964D01*
X154117997Y-92620493D01*
X154118068Y-92619999D01*
X154118068Y-92619996D01*
X154098299Y-92482501D01*
X154098298Y-92482500D01*
X154098298Y-92482495D01*
X154040589Y-92356131D01*
X153949617Y-92251143D01*
X153949615Y-92251142D01*
X153949613Y-92251140D01*
X153832754Y-92176039D01*
X153832751Y-92176038D01*
X153806092Y-92168210D01*
X153699463Y-92136900D01*
X153699459Y-92136900D01*
X153686805Y-92136900D01*
X153630304Y-92116335D01*
X153600240Y-92064264D01*
X153610681Y-92005050D01*
X153624650Y-91986845D01*
X155124415Y-90487080D01*
X156666965Y-88944529D01*
X156668598Y-88942980D01*
X156699486Y-88915170D01*
X156709145Y-88893474D01*
X156715724Y-88881356D01*
X156728662Y-88861436D01*
X156729751Y-88854557D01*
X156736268Y-88832554D01*
X156739100Y-88826197D01*
X156739100Y-88802447D01*
X156740182Y-88788697D01*
X156740828Y-88784618D01*
X156743897Y-88765241D01*
X156743896Y-88765236D01*
X156742095Y-88758513D01*
X156739100Y-88735765D01*
X156739100Y-87509321D01*
X156759665Y-87452820D01*
X156801484Y-87425206D01*
X156805835Y-87423886D01*
X156895650Y-87396641D01*
X157069878Y-87303515D01*
X157222589Y-87178188D01*
X157347916Y-87025477D01*
X157441042Y-86851249D01*
X157498389Y-86662202D01*
X157517753Y-86465599D01*
X157498389Y-86268996D01*
X157441042Y-86079949D01*
X157347916Y-85905721D01*
X157222589Y-85753010D01*
X157222587Y-85753008D01*
X157219849Y-85749672D01*
X157221694Y-85748157D01*
X157199743Y-85701082D01*
X157215306Y-85643004D01*
X157264559Y-85608516D01*
X157287309Y-85605521D01*
X158717331Y-85605521D01*
X158773832Y-85626086D01*
X158779486Y-85631266D01*
X164287355Y-91139135D01*
X164312766Y-91193629D01*
X164313100Y-91201290D01*
X164313100Y-96663667D01*
X164292535Y-96720168D01*
X164287355Y-96725822D01*
X162776441Y-98236735D01*
X162721947Y-98262146D01*
X162663869Y-98246583D01*
X162652131Y-98236735D01*
X160807059Y-96391662D01*
X160805490Y-96390010D01*
X160777690Y-96359135D01*
X160760766Y-96351599D01*
X160717516Y-96309831D01*
X160711232Y-96250033D01*
X160744856Y-96200186D01*
X160796521Y-96183400D01*
X161811721Y-96183400D01*
X161815535Y-96183566D01*
X161851275Y-96186693D01*
X161859010Y-96187370D01*
X161859010Y-96187369D01*
X161859012Y-96187370D01*
X161901170Y-96176072D01*
X161904892Y-96175247D01*
X161947882Y-96167668D01*
X161951141Y-96165785D01*
X161972345Y-96157002D01*
X161975987Y-96156027D01*
X161975987Y-96156026D01*
X161980884Y-96154715D01*
X162003630Y-96151721D01*
X162069458Y-96151721D01*
X162069459Y-96151721D01*
X162069461Y-96151720D01*
X162069463Y-96151720D01*
X162100260Y-96142677D01*
X162202751Y-96112583D01*
X162319617Y-96037478D01*
X162410589Y-95932490D01*
X162468298Y-95806126D01*
X162472417Y-95777476D01*
X162488068Y-95668624D01*
X162488068Y-95668619D01*
X162482736Y-95631536D01*
X162495050Y-95572683D01*
X162507582Y-95556875D01*
X162702996Y-95361461D01*
X162713233Y-95354105D01*
X162712598Y-95353264D01*
X162719101Y-95348353D01*
X162728997Y-95337497D01*
X162749346Y-95315174D01*
X162750671Y-95313787D01*
X162763761Y-95300698D01*
X162765713Y-95297846D01*
X162769486Y-95293081D01*
X162789601Y-95271019D01*
X162793089Y-95262012D01*
X162802536Y-95244092D01*
X162807989Y-95236134D01*
X162814823Y-95207074D01*
X162816619Y-95201274D01*
X162827403Y-95173440D01*
X162827403Y-95163780D01*
X162829738Y-95143655D01*
X162831946Y-95134269D01*
X162827824Y-95104723D01*
X162827403Y-95098646D01*
X162827403Y-93389869D01*
X162847968Y-93333368D01*
X162862472Y-93320596D01*
X162862363Y-93320470D01*
X162867117Y-93316349D01*
X162867117Y-93316348D01*
X162867120Y-93316347D01*
X162958092Y-93211359D01*
X163015801Y-93084995D01*
X163019594Y-93058617D01*
X163035571Y-92947493D01*
X163035571Y-92947486D01*
X163015802Y-92809991D01*
X163015801Y-92809990D01*
X163015801Y-92809985D01*
X162958092Y-92683621D01*
X162867120Y-92578633D01*
X162867119Y-92578632D01*
X162867118Y-92578631D01*
X162862368Y-92574515D01*
X162863409Y-92573313D01*
X162831367Y-92531209D01*
X162827403Y-92505111D01*
X162827403Y-91037499D01*
X162829434Y-91025059D01*
X162828394Y-91024914D01*
X162829518Y-91016848D01*
X162829520Y-91016843D01*
X162827447Y-90972015D01*
X162827403Y-90970073D01*
X162827403Y-90951568D01*
X162826767Y-90948172D01*
X162826065Y-90942124D01*
X162824688Y-90912310D01*
X162820791Y-90903484D01*
X162814796Y-90884127D01*
X162813023Y-90874640D01*
X162797312Y-90849267D01*
X162794472Y-90843879D01*
X162789916Y-90833560D01*
X162782419Y-90816581D01*
X162782418Y-90816580D01*
X162782418Y-90816579D01*
X162775590Y-90809751D01*
X162763015Y-90793875D01*
X162757936Y-90785673D01*
X162757932Y-90785668D01*
X162734127Y-90767691D01*
X162729530Y-90763691D01*
X160947586Y-88981748D01*
X160922175Y-88927254D01*
X160922736Y-88907082D01*
X160923440Y-88902191D01*
X160928068Y-88870000D01*
X160928068Y-88869996D01*
X160908299Y-88732501D01*
X160908298Y-88732500D01*
X160908298Y-88732495D01*
X160850589Y-88606131D01*
X160759617Y-88501143D01*
X160759615Y-88501142D01*
X160759613Y-88501140D01*
X160642754Y-88426039D01*
X160642751Y-88426038D01*
X160602016Y-88414077D01*
X160509463Y-88386900D01*
X160509459Y-88386900D01*
X160370541Y-88386900D01*
X160370536Y-88386900D01*
X160237249Y-88426038D01*
X160237245Y-88426039D01*
X160120386Y-88501140D01*
X160120381Y-88501144D01*
X160029410Y-88606132D01*
X159971702Y-88732495D01*
X159971700Y-88732501D01*
X159951932Y-88869996D01*
X159951932Y-88870003D01*
X159971700Y-89007498D01*
X159971701Y-89007503D01*
X159971702Y-89007505D01*
X160029411Y-89133869D01*
X160096091Y-89210822D01*
X160118016Y-89236126D01*
X160120383Y-89238857D01*
X160120385Y-89238858D01*
X160120386Y-89238859D01*
X160237245Y-89313960D01*
X160237246Y-89313960D01*
X160237249Y-89313962D01*
X160324118Y-89339469D01*
X160370536Y-89353099D01*
X160370539Y-89353099D01*
X160370541Y-89353100D01*
X160370542Y-89353100D01*
X160490851Y-89353100D01*
X160547352Y-89373665D01*
X160553006Y-89378845D01*
X162241858Y-91067696D01*
X162267269Y-91122190D01*
X162267603Y-91129851D01*
X162267603Y-92505111D01*
X162247038Y-92561612D01*
X162232528Y-92574388D01*
X162232638Y-92574515D01*
X162227887Y-92578631D01*
X162136913Y-92683622D01*
X162079205Y-92809985D01*
X162079203Y-92809991D01*
X162059435Y-92947486D01*
X162059435Y-92947493D01*
X162079203Y-93084988D01*
X162079204Y-93084993D01*
X162079205Y-93084995D01*
X162096689Y-93123279D01*
X162136914Y-93211360D01*
X162227888Y-93316349D01*
X162232643Y-93320470D01*
X162231600Y-93321672D01*
X162263638Y-93363767D01*
X162267603Y-93389869D01*
X162267603Y-94968769D01*
X162247038Y-95025270D01*
X162241858Y-95030924D01*
X162113006Y-95159776D01*
X162058512Y-95185187D01*
X162050851Y-95185521D01*
X161930536Y-95185521D01*
X161797249Y-95224659D01*
X161797245Y-95224660D01*
X161680386Y-95299761D01*
X161680381Y-95299765D01*
X161589409Y-95404754D01*
X161570931Y-95445216D01*
X161528753Y-95488068D01*
X161490975Y-95496600D01*
X156546781Y-95496600D01*
X156490280Y-95476035D01*
X156489220Y-95475132D01*
X156484618Y-95471144D01*
X156484617Y-95471143D01*
X156484614Y-95471141D01*
X156484613Y-95471140D01*
X156367754Y-95396039D01*
X156367751Y-95396038D01*
X156341092Y-95388210D01*
X156234463Y-95356900D01*
X156234459Y-95356900D01*
X156095541Y-95356900D01*
X156095536Y-95356900D01*
X155962249Y-95396038D01*
X155962245Y-95396039D01*
X155845386Y-95471140D01*
X155845381Y-95471144D01*
X155754408Y-95576134D01*
X155716956Y-95658143D01*
X155674779Y-95700995D01*
X155614924Y-95706711D01*
X155565398Y-95672615D01*
X155549100Y-95621628D01*
X155549100Y-95235768D01*
X155549160Y-95233467D01*
X155549621Y-95224659D01*
X155551334Y-95191981D01*
X155542823Y-95169808D01*
X155538906Y-95156584D01*
X155533969Y-95133357D01*
X155533967Y-95133353D01*
X155529875Y-95127721D01*
X155518927Y-95107556D01*
X155516433Y-95101059D01*
X155516432Y-95101058D01*
X155516432Y-95101057D01*
X155499630Y-95084255D01*
X155490677Y-95073771D01*
X155484015Y-95064602D01*
X155476722Y-95054563D01*
X155476721Y-95054562D01*
X155476722Y-95054562D01*
X155470692Y-95051081D01*
X155452488Y-95037113D01*
X154868418Y-94453041D01*
X154866849Y-94451389D01*
X154839049Y-94420514D01*
X154839048Y-94420513D01*
X154817351Y-94410852D01*
X154805237Y-94404275D01*
X154792401Y-94395940D01*
X154785315Y-94391339D01*
X154785312Y-94391338D01*
X154785311Y-94391338D01*
X154778437Y-94390249D01*
X154756443Y-94383734D01*
X154750078Y-94380900D01*
X154750076Y-94380900D01*
X154726326Y-94380900D01*
X154712576Y-94379818D01*
X154700498Y-94377905D01*
X154689122Y-94376103D01*
X154689119Y-94376103D01*
X154682396Y-94377905D01*
X154659646Y-94380900D01*
X154380859Y-94380900D01*
X154324358Y-94360335D01*
X154314428Y-94350562D01*
X154306041Y-94340883D01*
X154222686Y-94244685D01*
X154219618Y-94241144D01*
X154219613Y-94241140D01*
X154102754Y-94166039D01*
X154102751Y-94166038D01*
X154076092Y-94158210D01*
X153969463Y-94126900D01*
X153969459Y-94126900D01*
X153830541Y-94126900D01*
X153830536Y-94126900D01*
X153697249Y-94166038D01*
X153697245Y-94166039D01*
X153580386Y-94241140D01*
X153580381Y-94241144D01*
X153489410Y-94346132D01*
X153431702Y-94472495D01*
X153431700Y-94472501D01*
X153411932Y-94609996D01*
X153411932Y-94610003D01*
X153431700Y-94747498D01*
X153431701Y-94747503D01*
X153431702Y-94747505D01*
X153489411Y-94873869D01*
X153540125Y-94932396D01*
X153579242Y-94977541D01*
X153580383Y-94978857D01*
X153580385Y-94978858D01*
X153580386Y-94978859D01*
X153697245Y-95053960D01*
X153697246Y-95053960D01*
X153697249Y-95053962D01*
X153783784Y-95079371D01*
X153830536Y-95093099D01*
X153830539Y-95093099D01*
X153830541Y-95093100D01*
X153830542Y-95093100D01*
X153969458Y-95093100D01*
X153969459Y-95093100D01*
X153969461Y-95093099D01*
X153969463Y-95093099D01*
X153985305Y-95088446D01*
X154102751Y-95053962D01*
X154219617Y-94978857D01*
X154310589Y-94873869D01*
X154310589Y-94873867D01*
X154314428Y-94869438D01*
X154366970Y-94840204D01*
X154380859Y-94839100D01*
X154570073Y-94839100D01*
X154626574Y-94859665D01*
X154632228Y-94864845D01*
X155065155Y-95297772D01*
X155090566Y-95352266D01*
X155090900Y-95359927D01*
X155090900Y-95961471D01*
X155090840Y-95963772D01*
X155089538Y-95988617D01*
X155088666Y-96005260D01*
X155097177Y-96027433D01*
X155101092Y-96040650D01*
X155106031Y-96063888D01*
X155110124Y-96069521D01*
X155121071Y-96089682D01*
X155123567Y-96096183D01*
X155123568Y-96096185D01*
X155140364Y-96112982D01*
X155149320Y-96123468D01*
X155163276Y-96142677D01*
X155163278Y-96142679D01*
X155169308Y-96146160D01*
X155187510Y-96160127D01*
X155732959Y-96705578D01*
X155734543Y-96707247D01*
X155762328Y-96738105D01*
X155762331Y-96738108D01*
X155784019Y-96747764D01*
X155796141Y-96754345D01*
X155815474Y-96766900D01*
X155816064Y-96767283D01*
X155822940Y-96768371D01*
X155844944Y-96774889D01*
X155851303Y-96777721D01*
X155875052Y-96777721D01*
X155888801Y-96778802D01*
X155912258Y-96782518D01*
X155918983Y-96780715D01*
X155941733Y-96777721D01*
X160508714Y-96777721D01*
X160565215Y-96798286D01*
X160570868Y-96803465D01*
X162407365Y-98639963D01*
X162432776Y-98694456D01*
X162433110Y-98702117D01*
X162433110Y-102127088D01*
X162414946Y-102180597D01*
X162329277Y-102292245D01*
X162329276Y-102292247D01*
X162270360Y-102434482D01*
X162250265Y-102587119D01*
X162250265Y-102587120D01*
X162270360Y-102739757D01*
X162329275Y-102881992D01*
X162329276Y-102881993D01*
X162422997Y-103004133D01*
X162545137Y-103097854D01*
X162687373Y-103156770D01*
X162840010Y-103176865D01*
X162992647Y-103156770D01*
X163134883Y-103097854D01*
X163257023Y-103004133D01*
X163350744Y-102881993D01*
X163409660Y-102739757D01*
X163429755Y-102587120D01*
X163409660Y-102434483D01*
X163350744Y-102292248D01*
X163350742Y-102292245D01*
X163265074Y-102180597D01*
X163246910Y-102127088D01*
X163246910Y-98953564D01*
X163267475Y-98897063D01*
X163272655Y-98891409D01*
X164123960Y-98040104D01*
X165030366Y-97133699D01*
X165030367Y-97133697D01*
X165035376Y-97128688D01*
X165035383Y-97128680D01*
X165044061Y-97120003D01*
X165053292Y-97110772D01*
X165064870Y-97088049D01*
X165072077Y-97076287D01*
X165074206Y-97073357D01*
X165087069Y-97055653D01*
X165094949Y-97031398D01*
X165100228Y-97018654D01*
X165111809Y-96995927D01*
X165115800Y-96970717D01*
X165119014Y-96957330D01*
X165126899Y-96933068D01*
X165126899Y-96902461D01*
X165126900Y-96902436D01*
X165126900Y-90931891D01*
X165120758Y-90912989D01*
X165119018Y-90907634D01*
X165115799Y-90894223D01*
X165111809Y-90869031D01*
X165111809Y-90869030D01*
X165100230Y-90846306D01*
X165094950Y-90833560D01*
X165087070Y-90809306D01*
X165082157Y-90802544D01*
X165072071Y-90788662D01*
X165064868Y-90776907D01*
X165063723Y-90774659D01*
X165053292Y-90754187D01*
X165053291Y-90754186D01*
X165053291Y-90754185D01*
X164962151Y-90663045D01*
X164962151Y-90663046D01*
X164011410Y-89712305D01*
X166749884Y-89712305D01*
X166769115Y-89944401D01*
X166769116Y-89944407D01*
X166826286Y-90170165D01*
X166826289Y-90170173D01*
X166897987Y-90333626D01*
X166919840Y-90383446D01*
X166919844Y-90383452D01*
X167047215Y-90578410D01*
X167047216Y-90578412D01*
X167201050Y-90745521D01*
X167204954Y-90749761D01*
X167388740Y-90892807D01*
X167593563Y-91003652D01*
X167813837Y-91079272D01*
X167813839Y-91079272D01*
X167813841Y-91079273D01*
X168043550Y-91117605D01*
X168043554Y-91117605D01*
X168276450Y-91117605D01*
X168506158Y-91079273D01*
X168506158Y-91079272D01*
X168506163Y-91079272D01*
X168726437Y-91003652D01*
X168931260Y-90892807D01*
X169115046Y-90749761D01*
X169272780Y-90578416D01*
X169400160Y-90383446D01*
X169493712Y-90170169D01*
X169523862Y-90051110D01*
X169550883Y-89944407D01*
X169550884Y-89944401D01*
X169559214Y-89843869D01*
X169570116Y-89712305D01*
X169550884Y-89480208D01*
X169550883Y-89480202D01*
X169493713Y-89254444D01*
X169493710Y-89254436D01*
X169441776Y-89136039D01*
X169400160Y-89041164D01*
X169335307Y-88941899D01*
X169272784Y-88846199D01*
X169272783Y-88846197D01*
X169115050Y-88674853D01*
X169115048Y-88674852D01*
X169115046Y-88674849D01*
X168931260Y-88531803D01*
X168726437Y-88420958D01*
X168726433Y-88420956D01*
X168726430Y-88420955D01*
X168506167Y-88345339D01*
X168506158Y-88345336D01*
X168276450Y-88307005D01*
X168276446Y-88307005D01*
X168043554Y-88307005D01*
X168043550Y-88307005D01*
X167813841Y-88345336D01*
X167813832Y-88345339D01*
X167593569Y-88420955D01*
X167593564Y-88420957D01*
X167593563Y-88420958D01*
X167388740Y-88531803D01*
X167379779Y-88538778D01*
X167204949Y-88674853D01*
X167047216Y-88846197D01*
X167047215Y-88846199D01*
X166919844Y-89041157D01*
X166919835Y-89041174D01*
X166826289Y-89254436D01*
X166826286Y-89254444D01*
X166769116Y-89480202D01*
X166769115Y-89480208D01*
X166749884Y-89712305D01*
X164011410Y-89712305D01*
X159456219Y-85157113D01*
X159199723Y-84900617D01*
X159199721Y-84900613D01*
X159164436Y-84865330D01*
X159164433Y-84865327D01*
X159141714Y-84853752D01*
X159129952Y-84846544D01*
X159109320Y-84831553D01*
X159109311Y-84831548D01*
X159085054Y-84823667D01*
X159072311Y-84818389D01*
X159049588Y-84806811D01*
X159049591Y-84806811D01*
X159024398Y-84802821D01*
X159010991Y-84799603D01*
X158986730Y-84791721D01*
X158954308Y-84791721D01*
X157281172Y-84791721D01*
X157224671Y-84771156D01*
X157194607Y-84719085D01*
X157205048Y-84659871D01*
X157220250Y-84641956D01*
X157219535Y-84641241D01*
X157222577Y-84638197D01*
X157222589Y-84638188D01*
X157347916Y-84485477D01*
X157441042Y-84311249D01*
X157498389Y-84122202D01*
X157517753Y-83925599D01*
X157498389Y-83728996D01*
X157441042Y-83539949D01*
X157347916Y-83365721D01*
X157222589Y-83213010D01*
X157069878Y-83087683D01*
X156895650Y-82994557D01*
X156895649Y-82994556D01*
X156895648Y-82994556D01*
X156706609Y-82937211D01*
X156706604Y-82937210D01*
X156706603Y-82937210D01*
X156510000Y-82917846D01*
X156313397Y-82937210D01*
X156313395Y-82937210D01*
X156313390Y-82937211D01*
X156124351Y-82994556D01*
X155950121Y-83087683D01*
X155797413Y-83213008D01*
X155797409Y-83213012D01*
X155672084Y-83365720D01*
X155578957Y-83539950D01*
X155521612Y-83728989D01*
X155502247Y-83925599D01*
X155521612Y-84122208D01*
X155578898Y-84311051D01*
X155578958Y-84311249D01*
X155672084Y-84485477D01*
X155797411Y-84638188D01*
X155797416Y-84638192D01*
X155800465Y-84641241D01*
X155798769Y-84642936D01*
X155825219Y-84687603D01*
X155815432Y-84746928D01*
X155769801Y-84786083D01*
X155738828Y-84791721D01*
X154740382Y-84791721D01*
X154683881Y-84771156D01*
X154653817Y-84719085D01*
X154664258Y-84659871D01*
X154679822Y-84641528D01*
X154679179Y-84640885D01*
X154682240Y-84637823D01*
X154807495Y-84485200D01*
X154900580Y-84311051D01*
X154957894Y-84122110D01*
X154964741Y-84052599D01*
X154453818Y-84052599D01*
X154470000Y-83997488D01*
X154470000Y-83853710D01*
X154453818Y-83798599D01*
X154964741Y-83798599D01*
X154957894Y-83729087D01*
X154900580Y-83540146D01*
X154807495Y-83365997D01*
X154682240Y-83213374D01*
X154682224Y-83213358D01*
X154529601Y-83088103D01*
X154529602Y-83088103D01*
X154355452Y-82995018D01*
X154166511Y-82937704D01*
X154166512Y-82937704D01*
X154097000Y-82930857D01*
X154097000Y-83438717D01*
X154005763Y-83425599D01*
X153934237Y-83425599D01*
X153843000Y-83438717D01*
X153843000Y-82930857D01*
X153773488Y-82937704D01*
X153584547Y-82995018D01*
X153410398Y-83088103D01*
X153257775Y-83213358D01*
X153257759Y-83213374D01*
X153132504Y-83365997D01*
X153039419Y-83540146D01*
X152982105Y-83729087D01*
X152975259Y-83798599D01*
X153486182Y-83798599D01*
X153470000Y-83853710D01*
X153470000Y-83997488D01*
X153486182Y-84052599D01*
X152975259Y-84052599D01*
X152982105Y-84122110D01*
X153039419Y-84311051D01*
X153132504Y-84485200D01*
X153257759Y-84637823D01*
X153260821Y-84640885D01*
X153259264Y-84642441D01*
X153286008Y-84687598D01*
X153276224Y-84746924D01*
X153230596Y-84786082D01*
X153199618Y-84791721D01*
X152200382Y-84791721D01*
X152143881Y-84771156D01*
X152113817Y-84719085D01*
X152124258Y-84659871D01*
X152139822Y-84641528D01*
X152139179Y-84640885D01*
X152142240Y-84637823D01*
X152267495Y-84485200D01*
X152360580Y-84311051D01*
X152417894Y-84122110D01*
X152424741Y-84052599D01*
X151913818Y-84052599D01*
X151930000Y-83997488D01*
X151930000Y-83853710D01*
X151913818Y-83798599D01*
X152424741Y-83798599D01*
X152417894Y-83729087D01*
X152360580Y-83540146D01*
X152267495Y-83365997D01*
X152142240Y-83213374D01*
X152142224Y-83213358D01*
X151989601Y-83088103D01*
X151989602Y-83088103D01*
X151815452Y-82995018D01*
X151626511Y-82937704D01*
X151626512Y-82937704D01*
X151557000Y-82930857D01*
X151557000Y-83438717D01*
X151465763Y-83425599D01*
X151394237Y-83425599D01*
X151303000Y-83438717D01*
X151303000Y-82930857D01*
X151233488Y-82937704D01*
X151044547Y-82995018D01*
X150870398Y-83088103D01*
X150717775Y-83213358D01*
X150717759Y-83213374D01*
X150592504Y-83365997D01*
X150499419Y-83540146D01*
X150442105Y-83729087D01*
X150435259Y-83798599D01*
X150946182Y-83798599D01*
X150930000Y-83853710D01*
X150930000Y-83997488D01*
X150946182Y-84052599D01*
X150435259Y-84052599D01*
X150442105Y-84122110D01*
X150499419Y-84311051D01*
X150592504Y-84485200D01*
X150717759Y-84637823D01*
X150720821Y-84640885D01*
X150719264Y-84642441D01*
X150746008Y-84687598D01*
X150736224Y-84746924D01*
X150690596Y-84786082D01*
X150659618Y-84791721D01*
X150359953Y-84791721D01*
X150303452Y-84771156D01*
X150297798Y-84765976D01*
X149863423Y-84331601D01*
X149838012Y-84277107D01*
X149841463Y-84243929D01*
X149874372Y-84135443D01*
X149878389Y-84122202D01*
X149897753Y-83925599D01*
X149878389Y-83728996D01*
X149821042Y-83539949D01*
X149727916Y-83365721D01*
X149602589Y-83213010D01*
X149449878Y-83087683D01*
X149275650Y-82994557D01*
X149275649Y-82994556D01*
X149275648Y-82994556D01*
X149086609Y-82937211D01*
X149086604Y-82937210D01*
X149086603Y-82937210D01*
X148890000Y-82917846D01*
X148693397Y-82937210D01*
X148693395Y-82937210D01*
X148693390Y-82937211D01*
X148504351Y-82994556D01*
X148330121Y-83087683D01*
X148177413Y-83213008D01*
X148177409Y-83213012D01*
X148052084Y-83365720D01*
X147958957Y-83539950D01*
X147901612Y-83728989D01*
X147882247Y-83925599D01*
X147901612Y-84122208D01*
X147958898Y-84311051D01*
X147958958Y-84311249D01*
X148052084Y-84485477D01*
X148177411Y-84638188D01*
X148330122Y-84763515D01*
X148504350Y-84856641D01*
X148693397Y-84913988D01*
X148890000Y-84933352D01*
X149086603Y-84913988D01*
X149196020Y-84880796D01*
X149256058Y-84884073D01*
X149283692Y-84902756D01*
X149821708Y-85440772D01*
X149821707Y-85440772D01*
X149868997Y-85488061D01*
X149912849Y-85531913D01*
X149929649Y-85540473D01*
X149935572Y-85543491D01*
X149947332Y-85550698D01*
X149967966Y-85565690D01*
X149967967Y-85565690D01*
X149967968Y-85565691D01*
X149992230Y-85573574D01*
X150004970Y-85578852D01*
X150027689Y-85590428D01*
X150027691Y-85590428D01*
X150027694Y-85590430D01*
X150052884Y-85594418D01*
X150066286Y-85597635D01*
X150090553Y-85605521D01*
X150122976Y-85605521D01*
X150652691Y-85605521D01*
X150709192Y-85626086D01*
X150739256Y-85678157D01*
X150728815Y-85737371D01*
X150719675Y-85749281D01*
X150720151Y-85749672D01*
X150717412Y-85753008D01*
X150717411Y-85753010D01*
X150667813Y-85813444D01*
X150592084Y-85905720D01*
X150498957Y-86079950D01*
X150441612Y-86268989D01*
X150422247Y-86465599D01*
X150441612Y-86662208D01*
X150498957Y-86851247D01*
X150498958Y-86851249D01*
X150592084Y-87025477D01*
X150717411Y-87178188D01*
X150870122Y-87303515D01*
X151044350Y-87396641D01*
X151134165Y-87423886D01*
X151138516Y-87425206D01*
X151186614Y-87461286D01*
X151200900Y-87509321D01*
X151200900Y-89277314D01*
X151180335Y-89333815D01*
X151175155Y-89339469D01*
X147710848Y-92803776D01*
X147656354Y-92829187D01*
X147648693Y-92829521D01*
X146590859Y-92829521D01*
X146534358Y-92808956D01*
X146524428Y-92799183D01*
X146517443Y-92791122D01*
X146438777Y-92700335D01*
X146429618Y-92689765D01*
X146429617Y-92689764D01*
X146399578Y-92670459D01*
X146363165Y-92622614D01*
X146366026Y-92562555D01*
X146406822Y-92518386D01*
X146438480Y-92509038D01*
X146546603Y-92498389D01*
X146735650Y-92441042D01*
X146909878Y-92347916D01*
X147062589Y-92222589D01*
X147187916Y-92069878D01*
X147281042Y-91895650D01*
X147338389Y-91706603D01*
X147357753Y-91510000D01*
X147346783Y-91398624D01*
X147681932Y-91398624D01*
X147701700Y-91536119D01*
X147701701Y-91536124D01*
X147701702Y-91536126D01*
X147759411Y-91662490D01*
X147850383Y-91767478D01*
X147850385Y-91767479D01*
X147850386Y-91767480D01*
X147967245Y-91842581D01*
X147967246Y-91842581D01*
X147967249Y-91842583D01*
X148058035Y-91869240D01*
X148100536Y-91881720D01*
X148100539Y-91881720D01*
X148100541Y-91881721D01*
X148100542Y-91881721D01*
X148239458Y-91881721D01*
X148239459Y-91881721D01*
X148239461Y-91881720D01*
X148239463Y-91881720D01*
X148255305Y-91877068D01*
X148372751Y-91842583D01*
X148489617Y-91767478D01*
X148580589Y-91662490D01*
X148638298Y-91536126D01*
X148658068Y-91398621D01*
X148658068Y-91398617D01*
X148643706Y-91298724D01*
X148656020Y-91239871D01*
X148668552Y-91224064D01*
X149046975Y-90845641D01*
X149048608Y-90844092D01*
X149079486Y-90816291D01*
X149089145Y-90794594D01*
X149095721Y-90782482D01*
X149108662Y-90762557D01*
X149109751Y-90755678D01*
X149116268Y-90733675D01*
X149119100Y-90727318D01*
X149119100Y-90703568D01*
X149120182Y-90689818D01*
X149123897Y-90666362D01*
X149123896Y-90666357D01*
X149122095Y-90659634D01*
X149119100Y-90636886D01*
X149119100Y-87509321D01*
X149139665Y-87452820D01*
X149181484Y-87425206D01*
X149185835Y-87423886D01*
X149275650Y-87396641D01*
X149449878Y-87303515D01*
X149602589Y-87178188D01*
X149727916Y-87025477D01*
X149821042Y-86851249D01*
X149878389Y-86662202D01*
X149897753Y-86465599D01*
X149878389Y-86268996D01*
X149821042Y-86079949D01*
X149727916Y-85905721D01*
X149602589Y-85753010D01*
X149449878Y-85627683D01*
X149275650Y-85534557D01*
X149275649Y-85534556D01*
X149275648Y-85534556D01*
X149086609Y-85477211D01*
X149086604Y-85477210D01*
X149086603Y-85477210D01*
X148890000Y-85457846D01*
X148889999Y-85457846D01*
X148842657Y-85462508D01*
X148693397Y-85477210D01*
X148693395Y-85477210D01*
X148693390Y-85477211D01*
X148504351Y-85534556D01*
X148330121Y-85627683D01*
X148177413Y-85753008D01*
X148177409Y-85753012D01*
X148052084Y-85905720D01*
X147958957Y-86079950D01*
X147901612Y-86268989D01*
X147882247Y-86465598D01*
X147901612Y-86662208D01*
X147958957Y-86851247D01*
X147958958Y-86851249D01*
X148052084Y-87025477D01*
X148177411Y-87178188D01*
X148330122Y-87303515D01*
X148504350Y-87396641D01*
X148594165Y-87423886D01*
X148598516Y-87425206D01*
X148646614Y-87461286D01*
X148660900Y-87509321D01*
X148660900Y-90547314D01*
X148640335Y-90603815D01*
X148635155Y-90609469D01*
X148345633Y-90898990D01*
X148291139Y-90924401D01*
X148258714Y-90921174D01*
X148239465Y-90915522D01*
X148239459Y-90915521D01*
X148100541Y-90915521D01*
X148100536Y-90915521D01*
X147967249Y-90954659D01*
X147967245Y-90954660D01*
X147850386Y-91029761D01*
X147850381Y-91029765D01*
X147759410Y-91134753D01*
X147701702Y-91261116D01*
X147701700Y-91261122D01*
X147681932Y-91398617D01*
X147681932Y-91398624D01*
X147346783Y-91398624D01*
X147338389Y-91313397D01*
X147332820Y-91295040D01*
X147308855Y-91216038D01*
X147281042Y-91124350D01*
X147187916Y-90950122D01*
X147062589Y-90797411D01*
X146909878Y-90672084D01*
X146735650Y-90578958D01*
X146735649Y-90578957D01*
X146735648Y-90578957D01*
X146546609Y-90521612D01*
X146546604Y-90521611D01*
X146546603Y-90521611D01*
X146350000Y-90502247D01*
X146153397Y-90521611D01*
X146153395Y-90521611D01*
X146153390Y-90521612D01*
X145964351Y-90578957D01*
X145790121Y-90672084D01*
X145637413Y-90797409D01*
X145637409Y-90797413D01*
X145512084Y-90950121D01*
X145484521Y-91001689D01*
X145439750Y-91041824D01*
X145379655Y-91043791D01*
X145332355Y-91006670D01*
X145319100Y-90960253D01*
X145319100Y-87015345D01*
X145339665Y-86958844D01*
X145391736Y-86928780D01*
X145450950Y-86939221D01*
X145484520Y-86973908D01*
X145512084Y-87025477D01*
X145637411Y-87178188D01*
X145790122Y-87303515D01*
X145964350Y-87396641D01*
X146098715Y-87437400D01*
X146149546Y-87452820D01*
X146153397Y-87453988D01*
X146350000Y-87473352D01*
X146546603Y-87453988D01*
X146735650Y-87396641D01*
X146909878Y-87303515D01*
X147062589Y-87178188D01*
X147187916Y-87025477D01*
X147281042Y-86851249D01*
X147338389Y-86662202D01*
X147357753Y-86465599D01*
X147338389Y-86268996D01*
X147281042Y-86079949D01*
X147187916Y-85905721D01*
X147062589Y-85753010D01*
X146909878Y-85627683D01*
X146735650Y-85534557D01*
X146735649Y-85534556D01*
X146735648Y-85534556D01*
X146546609Y-85477211D01*
X146546604Y-85477210D01*
X146546603Y-85477210D01*
X146350000Y-85457846D01*
X146153397Y-85477210D01*
X146153395Y-85477210D01*
X146153390Y-85477211D01*
X145964351Y-85534556D01*
X145790121Y-85627683D01*
X145637413Y-85753008D01*
X145637409Y-85753012D01*
X145512084Y-85905720D01*
X145484521Y-85957288D01*
X145439750Y-85997423D01*
X145379655Y-85999390D01*
X145332355Y-85962269D01*
X145319100Y-85915852D01*
X145319100Y-85236904D01*
X145339665Y-85180403D01*
X145344834Y-85174760D01*
X145721842Y-84797752D01*
X145776334Y-84772342D01*
X145825428Y-84782386D01*
X145964350Y-84856641D01*
X146153397Y-84913988D01*
X146350000Y-84933352D01*
X146546603Y-84913988D01*
X146735650Y-84856641D01*
X146909878Y-84763515D01*
X147062589Y-84638188D01*
X147187916Y-84485477D01*
X147281042Y-84311249D01*
X147338389Y-84122202D01*
X147357753Y-83925599D01*
X147338389Y-83728996D01*
X147281042Y-83539949D01*
X147187916Y-83365721D01*
X147062589Y-83213010D01*
X146909878Y-83087683D01*
X146735650Y-82994557D01*
X146735649Y-82994556D01*
X146735648Y-82994556D01*
X146546609Y-82937211D01*
X146546604Y-82937210D01*
X146546603Y-82937210D01*
X146350000Y-82917846D01*
X146153397Y-82937210D01*
X146153395Y-82937210D01*
X146153390Y-82937211D01*
X145964351Y-82994556D01*
X145790121Y-83087683D01*
X145637413Y-83213008D01*
X145637409Y-83213012D01*
X145512084Y-83365720D01*
X145418957Y-83539950D01*
X145361612Y-83728989D01*
X145342247Y-83925599D01*
X145361612Y-84122208D01*
X145418898Y-84311051D01*
X145418958Y-84311249D01*
X145429836Y-84331601D01*
X145437478Y-84345897D01*
X145445976Y-84405420D01*
X145422112Y-84449488D01*
X144933040Y-84938560D01*
X144931372Y-84940143D01*
X144900514Y-84967928D01*
X144900513Y-84967929D01*
X144900514Y-84967929D01*
X144890849Y-84989633D01*
X144884278Y-85001736D01*
X144875226Y-85015675D01*
X144871338Y-85021664D01*
X144870248Y-85028546D01*
X144863735Y-85050533D01*
X144860900Y-85056902D01*
X144860900Y-85080650D01*
X144859818Y-85094399D01*
X144856103Y-85117854D01*
X144856103Y-85117857D01*
X144857905Y-85124581D01*
X144860900Y-85147332D01*
X144860900Y-85401496D01*
X144840335Y-85457997D01*
X144788264Y-85488061D01*
X144729050Y-85477620D01*
X144724166Y-85474582D01*
X144719660Y-85471571D01*
X144689924Y-85465656D01*
X144675057Y-85462699D01*
X144675056Y-85462699D01*
X142944941Y-85462699D01*
X142900341Y-85471571D01*
X142849767Y-85505364D01*
X142849764Y-85505367D01*
X142815971Y-85555940D01*
X142807100Y-85600542D01*
X142807100Y-87259515D01*
X142786535Y-87316016D01*
X142734464Y-87346080D01*
X142675250Y-87335639D01*
X142657045Y-87321669D01*
X142594845Y-87259468D01*
X142569434Y-87204974D01*
X142569100Y-87197314D01*
X142569100Y-85526904D01*
X142589665Y-85470403D01*
X142594834Y-85464760D01*
X143233975Y-84825619D01*
X143288468Y-84800209D01*
X143337564Y-84810254D01*
X143424347Y-84856640D01*
X143424349Y-84856640D01*
X143424350Y-84856641D01*
X143613397Y-84913988D01*
X143810000Y-84933352D01*
X144006603Y-84913988D01*
X144195650Y-84856641D01*
X144369878Y-84763515D01*
X144522589Y-84638188D01*
X144647916Y-84485477D01*
X144741042Y-84311249D01*
X144798389Y-84122202D01*
X144817753Y-83925599D01*
X144798389Y-83728996D01*
X144741042Y-83539949D01*
X144647916Y-83365721D01*
X144522589Y-83213010D01*
X144369878Y-83087683D01*
X144195650Y-82994557D01*
X144195649Y-82994556D01*
X144195648Y-82994556D01*
X144006609Y-82937211D01*
X144006604Y-82937210D01*
X144006603Y-82937210D01*
X143810000Y-82917846D01*
X143613397Y-82937210D01*
X143613395Y-82937210D01*
X143613390Y-82937211D01*
X143424351Y-82994556D01*
X143250121Y-83087683D01*
X143097413Y-83213008D01*
X143097409Y-83213012D01*
X142972084Y-83365720D01*
X142878957Y-83539950D01*
X142821612Y-83728989D01*
X142802247Y-83925599D01*
X142821612Y-84122208D01*
X142878957Y-84311247D01*
X142925344Y-84398031D01*
X142933842Y-84457555D01*
X142909978Y-84501622D01*
X142183040Y-85228560D01*
X142181372Y-85230143D01*
X142150514Y-85257928D01*
X142150513Y-85257929D01*
X142150514Y-85257929D01*
X142140849Y-85279633D01*
X142134278Y-85291736D01*
X142125226Y-85305675D01*
X142121338Y-85311664D01*
X142120248Y-85318546D01*
X142113735Y-85340533D01*
X142110900Y-85346902D01*
X142110900Y-85370650D01*
X142109818Y-85384399D01*
X142106103Y-85407854D01*
X142106103Y-85407857D01*
X142107905Y-85414581D01*
X142110900Y-85437332D01*
X142110900Y-87321471D01*
X142110840Y-87323772D01*
X142108666Y-87365260D01*
X142117177Y-87387433D01*
X142121092Y-87400650D01*
X142126031Y-87423888D01*
X142130124Y-87429521D01*
X142141071Y-87449682D01*
X142143567Y-87456183D01*
X142143568Y-87456185D01*
X142160364Y-87472982D01*
X142169320Y-87483468D01*
X142183276Y-87502677D01*
X142183278Y-87502679D01*
X142189308Y-87506160D01*
X142207510Y-87520127D01*
X143022951Y-88335569D01*
X143024535Y-88337238D01*
X143052330Y-88368107D01*
X143074027Y-88377767D01*
X143086141Y-88384344D01*
X143106064Y-88397283D01*
X143112940Y-88398371D01*
X143134944Y-88404889D01*
X143141303Y-88407721D01*
X143165052Y-88407721D01*
X143178801Y-88408803D01*
X143183877Y-88409606D01*
X143202259Y-88412518D01*
X143208984Y-88410715D01*
X143231734Y-88407721D01*
X144168694Y-88407721D01*
X144225195Y-88428286D01*
X144230849Y-88433466D01*
X144435155Y-88637771D01*
X144460565Y-88692265D01*
X144460900Y-88699926D01*
X144460900Y-89417314D01*
X144440335Y-89473815D01*
X144435155Y-89479469D01*
X144250848Y-89663776D01*
X144196354Y-89689187D01*
X144188693Y-89689521D01*
X143923471Y-89689521D01*
X143866970Y-89668956D01*
X143836906Y-89616885D01*
X143847347Y-89557671D01*
X143875949Y-89527675D01*
X143930593Y-89492557D01*
X143969617Y-89467478D01*
X144060589Y-89362490D01*
X144118298Y-89236126D01*
X144132688Y-89136039D01*
X144138068Y-89098624D01*
X144138068Y-89098617D01*
X144118299Y-88961122D01*
X144118298Y-88961121D01*
X144118298Y-88961116D01*
X144060589Y-88834752D01*
X143971989Y-88732501D01*
X143969618Y-88729765D01*
X143969613Y-88729761D01*
X143852754Y-88654660D01*
X143852751Y-88654659D01*
X143823915Y-88646192D01*
X143719463Y-88615521D01*
X143719459Y-88615521D01*
X143580541Y-88615521D01*
X143580536Y-88615521D01*
X143447249Y-88654659D01*
X143447245Y-88654660D01*
X143330386Y-88729761D01*
X143330381Y-88729765D01*
X143235572Y-88839183D01*
X143183030Y-88868417D01*
X143169141Y-88869521D01*
X138747149Y-88869521D01*
X138744848Y-88869461D01*
X138717451Y-88868025D01*
X138703361Y-88867287D01*
X138703360Y-88867287D01*
X138703359Y-88867287D01*
X138681188Y-88875797D01*
X138667971Y-88879712D01*
X138660264Y-88881351D01*
X138644735Y-88884652D01*
X138644732Y-88884653D01*
X138639095Y-88888749D01*
X138618942Y-88899691D01*
X138612435Y-88902189D01*
X138612432Y-88902191D01*
X138595639Y-88918984D01*
X138585154Y-88927939D01*
X138565945Y-88941895D01*
X138565938Y-88941902D01*
X138562458Y-88947931D01*
X138548493Y-88966130D01*
X133353040Y-94161582D01*
X133351372Y-94163165D01*
X133320514Y-94190950D01*
X133320513Y-94190951D01*
X133320514Y-94190951D01*
X133310849Y-94212655D01*
X133304278Y-94224758D01*
X133301225Y-94229461D01*
X133291338Y-94244686D01*
X133290248Y-94251568D01*
X133283735Y-94273555D01*
X133280900Y-94279924D01*
X133280900Y-94303672D01*
X133279818Y-94317422D01*
X133276103Y-94340875D01*
X133276103Y-94340883D01*
X133277905Y-94347607D01*
X133280899Y-94370351D01*
X133280899Y-94933595D01*
X133260334Y-94990096D01*
X133240522Y-95007540D01*
X133190388Y-95039760D01*
X133190381Y-95039765D01*
X133099410Y-95144753D01*
X133041702Y-95271116D01*
X133041700Y-95271122D01*
X133021932Y-95408617D01*
X133021932Y-95408624D01*
X130465300Y-95408624D01*
X130465300Y-89712304D01*
X130749884Y-89712304D01*
X130769115Y-89944401D01*
X130769116Y-89944407D01*
X130826286Y-90170165D01*
X130826289Y-90170173D01*
X130897987Y-90333626D01*
X130919840Y-90383446D01*
X130919844Y-90383452D01*
X131047215Y-90578410D01*
X131047216Y-90578412D01*
X131201050Y-90745521D01*
X131204954Y-90749761D01*
X131388740Y-90892807D01*
X131593563Y-91003652D01*
X131813837Y-91079272D01*
X131813839Y-91079272D01*
X131813841Y-91079273D01*
X132043550Y-91117605D01*
X132043554Y-91117605D01*
X132276450Y-91117605D01*
X132506158Y-91079273D01*
X132506158Y-91079272D01*
X132506163Y-91079272D01*
X132726437Y-91003652D01*
X132931260Y-90892807D01*
X133115046Y-90749761D01*
X133272780Y-90578416D01*
X133400160Y-90383446D01*
X133493712Y-90170169D01*
X133523862Y-90051110D01*
X133550883Y-89944407D01*
X133550884Y-89944401D01*
X133559214Y-89843869D01*
X133570116Y-89712305D01*
X133550884Y-89480208D01*
X133550883Y-89480202D01*
X133493713Y-89254444D01*
X133493710Y-89254436D01*
X133441776Y-89136039D01*
X133400160Y-89041164D01*
X133335307Y-88941899D01*
X133272784Y-88846199D01*
X133272783Y-88846197D01*
X133115050Y-88674853D01*
X133115048Y-88674852D01*
X133115046Y-88674849D01*
X132931260Y-88531803D01*
X132726437Y-88420958D01*
X132726433Y-88420956D01*
X132726430Y-88420955D01*
X132506167Y-88345339D01*
X132506158Y-88345336D01*
X132276450Y-88307005D01*
X132276446Y-88307005D01*
X132043554Y-88307005D01*
X132043550Y-88307005D01*
X131813841Y-88345336D01*
X131813832Y-88345339D01*
X131593569Y-88420955D01*
X131593564Y-88420957D01*
X131593563Y-88420958D01*
X131388740Y-88531803D01*
X131379779Y-88538778D01*
X131204949Y-88674853D01*
X131047216Y-88846197D01*
X131047215Y-88846199D01*
X130919844Y-89041157D01*
X130919835Y-89041174D01*
X130826289Y-89254436D01*
X130826286Y-89254444D01*
X130769116Y-89480202D01*
X130769115Y-89480208D01*
X130749884Y-89712304D01*
X130465300Y-89712304D01*
X130465300Y-88784618D01*
X130485865Y-88728118D01*
X130509248Y-88708496D01*
X146770598Y-79320000D01*
X148749884Y-79320000D01*
X148769115Y-79552096D01*
X148769116Y-79552102D01*
X148826286Y-79777860D01*
X148826289Y-79777868D01*
X148897987Y-79941321D01*
X148919840Y-79991141D01*
X148919844Y-79991147D01*
X149047215Y-80186105D01*
X149047216Y-80186107D01*
X149047220Y-80186111D01*
X149204954Y-80357456D01*
X149388740Y-80500502D01*
X149593563Y-80611347D01*
X149813837Y-80686967D01*
X149813839Y-80686967D01*
X149813841Y-80686968D01*
X150043550Y-80725300D01*
X150043554Y-80725300D01*
X150276450Y-80725300D01*
X150506158Y-80686968D01*
X150506158Y-80686967D01*
X150506163Y-80686967D01*
X150726437Y-80611347D01*
X150931260Y-80500502D01*
X151115046Y-80357456D01*
X151272780Y-80186111D01*
X151400160Y-79991141D01*
X151493712Y-79777864D01*
X151550884Y-79552097D01*
X151570116Y-79320000D01*
X151550884Y-79087903D01*
X151550883Y-79087897D01*
X151493713Y-78862139D01*
X151493710Y-78862131D01*
X151400164Y-78648869D01*
X151400160Y-78648859D01*
X151319435Y-78525300D01*
X151272784Y-78453894D01*
X151272783Y-78453892D01*
X151115050Y-78282548D01*
X151115048Y-78282547D01*
X151115046Y-78282544D01*
X150931260Y-78139498D01*
X150726437Y-78028653D01*
X150726433Y-78028651D01*
X150726430Y-78028650D01*
X150506167Y-77953034D01*
X150506158Y-77953031D01*
X150276450Y-77914700D01*
X150276446Y-77914700D01*
X150043554Y-77914700D01*
X150043550Y-77914700D01*
X149813841Y-77953031D01*
X149813832Y-77953034D01*
X149593569Y-78028650D01*
X149388740Y-78139498D01*
X149204949Y-78282548D01*
X149047216Y-78453892D01*
X149047215Y-78453894D01*
X148919844Y-78648852D01*
X148919835Y-78648869D01*
X148826289Y-78862131D01*
X148826286Y-78862139D01*
X148769116Y-79087897D01*
X148769115Y-79087903D01*
X148749884Y-79320000D01*
X146770598Y-79320000D01*
X150116050Y-77388502D01*
X150175263Y-77378062D01*
X150203946Y-77388502D01*
G37*
%TD.AperFunction*%
%TD*%
M02*
