%TF.GenerationSoftware,KiCad,Pcbnew,(6.0.4)*%
%TF.CreationDate,2023-05-25T13:34:33-04:00*%
%TF.ProjectId,PWR,5057522e-6b69-4636-9164-5f7063625858,rev?*%
%TF.SameCoordinates,Original*%
%TF.FileFunction,Legend,Bot*%
%TF.FilePolarity,Positive*%
%FSLAX46Y46*%
G04 Gerber Fmt 4.6, Leading zero omitted, Abs format (unit mm)*
G04 Created by KiCad (PCBNEW (6.0.4)) date 2023-05-25 13:34:33*
%MOMM*%
%LPD*%
G01*
G04 APERTURE LIST*
%ADD10C,0.150000*%
G04 APERTURE END LIST*
D10*
X158030952Y-97197380D02*
X158030952Y-96197380D01*
X158030952Y-96673571D02*
X157459523Y-96673571D01*
X157459523Y-97197380D02*
X157459523Y-96197380D01*
X156983333Y-96673571D02*
X156650000Y-96673571D01*
X156507142Y-97197380D02*
X156983333Y-97197380D01*
X156983333Y-96197380D01*
X156507142Y-96197380D01*
X156173809Y-96197380D02*
X155507142Y-97197380D01*
X155507142Y-96197380D02*
X156173809Y-97197380D01*
X155173809Y-97149761D02*
X155030952Y-97197380D01*
X154792857Y-97197380D01*
X154697619Y-97149761D01*
X154650000Y-97102142D01*
X154602380Y-97006904D01*
X154602380Y-96911666D01*
X154650000Y-96816428D01*
X154697619Y-96768809D01*
X154792857Y-96721190D01*
X154983333Y-96673571D01*
X155078571Y-96625952D01*
X155126190Y-96578333D01*
X155173809Y-96483095D01*
X155173809Y-96387857D01*
X155126190Y-96292619D01*
X155078571Y-96245000D01*
X154983333Y-96197380D01*
X154745238Y-96197380D01*
X154602380Y-96245000D01*
X154173809Y-96673571D02*
X153840476Y-96673571D01*
X153697619Y-97197380D02*
X154173809Y-97197380D01*
X154173809Y-96197380D01*
X153697619Y-96197380D01*
X153269047Y-97197380D02*
X153269047Y-96197380D01*
X152697619Y-97197380D01*
X152697619Y-96197380D01*
X152269047Y-97149761D02*
X152126190Y-97197380D01*
X151888095Y-97197380D01*
X151792857Y-97149761D01*
X151745238Y-97102142D01*
X151697619Y-97006904D01*
X151697619Y-96911666D01*
X151745238Y-96816428D01*
X151792857Y-96768809D01*
X151888095Y-96721190D01*
X152078571Y-96673571D01*
X152173809Y-96625952D01*
X152221428Y-96578333D01*
X152269047Y-96483095D01*
X152269047Y-96387857D01*
X152221428Y-96292619D01*
X152173809Y-96245000D01*
X152078571Y-96197380D01*
X151840476Y-96197380D01*
X151697619Y-96245000D01*
X151269047Y-96673571D02*
X150935714Y-96673571D01*
X150792857Y-97197380D02*
X151269047Y-97197380D01*
X151269047Y-96197380D01*
X150792857Y-96197380D01*
X149650000Y-97149761D02*
X149507142Y-97197380D01*
X149269047Y-97197380D01*
X149173809Y-97149761D01*
X149126190Y-97102142D01*
X149078571Y-97006904D01*
X149078571Y-96911666D01*
X149126190Y-96816428D01*
X149173809Y-96768809D01*
X149269047Y-96721190D01*
X149459523Y-96673571D01*
X149554761Y-96625952D01*
X149602380Y-96578333D01*
X149650000Y-96483095D01*
X149650000Y-96387857D01*
X149602380Y-96292619D01*
X149554761Y-96245000D01*
X149459523Y-96197380D01*
X149221428Y-96197380D01*
X149078571Y-96245000D01*
X148792857Y-96197380D02*
X148459523Y-97197380D01*
X148126190Y-96197380D01*
X147840476Y-96911666D02*
X147364285Y-96911666D01*
X147935714Y-97197380D02*
X147602380Y-96197380D01*
X147269047Y-97197380D01*
X146459523Y-97197380D02*
X146935714Y-97197380D01*
X146935714Y-96197380D01*
X145792857Y-96673571D02*
X145650000Y-96721190D01*
X145602380Y-96768809D01*
X145554761Y-96864047D01*
X145554761Y-97006904D01*
X145602380Y-97102142D01*
X145650000Y-97149761D01*
X145745238Y-97197380D01*
X146126190Y-97197380D01*
X146126190Y-96197380D01*
X145792857Y-96197380D01*
X145697619Y-96245000D01*
X145650000Y-96292619D01*
X145602380Y-96387857D01*
X145602380Y-96483095D01*
X145650000Y-96578333D01*
X145697619Y-96625952D01*
X145792857Y-96673571D01*
X146126190Y-96673571D01*
X145173809Y-96911666D02*
X144697619Y-96911666D01*
X145269047Y-97197380D02*
X144935714Y-96197380D01*
X144602380Y-97197380D01*
X143697619Y-97197380D02*
X144030952Y-96721190D01*
X144269047Y-97197380D02*
X144269047Y-96197380D01*
X143888095Y-96197380D01*
X143792857Y-96245000D01*
X143745238Y-96292619D01*
X143697619Y-96387857D01*
X143697619Y-96530714D01*
X143745238Y-96625952D01*
X143792857Y-96673571D01*
X143888095Y-96721190D01*
X144269047Y-96721190D01*
X143269047Y-97197380D02*
X143269047Y-96197380D01*
X143030952Y-96197380D01*
X142888095Y-96245000D01*
X142792857Y-96340238D01*
X142745238Y-96435476D01*
X142697619Y-96625952D01*
X142697619Y-96768809D01*
X142745238Y-96959285D01*
X142792857Y-97054523D01*
X142888095Y-97149761D01*
X143030952Y-97197380D01*
X143269047Y-97197380D01*
X141507142Y-97197380D02*
X141507142Y-96197380D01*
X141126190Y-96197380D01*
X141030952Y-96245000D01*
X140983333Y-96292619D01*
X140935714Y-96387857D01*
X140935714Y-96530714D01*
X140983333Y-96625952D01*
X141030952Y-96673571D01*
X141126190Y-96721190D01*
X141507142Y-96721190D01*
X140602380Y-96197380D02*
X140364285Y-97197380D01*
X140173809Y-96483095D01*
X139983333Y-97197380D01*
X139745238Y-96197380D01*
X138792857Y-97197380D02*
X139126190Y-96721190D01*
X139364285Y-97197380D02*
X139364285Y-96197380D01*
X138983333Y-96197380D01*
X138888095Y-96245000D01*
X138840476Y-96292619D01*
X138792857Y-96387857D01*
X138792857Y-96530714D01*
X138840476Y-96625952D01*
X138888095Y-96673571D01*
X138983333Y-96721190D01*
X139364285Y-96721190D01*
X138602380Y-97292619D02*
X137840476Y-97292619D01*
X137745238Y-96197380D02*
X137411904Y-97197380D01*
X137078571Y-96197380D01*
X136221428Y-97197380D02*
X136792857Y-97197380D01*
X136507142Y-97197380D02*
X136507142Y-96197380D01*
X136602380Y-96340238D01*
X136697619Y-96435476D01*
X136792857Y-96483095D01*
X152483333Y-98283571D02*
X152816666Y-98283571D01*
X152816666Y-98807380D02*
X152816666Y-97807380D01*
X152340476Y-97807380D01*
X152007142Y-98521666D02*
X151530952Y-98521666D01*
X152102380Y-98807380D02*
X151769047Y-97807380D01*
X151435714Y-98807380D01*
X151102380Y-98807380D02*
X151102380Y-97807380D01*
X150530952Y-98807380D01*
X150530952Y-97807380D01*
X149530952Y-97855000D02*
X149626190Y-97807380D01*
X149769047Y-97807380D01*
X149911904Y-97855000D01*
X150007142Y-97950238D01*
X150054761Y-98045476D01*
X150102380Y-98235952D01*
X150102380Y-98378809D01*
X150054761Y-98569285D01*
X150007142Y-98664523D01*
X149911904Y-98759761D01*
X149769047Y-98807380D01*
X149673809Y-98807380D01*
X149530952Y-98759761D01*
X149483333Y-98712142D01*
X149483333Y-98378809D01*
X149673809Y-98378809D01*
X149150000Y-97807380D02*
X148483333Y-97807380D01*
X149150000Y-98807380D01*
X148483333Y-98807380D01*
X148102380Y-98807380D02*
X148102380Y-97807380D01*
X148102380Y-98283571D02*
X147530952Y-98283571D01*
X147530952Y-98807380D02*
X147530952Y-97807380D01*
X147054761Y-98283571D02*
X146721428Y-98283571D01*
X146578571Y-98807380D02*
X147054761Y-98807380D01*
X147054761Y-97807380D01*
X146578571Y-97807380D01*
X146150000Y-98807380D02*
X146150000Y-97807380D01*
X145578571Y-98807380D01*
X145578571Y-97807380D01*
X144578571Y-97855000D02*
X144673809Y-97807380D01*
X144816666Y-97807380D01*
X144959523Y-97855000D01*
X145054761Y-97950238D01*
X145102380Y-98045476D01*
X145150000Y-98235952D01*
X145150000Y-98378809D01*
X145102380Y-98569285D01*
X145054761Y-98664523D01*
X144959523Y-98759761D01*
X144816666Y-98807380D01*
X144721428Y-98807380D01*
X144578571Y-98759761D01*
X144530952Y-98712142D01*
X144530952Y-98378809D01*
X144721428Y-98378809D01*
X142864285Y-98807380D02*
X143340476Y-98807380D01*
X143340476Y-97807380D01*
X142530952Y-98807380D02*
X142530952Y-97807380D01*
X142054761Y-97807380D02*
X142054761Y-98616904D01*
X142007142Y-98712142D01*
X141959523Y-98759761D01*
X141864285Y-98807380D01*
X141673809Y-98807380D01*
X141578571Y-98759761D01*
X141530952Y-98712142D01*
X141483333Y-98616904D01*
X141483333Y-97807380D01*
X152388095Y-100417380D02*
X152388095Y-99417380D01*
X152054761Y-100131666D01*
X151721428Y-99417380D01*
X151721428Y-100417380D01*
X151245238Y-100417380D02*
X151245238Y-99417380D01*
X150911904Y-99417380D02*
X150340476Y-99417380D01*
X150626190Y-100417380D02*
X150626190Y-99417380D01*
X149245238Y-100417380D02*
X149245238Y-99417380D01*
X148911904Y-100131666D01*
X148578571Y-99417380D01*
X148578571Y-100417380D01*
X148102380Y-99893571D02*
X147769047Y-99893571D01*
X147626190Y-100417380D02*
X148102380Y-100417380D01*
X148102380Y-99417380D01*
X147626190Y-99417380D01*
X147197619Y-100417380D02*
X147197619Y-99417380D01*
X146959523Y-99417380D01*
X146816666Y-99465000D01*
X146721428Y-99560238D01*
X146673809Y-99655476D01*
X146626190Y-99845952D01*
X146626190Y-99988809D01*
X146673809Y-100179285D01*
X146721428Y-100274523D01*
X146816666Y-100369761D01*
X146959523Y-100417380D01*
X147197619Y-100417380D01*
X146197619Y-100417380D02*
X146197619Y-99417380D01*
X145769047Y-100131666D02*
X145292857Y-100131666D01*
X145864285Y-100417380D02*
X145530952Y-99417380D01*
X145197619Y-100417380D01*
X143626190Y-100417380D02*
X144102380Y-100417380D01*
X144102380Y-99417380D01*
X143340476Y-100131666D02*
X142864285Y-100131666D01*
X143435714Y-100417380D02*
X143102380Y-99417380D01*
X142769047Y-100417380D01*
X142102380Y-99893571D02*
X141959523Y-99941190D01*
X141911904Y-99988809D01*
X141864285Y-100084047D01*
X141864285Y-100226904D01*
X141911904Y-100322142D01*
X141959523Y-100369761D01*
X142054761Y-100417380D01*
X142435714Y-100417380D01*
X142435714Y-99417380D01*
X142102380Y-99417380D01*
X142007142Y-99465000D01*
X141959523Y-99512619D01*
X141911904Y-99607857D01*
X141911904Y-99703095D01*
X141959523Y-99798333D01*
X142007142Y-99845952D01*
X142102380Y-99893571D01*
X142435714Y-99893571D01*
X148959523Y-102027380D02*
X149292857Y-101551190D01*
X149530952Y-102027380D02*
X149530952Y-101027380D01*
X149150000Y-101027380D01*
X149054761Y-101075000D01*
X149007142Y-101122619D01*
X148959523Y-101217857D01*
X148959523Y-101360714D01*
X149007142Y-101455952D01*
X149054761Y-101503571D01*
X149150000Y-101551190D01*
X149530952Y-101551190D01*
X148150000Y-101979761D02*
X148245238Y-102027380D01*
X148435714Y-102027380D01*
X148530952Y-101979761D01*
X148578571Y-101884523D01*
X148578571Y-101503571D01*
X148530952Y-101408333D01*
X148435714Y-101360714D01*
X148245238Y-101360714D01*
X148150000Y-101408333D01*
X148102380Y-101503571D01*
X148102380Y-101598809D01*
X148578571Y-101694047D01*
X147721428Y-101979761D02*
X147626190Y-102027380D01*
X147435714Y-102027380D01*
X147340476Y-101979761D01*
X147292857Y-101884523D01*
X147292857Y-101836904D01*
X147340476Y-101741666D01*
X147435714Y-101694047D01*
X147578571Y-101694047D01*
X147673809Y-101646428D01*
X147721428Y-101551190D01*
X147721428Y-101503571D01*
X147673809Y-101408333D01*
X147578571Y-101360714D01*
X147435714Y-101360714D01*
X147340476Y-101408333D01*
X146864285Y-101503571D02*
X146530952Y-101503571D01*
X146388095Y-102027380D02*
X146864285Y-102027380D01*
X146864285Y-101027380D01*
X146388095Y-101027380D01*
X145959523Y-101360714D02*
X145959523Y-102027380D01*
X145959523Y-101455952D02*
X145911904Y-101408333D01*
X145816666Y-101360714D01*
X145673809Y-101360714D01*
X145578571Y-101408333D01*
X145530952Y-101503571D01*
X145530952Y-102027380D01*
X145150000Y-101360714D02*
X144911904Y-102027380D01*
X144673809Y-101360714D01*
M02*
