%TF.GenerationSoftware,KiCad,Pcbnew,(6.0.4)*%
%TF.CreationDate,2023-05-25T13:34:33-04:00*%
%TF.ProjectId,PWR,5057522e-6b69-4636-9164-5f7063625858,rev?*%
%TF.SameCoordinates,Original*%
%TF.FileFunction,Legend,Top*%
%TF.FilePolarity,Positive*%
%FSLAX46Y46*%
G04 Gerber Fmt 4.6, Leading zero omitted, Abs format (unit mm)*
G04 Created by KiCad (PCBNEW (6.0.4)) date 2023-05-25 13:34:33*
%MOMM*%
%LPD*%
G01*
G04 APERTURE LIST*
%ADD10C,0.150000*%
%ADD11C,0.120000*%
%ADD12C,0.127000*%
%ADD13C,0.200000*%
G04 APERTURE END LIST*
D10*
%TO.C,C5*%
X144213333Y-108307142D02*
X144165714Y-108354761D01*
X144022857Y-108402380D01*
X143927619Y-108402380D01*
X143784761Y-108354761D01*
X143689523Y-108259523D01*
X143641904Y-108164285D01*
X143594285Y-107973809D01*
X143594285Y-107830952D01*
X143641904Y-107640476D01*
X143689523Y-107545238D01*
X143784761Y-107450000D01*
X143927619Y-107402380D01*
X144022857Y-107402380D01*
X144165714Y-107450000D01*
X144213333Y-107497619D01*
X145118095Y-107402380D02*
X144641904Y-107402380D01*
X144594285Y-107878571D01*
X144641904Y-107830952D01*
X144737142Y-107783333D01*
X144975238Y-107783333D01*
X145070476Y-107830952D01*
X145118095Y-107878571D01*
X145165714Y-107973809D01*
X145165714Y-108211904D01*
X145118095Y-108307142D01*
X145070476Y-108354761D01*
X144975238Y-108402380D01*
X144737142Y-108402380D01*
X144641904Y-108354761D01*
X144594285Y-108307142D01*
%TO.C,R3*%
X141684880Y-110866666D02*
X141208690Y-111200000D01*
X141684880Y-111438095D02*
X140684880Y-111438095D01*
X140684880Y-111057142D01*
X140732500Y-110961904D01*
X140780119Y-110914285D01*
X140875357Y-110866666D01*
X141018214Y-110866666D01*
X141113452Y-110914285D01*
X141161071Y-110961904D01*
X141208690Y-111057142D01*
X141208690Y-111438095D01*
X140684880Y-110533333D02*
X140684880Y-109914285D01*
X141065833Y-110247619D01*
X141065833Y-110104761D01*
X141113452Y-110009523D01*
X141161071Y-109961904D01*
X141256309Y-109914285D01*
X141494404Y-109914285D01*
X141589642Y-109961904D01*
X141637261Y-110009523D01*
X141684880Y-110104761D01*
X141684880Y-110390476D01*
X141637261Y-110485714D01*
X141589642Y-110533333D01*
%TO.C,R15*%
X160137142Y-101892380D02*
X159803809Y-101416190D01*
X159565714Y-101892380D02*
X159565714Y-100892380D01*
X159946666Y-100892380D01*
X160041904Y-100940000D01*
X160089523Y-100987619D01*
X160137142Y-101082857D01*
X160137142Y-101225714D01*
X160089523Y-101320952D01*
X160041904Y-101368571D01*
X159946666Y-101416190D01*
X159565714Y-101416190D01*
X161089523Y-101892380D02*
X160518095Y-101892380D01*
X160803809Y-101892380D02*
X160803809Y-100892380D01*
X160708571Y-101035238D01*
X160613333Y-101130476D01*
X160518095Y-101178095D01*
X161994285Y-100892380D02*
X161518095Y-100892380D01*
X161470476Y-101368571D01*
X161518095Y-101320952D01*
X161613333Y-101273333D01*
X161851428Y-101273333D01*
X161946666Y-101320952D01*
X161994285Y-101368571D01*
X162041904Y-101463809D01*
X162041904Y-101701904D01*
X161994285Y-101797142D01*
X161946666Y-101844761D01*
X161851428Y-101892380D01*
X161613333Y-101892380D01*
X161518095Y-101844761D01*
X161470476Y-101797142D01*
%TO.C,C4*%
X148957142Y-102556666D02*
X149004761Y-102604285D01*
X149052380Y-102747142D01*
X149052380Y-102842380D01*
X149004761Y-102985238D01*
X148909523Y-103080476D01*
X148814285Y-103128095D01*
X148623809Y-103175714D01*
X148480952Y-103175714D01*
X148290476Y-103128095D01*
X148195238Y-103080476D01*
X148100000Y-102985238D01*
X148052380Y-102842380D01*
X148052380Y-102747142D01*
X148100000Y-102604285D01*
X148147619Y-102556666D01*
X148385714Y-101699523D02*
X149052380Y-101699523D01*
X148004761Y-101937619D02*
X148719047Y-102175714D01*
X148719047Y-101556666D01*
%TO.C,C13*%
X159037142Y-103997142D02*
X158989523Y-104044761D01*
X158846666Y-104092380D01*
X158751428Y-104092380D01*
X158608571Y-104044761D01*
X158513333Y-103949523D01*
X158465714Y-103854285D01*
X158418095Y-103663809D01*
X158418095Y-103520952D01*
X158465714Y-103330476D01*
X158513333Y-103235238D01*
X158608571Y-103140000D01*
X158751428Y-103092380D01*
X158846666Y-103092380D01*
X158989523Y-103140000D01*
X159037142Y-103187619D01*
X159989523Y-104092380D02*
X159418095Y-104092380D01*
X159703809Y-104092380D02*
X159703809Y-103092380D01*
X159608571Y-103235238D01*
X159513333Y-103330476D01*
X159418095Y-103378095D01*
X160322857Y-103092380D02*
X160941904Y-103092380D01*
X160608571Y-103473333D01*
X160751428Y-103473333D01*
X160846666Y-103520952D01*
X160894285Y-103568571D01*
X160941904Y-103663809D01*
X160941904Y-103901904D01*
X160894285Y-103997142D01*
X160846666Y-104044761D01*
X160751428Y-104092380D01*
X160465714Y-104092380D01*
X160370476Y-104044761D01*
X160322857Y-103997142D01*
%TO.C,R13*%
X138652862Y-83046660D02*
X138319529Y-82570470D01*
X138081434Y-83046660D02*
X138081434Y-82046660D01*
X138462386Y-82046660D01*
X138557624Y-82094280D01*
X138605243Y-82141899D01*
X138652862Y-82237137D01*
X138652862Y-82379994D01*
X138605243Y-82475232D01*
X138557624Y-82522851D01*
X138462386Y-82570470D01*
X138081434Y-82570470D01*
X139605243Y-83046660D02*
X139033815Y-83046660D01*
X139319529Y-83046660D02*
X139319529Y-82046660D01*
X139224291Y-82189518D01*
X139129053Y-82284756D01*
X139033815Y-82332375D01*
X139938577Y-82046660D02*
X140557624Y-82046660D01*
X140224291Y-82427613D01*
X140367148Y-82427613D01*
X140462386Y-82475232D01*
X140510005Y-82522851D01*
X140557624Y-82618089D01*
X140557624Y-82856184D01*
X140510005Y-82951422D01*
X140462386Y-82999041D01*
X140367148Y-83046660D01*
X140081434Y-83046660D01*
X139986196Y-82999041D01*
X139938577Y-82951422D01*
%TO.C,R16*%
X149587142Y-100032380D02*
X149253809Y-99556190D01*
X149015714Y-100032380D02*
X149015714Y-99032380D01*
X149396666Y-99032380D01*
X149491904Y-99080000D01*
X149539523Y-99127619D01*
X149587142Y-99222857D01*
X149587142Y-99365714D01*
X149539523Y-99460952D01*
X149491904Y-99508571D01*
X149396666Y-99556190D01*
X149015714Y-99556190D01*
X150539523Y-100032380D02*
X149968095Y-100032380D01*
X150253809Y-100032380D02*
X150253809Y-99032380D01*
X150158571Y-99175238D01*
X150063333Y-99270476D01*
X149968095Y-99318095D01*
X151396666Y-99032380D02*
X151206190Y-99032380D01*
X151110952Y-99080000D01*
X151063333Y-99127619D01*
X150968095Y-99270476D01*
X150920476Y-99460952D01*
X150920476Y-99841904D01*
X150968095Y-99937142D01*
X151015714Y-99984761D01*
X151110952Y-100032380D01*
X151301428Y-100032380D01*
X151396666Y-99984761D01*
X151444285Y-99937142D01*
X151491904Y-99841904D01*
X151491904Y-99603809D01*
X151444285Y-99508571D01*
X151396666Y-99460952D01*
X151301428Y-99413333D01*
X151110952Y-99413333D01*
X151015714Y-99460952D01*
X150968095Y-99508571D01*
X150920476Y-99603809D01*
%TO.C,C1*%
X152443333Y-108997142D02*
X152395714Y-109044761D01*
X152252857Y-109092380D01*
X152157619Y-109092380D01*
X152014761Y-109044761D01*
X151919523Y-108949523D01*
X151871904Y-108854285D01*
X151824285Y-108663809D01*
X151824285Y-108520952D01*
X151871904Y-108330476D01*
X151919523Y-108235238D01*
X152014761Y-108140000D01*
X152157619Y-108092380D01*
X152252857Y-108092380D01*
X152395714Y-108140000D01*
X152443333Y-108187619D01*
X153395714Y-109092380D02*
X152824285Y-109092380D01*
X153110000Y-109092380D02*
X153110000Y-108092380D01*
X153014761Y-108235238D01*
X152919523Y-108330476D01*
X152824285Y-108378095D01*
%TO.C,R12*%
X138652862Y-84746660D02*
X138319529Y-84270470D01*
X138081434Y-84746660D02*
X138081434Y-83746660D01*
X138462386Y-83746660D01*
X138557624Y-83794280D01*
X138605243Y-83841899D01*
X138652862Y-83937137D01*
X138652862Y-84079994D01*
X138605243Y-84175232D01*
X138557624Y-84222851D01*
X138462386Y-84270470D01*
X138081434Y-84270470D01*
X139605243Y-84746660D02*
X139033815Y-84746660D01*
X139319529Y-84746660D02*
X139319529Y-83746660D01*
X139224291Y-83889518D01*
X139129053Y-83984756D01*
X139033815Y-84032375D01*
X139986196Y-83841899D02*
X140033815Y-83794280D01*
X140129053Y-83746660D01*
X140367148Y-83746660D01*
X140462386Y-83794280D01*
X140510005Y-83841899D01*
X140557624Y-83937137D01*
X140557624Y-84032375D01*
X140510005Y-84175232D01*
X139938577Y-84746660D01*
X140557624Y-84746660D01*
%TO.C,R11*%
X150432380Y-97512857D02*
X149956190Y-97846190D01*
X150432380Y-98084285D02*
X149432380Y-98084285D01*
X149432380Y-97703333D01*
X149480000Y-97608095D01*
X149527619Y-97560476D01*
X149622857Y-97512857D01*
X149765714Y-97512857D01*
X149860952Y-97560476D01*
X149908571Y-97608095D01*
X149956190Y-97703333D01*
X149956190Y-98084285D01*
X150432380Y-96560476D02*
X150432380Y-97131904D01*
X150432380Y-96846190D02*
X149432380Y-96846190D01*
X149575238Y-96941428D01*
X149670476Y-97036666D01*
X149718095Y-97131904D01*
X150432380Y-95608095D02*
X150432380Y-96179523D01*
X150432380Y-95893809D02*
X149432380Y-95893809D01*
X149575238Y-95989047D01*
X149670476Y-96084285D01*
X149718095Y-96179523D01*
%TO.C,R5*%
X146843333Y-105372380D02*
X146510000Y-104896190D01*
X146271904Y-105372380D02*
X146271904Y-104372380D01*
X146652857Y-104372380D01*
X146748095Y-104420000D01*
X146795714Y-104467619D01*
X146843333Y-104562857D01*
X146843333Y-104705714D01*
X146795714Y-104800952D01*
X146748095Y-104848571D01*
X146652857Y-104896190D01*
X146271904Y-104896190D01*
X147748095Y-104372380D02*
X147271904Y-104372380D01*
X147224285Y-104848571D01*
X147271904Y-104800952D01*
X147367142Y-104753333D01*
X147605238Y-104753333D01*
X147700476Y-104800952D01*
X147748095Y-104848571D01*
X147795714Y-104943809D01*
X147795714Y-105181904D01*
X147748095Y-105277142D01*
X147700476Y-105324761D01*
X147605238Y-105372380D01*
X147367142Y-105372380D01*
X147271904Y-105324761D01*
X147224285Y-105277142D01*
%TO.C,C11*%
X144757142Y-105522857D02*
X144804761Y-105570476D01*
X144852380Y-105713333D01*
X144852380Y-105808571D01*
X144804761Y-105951428D01*
X144709523Y-106046666D01*
X144614285Y-106094285D01*
X144423809Y-106141904D01*
X144280952Y-106141904D01*
X144090476Y-106094285D01*
X143995238Y-106046666D01*
X143900000Y-105951428D01*
X143852380Y-105808571D01*
X143852380Y-105713333D01*
X143900000Y-105570476D01*
X143947619Y-105522857D01*
X144852380Y-104570476D02*
X144852380Y-105141904D01*
X144852380Y-104856190D02*
X143852380Y-104856190D01*
X143995238Y-104951428D01*
X144090476Y-105046666D01*
X144138095Y-105141904D01*
X144852380Y-103618095D02*
X144852380Y-104189523D01*
X144852380Y-103903809D02*
X143852380Y-103903809D01*
X143995238Y-103999047D01*
X144090476Y-104094285D01*
X144138095Y-104189523D01*
%TO.C,C3*%
X157542862Y-91010946D02*
X157590481Y-91058565D01*
X157638100Y-91201422D01*
X157638100Y-91296660D01*
X157590481Y-91439518D01*
X157495243Y-91534756D01*
X157400005Y-91582375D01*
X157209529Y-91629994D01*
X157066672Y-91629994D01*
X156876196Y-91582375D01*
X156780958Y-91534756D01*
X156685720Y-91439518D01*
X156638100Y-91296660D01*
X156638100Y-91201422D01*
X156685720Y-91058565D01*
X156733339Y-91010946D01*
X156638100Y-90677613D02*
X156638100Y-90058565D01*
X157019053Y-90391899D01*
X157019053Y-90249041D01*
X157066672Y-90153803D01*
X157114291Y-90106184D01*
X157209529Y-90058565D01*
X157447624Y-90058565D01*
X157542862Y-90106184D01*
X157590481Y-90153803D01*
X157638100Y-90249041D01*
X157638100Y-90534756D01*
X157590481Y-90629994D01*
X157542862Y-90677613D01*
%TO.C,R10*%
X138682862Y-92746660D02*
X138349529Y-92270470D01*
X138111434Y-92746660D02*
X138111434Y-91746660D01*
X138492386Y-91746660D01*
X138587624Y-91794280D01*
X138635243Y-91841899D01*
X138682862Y-91937137D01*
X138682862Y-92079994D01*
X138635243Y-92175232D01*
X138587624Y-92222851D01*
X138492386Y-92270470D01*
X138111434Y-92270470D01*
X139635243Y-92746660D02*
X139063815Y-92746660D01*
X139349529Y-92746660D02*
X139349529Y-91746660D01*
X139254291Y-91889518D01*
X139159053Y-91984756D01*
X139063815Y-92032375D01*
X140254291Y-91746660D02*
X140349529Y-91746660D01*
X140444767Y-91794280D01*
X140492386Y-91841899D01*
X140540005Y-91937137D01*
X140587624Y-92127613D01*
X140587624Y-92365708D01*
X140540005Y-92556184D01*
X140492386Y-92651422D01*
X140444767Y-92699041D01*
X140349529Y-92746660D01*
X140254291Y-92746660D01*
X140159053Y-92699041D01*
X140111434Y-92651422D01*
X140063815Y-92556184D01*
X140016196Y-92365708D01*
X140016196Y-92127613D01*
X140063815Y-91937137D01*
X140111434Y-91841899D01*
X140159053Y-91794280D01*
X140254291Y-91746660D01*
%TO.C,R1*%
X152450833Y-106262380D02*
X152117500Y-105786190D01*
X151879404Y-106262380D02*
X151879404Y-105262380D01*
X152260357Y-105262380D01*
X152355595Y-105310000D01*
X152403214Y-105357619D01*
X152450833Y-105452857D01*
X152450833Y-105595714D01*
X152403214Y-105690952D01*
X152355595Y-105738571D01*
X152260357Y-105786190D01*
X151879404Y-105786190D01*
X153403214Y-106262380D02*
X152831785Y-106262380D01*
X153117500Y-106262380D02*
X153117500Y-105262380D01*
X153022261Y-105405238D01*
X152927023Y-105500476D01*
X152831785Y-105548095D01*
%TO.C,C10*%
X134987142Y-99072857D02*
X135034761Y-99120476D01*
X135082380Y-99263333D01*
X135082380Y-99358571D01*
X135034761Y-99501428D01*
X134939523Y-99596666D01*
X134844285Y-99644285D01*
X134653809Y-99691904D01*
X134510952Y-99691904D01*
X134320476Y-99644285D01*
X134225238Y-99596666D01*
X134130000Y-99501428D01*
X134082380Y-99358571D01*
X134082380Y-99263333D01*
X134130000Y-99120476D01*
X134177619Y-99072857D01*
X135082380Y-98120476D02*
X135082380Y-98691904D01*
X135082380Y-98406190D02*
X134082380Y-98406190D01*
X134225238Y-98501428D01*
X134320476Y-98596666D01*
X134368095Y-98691904D01*
X134082380Y-97501428D02*
X134082380Y-97406190D01*
X134130000Y-97310952D01*
X134177619Y-97263333D01*
X134272857Y-97215714D01*
X134463333Y-97168095D01*
X134701428Y-97168095D01*
X134891904Y-97215714D01*
X134987142Y-97263333D01*
X135034761Y-97310952D01*
X135082380Y-97406190D01*
X135082380Y-97501428D01*
X135034761Y-97596666D01*
X134987142Y-97644285D01*
X134891904Y-97691904D01*
X134701428Y-97739523D01*
X134463333Y-97739523D01*
X134272857Y-97691904D01*
X134177619Y-97644285D01*
X134130000Y-97596666D01*
X134082380Y-97501428D01*
%TO.C,R14*%
X138522862Y-94416660D02*
X138189529Y-93940470D01*
X137951434Y-94416660D02*
X137951434Y-93416660D01*
X138332386Y-93416660D01*
X138427624Y-93464280D01*
X138475243Y-93511899D01*
X138522862Y-93607137D01*
X138522862Y-93749994D01*
X138475243Y-93845232D01*
X138427624Y-93892851D01*
X138332386Y-93940470D01*
X137951434Y-93940470D01*
X139475243Y-94416660D02*
X138903815Y-94416660D01*
X139189529Y-94416660D02*
X139189529Y-93416660D01*
X139094291Y-93559518D01*
X138999053Y-93654756D01*
X138903815Y-93702375D01*
X140332386Y-93749994D02*
X140332386Y-94416660D01*
X140094291Y-93369041D02*
X139856196Y-94083327D01*
X140475243Y-94083327D01*
%TO.C,C2*%
X153352862Y-90770946D02*
X153400481Y-90818565D01*
X153448100Y-90961422D01*
X153448100Y-91056660D01*
X153400481Y-91199518D01*
X153305243Y-91294756D01*
X153210005Y-91342375D01*
X153019529Y-91389994D01*
X152876672Y-91389994D01*
X152686196Y-91342375D01*
X152590958Y-91294756D01*
X152495720Y-91199518D01*
X152448100Y-91056660D01*
X152448100Y-90961422D01*
X152495720Y-90818565D01*
X152543339Y-90770946D01*
X152543339Y-90389994D02*
X152495720Y-90342375D01*
X152448100Y-90247137D01*
X152448100Y-90009041D01*
X152495720Y-89913803D01*
X152543339Y-89866184D01*
X152638577Y-89818565D01*
X152733815Y-89818565D01*
X152876672Y-89866184D01*
X153448100Y-90437613D01*
X153448100Y-89818565D01*
%TO.C,D1*%
X159684404Y-100112380D02*
X159684404Y-99112380D01*
X159922500Y-99112380D01*
X160065357Y-99160000D01*
X160160595Y-99255238D01*
X160208214Y-99350476D01*
X160255833Y-99540952D01*
X160255833Y-99683809D01*
X160208214Y-99874285D01*
X160160595Y-99969523D01*
X160065357Y-100064761D01*
X159922500Y-100112380D01*
X159684404Y-100112380D01*
X161208214Y-100112380D02*
X160636785Y-100112380D01*
X160922500Y-100112380D02*
X160922500Y-99112380D01*
X160827261Y-99255238D01*
X160732023Y-99350476D01*
X160636785Y-99398095D01*
%TO.C,R9*%
X139679053Y-89256660D02*
X139345720Y-88780470D01*
X139107624Y-89256660D02*
X139107624Y-88256660D01*
X139488577Y-88256660D01*
X139583815Y-88304280D01*
X139631434Y-88351899D01*
X139679053Y-88447137D01*
X139679053Y-88589994D01*
X139631434Y-88685232D01*
X139583815Y-88732851D01*
X139488577Y-88780470D01*
X139107624Y-88780470D01*
X140155243Y-89256660D02*
X140345720Y-89256660D01*
X140440958Y-89209041D01*
X140488577Y-89161422D01*
X140583815Y-89018565D01*
X140631434Y-88828089D01*
X140631434Y-88447137D01*
X140583815Y-88351899D01*
X140536196Y-88304280D01*
X140440958Y-88256660D01*
X140250481Y-88256660D01*
X140155243Y-88304280D01*
X140107624Y-88351899D01*
X140060005Y-88447137D01*
X140060005Y-88685232D01*
X140107624Y-88780470D01*
X140155243Y-88828089D01*
X140250481Y-88875708D01*
X140440958Y-88875708D01*
X140536196Y-88828089D01*
X140583815Y-88780470D01*
X140631434Y-88685232D01*
%TO.C,C9*%
X144777142Y-100156666D02*
X144824761Y-100204285D01*
X144872380Y-100347142D01*
X144872380Y-100442380D01*
X144824761Y-100585238D01*
X144729523Y-100680476D01*
X144634285Y-100728095D01*
X144443809Y-100775714D01*
X144300952Y-100775714D01*
X144110476Y-100728095D01*
X144015238Y-100680476D01*
X143920000Y-100585238D01*
X143872380Y-100442380D01*
X143872380Y-100347142D01*
X143920000Y-100204285D01*
X143967619Y-100156666D01*
X144872380Y-99680476D02*
X144872380Y-99490000D01*
X144824761Y-99394761D01*
X144777142Y-99347142D01*
X144634285Y-99251904D01*
X144443809Y-99204285D01*
X144062857Y-99204285D01*
X143967619Y-99251904D01*
X143920000Y-99299523D01*
X143872380Y-99394761D01*
X143872380Y-99585238D01*
X143920000Y-99680476D01*
X143967619Y-99728095D01*
X144062857Y-99775714D01*
X144300952Y-99775714D01*
X144396190Y-99728095D01*
X144443809Y-99680476D01*
X144491428Y-99585238D01*
X144491428Y-99394761D01*
X144443809Y-99299523D01*
X144396190Y-99251904D01*
X144300952Y-99204285D01*
%TO.C,C6*%
X159517142Y-92586666D02*
X159564761Y-92634285D01*
X159612380Y-92777142D01*
X159612380Y-92872380D01*
X159564761Y-93015238D01*
X159469523Y-93110476D01*
X159374285Y-93158095D01*
X159183809Y-93205714D01*
X159040952Y-93205714D01*
X158850476Y-93158095D01*
X158755238Y-93110476D01*
X158660000Y-93015238D01*
X158612380Y-92872380D01*
X158612380Y-92777142D01*
X158660000Y-92634285D01*
X158707619Y-92586666D01*
X158612380Y-91729523D02*
X158612380Y-91920000D01*
X158660000Y-92015238D01*
X158707619Y-92062857D01*
X158850476Y-92158095D01*
X159040952Y-92205714D01*
X159421904Y-92205714D01*
X159517142Y-92158095D01*
X159564761Y-92110476D01*
X159612380Y-92015238D01*
X159612380Y-91824761D01*
X159564761Y-91729523D01*
X159517142Y-91681904D01*
X159421904Y-91634285D01*
X159183809Y-91634285D01*
X159088571Y-91681904D01*
X159040952Y-91729523D01*
X158993333Y-91824761D01*
X158993333Y-92015238D01*
X159040952Y-92110476D01*
X159088571Y-92158095D01*
X159183809Y-92205714D01*
%TO.C,C12*%
X134987142Y-103912857D02*
X135034761Y-103960476D01*
X135082380Y-104103333D01*
X135082380Y-104198571D01*
X135034761Y-104341428D01*
X134939523Y-104436666D01*
X134844285Y-104484285D01*
X134653809Y-104531904D01*
X134510952Y-104531904D01*
X134320476Y-104484285D01*
X134225238Y-104436666D01*
X134130000Y-104341428D01*
X134082380Y-104198571D01*
X134082380Y-104103333D01*
X134130000Y-103960476D01*
X134177619Y-103912857D01*
X135082380Y-102960476D02*
X135082380Y-103531904D01*
X135082380Y-103246190D02*
X134082380Y-103246190D01*
X134225238Y-103341428D01*
X134320476Y-103436666D01*
X134368095Y-103531904D01*
X134177619Y-102579523D02*
X134130000Y-102531904D01*
X134082380Y-102436666D01*
X134082380Y-102198571D01*
X134130000Y-102103333D01*
X134177619Y-102055714D01*
X134272857Y-102008095D01*
X134368095Y-102008095D01*
X134510952Y-102055714D01*
X135082380Y-102627142D01*
X135082380Y-102008095D01*
%TO.C,R2*%
X152483333Y-107672380D02*
X152150000Y-107196190D01*
X151911904Y-107672380D02*
X151911904Y-106672380D01*
X152292857Y-106672380D01*
X152388095Y-106720000D01*
X152435714Y-106767619D01*
X152483333Y-106862857D01*
X152483333Y-107005714D01*
X152435714Y-107100952D01*
X152388095Y-107148571D01*
X152292857Y-107196190D01*
X151911904Y-107196190D01*
X152864285Y-106767619D02*
X152911904Y-106720000D01*
X153007142Y-106672380D01*
X153245238Y-106672380D01*
X153340476Y-106720000D01*
X153388095Y-106767619D01*
X153435714Y-106862857D01*
X153435714Y-106958095D01*
X153388095Y-107100952D01*
X152816666Y-107672380D01*
X153435714Y-107672380D01*
%TO.C,R4*%
X143204880Y-110806666D02*
X142728690Y-111140000D01*
X143204880Y-111378095D02*
X142204880Y-111378095D01*
X142204880Y-110997142D01*
X142252500Y-110901904D01*
X142300119Y-110854285D01*
X142395357Y-110806666D01*
X142538214Y-110806666D01*
X142633452Y-110854285D01*
X142681071Y-110901904D01*
X142728690Y-110997142D01*
X142728690Y-111378095D01*
X142538214Y-109949523D02*
X143204880Y-109949523D01*
X142157261Y-110187619D02*
X142871547Y-110425714D01*
X142871547Y-109806666D01*
%TO.C,R6*%
X139679053Y-87556660D02*
X139345720Y-87080470D01*
X139107624Y-87556660D02*
X139107624Y-86556660D01*
X139488577Y-86556660D01*
X139583815Y-86604280D01*
X139631434Y-86651899D01*
X139679053Y-86747137D01*
X139679053Y-86889994D01*
X139631434Y-86985232D01*
X139583815Y-87032851D01*
X139488577Y-87080470D01*
X139107624Y-87080470D01*
X140536196Y-86556660D02*
X140345720Y-86556660D01*
X140250481Y-86604280D01*
X140202862Y-86651899D01*
X140107624Y-86794756D01*
X140060005Y-86985232D01*
X140060005Y-87366184D01*
X140107624Y-87461422D01*
X140155243Y-87509041D01*
X140250481Y-87556660D01*
X140440958Y-87556660D01*
X140536196Y-87509041D01*
X140583815Y-87461422D01*
X140631434Y-87366184D01*
X140631434Y-87128089D01*
X140583815Y-87032851D01*
X140536196Y-86985232D01*
X140440958Y-86937613D01*
X140250481Y-86937613D01*
X140155243Y-86985232D01*
X140107624Y-87032851D01*
X140060005Y-87128089D01*
%TO.C,C8*%
X140229053Y-86131422D02*
X140181434Y-86179041D01*
X140038577Y-86226660D01*
X139943339Y-86226660D01*
X139800481Y-86179041D01*
X139705243Y-86083803D01*
X139657624Y-85988565D01*
X139610005Y-85798089D01*
X139610005Y-85655232D01*
X139657624Y-85464756D01*
X139705243Y-85369518D01*
X139800481Y-85274280D01*
X139943339Y-85226660D01*
X140038577Y-85226660D01*
X140181434Y-85274280D01*
X140229053Y-85321899D01*
X140800481Y-85655232D02*
X140705243Y-85607613D01*
X140657624Y-85559994D01*
X140610005Y-85464756D01*
X140610005Y-85417137D01*
X140657624Y-85321899D01*
X140705243Y-85274280D01*
X140800481Y-85226660D01*
X140990958Y-85226660D01*
X141086196Y-85274280D01*
X141133815Y-85321899D01*
X141181434Y-85417137D01*
X141181434Y-85464756D01*
X141133815Y-85559994D01*
X141086196Y-85607613D01*
X140990958Y-85655232D01*
X140800481Y-85655232D01*
X140705243Y-85702851D01*
X140657624Y-85750470D01*
X140610005Y-85845708D01*
X140610005Y-86036184D01*
X140657624Y-86131422D01*
X140705243Y-86179041D01*
X140800481Y-86226660D01*
X140990958Y-86226660D01*
X141086196Y-86179041D01*
X141133815Y-86131422D01*
X141181434Y-86036184D01*
X141181434Y-85845708D01*
X141133815Y-85750470D01*
X141086196Y-85702851D01*
X140990958Y-85655232D01*
%TO.C,C7*%
X147767613Y-84122862D02*
X147719994Y-84170481D01*
X147577137Y-84218100D01*
X147481899Y-84218100D01*
X147339041Y-84170481D01*
X147243803Y-84075243D01*
X147196184Y-83980005D01*
X147148565Y-83789529D01*
X147148565Y-83646672D01*
X147196184Y-83456196D01*
X147243803Y-83360958D01*
X147339041Y-83265720D01*
X147481899Y-83218100D01*
X147577137Y-83218100D01*
X147719994Y-83265720D01*
X147767613Y-83313339D01*
X148100946Y-83218100D02*
X148767613Y-83218100D01*
X148339041Y-84218100D01*
%TO.C,R7*%
X139629053Y-91006660D02*
X139295720Y-90530470D01*
X139057624Y-91006660D02*
X139057624Y-90006660D01*
X139438577Y-90006660D01*
X139533815Y-90054280D01*
X139581434Y-90101899D01*
X139629053Y-90197137D01*
X139629053Y-90339994D01*
X139581434Y-90435232D01*
X139533815Y-90482851D01*
X139438577Y-90530470D01*
X139057624Y-90530470D01*
X139962386Y-90006660D02*
X140629053Y-90006660D01*
X140200481Y-91006660D01*
%TO.C,R8*%
X145823333Y-98112380D02*
X145490000Y-97636190D01*
X145251904Y-98112380D02*
X145251904Y-97112380D01*
X145632857Y-97112380D01*
X145728095Y-97160000D01*
X145775714Y-97207619D01*
X145823333Y-97302857D01*
X145823333Y-97445714D01*
X145775714Y-97540952D01*
X145728095Y-97588571D01*
X145632857Y-97636190D01*
X145251904Y-97636190D01*
X146394761Y-97540952D02*
X146299523Y-97493333D01*
X146251904Y-97445714D01*
X146204285Y-97350476D01*
X146204285Y-97302857D01*
X146251904Y-97207619D01*
X146299523Y-97160000D01*
X146394761Y-97112380D01*
X146585238Y-97112380D01*
X146680476Y-97160000D01*
X146728095Y-97207619D01*
X146775714Y-97302857D01*
X146775714Y-97350476D01*
X146728095Y-97445714D01*
X146680476Y-97493333D01*
X146585238Y-97540952D01*
X146394761Y-97540952D01*
X146299523Y-97588571D01*
X146251904Y-97636190D01*
X146204285Y-97731428D01*
X146204285Y-97921904D01*
X146251904Y-98017142D01*
X146299523Y-98064761D01*
X146394761Y-98112380D01*
X146585238Y-98112380D01*
X146680476Y-98064761D01*
X146728095Y-98017142D01*
X146775714Y-97921904D01*
X146775714Y-97731428D01*
X146728095Y-97636190D01*
X146680476Y-97588571D01*
X146585238Y-97540952D01*
D11*
%TO.C,C5*%
X146554165Y-107590000D02*
X146785835Y-107590000D01*
X146554165Y-108310000D02*
X146785835Y-108310000D01*
%TO.C,R3*%
X143792510Y-110907615D02*
X143792510Y-110572373D01*
X144552510Y-110907615D02*
X144552510Y-110572373D01*
%TO.C,R15*%
X157784724Y-101962500D02*
X157275276Y-101962500D01*
X157784724Y-100917500D02*
X157275276Y-100917500D01*
%TO.C,C4*%
X149520000Y-102536267D02*
X149520000Y-102243733D01*
X150540000Y-102536267D02*
X150540000Y-102243733D01*
%TO.C,U1*%
X140230000Y-96892500D02*
X141030000Y-96892500D01*
X140230000Y-100012500D02*
X139430000Y-100012500D01*
X140230000Y-100012500D02*
X142030000Y-100012500D01*
X140230000Y-96892500D02*
X139430000Y-96892500D01*
%TO.C,C13*%
X156844165Y-103950000D02*
X157075835Y-103950000D01*
X156844165Y-103230000D02*
X157075835Y-103230000D01*
%TO.C,TP1*%
X135120000Y-94840000D02*
X135120000Y-93440000D01*
X135120000Y-93440000D02*
X136520000Y-93440000D01*
X136520000Y-93440000D02*
X136520000Y-94840000D01*
X136520000Y-94840000D02*
X135120000Y-94840000D01*
%TO.C,R13*%
X142340996Y-83116780D02*
X142850444Y-83116780D01*
X142340996Y-82071780D02*
X142850444Y-82071780D01*
%TO.C,R16*%
X153784724Y-100152500D02*
X153275276Y-100152500D01*
X153784724Y-99107500D02*
X153275276Y-99107500D01*
%TO.C,C1*%
X150254165Y-108810000D02*
X150485835Y-108810000D01*
X150254165Y-108090000D02*
X150485835Y-108090000D01*
%TO.C,R12*%
X142340996Y-83771780D02*
X142850444Y-83771780D01*
X142340996Y-84816780D02*
X142850444Y-84816780D01*
%TO.C,L2*%
X157520000Y-82640000D02*
X157520000Y-88640000D01*
X153320000Y-82640000D02*
X153320000Y-88640000D01*
%TO.C,R11*%
X148942500Y-97294724D02*
X148942500Y-96785276D01*
X147897500Y-97294724D02*
X147897500Y-96785276D01*
%TO.C,R5*%
X146755276Y-105877500D02*
X147264724Y-105877500D01*
X146755276Y-106922500D02*
X147264724Y-106922500D01*
%TO.C,C11*%
X143490000Y-104774165D02*
X143490000Y-105005835D01*
X142770000Y-104774165D02*
X142770000Y-105005835D01*
%TO.C,U2*%
X150855720Y-92304280D02*
X150380720Y-92304280D01*
X147135720Y-88584280D02*
X147610720Y-88584280D01*
X147135720Y-91829280D02*
X147135720Y-92304280D01*
X150855720Y-89059280D02*
X150855720Y-88584280D01*
X150855720Y-91829280D02*
X150855720Y-92304280D01*
X147135720Y-92304280D02*
X147610720Y-92304280D01*
X147135720Y-89059280D02*
X147135720Y-88584280D01*
%TO.C,C3*%
X155245720Y-90698013D02*
X155245720Y-90990547D01*
X156265720Y-90698013D02*
X156265720Y-90990547D01*
%TO.C,R10*%
X142340996Y-92776780D02*
X142850444Y-92776780D01*
X142340996Y-91731780D02*
X142850444Y-91731780D01*
%TO.C,R1*%
X150222379Y-106500000D02*
X150557621Y-106500000D01*
X150222379Y-105740000D02*
X150557621Y-105740000D01*
%TO.C,C10*%
X135520000Y-97430000D02*
X135520000Y-100290000D01*
X135520000Y-100290000D02*
X137440000Y-100290000D01*
X137440000Y-100290000D02*
X137440000Y-97430000D01*
%TO.C,R14*%
X142340996Y-94476780D02*
X142850444Y-94476780D01*
X142340996Y-93431780D02*
X142850444Y-93431780D01*
%TO.C,L1*%
X153570000Y-95314280D02*
X153570000Y-95714280D01*
X156770000Y-95314280D02*
X156770000Y-95714280D01*
%TO.C,C2*%
X153885720Y-90378445D02*
X153885720Y-90610115D01*
X154605720Y-90378445D02*
X154605720Y-90610115D01*
%TO.C,J4*%
X166060000Y-94760000D02*
X163940000Y-94760000D01*
X165000000Y-90640000D02*
X166060000Y-90640000D01*
X164000000Y-90640000D02*
X163940000Y-90640000D01*
X163940000Y-90640000D02*
X163940000Y-94760000D01*
X166060000Y-90640000D02*
X166060000Y-91700000D01*
X164000000Y-90640000D02*
X164000000Y-92700000D01*
X166060000Y-92700000D02*
X166060000Y-94760000D01*
X164000000Y-92700000D02*
X166060000Y-92700000D01*
%TO.C,U4*%
X153530000Y-103950000D02*
X152730000Y-103950000D01*
X153530000Y-100830000D02*
X154330000Y-100830000D01*
X153530000Y-103950000D02*
X154330000Y-103950000D01*
X153530000Y-100830000D02*
X151730000Y-100830000D01*
%TO.C,D1*%
X155915000Y-100395000D02*
X158375000Y-100395000D01*
X155915000Y-98925000D02*
X155915000Y-100395000D01*
X158375000Y-98925000D02*
X155915000Y-98925000D01*
%TO.C,R9*%
X142340996Y-88331780D02*
X142850444Y-88331780D01*
X142340996Y-89376780D02*
X142850444Y-89376780D01*
%TO.C,C9*%
X143470000Y-99884165D02*
X143470000Y-100115835D01*
X142750000Y-99884165D02*
X142750000Y-100115835D01*
%TO.C,TP3*%
X150970000Y-80190000D02*
X152370000Y-80190000D01*
X150970000Y-81590000D02*
X150970000Y-80190000D01*
X152370000Y-81590000D02*
X150970000Y-81590000D01*
X152370000Y-80190000D02*
X152370000Y-81590000D01*
%TO.C,C6*%
X159880720Y-95775532D02*
X159880720Y-95253028D01*
X158410720Y-95775532D02*
X158410720Y-95253028D01*
%TO.C,C12*%
X135520000Y-102280000D02*
X135520000Y-105140000D01*
X137440000Y-105140000D02*
X137440000Y-102280000D01*
X135520000Y-105140000D02*
X137440000Y-105140000D01*
%TO.C,TP4*%
X141050000Y-106480000D02*
X141050000Y-107880000D01*
X141050000Y-107880000D02*
X139650000Y-107880000D01*
X139650000Y-106480000D02*
X141050000Y-106480000D01*
X139650000Y-107880000D02*
X139650000Y-106480000D01*
%TO.C,J3*%
X165000000Y-100060000D02*
X163940000Y-100060000D01*
X166000000Y-98000000D02*
X163940000Y-98000000D01*
X166000000Y-100060000D02*
X166000000Y-98000000D01*
X163940000Y-100060000D02*
X163940000Y-99000000D01*
X166000000Y-100060000D02*
X166060000Y-100060000D01*
X166060000Y-100060000D02*
X166060000Y-95940000D01*
X163940000Y-95940000D02*
X166060000Y-95940000D01*
X163940000Y-98000000D02*
X163940000Y-95940000D01*
%TO.C,J1*%
X158812336Y-110654314D02*
X157482336Y-108350686D01*
X156560670Y-111954314D02*
X158812336Y-110654314D01*
X156560670Y-111954314D02*
X155230670Y-109650686D01*
X155460818Y-112589314D02*
X154309004Y-113254314D01*
X154309004Y-113254314D02*
X153644004Y-112102500D01*
X155230670Y-109650686D02*
X157482336Y-108350686D01*
%TO.C,R2*%
X150222379Y-106910000D02*
X150557621Y-106910000D01*
X150222379Y-107670000D02*
X150557621Y-107670000D01*
%TO.C,R4*%
X145882500Y-110917621D02*
X145882500Y-110582379D01*
X145122500Y-110917621D02*
X145122500Y-110582379D01*
D12*
%TO.C,IC1*%
X148102500Y-111925000D02*
X150402500Y-111925000D01*
X148102500Y-109515000D02*
X150402500Y-109515000D01*
D13*
X146827500Y-109970000D02*
G75*
G03*
X146827500Y-109970000I-100000J0D01*
G01*
D11*
%TO.C,R6*%
X142340996Y-87676780D02*
X142850444Y-87676780D01*
X142340996Y-86631780D02*
X142850444Y-86631780D01*
%TO.C,C8*%
X142711555Y-86084280D02*
X142479885Y-86084280D01*
X142711555Y-85364280D02*
X142479885Y-85364280D01*
%TO.C,C7*%
X150916267Y-84230000D02*
X150623733Y-84230000D01*
X150916267Y-83210000D02*
X150623733Y-83210000D01*
%TO.C,R7*%
X142340996Y-90031780D02*
X142850444Y-90031780D01*
X142340996Y-91076780D02*
X142850444Y-91076780D01*
%TO.C,TP2*%
X160960000Y-97120000D02*
X160960000Y-95720000D01*
X162360000Y-97120000D02*
X160960000Y-97120000D01*
X160960000Y-95720000D02*
X162360000Y-95720000D01*
X162360000Y-95720000D02*
X162360000Y-97120000D01*
%TO.C,U3*%
X140230000Y-104862500D02*
X139430000Y-104862500D01*
X140230000Y-101742500D02*
X139430000Y-101742500D01*
X140230000Y-104862500D02*
X142030000Y-104862500D01*
X140230000Y-101742500D02*
X141030000Y-101742500D01*
%TO.C,J2*%
X127895000Y-103130000D02*
X133095000Y-103130000D01*
X130495000Y-87770000D02*
X133095000Y-87770000D01*
X127895000Y-90370000D02*
X130495000Y-90370000D01*
X127895000Y-89100000D02*
X127895000Y-87770000D01*
X130495000Y-90370000D02*
X130495000Y-87770000D01*
X133095000Y-87770000D02*
X133095000Y-103130000D01*
X127895000Y-87770000D02*
X129225000Y-87770000D01*
X127895000Y-90370000D02*
X127895000Y-103130000D01*
%TO.C,R8*%
X146194724Y-95587500D02*
X145685276Y-95587500D01*
X146194724Y-96632500D02*
X145685276Y-96632500D01*
%TD*%
M02*
