M48
; DRILL file {KiCad (6.0.4)} date Thu May 25 13:34:35 2023
; FORMAT={-:-/ absolute / inch / decimal}
; #@! TF.CreationDate,2023-05-25T13:34:35-04:00
; #@! TF.GenerationSoftware,Kicad,Pcbnew,(6.0.4)
; #@! TF.FileFunction,Plated,1,2,PTH
FMAT,2
INCH
; #@! TA.AperFunction,Plated,PTH,ViaDrill
T1C0.0130
; #@! TA.AperFunction,Plated,PTH,ViaDrill
T2C0.0157
; #@! TA.AperFunction,Plated,PTH,ViaDrill
T3C0.0160
; #@! TA.AperFunction,Plated,PTH,ViaDrill
T4C0.0170
; #@! TA.AperFunction,Plated,PTH,ComponentDrill
T5C0.0315
; #@! TA.AperFunction,Plated,PTH,ComponentDrill
T6C0.0394
%
G90
G05
T1
X5.1831Y-3.3921
X5.2224Y-4.1402
X5.2224Y-4.2189
X5.2618Y-3.2346
X5.2618Y-3.3134
X5.2618Y-3.3921
X5.2618Y-3.5496
X5.3012Y-4.2189
X5.3012Y-4.2976
X5.3406Y-3.1559
X5.3406Y-3.2346
X5.3406Y-3.3134
X5.3406Y-3.3921
X5.3406Y-3.5496
X5.3799Y-4.2189
X5.3799Y-4.2976
X5.3799Y-4.3764
X5.4193Y-3.1559
X5.4193Y-3.4709
X5.4193Y-3.5496
X5.4587Y-4.2976
X5.4587Y-4.3764
X5.498Y-3.0772
X5.498Y-3.1559
X5.5374Y-4.4551
X5.5768Y-3.0772
X5.5768Y-3.1559
X5.6161Y-4.4551
X5.6161Y-4.5339
X5.6555Y-2.9984
X5.6555Y-3.0772
X5.6555Y-3.1559
X5.6949Y-4.4551
X5.6988Y-3.5299
X5.6996Y-3.463
X5.7047Y-3.5953
X5.7079Y-3.6665
X5.7343Y-3.0772
X5.7343Y-3.1559
X5.7673Y-3.652
X5.7736Y-4.4551
X5.776Y-3.4717
X5.813Y-3.0772
X5.813Y-3.1559
X5.813Y-3.2346
X5.8429Y-3.5382
X5.8429Y-3.5805
X5.8524Y-4.4551
X5.888Y-3.5388
X5.8884Y-3.5805
X5.8917Y-2.9984
X5.8917Y-3.0772
X5.8917Y-3.1559
X5.8917Y-3.2346
X5.8977Y-4.2697
X5.9311Y-4.4551
X5.9311Y-4.5339
X5.9524Y-3.4492
X5.9705Y-2.9984
X5.9705Y-3.0772
X6.0098Y-4.4551
X6.013Y-3.3689
X6.0492Y-3.0772
X6.0492Y-3.1559
X6.1134Y-3.3705
X6.128Y-3.1559
X6.1315Y-3.661
X6.2067Y-3.1559
X6.2067Y-4.2189
X6.2075Y-3.75
X6.2854Y-3.1953
X6.2854Y-3.274
X6.2854Y-4.1402
X6.2854Y-4.2189
X6.2854Y-4.2976
X6.3642Y-3.274
X6.3642Y-3.3528
X6.3642Y-3.4315
X6.3642Y-3.5102
X6.3642Y-4.0614
X6.3642Y-4.1402
X6.3642Y-4.2189
X6.4429Y-3.274
X6.4429Y-3.4315
X6.4429Y-3.5102
X6.4429Y-3.9827
X6.4429Y-4.0614
X6.5217Y-3.4315
X6.5217Y-3.5102
X6.5217Y-3.9827
T2
X5.635Y-3.9142
X5.635Y-4.1071
X5.6499Y-3.2517
X5.6499Y-3.3187
X5.6499Y-3.4313
X5.6499Y-3.5651
X5.7097Y-3.7839
X5.7372Y-3.4167
X5.801Y-3.4332
X5.8416Y-3.7191
X5.8961Y-3.3799
X5.9067Y-4.0651
X5.9892Y-3.5411
X6.2402Y-3.9228
T3
X5.5256Y-4.2197
T4
X6.0413Y-3.637
X6.1571Y-4.1287
T5
X6.4961Y-3.6102
X6.4961Y-3.689
X6.4961Y-3.8189
X6.4961Y-3.8976
T6
X5.0876Y-3.5079
X5.0876Y-3.6079
X5.0876Y-3.7079
X5.0876Y-3.8079
X5.0876Y-3.9079
X5.0876Y-4.0079
X5.1876Y-3.5079
X5.1876Y-3.6079
X5.1876Y-3.7079
X5.1876Y-3.8079
X5.1876Y-3.9079
X5.1876Y-4.0079
X6.0943Y-4.3873
X6.1809Y-4.3373
T0
M30
