%TF.GenerationSoftware,KiCad,Pcbnew,(6.0.4)*%
%TF.CreationDate,2023-05-25T13:34:33-04:00*%
%TF.ProjectId,PWR,5057522e-6b69-4636-9164-5f7063625858,rev?*%
%TF.SameCoordinates,Original*%
%TF.FileFunction,Copper,L2,Bot*%
%TF.FilePolarity,Positive*%
%FSLAX46Y46*%
G04 Gerber Fmt 4.6, Leading zero omitted, Abs format (unit mm)*
G04 Created by KiCad (PCBNEW (6.0.4)) date 2023-05-25 13:34:33*
%MOMM*%
%LPD*%
G01*
G04 APERTURE LIST*
G04 Aperture macros list*
%AMHorizOval*
0 Thick line with rounded ends*
0 $1 width*
0 $2 $3 position (X,Y) of the first rounded end (center of the circle)*
0 $4 $5 position (X,Y) of the second rounded end (center of the circle)*
0 Add line between two ends*
20,1,$1,$2,$3,$4,$5,0*
0 Add two circle primitives to create the rounded ends*
1,1,$1,$2,$3*
1,1,$1,$4,$5*%
%AMRotRect*
0 Rectangle, with rotation*
0 The origin of the aperture is its center*
0 $1 length*
0 $2 width*
0 $3 Rotation angle, in degrees counterclockwise*
0 Add horizontal line*
21,1,$1,$2,0,0,$3*%
G04 Aperture macros list end*
%TA.AperFunction,ComponentPad*%
%ADD10R,1.350000X1.350000*%
%TD*%
%TA.AperFunction,ComponentPad*%
%ADD11O,1.350000X1.350000*%
%TD*%
%TA.AperFunction,ComponentPad*%
%ADD12RotRect,1.700000X1.700000X120.000000*%
%TD*%
%TA.AperFunction,ComponentPad*%
%ADD13HorizOval,1.700000X0.000000X0.000000X0.000000X0.000000X0*%
%TD*%
%TA.AperFunction,ComponentPad*%
%ADD14R,1.700000X1.700000*%
%TD*%
%TA.AperFunction,ComponentPad*%
%ADD15O,1.700000X1.700000*%
%TD*%
%TA.AperFunction,ViaPad*%
%ADD16C,0.660400*%
%TD*%
%TA.AperFunction,ViaPad*%
%ADD17C,0.800000*%
%TD*%
%TA.AperFunction,ViaPad*%
%ADD18C,0.863600*%
%TD*%
%TA.AperFunction,ViaPad*%
%ADD19C,0.762000*%
%TD*%
%TA.AperFunction,Conductor*%
%ADD20C,0.254000*%
%TD*%
%TA.AperFunction,Conductor*%
%ADD21C,0.762000*%
%TD*%
G04 APERTURE END LIST*
D10*
%TO.P,J4,1,Pin_1*%
%TO.N,/SC*%
X165000000Y-91700000D03*
D11*
%TO.P,J4,2,Pin_2*%
X165000000Y-93700000D03*
%TD*%
D10*
%TO.P,J3,1,Pin_1*%
%TO.N,/VBAT*%
X165000000Y-99000000D03*
D11*
%TO.P,J3,2,Pin_2*%
%TO.N,GND*%
X165000000Y-97000000D03*
%TD*%
D12*
%TO.P,J1,1,Pin_1*%
%TO.N,Net-(C1-Pad1)*%
X154795818Y-111437500D03*
D13*
%TO.P,J1,2,Pin_2*%
%TO.N,GND*%
X156995523Y-110167500D03*
%TD*%
D14*
%TO.P,J2,1,Pin_1*%
%TO.N,GND*%
X129225000Y-89100000D03*
D15*
%TO.P,J2,2,Pin_2*%
%TO.N,/~{EN}*%
X131765000Y-89100000D03*
%TO.P,J2,3,Pin_3*%
%TO.N,GND*%
X129225000Y-91640000D03*
%TO.P,J2,4,Pin_4*%
%TO.N,/VBAT_OK*%
X131765000Y-91640000D03*
%TO.P,J2,5,Pin_5*%
%TO.N,GND*%
X129225000Y-94180000D03*
%TO.P,J2,6,Pin_6*%
%TO.N,/VBAT*%
X131765000Y-94180000D03*
%TO.P,J2,7,Pin_7*%
%TO.N,+3V3*%
X129225000Y-96720000D03*
%TO.P,J2,8,Pin_8*%
X131765000Y-96720000D03*
%TO.P,J2,9,Pin_9*%
%TO.N,+1V8*%
X129225000Y-99260000D03*
%TO.P,J2,10,Pin_10*%
X131765000Y-99260000D03*
%TO.P,J2,11,Pin_11*%
%TO.N,GND*%
X129225000Y-101800000D03*
%TO.P,J2,12,Pin_12*%
%TO.N,+5V*%
X131765000Y-101800000D03*
%TD*%
D16*
%TO.N,Net-(C1-Pad1)*%
X149802494Y-108449999D03*
D17*
%TO.N,Net-(C2-Pad1)*%
X152125720Y-89944280D03*
X149760000Y-85850000D03*
D16*
%TO.N,GND*%
X133650000Y-90160000D03*
X155740000Y-92990000D03*
X139650000Y-80160000D03*
X159650000Y-107160000D03*
X161650000Y-107160000D03*
X151650000Y-76160000D03*
X144770000Y-87960000D03*
X135650000Y-90160000D03*
X136650000Y-109160000D03*
X161650000Y-87160000D03*
X142650000Y-113160000D03*
X141650000Y-78160000D03*
X137650000Y-80160000D03*
X134650000Y-109160000D03*
X165650000Y-101160000D03*
X153650000Y-78160000D03*
X151650000Y-78160000D03*
X148410000Y-89870000D03*
X150650000Y-115160000D03*
X133650000Y-82160000D03*
X136650000Y-111160000D03*
X146650000Y-113160000D03*
X149650000Y-76160000D03*
X147650000Y-80160000D03*
X149650000Y-80160000D03*
X145650000Y-80160000D03*
X135650000Y-86160000D03*
X163650000Y-83160000D03*
X135650000Y-84160000D03*
X151190000Y-87610000D03*
X159650000Y-83160000D03*
X147650000Y-82160000D03*
X146490000Y-92760000D03*
X143650000Y-80160000D03*
X146710000Y-88180000D03*
X163650000Y-89160000D03*
X159650000Y-81160000D03*
X157650000Y-80160000D03*
X157670000Y-95250000D03*
X147650000Y-78160000D03*
X161650000Y-89160000D03*
X144900000Y-91320000D03*
X163650000Y-87160000D03*
X155280000Y-85610000D03*
X138650000Y-109160000D03*
X148410000Y-90944280D03*
X163650000Y-103160000D03*
X159650000Y-105160000D03*
X144980000Y-93130000D03*
X132650000Y-107160000D03*
X149650000Y-82160000D03*
X131650000Y-86160000D03*
X135650000Y-82160000D03*
X161650000Y-105160000D03*
X152730000Y-85570000D03*
X149650000Y-78160000D03*
X165650000Y-89160000D03*
X153650000Y-80160000D03*
X149565720Y-90944280D03*
X144650000Y-113160000D03*
X159650000Y-109160000D03*
X142650000Y-115160000D03*
X150650000Y-113160000D03*
X161650000Y-85160000D03*
X143650000Y-76160000D03*
X143650000Y-78160000D03*
X157650000Y-107160000D03*
X152650000Y-113160000D03*
X138650000Y-111160000D03*
X132650000Y-105160000D03*
X137650000Y-90160000D03*
X155650000Y-80160000D03*
X136650000Y-107160000D03*
X145650000Y-78160000D03*
X163650000Y-101160000D03*
X139650000Y-78160000D03*
X134650000Y-107160000D03*
X149555000Y-89885000D03*
X148650000Y-113160000D03*
X135650000Y-80160000D03*
X165650000Y-87160000D03*
X161650000Y-83160000D03*
X137650000Y-88160000D03*
X133650000Y-84160000D03*
X140650000Y-113160000D03*
X144750000Y-89660000D03*
X133650000Y-86160000D03*
X141650000Y-80160000D03*
X161650000Y-103160000D03*
D18*
%TO.N,/VBAT*%
X153450011Y-92380003D03*
D17*
X150030000Y-103252500D03*
X143130000Y-99420000D03*
X143130000Y-104320000D03*
%TO.N,+5V*%
X158500000Y-99640000D03*
D18*
X156390010Y-104869996D03*
D19*
X140350011Y-107179999D03*
D17*
%TO.N,/~{EN}*%
X147345720Y-87204280D03*
X143508220Y-82594280D03*
%TO.N,/VBAT_OK*%
X148375720Y-94464280D03*
%TO.N,Net-(R6-Pad2)*%
X143508220Y-87154280D03*
X145027500Y-96110000D03*
X143508220Y-90554280D03*
%TO.N,/VOUT_EN*%
X145725720Y-86784280D03*
X143508220Y-84294280D03*
%TD*%
D20*
%TO.N,Net-(C1-Pad1)*%
X154795818Y-111437500D02*
X150527500Y-111437500D01*
X149802500Y-110712500D02*
X149802500Y-108450000D01*
X150527500Y-111437500D02*
X149802500Y-110712500D01*
%TO.N,Net-(C2-Pad1)*%
X149760000Y-85850000D02*
X151370000Y-85850000D01*
X151370000Y-85850000D02*
X152125720Y-86605720D01*
X152125720Y-86605720D02*
X152125720Y-89944280D01*
D21*
%TO.N,/VBAT*%
X150030000Y-103252500D02*
X150030000Y-101580000D01*
X153450011Y-92380003D02*
X153450011Y-98160002D01*
X161030000Y-98160000D02*
X161870000Y-99000000D01*
X144197500Y-103252500D02*
X143130000Y-104320000D01*
X147870000Y-99420000D02*
X143130000Y-99420000D01*
X150030000Y-101580000D02*
X153450000Y-98160000D01*
X150030000Y-101580000D02*
X147870000Y-99420000D01*
X150030000Y-103252500D02*
X144197500Y-103252500D01*
X153450000Y-98160000D02*
X161030000Y-98160000D01*
X161870000Y-99000000D02*
X165000000Y-99000000D01*
%TO.N,+5V*%
X134925989Y-101755989D02*
X140350000Y-107180000D01*
X153560000Y-107180000D02*
X154840000Y-107180000D01*
X153560000Y-107180000D02*
X140350000Y-107180000D01*
D20*
X158500000Y-103750000D02*
X157380000Y-104870000D01*
D21*
X131765000Y-101755989D02*
X134925989Y-101755989D01*
X154840000Y-107180000D02*
X156390000Y-105630000D01*
D20*
X157380000Y-104870000D02*
X156390000Y-104870000D01*
X158500000Y-99640000D02*
X158500000Y-103750000D01*
D21*
X156390000Y-105630000D02*
X156390000Y-104870000D01*
D20*
%TO.N,/~{EN}*%
X143508220Y-82594280D02*
X141565720Y-82594280D01*
X147345720Y-84534280D02*
X145405720Y-82594280D01*
X141565720Y-82594280D02*
X135104011Y-89055989D01*
X131765000Y-89055989D02*
X135104011Y-89055989D01*
X147345720Y-87204280D02*
X147345720Y-84534280D01*
X145405720Y-82594280D02*
X143508220Y-82594280D01*
%TO.N,/VBAT_OK*%
X148375720Y-96264280D02*
X146970000Y-97670000D01*
X146970000Y-97670000D02*
X144190000Y-97670000D01*
X135305989Y-91595989D02*
X135970000Y-92260000D01*
X148375720Y-94464280D02*
X148375720Y-96264280D01*
X144190000Y-97670000D02*
X141380000Y-97670000D01*
X135970000Y-92260000D02*
X141380000Y-97670000D01*
X131765000Y-91595989D02*
X135305989Y-91595989D01*
%TO.N,Net-(R6-Pad2)*%
X143508220Y-95628220D02*
X143990000Y-96110000D01*
X143508220Y-90554280D02*
X143508220Y-95628220D01*
X143508220Y-90554280D02*
X143508220Y-87154280D01*
X143990000Y-96110000D02*
X145027500Y-96110000D01*
%TO.N,/VOUT_EN*%
X145725720Y-85314280D02*
X144705720Y-84294280D01*
X144705720Y-84294280D02*
X143508220Y-84294280D01*
X145725720Y-86784280D02*
X145725720Y-85314280D01*
%TD*%
%TA.AperFunction,Conductor*%
%TO.N,GND*%
G36*
X147043950Y-72513907D02*
G01*
X152872575Y-75879065D01*
X166803151Y-83921887D01*
X166841799Y-83967946D01*
X166847100Y-83998010D01*
X166847100Y-106813968D01*
X166826535Y-106870469D01*
X166803152Y-106890091D01*
X158442007Y-111717400D01*
X147043950Y-118298071D01*
X146984736Y-118308512D01*
X146956050Y-118298071D01*
X143305801Y-116190599D01*
X145742314Y-116190599D01*
X145761421Y-116408994D01*
X145818162Y-116620753D01*
X145910812Y-116819442D01*
X146036557Y-116999024D01*
X146191575Y-117154042D01*
X146371157Y-117279787D01*
X146569846Y-117372437D01*
X146689955Y-117404620D01*
X146777902Y-117428186D01*
X146777904Y-117428186D01*
X146781605Y-117429178D01*
X146785421Y-117429512D01*
X146785422Y-117429512D01*
X146996182Y-117447951D01*
X147000000Y-117448285D01*
X147003818Y-117447951D01*
X147214578Y-117429512D01*
X147214579Y-117429512D01*
X147218395Y-117429178D01*
X147222096Y-117428186D01*
X147222098Y-117428186D01*
X147310045Y-117404620D01*
X147430154Y-117372437D01*
X147628843Y-117279787D01*
X147808425Y-117154042D01*
X147963443Y-116999024D01*
X148089188Y-116819442D01*
X148181838Y-116620753D01*
X148238579Y-116408994D01*
X148257686Y-116190599D01*
X148238579Y-115972204D01*
X148181838Y-115760445D01*
X148089188Y-115561756D01*
X147963443Y-115382174D01*
X147808425Y-115227156D01*
X147628843Y-115101411D01*
X147430154Y-115008761D01*
X147310045Y-114976578D01*
X147222098Y-114953012D01*
X147222096Y-114953012D01*
X147218395Y-114952020D01*
X147214579Y-114951686D01*
X147214578Y-114951686D01*
X147003818Y-114933247D01*
X147000000Y-114932913D01*
X146996182Y-114933247D01*
X146785422Y-114951686D01*
X146785421Y-114951686D01*
X146781605Y-114952020D01*
X146777904Y-114953012D01*
X146777902Y-114953012D01*
X146689955Y-114976578D01*
X146569846Y-115008761D01*
X146371157Y-115101411D01*
X146191575Y-115227156D01*
X146036557Y-115382174D01*
X145910812Y-115561756D01*
X145818162Y-115760445D01*
X145761421Y-115972204D01*
X145743471Y-116177375D01*
X145742314Y-116190599D01*
X143305801Y-116190599D01*
X135557993Y-111717400D01*
X129888361Y-108444036D01*
X149314462Y-108444036D01*
X149332405Y-108581250D01*
X149334927Y-108586981D01*
X149334927Y-108586982D01*
X149360271Y-108644581D01*
X149388138Y-108707913D01*
X149477181Y-108813842D01*
X149483408Y-108817987D01*
X149483906Y-108818664D01*
X149487062Y-108821486D01*
X149486470Y-108822148D01*
X149519045Y-108866413D01*
X149522600Y-108891158D01*
X149522600Y-110662472D01*
X149522301Y-110666550D01*
X149520806Y-110670903D01*
X149521111Y-110679014D01*
X149522538Y-110717036D01*
X149522600Y-110720334D01*
X149522600Y-110738531D01*
X149523342Y-110742515D01*
X149523379Y-110742917D01*
X149523689Y-110747699D01*
X149524718Y-110775101D01*
X149527922Y-110782559D01*
X149529139Y-110785391D01*
X149534792Y-110803997D01*
X149536843Y-110815008D01*
X149541103Y-110821919D01*
X149550025Y-110836393D01*
X149555960Y-110847818D01*
X149565879Y-110870904D01*
X149569619Y-110875457D01*
X149574039Y-110879877D01*
X149586708Y-110895904D01*
X149591557Y-110903771D01*
X149598017Y-110908683D01*
X149613428Y-110920402D01*
X149622378Y-110928216D01*
X150294208Y-111600046D01*
X150296878Y-111603140D01*
X150298899Y-111607274D01*
X150304846Y-111612791D01*
X150304847Y-111612792D01*
X150332741Y-111638667D01*
X150335117Y-111640955D01*
X150347988Y-111653826D01*
X150351329Y-111656118D01*
X150351644Y-111656380D01*
X150355235Y-111659534D01*
X150375344Y-111678187D01*
X150385751Y-111682339D01*
X150402895Y-111691493D01*
X150412136Y-111697832D01*
X150436579Y-111703632D01*
X150448857Y-111707515D01*
X150466431Y-111714527D01*
X150466434Y-111714528D01*
X150472192Y-111716825D01*
X150478056Y-111717400D01*
X150484306Y-111717400D01*
X150504602Y-111719775D01*
X150513590Y-111721908D01*
X150521630Y-111720814D01*
X150521631Y-111720814D01*
X150540816Y-111718203D01*
X150552668Y-111717400D01*
X153748621Y-111717400D01*
X153805122Y-111737965D01*
X153824744Y-111761348D01*
X154359810Y-112688110D01*
X154362654Y-112691353D01*
X154362656Y-112691356D01*
X154384085Y-112715792D01*
X154389793Y-112722301D01*
X154397558Y-112726130D01*
X154425593Y-112739955D01*
X154444348Y-112749204D01*
X154465512Y-112750591D01*
X154496406Y-112752617D01*
X154496408Y-112752617D01*
X154505045Y-112753183D01*
X154528043Y-112745376D01*
X154544013Y-112739955D01*
X154544015Y-112739954D01*
X154548107Y-112738565D01*
X156046428Y-111873508D01*
X156049671Y-111870664D01*
X156049674Y-111870662D01*
X156074110Y-111849233D01*
X156080619Y-111843525D01*
X156107522Y-111788970D01*
X156111501Y-111728273D01*
X156101804Y-111699706D01*
X156098273Y-111689305D01*
X156098272Y-111689303D01*
X156096883Y-111685211D01*
X155630154Y-110876814D01*
X156284614Y-110876814D01*
X156288007Y-110881696D01*
X156417399Y-110991818D01*
X156424422Y-110996699D01*
X156588521Y-111088410D01*
X156596356Y-111091833D01*
X156775148Y-111149926D01*
X156783493Y-111151761D01*
X156970161Y-111174020D01*
X156978716Y-111174199D01*
X157166141Y-111159778D01*
X157174573Y-111158291D01*
X157245496Y-111138489D01*
X157255769Y-111131135D01*
X157256456Y-111128457D01*
X157255727Y-111126185D01*
X156910301Y-110527892D01*
X156900623Y-110519771D01*
X156893370Y-110519771D01*
X156292734Y-110866548D01*
X156284614Y-110876226D01*
X156284614Y-110876814D01*
X155630154Y-110876814D01*
X155231826Y-110186890D01*
X155228982Y-110183647D01*
X155228980Y-110183644D01*
X155207551Y-110159208D01*
X155206242Y-110157715D01*
X155988730Y-110157715D01*
X156004461Y-110345042D01*
X156006007Y-110353465D01*
X156024378Y-110417531D01*
X156031805Y-110427754D01*
X156034647Y-110428463D01*
X156036650Y-110427812D01*
X156310589Y-110269653D01*
X157347794Y-110269653D01*
X157694261Y-110869752D01*
X157703939Y-110877872D01*
X157704696Y-110877872D01*
X157709367Y-110874650D01*
X157815785Y-110751363D01*
X157820713Y-110744377D01*
X157913568Y-110580924D01*
X157917051Y-110573100D01*
X157976384Y-110394736D01*
X157978281Y-110386390D01*
X158002073Y-110198056D01*
X158002414Y-110193168D01*
X158002739Y-110169965D01*
X158002532Y-110165046D01*
X157984010Y-109976139D01*
X157982346Y-109967738D01*
X157967110Y-109917271D01*
X157959541Y-109907155D01*
X157956365Y-109906410D01*
X157954899Y-109906897D01*
X157355915Y-110252722D01*
X157347794Y-110262400D01*
X157347794Y-110269653D01*
X156310589Y-110269653D01*
X156635131Y-110082278D01*
X156643252Y-110072600D01*
X156643252Y-110065347D01*
X156296137Y-109464127D01*
X156286459Y-109456007D01*
X156286039Y-109456007D01*
X156280949Y-109459571D01*
X156167193Y-109595141D01*
X156162354Y-109602208D01*
X156071796Y-109766933D01*
X156068423Y-109774803D01*
X156011586Y-109953977D01*
X156009804Y-109962358D01*
X155988850Y-110149168D01*
X155988730Y-110157715D01*
X155206242Y-110157715D01*
X155201843Y-110152699D01*
X155168862Y-110136435D01*
X155155051Y-110129624D01*
X155155050Y-110129624D01*
X155147288Y-110125796D01*
X155126124Y-110124409D01*
X155095230Y-110122383D01*
X155095228Y-110122383D01*
X155086591Y-110121817D01*
X155078393Y-110124600D01*
X155047623Y-110135045D01*
X155047621Y-110135046D01*
X155043529Y-110136435D01*
X153545208Y-111001492D01*
X153541965Y-111004336D01*
X153541962Y-111004338D01*
X153517526Y-111025767D01*
X153511017Y-111031475D01*
X153484114Y-111086030D01*
X153483647Y-111093158D01*
X153449653Y-111141705D01*
X153399237Y-111157600D01*
X150679848Y-111157600D01*
X150623347Y-111137035D01*
X150617693Y-111131855D01*
X150108145Y-110622307D01*
X150082734Y-110567813D01*
X150082400Y-110560152D01*
X150082400Y-109206663D01*
X156734508Y-109206663D01*
X156735079Y-109208399D01*
X157080745Y-109807108D01*
X157090423Y-109815229D01*
X157097676Y-109815229D01*
X157698929Y-109468095D01*
X157707049Y-109458417D01*
X157707049Y-109455141D01*
X157706928Y-109455018D01*
X157562083Y-109335192D01*
X157554989Y-109330407D01*
X157389632Y-109240999D01*
X157381739Y-109237681D01*
X157202164Y-109182094D01*
X157193782Y-109180374D01*
X157006836Y-109160725D01*
X156998269Y-109160665D01*
X156811068Y-109177701D01*
X156802659Y-109179305D01*
X156745405Y-109196156D01*
X156735236Y-109203653D01*
X156734508Y-109206663D01*
X150082400Y-109206663D01*
X150082400Y-108892081D01*
X150102965Y-108835580D01*
X150111182Y-108827405D01*
X150114256Y-108825518D01*
X150129164Y-108809048D01*
X150202919Y-108727566D01*
X150202921Y-108727563D01*
X150207121Y-108722923D01*
X150267458Y-108598388D01*
X150290416Y-108461924D01*
X150290562Y-108449999D01*
X150270944Y-108313015D01*
X150213668Y-108187042D01*
X150123338Y-108082209D01*
X150007215Y-108006942D01*
X149874635Y-107967292D01*
X149806203Y-107966874D01*
X149742521Y-107966485D01*
X149742519Y-107966485D01*
X149736256Y-107966447D01*
X149603201Y-108004474D01*
X149486167Y-108078317D01*
X149482023Y-108083010D01*
X149482021Y-108083011D01*
X149398708Y-108177345D01*
X149398706Y-108177348D01*
X149394563Y-108182039D01*
X149335752Y-108307302D01*
X149314462Y-108444036D01*
X129888361Y-108444036D01*
X127196849Y-106890091D01*
X127158201Y-106844032D01*
X127152900Y-106813968D01*
X127152900Y-105798294D01*
X127742314Y-105798294D01*
X127761421Y-106016689D01*
X127818162Y-106228448D01*
X127910812Y-106427137D01*
X128036557Y-106606719D01*
X128191575Y-106761737D01*
X128371157Y-106887482D01*
X128569846Y-106980132D01*
X128689955Y-107012315D01*
X128777902Y-107035881D01*
X128777904Y-107035881D01*
X128781605Y-107036873D01*
X128785421Y-107037207D01*
X128785422Y-107037207D01*
X128996182Y-107055646D01*
X129000000Y-107055980D01*
X129003818Y-107055646D01*
X129214578Y-107037207D01*
X129214579Y-107037207D01*
X129218395Y-107036873D01*
X129222096Y-107035881D01*
X129222098Y-107035881D01*
X129310045Y-107012315D01*
X129430154Y-106980132D01*
X129628843Y-106887482D01*
X129808425Y-106761737D01*
X129963443Y-106606719D01*
X130089188Y-106427137D01*
X130181838Y-106228448D01*
X130238579Y-106016689D01*
X130257686Y-105798294D01*
X130238579Y-105579899D01*
X130181838Y-105368140D01*
X130089188Y-105169451D01*
X129963443Y-104989869D01*
X129808425Y-104834851D01*
X129628843Y-104709106D01*
X129430154Y-104616456D01*
X129295775Y-104580449D01*
X129222098Y-104560707D01*
X129222096Y-104560707D01*
X129218395Y-104559715D01*
X129214579Y-104559381D01*
X129214578Y-104559381D01*
X129003818Y-104540942D01*
X129000000Y-104540608D01*
X128996182Y-104540942D01*
X128785422Y-104559381D01*
X128785421Y-104559381D01*
X128781605Y-104559715D01*
X128777904Y-104560707D01*
X128777902Y-104560707D01*
X128704225Y-104580449D01*
X128569846Y-104616456D01*
X128371157Y-104709106D01*
X128191575Y-104834851D01*
X128036557Y-104989869D01*
X127910812Y-105169451D01*
X127818162Y-105368140D01*
X127761421Y-105579899D01*
X127743471Y-105785070D01*
X127742314Y-105798294D01*
X127152900Y-105798294D01*
X127152900Y-102060137D01*
X128257571Y-102060137D01*
X128257754Y-102063628D01*
X128287300Y-102166667D01*
X128290445Y-102174611D01*
X128376375Y-102341815D01*
X128381008Y-102349003D01*
X128497774Y-102496325D01*
X128503721Y-102502483D01*
X128646876Y-102624318D01*
X128653899Y-102629199D01*
X128817998Y-102720910D01*
X128825833Y-102724333D01*
X128956261Y-102766712D01*
X128968886Y-102766271D01*
X128969823Y-102765427D01*
X128971000Y-102760708D01*
X128971000Y-102754365D01*
X129479000Y-102754365D01*
X129483322Y-102766239D01*
X129485282Y-102767371D01*
X129488495Y-102767214D01*
X129585107Y-102740239D01*
X129593085Y-102737144D01*
X129760879Y-102652385D01*
X129768094Y-102647806D01*
X129916234Y-102532067D01*
X129922425Y-102526171D01*
X130045262Y-102383863D01*
X130050190Y-102376877D01*
X130143045Y-102213424D01*
X130146528Y-102205600D01*
X130192065Y-102068708D01*
X130191712Y-102056076D01*
X130190988Y-102055260D01*
X130186010Y-102054000D01*
X129494500Y-102054000D01*
X129482626Y-102058322D01*
X129479000Y-102064601D01*
X129479000Y-102754365D01*
X128971000Y-102754365D01*
X128971000Y-102069500D01*
X128966678Y-102057626D01*
X128960399Y-102054000D01*
X128270493Y-102054000D01*
X128258619Y-102058322D01*
X128257571Y-102060137D01*
X127152900Y-102060137D01*
X127152900Y-101785930D01*
X130757345Y-101785930D01*
X130773803Y-101981919D01*
X130828015Y-102170979D01*
X130829977Y-102174797D01*
X130829978Y-102174799D01*
X130891960Y-102295402D01*
X130917916Y-102345908D01*
X131040083Y-102500044D01*
X131043359Y-102502832D01*
X131186589Y-102624731D01*
X131186592Y-102624733D01*
X131189862Y-102627516D01*
X131193610Y-102629611D01*
X131193612Y-102629612D01*
X131275704Y-102675491D01*
X131361547Y-102723467D01*
X131548600Y-102784244D01*
X131743895Y-102807532D01*
X131939994Y-102792443D01*
X132094250Y-102749374D01*
X132125285Y-102740709D01*
X132125287Y-102740708D01*
X132129428Y-102739552D01*
X132154428Y-102726924D01*
X132301148Y-102652810D01*
X132304981Y-102650874D01*
X132459966Y-102529786D01*
X132588480Y-102380901D01*
X132614912Y-102334372D01*
X132660701Y-102295402D01*
X132691341Y-102289889D01*
X134668430Y-102289889D01*
X134724931Y-102310454D01*
X134730585Y-102315634D01*
X139943708Y-107528756D01*
X139951289Y-107537401D01*
X139969229Y-107560781D01*
X139973801Y-107564289D01*
X139973803Y-107564291D01*
X139982070Y-107570634D01*
X139993265Y-107580875D01*
X140006479Y-107595245D01*
X140021779Y-107604731D01*
X140042684Y-107617693D01*
X140049875Y-107622663D01*
X140078546Y-107644664D01*
X140078552Y-107644668D01*
X140080757Y-107646360D01*
X140081920Y-107646842D01*
X140085442Y-107649515D01*
X140091005Y-107651718D01*
X140091011Y-107651721D01*
X140101848Y-107656011D01*
X140115802Y-107663028D01*
X140130801Y-107672328D01*
X140136555Y-107674000D01*
X140136560Y-107674002D01*
X140168514Y-107683286D01*
X140177625Y-107686485D01*
X140205312Y-107697953D01*
X140205317Y-107697954D01*
X140210635Y-107700157D01*
X140213729Y-107700564D01*
X140214500Y-107700819D01*
X140215874Y-107701157D01*
X140221449Y-107703364D01*
X140238995Y-107705208D01*
X140254330Y-107708217D01*
X140266848Y-107711854D01*
X140266853Y-107711855D01*
X140271273Y-107713139D01*
X140281636Y-107713900D01*
X140309264Y-107713900D01*
X140320737Y-107714652D01*
X140350011Y-107718506D01*
X140355163Y-107717828D01*
X140359724Y-107718067D01*
X140360968Y-107718028D01*
X140366928Y-107718654D01*
X140387757Y-107715131D01*
X140402416Y-107713900D01*
X154826151Y-107713900D01*
X154829832Y-107713977D01*
X154890717Y-107716529D01*
X154896546Y-107715162D01*
X154896554Y-107715161D01*
X154933380Y-107706523D01*
X154941521Y-107705014D01*
X154984926Y-107699068D01*
X155001114Y-107692062D01*
X155015956Y-107687154D01*
X155027298Y-107684494D01*
X155033131Y-107683126D01*
X155071535Y-107662014D01*
X155078963Y-107658375D01*
X155119175Y-107640973D01*
X155132888Y-107629869D01*
X155145847Y-107621161D01*
X155161318Y-107612655D01*
X155169184Y-107605865D01*
X155194259Y-107580790D01*
X155201097Y-107574634D01*
X155228199Y-107552687D01*
X155232856Y-107548916D01*
X155245093Y-107531697D01*
X155254588Y-107520461D01*
X156757742Y-106017306D01*
X156760400Y-106014758D01*
X156800833Y-105977578D01*
X156805245Y-105973521D01*
X156828338Y-105936275D01*
X156833029Y-105929451D01*
X156855890Y-105899334D01*
X156855891Y-105899333D01*
X156859515Y-105894558D01*
X156861721Y-105888987D01*
X156861723Y-105888983D01*
X156866011Y-105878152D01*
X156873028Y-105864198D01*
X156882328Y-105849199D01*
X156894554Y-105807117D01*
X156897236Y-105799286D01*
X156897629Y-105798294D01*
X163742314Y-105798294D01*
X163761421Y-106016689D01*
X163818162Y-106228448D01*
X163910812Y-106427137D01*
X164036557Y-106606719D01*
X164191575Y-106761737D01*
X164371157Y-106887482D01*
X164569846Y-106980132D01*
X164689955Y-107012315D01*
X164777902Y-107035881D01*
X164777904Y-107035881D01*
X164781605Y-107036873D01*
X164785421Y-107037207D01*
X164785422Y-107037207D01*
X164996182Y-107055646D01*
X165000000Y-107055980D01*
X165003818Y-107055646D01*
X165214578Y-107037207D01*
X165214579Y-107037207D01*
X165218395Y-107036873D01*
X165222096Y-107035881D01*
X165222098Y-107035881D01*
X165310045Y-107012315D01*
X165430154Y-106980132D01*
X165628843Y-106887482D01*
X165808425Y-106761737D01*
X165963443Y-106606719D01*
X166089188Y-106427137D01*
X166181838Y-106228448D01*
X166238579Y-106016689D01*
X166257686Y-105798294D01*
X166238579Y-105579899D01*
X166181838Y-105368140D01*
X166089188Y-105169451D01*
X165963443Y-104989869D01*
X165808425Y-104834851D01*
X165628843Y-104709106D01*
X165430154Y-104616456D01*
X165295775Y-104580449D01*
X165222098Y-104560707D01*
X165222096Y-104560707D01*
X165218395Y-104559715D01*
X165214579Y-104559381D01*
X165214578Y-104559381D01*
X165003818Y-104540942D01*
X165000000Y-104540608D01*
X164996182Y-104540942D01*
X164785422Y-104559381D01*
X164785421Y-104559381D01*
X164781605Y-104559715D01*
X164777904Y-104560707D01*
X164777902Y-104560707D01*
X164704225Y-104580449D01*
X164569846Y-104616456D01*
X164371157Y-104709106D01*
X164191575Y-104834851D01*
X164036557Y-104989869D01*
X163910812Y-105169451D01*
X163818162Y-105368140D01*
X163761421Y-105579899D01*
X163743471Y-105785070D01*
X163742314Y-105798294D01*
X156897629Y-105798294D01*
X156911158Y-105764123D01*
X156911158Y-105764122D01*
X156913364Y-105758551D01*
X156915208Y-105741005D01*
X156918217Y-105725670D01*
X156921854Y-105713152D01*
X156921855Y-105713147D01*
X156923139Y-105708727D01*
X156923900Y-105698364D01*
X156923900Y-105662916D01*
X156924381Y-105653728D01*
X156928028Y-105619032D01*
X156928028Y-105619029D01*
X156928654Y-105613072D01*
X156925131Y-105592243D01*
X156923900Y-105577584D01*
X156923900Y-105237800D01*
X156944465Y-105181299D01*
X156996536Y-105151235D01*
X157011800Y-105149900D01*
X157329972Y-105149900D01*
X157334050Y-105150199D01*
X157338403Y-105151694D01*
X157384535Y-105149962D01*
X157387834Y-105149900D01*
X157406031Y-105149900D01*
X157410015Y-105149158D01*
X157410417Y-105149121D01*
X157415199Y-105148811D01*
X157434489Y-105148087D01*
X157434491Y-105148087D01*
X157442601Y-105147782D01*
X157452893Y-105143360D01*
X157471497Y-105137708D01*
X157474527Y-105137144D01*
X157474529Y-105137143D01*
X157482508Y-105135657D01*
X157503893Y-105122475D01*
X157515319Y-105116539D01*
X157532701Y-105109071D01*
X157538404Y-105106621D01*
X157542957Y-105102881D01*
X157547377Y-105098461D01*
X157563404Y-105085792D01*
X157571271Y-105080943D01*
X157587903Y-105059071D01*
X157595716Y-105050122D01*
X158662549Y-103983290D01*
X158665641Y-103980621D01*
X158669774Y-103978601D01*
X158675292Y-103972652D01*
X158675294Y-103972651D01*
X158701154Y-103944773D01*
X158703442Y-103942397D01*
X158716326Y-103929513D01*
X158718616Y-103926175D01*
X158718884Y-103925852D01*
X158722048Y-103922249D01*
X158735168Y-103908105D01*
X158740687Y-103902156D01*
X158744836Y-103891756D01*
X158753999Y-103874595D01*
X158760332Y-103865364D01*
X158766132Y-103840920D01*
X158770015Y-103828643D01*
X158777027Y-103811069D01*
X158777028Y-103811066D01*
X158779325Y-103805308D01*
X158779900Y-103799444D01*
X158779900Y-103793194D01*
X158782275Y-103772898D01*
X158782534Y-103771805D01*
X158784408Y-103763910D01*
X158780703Y-103736686D01*
X158779900Y-103724833D01*
X158779900Y-100165488D01*
X158800465Y-100108987D01*
X158814287Y-100095754D01*
X158894333Y-100034333D01*
X158949197Y-99962832D01*
X158979449Y-99923407D01*
X158979450Y-99923406D01*
X158982957Y-99918835D01*
X159038669Y-99784336D01*
X159057671Y-99640000D01*
X159038669Y-99495664D01*
X159016407Y-99441919D01*
X158985163Y-99366490D01*
X158985162Y-99366488D01*
X158982957Y-99361165D01*
X158894333Y-99245667D01*
X158778836Y-99157043D01*
X158644336Y-99101331D01*
X158500000Y-99082329D01*
X158355664Y-99101331D01*
X158350340Y-99103536D01*
X158350341Y-99103536D01*
X158226490Y-99154837D01*
X158226488Y-99154838D01*
X158221165Y-99157043D01*
X158105667Y-99245667D01*
X158017043Y-99361165D01*
X158014838Y-99366488D01*
X158014837Y-99366490D01*
X157983593Y-99441919D01*
X157961331Y-99495664D01*
X157942329Y-99640000D01*
X157961331Y-99784336D01*
X158017043Y-99918835D01*
X158020550Y-99923406D01*
X158020551Y-99923407D01*
X158050803Y-99962832D01*
X158105667Y-100034333D01*
X158185711Y-100095753D01*
X158218016Y-100146463D01*
X158220100Y-100165488D01*
X158220100Y-103597652D01*
X158199535Y-103654153D01*
X158194355Y-103659807D01*
X157289807Y-104564355D01*
X157235313Y-104589766D01*
X157227652Y-104590100D01*
X156955583Y-104590100D01*
X156899082Y-104569535D01*
X156885847Y-104555710D01*
X156874516Y-104540942D01*
X156807023Y-104452983D01*
X156684883Y-104359262D01*
X156542647Y-104300346D01*
X156390010Y-104280251D01*
X156237373Y-104300346D01*
X156095138Y-104359262D01*
X155972997Y-104452983D01*
X155969488Y-104457556D01*
X155883565Y-104569535D01*
X155879276Y-104575124D01*
X155820360Y-104717359D01*
X155800265Y-104869996D01*
X155820360Y-105022633D01*
X155846521Y-105085790D01*
X155849409Y-105092763D01*
X155856100Y-105126401D01*
X155856100Y-105372441D01*
X155835535Y-105428942D01*
X155830355Y-105434596D01*
X154644597Y-106620355D01*
X154590103Y-106645766D01*
X154582442Y-106646100D01*
X140607559Y-106646100D01*
X140551058Y-106625535D01*
X140545404Y-106620355D01*
X138245049Y-104320000D01*
X142572329Y-104320000D01*
X142591331Y-104464336D01*
X142593536Y-104469659D01*
X142635328Y-104570552D01*
X142647043Y-104598835D01*
X142735667Y-104714333D01*
X142851164Y-104802957D01*
X142985664Y-104858669D01*
X143130000Y-104877671D01*
X143274336Y-104858669D01*
X143408836Y-104802957D01*
X143524333Y-104714333D01*
X143612957Y-104598835D01*
X143614839Y-104594291D01*
X143628296Y-104576753D01*
X144392903Y-103812145D01*
X144447397Y-103786734D01*
X144455058Y-103786400D01*
X149859198Y-103786400D01*
X149881118Y-103789286D01*
X149885664Y-103791169D01*
X150030000Y-103810171D01*
X150174336Y-103791169D01*
X150308836Y-103735457D01*
X150314924Y-103730786D01*
X150419760Y-103650342D01*
X150424333Y-103646833D01*
X150427842Y-103642260D01*
X150509449Y-103535907D01*
X150509450Y-103535906D01*
X150512957Y-103531335D01*
X150568669Y-103396836D01*
X150587671Y-103252500D01*
X150568669Y-103108164D01*
X150566786Y-103103618D01*
X150563900Y-103081698D01*
X150563900Y-101837559D01*
X150584465Y-101781058D01*
X150589645Y-101775404D01*
X153645404Y-98719645D01*
X153699898Y-98694234D01*
X153707559Y-98693900D01*
X160772441Y-98693900D01*
X160828942Y-98714465D01*
X160834596Y-98719645D01*
X161482705Y-99367754D01*
X161485253Y-99370412D01*
X161526479Y-99415245D01*
X161531574Y-99418404D01*
X161563717Y-99438334D01*
X161570533Y-99443017D01*
X161605441Y-99469514D01*
X161621844Y-99476008D01*
X161635800Y-99483028D01*
X161645703Y-99489168D01*
X161645708Y-99489170D01*
X161650801Y-99492328D01*
X161662284Y-99495664D01*
X161692887Y-99504555D01*
X161700722Y-99507238D01*
X161741449Y-99523363D01*
X161751450Y-99524414D01*
X161758990Y-99525207D01*
X161774321Y-99528215D01*
X161786842Y-99531852D01*
X161786845Y-99531852D01*
X161791273Y-99533139D01*
X161801636Y-99533900D01*
X161837096Y-99533900D01*
X161846284Y-99534382D01*
X161886928Y-99538654D01*
X161907757Y-99535131D01*
X161922416Y-99533900D01*
X164084201Y-99533900D01*
X164140702Y-99554465D01*
X164170766Y-99606536D01*
X164172101Y-99621800D01*
X164172101Y-99690056D01*
X164180972Y-99734658D01*
X164214766Y-99785234D01*
X164265342Y-99819028D01*
X164309943Y-99827900D01*
X164999840Y-99827900D01*
X165690056Y-99827899D01*
X165711784Y-99823577D01*
X165726163Y-99820718D01*
X165726165Y-99820717D01*
X165734658Y-99819028D01*
X165785234Y-99785234D01*
X165819028Y-99734658D01*
X165827900Y-99690057D01*
X165827899Y-98309944D01*
X165819028Y-98265342D01*
X165785234Y-98214766D01*
X165734658Y-98180972D01*
X165690057Y-98172100D01*
X165000160Y-98172100D01*
X164309944Y-98172101D01*
X164288216Y-98176423D01*
X164273837Y-98179282D01*
X164273835Y-98179283D01*
X164265342Y-98180972D01*
X164214766Y-98214766D01*
X164180972Y-98265342D01*
X164172100Y-98309943D01*
X164172100Y-98378200D01*
X164151535Y-98434701D01*
X164099464Y-98464765D01*
X164084200Y-98466100D01*
X162127559Y-98466100D01*
X162071058Y-98445535D01*
X162065404Y-98440355D01*
X161417306Y-97792258D01*
X161414758Y-97789600D01*
X161377578Y-97749167D01*
X161373521Y-97744755D01*
X161336275Y-97721662D01*
X161329451Y-97716971D01*
X161299334Y-97694110D01*
X161299333Y-97694109D01*
X161294558Y-97690485D01*
X161288987Y-97688279D01*
X161288983Y-97688277D01*
X161278152Y-97683989D01*
X161264198Y-97676972D01*
X161249199Y-97667672D01*
X161243449Y-97666001D01*
X161243448Y-97666001D01*
X161214572Y-97657612D01*
X161207117Y-97655446D01*
X161199286Y-97652764D01*
X161164123Y-97638842D01*
X161164122Y-97638842D01*
X161158551Y-97636636D01*
X161141005Y-97634792D01*
X161125670Y-97631783D01*
X161113152Y-97628146D01*
X161113147Y-97628145D01*
X161108727Y-97626861D01*
X161098364Y-97626100D01*
X161062916Y-97626100D01*
X161053728Y-97625619D01*
X161019032Y-97621972D01*
X161019029Y-97621972D01*
X161013072Y-97621346D01*
X160992495Y-97624826D01*
X160992243Y-97624869D01*
X160977584Y-97626100D01*
X154071811Y-97626100D01*
X154015310Y-97605535D01*
X153985246Y-97553464D01*
X153983911Y-97538200D01*
X153983911Y-97259413D01*
X164215545Y-97259413D01*
X164215884Y-97264264D01*
X164238545Y-97334007D01*
X164242272Y-97342377D01*
X164324631Y-97485028D01*
X164330013Y-97492434D01*
X164440229Y-97614842D01*
X164447037Y-97620972D01*
X164580293Y-97717789D01*
X164588230Y-97722371D01*
X164735633Y-97787999D01*
X164743353Y-97786915D01*
X164745864Y-97784126D01*
X164746000Y-97783428D01*
X164746000Y-97776396D01*
X165254000Y-97776396D01*
X165258322Y-97788270D01*
X165260607Y-97789590D01*
X165261298Y-97789365D01*
X165411770Y-97722371D01*
X165419707Y-97717789D01*
X165552963Y-97620972D01*
X165559771Y-97614842D01*
X165669987Y-97492434D01*
X165675369Y-97485028D01*
X165757728Y-97342377D01*
X165761455Y-97334007D01*
X165782662Y-97268738D01*
X165782221Y-97256114D01*
X165781377Y-97255177D01*
X165776658Y-97254000D01*
X165269500Y-97254000D01*
X165257626Y-97258322D01*
X165254000Y-97264601D01*
X165254000Y-97776396D01*
X164746000Y-97776396D01*
X164746000Y-97269500D01*
X164741678Y-97257626D01*
X164735399Y-97254000D01*
X164228049Y-97254000D01*
X164216175Y-97258322D01*
X164215545Y-97259413D01*
X153983911Y-97259413D01*
X153983911Y-96731262D01*
X164217338Y-96731262D01*
X164217779Y-96743886D01*
X164218623Y-96744823D01*
X164223342Y-96746000D01*
X164730500Y-96746000D01*
X164742374Y-96741678D01*
X164746000Y-96735399D01*
X164746000Y-96730500D01*
X165254000Y-96730500D01*
X165258322Y-96742374D01*
X165264601Y-96746000D01*
X165771951Y-96746000D01*
X165783825Y-96741678D01*
X165784455Y-96740587D01*
X165784116Y-96735736D01*
X165761455Y-96665993D01*
X165757728Y-96657623D01*
X165675369Y-96514972D01*
X165669987Y-96507566D01*
X165559771Y-96385158D01*
X165552963Y-96379028D01*
X165419707Y-96282211D01*
X165411770Y-96277629D01*
X165264367Y-96212001D01*
X165256647Y-96213085D01*
X165254136Y-96215874D01*
X165254000Y-96216572D01*
X165254000Y-96730500D01*
X164746000Y-96730500D01*
X164746000Y-96223604D01*
X164741678Y-96211730D01*
X164739393Y-96210410D01*
X164738702Y-96210635D01*
X164588230Y-96277629D01*
X164580293Y-96282211D01*
X164447037Y-96379028D01*
X164440229Y-96385158D01*
X164330013Y-96507566D01*
X164324631Y-96514972D01*
X164242272Y-96657623D01*
X164238545Y-96665993D01*
X164217338Y-96731262D01*
X153983911Y-96731262D01*
X153983911Y-93700000D01*
X164167540Y-93700000D01*
X164185731Y-93873078D01*
X164239510Y-94038592D01*
X164241813Y-94042581D01*
X164315499Y-94170208D01*
X164326526Y-94189308D01*
X164329605Y-94192727D01*
X164329606Y-94192729D01*
X164411890Y-94284114D01*
X164442976Y-94318638D01*
X164583770Y-94420932D01*
X164587980Y-94422806D01*
X164587981Y-94422807D01*
X164738546Y-94489843D01*
X164738549Y-94489844D01*
X164742756Y-94491717D01*
X164747263Y-94492675D01*
X164747266Y-94492676D01*
X164908480Y-94526943D01*
X164908483Y-94526943D01*
X164912984Y-94527900D01*
X165087016Y-94527900D01*
X165091517Y-94526943D01*
X165091520Y-94526943D01*
X165252734Y-94492676D01*
X165252737Y-94492675D01*
X165257244Y-94491717D01*
X165261451Y-94489844D01*
X165261454Y-94489843D01*
X165412019Y-94422807D01*
X165412020Y-94422806D01*
X165416230Y-94420932D01*
X165557024Y-94318638D01*
X165588110Y-94284114D01*
X165670394Y-94192729D01*
X165670395Y-94192727D01*
X165673474Y-94189308D01*
X165684502Y-94170208D01*
X165758187Y-94042581D01*
X165760490Y-94038592D01*
X165814269Y-93873078D01*
X165832460Y-93700000D01*
X165814269Y-93526922D01*
X165760490Y-93361408D01*
X165750748Y-93344535D01*
X165675775Y-93214677D01*
X165675774Y-93214675D01*
X165673474Y-93210692D01*
X165658535Y-93194100D01*
X165560106Y-93084785D01*
X165560107Y-93084785D01*
X165557024Y-93081362D01*
X165416230Y-92979068D01*
X165412019Y-92977193D01*
X165261454Y-92910157D01*
X165261451Y-92910156D01*
X165257244Y-92908283D01*
X165252737Y-92907325D01*
X165252734Y-92907324D01*
X165091520Y-92873057D01*
X165091517Y-92873057D01*
X165087016Y-92872100D01*
X164912984Y-92872100D01*
X164908483Y-92873057D01*
X164908480Y-92873057D01*
X164747266Y-92907324D01*
X164747263Y-92907325D01*
X164742756Y-92908283D01*
X164738549Y-92910156D01*
X164738546Y-92910157D01*
X164587981Y-92977193D01*
X164583770Y-92979068D01*
X164442976Y-93081362D01*
X164439893Y-93084785D01*
X164439894Y-93084785D01*
X164341466Y-93194100D01*
X164326526Y-93210692D01*
X164324226Y-93214675D01*
X164324225Y-93214677D01*
X164249252Y-93344535D01*
X164239510Y-93361408D01*
X164185731Y-93526922D01*
X164167540Y-93700000D01*
X153983911Y-93700000D01*
X153983911Y-92636433D01*
X153990602Y-92602795D01*
X154017456Y-92537963D01*
X154019661Y-92532640D01*
X154039756Y-92380003D01*
X154019661Y-92227366D01*
X153960745Y-92085131D01*
X153867024Y-91962990D01*
X153781840Y-91897626D01*
X153749456Y-91872777D01*
X153749455Y-91872776D01*
X153744884Y-91869269D01*
X153602648Y-91810353D01*
X153450011Y-91790258D01*
X153297374Y-91810353D01*
X153155139Y-91869269D01*
X153150568Y-91872776D01*
X153150567Y-91872777D01*
X153110361Y-91903628D01*
X153032998Y-91962990D01*
X152939277Y-92085131D01*
X152880361Y-92227366D01*
X152860266Y-92380003D01*
X152880361Y-92532640D01*
X152882566Y-92537963D01*
X152909420Y-92602795D01*
X152916111Y-92636433D01*
X152916111Y-97902430D01*
X152895546Y-97958931D01*
X152890366Y-97964585D01*
X151484540Y-99370412D01*
X150092155Y-100762797D01*
X150037661Y-100788208D01*
X149979583Y-100772645D01*
X149967845Y-100762797D01*
X148257306Y-99052258D01*
X148254758Y-99049600D01*
X148217578Y-99009167D01*
X148213521Y-99004755D01*
X148176275Y-98981662D01*
X148169451Y-98976971D01*
X148139334Y-98954110D01*
X148139333Y-98954109D01*
X148134558Y-98950485D01*
X148128987Y-98948279D01*
X148128983Y-98948277D01*
X148118152Y-98943989D01*
X148104198Y-98936972D01*
X148089199Y-98927672D01*
X148083449Y-98926001D01*
X148083448Y-98926001D01*
X148064070Y-98920371D01*
X148047117Y-98915446D01*
X148039286Y-98912764D01*
X148004123Y-98898842D01*
X148004122Y-98898842D01*
X147998551Y-98896636D01*
X147981005Y-98894792D01*
X147965670Y-98891783D01*
X147953152Y-98888146D01*
X147953147Y-98888145D01*
X147948727Y-98886861D01*
X147938364Y-98886100D01*
X147902916Y-98886100D01*
X147893728Y-98885619D01*
X147859032Y-98881972D01*
X147859029Y-98881972D01*
X147853072Y-98881346D01*
X147832495Y-98884826D01*
X147832243Y-98884869D01*
X147817584Y-98886100D01*
X143300802Y-98886100D01*
X143278882Y-98883214D01*
X143274336Y-98881331D01*
X143130000Y-98862329D01*
X142985664Y-98881331D01*
X142960431Y-98891783D01*
X142856490Y-98934837D01*
X142856488Y-98934838D01*
X142851165Y-98937043D01*
X142846594Y-98940550D01*
X142846593Y-98940551D01*
X142767036Y-99001597D01*
X142735667Y-99025667D01*
X142732158Y-99030240D01*
X142675917Y-99103536D01*
X142647043Y-99141165D01*
X142591331Y-99275664D01*
X142572329Y-99420000D01*
X142591331Y-99564336D01*
X142593536Y-99569659D01*
X142643407Y-99690056D01*
X142647043Y-99698835D01*
X142735667Y-99814333D01*
X142740240Y-99817842D01*
X142753347Y-99827899D01*
X142851164Y-99902957D01*
X142985664Y-99958669D01*
X143130000Y-99977671D01*
X143274336Y-99958669D01*
X143278882Y-99956786D01*
X143300802Y-99953900D01*
X147612441Y-99953900D01*
X147668942Y-99974465D01*
X147674596Y-99979645D01*
X149470355Y-101775403D01*
X149495766Y-101829897D01*
X149496100Y-101837558D01*
X149496100Y-102630700D01*
X149475535Y-102687201D01*
X149423464Y-102717265D01*
X149408200Y-102718600D01*
X144211349Y-102718600D01*
X144207668Y-102718523D01*
X144206588Y-102718478D01*
X144146783Y-102715971D01*
X144140954Y-102717338D01*
X144140946Y-102717339D01*
X144104120Y-102725977D01*
X144095979Y-102727486D01*
X144052574Y-102733432D01*
X144038432Y-102739552D01*
X144036385Y-102740438D01*
X144021544Y-102745346D01*
X144004369Y-102749374D01*
X143999120Y-102752260D01*
X143999119Y-102752260D01*
X143965965Y-102770486D01*
X143958537Y-102774125D01*
X143918325Y-102791527D01*
X143904612Y-102802631D01*
X143891653Y-102811339D01*
X143876182Y-102819845D01*
X143868316Y-102826635D01*
X143843241Y-102851710D01*
X143836403Y-102857866D01*
X143804644Y-102883584D01*
X143801174Y-102888467D01*
X143792407Y-102900803D01*
X143782912Y-102912039D01*
X142873250Y-103821702D01*
X142855713Y-103835159D01*
X142851165Y-103837043D01*
X142846594Y-103840550D01*
X142846593Y-103840551D01*
X142814256Y-103865364D01*
X142735667Y-103925667D01*
X142647043Y-104041165D01*
X142591331Y-104175664D01*
X142572329Y-104320000D01*
X138245049Y-104320000D01*
X135313295Y-101388247D01*
X135310747Y-101385589D01*
X135273567Y-101345156D01*
X135269510Y-101340744D01*
X135232264Y-101317651D01*
X135225440Y-101312960D01*
X135195323Y-101290099D01*
X135195322Y-101290098D01*
X135190547Y-101286474D01*
X135184976Y-101284268D01*
X135184972Y-101284266D01*
X135174141Y-101279978D01*
X135160187Y-101272961D01*
X135145188Y-101263661D01*
X135139438Y-101261990D01*
X135139437Y-101261990D01*
X135120059Y-101256360D01*
X135103106Y-101251435D01*
X135095275Y-101248753D01*
X135060112Y-101234831D01*
X135060111Y-101234831D01*
X135054540Y-101232625D01*
X135036994Y-101230781D01*
X135021659Y-101227772D01*
X135009141Y-101224135D01*
X135009136Y-101224134D01*
X135004716Y-101222850D01*
X134994353Y-101222089D01*
X134958905Y-101222089D01*
X134949717Y-101221608D01*
X134915021Y-101217961D01*
X134915018Y-101217961D01*
X134909061Y-101217335D01*
X134888484Y-101220815D01*
X134888232Y-101220858D01*
X134873573Y-101222089D01*
X132629619Y-101222089D01*
X132573118Y-101201524D01*
X132561502Y-101189745D01*
X132482791Y-101093236D01*
X132482787Y-101093232D01*
X132480072Y-101089903D01*
X132472506Y-101083644D01*
X132331842Y-100967276D01*
X132331838Y-100967273D01*
X132328528Y-100964535D01*
X132155520Y-100870990D01*
X132151418Y-100869720D01*
X132151415Y-100869719D01*
X131971740Y-100814100D01*
X131971739Y-100814100D01*
X131967637Y-100812830D01*
X131963371Y-100812382D01*
X131963368Y-100812381D01*
X131776308Y-100792721D01*
X131776307Y-100792721D01*
X131772035Y-100792272D01*
X131576166Y-100810097D01*
X131572042Y-100811311D01*
X131572041Y-100811311D01*
X131391605Y-100864416D01*
X131391600Y-100864418D01*
X131387489Y-100865628D01*
X131383686Y-100867616D01*
X131383684Y-100867617D01*
X131372431Y-100873500D01*
X131213192Y-100956748D01*
X131209840Y-100959443D01*
X131209837Y-100959445D01*
X131199580Y-100967692D01*
X131059912Y-101079988D01*
X131057148Y-101083282D01*
X131057145Y-101083285D01*
X130940675Y-101222089D01*
X130933489Y-101230653D01*
X130838739Y-101403004D01*
X130779269Y-101590476D01*
X130757345Y-101785930D01*
X127152900Y-101785930D01*
X127152900Y-101531225D01*
X128258590Y-101531225D01*
X128259119Y-101543851D01*
X128260080Y-101544904D01*
X128264542Y-101546000D01*
X128955500Y-101546000D01*
X128967374Y-101541678D01*
X128971000Y-101535399D01*
X128971000Y-101530500D01*
X129479000Y-101530500D01*
X129483322Y-101542374D01*
X129489601Y-101546000D01*
X130179948Y-101546000D01*
X130191822Y-101541678D01*
X130192703Y-101540152D01*
X130192463Y-101536115D01*
X130157493Y-101420289D01*
X130154228Y-101412365D01*
X130065979Y-101246393D01*
X130061244Y-101239266D01*
X129942434Y-101093590D01*
X129936402Y-101087516D01*
X129791560Y-100967692D01*
X129784466Y-100962907D01*
X129619111Y-100873500D01*
X129611212Y-100870180D01*
X129493806Y-100833837D01*
X129481186Y-100834454D01*
X129480016Y-100835538D01*
X129479000Y-100839737D01*
X129479000Y-101530500D01*
X128971000Y-101530500D01*
X128971000Y-100845298D01*
X128966678Y-100833424D01*
X128965007Y-100832459D01*
X128961245Y-100832669D01*
X128851794Y-100864882D01*
X128843873Y-100868083D01*
X128677282Y-100955175D01*
X128670112Y-100959866D01*
X128523618Y-101077650D01*
X128517497Y-101083644D01*
X128396670Y-101227641D01*
X128391831Y-101234708D01*
X128301273Y-101399433D01*
X128297900Y-101407303D01*
X128258590Y-101531225D01*
X127152900Y-101531225D01*
X127152900Y-99245930D01*
X128217345Y-99245930D01*
X128217704Y-99250206D01*
X128217704Y-99250208D01*
X128226638Y-99356593D01*
X128233803Y-99441919D01*
X128288015Y-99630979D01*
X128289977Y-99634797D01*
X128289978Y-99634799D01*
X128369764Y-99790045D01*
X128377916Y-99805908D01*
X128500083Y-99960044D01*
X128503359Y-99962832D01*
X128646589Y-100084731D01*
X128646592Y-100084733D01*
X128649862Y-100087516D01*
X128653610Y-100089611D01*
X128653612Y-100089612D01*
X128711816Y-100122141D01*
X128821547Y-100183467D01*
X129008600Y-100244244D01*
X129203895Y-100267532D01*
X129399994Y-100252443D01*
X129523402Y-100217987D01*
X129585285Y-100200709D01*
X129585287Y-100200708D01*
X129589428Y-100199552D01*
X129625421Y-100181371D01*
X129761148Y-100112810D01*
X129764981Y-100110874D01*
X129919966Y-99989786D01*
X130048480Y-99840901D01*
X130145628Y-99669890D01*
X130207710Y-99483266D01*
X130232360Y-99288138D01*
X130232753Y-99260000D01*
X130231373Y-99245930D01*
X130757345Y-99245930D01*
X130757704Y-99250206D01*
X130757704Y-99250208D01*
X130766638Y-99356593D01*
X130773803Y-99441919D01*
X130828015Y-99630979D01*
X130829977Y-99634797D01*
X130829978Y-99634799D01*
X130909764Y-99790045D01*
X130917916Y-99805908D01*
X131040083Y-99960044D01*
X131043359Y-99962832D01*
X131186589Y-100084731D01*
X131186592Y-100084733D01*
X131189862Y-100087516D01*
X131193610Y-100089611D01*
X131193612Y-100089612D01*
X131251816Y-100122141D01*
X131361547Y-100183467D01*
X131548600Y-100244244D01*
X131743895Y-100267532D01*
X131939994Y-100252443D01*
X132063402Y-100217987D01*
X132125285Y-100200709D01*
X132125287Y-100200708D01*
X132129428Y-100199552D01*
X132165421Y-100181371D01*
X132301148Y-100112810D01*
X132304981Y-100110874D01*
X132459966Y-99989786D01*
X132588480Y-99840901D01*
X132685628Y-99669890D01*
X132747710Y-99483266D01*
X132772360Y-99288138D01*
X132772753Y-99260000D01*
X132753561Y-99064260D01*
X132749938Y-99052258D01*
X132699899Y-98886524D01*
X132696714Y-98875975D01*
X132689459Y-98862329D01*
X132606397Y-98706113D01*
X132606396Y-98706112D01*
X132604379Y-98702318D01*
X132565097Y-98654154D01*
X132482791Y-98553236D01*
X132482787Y-98553232D01*
X132480072Y-98549903D01*
X132476759Y-98547162D01*
X132331842Y-98427276D01*
X132331838Y-98427273D01*
X132328528Y-98424535D01*
X132155520Y-98330990D01*
X132151418Y-98329720D01*
X132151415Y-98329719D01*
X131971740Y-98274100D01*
X131971739Y-98274100D01*
X131967637Y-98272830D01*
X131963371Y-98272382D01*
X131963368Y-98272381D01*
X131776308Y-98252721D01*
X131776307Y-98252721D01*
X131772035Y-98252272D01*
X131576166Y-98270097D01*
X131572042Y-98271311D01*
X131572041Y-98271311D01*
X131391605Y-98324416D01*
X131391600Y-98324418D01*
X131387489Y-98325628D01*
X131383686Y-98327616D01*
X131383684Y-98327617D01*
X131330586Y-98355376D01*
X131213192Y-98416748D01*
X131209840Y-98419443D01*
X131209837Y-98419445D01*
X131151810Y-98466100D01*
X131059912Y-98539988D01*
X131057148Y-98543282D01*
X131057145Y-98543285D01*
X130936252Y-98687360D01*
X130933489Y-98690653D01*
X130838739Y-98863004D01*
X130837440Y-98867098D01*
X130837439Y-98867101D01*
X130828915Y-98893972D01*
X130779269Y-99050476D01*
X130778790Y-99054751D01*
X130778789Y-99054753D01*
X130773317Y-99103536D01*
X130757345Y-99245930D01*
X130231373Y-99245930D01*
X130213561Y-99064260D01*
X130209938Y-99052258D01*
X130159899Y-98886524D01*
X130156714Y-98875975D01*
X130149459Y-98862329D01*
X130066397Y-98706113D01*
X130066396Y-98706112D01*
X130064379Y-98702318D01*
X130025097Y-98654154D01*
X129942791Y-98553236D01*
X129942787Y-98553232D01*
X129940072Y-98549903D01*
X129936759Y-98547162D01*
X129791842Y-98427276D01*
X129791838Y-98427273D01*
X129788528Y-98424535D01*
X129615520Y-98330990D01*
X129611418Y-98329720D01*
X129611415Y-98329719D01*
X129431740Y-98274100D01*
X129431739Y-98274100D01*
X129427637Y-98272830D01*
X129423371Y-98272382D01*
X129423368Y-98272381D01*
X129236308Y-98252721D01*
X129236307Y-98252721D01*
X129232035Y-98252272D01*
X129036166Y-98270097D01*
X129032042Y-98271311D01*
X129032041Y-98271311D01*
X128851605Y-98324416D01*
X128851600Y-98324418D01*
X128847489Y-98325628D01*
X128843686Y-98327616D01*
X128843684Y-98327617D01*
X128790586Y-98355376D01*
X128673192Y-98416748D01*
X128669840Y-98419443D01*
X128669837Y-98419445D01*
X128611810Y-98466100D01*
X128519912Y-98539988D01*
X128517148Y-98543282D01*
X128517145Y-98543285D01*
X128396252Y-98687360D01*
X128393489Y-98690653D01*
X128298739Y-98863004D01*
X128297440Y-98867098D01*
X128297439Y-98867101D01*
X128288915Y-98893972D01*
X128239269Y-99050476D01*
X128238790Y-99054751D01*
X128238789Y-99054753D01*
X128233317Y-99103536D01*
X128217345Y-99245930D01*
X127152900Y-99245930D01*
X127152900Y-96705930D01*
X128217345Y-96705930D01*
X128217704Y-96710206D01*
X128217704Y-96710208D01*
X128233443Y-96897633D01*
X128233803Y-96901919D01*
X128288015Y-97090979D01*
X128289977Y-97094797D01*
X128289978Y-97094799D01*
X128373660Y-97257626D01*
X128377916Y-97265908D01*
X128500083Y-97420044D01*
X128503359Y-97422832D01*
X128646589Y-97544731D01*
X128646592Y-97544733D01*
X128649862Y-97547516D01*
X128653610Y-97549611D01*
X128653612Y-97549612D01*
X128735704Y-97595491D01*
X128821547Y-97643467D01*
X129008600Y-97704244D01*
X129203895Y-97727532D01*
X129399994Y-97712443D01*
X129549042Y-97670828D01*
X129585285Y-97660709D01*
X129585287Y-97660708D01*
X129589428Y-97659552D01*
X129625421Y-97641371D01*
X129761148Y-97572810D01*
X129764981Y-97570874D01*
X129867440Y-97490824D01*
X129916581Y-97452431D01*
X129916583Y-97452429D01*
X129919966Y-97449786D01*
X130048480Y-97300901D01*
X130145628Y-97129890D01*
X130207710Y-96943266D01*
X130232360Y-96748138D01*
X130232753Y-96720000D01*
X130231373Y-96705930D01*
X130757345Y-96705930D01*
X130757704Y-96710206D01*
X130757704Y-96710208D01*
X130773443Y-96897633D01*
X130773803Y-96901919D01*
X130828015Y-97090979D01*
X130829977Y-97094797D01*
X130829978Y-97094799D01*
X130913660Y-97257626D01*
X130917916Y-97265908D01*
X131040083Y-97420044D01*
X131043359Y-97422832D01*
X131186589Y-97544731D01*
X131186592Y-97544733D01*
X131189862Y-97547516D01*
X131193610Y-97549611D01*
X131193612Y-97549612D01*
X131275704Y-97595491D01*
X131361547Y-97643467D01*
X131548600Y-97704244D01*
X131743895Y-97727532D01*
X131939994Y-97712443D01*
X132089042Y-97670828D01*
X132125285Y-97660709D01*
X132125287Y-97660708D01*
X132129428Y-97659552D01*
X132165421Y-97641371D01*
X132301148Y-97572810D01*
X132304981Y-97570874D01*
X132407440Y-97490824D01*
X132456581Y-97452431D01*
X132456583Y-97452429D01*
X132459966Y-97449786D01*
X132588480Y-97300901D01*
X132685628Y-97129890D01*
X132747710Y-96943266D01*
X132772360Y-96748138D01*
X132772753Y-96720000D01*
X132753561Y-96524260D01*
X132749400Y-96510476D01*
X132697956Y-96340089D01*
X132696714Y-96335975D01*
X132694625Y-96332045D01*
X132606397Y-96166113D01*
X132606396Y-96166112D01*
X132604379Y-96162318D01*
X132557051Y-96104288D01*
X132482791Y-96013236D01*
X132482787Y-96013232D01*
X132480072Y-96009903D01*
X132476759Y-96007162D01*
X132331842Y-95887276D01*
X132331838Y-95887273D01*
X132328528Y-95884535D01*
X132155520Y-95790990D01*
X132151418Y-95789720D01*
X132151415Y-95789719D01*
X131971740Y-95734100D01*
X131971739Y-95734100D01*
X131967637Y-95732830D01*
X131963371Y-95732382D01*
X131963368Y-95732381D01*
X131776308Y-95712721D01*
X131776307Y-95712721D01*
X131772035Y-95712272D01*
X131576166Y-95730097D01*
X131572042Y-95731311D01*
X131572041Y-95731311D01*
X131391605Y-95784416D01*
X131391600Y-95784418D01*
X131387489Y-95785628D01*
X131383686Y-95787616D01*
X131383684Y-95787617D01*
X131368420Y-95795597D01*
X131213192Y-95876748D01*
X131209840Y-95879443D01*
X131209837Y-95879445D01*
X131095497Y-95971377D01*
X131059912Y-95999988D01*
X131057148Y-96003282D01*
X131057145Y-96003285D01*
X130972394Y-96104288D01*
X130933489Y-96150653D01*
X130920606Y-96174087D01*
X130843989Y-96313455D01*
X130838739Y-96323004D01*
X130837440Y-96327098D01*
X130837439Y-96327101D01*
X130801756Y-96439587D01*
X130779269Y-96510476D01*
X130778790Y-96514751D01*
X130778789Y-96514753D01*
X130778184Y-96520145D01*
X130757345Y-96705930D01*
X130231373Y-96705930D01*
X130213561Y-96524260D01*
X130209400Y-96510476D01*
X130157956Y-96340089D01*
X130156714Y-96335975D01*
X130154625Y-96332045D01*
X130066397Y-96166113D01*
X130066396Y-96166112D01*
X130064379Y-96162318D01*
X130017051Y-96104288D01*
X129942791Y-96013236D01*
X129942787Y-96013232D01*
X129940072Y-96009903D01*
X129936759Y-96007162D01*
X129791842Y-95887276D01*
X129791838Y-95887273D01*
X129788528Y-95884535D01*
X129615520Y-95790990D01*
X129611418Y-95789720D01*
X129611415Y-95789719D01*
X129431740Y-95734100D01*
X129431739Y-95734100D01*
X129427637Y-95732830D01*
X129423371Y-95732382D01*
X129423368Y-95732381D01*
X129236308Y-95712721D01*
X129236307Y-95712721D01*
X129232035Y-95712272D01*
X129036166Y-95730097D01*
X129032042Y-95731311D01*
X129032041Y-95731311D01*
X128851605Y-95784416D01*
X128851600Y-95784418D01*
X128847489Y-95785628D01*
X128843686Y-95787616D01*
X128843684Y-95787617D01*
X128828420Y-95795597D01*
X128673192Y-95876748D01*
X128669840Y-95879443D01*
X128669837Y-95879445D01*
X128555497Y-95971377D01*
X128519912Y-95999988D01*
X128517148Y-96003282D01*
X128517145Y-96003285D01*
X128432394Y-96104288D01*
X128393489Y-96150653D01*
X128380606Y-96174087D01*
X128303989Y-96313455D01*
X128298739Y-96323004D01*
X128297440Y-96327098D01*
X128297439Y-96327101D01*
X128261756Y-96439587D01*
X128239269Y-96510476D01*
X128238790Y-96514751D01*
X128238789Y-96514753D01*
X128238184Y-96520145D01*
X128217345Y-96705930D01*
X127152900Y-96705930D01*
X127152900Y-94440137D01*
X128257571Y-94440137D01*
X128257754Y-94443628D01*
X128287300Y-94546667D01*
X128290445Y-94554611D01*
X128376375Y-94721815D01*
X128381008Y-94729003D01*
X128497774Y-94876325D01*
X128503721Y-94882483D01*
X128646876Y-95004318D01*
X128653899Y-95009199D01*
X128817998Y-95100910D01*
X128825833Y-95104333D01*
X128956261Y-95146712D01*
X128968886Y-95146271D01*
X128969823Y-95145427D01*
X128971000Y-95140708D01*
X128971000Y-95134365D01*
X129479000Y-95134365D01*
X129483322Y-95146239D01*
X129485282Y-95147371D01*
X129488495Y-95147214D01*
X129585107Y-95120239D01*
X129593085Y-95117144D01*
X129760879Y-95032385D01*
X129768094Y-95027806D01*
X129916234Y-94912067D01*
X129922425Y-94906171D01*
X130045262Y-94763863D01*
X130050190Y-94756877D01*
X130143045Y-94593424D01*
X130146528Y-94585600D01*
X130192065Y-94448708D01*
X130191712Y-94436076D01*
X130190988Y-94435260D01*
X130186010Y-94434000D01*
X129494500Y-94434000D01*
X129482626Y-94438322D01*
X129479000Y-94444601D01*
X129479000Y-95134365D01*
X128971000Y-95134365D01*
X128971000Y-94449500D01*
X128966678Y-94437626D01*
X128960399Y-94434000D01*
X128270493Y-94434000D01*
X128258619Y-94438322D01*
X128257571Y-94440137D01*
X127152900Y-94440137D01*
X127152900Y-94165930D01*
X130757345Y-94165930D01*
X130757704Y-94170206D01*
X130757704Y-94170208D01*
X130770278Y-94319944D01*
X130773803Y-94361919D01*
X130828015Y-94550979D01*
X130829977Y-94554797D01*
X130829978Y-94554799D01*
X130849829Y-94593424D01*
X130917916Y-94725908D01*
X131040083Y-94880044D01*
X131043359Y-94882832D01*
X131186589Y-95004731D01*
X131186592Y-95004733D01*
X131189862Y-95007516D01*
X131193610Y-95009611D01*
X131193612Y-95009612D01*
X131275705Y-95055492D01*
X131361547Y-95103467D01*
X131548600Y-95164244D01*
X131743895Y-95187532D01*
X131939994Y-95172443D01*
X132076374Y-95134365D01*
X132125285Y-95120709D01*
X132125287Y-95120708D01*
X132129428Y-95119552D01*
X132165421Y-95101371D01*
X132301148Y-95032810D01*
X132304981Y-95030874D01*
X132459966Y-94909786D01*
X132588480Y-94760901D01*
X132685628Y-94589890D01*
X132747710Y-94403266D01*
X132772360Y-94208138D01*
X132772753Y-94180000D01*
X132753561Y-93984260D01*
X132752009Y-93979117D01*
X132697956Y-93800089D01*
X132696714Y-93795975D01*
X132687919Y-93779433D01*
X132606397Y-93626113D01*
X132606396Y-93626112D01*
X132604379Y-93622318D01*
X132523002Y-93522540D01*
X132482791Y-93473236D01*
X132482787Y-93473232D01*
X132480072Y-93469903D01*
X132472506Y-93463644D01*
X132331842Y-93347276D01*
X132331838Y-93347273D01*
X132328528Y-93344535D01*
X132155520Y-93250990D01*
X132151418Y-93249720D01*
X132151415Y-93249719D01*
X131971740Y-93194100D01*
X131971739Y-93194100D01*
X131967637Y-93192830D01*
X131963371Y-93192382D01*
X131963368Y-93192381D01*
X131776308Y-93172721D01*
X131776307Y-93172721D01*
X131772035Y-93172272D01*
X131576166Y-93190097D01*
X131572042Y-93191311D01*
X131572041Y-93191311D01*
X131391605Y-93244416D01*
X131391600Y-93244418D01*
X131387489Y-93245628D01*
X131383686Y-93247616D01*
X131383684Y-93247617D01*
X131372431Y-93253500D01*
X131213192Y-93336748D01*
X131209840Y-93339443D01*
X131209837Y-93339445D01*
X131199580Y-93347692D01*
X131059912Y-93459988D01*
X131057148Y-93463282D01*
X131057145Y-93463285D01*
X130999900Y-93531507D01*
X130933489Y-93610653D01*
X130838739Y-93783004D01*
X130837440Y-93787098D01*
X130837439Y-93787101D01*
X130799529Y-93906609D01*
X130779269Y-93970476D01*
X130778790Y-93974751D01*
X130778789Y-93974753D01*
X130778184Y-93980145D01*
X130757345Y-94165930D01*
X127152900Y-94165930D01*
X127152900Y-93911225D01*
X128258590Y-93911225D01*
X128259119Y-93923851D01*
X128260080Y-93924904D01*
X128264542Y-93926000D01*
X128955500Y-93926000D01*
X128967374Y-93921678D01*
X128971000Y-93915399D01*
X128971000Y-93910500D01*
X129479000Y-93910500D01*
X129483322Y-93922374D01*
X129489601Y-93926000D01*
X130179948Y-93926000D01*
X130191822Y-93921678D01*
X130192703Y-93920152D01*
X130192463Y-93916115D01*
X130157493Y-93800289D01*
X130154228Y-93792365D01*
X130065979Y-93626393D01*
X130061244Y-93619266D01*
X129942434Y-93473590D01*
X129936402Y-93467516D01*
X129791560Y-93347692D01*
X129784466Y-93342907D01*
X129619111Y-93253500D01*
X129611212Y-93250180D01*
X129493806Y-93213837D01*
X129481186Y-93214454D01*
X129480016Y-93215538D01*
X129479000Y-93219737D01*
X129479000Y-93910500D01*
X128971000Y-93910500D01*
X128971000Y-93225298D01*
X128966678Y-93213424D01*
X128965007Y-93212459D01*
X128961245Y-93212669D01*
X128851794Y-93244882D01*
X128843873Y-93248083D01*
X128677282Y-93335175D01*
X128670112Y-93339866D01*
X128523618Y-93457650D01*
X128517497Y-93463644D01*
X128396670Y-93607641D01*
X128391831Y-93614708D01*
X128301273Y-93779433D01*
X128297900Y-93787303D01*
X128258590Y-93911225D01*
X127152900Y-93911225D01*
X127152900Y-91900137D01*
X128257571Y-91900137D01*
X128257754Y-91903628D01*
X128287300Y-92006667D01*
X128290445Y-92014611D01*
X128376375Y-92181815D01*
X128381008Y-92189003D01*
X128497774Y-92336325D01*
X128503721Y-92342483D01*
X128646876Y-92464318D01*
X128653899Y-92469199D01*
X128817998Y-92560910D01*
X128825833Y-92564333D01*
X128956261Y-92606712D01*
X128968886Y-92606271D01*
X128969823Y-92605427D01*
X128971000Y-92600708D01*
X128971000Y-92594365D01*
X129479000Y-92594365D01*
X129483322Y-92606239D01*
X129485282Y-92607371D01*
X129488495Y-92607214D01*
X129585107Y-92580239D01*
X129593085Y-92577144D01*
X129760879Y-92492385D01*
X129768094Y-92487806D01*
X129916234Y-92372067D01*
X129922425Y-92366171D01*
X130045262Y-92223863D01*
X130050190Y-92216877D01*
X130143045Y-92053424D01*
X130146528Y-92045600D01*
X130192065Y-91908708D01*
X130191712Y-91896076D01*
X130190988Y-91895260D01*
X130186010Y-91894000D01*
X129494500Y-91894000D01*
X129482626Y-91898322D01*
X129479000Y-91904601D01*
X129479000Y-92594365D01*
X128971000Y-92594365D01*
X128971000Y-91909500D01*
X128966678Y-91897626D01*
X128960399Y-91894000D01*
X128270493Y-91894000D01*
X128258619Y-91898322D01*
X128257571Y-91900137D01*
X127152900Y-91900137D01*
X127152900Y-91625930D01*
X130757345Y-91625930D01*
X130773803Y-91821919D01*
X130828015Y-92010979D01*
X130829977Y-92014797D01*
X130829978Y-92014799D01*
X130849829Y-92053424D01*
X130917916Y-92185908D01*
X131040083Y-92340044D01*
X131043359Y-92342832D01*
X131186589Y-92464731D01*
X131186592Y-92464733D01*
X131189862Y-92467516D01*
X131193610Y-92469611D01*
X131193612Y-92469612D01*
X131273422Y-92514216D01*
X131361547Y-92563467D01*
X131548600Y-92624244D01*
X131743895Y-92647532D01*
X131939994Y-92632443D01*
X132076374Y-92594365D01*
X132125285Y-92580709D01*
X132125287Y-92580708D01*
X132129428Y-92579552D01*
X132165421Y-92561371D01*
X132249245Y-92519028D01*
X132304981Y-92490874D01*
X132428597Y-92394294D01*
X132456581Y-92372431D01*
X132456583Y-92372429D01*
X132459966Y-92369786D01*
X132588480Y-92220901D01*
X132685628Y-92049890D01*
X132723500Y-91936042D01*
X132760848Y-91888922D01*
X132806906Y-91875889D01*
X135153641Y-91875889D01*
X135210142Y-91896454D01*
X135215795Y-91901634D01*
X135790487Y-92476326D01*
X135790489Y-92476327D01*
X135790493Y-92476331D01*
X141146710Y-97832549D01*
X141149379Y-97835641D01*
X141151399Y-97839774D01*
X141157348Y-97845292D01*
X141157349Y-97845294D01*
X141185227Y-97871154D01*
X141187603Y-97873442D01*
X141200487Y-97886326D01*
X141203825Y-97888616D01*
X141204148Y-97888884D01*
X141207751Y-97892048D01*
X141227844Y-97910687D01*
X141235380Y-97913694D01*
X141235381Y-97913694D01*
X141238244Y-97914836D01*
X141255402Y-97923997D01*
X141264636Y-97930332D01*
X141287077Y-97935657D01*
X141289079Y-97936132D01*
X141301357Y-97940015D01*
X141318931Y-97947027D01*
X141318934Y-97947028D01*
X141324692Y-97949325D01*
X141330556Y-97949900D01*
X141336806Y-97949900D01*
X141357102Y-97952275D01*
X141366090Y-97954408D01*
X141374129Y-97953314D01*
X141374131Y-97953314D01*
X141393314Y-97950703D01*
X141405167Y-97949900D01*
X146919972Y-97949900D01*
X146924050Y-97950199D01*
X146928403Y-97951694D01*
X146974535Y-97949962D01*
X146977834Y-97949900D01*
X146996031Y-97949900D01*
X147000015Y-97949158D01*
X147000417Y-97949121D01*
X147005199Y-97948811D01*
X147024489Y-97948087D01*
X147024491Y-97948087D01*
X147032601Y-97947782D01*
X147042893Y-97943360D01*
X147061497Y-97937708D01*
X147064527Y-97937144D01*
X147064529Y-97937143D01*
X147072508Y-97935657D01*
X147093893Y-97922475D01*
X147105319Y-97916539D01*
X147122701Y-97909071D01*
X147128404Y-97906621D01*
X147132957Y-97902881D01*
X147137377Y-97898461D01*
X147153404Y-97885792D01*
X147161271Y-97880943D01*
X147177903Y-97859071D01*
X147185716Y-97850122D01*
X148538269Y-96497570D01*
X148541361Y-96494901D01*
X148545494Y-96492881D01*
X148551012Y-96486932D01*
X148551014Y-96486931D01*
X148576874Y-96459053D01*
X148579162Y-96456677D01*
X148592046Y-96443793D01*
X148594336Y-96440455D01*
X148594604Y-96440132D01*
X148597768Y-96436529D01*
X148610888Y-96422385D01*
X148616407Y-96416436D01*
X148620556Y-96406036D01*
X148629719Y-96388875D01*
X148636052Y-96379644D01*
X148641852Y-96355200D01*
X148645735Y-96342923D01*
X148652747Y-96325349D01*
X148652748Y-96325346D01*
X148655045Y-96319588D01*
X148655620Y-96313724D01*
X148655620Y-96307474D01*
X148657995Y-96287178D01*
X148658254Y-96286085D01*
X148660128Y-96278190D01*
X148656423Y-96250966D01*
X148655620Y-96239113D01*
X148655620Y-94989768D01*
X148676185Y-94933267D01*
X148690007Y-94920034D01*
X148770053Y-94858613D01*
X148842757Y-94763863D01*
X148855169Y-94747687D01*
X148855170Y-94747686D01*
X148858677Y-94743115D01*
X148864523Y-94729003D01*
X148912184Y-94613939D01*
X148914389Y-94608616D01*
X148933391Y-94464280D01*
X148914389Y-94319944D01*
X148858677Y-94185445D01*
X148846986Y-94170208D01*
X148773562Y-94074520D01*
X148770053Y-94069947D01*
X148654556Y-93981323D01*
X148520056Y-93925611D01*
X148375720Y-93906609D01*
X148231384Y-93925611D01*
X148226060Y-93927816D01*
X148226061Y-93927816D01*
X148102210Y-93979117D01*
X148102208Y-93979118D01*
X148096885Y-93981323D01*
X147981387Y-94069947D01*
X147977878Y-94074520D01*
X147904455Y-94170208D01*
X147892763Y-94185445D01*
X147837051Y-94319944D01*
X147818049Y-94464280D01*
X147837051Y-94608616D01*
X147839256Y-94613939D01*
X147886918Y-94729003D01*
X147892763Y-94743115D01*
X147896270Y-94747686D01*
X147896271Y-94747687D01*
X147908683Y-94763863D01*
X147981387Y-94858613D01*
X148061431Y-94920033D01*
X148093736Y-94970743D01*
X148095820Y-94989768D01*
X148095820Y-96111932D01*
X148075255Y-96168433D01*
X148070075Y-96174087D01*
X146879807Y-97364355D01*
X146825313Y-97389766D01*
X146817652Y-97390100D01*
X141532348Y-97390100D01*
X141475847Y-97369535D01*
X141470193Y-97364355D01*
X135539281Y-91433443D01*
X135536611Y-91430349D01*
X135534590Y-91426215D01*
X135500748Y-91394822D01*
X135498372Y-91392534D01*
X135485501Y-91379663D01*
X135482160Y-91377371D01*
X135481845Y-91377109D01*
X135478254Y-91373955D01*
X135458145Y-91355302D01*
X135447738Y-91351150D01*
X135430594Y-91341996D01*
X135421353Y-91335657D01*
X135396909Y-91329857D01*
X135384632Y-91325974D01*
X135367058Y-91318962D01*
X135367055Y-91318961D01*
X135361297Y-91316664D01*
X135355433Y-91316089D01*
X135349183Y-91316089D01*
X135328887Y-91313714D01*
X135319899Y-91311581D01*
X135311860Y-91312675D01*
X135311858Y-91312675D01*
X135292675Y-91315286D01*
X135280822Y-91316089D01*
X132779881Y-91316089D01*
X132723380Y-91295524D01*
X132698612Y-91261683D01*
X132697959Y-91260099D01*
X132696714Y-91255975D01*
X132689817Y-91243004D01*
X132606397Y-91086113D01*
X132606396Y-91086112D01*
X132604379Y-91082318D01*
X132515901Y-90973833D01*
X132482791Y-90933236D01*
X132482787Y-90933232D01*
X132480072Y-90929903D01*
X132472506Y-90923644D01*
X132331842Y-90807276D01*
X132331838Y-90807273D01*
X132328528Y-90804535D01*
X132155520Y-90710990D01*
X132151418Y-90709720D01*
X132151415Y-90709719D01*
X131971740Y-90654100D01*
X131971739Y-90654100D01*
X131967637Y-90652830D01*
X131963371Y-90652382D01*
X131963368Y-90652381D01*
X131776308Y-90632721D01*
X131776307Y-90632721D01*
X131772035Y-90632272D01*
X131576166Y-90650097D01*
X131572042Y-90651311D01*
X131572041Y-90651311D01*
X131391605Y-90704416D01*
X131391600Y-90704418D01*
X131387489Y-90705628D01*
X131383686Y-90707616D01*
X131383684Y-90707617D01*
X131372431Y-90713500D01*
X131213192Y-90796748D01*
X131209840Y-90799443D01*
X131209837Y-90799445D01*
X131063266Y-90917291D01*
X131059912Y-90919988D01*
X131057148Y-90923282D01*
X131057145Y-90923285D01*
X130962213Y-91036421D01*
X130933489Y-91070653D01*
X130838739Y-91243004D01*
X130837440Y-91247098D01*
X130837439Y-91247101D01*
X130807891Y-91340249D01*
X130779269Y-91430476D01*
X130757345Y-91625930D01*
X127152900Y-91625930D01*
X127152900Y-91371225D01*
X128258590Y-91371225D01*
X128259119Y-91383851D01*
X128260080Y-91384904D01*
X128264542Y-91386000D01*
X128955500Y-91386000D01*
X128967374Y-91381678D01*
X128971000Y-91375399D01*
X128971000Y-91370500D01*
X129479000Y-91370500D01*
X129483322Y-91382374D01*
X129489601Y-91386000D01*
X130179948Y-91386000D01*
X130191822Y-91381678D01*
X130192703Y-91380152D01*
X130192463Y-91376115D01*
X130157493Y-91260289D01*
X130154228Y-91252365D01*
X130065979Y-91086393D01*
X130061244Y-91079266D01*
X129942434Y-90933590D01*
X129936402Y-90927516D01*
X129791560Y-90807692D01*
X129784466Y-90802907D01*
X129619111Y-90713500D01*
X129611212Y-90710180D01*
X129493806Y-90673837D01*
X129481186Y-90674454D01*
X129480016Y-90675538D01*
X129479000Y-90679737D01*
X129479000Y-91370500D01*
X128971000Y-91370500D01*
X128971000Y-90685298D01*
X128966678Y-90673424D01*
X128965007Y-90672459D01*
X128961245Y-90672669D01*
X128851794Y-90704882D01*
X128843873Y-90708083D01*
X128677282Y-90795175D01*
X128670112Y-90799866D01*
X128523618Y-90917650D01*
X128517497Y-90923644D01*
X128396670Y-91067641D01*
X128391831Y-91074708D01*
X128301273Y-91239433D01*
X128297900Y-91247303D01*
X128258590Y-91371225D01*
X127152900Y-91371225D01*
X127152900Y-90554280D01*
X142950549Y-90554280D01*
X142969551Y-90698616D01*
X142974150Y-90709719D01*
X143013425Y-90804535D01*
X143025263Y-90833115D01*
X143028770Y-90837686D01*
X143028771Y-90837687D01*
X143110378Y-90944040D01*
X143113887Y-90948613D01*
X143193931Y-91010033D01*
X143226236Y-91060743D01*
X143228320Y-91079768D01*
X143228320Y-95578192D01*
X143228021Y-95582270D01*
X143226526Y-95586623D01*
X143226831Y-95594734D01*
X143228258Y-95632756D01*
X143228320Y-95636054D01*
X143228320Y-95654251D01*
X143229062Y-95658235D01*
X143229099Y-95658637D01*
X143229409Y-95663419D01*
X143230438Y-95690821D01*
X143233642Y-95698279D01*
X143234859Y-95701111D01*
X143240512Y-95719717D01*
X143242563Y-95730728D01*
X143246823Y-95737639D01*
X143255745Y-95752113D01*
X143261680Y-95763538D01*
X143271599Y-95786624D01*
X143275339Y-95791177D01*
X143279759Y-95795597D01*
X143292428Y-95811624D01*
X143297277Y-95819491D01*
X143303737Y-95824403D01*
X143319148Y-95836122D01*
X143328098Y-95843936D01*
X143756708Y-96272546D01*
X143759378Y-96275640D01*
X143761399Y-96279774D01*
X143767346Y-96285291D01*
X143767347Y-96285292D01*
X143795241Y-96311167D01*
X143797617Y-96313455D01*
X143810488Y-96326326D01*
X143813829Y-96328618D01*
X143814144Y-96328880D01*
X143817735Y-96332034D01*
X143837844Y-96350687D01*
X143848251Y-96354839D01*
X143865395Y-96363993D01*
X143874636Y-96370332D01*
X143899079Y-96376132D01*
X143911357Y-96380015D01*
X143928931Y-96387027D01*
X143928934Y-96387028D01*
X143934692Y-96389325D01*
X143940556Y-96389900D01*
X143946806Y-96389900D01*
X143967102Y-96392275D01*
X143976090Y-96394408D01*
X143984130Y-96393314D01*
X143984131Y-96393314D01*
X144003316Y-96390703D01*
X144015168Y-96389900D01*
X144502012Y-96389900D01*
X144558513Y-96410465D01*
X144571748Y-96424290D01*
X144598423Y-96459053D01*
X144633167Y-96504333D01*
X144748664Y-96592957D01*
X144883164Y-96648669D01*
X145027500Y-96667671D01*
X145171836Y-96648669D01*
X145306336Y-96592957D01*
X145421833Y-96504333D01*
X145457510Y-96457837D01*
X145506949Y-96393407D01*
X145506950Y-96393406D01*
X145510457Y-96388835D01*
X145514111Y-96380015D01*
X145563964Y-96259659D01*
X145566169Y-96254336D01*
X145585171Y-96110000D01*
X145566169Y-95965664D01*
X145531716Y-95882489D01*
X145512663Y-95836490D01*
X145512662Y-95836488D01*
X145510457Y-95831165D01*
X145505269Y-95824403D01*
X145425342Y-95720240D01*
X145421833Y-95715667D01*
X145341794Y-95654251D01*
X145310908Y-95630551D01*
X145310907Y-95630550D01*
X145306336Y-95627043D01*
X145171836Y-95571331D01*
X145027500Y-95552329D01*
X144883164Y-95571331D01*
X144846246Y-95586623D01*
X144753990Y-95624837D01*
X144753988Y-95624838D01*
X144748665Y-95627043D01*
X144744094Y-95630550D01*
X144744093Y-95630551D01*
X144706677Y-95659261D01*
X144633167Y-95715667D01*
X144629658Y-95720240D01*
X144571748Y-95795710D01*
X144521037Y-95828016D01*
X144502012Y-95830100D01*
X144142349Y-95830100D01*
X144085848Y-95809535D01*
X144080194Y-95804355D01*
X143813865Y-95538027D01*
X143788455Y-95483533D01*
X143788120Y-95475872D01*
X143788120Y-91079768D01*
X143808685Y-91023267D01*
X143822507Y-91010034D01*
X143822626Y-91009943D01*
X164172100Y-91009943D01*
X164172101Y-92390056D01*
X164180972Y-92434658D01*
X164214766Y-92485234D01*
X164265342Y-92519028D01*
X164273833Y-92520717D01*
X164305052Y-92526927D01*
X164309943Y-92527900D01*
X164999840Y-92527900D01*
X165690056Y-92527899D01*
X165711784Y-92523577D01*
X165726163Y-92520718D01*
X165726165Y-92520717D01*
X165734658Y-92519028D01*
X165785234Y-92485234D01*
X165819028Y-92434658D01*
X165827900Y-92390057D01*
X165827899Y-91009944D01*
X165819028Y-90965342D01*
X165785234Y-90914766D01*
X165734658Y-90880972D01*
X165690057Y-90872100D01*
X165000160Y-90872100D01*
X164309944Y-90872101D01*
X164288216Y-90876423D01*
X164273837Y-90879282D01*
X164273835Y-90879283D01*
X164265342Y-90880972D01*
X164214766Y-90914766D01*
X164180972Y-90965342D01*
X164172100Y-91009943D01*
X143822626Y-91009943D01*
X143902553Y-90948613D01*
X143906062Y-90944040D01*
X143987669Y-90837687D01*
X143987670Y-90837686D01*
X143991177Y-90833115D01*
X144003016Y-90804535D01*
X144042290Y-90709719D01*
X144046889Y-90698616D01*
X144065891Y-90554280D01*
X144046889Y-90409944D01*
X143991177Y-90275445D01*
X143902553Y-90159947D01*
X143822509Y-90098527D01*
X143790204Y-90047817D01*
X143788120Y-90028792D01*
X143788120Y-87679768D01*
X143808685Y-87623267D01*
X143822507Y-87610034D01*
X143902553Y-87548613D01*
X143991177Y-87433115D01*
X144028545Y-87342903D01*
X144044684Y-87303939D01*
X144046889Y-87298616D01*
X144065891Y-87154280D01*
X144046889Y-87009944D01*
X144014094Y-86930770D01*
X143993383Y-86880770D01*
X143993382Y-86880768D01*
X143991177Y-86875445D01*
X143902553Y-86759947D01*
X143887672Y-86748528D01*
X143791628Y-86674831D01*
X143791627Y-86674830D01*
X143787056Y-86671323D01*
X143652556Y-86615611D01*
X143508220Y-86596609D01*
X143363884Y-86615611D01*
X143358560Y-86617816D01*
X143358561Y-86617816D01*
X143234710Y-86669117D01*
X143234708Y-86669118D01*
X143229385Y-86671323D01*
X143224814Y-86674830D01*
X143224813Y-86674831D01*
X143126319Y-86750408D01*
X143113887Y-86759947D01*
X143025263Y-86875445D01*
X143023058Y-86880768D01*
X143023057Y-86880770D01*
X143002346Y-86930770D01*
X142969551Y-87009944D01*
X142950549Y-87154280D01*
X142969551Y-87298616D01*
X142971756Y-87303939D01*
X142987896Y-87342903D01*
X143025263Y-87433115D01*
X143113887Y-87548613D01*
X143193931Y-87610033D01*
X143226236Y-87660743D01*
X143228320Y-87679768D01*
X143228320Y-90028792D01*
X143207755Y-90085293D01*
X143193930Y-90098528D01*
X143189983Y-90101557D01*
X143113887Y-90159947D01*
X143025263Y-90275445D01*
X142969551Y-90409944D01*
X142950549Y-90554280D01*
X127152900Y-90554280D01*
X127152900Y-89960691D01*
X128222600Y-89960691D01*
X128223443Y-89969251D01*
X128229752Y-90000969D01*
X128236254Y-90016666D01*
X128260315Y-90052674D01*
X128272326Y-90064685D01*
X128308334Y-90088746D01*
X128324031Y-90095248D01*
X128355749Y-90101557D01*
X128364309Y-90102400D01*
X128955500Y-90102400D01*
X128967374Y-90098078D01*
X128971000Y-90091799D01*
X128971000Y-90086900D01*
X129479000Y-90086900D01*
X129483322Y-90098774D01*
X129489601Y-90102400D01*
X130085691Y-90102400D01*
X130094251Y-90101557D01*
X130125969Y-90095248D01*
X130141666Y-90088746D01*
X130177674Y-90064685D01*
X130189685Y-90052674D01*
X130213746Y-90016666D01*
X130220248Y-90000969D01*
X130226557Y-89969251D01*
X130227400Y-89960691D01*
X130227400Y-89369500D01*
X130223078Y-89357626D01*
X130216799Y-89354000D01*
X129494500Y-89354000D01*
X129482626Y-89358322D01*
X129479000Y-89364601D01*
X129479000Y-90086900D01*
X128971000Y-90086900D01*
X128971000Y-89369500D01*
X128966678Y-89357626D01*
X128960399Y-89354000D01*
X128238100Y-89354000D01*
X128226226Y-89358322D01*
X128222600Y-89364601D01*
X128222600Y-89960691D01*
X127152900Y-89960691D01*
X127152900Y-89085930D01*
X130757345Y-89085930D01*
X130757704Y-89090206D01*
X130757704Y-89090208D01*
X130773405Y-89277178D01*
X130773803Y-89281919D01*
X130828015Y-89470979D01*
X130829977Y-89474797D01*
X130829978Y-89474799D01*
X130866796Y-89546438D01*
X130917916Y-89645908D01*
X131040083Y-89800044D01*
X131043359Y-89802832D01*
X131186589Y-89924731D01*
X131186592Y-89924733D01*
X131189862Y-89927516D01*
X131193610Y-89929611D01*
X131193612Y-89929612D01*
X131249222Y-89960691D01*
X131361547Y-90023467D01*
X131548600Y-90084244D01*
X131743895Y-90107532D01*
X131939994Y-90092443D01*
X132063402Y-90057987D01*
X132125285Y-90040709D01*
X132125287Y-90040708D01*
X132129428Y-90039552D01*
X132150730Y-90028792D01*
X132225670Y-89990937D01*
X132304981Y-89950874D01*
X132459966Y-89829786D01*
X132588480Y-89680901D01*
X132660275Y-89554520D01*
X132683507Y-89513624D01*
X132683508Y-89513622D01*
X132685628Y-89509890D01*
X132723500Y-89396042D01*
X132760848Y-89348922D01*
X132806906Y-89335889D01*
X135053983Y-89335889D01*
X135058061Y-89336188D01*
X135062414Y-89337683D01*
X135108546Y-89335951D01*
X135111845Y-89335889D01*
X135130042Y-89335889D01*
X135134026Y-89335147D01*
X135134428Y-89335110D01*
X135139210Y-89334800D01*
X135158500Y-89334076D01*
X135158502Y-89334076D01*
X135166612Y-89333771D01*
X135176904Y-89329349D01*
X135195508Y-89323697D01*
X135198538Y-89323133D01*
X135198540Y-89323132D01*
X135206519Y-89321646D01*
X135227904Y-89308464D01*
X135239330Y-89302528D01*
X135256712Y-89295060D01*
X135262415Y-89292610D01*
X135266968Y-89288870D01*
X135271388Y-89284450D01*
X135287415Y-89271781D01*
X135295282Y-89266932D01*
X135311914Y-89245060D01*
X135319727Y-89236111D01*
X140261558Y-84294280D01*
X142950549Y-84294280D01*
X142969551Y-84438616D01*
X143025263Y-84573115D01*
X143028770Y-84577686D01*
X143028771Y-84577687D01*
X143033847Y-84584302D01*
X143113887Y-84688613D01*
X143229384Y-84777237D01*
X143363884Y-84832949D01*
X143508220Y-84851951D01*
X143652556Y-84832949D01*
X143787056Y-84777237D01*
X143902553Y-84688613D01*
X143963972Y-84608570D01*
X144014683Y-84576264D01*
X144033708Y-84574180D01*
X144553372Y-84574180D01*
X144609873Y-84594745D01*
X144615527Y-84599925D01*
X145420075Y-85404473D01*
X145445486Y-85458967D01*
X145445820Y-85466628D01*
X145445820Y-86258792D01*
X145425255Y-86315293D01*
X145411430Y-86328528D01*
X145335960Y-86386438D01*
X145331387Y-86389947D01*
X145327878Y-86394520D01*
X145260886Y-86481827D01*
X145242763Y-86505445D01*
X145240558Y-86510768D01*
X145240557Y-86510770D01*
X145214086Y-86574677D01*
X145187051Y-86639944D01*
X145168049Y-86784280D01*
X145187051Y-86928616D01*
X145189256Y-86933939D01*
X145239245Y-87054621D01*
X145242763Y-87063115D01*
X145331387Y-87178613D01*
X145446884Y-87267237D01*
X145581384Y-87322949D01*
X145725720Y-87341951D01*
X145870056Y-87322949D01*
X146004556Y-87267237D01*
X146120053Y-87178613D01*
X146208677Y-87063115D01*
X146212196Y-87054621D01*
X146262184Y-86933939D01*
X146264389Y-86928616D01*
X146283391Y-86784280D01*
X146264389Y-86639944D01*
X146237354Y-86574677D01*
X146210883Y-86510770D01*
X146210882Y-86510768D01*
X146208677Y-86505445D01*
X146190555Y-86481827D01*
X146123562Y-86394520D01*
X146120053Y-86389947D01*
X146040009Y-86328527D01*
X146007704Y-86277817D01*
X146005620Y-86258792D01*
X146005620Y-85364308D01*
X146005919Y-85360230D01*
X146007414Y-85355877D01*
X146005682Y-85309744D01*
X146005620Y-85306446D01*
X146005620Y-85288249D01*
X146004878Y-85284265D01*
X146004841Y-85283863D01*
X146004531Y-85279081D01*
X146003807Y-85259791D01*
X146003807Y-85259789D01*
X146003502Y-85251679D01*
X145999080Y-85241387D01*
X145993428Y-85222783D01*
X145992864Y-85219753D01*
X145992863Y-85219751D01*
X145991377Y-85211772D01*
X145978195Y-85190387D01*
X145972259Y-85178961D01*
X145964791Y-85161579D01*
X145962341Y-85155876D01*
X145958601Y-85151323D01*
X145954181Y-85146903D01*
X145941510Y-85130873D01*
X145940921Y-85129917D01*
X145936663Y-85123009D01*
X145914791Y-85106377D01*
X145905842Y-85098564D01*
X144939012Y-84131734D01*
X144936342Y-84128640D01*
X144934321Y-84124506D01*
X144900479Y-84093113D01*
X144898103Y-84090825D01*
X144885232Y-84077954D01*
X144881891Y-84075662D01*
X144881576Y-84075400D01*
X144877985Y-84072246D01*
X144857876Y-84053593D01*
X144847469Y-84049441D01*
X144830325Y-84040287D01*
X144821084Y-84033948D01*
X144796640Y-84028148D01*
X144784363Y-84024265D01*
X144766789Y-84017253D01*
X144766786Y-84017252D01*
X144761028Y-84014955D01*
X144755164Y-84014380D01*
X144748914Y-84014380D01*
X144728618Y-84012005D01*
X144719630Y-84009872D01*
X144711591Y-84010966D01*
X144711589Y-84010966D01*
X144692406Y-84013577D01*
X144680553Y-84014380D01*
X144033708Y-84014380D01*
X143977207Y-83993815D01*
X143963972Y-83979990D01*
X143906062Y-83904520D01*
X143902553Y-83899947D01*
X143787056Y-83811323D01*
X143652556Y-83755611D01*
X143508220Y-83736609D01*
X143363884Y-83755611D01*
X143358560Y-83757816D01*
X143358561Y-83757816D01*
X143234710Y-83809117D01*
X143234708Y-83809118D01*
X143229385Y-83811323D01*
X143224814Y-83814830D01*
X143224813Y-83814831D01*
X143167271Y-83858984D01*
X143113887Y-83899947D01*
X143025263Y-84015445D01*
X143023058Y-84020768D01*
X143023057Y-84020770D01*
X142999371Y-84077954D01*
X142969551Y-84149944D01*
X142950549Y-84294280D01*
X140261558Y-84294280D01*
X141655913Y-82899925D01*
X141710407Y-82874514D01*
X141718068Y-82874180D01*
X142982732Y-82874180D01*
X143039233Y-82894745D01*
X143052468Y-82908570D01*
X143113887Y-82988613D01*
X143229384Y-83077237D01*
X143363884Y-83132949D01*
X143508220Y-83151951D01*
X143652556Y-83132949D01*
X143787056Y-83077237D01*
X143902553Y-82988613D01*
X143963972Y-82908570D01*
X144014683Y-82876264D01*
X144033708Y-82874180D01*
X145253372Y-82874180D01*
X145309873Y-82894745D01*
X145315527Y-82899925D01*
X147040075Y-84624474D01*
X147065486Y-84678968D01*
X147065820Y-84686629D01*
X147065820Y-86678792D01*
X147045255Y-86735293D01*
X147031430Y-86748528D01*
X147010589Y-86764520D01*
X146951387Y-86809947D01*
X146862763Y-86925445D01*
X146860558Y-86930768D01*
X146860557Y-86930770D01*
X146823887Y-87019299D01*
X146807051Y-87059944D01*
X146788049Y-87204280D01*
X146807051Y-87348616D01*
X146862763Y-87483115D01*
X146951387Y-87598613D01*
X146955960Y-87602122D01*
X146966269Y-87610032D01*
X147066884Y-87687237D01*
X147201384Y-87742949D01*
X147345720Y-87761951D01*
X147490056Y-87742949D01*
X147624556Y-87687237D01*
X147725172Y-87610032D01*
X147735480Y-87602122D01*
X147740053Y-87598613D01*
X147828677Y-87483115D01*
X147884389Y-87348616D01*
X147903391Y-87204280D01*
X147884389Y-87059944D01*
X147867553Y-87019299D01*
X147830883Y-86930770D01*
X147830882Y-86930768D01*
X147828677Y-86925445D01*
X147740053Y-86809947D01*
X147660009Y-86748527D01*
X147627704Y-86697817D01*
X147625620Y-86678792D01*
X147625620Y-85850000D01*
X149202329Y-85850000D01*
X149221331Y-85994336D01*
X149223536Y-85999659D01*
X149266289Y-86102872D01*
X149277043Y-86128835D01*
X149365667Y-86244333D01*
X149370240Y-86247842D01*
X149441003Y-86302140D01*
X149481164Y-86332957D01*
X149615664Y-86388669D01*
X149760000Y-86407671D01*
X149904336Y-86388669D01*
X150038836Y-86332957D01*
X150078998Y-86302140D01*
X150149760Y-86247842D01*
X150154333Y-86244333D01*
X150215752Y-86164290D01*
X150266463Y-86131984D01*
X150285488Y-86129900D01*
X151217652Y-86129900D01*
X151274153Y-86150465D01*
X151279807Y-86155645D01*
X151820075Y-86695914D01*
X151845486Y-86750408D01*
X151845820Y-86758069D01*
X151845820Y-89418792D01*
X151825255Y-89475293D01*
X151811430Y-89488528D01*
X151778724Y-89513624D01*
X151731387Y-89549947D01*
X151727878Y-89554520D01*
X151655171Y-89649275D01*
X151642763Y-89665445D01*
X151640558Y-89670768D01*
X151640557Y-89670770D01*
X151636361Y-89680901D01*
X151587051Y-89799944D01*
X151568049Y-89944280D01*
X151587051Y-90088616D01*
X151642763Y-90223115D01*
X151731387Y-90338613D01*
X151735960Y-90342122D01*
X151831793Y-90415657D01*
X151846884Y-90427237D01*
X151981384Y-90482949D01*
X152125720Y-90501951D01*
X152270056Y-90482949D01*
X152404556Y-90427237D01*
X152419648Y-90415657D01*
X152515480Y-90342122D01*
X152520053Y-90338613D01*
X152608677Y-90223115D01*
X152664389Y-90088616D01*
X152683391Y-89944280D01*
X152664389Y-89799944D01*
X152615079Y-89680901D01*
X152610883Y-89670770D01*
X152610882Y-89670768D01*
X152608677Y-89665445D01*
X152596270Y-89649275D01*
X152523562Y-89554520D01*
X152520053Y-89549947D01*
X152440009Y-89488527D01*
X152407704Y-89437817D01*
X152405620Y-89418792D01*
X152405620Y-86655742D01*
X152405919Y-86651668D01*
X152407413Y-86647317D01*
X152406937Y-86634621D01*
X152405682Y-86601199D01*
X152405620Y-86597902D01*
X152405620Y-86579689D01*
X152404877Y-86575704D01*
X152404841Y-86575310D01*
X152404530Y-86570518D01*
X152403806Y-86551231D01*
X152403502Y-86543119D01*
X152399080Y-86532827D01*
X152393428Y-86514223D01*
X152392864Y-86511193D01*
X152392863Y-86511191D01*
X152391377Y-86503212D01*
X152378195Y-86481827D01*
X152372259Y-86470401D01*
X152364791Y-86453019D01*
X152362341Y-86447316D01*
X152358601Y-86442763D01*
X152354181Y-86438343D01*
X152341510Y-86422313D01*
X152340921Y-86421357D01*
X152336663Y-86414449D01*
X152314791Y-86397817D01*
X152305842Y-86390004D01*
X151603292Y-85687454D01*
X151600622Y-85684360D01*
X151598601Y-85680226D01*
X151564759Y-85648833D01*
X151562383Y-85646545D01*
X151549512Y-85633674D01*
X151546171Y-85631382D01*
X151545856Y-85631120D01*
X151542265Y-85627966D01*
X151522156Y-85609313D01*
X151511749Y-85605161D01*
X151494605Y-85596007D01*
X151485364Y-85589668D01*
X151460920Y-85583868D01*
X151448643Y-85579985D01*
X151431069Y-85572973D01*
X151431066Y-85572972D01*
X151425308Y-85570675D01*
X151419444Y-85570100D01*
X151413194Y-85570100D01*
X151392898Y-85567725D01*
X151383910Y-85565592D01*
X151375871Y-85566686D01*
X151375869Y-85566686D01*
X151356686Y-85569297D01*
X151344833Y-85570100D01*
X150285488Y-85570100D01*
X150228987Y-85549535D01*
X150215752Y-85535710D01*
X150157842Y-85460240D01*
X150154333Y-85455667D01*
X150038836Y-85367043D01*
X149904336Y-85311331D01*
X149760000Y-85292329D01*
X149615664Y-85311331D01*
X149610340Y-85313536D01*
X149610341Y-85313536D01*
X149486490Y-85364837D01*
X149486488Y-85364838D01*
X149481165Y-85367043D01*
X149476594Y-85370550D01*
X149476593Y-85370551D01*
X149432385Y-85404473D01*
X149365667Y-85455667D01*
X149277043Y-85571165D01*
X149274838Y-85576488D01*
X149274837Y-85576490D01*
X149246180Y-85645675D01*
X149221331Y-85705664D01*
X149202329Y-85850000D01*
X147625620Y-85850000D01*
X147625620Y-85013684D01*
X163742314Y-85013684D01*
X163761421Y-85232079D01*
X163762413Y-85235780D01*
X163762413Y-85235782D01*
X163781348Y-85306446D01*
X163818162Y-85443838D01*
X163819784Y-85447317D01*
X163819785Y-85447319D01*
X163867449Y-85549535D01*
X163910812Y-85642527D01*
X164036557Y-85822109D01*
X164191575Y-85977127D01*
X164371157Y-86102872D01*
X164426835Y-86128835D01*
X164502869Y-86164290D01*
X164569846Y-86195522D01*
X164689955Y-86227705D01*
X164777902Y-86251271D01*
X164777904Y-86251271D01*
X164781605Y-86252263D01*
X164785421Y-86252597D01*
X164785422Y-86252597D01*
X164996182Y-86271036D01*
X165000000Y-86271370D01*
X165003818Y-86271036D01*
X165214578Y-86252597D01*
X165214579Y-86252597D01*
X165218395Y-86252263D01*
X165222096Y-86251271D01*
X165222098Y-86251271D01*
X165310045Y-86227705D01*
X165430154Y-86195522D01*
X165497132Y-86164290D01*
X165573165Y-86128835D01*
X165628843Y-86102872D01*
X165808425Y-85977127D01*
X165963443Y-85822109D01*
X166089188Y-85642527D01*
X166132551Y-85549535D01*
X166180215Y-85447319D01*
X166180216Y-85447317D01*
X166181838Y-85443838D01*
X166218652Y-85306446D01*
X166237587Y-85235782D01*
X166237587Y-85235780D01*
X166238579Y-85232079D01*
X166257686Y-85013684D01*
X166243536Y-84851951D01*
X166238913Y-84799106D01*
X166238913Y-84799105D01*
X166238579Y-84795289D01*
X166181838Y-84583530D01*
X166179114Y-84577687D01*
X166101100Y-84410387D01*
X166089188Y-84384841D01*
X165963443Y-84205259D01*
X165808425Y-84050241D01*
X165791715Y-84038540D01*
X165758731Y-84015445D01*
X165628843Y-83924496D01*
X165430154Y-83831846D01*
X165310045Y-83799663D01*
X165222098Y-83776097D01*
X165222096Y-83776097D01*
X165218395Y-83775105D01*
X165214579Y-83774771D01*
X165214578Y-83774771D01*
X165003818Y-83756332D01*
X165000000Y-83755998D01*
X164996182Y-83756332D01*
X164785422Y-83774771D01*
X164785421Y-83774771D01*
X164781605Y-83775105D01*
X164777904Y-83776097D01*
X164777902Y-83776097D01*
X164689955Y-83799663D01*
X164569846Y-83831846D01*
X164371157Y-83924496D01*
X164241269Y-84015445D01*
X164208286Y-84038540D01*
X164191575Y-84050241D01*
X164036557Y-84205259D01*
X163910812Y-84384841D01*
X163898900Y-84410387D01*
X163820887Y-84577687D01*
X163818162Y-84583530D01*
X163761421Y-84795289D01*
X163743471Y-85000460D01*
X163742314Y-85013684D01*
X147625620Y-85013684D01*
X147625620Y-84584302D01*
X147625919Y-84580228D01*
X147627413Y-84575877D01*
X147625682Y-84529759D01*
X147625620Y-84526462D01*
X147625620Y-84508249D01*
X147624877Y-84504264D01*
X147624841Y-84503870D01*
X147624530Y-84499078D01*
X147623806Y-84479791D01*
X147623502Y-84471679D01*
X147619080Y-84461387D01*
X147613428Y-84442783D01*
X147612864Y-84439753D01*
X147612863Y-84439751D01*
X147611377Y-84431772D01*
X147598195Y-84410387D01*
X147592259Y-84398961D01*
X147587689Y-84388324D01*
X147582341Y-84375876D01*
X147578601Y-84371323D01*
X147574181Y-84366903D01*
X147561510Y-84350873D01*
X147560921Y-84349917D01*
X147556663Y-84343009D01*
X147534791Y-84326377D01*
X147525842Y-84318564D01*
X145639012Y-82431734D01*
X145636342Y-82428640D01*
X145634321Y-82424506D01*
X145623162Y-82414154D01*
X145600479Y-82393113D01*
X145598103Y-82390825D01*
X145585232Y-82377954D01*
X145581891Y-82375662D01*
X145581576Y-82375400D01*
X145577985Y-82372246D01*
X145557876Y-82353593D01*
X145547469Y-82349441D01*
X145530325Y-82340287D01*
X145521084Y-82333948D01*
X145496640Y-82328148D01*
X145484363Y-82324265D01*
X145466789Y-82317253D01*
X145466786Y-82317252D01*
X145461028Y-82314955D01*
X145455164Y-82314380D01*
X145448914Y-82314380D01*
X145428618Y-82312005D01*
X145419630Y-82309872D01*
X145411591Y-82310966D01*
X145411589Y-82310966D01*
X145392406Y-82313577D01*
X145380553Y-82314380D01*
X144033708Y-82314380D01*
X143977207Y-82293815D01*
X143963972Y-82279990D01*
X143906062Y-82204520D01*
X143902553Y-82199947D01*
X143787056Y-82111323D01*
X143652556Y-82055611D01*
X143508220Y-82036609D01*
X143363884Y-82055611D01*
X143358560Y-82057816D01*
X143358561Y-82057816D01*
X143234710Y-82109117D01*
X143234708Y-82109118D01*
X143229385Y-82111323D01*
X143113887Y-82199947D01*
X143110378Y-82204520D01*
X143052468Y-82279990D01*
X143001757Y-82312296D01*
X142982732Y-82314380D01*
X141615748Y-82314380D01*
X141611670Y-82314081D01*
X141607317Y-82312586D01*
X141562329Y-82314275D01*
X141561184Y-82314318D01*
X141557886Y-82314380D01*
X141539689Y-82314380D01*
X141535705Y-82315122D01*
X141535303Y-82315159D01*
X141530521Y-82315469D01*
X141511229Y-82316193D01*
X141511226Y-82316194D01*
X141503119Y-82316498D01*
X141495662Y-82319702D01*
X141495661Y-82319702D01*
X141492824Y-82320921D01*
X141474222Y-82326573D01*
X141463212Y-82328623D01*
X141456301Y-82332883D01*
X141456298Y-82332884D01*
X141441825Y-82341805D01*
X141430402Y-82347739D01*
X141416777Y-82353593D01*
X141407316Y-82357658D01*
X141402763Y-82361398D01*
X141398341Y-82365820D01*
X141382310Y-82378491D01*
X141381360Y-82379077D01*
X141374449Y-82383337D01*
X141369537Y-82389797D01*
X141357821Y-82405204D01*
X141350007Y-82414154D01*
X138174494Y-85589668D01*
X135013818Y-88750344D01*
X134959324Y-88775755D01*
X134951663Y-88776089D01*
X132779881Y-88776089D01*
X132723380Y-88755524D01*
X132698612Y-88721683D01*
X132697959Y-88720099D01*
X132696714Y-88715975D01*
X132604379Y-88542318D01*
X132565097Y-88494154D01*
X132482791Y-88393236D01*
X132482787Y-88393232D01*
X132480072Y-88389903D01*
X132476759Y-88387162D01*
X132331842Y-88267276D01*
X132331838Y-88267273D01*
X132328528Y-88264535D01*
X132155520Y-88170990D01*
X132151418Y-88169720D01*
X132151415Y-88169719D01*
X131971740Y-88114100D01*
X131971739Y-88114100D01*
X131967637Y-88112830D01*
X131963371Y-88112382D01*
X131963368Y-88112381D01*
X131776308Y-88092721D01*
X131776307Y-88092721D01*
X131772035Y-88092272D01*
X131576166Y-88110097D01*
X131572042Y-88111311D01*
X131572041Y-88111311D01*
X131391605Y-88164416D01*
X131391600Y-88164418D01*
X131387489Y-88165628D01*
X131383686Y-88167616D01*
X131383684Y-88167617D01*
X131353620Y-88183334D01*
X131213192Y-88256748D01*
X131209840Y-88259443D01*
X131209837Y-88259445D01*
X131063266Y-88377291D01*
X131059912Y-88379988D01*
X131057148Y-88383282D01*
X131057145Y-88383285D01*
X130936252Y-88527360D01*
X130933489Y-88530653D01*
X130838739Y-88703004D01*
X130837440Y-88707098D01*
X130837439Y-88707101D01*
X130815661Y-88775755D01*
X130779269Y-88890476D01*
X130757345Y-89085930D01*
X127152900Y-89085930D01*
X127152900Y-88830500D01*
X128222600Y-88830500D01*
X128226922Y-88842374D01*
X128233201Y-88846000D01*
X128955500Y-88846000D01*
X128967374Y-88841678D01*
X128971000Y-88835399D01*
X128971000Y-88830500D01*
X129479000Y-88830500D01*
X129483322Y-88842374D01*
X129489601Y-88846000D01*
X130211900Y-88846000D01*
X130223774Y-88841678D01*
X130227400Y-88835399D01*
X130227400Y-88239309D01*
X130226557Y-88230749D01*
X130220248Y-88199031D01*
X130213746Y-88183334D01*
X130189685Y-88147326D01*
X130177674Y-88135315D01*
X130141666Y-88111254D01*
X130125969Y-88104752D01*
X130094251Y-88098443D01*
X130085691Y-88097600D01*
X129494500Y-88097600D01*
X129482626Y-88101922D01*
X129479000Y-88108201D01*
X129479000Y-88830500D01*
X128971000Y-88830500D01*
X128971000Y-88113100D01*
X128966678Y-88101226D01*
X128960399Y-88097600D01*
X128364309Y-88097600D01*
X128355749Y-88098443D01*
X128324031Y-88104752D01*
X128308334Y-88111254D01*
X128272326Y-88135315D01*
X128260315Y-88147326D01*
X128236254Y-88183334D01*
X128229752Y-88199031D01*
X128223443Y-88230749D01*
X128222600Y-88239309D01*
X128222600Y-88830500D01*
X127152900Y-88830500D01*
X127152900Y-85013684D01*
X127742314Y-85013684D01*
X127761421Y-85232079D01*
X127762413Y-85235780D01*
X127762413Y-85235782D01*
X127781348Y-85306446D01*
X127818162Y-85443838D01*
X127819784Y-85447317D01*
X127819785Y-85447319D01*
X127867449Y-85549535D01*
X127910812Y-85642527D01*
X128036557Y-85822109D01*
X128191575Y-85977127D01*
X128371157Y-86102872D01*
X128426835Y-86128835D01*
X128502869Y-86164290D01*
X128569846Y-86195522D01*
X128689955Y-86227705D01*
X128777902Y-86251271D01*
X128777904Y-86251271D01*
X128781605Y-86252263D01*
X128785421Y-86252597D01*
X128785422Y-86252597D01*
X128996182Y-86271036D01*
X129000000Y-86271370D01*
X129003818Y-86271036D01*
X129214578Y-86252597D01*
X129214579Y-86252597D01*
X129218395Y-86252263D01*
X129222096Y-86251271D01*
X129222098Y-86251271D01*
X129310045Y-86227705D01*
X129430154Y-86195522D01*
X129497132Y-86164290D01*
X129573165Y-86128835D01*
X129628843Y-86102872D01*
X129808425Y-85977127D01*
X129963443Y-85822109D01*
X130089188Y-85642527D01*
X130132551Y-85549535D01*
X130180215Y-85447319D01*
X130180216Y-85447317D01*
X130181838Y-85443838D01*
X130218652Y-85306446D01*
X130237587Y-85235782D01*
X130237587Y-85235780D01*
X130238579Y-85232079D01*
X130257686Y-85013684D01*
X130243536Y-84851951D01*
X130238913Y-84799106D01*
X130238913Y-84799105D01*
X130238579Y-84795289D01*
X130181838Y-84583530D01*
X130179114Y-84577687D01*
X130101100Y-84410387D01*
X130089188Y-84384841D01*
X129963443Y-84205259D01*
X129808425Y-84050241D01*
X129791715Y-84038540D01*
X129758731Y-84015445D01*
X129628843Y-83924496D01*
X129430154Y-83831846D01*
X129310045Y-83799663D01*
X129222098Y-83776097D01*
X129222096Y-83776097D01*
X129218395Y-83775105D01*
X129214579Y-83774771D01*
X129214578Y-83774771D01*
X129003818Y-83756332D01*
X129000000Y-83755998D01*
X128996182Y-83756332D01*
X128785422Y-83774771D01*
X128785421Y-83774771D01*
X128781605Y-83775105D01*
X128777904Y-83776097D01*
X128777902Y-83776097D01*
X128689955Y-83799663D01*
X128569846Y-83831846D01*
X128371157Y-83924496D01*
X128241269Y-84015445D01*
X128208286Y-84038540D01*
X128191575Y-84050241D01*
X128036557Y-84205259D01*
X127910812Y-84384841D01*
X127898900Y-84410387D01*
X127820887Y-84577687D01*
X127818162Y-84583530D01*
X127761421Y-84795289D01*
X127743471Y-85000460D01*
X127742314Y-85013684D01*
X127152900Y-85013684D01*
X127152900Y-83998010D01*
X127173465Y-83941509D01*
X127196848Y-83921887D01*
X141127425Y-75879065D01*
X143305801Y-74621379D01*
X145742314Y-74621379D01*
X145761421Y-74839774D01*
X145818162Y-75051533D01*
X145910812Y-75250222D01*
X146036557Y-75429804D01*
X146191575Y-75584822D01*
X146371157Y-75710567D01*
X146569846Y-75803217D01*
X146689955Y-75835400D01*
X146777902Y-75858966D01*
X146777904Y-75858966D01*
X146781605Y-75859958D01*
X146785421Y-75860292D01*
X146785422Y-75860292D01*
X146996182Y-75878731D01*
X147000000Y-75879065D01*
X147003818Y-75878731D01*
X147214578Y-75860292D01*
X147214579Y-75860292D01*
X147218395Y-75859958D01*
X147222096Y-75858966D01*
X147222098Y-75858966D01*
X147310045Y-75835400D01*
X147430154Y-75803217D01*
X147628843Y-75710567D01*
X147808425Y-75584822D01*
X147963443Y-75429804D01*
X148089188Y-75250222D01*
X148181838Y-75051533D01*
X148238579Y-74839774D01*
X148257686Y-74621379D01*
X148238579Y-74402984D01*
X148181838Y-74191225D01*
X148089188Y-73992536D01*
X147963443Y-73812954D01*
X147808425Y-73657936D01*
X147628843Y-73532191D01*
X147430154Y-73439541D01*
X147310045Y-73407358D01*
X147222098Y-73383792D01*
X147222096Y-73383792D01*
X147218395Y-73382800D01*
X147214579Y-73382466D01*
X147214578Y-73382466D01*
X147003818Y-73364027D01*
X147000000Y-73363693D01*
X146996182Y-73364027D01*
X146785422Y-73382466D01*
X146785421Y-73382466D01*
X146781605Y-73382800D01*
X146777904Y-73383792D01*
X146777902Y-73383792D01*
X146689955Y-73407358D01*
X146569846Y-73439541D01*
X146371157Y-73532191D01*
X146191575Y-73657936D01*
X146036557Y-73812954D01*
X145910812Y-73992536D01*
X145818162Y-74191225D01*
X145761421Y-74402984D01*
X145743471Y-74608155D01*
X145742314Y-74621379D01*
X143305801Y-74621379D01*
X146956050Y-72513907D01*
X147015264Y-72503466D01*
X147043950Y-72513907D01*
G37*
%TD.AperFunction*%
%TD*%
M02*
