%TF.GenerationSoftware,KiCad,Pcbnew,7.0.5*%
%TF.CreationDate,2023-06-08T00:56:16-04:00*%
%TF.ProjectId,INDICATOR,494e4449-4341-4544-9f52-2e6b69636164,rev?*%
%TF.SameCoordinates,Original*%
%TF.FileFunction,Copper,L2,Bot*%
%TF.FilePolarity,Positive*%
%FSLAX46Y46*%
G04 Gerber Fmt 4.6, Leading zero omitted, Abs format (unit mm)*
G04 Created by KiCad (PCBNEW 7.0.5) date 2023-06-08 00:56:16*
%MOMM*%
%LPD*%
G01*
G04 APERTURE LIST*
%TA.AperFunction,ComponentPad*%
%ADD10C,2.500000*%
%TD*%
%TA.AperFunction,ComponentPad*%
%ADD11R,1.350000X1.350000*%
%TD*%
%TA.AperFunction,ComponentPad*%
%ADD12O,1.350000X1.350000*%
%TD*%
%TA.AperFunction,ComponentPad*%
%ADD13R,1.700000X1.700000*%
%TD*%
%TA.AperFunction,ComponentPad*%
%ADD14O,1.700000X1.700000*%
%TD*%
%TA.AperFunction,ViaPad*%
%ADD15C,0.660400*%
%TD*%
%TA.AperFunction,Conductor*%
%ADD16C,1.270000*%
%TD*%
G04 APERTURE END LIST*
D10*
%TO.P,U1,1,1*%
%TO.N,/BUR_BAT_in*%
X150160000Y-94203621D03*
%TO.P,U1,2,2*%
X150160000Y-97863621D03*
%TO.P,U1,3,3*%
%TO.N,/BUR_BAT_out*%
X150160000Y-102333621D03*
%TO.P,U1,4,4*%
X150160000Y-105993621D03*
%TD*%
D11*
%TO.P,J3,1,Pin_1*%
%TO.N,/MAIN_BAT*%
X168060000Y-101104610D03*
D12*
%TO.P,J3,2,Pin_2*%
%TO.N,/VBAT1*%
X168060000Y-99104610D03*
%TD*%
D13*
%TO.P,SW1,1,A*%
%TO.N,unconnected-(SW1-A-Pad1)*%
X158160000Y-102623621D03*
D14*
%TO.P,SW1,2,B*%
%TO.N,/MAIN_BAT*%
X158160000Y-100083621D03*
%TO.P,SW1,3,C*%
%TO.N,/VBAT1*%
X158160000Y-97543621D03*
%TD*%
D13*
%TO.P,J1,1,Pin_1*%
%TO.N,/VBAT*%
X143810000Y-86465599D03*
D14*
%TO.P,J1,2,Pin_2*%
%TO.N,/~{EN}*%
X143810000Y-83925599D03*
%TO.P,J1,3,Pin_3*%
%TO.N,VCC*%
X146350000Y-86465599D03*
%TO.P,J1,4,Pin_4*%
%TO.N,/VBAT_OK*%
X146350000Y-83925599D03*
%TO.P,J1,5,Pin_5*%
%TO.N,/~{I2C_RESET}*%
X148890000Y-86465599D03*
%TO.P,J1,6,Pin_6*%
%TO.N,+5V*%
X148890000Y-83925599D03*
%TO.P,J1,7,Pin_7*%
%TO.N,/RXD*%
X151430000Y-86465599D03*
%TO.P,J1,8,Pin_8*%
%TO.N,GND*%
X151430000Y-83925599D03*
%TO.P,J1,9,Pin_9*%
%TO.N,/TXD*%
X153970000Y-86465599D03*
%TO.P,J1,10,Pin_10*%
%TO.N,GND*%
X153970000Y-83925599D03*
%TO.P,J1,11,Pin_11*%
%TO.N,/SDA*%
X156510000Y-86465599D03*
%TO.P,J1,12,Pin_12*%
%TO.N,/SCL*%
X156510000Y-83925599D03*
%TD*%
D13*
%TO.P,J2,1,Pin_1*%
%TO.N,/P1*%
X156510000Y-113743621D03*
D14*
%TO.P,J2,2,Pin_2*%
%TO.N,unconnected-(J2-Pin_2-Pad2)*%
X156510000Y-116283621D03*
%TO.P,J2,3,Pin_3*%
%TO.N,/P2*%
X153970000Y-113743621D03*
%TO.P,J2,4,Pin_4*%
%TO.N,unconnected-(J2-Pin_4-Pad4)*%
X153970000Y-116283621D03*
%TO.P,J2,5,Pin_5*%
%TO.N,/CHG2-*%
X151430000Y-113743621D03*
%TO.P,J2,6,Pin_6*%
%TO.N,unconnected-(J2-Pin_6-Pad6)*%
X151430000Y-116283621D03*
%TO.P,J2,7,Pin_7*%
%TO.N,/CHG2+*%
X148890000Y-113743621D03*
%TO.P,J2,8,Pin_8*%
%TO.N,/CHG1-*%
X148890000Y-116283621D03*
%TO.P,J2,9,Pin_9*%
%TO.N,/CHG1+*%
X146350000Y-113743621D03*
%TO.P,J2,10,Pin_10*%
%TO.N,GND*%
X146350000Y-116283621D03*
%TO.P,J2,11,Pin_11*%
%TO.N,/BAT_BR*%
X143810000Y-113743621D03*
%TO.P,J2,12,Pin_12*%
%TO.N,GND*%
X143810000Y-116283621D03*
%TD*%
D11*
%TO.P,J4,1,Pin_1*%
%TO.N,/BUR_BAT_in*%
X132460000Y-99098621D03*
D12*
%TO.P,J4,2,Pin_2*%
%TO.N,/BUR_BAT_out*%
X132460000Y-101098621D03*
%TD*%
D15*
%TO.N,GND*%
X134160000Y-103198621D03*
X134160000Y-109198621D03*
X162160000Y-106698621D03*
X132160000Y-93198621D03*
X154160000Y-104698621D03*
X140160000Y-85198621D03*
X156160000Y-106698621D03*
X134160000Y-111198621D03*
X168160000Y-104698621D03*
X134160000Y-91198621D03*
X152160000Y-118198621D03*
X162160000Y-87198621D03*
X160160000Y-93198621D03*
X150160000Y-89198621D03*
X148160000Y-110698621D03*
X166160000Y-93198621D03*
X132160000Y-97198621D03*
X164160000Y-109198621D03*
X146160000Y-106698621D03*
X160160000Y-110698621D03*
X150160000Y-82198621D03*
X162160000Y-89198621D03*
X164160000Y-93198621D03*
X136160000Y-89198621D03*
X142160000Y-97198621D03*
X138160000Y-85198621D03*
X138160000Y-89198621D03*
X166160000Y-89198621D03*
X146160000Y-102698621D03*
X148160000Y-89198621D03*
X158160000Y-89198621D03*
X152160000Y-108698621D03*
X132160000Y-105198621D03*
X142160000Y-89198621D03*
X168160000Y-93198621D03*
X166160000Y-104698621D03*
X160160000Y-108698621D03*
X136160000Y-113198621D03*
X158160000Y-104698621D03*
X168160000Y-95198621D03*
X162160000Y-93198621D03*
X148160000Y-120198621D03*
X166160000Y-102698621D03*
X152160000Y-110698621D03*
X158160000Y-108698621D03*
X156160000Y-108698621D03*
X160160000Y-91198621D03*
X152160000Y-120198621D03*
X150160000Y-108698621D03*
X138160000Y-87198621D03*
X162160000Y-102698621D03*
X142160000Y-95198621D03*
X146160000Y-82198621D03*
X152160000Y-91198621D03*
X134160000Y-107198621D03*
X144160000Y-106698621D03*
X168160000Y-102698621D03*
X146160000Y-108698621D03*
X144160000Y-95198621D03*
X146160000Y-118198621D03*
X156160000Y-82198621D03*
X134160000Y-87198621D03*
X160160000Y-89198621D03*
X168160000Y-106698621D03*
X138160000Y-111198621D03*
X154160000Y-82198621D03*
X154160000Y-108698621D03*
X156160000Y-95198621D03*
X162160000Y-111198621D03*
X146160000Y-95198621D03*
X166160000Y-95198621D03*
X164160000Y-95198621D03*
X162160000Y-113198621D03*
X136160000Y-111198621D03*
X158160000Y-91198621D03*
X136160000Y-105198621D03*
X136160000Y-87198621D03*
X134160000Y-97198621D03*
X132160000Y-95198621D03*
X142160000Y-87198621D03*
X162160000Y-95198621D03*
X154160000Y-118198621D03*
X144160000Y-108698621D03*
X158160000Y-110698621D03*
X164160000Y-111198621D03*
X156160000Y-110698621D03*
X148160000Y-82198621D03*
X156160000Y-89198621D03*
X134160000Y-113198621D03*
X162160000Y-91198621D03*
X146160000Y-93198621D03*
X160160000Y-85198621D03*
X158160000Y-93198621D03*
X150160000Y-91198621D03*
X154160000Y-93198621D03*
X142160000Y-93198621D03*
X142160000Y-85198621D03*
X154160000Y-89198621D03*
X154160000Y-100698621D03*
X164160000Y-91198621D03*
X154160000Y-96698621D03*
X156160000Y-91198621D03*
X160160000Y-95198621D03*
X156160000Y-93198621D03*
X166160000Y-87198621D03*
X160160000Y-87198621D03*
X162160000Y-85198621D03*
X142160000Y-91198621D03*
X144160000Y-97198621D03*
X154160000Y-98698621D03*
X154160000Y-106698621D03*
X148160000Y-80198621D03*
X136160000Y-109198621D03*
X158160000Y-95198621D03*
X148160000Y-91198621D03*
X144160000Y-82198621D03*
X148160000Y-118198621D03*
X156160000Y-118198621D03*
X138160000Y-115198621D03*
X146160000Y-91198621D03*
X144160000Y-91198621D03*
X166160000Y-106698621D03*
X134160000Y-105198621D03*
X152160000Y-89198621D03*
X146160000Y-89198621D03*
X148160000Y-108698621D03*
X144160000Y-93198621D03*
X154160000Y-91198621D03*
X132160000Y-103198621D03*
X154160000Y-110698621D03*
X162160000Y-108698621D03*
X134160000Y-95198621D03*
X164160000Y-87198621D03*
X162160000Y-115198621D03*
X134160000Y-89198621D03*
X154160000Y-102698621D03*
X162160000Y-104698621D03*
X138160000Y-113198621D03*
X134160000Y-93198621D03*
X164160000Y-113198621D03*
X160160000Y-104698621D03*
X160160000Y-115198621D03*
X152160000Y-82198621D03*
X150160000Y-118198621D03*
X154160000Y-95198621D03*
X156160000Y-104698621D03*
X140160000Y-113198621D03*
X136160000Y-107198621D03*
X166160000Y-91198621D03*
X144160000Y-118198621D03*
X164160000Y-102698621D03*
X164160000Y-89198621D03*
X152160000Y-80198621D03*
X144160000Y-102698621D03*
X140160000Y-87198621D03*
X140160000Y-115198621D03*
X164160000Y-104698621D03*
X150160000Y-110698621D03*
X158160000Y-106698621D03*
X160160000Y-113198621D03*
X164160000Y-106698621D03*
X160160000Y-106698621D03*
X144160000Y-89198621D03*
X132160000Y-107198621D03*
X146160000Y-104698621D03*
X144160000Y-104698621D03*
X146160000Y-97198621D03*
%TD*%
D16*
%TO.N,/BUR_BAT_out*%
X150160000Y-102333621D02*
X150160000Y-105993621D01*
X132460000Y-101098621D02*
X148925000Y-101098621D01*
X148925000Y-101098621D02*
X150160000Y-102333621D01*
%TO.N,/BUR_BAT_in*%
X150160000Y-97863621D02*
X150160000Y-94203621D01*
X148925000Y-99098621D02*
X150160000Y-97863621D01*
X132460000Y-99098621D02*
X148925000Y-99098621D01*
%TO.N,/MAIN_BAT*%
X165094011Y-100083621D02*
X158160000Y-100083621D01*
X166115000Y-101104610D02*
X165094011Y-100083621D01*
X168060000Y-101104610D02*
X166115000Y-101104610D01*
%TD*%
%TA.AperFunction,Conductor*%
%TO.N,GND*%
G36*
X150203946Y-77388502D02*
G01*
X169810750Y-88708494D01*
X169849399Y-88754554D01*
X169854700Y-88784618D01*
X169854700Y-111424599D01*
X169834135Y-111481100D01*
X169810750Y-111500723D01*
X150203949Y-122820715D01*
X150144735Y-122831156D01*
X150116049Y-122820715D01*
X149138254Y-122256185D01*
X146770601Y-120889220D01*
X148749884Y-120889220D01*
X148769115Y-121121316D01*
X148769116Y-121121322D01*
X148826286Y-121347080D01*
X148826289Y-121347088D01*
X148897987Y-121510541D01*
X148919840Y-121560361D01*
X148919844Y-121560367D01*
X149047215Y-121755325D01*
X149047216Y-121755327D01*
X149047220Y-121755331D01*
X149204954Y-121926676D01*
X149388740Y-122069722D01*
X149593563Y-122180567D01*
X149813837Y-122256187D01*
X149813839Y-122256187D01*
X149813841Y-122256188D01*
X150043550Y-122294520D01*
X150043554Y-122294520D01*
X150276450Y-122294520D01*
X150506158Y-122256188D01*
X150506158Y-122256187D01*
X150506163Y-122256187D01*
X150726437Y-122180567D01*
X150931260Y-122069722D01*
X151115046Y-121926676D01*
X151272780Y-121755331D01*
X151400160Y-121560361D01*
X151493712Y-121347084D01*
X151550884Y-121121317D01*
X151570116Y-120889220D01*
X151550884Y-120657123D01*
X151550883Y-120657117D01*
X151493713Y-120431359D01*
X151493710Y-120431351D01*
X151400164Y-120218089D01*
X151400160Y-120218079D01*
X151319435Y-120094520D01*
X151272784Y-120023114D01*
X151272783Y-120023112D01*
X151115050Y-119851768D01*
X151115048Y-119851767D01*
X151115046Y-119851764D01*
X150931260Y-119708718D01*
X150726437Y-119597873D01*
X150726433Y-119597871D01*
X150726430Y-119597870D01*
X150506167Y-119522254D01*
X150506158Y-119522251D01*
X150276450Y-119483920D01*
X150276446Y-119483920D01*
X150043554Y-119483920D01*
X150043550Y-119483920D01*
X149813841Y-119522251D01*
X149813832Y-119522254D01*
X149593569Y-119597870D01*
X149388740Y-119708718D01*
X149204949Y-119851768D01*
X149047216Y-120023112D01*
X149047215Y-120023114D01*
X148919844Y-120218072D01*
X148919835Y-120218089D01*
X148826289Y-120431351D01*
X148826286Y-120431359D01*
X148769116Y-120657117D01*
X148769115Y-120657123D01*
X148749884Y-120889220D01*
X146770601Y-120889220D01*
X139013441Y-116410621D01*
X142789735Y-116410621D01*
X142797072Y-116485109D01*
X142855842Y-116678846D01*
X142855844Y-116678849D01*
X142951281Y-116857399D01*
X143079717Y-117013899D01*
X143079721Y-117013903D01*
X143236221Y-117142339D01*
X143414771Y-117237776D01*
X143414774Y-117237778D01*
X143608515Y-117296550D01*
X143683000Y-117303884D01*
X143683000Y-116770502D01*
X143774237Y-116783621D01*
X143845763Y-116783621D01*
X143937000Y-116770502D01*
X143937000Y-117303884D01*
X144011484Y-117296550D01*
X144205225Y-117237778D01*
X144205228Y-117237776D01*
X144383778Y-117142339D01*
X144540278Y-117013903D01*
X144540282Y-117013899D01*
X144668718Y-116857399D01*
X144764155Y-116678849D01*
X144764157Y-116678846D01*
X144822927Y-116485109D01*
X144830265Y-116410621D01*
X145329735Y-116410621D01*
X145337072Y-116485109D01*
X145395842Y-116678846D01*
X145395844Y-116678849D01*
X145491281Y-116857399D01*
X145619717Y-117013899D01*
X145619721Y-117013903D01*
X145776221Y-117142339D01*
X145954771Y-117237776D01*
X145954774Y-117237778D01*
X146148515Y-117296550D01*
X146223000Y-117303884D01*
X146223000Y-116770502D01*
X146314237Y-116783621D01*
X146385763Y-116783621D01*
X146477000Y-116770502D01*
X146477000Y-117303884D01*
X146551484Y-117296550D01*
X146745225Y-117237778D01*
X146745228Y-117237776D01*
X146923778Y-117142339D01*
X147080278Y-117013903D01*
X147080282Y-117013899D01*
X147208718Y-116857399D01*
X147304155Y-116678849D01*
X147304157Y-116678846D01*
X147362927Y-116485109D01*
X147370265Y-116410621D01*
X146833818Y-116410621D01*
X146850000Y-116355510D01*
X146850000Y-116283621D01*
X147882247Y-116283621D01*
X147901612Y-116480230D01*
X147958957Y-116669269D01*
X147958958Y-116669271D01*
X148052084Y-116843499D01*
X148177411Y-116996210D01*
X148330122Y-117121537D01*
X148504350Y-117214663D01*
X148693397Y-117272010D01*
X148890000Y-117291374D01*
X149086603Y-117272010D01*
X149275650Y-117214663D01*
X149449878Y-117121537D01*
X149602589Y-116996210D01*
X149727916Y-116843499D01*
X149821042Y-116669271D01*
X149878389Y-116480224D01*
X149897753Y-116283621D01*
X150422247Y-116283621D01*
X150441612Y-116480230D01*
X150498957Y-116669269D01*
X150498958Y-116669271D01*
X150592084Y-116843499D01*
X150717411Y-116996210D01*
X150870122Y-117121537D01*
X151044350Y-117214663D01*
X151233397Y-117272010D01*
X151430000Y-117291374D01*
X151626603Y-117272010D01*
X151815650Y-117214663D01*
X151989878Y-117121537D01*
X152142589Y-116996210D01*
X152267916Y-116843499D01*
X152361042Y-116669271D01*
X152418389Y-116480224D01*
X152437753Y-116283621D01*
X152962247Y-116283621D01*
X152981612Y-116480230D01*
X153038957Y-116669269D01*
X153038958Y-116669271D01*
X153132084Y-116843499D01*
X153257411Y-116996210D01*
X153410122Y-117121537D01*
X153584350Y-117214663D01*
X153773397Y-117272010D01*
X153970000Y-117291374D01*
X154166603Y-117272010D01*
X154355650Y-117214663D01*
X154529878Y-117121537D01*
X154682589Y-116996210D01*
X154807916Y-116843499D01*
X154901042Y-116669271D01*
X154958389Y-116480224D01*
X154977753Y-116283621D01*
X155502247Y-116283621D01*
X155521612Y-116480230D01*
X155578957Y-116669269D01*
X155578958Y-116669271D01*
X155672084Y-116843499D01*
X155797411Y-116996210D01*
X155950122Y-117121537D01*
X156124350Y-117214663D01*
X156313397Y-117272010D01*
X156510000Y-117291374D01*
X156706603Y-117272010D01*
X156895650Y-117214663D01*
X157069878Y-117121537D01*
X157222589Y-116996210D01*
X157347916Y-116843499D01*
X157441042Y-116669271D01*
X157498389Y-116480224D01*
X157517753Y-116283621D01*
X157498389Y-116087018D01*
X157441042Y-115897971D01*
X157347916Y-115723743D01*
X157222589Y-115571032D01*
X157069878Y-115445705D01*
X156895650Y-115352579D01*
X156895649Y-115352578D01*
X156895648Y-115352578D01*
X156706609Y-115295233D01*
X156706604Y-115295232D01*
X156706603Y-115295232D01*
X156510000Y-115275868D01*
X156509999Y-115275868D01*
X156462657Y-115280530D01*
X156313397Y-115295232D01*
X156313395Y-115295232D01*
X156313390Y-115295233D01*
X156124351Y-115352578D01*
X155950121Y-115445705D01*
X155797413Y-115571030D01*
X155797409Y-115571034D01*
X155672084Y-115723742D01*
X155578957Y-115897972D01*
X155521612Y-116087011D01*
X155502247Y-116283621D01*
X154977753Y-116283621D01*
X154958389Y-116087018D01*
X154901042Y-115897971D01*
X154807916Y-115723743D01*
X154682589Y-115571032D01*
X154529878Y-115445705D01*
X154355650Y-115352579D01*
X154355649Y-115352578D01*
X154355648Y-115352578D01*
X154166609Y-115295233D01*
X154166604Y-115295232D01*
X154166603Y-115295232D01*
X153970000Y-115275868D01*
X153773397Y-115295232D01*
X153773395Y-115295232D01*
X153773390Y-115295233D01*
X153584351Y-115352578D01*
X153410121Y-115445705D01*
X153257413Y-115571030D01*
X153257409Y-115571034D01*
X153132084Y-115723742D01*
X153038957Y-115897972D01*
X152981612Y-116087011D01*
X152962247Y-116283621D01*
X152437753Y-116283621D01*
X152418389Y-116087018D01*
X152361042Y-115897971D01*
X152267916Y-115723743D01*
X152142589Y-115571032D01*
X151989878Y-115445705D01*
X151815650Y-115352579D01*
X151815649Y-115352578D01*
X151815648Y-115352578D01*
X151626609Y-115295233D01*
X151626604Y-115295232D01*
X151626603Y-115295232D01*
X151430000Y-115275868D01*
X151429999Y-115275868D01*
X151382657Y-115280530D01*
X151233397Y-115295232D01*
X151233395Y-115295232D01*
X151233390Y-115295233D01*
X151044351Y-115352578D01*
X150870121Y-115445705D01*
X150717413Y-115571030D01*
X150717409Y-115571034D01*
X150592084Y-115723742D01*
X150498957Y-115897972D01*
X150441612Y-116087011D01*
X150422247Y-116283621D01*
X149897753Y-116283621D01*
X149878389Y-116087018D01*
X149821042Y-115897971D01*
X149727916Y-115723743D01*
X149602589Y-115571032D01*
X149449878Y-115445705D01*
X149275650Y-115352579D01*
X149275649Y-115352578D01*
X149275648Y-115352578D01*
X149086609Y-115295233D01*
X149086604Y-115295232D01*
X149086603Y-115295232D01*
X148890000Y-115275868D01*
X148889999Y-115275868D01*
X148842657Y-115280530D01*
X148693397Y-115295232D01*
X148693395Y-115295232D01*
X148693390Y-115295233D01*
X148504351Y-115352578D01*
X148330121Y-115445705D01*
X148177413Y-115571030D01*
X148177409Y-115571034D01*
X148052084Y-115723742D01*
X147958957Y-115897972D01*
X147901612Y-116087011D01*
X147882247Y-116283621D01*
X146850000Y-116283621D01*
X146850000Y-116211732D01*
X146833818Y-116156621D01*
X147370264Y-116156621D01*
X147362927Y-116082132D01*
X147304157Y-115888395D01*
X147304155Y-115888392D01*
X147208718Y-115709842D01*
X147080282Y-115553342D01*
X147080278Y-115553338D01*
X146923778Y-115424902D01*
X146745228Y-115329465D01*
X146745225Y-115329463D01*
X146551488Y-115270693D01*
X146477000Y-115263356D01*
X146477000Y-115796739D01*
X146385763Y-115783621D01*
X146314237Y-115783621D01*
X146223000Y-115796739D01*
X146223000Y-115263356D01*
X146148511Y-115270693D01*
X145954774Y-115329463D01*
X145954771Y-115329465D01*
X145776221Y-115424902D01*
X145619721Y-115553338D01*
X145619717Y-115553342D01*
X145491281Y-115709842D01*
X145395844Y-115888392D01*
X145395842Y-115888395D01*
X145337072Y-116082132D01*
X145329735Y-116156621D01*
X145866182Y-116156621D01*
X145850000Y-116211732D01*
X145850000Y-116355510D01*
X145866182Y-116410621D01*
X145329735Y-116410621D01*
X144830265Y-116410621D01*
X144293818Y-116410621D01*
X144310000Y-116355510D01*
X144310000Y-116211732D01*
X144293818Y-116156621D01*
X144830264Y-116156621D01*
X144822927Y-116082132D01*
X144764157Y-115888395D01*
X144764155Y-115888392D01*
X144668718Y-115709842D01*
X144540282Y-115553342D01*
X144540278Y-115553338D01*
X144383778Y-115424902D01*
X144205228Y-115329465D01*
X144205225Y-115329463D01*
X144011488Y-115270693D01*
X143937000Y-115263356D01*
X143937000Y-115796739D01*
X143845763Y-115783621D01*
X143774237Y-115783621D01*
X143683000Y-115796739D01*
X143683000Y-115263356D01*
X143608511Y-115270693D01*
X143414774Y-115329463D01*
X143414771Y-115329465D01*
X143236221Y-115424902D01*
X143079721Y-115553338D01*
X143079717Y-115553342D01*
X142951281Y-115709842D01*
X142855844Y-115888392D01*
X142855842Y-115888395D01*
X142797072Y-116082132D01*
X142789735Y-116156621D01*
X143326182Y-116156621D01*
X143310000Y-116211732D01*
X143310000Y-116355510D01*
X143326182Y-116410621D01*
X142789735Y-116410621D01*
X139013441Y-116410621D01*
X134394061Y-113743621D01*
X142802247Y-113743621D01*
X142821612Y-113940230D01*
X142878957Y-114129269D01*
X142878958Y-114129271D01*
X142972084Y-114303499D01*
X143097411Y-114456210D01*
X143250122Y-114581537D01*
X143424350Y-114674663D01*
X143613397Y-114732010D01*
X143810000Y-114751374D01*
X144006603Y-114732010D01*
X144195650Y-114674663D01*
X144369878Y-114581537D01*
X144522589Y-114456210D01*
X144647916Y-114303499D01*
X144741042Y-114129271D01*
X144798389Y-113940224D01*
X144817753Y-113743621D01*
X145342247Y-113743621D01*
X145361612Y-113940230D01*
X145418957Y-114129269D01*
X145418958Y-114129271D01*
X145512084Y-114303499D01*
X145637411Y-114456210D01*
X145790122Y-114581537D01*
X145964350Y-114674663D01*
X146153397Y-114732010D01*
X146350000Y-114751374D01*
X146546603Y-114732010D01*
X146735650Y-114674663D01*
X146909878Y-114581537D01*
X147062589Y-114456210D01*
X147187916Y-114303499D01*
X147281042Y-114129271D01*
X147338389Y-113940224D01*
X147357753Y-113743621D01*
X147357753Y-113743620D01*
X147882247Y-113743620D01*
X147901612Y-113940230D01*
X147958957Y-114129269D01*
X147958958Y-114129271D01*
X148052084Y-114303499D01*
X148177411Y-114456210D01*
X148330122Y-114581537D01*
X148504350Y-114674663D01*
X148693397Y-114732010D01*
X148890000Y-114751374D01*
X149086603Y-114732010D01*
X149275650Y-114674663D01*
X149449878Y-114581537D01*
X149602589Y-114456210D01*
X149727916Y-114303499D01*
X149821042Y-114129271D01*
X149878389Y-113940224D01*
X149897753Y-113743621D01*
X149897753Y-113743620D01*
X150422247Y-113743620D01*
X150441612Y-113940230D01*
X150498957Y-114129269D01*
X150498958Y-114129271D01*
X150592084Y-114303499D01*
X150717411Y-114456210D01*
X150870122Y-114581537D01*
X151044350Y-114674663D01*
X151233397Y-114732010D01*
X151430000Y-114751374D01*
X151626603Y-114732010D01*
X151815650Y-114674663D01*
X151989878Y-114581537D01*
X152142589Y-114456210D01*
X152267916Y-114303499D01*
X152361042Y-114129271D01*
X152418389Y-113940224D01*
X152437753Y-113743621D01*
X152437753Y-113743620D01*
X152962247Y-113743620D01*
X152981612Y-113940230D01*
X153038957Y-114129269D01*
X153038958Y-114129271D01*
X153132084Y-114303499D01*
X153257411Y-114456210D01*
X153410122Y-114581537D01*
X153584350Y-114674663D01*
X153773397Y-114732010D01*
X153970000Y-114751374D01*
X154166603Y-114732010D01*
X154355650Y-114674663D01*
X154479098Y-114608679D01*
X155507100Y-114608679D01*
X155515972Y-114653279D01*
X155549766Y-114703855D01*
X155566701Y-114715171D01*
X155600341Y-114737649D01*
X155607741Y-114739120D01*
X155644943Y-114746521D01*
X157375056Y-114746520D01*
X157375058Y-114746520D01*
X157387750Y-114743995D01*
X157419658Y-114737649D01*
X157470234Y-114703855D01*
X157504028Y-114653279D01*
X157512900Y-114608678D01*
X157512899Y-112878565D01*
X157512899Y-112878564D01*
X157512899Y-112878562D01*
X157509111Y-112859523D01*
X157504028Y-112833963D01*
X157470234Y-112783387D01*
X157470002Y-112783232D01*
X157419658Y-112749592D01*
X157382456Y-112742192D01*
X157375057Y-112740721D01*
X157375056Y-112740721D01*
X155644941Y-112740721D01*
X155600341Y-112749593D01*
X155549767Y-112783386D01*
X155549764Y-112783389D01*
X155515971Y-112833962D01*
X155507100Y-112878564D01*
X155507100Y-114608679D01*
X154479098Y-114608679D01*
X154529878Y-114581537D01*
X154682589Y-114456210D01*
X154807916Y-114303499D01*
X154901042Y-114129271D01*
X154958389Y-113940224D01*
X154977753Y-113743621D01*
X154958389Y-113547018D01*
X154901042Y-113357971D01*
X154807916Y-113183743D01*
X154682589Y-113031032D01*
X154529878Y-112905705D01*
X154355650Y-112812579D01*
X154355649Y-112812578D01*
X154355648Y-112812578D01*
X154166609Y-112755233D01*
X154166604Y-112755232D01*
X154166603Y-112755232D01*
X153970000Y-112735868D01*
X153773397Y-112755232D01*
X153773395Y-112755232D01*
X153773390Y-112755233D01*
X153584351Y-112812578D01*
X153410121Y-112905705D01*
X153257413Y-113031030D01*
X153257409Y-113031034D01*
X153132084Y-113183742D01*
X153038957Y-113357972D01*
X152981612Y-113547011D01*
X152962247Y-113743620D01*
X152437753Y-113743620D01*
X152418389Y-113547018D01*
X152361042Y-113357971D01*
X152267916Y-113183743D01*
X152142589Y-113031032D01*
X151989878Y-112905705D01*
X151815650Y-112812579D01*
X151815649Y-112812578D01*
X151815648Y-112812578D01*
X151626609Y-112755233D01*
X151626604Y-112755232D01*
X151626603Y-112755232D01*
X151430000Y-112735868D01*
X151429999Y-112735868D01*
X151382657Y-112740530D01*
X151233397Y-112755232D01*
X151233395Y-112755232D01*
X151233390Y-112755233D01*
X151044351Y-112812578D01*
X150870121Y-112905705D01*
X150717413Y-113031030D01*
X150717409Y-113031034D01*
X150592084Y-113183742D01*
X150498957Y-113357972D01*
X150441612Y-113547011D01*
X150422247Y-113743620D01*
X149897753Y-113743620D01*
X149878389Y-113547018D01*
X149821042Y-113357971D01*
X149727916Y-113183743D01*
X149602589Y-113031032D01*
X149449878Y-112905705D01*
X149275650Y-112812579D01*
X149275649Y-112812578D01*
X149275648Y-112812578D01*
X149086609Y-112755233D01*
X149086604Y-112755232D01*
X149086603Y-112755232D01*
X148890000Y-112735868D01*
X148693397Y-112755232D01*
X148693395Y-112755232D01*
X148693390Y-112755233D01*
X148504351Y-112812578D01*
X148330121Y-112905705D01*
X148177413Y-113031030D01*
X148177409Y-113031034D01*
X148052084Y-113183742D01*
X147958957Y-113357972D01*
X147901612Y-113547011D01*
X147882247Y-113743620D01*
X147357753Y-113743620D01*
X147338389Y-113547018D01*
X147281042Y-113357971D01*
X147187916Y-113183743D01*
X147062589Y-113031032D01*
X146909878Y-112905705D01*
X146735650Y-112812579D01*
X146735649Y-112812578D01*
X146735648Y-112812578D01*
X146546609Y-112755233D01*
X146546604Y-112755232D01*
X146546603Y-112755232D01*
X146350000Y-112735868D01*
X146153397Y-112755232D01*
X146153395Y-112755232D01*
X146153390Y-112755233D01*
X145964351Y-112812578D01*
X145790121Y-112905705D01*
X145637413Y-113031030D01*
X145637409Y-113031034D01*
X145512084Y-113183742D01*
X145418957Y-113357972D01*
X145361612Y-113547011D01*
X145342247Y-113743621D01*
X144817753Y-113743621D01*
X144798389Y-113547018D01*
X144741042Y-113357971D01*
X144647916Y-113183743D01*
X144522589Y-113031032D01*
X144369878Y-112905705D01*
X144195650Y-112812579D01*
X144195649Y-112812578D01*
X144195648Y-112812578D01*
X144006609Y-112755233D01*
X144006604Y-112755232D01*
X144006603Y-112755232D01*
X143810000Y-112735868D01*
X143613397Y-112755232D01*
X143613395Y-112755232D01*
X143613390Y-112755233D01*
X143424351Y-112812578D01*
X143250121Y-112905705D01*
X143097413Y-113031030D01*
X143097409Y-113031034D01*
X142972084Y-113183742D01*
X142878957Y-113357972D01*
X142821612Y-113547011D01*
X142802247Y-113743621D01*
X134394061Y-113743621D01*
X130509248Y-111500723D01*
X130470600Y-111454664D01*
X130465300Y-111424605D01*
X130465300Y-110496915D01*
X130749884Y-110496915D01*
X130769115Y-110729011D01*
X130769116Y-110729017D01*
X130826286Y-110954775D01*
X130826289Y-110954783D01*
X130897987Y-111118236D01*
X130919840Y-111168056D01*
X130919844Y-111168062D01*
X131047215Y-111363020D01*
X131047216Y-111363022D01*
X131173979Y-111500724D01*
X131204954Y-111534371D01*
X131388740Y-111677417D01*
X131593563Y-111788262D01*
X131813837Y-111863882D01*
X131813839Y-111863882D01*
X131813841Y-111863883D01*
X132043550Y-111902215D01*
X132043554Y-111902215D01*
X132276450Y-111902215D01*
X132506158Y-111863883D01*
X132506158Y-111863882D01*
X132506163Y-111863882D01*
X132726437Y-111788262D01*
X132931260Y-111677417D01*
X133115046Y-111534371D01*
X133272780Y-111363026D01*
X133400160Y-111168056D01*
X133493712Y-110954779D01*
X133550884Y-110729012D01*
X133570116Y-110496915D01*
X133570116Y-110496914D01*
X166749884Y-110496914D01*
X166769115Y-110729011D01*
X166769116Y-110729017D01*
X166826286Y-110954775D01*
X166826289Y-110954783D01*
X166897987Y-111118236D01*
X166919840Y-111168056D01*
X166919844Y-111168062D01*
X167047215Y-111363020D01*
X167047216Y-111363022D01*
X167173979Y-111500724D01*
X167204954Y-111534371D01*
X167388740Y-111677417D01*
X167593563Y-111788262D01*
X167813837Y-111863882D01*
X167813839Y-111863882D01*
X167813841Y-111863883D01*
X168043550Y-111902215D01*
X168043554Y-111902215D01*
X168276450Y-111902215D01*
X168506158Y-111863883D01*
X168506158Y-111863882D01*
X168506163Y-111863882D01*
X168726437Y-111788262D01*
X168931260Y-111677417D01*
X169115046Y-111534371D01*
X169272780Y-111363026D01*
X169400160Y-111168056D01*
X169493712Y-110954779D01*
X169550884Y-110729012D01*
X169570116Y-110496915D01*
X169550884Y-110264818D01*
X169550883Y-110264812D01*
X169493713Y-110039054D01*
X169493710Y-110039046D01*
X169400164Y-109825784D01*
X169400160Y-109825774D01*
X169319435Y-109702215D01*
X169272784Y-109630809D01*
X169272783Y-109630807D01*
X169115050Y-109459463D01*
X169115048Y-109459462D01*
X169115046Y-109459459D01*
X168931260Y-109316413D01*
X168726437Y-109205568D01*
X168726433Y-109205566D01*
X168726430Y-109205565D01*
X168506167Y-109129949D01*
X168506158Y-109129946D01*
X168276450Y-109091615D01*
X168276446Y-109091615D01*
X168043554Y-109091615D01*
X168043550Y-109091615D01*
X167813841Y-109129946D01*
X167813832Y-109129949D01*
X167593569Y-109205565D01*
X167388740Y-109316413D01*
X167204949Y-109459463D01*
X167047216Y-109630807D01*
X167047215Y-109630809D01*
X166919844Y-109825767D01*
X166919835Y-109825784D01*
X166826289Y-110039046D01*
X166826286Y-110039054D01*
X166769116Y-110264812D01*
X166769115Y-110264818D01*
X166749884Y-110496914D01*
X133570116Y-110496914D01*
X133550884Y-110264818D01*
X133550883Y-110264812D01*
X133493713Y-110039054D01*
X133493710Y-110039046D01*
X133400164Y-109825784D01*
X133400160Y-109825774D01*
X133319435Y-109702215D01*
X133272784Y-109630809D01*
X133272783Y-109630807D01*
X133115050Y-109459463D01*
X133115048Y-109459462D01*
X133115046Y-109459459D01*
X132931260Y-109316413D01*
X132726437Y-109205568D01*
X132726433Y-109205566D01*
X132726430Y-109205565D01*
X132506167Y-109129949D01*
X132506158Y-109129946D01*
X132276450Y-109091615D01*
X132276446Y-109091615D01*
X132043554Y-109091615D01*
X132043550Y-109091615D01*
X131813841Y-109129946D01*
X131813832Y-109129949D01*
X131593569Y-109205565D01*
X131388740Y-109316413D01*
X131204949Y-109459463D01*
X131047216Y-109630807D01*
X131047215Y-109630809D01*
X130919844Y-109825767D01*
X130919835Y-109825784D01*
X130826289Y-110039046D01*
X130826286Y-110039054D01*
X130769116Y-110264812D01*
X130769115Y-110264818D01*
X130749884Y-110496915D01*
X130465300Y-110496915D01*
X130465300Y-101098625D01*
X131627540Y-101098625D01*
X131645729Y-101271693D01*
X131645731Y-101271699D01*
X131699510Y-101437213D01*
X131786526Y-101587929D01*
X131902976Y-101717259D01*
X132043770Y-101819553D01*
X132202756Y-101890338D01*
X132372984Y-101926521D01*
X132547016Y-101926521D01*
X132717244Y-101890338D01*
X132717244Y-101890337D01*
X132721750Y-101889380D01*
X132721851Y-101889856D01*
X132742913Y-101886521D01*
X148562231Y-101886521D01*
X148618732Y-101907086D01*
X148624386Y-101912266D01*
X148745937Y-102033817D01*
X148771348Y-102088311D01*
X148771382Y-102103230D01*
X148752292Y-102333620D01*
X148771490Y-102565320D01*
X148771491Y-102565326D01*
X148828564Y-102790699D01*
X148828567Y-102790707D01*
X148921953Y-103003605D01*
X148921958Y-103003616D01*
X149049121Y-103198253D01*
X149206585Y-103369305D01*
X149338190Y-103471737D01*
X149370145Y-103522667D01*
X149372100Y-103541101D01*
X149372100Y-104786140D01*
X149351535Y-104842641D01*
X149338189Y-104855505D01*
X149206583Y-104957938D01*
X149049124Y-105128985D01*
X149049121Y-105128989D01*
X148921959Y-105323625D01*
X148921953Y-105323636D01*
X148828567Y-105536534D01*
X148828564Y-105536542D01*
X148771491Y-105761915D01*
X148771490Y-105761921D01*
X148752292Y-105993621D01*
X148771490Y-106225320D01*
X148771491Y-106225326D01*
X148828564Y-106450699D01*
X148828567Y-106450707D01*
X148921953Y-106663605D01*
X148921958Y-106663616D01*
X149049121Y-106858253D01*
X149206585Y-107029305D01*
X149390057Y-107172107D01*
X149594530Y-107282762D01*
X149594536Y-107282764D01*
X149814426Y-107358254D01*
X150043748Y-107396521D01*
X150043752Y-107396521D01*
X150276252Y-107396521D01*
X150505573Y-107358254D01*
X150606705Y-107323534D01*
X150725470Y-107282762D01*
X150929943Y-107172107D01*
X151113415Y-107029305D01*
X151270879Y-106858253D01*
X151398042Y-106663616D01*
X151491434Y-106450703D01*
X151548509Y-106225322D01*
X151567708Y-105993621D01*
X151548509Y-105761920D01*
X151491434Y-105536539D01*
X151398042Y-105323626D01*
X151270879Y-105128989D01*
X151113415Y-104957937D01*
X150981811Y-104855505D01*
X150949855Y-104804573D01*
X150947900Y-104786140D01*
X150947900Y-103541101D01*
X150966980Y-103488679D01*
X157157100Y-103488679D01*
X157163861Y-103522667D01*
X157165972Y-103533279D01*
X157199766Y-103583855D01*
X157216701Y-103595171D01*
X157250341Y-103617649D01*
X157257741Y-103619120D01*
X157294943Y-103626521D01*
X159025056Y-103626520D01*
X159025058Y-103626520D01*
X159037750Y-103623995D01*
X159069658Y-103617649D01*
X159120234Y-103583855D01*
X159154028Y-103533279D01*
X159162900Y-103488678D01*
X159162899Y-101758565D01*
X159162899Y-101758564D01*
X159162899Y-101758562D01*
X159159111Y-101739523D01*
X159154028Y-101713963D01*
X159120234Y-101663387D01*
X159120002Y-101663232D01*
X159069658Y-101629592D01*
X159032456Y-101622192D01*
X159025057Y-101620721D01*
X159025056Y-101620721D01*
X157294941Y-101620721D01*
X157250341Y-101629593D01*
X157199767Y-101663386D01*
X157199764Y-101663389D01*
X157165971Y-101713962D01*
X157157100Y-101758564D01*
X157157100Y-103488679D01*
X150966980Y-103488679D01*
X150968465Y-103484600D01*
X150981805Y-103471740D01*
X151113415Y-103369305D01*
X151270879Y-103198253D01*
X151398042Y-103003616D01*
X151491434Y-102790703D01*
X151548509Y-102565322D01*
X151567708Y-102333621D01*
X151548509Y-102101920D01*
X151504091Y-101926521D01*
X151491435Y-101876542D01*
X151491432Y-101876534D01*
X151439686Y-101758565D01*
X151398042Y-101663626D01*
X151270879Y-101468989D01*
X151113415Y-101297937D01*
X150929943Y-101155135D01*
X150725470Y-101044480D01*
X150725466Y-101044478D01*
X150725463Y-101044477D01*
X150505573Y-100968987D01*
X150276252Y-100930721D01*
X150276248Y-100930721D01*
X150043752Y-100930721D01*
X150043747Y-100930721D01*
X149940640Y-100947926D01*
X149881525Y-100936941D01*
X149864018Y-100923380D01*
X149449124Y-100508486D01*
X149449123Y-100508486D01*
X149419356Y-100478719D01*
X149383736Y-100456337D01*
X149379724Y-100453490D01*
X149346840Y-100427266D01*
X149346839Y-100427265D01*
X149308949Y-100409018D01*
X149304633Y-100406633D01*
X149269020Y-100384256D01*
X149269018Y-100384255D01*
X149229320Y-100370364D01*
X149224764Y-100368477D01*
X149186872Y-100350229D01*
X149186869Y-100350228D01*
X149145876Y-100340872D01*
X149141136Y-100339507D01*
X149101440Y-100325616D01*
X149101436Y-100325615D01*
X149059638Y-100320905D01*
X149054777Y-100320079D01*
X149013777Y-100310722D01*
X149013774Y-100310722D01*
X148970474Y-100310722D01*
X148970438Y-100310721D01*
X148969244Y-100310721D01*
X132742913Y-100310721D01*
X132721851Y-100307385D01*
X132721750Y-100307862D01*
X132717244Y-100306904D01*
X132547016Y-100270721D01*
X132372984Y-100270721D01*
X132202758Y-100306903D01*
X132202756Y-100306904D01*
X132194183Y-100310721D01*
X132043769Y-100377689D01*
X131902977Y-100479982D01*
X131902975Y-100479983D01*
X131786527Y-100609311D01*
X131699511Y-100760027D01*
X131645729Y-100925548D01*
X131627540Y-101098616D01*
X131627540Y-101098625D01*
X130465300Y-101098625D01*
X130465300Y-100083621D01*
X157152246Y-100083621D01*
X157152247Y-100083621D01*
X157171612Y-100280230D01*
X157225035Y-100456340D01*
X157228958Y-100469271D01*
X157322084Y-100643499D01*
X157447411Y-100796210D01*
X157600122Y-100921537D01*
X157774350Y-101014663D01*
X157963397Y-101072010D01*
X158160000Y-101091374D01*
X158356603Y-101072010D01*
X158545650Y-101014663D01*
X158719878Y-100921537D01*
X158756511Y-100891472D01*
X158812274Y-100871521D01*
X164731242Y-100871521D01*
X164787743Y-100892086D01*
X164793397Y-100897266D01*
X165591353Y-101695222D01*
X165591361Y-101695229D01*
X165620644Y-101724512D01*
X165620646Y-101724513D01*
X165620648Y-101724515D01*
X165656258Y-101746890D01*
X165660271Y-101749737D01*
X165693160Y-101775965D01*
X165731050Y-101794212D01*
X165735366Y-101796598D01*
X165754926Y-101808888D01*
X165770980Y-101818975D01*
X165810680Y-101832866D01*
X165815237Y-101834754D01*
X165853126Y-101853001D01*
X165894142Y-101862362D01*
X165898842Y-101863715D01*
X165929349Y-101874390D01*
X165938562Y-101877615D01*
X165938563Y-101877615D01*
X165938566Y-101877616D01*
X165980366Y-101882325D01*
X165985215Y-101883149D01*
X166026225Y-101892509D01*
X166069526Y-101892509D01*
X166069562Y-101892510D01*
X166070756Y-101892510D01*
X167252091Y-101892510D01*
X167300926Y-101907324D01*
X167325341Y-101923638D01*
X167332741Y-101925109D01*
X167369943Y-101932510D01*
X168750056Y-101932509D01*
X168750058Y-101932509D01*
X168762750Y-101929984D01*
X168794658Y-101923638D01*
X168845234Y-101889844D01*
X168879028Y-101839268D01*
X168887900Y-101794667D01*
X168887899Y-100414554D01*
X168887899Y-100414553D01*
X168887899Y-100414551D01*
X168881873Y-100384256D01*
X168879028Y-100369952D01*
X168845234Y-100319376D01*
X168841244Y-100316710D01*
X168794658Y-100285581D01*
X168757456Y-100278181D01*
X168750057Y-100276710D01*
X168750056Y-100276710D01*
X167369941Y-100276710D01*
X167325341Y-100285582D01*
X167300927Y-100301896D01*
X167252092Y-100316710D01*
X166477769Y-100316710D01*
X166421268Y-100296145D01*
X166415614Y-100290965D01*
X165618135Y-99493486D01*
X165618134Y-99493486D01*
X165588367Y-99463719D01*
X165552747Y-99441337D01*
X165548735Y-99438490D01*
X165515851Y-99412266D01*
X165515850Y-99412265D01*
X165477960Y-99394018D01*
X165473644Y-99391633D01*
X165438031Y-99369256D01*
X165438029Y-99369255D01*
X165398331Y-99355364D01*
X165393775Y-99353477D01*
X165355883Y-99335229D01*
X165355880Y-99335228D01*
X165314887Y-99325872D01*
X165310147Y-99324507D01*
X165270451Y-99310616D01*
X165270447Y-99310615D01*
X165228649Y-99305905D01*
X165223788Y-99305079D01*
X165182788Y-99295722D01*
X165182785Y-99295722D01*
X165139485Y-99295722D01*
X165139449Y-99295721D01*
X165138255Y-99295721D01*
X158812274Y-99295721D01*
X158756511Y-99275769D01*
X158745242Y-99266521D01*
X158719878Y-99245705D01*
X158545650Y-99152579D01*
X158545649Y-99152578D01*
X158545648Y-99152578D01*
X158387534Y-99104614D01*
X167227540Y-99104614D01*
X167245729Y-99277682D01*
X167245731Y-99277688D01*
X167299510Y-99443202D01*
X167346011Y-99523743D01*
X167386527Y-99593919D01*
X167498721Y-99718523D01*
X167502976Y-99723248D01*
X167643770Y-99825542D01*
X167802756Y-99896327D01*
X167972984Y-99932510D01*
X168147016Y-99932510D01*
X168317244Y-99896327D01*
X168476230Y-99825542D01*
X168617024Y-99723248D01*
X168733474Y-99593918D01*
X168820490Y-99443202D01*
X168874269Y-99277688D01*
X168874471Y-99275769D01*
X168892460Y-99104614D01*
X168892460Y-99104605D01*
X168874270Y-98931537D01*
X168874269Y-98931534D01*
X168874269Y-98931532D01*
X168820490Y-98766018D01*
X168733474Y-98615302D01*
X168617024Y-98485972D01*
X168476230Y-98383678D01*
X168317244Y-98312893D01*
X168317242Y-98312892D01*
X168317241Y-98312892D01*
X168147016Y-98276710D01*
X167972984Y-98276710D01*
X167802758Y-98312892D01*
X167802756Y-98312893D01*
X167771361Y-98326870D01*
X167643769Y-98383678D01*
X167502977Y-98485971D01*
X167502975Y-98485972D01*
X167386527Y-98615300D01*
X167299511Y-98766016D01*
X167245729Y-98931537D01*
X167227540Y-99104605D01*
X167227540Y-99104614D01*
X158387534Y-99104614D01*
X158356609Y-99095233D01*
X158356604Y-99095232D01*
X158356603Y-99095232D01*
X158160000Y-99075868D01*
X158159999Y-99075868D01*
X158112657Y-99080530D01*
X157963397Y-99095232D01*
X157963395Y-99095232D01*
X157963390Y-99095233D01*
X157774351Y-99152578D01*
X157600121Y-99245705D01*
X157447413Y-99371030D01*
X157447409Y-99371034D01*
X157322084Y-99523742D01*
X157228957Y-99697972D01*
X157171612Y-99887011D01*
X157171611Y-99887016D01*
X157171611Y-99887018D01*
X157152246Y-100083621D01*
X130465300Y-100083621D01*
X130465300Y-99788679D01*
X131632100Y-99788679D01*
X131640972Y-99833279D01*
X131674766Y-99883855D01*
X131679500Y-99887018D01*
X131725341Y-99917649D01*
X131732741Y-99919120D01*
X131769943Y-99926521D01*
X133150056Y-99926520D01*
X133150058Y-99926520D01*
X133162750Y-99923995D01*
X133194658Y-99917649D01*
X133219073Y-99901334D01*
X133267908Y-99886521D01*
X148970438Y-99886521D01*
X148970474Y-99886520D01*
X149013773Y-99886520D01*
X149013774Y-99886520D01*
X149054778Y-99877160D01*
X149059635Y-99876336D01*
X149101434Y-99871627D01*
X149141140Y-99857732D01*
X149145867Y-99856370D01*
X149186873Y-99847012D01*
X149224762Y-99828764D01*
X149229316Y-99826878D01*
X149269020Y-99812986D01*
X149304642Y-99790602D01*
X149308933Y-99788229D01*
X149346840Y-99769976D01*
X149379720Y-99743753D01*
X149383742Y-99740900D01*
X149419356Y-99718523D01*
X149450839Y-99687039D01*
X149450844Y-99687036D01*
X149864020Y-99273859D01*
X149918512Y-99248449D01*
X149940637Y-99249313D01*
X150006787Y-99260352D01*
X150043750Y-99266521D01*
X150043752Y-99266521D01*
X150276252Y-99266521D01*
X150505573Y-99228254D01*
X150606705Y-99193534D01*
X150725470Y-99152762D01*
X150929943Y-99042107D01*
X151113415Y-98899305D01*
X151270879Y-98728253D01*
X151398042Y-98533616D01*
X151491434Y-98320703D01*
X151548509Y-98095322D01*
X151567708Y-97863621D01*
X151548509Y-97631920D01*
X151526148Y-97543621D01*
X157152247Y-97543621D01*
X157160943Y-97631915D01*
X157171612Y-97740230D01*
X157209043Y-97863621D01*
X157228958Y-97929271D01*
X157322084Y-98103499D01*
X157447411Y-98256210D01*
X157600122Y-98381537D01*
X157774350Y-98474663D01*
X157963397Y-98532010D01*
X158160000Y-98551374D01*
X158356603Y-98532010D01*
X158545650Y-98474663D01*
X158719878Y-98381537D01*
X158872589Y-98256210D01*
X158997916Y-98103499D01*
X159091042Y-97929271D01*
X159148389Y-97740224D01*
X159167753Y-97543621D01*
X159148389Y-97347018D01*
X159091042Y-97157971D01*
X158997916Y-96983743D01*
X158872589Y-96831032D01*
X158719878Y-96705705D01*
X158545650Y-96612579D01*
X158545649Y-96612578D01*
X158545648Y-96612578D01*
X158356609Y-96555233D01*
X158356604Y-96555232D01*
X158356603Y-96555232D01*
X158160000Y-96535868D01*
X157963397Y-96555232D01*
X157963395Y-96555232D01*
X157963390Y-96555233D01*
X157774351Y-96612578D01*
X157600121Y-96705705D01*
X157447413Y-96831030D01*
X157447409Y-96831034D01*
X157322084Y-96983742D01*
X157228957Y-97157972D01*
X157171612Y-97347011D01*
X157171611Y-97347016D01*
X157171611Y-97347018D01*
X157152247Y-97543621D01*
X151526148Y-97543621D01*
X151491435Y-97406542D01*
X151491432Y-97406534D01*
X151398046Y-97193636D01*
X151398042Y-97193626D01*
X151270879Y-96998989D01*
X151113415Y-96827937D01*
X150981811Y-96725505D01*
X150949855Y-96674573D01*
X150947900Y-96656140D01*
X150947900Y-95411101D01*
X150968465Y-95354600D01*
X150981805Y-95341740D01*
X151113415Y-95239305D01*
X151270879Y-95068253D01*
X151398042Y-94873616D01*
X151491434Y-94660703D01*
X151548509Y-94435322D01*
X151567708Y-94203621D01*
X151548509Y-93971920D01*
X151491434Y-93746539D01*
X151398042Y-93533626D01*
X151270879Y-93338989D01*
X151113415Y-93167937D01*
X150929943Y-93025135D01*
X150725470Y-92914480D01*
X150725466Y-92914478D01*
X150725463Y-92914477D01*
X150505573Y-92838987D01*
X150276252Y-92800721D01*
X150276248Y-92800721D01*
X150043752Y-92800721D01*
X150043748Y-92800721D01*
X149814426Y-92838987D01*
X149594536Y-92914477D01*
X149390053Y-93025137D01*
X149206583Y-93167938D01*
X149049124Y-93338985D01*
X149049121Y-93338989D01*
X148921959Y-93533625D01*
X148921953Y-93533636D01*
X148828567Y-93746534D01*
X148828564Y-93746542D01*
X148771491Y-93971915D01*
X148771490Y-93971921D01*
X148752292Y-94203620D01*
X148771490Y-94435320D01*
X148771491Y-94435326D01*
X148828564Y-94660699D01*
X148828567Y-94660707D01*
X148921953Y-94873605D01*
X148921958Y-94873616D01*
X149049121Y-95068253D01*
X149206585Y-95239305D01*
X149338190Y-95341737D01*
X149370145Y-95392667D01*
X149372100Y-95411101D01*
X149372100Y-96656140D01*
X149351535Y-96712641D01*
X149338189Y-96725505D01*
X149206583Y-96827938D01*
X149049124Y-96998985D01*
X149049121Y-96998989D01*
X148921959Y-97193625D01*
X148921953Y-97193636D01*
X148828567Y-97406534D01*
X148828564Y-97406542D01*
X148771491Y-97631915D01*
X148771490Y-97631921D01*
X148752292Y-97863621D01*
X148771382Y-98094011D01*
X148755553Y-98152017D01*
X148745937Y-98163423D01*
X148624386Y-98284975D01*
X148569892Y-98310386D01*
X148562231Y-98310721D01*
X133267909Y-98310721D01*
X133219074Y-98295907D01*
X133194658Y-98279592D01*
X133157456Y-98272192D01*
X133150057Y-98270721D01*
X133150056Y-98270721D01*
X131769941Y-98270721D01*
X131725341Y-98279593D01*
X131674767Y-98313386D01*
X131674764Y-98313389D01*
X131640971Y-98363962D01*
X131632100Y-98408564D01*
X131632100Y-99788679D01*
X130465300Y-99788679D01*
X130465300Y-89712304D01*
X130749884Y-89712304D01*
X130769115Y-89944401D01*
X130769116Y-89944407D01*
X130826286Y-90170165D01*
X130826289Y-90170173D01*
X130897987Y-90333626D01*
X130919840Y-90383446D01*
X130919844Y-90383452D01*
X131047215Y-90578410D01*
X131047216Y-90578412D01*
X131047220Y-90578416D01*
X131204954Y-90749761D01*
X131388740Y-90892807D01*
X131593563Y-91003652D01*
X131813837Y-91079272D01*
X131813839Y-91079272D01*
X131813841Y-91079273D01*
X132043550Y-91117605D01*
X132043554Y-91117605D01*
X132276450Y-91117605D01*
X132506158Y-91079273D01*
X132506158Y-91079272D01*
X132506163Y-91079272D01*
X132726437Y-91003652D01*
X132931260Y-90892807D01*
X133115046Y-90749761D01*
X133272780Y-90578416D01*
X133400160Y-90383446D01*
X133493712Y-90170169D01*
X133550884Y-89944402D01*
X133570116Y-89712305D01*
X166749884Y-89712305D01*
X166769115Y-89944401D01*
X166769116Y-89944407D01*
X166826286Y-90170165D01*
X166826289Y-90170173D01*
X166897987Y-90333626D01*
X166919840Y-90383446D01*
X166919844Y-90383452D01*
X167047215Y-90578410D01*
X167047216Y-90578412D01*
X167047220Y-90578416D01*
X167204954Y-90749761D01*
X167388740Y-90892807D01*
X167593563Y-91003652D01*
X167813837Y-91079272D01*
X167813839Y-91079272D01*
X167813841Y-91079273D01*
X168043550Y-91117605D01*
X168043554Y-91117605D01*
X168276450Y-91117605D01*
X168506158Y-91079273D01*
X168506158Y-91079272D01*
X168506163Y-91079272D01*
X168726437Y-91003652D01*
X168931260Y-90892807D01*
X169115046Y-90749761D01*
X169272780Y-90578416D01*
X169400160Y-90383446D01*
X169493712Y-90170169D01*
X169550884Y-89944402D01*
X169570116Y-89712305D01*
X169550884Y-89480208D01*
X169550883Y-89480202D01*
X169493713Y-89254444D01*
X169493710Y-89254436D01*
X169400164Y-89041174D01*
X169400160Y-89041164D01*
X169319435Y-88917605D01*
X169272784Y-88846199D01*
X169272783Y-88846197D01*
X169115050Y-88674853D01*
X169115048Y-88674852D01*
X169115046Y-88674849D01*
X168931260Y-88531803D01*
X168726437Y-88420958D01*
X168726433Y-88420956D01*
X168726430Y-88420955D01*
X168506167Y-88345339D01*
X168506158Y-88345336D01*
X168276450Y-88307005D01*
X168276446Y-88307005D01*
X168043554Y-88307005D01*
X168043550Y-88307005D01*
X167813841Y-88345336D01*
X167813832Y-88345339D01*
X167593569Y-88420955D01*
X167593564Y-88420957D01*
X167593563Y-88420958D01*
X167388740Y-88531803D01*
X167379779Y-88538778D01*
X167204949Y-88674853D01*
X167047216Y-88846197D01*
X167047215Y-88846199D01*
X166919844Y-89041157D01*
X166919835Y-89041174D01*
X166826289Y-89254436D01*
X166826286Y-89254444D01*
X166769116Y-89480202D01*
X166769115Y-89480208D01*
X166749884Y-89712305D01*
X133570116Y-89712305D01*
X133550884Y-89480208D01*
X133550883Y-89480202D01*
X133493713Y-89254444D01*
X133493710Y-89254436D01*
X133400164Y-89041174D01*
X133400160Y-89041164D01*
X133319435Y-88917605D01*
X133272784Y-88846199D01*
X133272783Y-88846197D01*
X133115050Y-88674853D01*
X133115048Y-88674852D01*
X133115046Y-88674849D01*
X132931260Y-88531803D01*
X132726437Y-88420958D01*
X132726433Y-88420956D01*
X132726430Y-88420955D01*
X132506167Y-88345339D01*
X132506158Y-88345336D01*
X132276450Y-88307005D01*
X132276446Y-88307005D01*
X132043554Y-88307005D01*
X132043550Y-88307005D01*
X131813841Y-88345336D01*
X131813832Y-88345339D01*
X131593569Y-88420955D01*
X131593564Y-88420957D01*
X131593563Y-88420958D01*
X131388740Y-88531803D01*
X131379779Y-88538778D01*
X131204949Y-88674853D01*
X131047216Y-88846197D01*
X131047215Y-88846199D01*
X130919844Y-89041157D01*
X130919835Y-89041174D01*
X130826289Y-89254436D01*
X130826286Y-89254444D01*
X130769116Y-89480202D01*
X130769115Y-89480208D01*
X130749884Y-89712304D01*
X130465300Y-89712304D01*
X130465300Y-88784618D01*
X130485865Y-88728118D01*
X130509248Y-88708496D01*
X132895735Y-87330657D01*
X142807100Y-87330657D01*
X142815972Y-87375256D01*
X142815972Y-87375257D01*
X142849766Y-87425833D01*
X142866701Y-87437149D01*
X142900341Y-87459627D01*
X142907741Y-87461098D01*
X142944943Y-87468499D01*
X144675056Y-87468498D01*
X144675058Y-87468498D01*
X144687750Y-87465973D01*
X144719658Y-87459627D01*
X144770234Y-87425833D01*
X144804028Y-87375257D01*
X144812900Y-87330656D01*
X144812899Y-86465598D01*
X145342247Y-86465598D01*
X145361612Y-86662208D01*
X145418957Y-86851247D01*
X145418958Y-86851249D01*
X145512084Y-87025477D01*
X145637411Y-87178188D01*
X145790122Y-87303515D01*
X145964350Y-87396641D01*
X146153397Y-87453988D01*
X146350000Y-87473352D01*
X146546603Y-87453988D01*
X146735650Y-87396641D01*
X146909878Y-87303515D01*
X147062589Y-87178188D01*
X147187916Y-87025477D01*
X147281042Y-86851249D01*
X147338389Y-86662202D01*
X147357753Y-86465599D01*
X147357753Y-86465598D01*
X147882247Y-86465598D01*
X147901612Y-86662208D01*
X147958957Y-86851247D01*
X147958958Y-86851249D01*
X148052084Y-87025477D01*
X148177411Y-87178188D01*
X148330122Y-87303515D01*
X148504350Y-87396641D01*
X148693397Y-87453988D01*
X148890000Y-87473352D01*
X149086603Y-87453988D01*
X149275650Y-87396641D01*
X149449878Y-87303515D01*
X149602589Y-87178188D01*
X149727916Y-87025477D01*
X149821042Y-86851249D01*
X149878389Y-86662202D01*
X149897753Y-86465599D01*
X150422247Y-86465599D01*
X150441612Y-86662208D01*
X150498957Y-86851247D01*
X150498958Y-86851249D01*
X150592084Y-87025477D01*
X150717411Y-87178188D01*
X150870122Y-87303515D01*
X151044350Y-87396641D01*
X151233397Y-87453988D01*
X151430000Y-87473352D01*
X151626603Y-87453988D01*
X151815650Y-87396641D01*
X151989878Y-87303515D01*
X152142589Y-87178188D01*
X152267916Y-87025477D01*
X152361042Y-86851249D01*
X152418389Y-86662202D01*
X152437753Y-86465599D01*
X152962247Y-86465599D01*
X152981612Y-86662208D01*
X153038957Y-86851247D01*
X153038958Y-86851249D01*
X153132084Y-87025477D01*
X153257411Y-87178188D01*
X153410122Y-87303515D01*
X153584350Y-87396641D01*
X153773397Y-87453988D01*
X153970000Y-87473352D01*
X154166603Y-87453988D01*
X154355650Y-87396641D01*
X154529878Y-87303515D01*
X154682589Y-87178188D01*
X154807916Y-87025477D01*
X154901042Y-86851249D01*
X154958389Y-86662202D01*
X154977753Y-86465599D01*
X155502247Y-86465599D01*
X155521612Y-86662208D01*
X155578957Y-86851247D01*
X155578958Y-86851249D01*
X155672084Y-87025477D01*
X155797411Y-87178188D01*
X155950122Y-87303515D01*
X156124350Y-87396641D01*
X156313397Y-87453988D01*
X156510000Y-87473352D01*
X156706603Y-87453988D01*
X156895650Y-87396641D01*
X157069878Y-87303515D01*
X157222589Y-87178188D01*
X157347916Y-87025477D01*
X157441042Y-86851249D01*
X157498389Y-86662202D01*
X157517753Y-86465599D01*
X157498389Y-86268996D01*
X157441042Y-86079949D01*
X157347916Y-85905721D01*
X157222589Y-85753010D01*
X157069878Y-85627683D01*
X156895650Y-85534557D01*
X156895649Y-85534556D01*
X156895648Y-85534556D01*
X156706609Y-85477211D01*
X156706604Y-85477210D01*
X156706603Y-85477210D01*
X156510000Y-85457846D01*
X156509999Y-85457846D01*
X156462657Y-85462508D01*
X156313397Y-85477210D01*
X156313395Y-85477210D01*
X156313390Y-85477211D01*
X156124351Y-85534556D01*
X155950121Y-85627683D01*
X155797413Y-85753008D01*
X155797409Y-85753012D01*
X155672084Y-85905720D01*
X155578957Y-86079950D01*
X155521612Y-86268989D01*
X155502247Y-86465599D01*
X154977753Y-86465599D01*
X154958389Y-86268996D01*
X154901042Y-86079949D01*
X154807916Y-85905721D01*
X154682589Y-85753010D01*
X154529878Y-85627683D01*
X154355650Y-85534557D01*
X154355649Y-85534556D01*
X154355648Y-85534556D01*
X154166609Y-85477211D01*
X154166604Y-85477210D01*
X154166603Y-85477210D01*
X153970000Y-85457846D01*
X153773397Y-85477210D01*
X153773395Y-85477210D01*
X153773390Y-85477211D01*
X153584351Y-85534556D01*
X153410121Y-85627683D01*
X153257413Y-85753008D01*
X153257409Y-85753012D01*
X153132084Y-85905720D01*
X153038957Y-86079950D01*
X152981612Y-86268989D01*
X152962247Y-86465599D01*
X152437753Y-86465599D01*
X152418389Y-86268996D01*
X152361042Y-86079949D01*
X152267916Y-85905721D01*
X152142589Y-85753010D01*
X151989878Y-85627683D01*
X151815650Y-85534557D01*
X151815649Y-85534556D01*
X151815648Y-85534556D01*
X151626609Y-85477211D01*
X151626604Y-85477210D01*
X151626603Y-85477210D01*
X151430000Y-85457846D01*
X151233397Y-85477210D01*
X151233395Y-85477210D01*
X151233390Y-85477211D01*
X151044351Y-85534556D01*
X150870121Y-85627683D01*
X150717413Y-85753008D01*
X150717409Y-85753012D01*
X150592084Y-85905720D01*
X150498957Y-86079950D01*
X150441612Y-86268989D01*
X150422247Y-86465599D01*
X149897753Y-86465599D01*
X149878389Y-86268996D01*
X149821042Y-86079949D01*
X149727916Y-85905721D01*
X149602589Y-85753010D01*
X149449878Y-85627683D01*
X149275650Y-85534557D01*
X149275649Y-85534556D01*
X149275648Y-85534556D01*
X149086609Y-85477211D01*
X149086604Y-85477210D01*
X149086603Y-85477210D01*
X148890000Y-85457846D01*
X148889999Y-85457846D01*
X148842657Y-85462508D01*
X148693397Y-85477210D01*
X148693395Y-85477210D01*
X148693390Y-85477211D01*
X148504351Y-85534556D01*
X148330121Y-85627683D01*
X148177413Y-85753008D01*
X148177409Y-85753012D01*
X148052084Y-85905720D01*
X147958957Y-86079950D01*
X147901612Y-86268989D01*
X147882247Y-86465598D01*
X147357753Y-86465598D01*
X147338389Y-86268996D01*
X147281042Y-86079949D01*
X147187916Y-85905721D01*
X147062589Y-85753010D01*
X146909878Y-85627683D01*
X146735650Y-85534557D01*
X146735649Y-85534556D01*
X146735648Y-85534556D01*
X146546609Y-85477211D01*
X146546604Y-85477210D01*
X146546603Y-85477210D01*
X146350000Y-85457846D01*
X146153397Y-85477210D01*
X146153395Y-85477210D01*
X146153390Y-85477211D01*
X145964351Y-85534556D01*
X145790121Y-85627683D01*
X145637413Y-85753008D01*
X145637409Y-85753012D01*
X145512084Y-85905720D01*
X145418957Y-86079950D01*
X145361612Y-86268989D01*
X145342247Y-86465598D01*
X144812899Y-86465598D01*
X144812899Y-85600543D01*
X144812899Y-85600542D01*
X144812899Y-85600540D01*
X144809111Y-85581501D01*
X144804028Y-85555941D01*
X144770234Y-85505365D01*
X144770002Y-85505210D01*
X144719658Y-85471570D01*
X144682456Y-85464170D01*
X144675057Y-85462699D01*
X144675056Y-85462699D01*
X142944941Y-85462699D01*
X142900341Y-85471571D01*
X142849767Y-85505364D01*
X142849764Y-85505367D01*
X142815971Y-85555940D01*
X142807100Y-85600542D01*
X142807100Y-87330657D01*
X132895735Y-87330657D01*
X138793467Y-83925599D01*
X142802247Y-83925599D01*
X142821612Y-84122208D01*
X142878957Y-84311247D01*
X142878958Y-84311249D01*
X142972084Y-84485477D01*
X143097411Y-84638188D01*
X143250122Y-84763515D01*
X143424350Y-84856641D01*
X143613397Y-84913988D01*
X143810000Y-84933352D01*
X144006603Y-84913988D01*
X144195650Y-84856641D01*
X144369878Y-84763515D01*
X144522589Y-84638188D01*
X144647916Y-84485477D01*
X144741042Y-84311249D01*
X144798389Y-84122202D01*
X144817753Y-83925599D01*
X145342247Y-83925599D01*
X145361612Y-84122208D01*
X145418957Y-84311247D01*
X145418958Y-84311249D01*
X145512084Y-84485477D01*
X145637411Y-84638188D01*
X145790122Y-84763515D01*
X145964350Y-84856641D01*
X146153397Y-84913988D01*
X146350000Y-84933352D01*
X146546603Y-84913988D01*
X146735650Y-84856641D01*
X146909878Y-84763515D01*
X147062589Y-84638188D01*
X147187916Y-84485477D01*
X147281042Y-84311249D01*
X147338389Y-84122202D01*
X147357753Y-83925599D01*
X147882247Y-83925599D01*
X147901612Y-84122208D01*
X147958957Y-84311247D01*
X147958958Y-84311249D01*
X148052084Y-84485477D01*
X148177411Y-84638188D01*
X148330122Y-84763515D01*
X148504350Y-84856641D01*
X148693397Y-84913988D01*
X148890000Y-84933352D01*
X149086603Y-84913988D01*
X149275650Y-84856641D01*
X149449878Y-84763515D01*
X149602589Y-84638188D01*
X149727916Y-84485477D01*
X149821042Y-84311249D01*
X149878389Y-84122202D01*
X149885244Y-84052599D01*
X150409735Y-84052599D01*
X150417072Y-84127087D01*
X150475842Y-84320824D01*
X150475844Y-84320827D01*
X150571281Y-84499377D01*
X150699717Y-84655877D01*
X150699721Y-84655881D01*
X150856221Y-84784317D01*
X151034771Y-84879754D01*
X151034774Y-84879756D01*
X151228515Y-84938528D01*
X151303000Y-84945862D01*
X151303000Y-84412480D01*
X151394237Y-84425599D01*
X151465763Y-84425599D01*
X151557000Y-84412480D01*
X151557000Y-84945862D01*
X151631484Y-84938528D01*
X151825225Y-84879756D01*
X151825228Y-84879754D01*
X152003778Y-84784317D01*
X152160278Y-84655881D01*
X152160282Y-84655877D01*
X152288718Y-84499377D01*
X152384155Y-84320827D01*
X152384157Y-84320824D01*
X152442927Y-84127087D01*
X152450265Y-84052599D01*
X152949735Y-84052599D01*
X152957072Y-84127087D01*
X153015842Y-84320824D01*
X153015844Y-84320827D01*
X153111281Y-84499377D01*
X153239717Y-84655877D01*
X153239721Y-84655881D01*
X153396221Y-84784317D01*
X153574771Y-84879754D01*
X153574774Y-84879756D01*
X153768515Y-84938528D01*
X153843000Y-84945862D01*
X153843000Y-84412480D01*
X153934237Y-84425599D01*
X154005763Y-84425599D01*
X154097000Y-84412480D01*
X154097000Y-84945862D01*
X154171484Y-84938528D01*
X154365225Y-84879756D01*
X154365228Y-84879754D01*
X154543778Y-84784317D01*
X154700278Y-84655881D01*
X154700282Y-84655877D01*
X154828718Y-84499377D01*
X154924155Y-84320827D01*
X154924157Y-84320824D01*
X154982927Y-84127087D01*
X154990265Y-84052599D01*
X154453818Y-84052599D01*
X154470000Y-83997488D01*
X154470000Y-83925599D01*
X155502247Y-83925599D01*
X155521612Y-84122208D01*
X155578957Y-84311247D01*
X155578958Y-84311249D01*
X155672084Y-84485477D01*
X155797411Y-84638188D01*
X155950122Y-84763515D01*
X156124350Y-84856641D01*
X156313397Y-84913988D01*
X156510000Y-84933352D01*
X156706603Y-84913988D01*
X156895650Y-84856641D01*
X157069878Y-84763515D01*
X157222589Y-84638188D01*
X157347916Y-84485477D01*
X157441042Y-84311249D01*
X157498389Y-84122202D01*
X157517753Y-83925599D01*
X157498389Y-83728996D01*
X157441042Y-83539949D01*
X157347916Y-83365721D01*
X157222589Y-83213010D01*
X157069878Y-83087683D01*
X156895650Y-82994557D01*
X156895649Y-82994556D01*
X156895648Y-82994556D01*
X156706609Y-82937211D01*
X156706604Y-82937210D01*
X156706603Y-82937210D01*
X156510000Y-82917846D01*
X156313397Y-82937210D01*
X156313395Y-82937210D01*
X156313390Y-82937211D01*
X156124351Y-82994556D01*
X155950121Y-83087683D01*
X155797413Y-83213008D01*
X155797409Y-83213012D01*
X155672084Y-83365720D01*
X155578957Y-83539950D01*
X155521612Y-83728989D01*
X155502247Y-83925599D01*
X154470000Y-83925599D01*
X154470000Y-83853710D01*
X154453818Y-83798599D01*
X154990264Y-83798599D01*
X154982927Y-83724110D01*
X154924157Y-83530373D01*
X154924155Y-83530370D01*
X154828718Y-83351820D01*
X154700282Y-83195320D01*
X154700278Y-83195316D01*
X154543778Y-83066880D01*
X154365228Y-82971443D01*
X154365225Y-82971441D01*
X154171488Y-82912671D01*
X154097000Y-82905334D01*
X154097000Y-83438717D01*
X154005763Y-83425599D01*
X153934237Y-83425599D01*
X153843000Y-83438717D01*
X153843000Y-82905334D01*
X153768511Y-82912671D01*
X153574774Y-82971441D01*
X153574771Y-82971443D01*
X153396221Y-83066880D01*
X153239721Y-83195316D01*
X153239717Y-83195320D01*
X153111281Y-83351820D01*
X153015844Y-83530370D01*
X153015842Y-83530373D01*
X152957072Y-83724110D01*
X152949735Y-83798599D01*
X153486182Y-83798599D01*
X153470000Y-83853710D01*
X153470000Y-83997488D01*
X153486182Y-84052599D01*
X152949735Y-84052599D01*
X152450265Y-84052599D01*
X151913818Y-84052599D01*
X151930000Y-83997488D01*
X151930000Y-83853710D01*
X151913818Y-83798599D01*
X152450264Y-83798599D01*
X152442927Y-83724110D01*
X152384157Y-83530373D01*
X152384155Y-83530370D01*
X152288718Y-83351820D01*
X152160282Y-83195320D01*
X152160278Y-83195316D01*
X152003778Y-83066880D01*
X151825228Y-82971443D01*
X151825225Y-82971441D01*
X151631488Y-82912671D01*
X151557000Y-82905334D01*
X151557000Y-83438717D01*
X151465763Y-83425599D01*
X151394237Y-83425599D01*
X151303000Y-83438717D01*
X151303000Y-82905334D01*
X151228511Y-82912671D01*
X151034774Y-82971441D01*
X151034771Y-82971443D01*
X150856221Y-83066880D01*
X150699721Y-83195316D01*
X150699717Y-83195320D01*
X150571281Y-83351820D01*
X150475844Y-83530370D01*
X150475842Y-83530373D01*
X150417072Y-83724110D01*
X150409735Y-83798599D01*
X150946182Y-83798599D01*
X150930000Y-83853710D01*
X150930000Y-83997488D01*
X150946182Y-84052599D01*
X150409735Y-84052599D01*
X149885244Y-84052599D01*
X149897753Y-83925599D01*
X149878389Y-83728996D01*
X149821042Y-83539949D01*
X149727916Y-83365721D01*
X149602589Y-83213010D01*
X149449878Y-83087683D01*
X149275650Y-82994557D01*
X149275649Y-82994556D01*
X149275648Y-82994556D01*
X149086609Y-82937211D01*
X149086604Y-82937210D01*
X149086603Y-82937210D01*
X148890000Y-82917846D01*
X148693397Y-82937210D01*
X148693395Y-82937210D01*
X148693390Y-82937211D01*
X148504351Y-82994556D01*
X148330121Y-83087683D01*
X148177413Y-83213008D01*
X148177409Y-83213012D01*
X148052084Y-83365720D01*
X147958957Y-83539950D01*
X147901612Y-83728989D01*
X147882247Y-83925599D01*
X147357753Y-83925599D01*
X147338389Y-83728996D01*
X147281042Y-83539949D01*
X147187916Y-83365721D01*
X147062589Y-83213010D01*
X146909878Y-83087683D01*
X146735650Y-82994557D01*
X146735649Y-82994556D01*
X146735648Y-82994556D01*
X146546609Y-82937211D01*
X146546604Y-82937210D01*
X146546603Y-82937210D01*
X146350000Y-82917846D01*
X146153397Y-82937210D01*
X146153395Y-82937210D01*
X146153390Y-82937211D01*
X145964351Y-82994556D01*
X145790121Y-83087683D01*
X145637413Y-83213008D01*
X145637409Y-83213012D01*
X145512084Y-83365720D01*
X145418957Y-83539950D01*
X145361612Y-83728989D01*
X145342247Y-83925599D01*
X144817753Y-83925599D01*
X144798389Y-83728996D01*
X144741042Y-83539949D01*
X144647916Y-83365721D01*
X144522589Y-83213010D01*
X144369878Y-83087683D01*
X144195650Y-82994557D01*
X144195649Y-82994556D01*
X144195648Y-82994556D01*
X144006609Y-82937211D01*
X144006604Y-82937210D01*
X144006603Y-82937210D01*
X143810000Y-82917846D01*
X143613397Y-82937210D01*
X143613395Y-82937210D01*
X143613390Y-82937211D01*
X143424351Y-82994556D01*
X143250121Y-83087683D01*
X143097413Y-83213008D01*
X143097409Y-83213012D01*
X142972084Y-83365720D01*
X142878957Y-83539950D01*
X142821612Y-83728989D01*
X142802247Y-83925599D01*
X138793467Y-83925599D01*
X146770598Y-79320000D01*
X148749884Y-79320000D01*
X148769115Y-79552096D01*
X148769116Y-79552102D01*
X148826286Y-79777860D01*
X148826289Y-79777868D01*
X148897987Y-79941321D01*
X148919840Y-79991141D01*
X148919844Y-79991147D01*
X149047215Y-80186105D01*
X149047216Y-80186107D01*
X149047220Y-80186111D01*
X149204954Y-80357456D01*
X149388740Y-80500502D01*
X149593563Y-80611347D01*
X149813837Y-80686967D01*
X149813839Y-80686967D01*
X149813841Y-80686968D01*
X150043550Y-80725300D01*
X150043554Y-80725300D01*
X150276450Y-80725300D01*
X150506158Y-80686968D01*
X150506158Y-80686967D01*
X150506163Y-80686967D01*
X150726437Y-80611347D01*
X150931260Y-80500502D01*
X151115046Y-80357456D01*
X151272780Y-80186111D01*
X151400160Y-79991141D01*
X151493712Y-79777864D01*
X151550884Y-79552097D01*
X151570116Y-79320000D01*
X151550884Y-79087903D01*
X151550883Y-79087897D01*
X151493713Y-78862139D01*
X151493710Y-78862131D01*
X151400164Y-78648869D01*
X151400160Y-78648859D01*
X151319435Y-78525300D01*
X151272784Y-78453894D01*
X151272783Y-78453892D01*
X151115050Y-78282548D01*
X151115048Y-78282547D01*
X151115046Y-78282544D01*
X150931260Y-78139498D01*
X150726437Y-78028653D01*
X150726433Y-78028651D01*
X150726430Y-78028650D01*
X150506167Y-77953034D01*
X150506158Y-77953031D01*
X150276450Y-77914700D01*
X150276446Y-77914700D01*
X150043554Y-77914700D01*
X150043550Y-77914700D01*
X149813841Y-77953031D01*
X149813832Y-77953034D01*
X149593569Y-78028650D01*
X149388740Y-78139498D01*
X149204949Y-78282548D01*
X149047216Y-78453892D01*
X149047215Y-78453894D01*
X148919844Y-78648852D01*
X148919835Y-78648869D01*
X148826289Y-78862131D01*
X148826286Y-78862139D01*
X148769116Y-79087897D01*
X148769115Y-79087903D01*
X148749884Y-79320000D01*
X146770598Y-79320000D01*
X150116050Y-77388502D01*
X150175263Y-77378062D01*
X150203946Y-77388502D01*
G37*
%TD.AperFunction*%
%TD*%
M02*
