%TF.GenerationSoftware,KiCad,Pcbnew,7.0.5*%
%TF.CreationDate,2023-06-08T00:56:18-04:00*%
%TF.ProjectId,INDICATOR,494e4449-4341-4544-9f52-2e6b69636164,rev?*%
%TF.SameCoordinates,Original*%
%TF.FileFunction,Drillmap*%
%TF.FilePolarity,Positive*%
%FSLAX45Y45*%
G04 Gerber Fmt 4.5, Leading zero omitted, Abs format (unit mm)*
G04 Created by KiCad (PCBNEW 7.0.5) date 2023-06-08 00:56:18*
%MOMM*%
%LPD*%
G01*
G04 APERTURE LIST*
%ADD10C,0.100000*%
%ADD11C,0.200000*%
%ADD12C,0.033020*%
%ADD13C,0.080000*%
%ADD14C,0.165000*%
G04 APERTURE END LIST*
D10*
X13016000Y-8855761D02*
X13016000Y-11165162D01*
X16926000Y-11049692D02*
G75*
G03*
X16926000Y-11049692I-110000J0D01*
G01*
X13016000Y-11165162D02*
X15016000Y-12319862D01*
X16926000Y-8971231D02*
G75*
G03*
X16926000Y-8971231I-110000J0D01*
G01*
X13326000Y-8971231D02*
G75*
G03*
X13326000Y-8971231I-110000J0D01*
G01*
X15016000Y-7701060D02*
X13016000Y-8855761D01*
X17016000Y-8855761D02*
X15016000Y-7701060D01*
X15126000Y-7932000D02*
G75*
G03*
X15126000Y-7932000I-110000J0D01*
G01*
X15126000Y-12088922D02*
G75*
G03*
X15126000Y-12088922I-110000J0D01*
G01*
X17016000Y-11165162D02*
X17016000Y-8855761D01*
X15016000Y-12319862D02*
X17016000Y-11165162D01*
X13326000Y-11049692D02*
G75*
G03*
X13326000Y-11049692I-110000J0D01*
G01*
D11*
D12*
X13199490Y-9303352D02*
X13232510Y-9336372D01*
X13232510Y-9303352D02*
X13199490Y-9336372D01*
X13199490Y-9503352D02*
X13232510Y-9536372D01*
X13232510Y-9503352D02*
X13199490Y-9536372D01*
X13199490Y-9703352D02*
X13232510Y-9736372D01*
X13232510Y-9703352D02*
X13199490Y-9736372D01*
X13199490Y-10303352D02*
X13232510Y-10336372D01*
X13232510Y-10303352D02*
X13199490Y-10336372D01*
X13199490Y-10503352D02*
X13232510Y-10536372D01*
X13232510Y-10503352D02*
X13199490Y-10536372D01*
X13199490Y-10703352D02*
X13232510Y-10736372D01*
X13232510Y-10703352D02*
X13199490Y-10736372D01*
X13399490Y-8703352D02*
X13432510Y-8736372D01*
X13432510Y-8703352D02*
X13399490Y-8736372D01*
X13399490Y-8903352D02*
X13432510Y-8936372D01*
X13432510Y-8903352D02*
X13399490Y-8936372D01*
X13399490Y-9103352D02*
X13432510Y-9136372D01*
X13432510Y-9103352D02*
X13399490Y-9136372D01*
X13399490Y-9303352D02*
X13432510Y-9336372D01*
X13432510Y-9303352D02*
X13399490Y-9336372D01*
X13399490Y-9503352D02*
X13432510Y-9536372D01*
X13432510Y-9503352D02*
X13399490Y-9536372D01*
X13399490Y-9703352D02*
X13432510Y-9736372D01*
X13432510Y-9703352D02*
X13399490Y-9736372D01*
X13399490Y-10303352D02*
X13432510Y-10336372D01*
X13432510Y-10303352D02*
X13399490Y-10336372D01*
X13399490Y-10503352D02*
X13432510Y-10536372D01*
X13432510Y-10503352D02*
X13399490Y-10536372D01*
X13399490Y-10703352D02*
X13432510Y-10736372D01*
X13432510Y-10703352D02*
X13399490Y-10736372D01*
X13399490Y-10903352D02*
X13432510Y-10936372D01*
X13432510Y-10903352D02*
X13399490Y-10936372D01*
X13399490Y-11103352D02*
X13432510Y-11136372D01*
X13432510Y-11103352D02*
X13399490Y-11136372D01*
X13399490Y-11303352D02*
X13432510Y-11336372D01*
X13432510Y-11303352D02*
X13399490Y-11336372D01*
X13599490Y-8703352D02*
X13632510Y-8736372D01*
X13632510Y-8703352D02*
X13599490Y-8736372D01*
X13599490Y-8903352D02*
X13632510Y-8936372D01*
X13632510Y-8903352D02*
X13599490Y-8936372D01*
X13599490Y-10503352D02*
X13632510Y-10536372D01*
X13632510Y-10503352D02*
X13599490Y-10536372D01*
X13599490Y-10703352D02*
X13632510Y-10736372D01*
X13632510Y-10703352D02*
X13599490Y-10736372D01*
X13599490Y-10903352D02*
X13632510Y-10936372D01*
X13632510Y-10903352D02*
X13599490Y-10936372D01*
X13599490Y-11103352D02*
X13632510Y-11136372D01*
X13632510Y-11103352D02*
X13599490Y-11136372D01*
X13599490Y-11303352D02*
X13632510Y-11336372D01*
X13632510Y-11303352D02*
X13599490Y-11336372D01*
X13799490Y-8503352D02*
X13832510Y-8536372D01*
X13832510Y-8503352D02*
X13799490Y-8536372D01*
X13799490Y-8703352D02*
X13832510Y-8736372D01*
X13832510Y-8703352D02*
X13799490Y-8736372D01*
X13799490Y-8903352D02*
X13832510Y-8936372D01*
X13832510Y-8903352D02*
X13799490Y-8936372D01*
X13799490Y-11103352D02*
X13832510Y-11136372D01*
X13832510Y-11103352D02*
X13799490Y-11136372D01*
X13799490Y-11303352D02*
X13832510Y-11336372D01*
X13832510Y-11303352D02*
X13799490Y-11336372D01*
X13799490Y-11503352D02*
X13832510Y-11536372D01*
X13832510Y-11503352D02*
X13799490Y-11536372D01*
X13999490Y-8503352D02*
X14032510Y-8536372D01*
X14032510Y-8503352D02*
X13999490Y-8536372D01*
X13999490Y-8703352D02*
X14032510Y-8736372D01*
X14032510Y-8703352D02*
X13999490Y-8736372D01*
X13999490Y-11303352D02*
X14032510Y-11336372D01*
X14032510Y-11303352D02*
X13999490Y-11336372D01*
X13999490Y-11503352D02*
X14032510Y-11536372D01*
X14032510Y-11503352D02*
X13999490Y-11536372D01*
X14199490Y-8503352D02*
X14232510Y-8536372D01*
X14232510Y-8503352D02*
X14199490Y-8536372D01*
X14199490Y-8703352D02*
X14232510Y-8736372D01*
X14232510Y-8703352D02*
X14199490Y-8736372D01*
X14199490Y-8903352D02*
X14232510Y-8936372D01*
X14232510Y-8903352D02*
X14199490Y-8936372D01*
X14199490Y-9103352D02*
X14232510Y-9136372D01*
X14232510Y-9103352D02*
X14199490Y-9136372D01*
X14199490Y-9303352D02*
X14232510Y-9336372D01*
X14232510Y-9303352D02*
X14199490Y-9336372D01*
X14199490Y-9503352D02*
X14232510Y-9536372D01*
X14232510Y-9503352D02*
X14199490Y-9536372D01*
X14199490Y-9703352D02*
X14232510Y-9736372D01*
X14232510Y-9703352D02*
X14199490Y-9736372D01*
X14399490Y-8203352D02*
X14432510Y-8236372D01*
X14432510Y-8203352D02*
X14399490Y-8236372D01*
X14399490Y-8903352D02*
X14432510Y-8936372D01*
X14432510Y-8903352D02*
X14399490Y-8936372D01*
X14399490Y-9103352D02*
X14432510Y-9136372D01*
X14432510Y-9103352D02*
X14399490Y-9136372D01*
X14399490Y-9303352D02*
X14432510Y-9336372D01*
X14432510Y-9303352D02*
X14399490Y-9336372D01*
X14399490Y-9503352D02*
X14432510Y-9536372D01*
X14432510Y-9503352D02*
X14399490Y-9536372D01*
X14399490Y-9703352D02*
X14432510Y-9736372D01*
X14432510Y-9703352D02*
X14399490Y-9736372D01*
X14399490Y-10253352D02*
X14432510Y-10286372D01*
X14432510Y-10253352D02*
X14399490Y-10286372D01*
X14399490Y-10453352D02*
X14432510Y-10486372D01*
X14432510Y-10453352D02*
X14399490Y-10486372D01*
X14399490Y-10653352D02*
X14432510Y-10686372D01*
X14432510Y-10653352D02*
X14399490Y-10686372D01*
X14399490Y-10853352D02*
X14432510Y-10886372D01*
X14432510Y-10853352D02*
X14399490Y-10886372D01*
X14399490Y-11803352D02*
X14432510Y-11836372D01*
X14432510Y-11803352D02*
X14399490Y-11836372D01*
X14599490Y-8203352D02*
X14632510Y-8236372D01*
X14632510Y-8203352D02*
X14599490Y-8236372D01*
X14599490Y-8903352D02*
X14632510Y-8936372D01*
X14632510Y-8903352D02*
X14599490Y-8936372D01*
X14599490Y-9103352D02*
X14632510Y-9136372D01*
X14632510Y-9103352D02*
X14599490Y-9136372D01*
X14599490Y-9303352D02*
X14632510Y-9336372D01*
X14632510Y-9303352D02*
X14599490Y-9336372D01*
X14599490Y-9503352D02*
X14632510Y-9536372D01*
X14632510Y-9503352D02*
X14599490Y-9536372D01*
X14599490Y-9703352D02*
X14632510Y-9736372D01*
X14632510Y-9703352D02*
X14599490Y-9736372D01*
X14599490Y-10253352D02*
X14632510Y-10286372D01*
X14632510Y-10253352D02*
X14599490Y-10286372D01*
X14599490Y-10453352D02*
X14632510Y-10486372D01*
X14632510Y-10453352D02*
X14599490Y-10486372D01*
X14599490Y-10653352D02*
X14632510Y-10686372D01*
X14632510Y-10653352D02*
X14599490Y-10686372D01*
X14599490Y-10853352D02*
X14632510Y-10886372D01*
X14632510Y-10853352D02*
X14599490Y-10886372D01*
X14599490Y-11803352D02*
X14632510Y-11836372D01*
X14632510Y-11803352D02*
X14599490Y-11836372D01*
X14799490Y-8003352D02*
X14832510Y-8036372D01*
X14832510Y-8003352D02*
X14799490Y-8036372D01*
X14799490Y-8203352D02*
X14832510Y-8236372D01*
X14832510Y-8203352D02*
X14799490Y-8236372D01*
X14799490Y-8903352D02*
X14832510Y-8936372D01*
X14832510Y-8903352D02*
X14799490Y-8936372D01*
X14799490Y-9103352D02*
X14832510Y-9136372D01*
X14832510Y-9103352D02*
X14799490Y-9136372D01*
X14799490Y-10853352D02*
X14832510Y-10886372D01*
X14832510Y-10853352D02*
X14799490Y-10886372D01*
X14799490Y-11053352D02*
X14832510Y-11086372D01*
X14832510Y-11053352D02*
X14799490Y-11086372D01*
X14799490Y-11803352D02*
X14832510Y-11836372D01*
X14832510Y-11803352D02*
X14799490Y-11836372D01*
X14799490Y-12003352D02*
X14832510Y-12036372D01*
X14832510Y-12003352D02*
X14799490Y-12036372D01*
X14999490Y-8203352D02*
X15032510Y-8236372D01*
X15032510Y-8203352D02*
X14999490Y-8236372D01*
X14999490Y-8903352D02*
X15032510Y-8936372D01*
X15032510Y-8903352D02*
X14999490Y-8936372D01*
X14999490Y-9103352D02*
X15032510Y-9136372D01*
X15032510Y-9103352D02*
X14999490Y-9136372D01*
X14999490Y-10853352D02*
X15032510Y-10886372D01*
X15032510Y-10853352D02*
X14999490Y-10886372D01*
X14999490Y-11053352D02*
X15032510Y-11086372D01*
X15032510Y-11053352D02*
X14999490Y-11086372D01*
X14999490Y-11803352D02*
X15032510Y-11836372D01*
X15032510Y-11803352D02*
X14999490Y-11836372D01*
X15199490Y-8003352D02*
X15232510Y-8036372D01*
X15232510Y-8003352D02*
X15199490Y-8036372D01*
X15199490Y-8203352D02*
X15232510Y-8236372D01*
X15232510Y-8203352D02*
X15199490Y-8236372D01*
X15199490Y-8903352D02*
X15232510Y-8936372D01*
X15232510Y-8903352D02*
X15199490Y-8936372D01*
X15199490Y-9103352D02*
X15232510Y-9136372D01*
X15232510Y-9103352D02*
X15199490Y-9136372D01*
X15199490Y-10853352D02*
X15232510Y-10886372D01*
X15232510Y-10853352D02*
X15199490Y-10886372D01*
X15199490Y-11053352D02*
X15232510Y-11086372D01*
X15232510Y-11053352D02*
X15199490Y-11086372D01*
X15199490Y-11803352D02*
X15232510Y-11836372D01*
X15232510Y-11803352D02*
X15199490Y-11836372D01*
X15199490Y-12003352D02*
X15232510Y-12036372D01*
X15232510Y-12003352D02*
X15199490Y-12036372D01*
X15399490Y-8203352D02*
X15432510Y-8236372D01*
X15432510Y-8203352D02*
X15399490Y-8236372D01*
X15399490Y-8903352D02*
X15432510Y-8936372D01*
X15432510Y-8903352D02*
X15399490Y-8936372D01*
X15399490Y-9103352D02*
X15432510Y-9136372D01*
X15432510Y-9103352D02*
X15399490Y-9136372D01*
X15399490Y-9303352D02*
X15432510Y-9336372D01*
X15432510Y-9303352D02*
X15399490Y-9336372D01*
X15399490Y-9503352D02*
X15432510Y-9536372D01*
X15432510Y-9503352D02*
X15399490Y-9536372D01*
X15399490Y-9653352D02*
X15432510Y-9686372D01*
X15432510Y-9653352D02*
X15399490Y-9686372D01*
X15399490Y-9853352D02*
X15432510Y-9886372D01*
X15432510Y-9853352D02*
X15399490Y-9886372D01*
X15399490Y-10053352D02*
X15432510Y-10086372D01*
X15432510Y-10053352D02*
X15399490Y-10086372D01*
X15399490Y-10253352D02*
X15432510Y-10286372D01*
X15432510Y-10253352D02*
X15399490Y-10286372D01*
X15399490Y-10453352D02*
X15432510Y-10486372D01*
X15432510Y-10453352D02*
X15399490Y-10486372D01*
X15399490Y-10653352D02*
X15432510Y-10686372D01*
X15432510Y-10653352D02*
X15399490Y-10686372D01*
X15399490Y-10853352D02*
X15432510Y-10886372D01*
X15432510Y-10853352D02*
X15399490Y-10886372D01*
X15399490Y-11053352D02*
X15432510Y-11086372D01*
X15432510Y-11053352D02*
X15399490Y-11086372D01*
X15399490Y-11803352D02*
X15432510Y-11836372D01*
X15432510Y-11803352D02*
X15399490Y-11836372D01*
X15599490Y-8203352D02*
X15632510Y-8236372D01*
X15632510Y-8203352D02*
X15599490Y-8236372D01*
X15599490Y-8903352D02*
X15632510Y-8936372D01*
X15632510Y-8903352D02*
X15599490Y-8936372D01*
X15599490Y-9103352D02*
X15632510Y-9136372D01*
X15632510Y-9103352D02*
X15599490Y-9136372D01*
X15599490Y-9303352D02*
X15632510Y-9336372D01*
X15632510Y-9303352D02*
X15599490Y-9336372D01*
X15599490Y-9503352D02*
X15632510Y-9536372D01*
X15632510Y-9503352D02*
X15599490Y-9536372D01*
X15599490Y-10453352D02*
X15632510Y-10486372D01*
X15632510Y-10453352D02*
X15599490Y-10486372D01*
X15599490Y-10653352D02*
X15632510Y-10686372D01*
X15632510Y-10653352D02*
X15599490Y-10686372D01*
X15599490Y-10853352D02*
X15632510Y-10886372D01*
X15632510Y-10853352D02*
X15599490Y-10886372D01*
X15599490Y-11053352D02*
X15632510Y-11086372D01*
X15632510Y-11053352D02*
X15599490Y-11086372D01*
X15599490Y-11803352D02*
X15632510Y-11836372D01*
X15632510Y-11803352D02*
X15599490Y-11836372D01*
X15799490Y-8903352D02*
X15832510Y-8936372D01*
X15832510Y-8903352D02*
X15799490Y-8936372D01*
X15799490Y-9103352D02*
X15832510Y-9136372D01*
X15832510Y-9103352D02*
X15799490Y-9136372D01*
X15799490Y-9303352D02*
X15832510Y-9336372D01*
X15832510Y-9303352D02*
X15799490Y-9336372D01*
X15799490Y-9503352D02*
X15832510Y-9536372D01*
X15832510Y-9503352D02*
X15799490Y-9536372D01*
X15799490Y-10453352D02*
X15832510Y-10486372D01*
X15832510Y-10453352D02*
X15799490Y-10486372D01*
X15799490Y-10653352D02*
X15832510Y-10686372D01*
X15832510Y-10653352D02*
X15799490Y-10686372D01*
X15799490Y-10853352D02*
X15832510Y-10886372D01*
X15832510Y-10853352D02*
X15799490Y-10886372D01*
X15799490Y-11053352D02*
X15832510Y-11086372D01*
X15832510Y-11053352D02*
X15799490Y-11086372D01*
X15999490Y-8503352D02*
X16032510Y-8536372D01*
X16032510Y-8503352D02*
X15999490Y-8536372D01*
X15999490Y-8703352D02*
X16032510Y-8736372D01*
X16032510Y-8703352D02*
X15999490Y-8736372D01*
X15999490Y-8903352D02*
X16032510Y-8936372D01*
X16032510Y-8903352D02*
X15999490Y-8936372D01*
X15999490Y-9103352D02*
X16032510Y-9136372D01*
X16032510Y-9103352D02*
X15999490Y-9136372D01*
X15999490Y-9303352D02*
X16032510Y-9336372D01*
X16032510Y-9303352D02*
X15999490Y-9336372D01*
X15999490Y-9503352D02*
X16032510Y-9536372D01*
X16032510Y-9503352D02*
X15999490Y-9536372D01*
X15999490Y-10453352D02*
X16032510Y-10486372D01*
X16032510Y-10453352D02*
X15999490Y-10486372D01*
X15999490Y-10653352D02*
X16032510Y-10686372D01*
X16032510Y-10653352D02*
X15999490Y-10686372D01*
X15999490Y-10853352D02*
X16032510Y-10886372D01*
X16032510Y-10853352D02*
X15999490Y-10886372D01*
X15999490Y-11053352D02*
X16032510Y-11086372D01*
X16032510Y-11053352D02*
X15999490Y-11086372D01*
X15999490Y-11303352D02*
X16032510Y-11336372D01*
X16032510Y-11303352D02*
X15999490Y-11336372D01*
X15999490Y-11503352D02*
X16032510Y-11536372D01*
X16032510Y-11503352D02*
X15999490Y-11536372D01*
X16199490Y-8503352D02*
X16232510Y-8536372D01*
X16232510Y-8503352D02*
X16199490Y-8536372D01*
X16199490Y-8703352D02*
X16232510Y-8736372D01*
X16232510Y-8703352D02*
X16199490Y-8736372D01*
X16199490Y-8903352D02*
X16232510Y-8936372D01*
X16232510Y-8903352D02*
X16199490Y-8936372D01*
X16199490Y-9103352D02*
X16232510Y-9136372D01*
X16232510Y-9103352D02*
X16199490Y-9136372D01*
X16199490Y-9303352D02*
X16232510Y-9336372D01*
X16232510Y-9303352D02*
X16199490Y-9336372D01*
X16199490Y-9503352D02*
X16232510Y-9536372D01*
X16232510Y-9503352D02*
X16199490Y-9536372D01*
X16199490Y-10253352D02*
X16232510Y-10286372D01*
X16232510Y-10253352D02*
X16199490Y-10286372D01*
X16199490Y-10453352D02*
X16232510Y-10486372D01*
X16232510Y-10453352D02*
X16199490Y-10486372D01*
X16199490Y-10653352D02*
X16232510Y-10686372D01*
X16232510Y-10653352D02*
X16199490Y-10686372D01*
X16199490Y-10853352D02*
X16232510Y-10886372D01*
X16232510Y-10853352D02*
X16199490Y-10886372D01*
X16199490Y-11103352D02*
X16232510Y-11136372D01*
X16232510Y-11103352D02*
X16199490Y-11136372D01*
X16199490Y-11303352D02*
X16232510Y-11336372D01*
X16232510Y-11303352D02*
X16199490Y-11336372D01*
X16199490Y-11503352D02*
X16232510Y-11536372D01*
X16232510Y-11503352D02*
X16199490Y-11536372D01*
X16399490Y-8703352D02*
X16432510Y-8736372D01*
X16432510Y-8703352D02*
X16399490Y-8736372D01*
X16399490Y-8903352D02*
X16432510Y-8936372D01*
X16432510Y-8903352D02*
X16399490Y-8936372D01*
X16399490Y-9103352D02*
X16432510Y-9136372D01*
X16432510Y-9103352D02*
X16399490Y-9136372D01*
X16399490Y-9303352D02*
X16432510Y-9336372D01*
X16432510Y-9303352D02*
X16399490Y-9336372D01*
X16399490Y-9503352D02*
X16432510Y-9536372D01*
X16432510Y-9503352D02*
X16399490Y-9536372D01*
X16399490Y-10253352D02*
X16432510Y-10286372D01*
X16432510Y-10253352D02*
X16399490Y-10286372D01*
X16399490Y-10453352D02*
X16432510Y-10486372D01*
X16432510Y-10453352D02*
X16399490Y-10486372D01*
X16399490Y-10653352D02*
X16432510Y-10686372D01*
X16432510Y-10653352D02*
X16399490Y-10686372D01*
X16399490Y-10903352D02*
X16432510Y-10936372D01*
X16432510Y-10903352D02*
X16399490Y-10936372D01*
X16399490Y-11103352D02*
X16432510Y-11136372D01*
X16432510Y-11103352D02*
X16399490Y-11136372D01*
X16399490Y-11303352D02*
X16432510Y-11336372D01*
X16432510Y-11303352D02*
X16399490Y-11336372D01*
X16599490Y-8703352D02*
X16632510Y-8736372D01*
X16632510Y-8703352D02*
X16599490Y-8736372D01*
X16599490Y-8903352D02*
X16632510Y-8936372D01*
X16632510Y-8903352D02*
X16599490Y-8936372D01*
X16599490Y-9103352D02*
X16632510Y-9136372D01*
X16632510Y-9103352D02*
X16599490Y-9136372D01*
X16599490Y-9303352D02*
X16632510Y-9336372D01*
X16632510Y-9303352D02*
X16599490Y-9336372D01*
X16599490Y-9503352D02*
X16632510Y-9536372D01*
X16632510Y-9503352D02*
X16599490Y-9536372D01*
X16599490Y-10253352D02*
X16632510Y-10286372D01*
X16632510Y-10253352D02*
X16599490Y-10286372D01*
X16599490Y-10453352D02*
X16632510Y-10486372D01*
X16632510Y-10453352D02*
X16599490Y-10486372D01*
X16599490Y-10653352D02*
X16632510Y-10686372D01*
X16632510Y-10653352D02*
X16599490Y-10686372D01*
X16799490Y-9303352D02*
X16832510Y-9336372D01*
X16832510Y-9303352D02*
X16799490Y-9336372D01*
X16799490Y-9503352D02*
X16832510Y-9536372D01*
X16832510Y-9503352D02*
X16799490Y-9536372D01*
X16799490Y-10253352D02*
X16832510Y-10286372D01*
X16832510Y-10253352D02*
X16799490Y-10286372D01*
X16799490Y-10453352D02*
X16832510Y-10486372D01*
X16832510Y-10453352D02*
X16799490Y-10486372D01*
X16799490Y-10653352D02*
X16832510Y-10686372D01*
X16832510Y-10653352D02*
X16799490Y-10686372D01*
D13*
X13286000Y-9909862D02*
G75*
G03*
X13286000Y-9909862I-40000J0D01*
G01*
X13286000Y-10109862D02*
G75*
G03*
X13286000Y-10109862I-40000J0D01*
G01*
X15856000Y-9754362D02*
G75*
G03*
X15856000Y-9754362I-40000J0D01*
G01*
X15856000Y-10008362D02*
G75*
G03*
X15856000Y-10008362I-40000J0D01*
G01*
X15856000Y-10262362D02*
G75*
G03*
X15856000Y-10262362I-40000J0D01*
G01*
X16846000Y-9910461D02*
G75*
G03*
X16846000Y-9910461I-40000J0D01*
G01*
X16846000Y-10110461D02*
G75*
G03*
X16846000Y-10110461I-40000J0D01*
G01*
D10*
X14381000Y-8342560D02*
X14381000Y-8442560D01*
X14331000Y-8392560D02*
X14431000Y-8392560D01*
X14381000Y-8596560D02*
X14381000Y-8696560D01*
X14331000Y-8646560D02*
X14431000Y-8646560D01*
X14381000Y-11324362D02*
X14381000Y-11424362D01*
X14331000Y-11374362D02*
X14431000Y-11374362D01*
X14381000Y-11578362D02*
X14381000Y-11678362D01*
X14331000Y-11628362D02*
X14431000Y-11628362D01*
X14635000Y-8342560D02*
X14635000Y-8442560D01*
X14585000Y-8392560D02*
X14685000Y-8392560D01*
X14635000Y-8596560D02*
X14635000Y-8696560D01*
X14585000Y-8646560D02*
X14685000Y-8646560D01*
X14635000Y-11324362D02*
X14635000Y-11424362D01*
X14585000Y-11374362D02*
X14685000Y-11374362D01*
X14635000Y-11578362D02*
X14635000Y-11678362D01*
X14585000Y-11628362D02*
X14685000Y-11628362D01*
X14889000Y-8342560D02*
X14889000Y-8442560D01*
X14839000Y-8392560D02*
X14939000Y-8392560D01*
X14889000Y-8596560D02*
X14889000Y-8696560D01*
X14839000Y-8646560D02*
X14939000Y-8646560D01*
X14889000Y-11324362D02*
X14889000Y-11424362D01*
X14839000Y-11374362D02*
X14939000Y-11374362D01*
X14889000Y-11578362D02*
X14889000Y-11678362D01*
X14839000Y-11628362D02*
X14939000Y-11628362D01*
X15143000Y-8342560D02*
X15143000Y-8442560D01*
X15093000Y-8392560D02*
X15193000Y-8392560D01*
X15143000Y-8596560D02*
X15143000Y-8696560D01*
X15093000Y-8646560D02*
X15193000Y-8646560D01*
X15143000Y-11324362D02*
X15143000Y-11424362D01*
X15093000Y-11374362D02*
X15193000Y-11374362D01*
X15143000Y-11578362D02*
X15143000Y-11678362D01*
X15093000Y-11628362D02*
X15193000Y-11628362D01*
X15397000Y-8342560D02*
X15397000Y-8442560D01*
X15347000Y-8392560D02*
X15447000Y-8392560D01*
X15397000Y-8596560D02*
X15397000Y-8696560D01*
X15347000Y-8646560D02*
X15447000Y-8646560D01*
X15397000Y-11324362D02*
X15397000Y-11424362D01*
X15347000Y-11374362D02*
X15447000Y-11374362D01*
X15397000Y-11578362D02*
X15397000Y-11678362D01*
X15347000Y-11628362D02*
X15447000Y-11628362D01*
X15651000Y-8342560D02*
X15651000Y-8442560D01*
X15601000Y-8392560D02*
X15701000Y-8392560D01*
X15651000Y-8596560D02*
X15651000Y-8696560D01*
X15601000Y-8646560D02*
X15701000Y-8646560D01*
X15651000Y-11324362D02*
X15651000Y-11424362D01*
X15601000Y-11374362D02*
X15701000Y-11374362D01*
X15651000Y-11578362D02*
X15651000Y-11678362D01*
X15601000Y-11628362D02*
X15701000Y-11628362D01*
D14*
X15074337Y-9478699D02*
X15074337Y-9362025D01*
X14957663Y-9362025D01*
X14957663Y-9478699D01*
X15074337Y-9478699D01*
X15074337Y-9844699D02*
X15074337Y-9728025D01*
X14957663Y-9728025D01*
X14957663Y-9844699D01*
X15074337Y-9844699D01*
X15074337Y-10291699D02*
X15074337Y-10175025D01*
X14957663Y-10175025D01*
X14957663Y-10291699D01*
X15074337Y-10291699D01*
X15074337Y-10657699D02*
X15074337Y-10541025D01*
X14957663Y-10541025D01*
X14957663Y-10657699D01*
X15074337Y-10657699D01*
D11*
X13271777Y-12636346D02*
X13271777Y-12436346D01*
X13271777Y-12436346D02*
X13319396Y-12436346D01*
X13319396Y-12436346D02*
X13347967Y-12445870D01*
X13347967Y-12445870D02*
X13367015Y-12464917D01*
X13367015Y-12464917D02*
X13376539Y-12483965D01*
X13376539Y-12483965D02*
X13386062Y-12522060D01*
X13386062Y-12522060D02*
X13386062Y-12550632D01*
X13386062Y-12550632D02*
X13376539Y-12588727D01*
X13376539Y-12588727D02*
X13367015Y-12607774D01*
X13367015Y-12607774D02*
X13347967Y-12626822D01*
X13347967Y-12626822D02*
X13319396Y-12636346D01*
X13319396Y-12636346D02*
X13271777Y-12636346D01*
X13471777Y-12636346D02*
X13471777Y-12503012D01*
X13471777Y-12541108D02*
X13481301Y-12522060D01*
X13481301Y-12522060D02*
X13490824Y-12512536D01*
X13490824Y-12512536D02*
X13509872Y-12503012D01*
X13509872Y-12503012D02*
X13528920Y-12503012D01*
X13595586Y-12636346D02*
X13595586Y-12503012D01*
X13595586Y-12436346D02*
X13586062Y-12445870D01*
X13586062Y-12445870D02*
X13595586Y-12455393D01*
X13595586Y-12455393D02*
X13605110Y-12445870D01*
X13605110Y-12445870D02*
X13595586Y-12436346D01*
X13595586Y-12436346D02*
X13595586Y-12455393D01*
X13719396Y-12636346D02*
X13700348Y-12626822D01*
X13700348Y-12626822D02*
X13690824Y-12607774D01*
X13690824Y-12607774D02*
X13690824Y-12436346D01*
X13824158Y-12636346D02*
X13805110Y-12626822D01*
X13805110Y-12626822D02*
X13795586Y-12607774D01*
X13795586Y-12607774D02*
X13795586Y-12436346D01*
X14052729Y-12636346D02*
X14052729Y-12436346D01*
X14052729Y-12436346D02*
X14119396Y-12579203D01*
X14119396Y-12579203D02*
X14186062Y-12436346D01*
X14186062Y-12436346D02*
X14186062Y-12636346D01*
X14367015Y-12636346D02*
X14367015Y-12531584D01*
X14367015Y-12531584D02*
X14357491Y-12512536D01*
X14357491Y-12512536D02*
X14338443Y-12503012D01*
X14338443Y-12503012D02*
X14300348Y-12503012D01*
X14300348Y-12503012D02*
X14281301Y-12512536D01*
X14367015Y-12626822D02*
X14347967Y-12636346D01*
X14347967Y-12636346D02*
X14300348Y-12636346D01*
X14300348Y-12636346D02*
X14281301Y-12626822D01*
X14281301Y-12626822D02*
X14271777Y-12607774D01*
X14271777Y-12607774D02*
X14271777Y-12588727D01*
X14271777Y-12588727D02*
X14281301Y-12569679D01*
X14281301Y-12569679D02*
X14300348Y-12560155D01*
X14300348Y-12560155D02*
X14347967Y-12560155D01*
X14347967Y-12560155D02*
X14367015Y-12550632D01*
X14462253Y-12503012D02*
X14462253Y-12703012D01*
X14462253Y-12512536D02*
X14481301Y-12503012D01*
X14481301Y-12503012D02*
X14519396Y-12503012D01*
X14519396Y-12503012D02*
X14538443Y-12512536D01*
X14538443Y-12512536D02*
X14547967Y-12522060D01*
X14547967Y-12522060D02*
X14557491Y-12541108D01*
X14557491Y-12541108D02*
X14557491Y-12598251D01*
X14557491Y-12598251D02*
X14547967Y-12617298D01*
X14547967Y-12617298D02*
X14538443Y-12626822D01*
X14538443Y-12626822D02*
X14519396Y-12636346D01*
X14519396Y-12636346D02*
X14481301Y-12636346D01*
X14481301Y-12636346D02*
X14462253Y-12626822D01*
X14643205Y-12617298D02*
X14652729Y-12626822D01*
X14652729Y-12626822D02*
X14643205Y-12636346D01*
X14643205Y-12636346D02*
X14633682Y-12626822D01*
X14633682Y-12626822D02*
X14643205Y-12617298D01*
X14643205Y-12617298D02*
X14643205Y-12636346D01*
X14643205Y-12512536D02*
X14652729Y-12522060D01*
X14652729Y-12522060D02*
X14643205Y-12531584D01*
X14643205Y-12531584D02*
X14633682Y-12522060D01*
X14633682Y-12522060D02*
X14643205Y-12512536D01*
X14643205Y-12512536D02*
X14643205Y-12531584D01*
D12*
X12977980Y-12948352D02*
X13011000Y-12981372D01*
X13011000Y-12948352D02*
X12977980Y-12981372D01*
D11*
X13309872Y-12856346D02*
X13328920Y-12856346D01*
X13328920Y-12856346D02*
X13347967Y-12865870D01*
X13347967Y-12865870D02*
X13357491Y-12875393D01*
X13357491Y-12875393D02*
X13367015Y-12894441D01*
X13367015Y-12894441D02*
X13376539Y-12932536D01*
X13376539Y-12932536D02*
X13376539Y-12980155D01*
X13376539Y-12980155D02*
X13367015Y-13018251D01*
X13367015Y-13018251D02*
X13357491Y-13037298D01*
X13357491Y-13037298D02*
X13347967Y-13046822D01*
X13347967Y-13046822D02*
X13328920Y-13056346D01*
X13328920Y-13056346D02*
X13309872Y-13056346D01*
X13309872Y-13056346D02*
X13290824Y-13046822D01*
X13290824Y-13046822D02*
X13281301Y-13037298D01*
X13281301Y-13037298D02*
X13271777Y-13018251D01*
X13271777Y-13018251D02*
X13262253Y-12980155D01*
X13262253Y-12980155D02*
X13262253Y-12932536D01*
X13262253Y-12932536D02*
X13271777Y-12894441D01*
X13271777Y-12894441D02*
X13281301Y-12875393D01*
X13281301Y-12875393D02*
X13290824Y-12865870D01*
X13290824Y-12865870D02*
X13309872Y-12856346D01*
X13462253Y-13037298D02*
X13471777Y-13046822D01*
X13471777Y-13046822D02*
X13462253Y-13056346D01*
X13462253Y-13056346D02*
X13452729Y-13046822D01*
X13452729Y-13046822D02*
X13462253Y-13037298D01*
X13462253Y-13037298D02*
X13462253Y-13056346D01*
X13538443Y-12856346D02*
X13662253Y-12856346D01*
X13662253Y-12856346D02*
X13595586Y-12932536D01*
X13595586Y-12932536D02*
X13624158Y-12932536D01*
X13624158Y-12932536D02*
X13643205Y-12942060D01*
X13643205Y-12942060D02*
X13652729Y-12951584D01*
X13652729Y-12951584D02*
X13662253Y-12970632D01*
X13662253Y-12970632D02*
X13662253Y-13018251D01*
X13662253Y-13018251D02*
X13652729Y-13037298D01*
X13652729Y-13037298D02*
X13643205Y-13046822D01*
X13643205Y-13046822D02*
X13624158Y-13056346D01*
X13624158Y-13056346D02*
X13567015Y-13056346D01*
X13567015Y-13056346D02*
X13547967Y-13046822D01*
X13547967Y-13046822D02*
X13538443Y-13037298D01*
X13728920Y-12856346D02*
X13852729Y-12856346D01*
X13852729Y-12856346D02*
X13786062Y-12932536D01*
X13786062Y-12932536D02*
X13814634Y-12932536D01*
X13814634Y-12932536D02*
X13833682Y-12942060D01*
X13833682Y-12942060D02*
X13843205Y-12951584D01*
X13843205Y-12951584D02*
X13852729Y-12970632D01*
X13852729Y-12970632D02*
X13852729Y-13018251D01*
X13852729Y-13018251D02*
X13843205Y-13037298D01*
X13843205Y-13037298D02*
X13833682Y-13046822D01*
X13833682Y-13046822D02*
X13814634Y-13056346D01*
X13814634Y-13056346D02*
X13757491Y-13056346D01*
X13757491Y-13056346D02*
X13738443Y-13046822D01*
X13738443Y-13046822D02*
X13728920Y-13037298D01*
X13976539Y-12856346D02*
X13995586Y-12856346D01*
X13995586Y-12856346D02*
X14014634Y-12865870D01*
X14014634Y-12865870D02*
X14024158Y-12875393D01*
X14024158Y-12875393D02*
X14033682Y-12894441D01*
X14033682Y-12894441D02*
X14043205Y-12932536D01*
X14043205Y-12932536D02*
X14043205Y-12980155D01*
X14043205Y-12980155D02*
X14033682Y-13018251D01*
X14033682Y-13018251D02*
X14024158Y-13037298D01*
X14024158Y-13037298D02*
X14014634Y-13046822D01*
X14014634Y-13046822D02*
X13995586Y-13056346D01*
X13995586Y-13056346D02*
X13976539Y-13056346D01*
X13976539Y-13056346D02*
X13957491Y-13046822D01*
X13957491Y-13046822D02*
X13947967Y-13037298D01*
X13947967Y-13037298D02*
X13938443Y-13018251D01*
X13938443Y-13018251D02*
X13928920Y-12980155D01*
X13928920Y-12980155D02*
X13928920Y-12932536D01*
X13928920Y-12932536D02*
X13938443Y-12894441D01*
X13938443Y-12894441D02*
X13947967Y-12875393D01*
X13947967Y-12875393D02*
X13957491Y-12865870D01*
X13957491Y-12865870D02*
X13976539Y-12856346D01*
X14128920Y-13056346D02*
X14128920Y-12923012D01*
X14128920Y-12942060D02*
X14138443Y-12932536D01*
X14138443Y-12932536D02*
X14157491Y-12923012D01*
X14157491Y-12923012D02*
X14186063Y-12923012D01*
X14186063Y-12923012D02*
X14205110Y-12932536D01*
X14205110Y-12932536D02*
X14214634Y-12951584D01*
X14214634Y-12951584D02*
X14214634Y-13056346D01*
X14214634Y-12951584D02*
X14224158Y-12932536D01*
X14224158Y-12932536D02*
X14243205Y-12923012D01*
X14243205Y-12923012D02*
X14271777Y-12923012D01*
X14271777Y-12923012D02*
X14290824Y-12932536D01*
X14290824Y-12932536D02*
X14300348Y-12951584D01*
X14300348Y-12951584D02*
X14300348Y-13056346D01*
X14395586Y-13056346D02*
X14395586Y-12923012D01*
X14395586Y-12942060D02*
X14405110Y-12932536D01*
X14405110Y-12932536D02*
X14424158Y-12923012D01*
X14424158Y-12923012D02*
X14452729Y-12923012D01*
X14452729Y-12923012D02*
X14471777Y-12932536D01*
X14471777Y-12932536D02*
X14481301Y-12951584D01*
X14481301Y-12951584D02*
X14481301Y-13056346D01*
X14481301Y-12951584D02*
X14490824Y-12932536D01*
X14490824Y-12932536D02*
X14509872Y-12923012D01*
X14509872Y-12923012D02*
X14538443Y-12923012D01*
X14538443Y-12923012D02*
X14557491Y-12932536D01*
X14557491Y-12932536D02*
X14567015Y-12951584D01*
X14567015Y-12951584D02*
X14567015Y-13056346D01*
X14957491Y-12846822D02*
X14786063Y-13103965D01*
X15214634Y-12856346D02*
X15233682Y-12856346D01*
X15233682Y-12856346D02*
X15252729Y-12865870D01*
X15252729Y-12865870D02*
X15262253Y-12875393D01*
X15262253Y-12875393D02*
X15271777Y-12894441D01*
X15271777Y-12894441D02*
X15281301Y-12932536D01*
X15281301Y-12932536D02*
X15281301Y-12980155D01*
X15281301Y-12980155D02*
X15271777Y-13018251D01*
X15271777Y-13018251D02*
X15262253Y-13037298D01*
X15262253Y-13037298D02*
X15252729Y-13046822D01*
X15252729Y-13046822D02*
X15233682Y-13056346D01*
X15233682Y-13056346D02*
X15214634Y-13056346D01*
X15214634Y-13056346D02*
X15195586Y-13046822D01*
X15195586Y-13046822D02*
X15186063Y-13037298D01*
X15186063Y-13037298D02*
X15176539Y-13018251D01*
X15176539Y-13018251D02*
X15167015Y-12980155D01*
X15167015Y-12980155D02*
X15167015Y-12932536D01*
X15167015Y-12932536D02*
X15176539Y-12894441D01*
X15176539Y-12894441D02*
X15186063Y-12875393D01*
X15186063Y-12875393D02*
X15195586Y-12865870D01*
X15195586Y-12865870D02*
X15214634Y-12856346D01*
X15367015Y-13037298D02*
X15376539Y-13046822D01*
X15376539Y-13046822D02*
X15367015Y-13056346D01*
X15367015Y-13056346D02*
X15357491Y-13046822D01*
X15357491Y-13046822D02*
X15367015Y-13037298D01*
X15367015Y-13037298D02*
X15367015Y-13056346D01*
X15500348Y-12856346D02*
X15519396Y-12856346D01*
X15519396Y-12856346D02*
X15538444Y-12865870D01*
X15538444Y-12865870D02*
X15547967Y-12875393D01*
X15547967Y-12875393D02*
X15557491Y-12894441D01*
X15557491Y-12894441D02*
X15567015Y-12932536D01*
X15567015Y-12932536D02*
X15567015Y-12980155D01*
X15567015Y-12980155D02*
X15557491Y-13018251D01*
X15557491Y-13018251D02*
X15547967Y-13037298D01*
X15547967Y-13037298D02*
X15538444Y-13046822D01*
X15538444Y-13046822D02*
X15519396Y-13056346D01*
X15519396Y-13056346D02*
X15500348Y-13056346D01*
X15500348Y-13056346D02*
X15481301Y-13046822D01*
X15481301Y-13046822D02*
X15471777Y-13037298D01*
X15471777Y-13037298D02*
X15462253Y-13018251D01*
X15462253Y-13018251D02*
X15452729Y-12980155D01*
X15452729Y-12980155D02*
X15452729Y-12932536D01*
X15452729Y-12932536D02*
X15462253Y-12894441D01*
X15462253Y-12894441D02*
X15471777Y-12875393D01*
X15471777Y-12875393D02*
X15481301Y-12865870D01*
X15481301Y-12865870D02*
X15500348Y-12856346D01*
X15757491Y-13056346D02*
X15643206Y-13056346D01*
X15700348Y-13056346D02*
X15700348Y-12856346D01*
X15700348Y-12856346D02*
X15681301Y-12884917D01*
X15681301Y-12884917D02*
X15662253Y-12903965D01*
X15662253Y-12903965D02*
X15643206Y-12913489D01*
X15824158Y-12856346D02*
X15947967Y-12856346D01*
X15947967Y-12856346D02*
X15881301Y-12932536D01*
X15881301Y-12932536D02*
X15909872Y-12932536D01*
X15909872Y-12932536D02*
X15928920Y-12942060D01*
X15928920Y-12942060D02*
X15938444Y-12951584D01*
X15938444Y-12951584D02*
X15947967Y-12970632D01*
X15947967Y-12970632D02*
X15947967Y-13018251D01*
X15947967Y-13018251D02*
X15938444Y-13037298D01*
X15938444Y-13037298D02*
X15928920Y-13046822D01*
X15928920Y-13046822D02*
X15909872Y-13056346D01*
X15909872Y-13056346D02*
X15852729Y-13056346D01*
X15852729Y-13056346D02*
X15833682Y-13046822D01*
X15833682Y-13046822D02*
X15824158Y-13037298D01*
X16071777Y-12856346D02*
X16090825Y-12856346D01*
X16090825Y-12856346D02*
X16109872Y-12865870D01*
X16109872Y-12865870D02*
X16119396Y-12875393D01*
X16119396Y-12875393D02*
X16128920Y-12894441D01*
X16128920Y-12894441D02*
X16138444Y-12932536D01*
X16138444Y-12932536D02*
X16138444Y-12980155D01*
X16138444Y-12980155D02*
X16128920Y-13018251D01*
X16128920Y-13018251D02*
X16119396Y-13037298D01*
X16119396Y-13037298D02*
X16109872Y-13046822D01*
X16109872Y-13046822D02*
X16090825Y-13056346D01*
X16090825Y-13056346D02*
X16071777Y-13056346D01*
X16071777Y-13056346D02*
X16052729Y-13046822D01*
X16052729Y-13046822D02*
X16043206Y-13037298D01*
X16043206Y-13037298D02*
X16033682Y-13018251D01*
X16033682Y-13018251D02*
X16024158Y-12980155D01*
X16024158Y-12980155D02*
X16024158Y-12932536D01*
X16024158Y-12932536D02*
X16033682Y-12894441D01*
X16033682Y-12894441D02*
X16043206Y-12875393D01*
X16043206Y-12875393D02*
X16052729Y-12865870D01*
X16052729Y-12865870D02*
X16071777Y-12856346D01*
X16214634Y-12856346D02*
X16214634Y-12894441D01*
X16290825Y-12856346D02*
X16290825Y-12894441D01*
X16586063Y-13132536D02*
X16576539Y-13123012D01*
X16576539Y-13123012D02*
X16557491Y-13094441D01*
X16557491Y-13094441D02*
X16547968Y-13075393D01*
X16547968Y-13075393D02*
X16538444Y-13046822D01*
X16538444Y-13046822D02*
X16528920Y-12999203D01*
X16528920Y-12999203D02*
X16528920Y-12961108D01*
X16528920Y-12961108D02*
X16538444Y-12913489D01*
X16538444Y-12913489D02*
X16547968Y-12884917D01*
X16547968Y-12884917D02*
X16557491Y-12865870D01*
X16557491Y-12865870D02*
X16576539Y-12837298D01*
X16576539Y-12837298D02*
X16586063Y-12827774D01*
X16767015Y-13056346D02*
X16652729Y-13056346D01*
X16709872Y-13056346D02*
X16709872Y-12856346D01*
X16709872Y-12856346D02*
X16690825Y-12884917D01*
X16690825Y-12884917D02*
X16671777Y-12903965D01*
X16671777Y-12903965D02*
X16652729Y-12913489D01*
X16938444Y-12856346D02*
X16900349Y-12856346D01*
X16900349Y-12856346D02*
X16881301Y-12865870D01*
X16881301Y-12865870D02*
X16871777Y-12875393D01*
X16871777Y-12875393D02*
X16852730Y-12903965D01*
X16852730Y-12903965D02*
X16843206Y-12942060D01*
X16843206Y-12942060D02*
X16843206Y-13018251D01*
X16843206Y-13018251D02*
X16852730Y-13037298D01*
X16852730Y-13037298D02*
X16862253Y-13046822D01*
X16862253Y-13046822D02*
X16881301Y-13056346D01*
X16881301Y-13056346D02*
X16919396Y-13056346D01*
X16919396Y-13056346D02*
X16938444Y-13046822D01*
X16938444Y-13046822D02*
X16947968Y-13037298D01*
X16947968Y-13037298D02*
X16957491Y-13018251D01*
X16957491Y-13018251D02*
X16957491Y-12970632D01*
X16957491Y-12970632D02*
X16947968Y-12951584D01*
X16947968Y-12951584D02*
X16938444Y-12942060D01*
X16938444Y-12942060D02*
X16919396Y-12932536D01*
X16919396Y-12932536D02*
X16881301Y-12932536D01*
X16881301Y-12932536D02*
X16862253Y-12942060D01*
X16862253Y-12942060D02*
X16852730Y-12951584D01*
X16852730Y-12951584D02*
X16843206Y-12970632D01*
X17024158Y-12856346D02*
X17157491Y-12856346D01*
X17157491Y-12856346D02*
X17071777Y-13056346D01*
X17386063Y-13056346D02*
X17386063Y-12856346D01*
X17471777Y-13056346D02*
X17471777Y-12951584D01*
X17471777Y-12951584D02*
X17462253Y-12932536D01*
X17462253Y-12932536D02*
X17443206Y-12923012D01*
X17443206Y-12923012D02*
X17414634Y-12923012D01*
X17414634Y-12923012D02*
X17395587Y-12932536D01*
X17395587Y-12932536D02*
X17386063Y-12942060D01*
X17595587Y-13056346D02*
X17576539Y-13046822D01*
X17576539Y-13046822D02*
X17567015Y-13037298D01*
X17567015Y-13037298D02*
X17557492Y-13018251D01*
X17557492Y-13018251D02*
X17557492Y-12961108D01*
X17557492Y-12961108D02*
X17567015Y-12942060D01*
X17567015Y-12942060D02*
X17576539Y-12932536D01*
X17576539Y-12932536D02*
X17595587Y-12923012D01*
X17595587Y-12923012D02*
X17624158Y-12923012D01*
X17624158Y-12923012D02*
X17643206Y-12932536D01*
X17643206Y-12932536D02*
X17652730Y-12942060D01*
X17652730Y-12942060D02*
X17662253Y-12961108D01*
X17662253Y-12961108D02*
X17662253Y-13018251D01*
X17662253Y-13018251D02*
X17652730Y-13037298D01*
X17652730Y-13037298D02*
X17643206Y-13046822D01*
X17643206Y-13046822D02*
X17624158Y-13056346D01*
X17624158Y-13056346D02*
X17595587Y-13056346D01*
X17776539Y-13056346D02*
X17757492Y-13046822D01*
X17757492Y-13046822D02*
X17747968Y-13027774D01*
X17747968Y-13027774D02*
X17747968Y-12856346D01*
X17928920Y-13046822D02*
X17909873Y-13056346D01*
X17909873Y-13056346D02*
X17871777Y-13056346D01*
X17871777Y-13056346D02*
X17852730Y-13046822D01*
X17852730Y-13046822D02*
X17843206Y-13027774D01*
X17843206Y-13027774D02*
X17843206Y-12951584D01*
X17843206Y-12951584D02*
X17852730Y-12932536D01*
X17852730Y-12932536D02*
X17871777Y-12923012D01*
X17871777Y-12923012D02*
X17909873Y-12923012D01*
X17909873Y-12923012D02*
X17928920Y-12932536D01*
X17928920Y-12932536D02*
X17938444Y-12951584D01*
X17938444Y-12951584D02*
X17938444Y-12970632D01*
X17938444Y-12970632D02*
X17843206Y-12989679D01*
X18014634Y-13046822D02*
X18033682Y-13056346D01*
X18033682Y-13056346D02*
X18071777Y-13056346D01*
X18071777Y-13056346D02*
X18090825Y-13046822D01*
X18090825Y-13046822D02*
X18100349Y-13027774D01*
X18100349Y-13027774D02*
X18100349Y-13018251D01*
X18100349Y-13018251D02*
X18090825Y-12999203D01*
X18090825Y-12999203D02*
X18071777Y-12989679D01*
X18071777Y-12989679D02*
X18043206Y-12989679D01*
X18043206Y-12989679D02*
X18024158Y-12980155D01*
X18024158Y-12980155D02*
X18014634Y-12961108D01*
X18014634Y-12961108D02*
X18014634Y-12951584D01*
X18014634Y-12951584D02*
X18024158Y-12932536D01*
X18024158Y-12932536D02*
X18043206Y-12923012D01*
X18043206Y-12923012D02*
X18071777Y-12923012D01*
X18071777Y-12923012D02*
X18090825Y-12932536D01*
X18167015Y-13132536D02*
X18176539Y-13123012D01*
X18176539Y-13123012D02*
X18195587Y-13094441D01*
X18195587Y-13094441D02*
X18205111Y-13075393D01*
X18205111Y-13075393D02*
X18214634Y-13046822D01*
X18214634Y-13046822D02*
X18224158Y-12999203D01*
X18224158Y-12999203D02*
X18224158Y-12961108D01*
X18224158Y-12961108D02*
X18214634Y-12913489D01*
X18214634Y-12913489D02*
X18205111Y-12884917D01*
X18205111Y-12884917D02*
X18195587Y-12865870D01*
X18195587Y-12865870D02*
X18176539Y-12837298D01*
X18176539Y-12837298D02*
X18167015Y-12827774D01*
D13*
X13011000Y-13228862D02*
G75*
G03*
X13011000Y-13228862I-40000J0D01*
G01*
D11*
X13309872Y-13120346D02*
X13328920Y-13120346D01*
X13328920Y-13120346D02*
X13347967Y-13129870D01*
X13347967Y-13129870D02*
X13357491Y-13139393D01*
X13357491Y-13139393D02*
X13367015Y-13158441D01*
X13367015Y-13158441D02*
X13376539Y-13196536D01*
X13376539Y-13196536D02*
X13376539Y-13244155D01*
X13376539Y-13244155D02*
X13367015Y-13282251D01*
X13367015Y-13282251D02*
X13357491Y-13301298D01*
X13357491Y-13301298D02*
X13347967Y-13310822D01*
X13347967Y-13310822D02*
X13328920Y-13320346D01*
X13328920Y-13320346D02*
X13309872Y-13320346D01*
X13309872Y-13320346D02*
X13290824Y-13310822D01*
X13290824Y-13310822D02*
X13281301Y-13301298D01*
X13281301Y-13301298D02*
X13271777Y-13282251D01*
X13271777Y-13282251D02*
X13262253Y-13244155D01*
X13262253Y-13244155D02*
X13262253Y-13196536D01*
X13262253Y-13196536D02*
X13271777Y-13158441D01*
X13271777Y-13158441D02*
X13281301Y-13139393D01*
X13281301Y-13139393D02*
X13290824Y-13129870D01*
X13290824Y-13129870D02*
X13309872Y-13120346D01*
X13462253Y-13301298D02*
X13471777Y-13310822D01*
X13471777Y-13310822D02*
X13462253Y-13320346D01*
X13462253Y-13320346D02*
X13452729Y-13310822D01*
X13452729Y-13310822D02*
X13462253Y-13301298D01*
X13462253Y-13301298D02*
X13462253Y-13320346D01*
X13586062Y-13206060D02*
X13567015Y-13196536D01*
X13567015Y-13196536D02*
X13557491Y-13187012D01*
X13557491Y-13187012D02*
X13547967Y-13167965D01*
X13547967Y-13167965D02*
X13547967Y-13158441D01*
X13547967Y-13158441D02*
X13557491Y-13139393D01*
X13557491Y-13139393D02*
X13567015Y-13129870D01*
X13567015Y-13129870D02*
X13586062Y-13120346D01*
X13586062Y-13120346D02*
X13624158Y-13120346D01*
X13624158Y-13120346D02*
X13643205Y-13129870D01*
X13643205Y-13129870D02*
X13652729Y-13139393D01*
X13652729Y-13139393D02*
X13662253Y-13158441D01*
X13662253Y-13158441D02*
X13662253Y-13167965D01*
X13662253Y-13167965D02*
X13652729Y-13187012D01*
X13652729Y-13187012D02*
X13643205Y-13196536D01*
X13643205Y-13196536D02*
X13624158Y-13206060D01*
X13624158Y-13206060D02*
X13586062Y-13206060D01*
X13586062Y-13206060D02*
X13567015Y-13215584D01*
X13567015Y-13215584D02*
X13557491Y-13225108D01*
X13557491Y-13225108D02*
X13547967Y-13244155D01*
X13547967Y-13244155D02*
X13547967Y-13282251D01*
X13547967Y-13282251D02*
X13557491Y-13301298D01*
X13557491Y-13301298D02*
X13567015Y-13310822D01*
X13567015Y-13310822D02*
X13586062Y-13320346D01*
X13586062Y-13320346D02*
X13624158Y-13320346D01*
X13624158Y-13320346D02*
X13643205Y-13310822D01*
X13643205Y-13310822D02*
X13652729Y-13301298D01*
X13652729Y-13301298D02*
X13662253Y-13282251D01*
X13662253Y-13282251D02*
X13662253Y-13244155D01*
X13662253Y-13244155D02*
X13652729Y-13225108D01*
X13652729Y-13225108D02*
X13643205Y-13215584D01*
X13643205Y-13215584D02*
X13624158Y-13206060D01*
X13786062Y-13120346D02*
X13805110Y-13120346D01*
X13805110Y-13120346D02*
X13824158Y-13129870D01*
X13824158Y-13129870D02*
X13833682Y-13139393D01*
X13833682Y-13139393D02*
X13843205Y-13158441D01*
X13843205Y-13158441D02*
X13852729Y-13196536D01*
X13852729Y-13196536D02*
X13852729Y-13244155D01*
X13852729Y-13244155D02*
X13843205Y-13282251D01*
X13843205Y-13282251D02*
X13833682Y-13301298D01*
X13833682Y-13301298D02*
X13824158Y-13310822D01*
X13824158Y-13310822D02*
X13805110Y-13320346D01*
X13805110Y-13320346D02*
X13786062Y-13320346D01*
X13786062Y-13320346D02*
X13767015Y-13310822D01*
X13767015Y-13310822D02*
X13757491Y-13301298D01*
X13757491Y-13301298D02*
X13747967Y-13282251D01*
X13747967Y-13282251D02*
X13738443Y-13244155D01*
X13738443Y-13244155D02*
X13738443Y-13196536D01*
X13738443Y-13196536D02*
X13747967Y-13158441D01*
X13747967Y-13158441D02*
X13757491Y-13139393D01*
X13757491Y-13139393D02*
X13767015Y-13129870D01*
X13767015Y-13129870D02*
X13786062Y-13120346D01*
X13976539Y-13120346D02*
X13995586Y-13120346D01*
X13995586Y-13120346D02*
X14014634Y-13129870D01*
X14014634Y-13129870D02*
X14024158Y-13139393D01*
X14024158Y-13139393D02*
X14033682Y-13158441D01*
X14033682Y-13158441D02*
X14043205Y-13196536D01*
X14043205Y-13196536D02*
X14043205Y-13244155D01*
X14043205Y-13244155D02*
X14033682Y-13282251D01*
X14033682Y-13282251D02*
X14024158Y-13301298D01*
X14024158Y-13301298D02*
X14014634Y-13310822D01*
X14014634Y-13310822D02*
X13995586Y-13320346D01*
X13995586Y-13320346D02*
X13976539Y-13320346D01*
X13976539Y-13320346D02*
X13957491Y-13310822D01*
X13957491Y-13310822D02*
X13947967Y-13301298D01*
X13947967Y-13301298D02*
X13938443Y-13282251D01*
X13938443Y-13282251D02*
X13928920Y-13244155D01*
X13928920Y-13244155D02*
X13928920Y-13196536D01*
X13928920Y-13196536D02*
X13938443Y-13158441D01*
X13938443Y-13158441D02*
X13947967Y-13139393D01*
X13947967Y-13139393D02*
X13957491Y-13129870D01*
X13957491Y-13129870D02*
X13976539Y-13120346D01*
X14128920Y-13320346D02*
X14128920Y-13187012D01*
X14128920Y-13206060D02*
X14138443Y-13196536D01*
X14138443Y-13196536D02*
X14157491Y-13187012D01*
X14157491Y-13187012D02*
X14186063Y-13187012D01*
X14186063Y-13187012D02*
X14205110Y-13196536D01*
X14205110Y-13196536D02*
X14214634Y-13215584D01*
X14214634Y-13215584D02*
X14214634Y-13320346D01*
X14214634Y-13215584D02*
X14224158Y-13196536D01*
X14224158Y-13196536D02*
X14243205Y-13187012D01*
X14243205Y-13187012D02*
X14271777Y-13187012D01*
X14271777Y-13187012D02*
X14290824Y-13196536D01*
X14290824Y-13196536D02*
X14300348Y-13215584D01*
X14300348Y-13215584D02*
X14300348Y-13320346D01*
X14395586Y-13320346D02*
X14395586Y-13187012D01*
X14395586Y-13206060D02*
X14405110Y-13196536D01*
X14405110Y-13196536D02*
X14424158Y-13187012D01*
X14424158Y-13187012D02*
X14452729Y-13187012D01*
X14452729Y-13187012D02*
X14471777Y-13196536D01*
X14471777Y-13196536D02*
X14481301Y-13215584D01*
X14481301Y-13215584D02*
X14481301Y-13320346D01*
X14481301Y-13215584D02*
X14490824Y-13196536D01*
X14490824Y-13196536D02*
X14509872Y-13187012D01*
X14509872Y-13187012D02*
X14538443Y-13187012D01*
X14538443Y-13187012D02*
X14557491Y-13196536D01*
X14557491Y-13196536D02*
X14567015Y-13215584D01*
X14567015Y-13215584D02*
X14567015Y-13320346D01*
X14957491Y-13110822D02*
X14786063Y-13367965D01*
X15214634Y-13120346D02*
X15233682Y-13120346D01*
X15233682Y-13120346D02*
X15252729Y-13129870D01*
X15252729Y-13129870D02*
X15262253Y-13139393D01*
X15262253Y-13139393D02*
X15271777Y-13158441D01*
X15271777Y-13158441D02*
X15281301Y-13196536D01*
X15281301Y-13196536D02*
X15281301Y-13244155D01*
X15281301Y-13244155D02*
X15271777Y-13282251D01*
X15271777Y-13282251D02*
X15262253Y-13301298D01*
X15262253Y-13301298D02*
X15252729Y-13310822D01*
X15252729Y-13310822D02*
X15233682Y-13320346D01*
X15233682Y-13320346D02*
X15214634Y-13320346D01*
X15214634Y-13320346D02*
X15195586Y-13310822D01*
X15195586Y-13310822D02*
X15186063Y-13301298D01*
X15186063Y-13301298D02*
X15176539Y-13282251D01*
X15176539Y-13282251D02*
X15167015Y-13244155D01*
X15167015Y-13244155D02*
X15167015Y-13196536D01*
X15167015Y-13196536D02*
X15176539Y-13158441D01*
X15176539Y-13158441D02*
X15186063Y-13139393D01*
X15186063Y-13139393D02*
X15195586Y-13129870D01*
X15195586Y-13129870D02*
X15214634Y-13120346D01*
X15367015Y-13301298D02*
X15376539Y-13310822D01*
X15376539Y-13310822D02*
X15367015Y-13320346D01*
X15367015Y-13320346D02*
X15357491Y-13310822D01*
X15357491Y-13310822D02*
X15367015Y-13301298D01*
X15367015Y-13301298D02*
X15367015Y-13320346D01*
X15500348Y-13120346D02*
X15519396Y-13120346D01*
X15519396Y-13120346D02*
X15538444Y-13129870D01*
X15538444Y-13129870D02*
X15547967Y-13139393D01*
X15547967Y-13139393D02*
X15557491Y-13158441D01*
X15557491Y-13158441D02*
X15567015Y-13196536D01*
X15567015Y-13196536D02*
X15567015Y-13244155D01*
X15567015Y-13244155D02*
X15557491Y-13282251D01*
X15557491Y-13282251D02*
X15547967Y-13301298D01*
X15547967Y-13301298D02*
X15538444Y-13310822D01*
X15538444Y-13310822D02*
X15519396Y-13320346D01*
X15519396Y-13320346D02*
X15500348Y-13320346D01*
X15500348Y-13320346D02*
X15481301Y-13310822D01*
X15481301Y-13310822D02*
X15471777Y-13301298D01*
X15471777Y-13301298D02*
X15462253Y-13282251D01*
X15462253Y-13282251D02*
X15452729Y-13244155D01*
X15452729Y-13244155D02*
X15452729Y-13196536D01*
X15452729Y-13196536D02*
X15462253Y-13158441D01*
X15462253Y-13158441D02*
X15471777Y-13139393D01*
X15471777Y-13139393D02*
X15481301Y-13129870D01*
X15481301Y-13129870D02*
X15500348Y-13120346D01*
X15633682Y-13120346D02*
X15757491Y-13120346D01*
X15757491Y-13120346D02*
X15690825Y-13196536D01*
X15690825Y-13196536D02*
X15719396Y-13196536D01*
X15719396Y-13196536D02*
X15738444Y-13206060D01*
X15738444Y-13206060D02*
X15747967Y-13215584D01*
X15747967Y-13215584D02*
X15757491Y-13234632D01*
X15757491Y-13234632D02*
X15757491Y-13282251D01*
X15757491Y-13282251D02*
X15747967Y-13301298D01*
X15747967Y-13301298D02*
X15738444Y-13310822D01*
X15738444Y-13310822D02*
X15719396Y-13320346D01*
X15719396Y-13320346D02*
X15662253Y-13320346D01*
X15662253Y-13320346D02*
X15643206Y-13310822D01*
X15643206Y-13310822D02*
X15633682Y-13301298D01*
X15947967Y-13320346D02*
X15833682Y-13320346D01*
X15890825Y-13320346D02*
X15890825Y-13120346D01*
X15890825Y-13120346D02*
X15871777Y-13148917D01*
X15871777Y-13148917D02*
X15852729Y-13167965D01*
X15852729Y-13167965D02*
X15833682Y-13177489D01*
X16128920Y-13120346D02*
X16033682Y-13120346D01*
X16033682Y-13120346D02*
X16024158Y-13215584D01*
X16024158Y-13215584D02*
X16033682Y-13206060D01*
X16033682Y-13206060D02*
X16052729Y-13196536D01*
X16052729Y-13196536D02*
X16100348Y-13196536D01*
X16100348Y-13196536D02*
X16119396Y-13206060D01*
X16119396Y-13206060D02*
X16128920Y-13215584D01*
X16128920Y-13215584D02*
X16138444Y-13234632D01*
X16138444Y-13234632D02*
X16138444Y-13282251D01*
X16138444Y-13282251D02*
X16128920Y-13301298D01*
X16128920Y-13301298D02*
X16119396Y-13310822D01*
X16119396Y-13310822D02*
X16100348Y-13320346D01*
X16100348Y-13320346D02*
X16052729Y-13320346D01*
X16052729Y-13320346D02*
X16033682Y-13310822D01*
X16033682Y-13310822D02*
X16024158Y-13301298D01*
X16214634Y-13120346D02*
X16214634Y-13158441D01*
X16290825Y-13120346D02*
X16290825Y-13158441D01*
X16586063Y-13396536D02*
X16576539Y-13387012D01*
X16576539Y-13387012D02*
X16557491Y-13358441D01*
X16557491Y-13358441D02*
X16547968Y-13339393D01*
X16547968Y-13339393D02*
X16538444Y-13310822D01*
X16538444Y-13310822D02*
X16528920Y-13263203D01*
X16528920Y-13263203D02*
X16528920Y-13225108D01*
X16528920Y-13225108D02*
X16538444Y-13177489D01*
X16538444Y-13177489D02*
X16547968Y-13148917D01*
X16547968Y-13148917D02*
X16557491Y-13129870D01*
X16557491Y-13129870D02*
X16576539Y-13101298D01*
X16576539Y-13101298D02*
X16586063Y-13091774D01*
X16643206Y-13120346D02*
X16776539Y-13120346D01*
X16776539Y-13120346D02*
X16690825Y-13320346D01*
X17005111Y-13320346D02*
X17005111Y-13120346D01*
X17090825Y-13320346D02*
X17090825Y-13215584D01*
X17090825Y-13215584D02*
X17081301Y-13196536D01*
X17081301Y-13196536D02*
X17062253Y-13187012D01*
X17062253Y-13187012D02*
X17033682Y-13187012D01*
X17033682Y-13187012D02*
X17014634Y-13196536D01*
X17014634Y-13196536D02*
X17005111Y-13206060D01*
X17214634Y-13320346D02*
X17195587Y-13310822D01*
X17195587Y-13310822D02*
X17186063Y-13301298D01*
X17186063Y-13301298D02*
X17176539Y-13282251D01*
X17176539Y-13282251D02*
X17176539Y-13225108D01*
X17176539Y-13225108D02*
X17186063Y-13206060D01*
X17186063Y-13206060D02*
X17195587Y-13196536D01*
X17195587Y-13196536D02*
X17214634Y-13187012D01*
X17214634Y-13187012D02*
X17243206Y-13187012D01*
X17243206Y-13187012D02*
X17262253Y-13196536D01*
X17262253Y-13196536D02*
X17271777Y-13206060D01*
X17271777Y-13206060D02*
X17281301Y-13225108D01*
X17281301Y-13225108D02*
X17281301Y-13282251D01*
X17281301Y-13282251D02*
X17271777Y-13301298D01*
X17271777Y-13301298D02*
X17262253Y-13310822D01*
X17262253Y-13310822D02*
X17243206Y-13320346D01*
X17243206Y-13320346D02*
X17214634Y-13320346D01*
X17395587Y-13320346D02*
X17376539Y-13310822D01*
X17376539Y-13310822D02*
X17367015Y-13291774D01*
X17367015Y-13291774D02*
X17367015Y-13120346D01*
X17547968Y-13310822D02*
X17528920Y-13320346D01*
X17528920Y-13320346D02*
X17490825Y-13320346D01*
X17490825Y-13320346D02*
X17471777Y-13310822D01*
X17471777Y-13310822D02*
X17462253Y-13291774D01*
X17462253Y-13291774D02*
X17462253Y-13215584D01*
X17462253Y-13215584D02*
X17471777Y-13196536D01*
X17471777Y-13196536D02*
X17490825Y-13187012D01*
X17490825Y-13187012D02*
X17528920Y-13187012D01*
X17528920Y-13187012D02*
X17547968Y-13196536D01*
X17547968Y-13196536D02*
X17557492Y-13215584D01*
X17557492Y-13215584D02*
X17557492Y-13234632D01*
X17557492Y-13234632D02*
X17462253Y-13253679D01*
X17633682Y-13310822D02*
X17652730Y-13320346D01*
X17652730Y-13320346D02*
X17690825Y-13320346D01*
X17690825Y-13320346D02*
X17709873Y-13310822D01*
X17709873Y-13310822D02*
X17719396Y-13291774D01*
X17719396Y-13291774D02*
X17719396Y-13282251D01*
X17719396Y-13282251D02*
X17709873Y-13263203D01*
X17709873Y-13263203D02*
X17690825Y-13253679D01*
X17690825Y-13253679D02*
X17662253Y-13253679D01*
X17662253Y-13253679D02*
X17643206Y-13244155D01*
X17643206Y-13244155D02*
X17633682Y-13225108D01*
X17633682Y-13225108D02*
X17633682Y-13215584D01*
X17633682Y-13215584D02*
X17643206Y-13196536D01*
X17643206Y-13196536D02*
X17662253Y-13187012D01*
X17662253Y-13187012D02*
X17690825Y-13187012D01*
X17690825Y-13187012D02*
X17709873Y-13196536D01*
X17786063Y-13396536D02*
X17795587Y-13387012D01*
X17795587Y-13387012D02*
X17814634Y-13358441D01*
X17814634Y-13358441D02*
X17824158Y-13339393D01*
X17824158Y-13339393D02*
X17833682Y-13310822D01*
X17833682Y-13310822D02*
X17843206Y-13263203D01*
X17843206Y-13263203D02*
X17843206Y-13225108D01*
X17843206Y-13225108D02*
X17833682Y-13177489D01*
X17833682Y-13177489D02*
X17824158Y-13148917D01*
X17824158Y-13148917D02*
X17814634Y-13129870D01*
X17814634Y-13129870D02*
X17795587Y-13101298D01*
X17795587Y-13101298D02*
X17786063Y-13091774D01*
D10*
X12961000Y-13442862D02*
X12961000Y-13542862D01*
X12911000Y-13492862D02*
X13011000Y-13492862D01*
D11*
X13376539Y-13584346D02*
X13262253Y-13584346D01*
X13319396Y-13584346D02*
X13319396Y-13384346D01*
X13319396Y-13384346D02*
X13300348Y-13412917D01*
X13300348Y-13412917D02*
X13281301Y-13431965D01*
X13281301Y-13431965D02*
X13262253Y-13441489D01*
X13462253Y-13565298D02*
X13471777Y-13574822D01*
X13471777Y-13574822D02*
X13462253Y-13584346D01*
X13462253Y-13584346D02*
X13452729Y-13574822D01*
X13452729Y-13574822D02*
X13462253Y-13565298D01*
X13462253Y-13565298D02*
X13462253Y-13584346D01*
X13595586Y-13384346D02*
X13614634Y-13384346D01*
X13614634Y-13384346D02*
X13633682Y-13393870D01*
X13633682Y-13393870D02*
X13643205Y-13403393D01*
X13643205Y-13403393D02*
X13652729Y-13422441D01*
X13652729Y-13422441D02*
X13662253Y-13460536D01*
X13662253Y-13460536D02*
X13662253Y-13508155D01*
X13662253Y-13508155D02*
X13652729Y-13546251D01*
X13652729Y-13546251D02*
X13643205Y-13565298D01*
X13643205Y-13565298D02*
X13633682Y-13574822D01*
X13633682Y-13574822D02*
X13614634Y-13584346D01*
X13614634Y-13584346D02*
X13595586Y-13584346D01*
X13595586Y-13584346D02*
X13576539Y-13574822D01*
X13576539Y-13574822D02*
X13567015Y-13565298D01*
X13567015Y-13565298D02*
X13557491Y-13546251D01*
X13557491Y-13546251D02*
X13547967Y-13508155D01*
X13547967Y-13508155D02*
X13547967Y-13460536D01*
X13547967Y-13460536D02*
X13557491Y-13422441D01*
X13557491Y-13422441D02*
X13567015Y-13403393D01*
X13567015Y-13403393D02*
X13576539Y-13393870D01*
X13576539Y-13393870D02*
X13595586Y-13384346D01*
X13786062Y-13384346D02*
X13805110Y-13384346D01*
X13805110Y-13384346D02*
X13824158Y-13393870D01*
X13824158Y-13393870D02*
X13833682Y-13403393D01*
X13833682Y-13403393D02*
X13843205Y-13422441D01*
X13843205Y-13422441D02*
X13852729Y-13460536D01*
X13852729Y-13460536D02*
X13852729Y-13508155D01*
X13852729Y-13508155D02*
X13843205Y-13546251D01*
X13843205Y-13546251D02*
X13833682Y-13565298D01*
X13833682Y-13565298D02*
X13824158Y-13574822D01*
X13824158Y-13574822D02*
X13805110Y-13584346D01*
X13805110Y-13584346D02*
X13786062Y-13584346D01*
X13786062Y-13584346D02*
X13767015Y-13574822D01*
X13767015Y-13574822D02*
X13757491Y-13565298D01*
X13757491Y-13565298D02*
X13747967Y-13546251D01*
X13747967Y-13546251D02*
X13738443Y-13508155D01*
X13738443Y-13508155D02*
X13738443Y-13460536D01*
X13738443Y-13460536D02*
X13747967Y-13422441D01*
X13747967Y-13422441D02*
X13757491Y-13403393D01*
X13757491Y-13403393D02*
X13767015Y-13393870D01*
X13767015Y-13393870D02*
X13786062Y-13384346D01*
X13976539Y-13384346D02*
X13995586Y-13384346D01*
X13995586Y-13384346D02*
X14014634Y-13393870D01*
X14014634Y-13393870D02*
X14024158Y-13403393D01*
X14024158Y-13403393D02*
X14033682Y-13422441D01*
X14033682Y-13422441D02*
X14043205Y-13460536D01*
X14043205Y-13460536D02*
X14043205Y-13508155D01*
X14043205Y-13508155D02*
X14033682Y-13546251D01*
X14033682Y-13546251D02*
X14024158Y-13565298D01*
X14024158Y-13565298D02*
X14014634Y-13574822D01*
X14014634Y-13574822D02*
X13995586Y-13584346D01*
X13995586Y-13584346D02*
X13976539Y-13584346D01*
X13976539Y-13584346D02*
X13957491Y-13574822D01*
X13957491Y-13574822D02*
X13947967Y-13565298D01*
X13947967Y-13565298D02*
X13938443Y-13546251D01*
X13938443Y-13546251D02*
X13928920Y-13508155D01*
X13928920Y-13508155D02*
X13928920Y-13460536D01*
X13928920Y-13460536D02*
X13938443Y-13422441D01*
X13938443Y-13422441D02*
X13947967Y-13403393D01*
X13947967Y-13403393D02*
X13957491Y-13393870D01*
X13957491Y-13393870D02*
X13976539Y-13384346D01*
X14128920Y-13584346D02*
X14128920Y-13451012D01*
X14128920Y-13470060D02*
X14138443Y-13460536D01*
X14138443Y-13460536D02*
X14157491Y-13451012D01*
X14157491Y-13451012D02*
X14186063Y-13451012D01*
X14186063Y-13451012D02*
X14205110Y-13460536D01*
X14205110Y-13460536D02*
X14214634Y-13479584D01*
X14214634Y-13479584D02*
X14214634Y-13584346D01*
X14214634Y-13479584D02*
X14224158Y-13460536D01*
X14224158Y-13460536D02*
X14243205Y-13451012D01*
X14243205Y-13451012D02*
X14271777Y-13451012D01*
X14271777Y-13451012D02*
X14290824Y-13460536D01*
X14290824Y-13460536D02*
X14300348Y-13479584D01*
X14300348Y-13479584D02*
X14300348Y-13584346D01*
X14395586Y-13584346D02*
X14395586Y-13451012D01*
X14395586Y-13470060D02*
X14405110Y-13460536D01*
X14405110Y-13460536D02*
X14424158Y-13451012D01*
X14424158Y-13451012D02*
X14452729Y-13451012D01*
X14452729Y-13451012D02*
X14471777Y-13460536D01*
X14471777Y-13460536D02*
X14481301Y-13479584D01*
X14481301Y-13479584D02*
X14481301Y-13584346D01*
X14481301Y-13479584D02*
X14490824Y-13460536D01*
X14490824Y-13460536D02*
X14509872Y-13451012D01*
X14509872Y-13451012D02*
X14538443Y-13451012D01*
X14538443Y-13451012D02*
X14557491Y-13460536D01*
X14557491Y-13460536D02*
X14567015Y-13479584D01*
X14567015Y-13479584D02*
X14567015Y-13584346D01*
X14957491Y-13374822D02*
X14786063Y-13631965D01*
X15214634Y-13384346D02*
X15233682Y-13384346D01*
X15233682Y-13384346D02*
X15252729Y-13393870D01*
X15252729Y-13393870D02*
X15262253Y-13403393D01*
X15262253Y-13403393D02*
X15271777Y-13422441D01*
X15271777Y-13422441D02*
X15281301Y-13460536D01*
X15281301Y-13460536D02*
X15281301Y-13508155D01*
X15281301Y-13508155D02*
X15271777Y-13546251D01*
X15271777Y-13546251D02*
X15262253Y-13565298D01*
X15262253Y-13565298D02*
X15252729Y-13574822D01*
X15252729Y-13574822D02*
X15233682Y-13584346D01*
X15233682Y-13584346D02*
X15214634Y-13584346D01*
X15214634Y-13584346D02*
X15195586Y-13574822D01*
X15195586Y-13574822D02*
X15186063Y-13565298D01*
X15186063Y-13565298D02*
X15176539Y-13546251D01*
X15176539Y-13546251D02*
X15167015Y-13508155D01*
X15167015Y-13508155D02*
X15167015Y-13460536D01*
X15167015Y-13460536D02*
X15176539Y-13422441D01*
X15176539Y-13422441D02*
X15186063Y-13403393D01*
X15186063Y-13403393D02*
X15195586Y-13393870D01*
X15195586Y-13393870D02*
X15214634Y-13384346D01*
X15367015Y-13565298D02*
X15376539Y-13574822D01*
X15376539Y-13574822D02*
X15367015Y-13584346D01*
X15367015Y-13584346D02*
X15357491Y-13574822D01*
X15357491Y-13574822D02*
X15367015Y-13565298D01*
X15367015Y-13565298D02*
X15367015Y-13584346D01*
X15500348Y-13384346D02*
X15519396Y-13384346D01*
X15519396Y-13384346D02*
X15538444Y-13393870D01*
X15538444Y-13393870D02*
X15547967Y-13403393D01*
X15547967Y-13403393D02*
X15557491Y-13422441D01*
X15557491Y-13422441D02*
X15567015Y-13460536D01*
X15567015Y-13460536D02*
X15567015Y-13508155D01*
X15567015Y-13508155D02*
X15557491Y-13546251D01*
X15557491Y-13546251D02*
X15547967Y-13565298D01*
X15547967Y-13565298D02*
X15538444Y-13574822D01*
X15538444Y-13574822D02*
X15519396Y-13584346D01*
X15519396Y-13584346D02*
X15500348Y-13584346D01*
X15500348Y-13584346D02*
X15481301Y-13574822D01*
X15481301Y-13574822D02*
X15471777Y-13565298D01*
X15471777Y-13565298D02*
X15462253Y-13546251D01*
X15462253Y-13546251D02*
X15452729Y-13508155D01*
X15452729Y-13508155D02*
X15452729Y-13460536D01*
X15452729Y-13460536D02*
X15462253Y-13422441D01*
X15462253Y-13422441D02*
X15471777Y-13403393D01*
X15471777Y-13403393D02*
X15481301Y-13393870D01*
X15481301Y-13393870D02*
X15500348Y-13384346D01*
X15633682Y-13384346D02*
X15757491Y-13384346D01*
X15757491Y-13384346D02*
X15690825Y-13460536D01*
X15690825Y-13460536D02*
X15719396Y-13460536D01*
X15719396Y-13460536D02*
X15738444Y-13470060D01*
X15738444Y-13470060D02*
X15747967Y-13479584D01*
X15747967Y-13479584D02*
X15757491Y-13498632D01*
X15757491Y-13498632D02*
X15757491Y-13546251D01*
X15757491Y-13546251D02*
X15747967Y-13565298D01*
X15747967Y-13565298D02*
X15738444Y-13574822D01*
X15738444Y-13574822D02*
X15719396Y-13584346D01*
X15719396Y-13584346D02*
X15662253Y-13584346D01*
X15662253Y-13584346D02*
X15643206Y-13574822D01*
X15643206Y-13574822D02*
X15633682Y-13565298D01*
X15852729Y-13584346D02*
X15890825Y-13584346D01*
X15890825Y-13584346D02*
X15909872Y-13574822D01*
X15909872Y-13574822D02*
X15919396Y-13565298D01*
X15919396Y-13565298D02*
X15938444Y-13536727D01*
X15938444Y-13536727D02*
X15947967Y-13498632D01*
X15947967Y-13498632D02*
X15947967Y-13422441D01*
X15947967Y-13422441D02*
X15938444Y-13403393D01*
X15938444Y-13403393D02*
X15928920Y-13393870D01*
X15928920Y-13393870D02*
X15909872Y-13384346D01*
X15909872Y-13384346D02*
X15871777Y-13384346D01*
X15871777Y-13384346D02*
X15852729Y-13393870D01*
X15852729Y-13393870D02*
X15843206Y-13403393D01*
X15843206Y-13403393D02*
X15833682Y-13422441D01*
X15833682Y-13422441D02*
X15833682Y-13470060D01*
X15833682Y-13470060D02*
X15843206Y-13489108D01*
X15843206Y-13489108D02*
X15852729Y-13498632D01*
X15852729Y-13498632D02*
X15871777Y-13508155D01*
X15871777Y-13508155D02*
X15909872Y-13508155D01*
X15909872Y-13508155D02*
X15928920Y-13498632D01*
X15928920Y-13498632D02*
X15938444Y-13489108D01*
X15938444Y-13489108D02*
X15947967Y-13470060D01*
X16119396Y-13451012D02*
X16119396Y-13584346D01*
X16071777Y-13374822D02*
X16024158Y-13517679D01*
X16024158Y-13517679D02*
X16147967Y-13517679D01*
X16214634Y-13384346D02*
X16214634Y-13422441D01*
X16290825Y-13384346D02*
X16290825Y-13422441D01*
X16586063Y-13660536D02*
X16576539Y-13651012D01*
X16576539Y-13651012D02*
X16557491Y-13622441D01*
X16557491Y-13622441D02*
X16547968Y-13603393D01*
X16547968Y-13603393D02*
X16538444Y-13574822D01*
X16538444Y-13574822D02*
X16528920Y-13527203D01*
X16528920Y-13527203D02*
X16528920Y-13489108D01*
X16528920Y-13489108D02*
X16538444Y-13441489D01*
X16538444Y-13441489D02*
X16547968Y-13412917D01*
X16547968Y-13412917D02*
X16557491Y-13393870D01*
X16557491Y-13393870D02*
X16576539Y-13365298D01*
X16576539Y-13365298D02*
X16586063Y-13355774D01*
X16652729Y-13403393D02*
X16662253Y-13393870D01*
X16662253Y-13393870D02*
X16681301Y-13384346D01*
X16681301Y-13384346D02*
X16728920Y-13384346D01*
X16728920Y-13384346D02*
X16747968Y-13393870D01*
X16747968Y-13393870D02*
X16757491Y-13403393D01*
X16757491Y-13403393D02*
X16767015Y-13422441D01*
X16767015Y-13422441D02*
X16767015Y-13441489D01*
X16767015Y-13441489D02*
X16757491Y-13470060D01*
X16757491Y-13470060D02*
X16643206Y-13584346D01*
X16643206Y-13584346D02*
X16767015Y-13584346D01*
X16938444Y-13451012D02*
X16938444Y-13584346D01*
X16890825Y-13374822D02*
X16843206Y-13517679D01*
X16843206Y-13517679D02*
X16967015Y-13517679D01*
X17195587Y-13584346D02*
X17195587Y-13384346D01*
X17281301Y-13584346D02*
X17281301Y-13479584D01*
X17281301Y-13479584D02*
X17271777Y-13460536D01*
X17271777Y-13460536D02*
X17252730Y-13451012D01*
X17252730Y-13451012D02*
X17224158Y-13451012D01*
X17224158Y-13451012D02*
X17205111Y-13460536D01*
X17205111Y-13460536D02*
X17195587Y-13470060D01*
X17405111Y-13584346D02*
X17386063Y-13574822D01*
X17386063Y-13574822D02*
X17376539Y-13565298D01*
X17376539Y-13565298D02*
X17367015Y-13546251D01*
X17367015Y-13546251D02*
X17367015Y-13489108D01*
X17367015Y-13489108D02*
X17376539Y-13470060D01*
X17376539Y-13470060D02*
X17386063Y-13460536D01*
X17386063Y-13460536D02*
X17405111Y-13451012D01*
X17405111Y-13451012D02*
X17433682Y-13451012D01*
X17433682Y-13451012D02*
X17452730Y-13460536D01*
X17452730Y-13460536D02*
X17462253Y-13470060D01*
X17462253Y-13470060D02*
X17471777Y-13489108D01*
X17471777Y-13489108D02*
X17471777Y-13546251D01*
X17471777Y-13546251D02*
X17462253Y-13565298D01*
X17462253Y-13565298D02*
X17452730Y-13574822D01*
X17452730Y-13574822D02*
X17433682Y-13584346D01*
X17433682Y-13584346D02*
X17405111Y-13584346D01*
X17586063Y-13584346D02*
X17567015Y-13574822D01*
X17567015Y-13574822D02*
X17557492Y-13555774D01*
X17557492Y-13555774D02*
X17557492Y-13384346D01*
X17738444Y-13574822D02*
X17719396Y-13584346D01*
X17719396Y-13584346D02*
X17681301Y-13584346D01*
X17681301Y-13584346D02*
X17662253Y-13574822D01*
X17662253Y-13574822D02*
X17652730Y-13555774D01*
X17652730Y-13555774D02*
X17652730Y-13479584D01*
X17652730Y-13479584D02*
X17662253Y-13460536D01*
X17662253Y-13460536D02*
X17681301Y-13451012D01*
X17681301Y-13451012D02*
X17719396Y-13451012D01*
X17719396Y-13451012D02*
X17738444Y-13460536D01*
X17738444Y-13460536D02*
X17747968Y-13479584D01*
X17747968Y-13479584D02*
X17747968Y-13498632D01*
X17747968Y-13498632D02*
X17652730Y-13517679D01*
X17824158Y-13574822D02*
X17843206Y-13584346D01*
X17843206Y-13584346D02*
X17881301Y-13584346D01*
X17881301Y-13584346D02*
X17900349Y-13574822D01*
X17900349Y-13574822D02*
X17909873Y-13555774D01*
X17909873Y-13555774D02*
X17909873Y-13546251D01*
X17909873Y-13546251D02*
X17900349Y-13527203D01*
X17900349Y-13527203D02*
X17881301Y-13517679D01*
X17881301Y-13517679D02*
X17852730Y-13517679D01*
X17852730Y-13517679D02*
X17833682Y-13508155D01*
X17833682Y-13508155D02*
X17824158Y-13489108D01*
X17824158Y-13489108D02*
X17824158Y-13479584D01*
X17824158Y-13479584D02*
X17833682Y-13460536D01*
X17833682Y-13460536D02*
X17852730Y-13451012D01*
X17852730Y-13451012D02*
X17881301Y-13451012D01*
X17881301Y-13451012D02*
X17900349Y-13460536D01*
X17976539Y-13660536D02*
X17986063Y-13651012D01*
X17986063Y-13651012D02*
X18005111Y-13622441D01*
X18005111Y-13622441D02*
X18014634Y-13603393D01*
X18014634Y-13603393D02*
X18024158Y-13574822D01*
X18024158Y-13574822D02*
X18033682Y-13527203D01*
X18033682Y-13527203D02*
X18033682Y-13489108D01*
X18033682Y-13489108D02*
X18024158Y-13441489D01*
X18024158Y-13441489D02*
X18014634Y-13412917D01*
X18014634Y-13412917D02*
X18005111Y-13393870D01*
X18005111Y-13393870D02*
X17986063Y-13365298D01*
X17986063Y-13365298D02*
X17976539Y-13355774D01*
D14*
X12986837Y-13815199D02*
X12986837Y-13698525D01*
X12870163Y-13698525D01*
X12870163Y-13815199D01*
X12986837Y-13815199D01*
D11*
X13376539Y-13848346D02*
X13262253Y-13848346D01*
X13319396Y-13848346D02*
X13319396Y-13648346D01*
X13319396Y-13648346D02*
X13300348Y-13676917D01*
X13300348Y-13676917D02*
X13281301Y-13695965D01*
X13281301Y-13695965D02*
X13262253Y-13705489D01*
X13462253Y-13829298D02*
X13471777Y-13838822D01*
X13471777Y-13838822D02*
X13462253Y-13848346D01*
X13462253Y-13848346D02*
X13452729Y-13838822D01*
X13452729Y-13838822D02*
X13462253Y-13829298D01*
X13462253Y-13829298D02*
X13462253Y-13848346D01*
X13643205Y-13648346D02*
X13605110Y-13648346D01*
X13605110Y-13648346D02*
X13586062Y-13657870D01*
X13586062Y-13657870D02*
X13576539Y-13667393D01*
X13576539Y-13667393D02*
X13557491Y-13695965D01*
X13557491Y-13695965D02*
X13547967Y-13734060D01*
X13547967Y-13734060D02*
X13547967Y-13810251D01*
X13547967Y-13810251D02*
X13557491Y-13829298D01*
X13557491Y-13829298D02*
X13567015Y-13838822D01*
X13567015Y-13838822D02*
X13586062Y-13848346D01*
X13586062Y-13848346D02*
X13624158Y-13848346D01*
X13624158Y-13848346D02*
X13643205Y-13838822D01*
X13643205Y-13838822D02*
X13652729Y-13829298D01*
X13652729Y-13829298D02*
X13662253Y-13810251D01*
X13662253Y-13810251D02*
X13662253Y-13762632D01*
X13662253Y-13762632D02*
X13652729Y-13743584D01*
X13652729Y-13743584D02*
X13643205Y-13734060D01*
X13643205Y-13734060D02*
X13624158Y-13724536D01*
X13624158Y-13724536D02*
X13586062Y-13724536D01*
X13586062Y-13724536D02*
X13567015Y-13734060D01*
X13567015Y-13734060D02*
X13557491Y-13743584D01*
X13557491Y-13743584D02*
X13547967Y-13762632D01*
X13843205Y-13648346D02*
X13747967Y-13648346D01*
X13747967Y-13648346D02*
X13738443Y-13743584D01*
X13738443Y-13743584D02*
X13747967Y-13734060D01*
X13747967Y-13734060D02*
X13767015Y-13724536D01*
X13767015Y-13724536D02*
X13814634Y-13724536D01*
X13814634Y-13724536D02*
X13833682Y-13734060D01*
X13833682Y-13734060D02*
X13843205Y-13743584D01*
X13843205Y-13743584D02*
X13852729Y-13762632D01*
X13852729Y-13762632D02*
X13852729Y-13810251D01*
X13852729Y-13810251D02*
X13843205Y-13829298D01*
X13843205Y-13829298D02*
X13833682Y-13838822D01*
X13833682Y-13838822D02*
X13814634Y-13848346D01*
X13814634Y-13848346D02*
X13767015Y-13848346D01*
X13767015Y-13848346D02*
X13747967Y-13838822D01*
X13747967Y-13838822D02*
X13738443Y-13829298D01*
X13976539Y-13648346D02*
X13995586Y-13648346D01*
X13995586Y-13648346D02*
X14014634Y-13657870D01*
X14014634Y-13657870D02*
X14024158Y-13667393D01*
X14024158Y-13667393D02*
X14033682Y-13686441D01*
X14033682Y-13686441D02*
X14043205Y-13724536D01*
X14043205Y-13724536D02*
X14043205Y-13772155D01*
X14043205Y-13772155D02*
X14033682Y-13810251D01*
X14033682Y-13810251D02*
X14024158Y-13829298D01*
X14024158Y-13829298D02*
X14014634Y-13838822D01*
X14014634Y-13838822D02*
X13995586Y-13848346D01*
X13995586Y-13848346D02*
X13976539Y-13848346D01*
X13976539Y-13848346D02*
X13957491Y-13838822D01*
X13957491Y-13838822D02*
X13947967Y-13829298D01*
X13947967Y-13829298D02*
X13938443Y-13810251D01*
X13938443Y-13810251D02*
X13928920Y-13772155D01*
X13928920Y-13772155D02*
X13928920Y-13724536D01*
X13928920Y-13724536D02*
X13938443Y-13686441D01*
X13938443Y-13686441D02*
X13947967Y-13667393D01*
X13947967Y-13667393D02*
X13957491Y-13657870D01*
X13957491Y-13657870D02*
X13976539Y-13648346D01*
X14128920Y-13848346D02*
X14128920Y-13715012D01*
X14128920Y-13734060D02*
X14138443Y-13724536D01*
X14138443Y-13724536D02*
X14157491Y-13715012D01*
X14157491Y-13715012D02*
X14186063Y-13715012D01*
X14186063Y-13715012D02*
X14205110Y-13724536D01*
X14205110Y-13724536D02*
X14214634Y-13743584D01*
X14214634Y-13743584D02*
X14214634Y-13848346D01*
X14214634Y-13743584D02*
X14224158Y-13724536D01*
X14224158Y-13724536D02*
X14243205Y-13715012D01*
X14243205Y-13715012D02*
X14271777Y-13715012D01*
X14271777Y-13715012D02*
X14290824Y-13724536D01*
X14290824Y-13724536D02*
X14300348Y-13743584D01*
X14300348Y-13743584D02*
X14300348Y-13848346D01*
X14395586Y-13848346D02*
X14395586Y-13715012D01*
X14395586Y-13734060D02*
X14405110Y-13724536D01*
X14405110Y-13724536D02*
X14424158Y-13715012D01*
X14424158Y-13715012D02*
X14452729Y-13715012D01*
X14452729Y-13715012D02*
X14471777Y-13724536D01*
X14471777Y-13724536D02*
X14481301Y-13743584D01*
X14481301Y-13743584D02*
X14481301Y-13848346D01*
X14481301Y-13743584D02*
X14490824Y-13724536D01*
X14490824Y-13724536D02*
X14509872Y-13715012D01*
X14509872Y-13715012D02*
X14538443Y-13715012D01*
X14538443Y-13715012D02*
X14557491Y-13724536D01*
X14557491Y-13724536D02*
X14567015Y-13743584D01*
X14567015Y-13743584D02*
X14567015Y-13848346D01*
X14957491Y-13638822D02*
X14786063Y-13895965D01*
X15214634Y-13648346D02*
X15233682Y-13648346D01*
X15233682Y-13648346D02*
X15252729Y-13657870D01*
X15252729Y-13657870D02*
X15262253Y-13667393D01*
X15262253Y-13667393D02*
X15271777Y-13686441D01*
X15271777Y-13686441D02*
X15281301Y-13724536D01*
X15281301Y-13724536D02*
X15281301Y-13772155D01*
X15281301Y-13772155D02*
X15271777Y-13810251D01*
X15271777Y-13810251D02*
X15262253Y-13829298D01*
X15262253Y-13829298D02*
X15252729Y-13838822D01*
X15252729Y-13838822D02*
X15233682Y-13848346D01*
X15233682Y-13848346D02*
X15214634Y-13848346D01*
X15214634Y-13848346D02*
X15195586Y-13838822D01*
X15195586Y-13838822D02*
X15186063Y-13829298D01*
X15186063Y-13829298D02*
X15176539Y-13810251D01*
X15176539Y-13810251D02*
X15167015Y-13772155D01*
X15167015Y-13772155D02*
X15167015Y-13724536D01*
X15167015Y-13724536D02*
X15176539Y-13686441D01*
X15176539Y-13686441D02*
X15186063Y-13667393D01*
X15186063Y-13667393D02*
X15195586Y-13657870D01*
X15195586Y-13657870D02*
X15214634Y-13648346D01*
X15367015Y-13829298D02*
X15376539Y-13838822D01*
X15376539Y-13838822D02*
X15367015Y-13848346D01*
X15367015Y-13848346D02*
X15357491Y-13838822D01*
X15357491Y-13838822D02*
X15367015Y-13829298D01*
X15367015Y-13829298D02*
X15367015Y-13848346D01*
X15500348Y-13648346D02*
X15519396Y-13648346D01*
X15519396Y-13648346D02*
X15538444Y-13657870D01*
X15538444Y-13657870D02*
X15547967Y-13667393D01*
X15547967Y-13667393D02*
X15557491Y-13686441D01*
X15557491Y-13686441D02*
X15567015Y-13724536D01*
X15567015Y-13724536D02*
X15567015Y-13772155D01*
X15567015Y-13772155D02*
X15557491Y-13810251D01*
X15557491Y-13810251D02*
X15547967Y-13829298D01*
X15547967Y-13829298D02*
X15538444Y-13838822D01*
X15538444Y-13838822D02*
X15519396Y-13848346D01*
X15519396Y-13848346D02*
X15500348Y-13848346D01*
X15500348Y-13848346D02*
X15481301Y-13838822D01*
X15481301Y-13838822D02*
X15471777Y-13829298D01*
X15471777Y-13829298D02*
X15462253Y-13810251D01*
X15462253Y-13810251D02*
X15452729Y-13772155D01*
X15452729Y-13772155D02*
X15452729Y-13724536D01*
X15452729Y-13724536D02*
X15462253Y-13686441D01*
X15462253Y-13686441D02*
X15471777Y-13667393D01*
X15471777Y-13667393D02*
X15481301Y-13657870D01*
X15481301Y-13657870D02*
X15500348Y-13648346D01*
X15738444Y-13648346D02*
X15700348Y-13648346D01*
X15700348Y-13648346D02*
X15681301Y-13657870D01*
X15681301Y-13657870D02*
X15671777Y-13667393D01*
X15671777Y-13667393D02*
X15652729Y-13695965D01*
X15652729Y-13695965D02*
X15643206Y-13734060D01*
X15643206Y-13734060D02*
X15643206Y-13810251D01*
X15643206Y-13810251D02*
X15652729Y-13829298D01*
X15652729Y-13829298D02*
X15662253Y-13838822D01*
X15662253Y-13838822D02*
X15681301Y-13848346D01*
X15681301Y-13848346D02*
X15719396Y-13848346D01*
X15719396Y-13848346D02*
X15738444Y-13838822D01*
X15738444Y-13838822D02*
X15747967Y-13829298D01*
X15747967Y-13829298D02*
X15757491Y-13810251D01*
X15757491Y-13810251D02*
X15757491Y-13762632D01*
X15757491Y-13762632D02*
X15747967Y-13743584D01*
X15747967Y-13743584D02*
X15738444Y-13734060D01*
X15738444Y-13734060D02*
X15719396Y-13724536D01*
X15719396Y-13724536D02*
X15681301Y-13724536D01*
X15681301Y-13724536D02*
X15662253Y-13734060D01*
X15662253Y-13734060D02*
X15652729Y-13743584D01*
X15652729Y-13743584D02*
X15643206Y-13762632D01*
X15938444Y-13648346D02*
X15843206Y-13648346D01*
X15843206Y-13648346D02*
X15833682Y-13743584D01*
X15833682Y-13743584D02*
X15843206Y-13734060D01*
X15843206Y-13734060D02*
X15862253Y-13724536D01*
X15862253Y-13724536D02*
X15909872Y-13724536D01*
X15909872Y-13724536D02*
X15928920Y-13734060D01*
X15928920Y-13734060D02*
X15938444Y-13743584D01*
X15938444Y-13743584D02*
X15947967Y-13762632D01*
X15947967Y-13762632D02*
X15947967Y-13810251D01*
X15947967Y-13810251D02*
X15938444Y-13829298D01*
X15938444Y-13829298D02*
X15928920Y-13838822D01*
X15928920Y-13838822D02*
X15909872Y-13848346D01*
X15909872Y-13848346D02*
X15862253Y-13848346D01*
X15862253Y-13848346D02*
X15843206Y-13838822D01*
X15843206Y-13838822D02*
X15833682Y-13829298D01*
X16071777Y-13648346D02*
X16090825Y-13648346D01*
X16090825Y-13648346D02*
X16109872Y-13657870D01*
X16109872Y-13657870D02*
X16119396Y-13667393D01*
X16119396Y-13667393D02*
X16128920Y-13686441D01*
X16128920Y-13686441D02*
X16138444Y-13724536D01*
X16138444Y-13724536D02*
X16138444Y-13772155D01*
X16138444Y-13772155D02*
X16128920Y-13810251D01*
X16128920Y-13810251D02*
X16119396Y-13829298D01*
X16119396Y-13829298D02*
X16109872Y-13838822D01*
X16109872Y-13838822D02*
X16090825Y-13848346D01*
X16090825Y-13848346D02*
X16071777Y-13848346D01*
X16071777Y-13848346D02*
X16052729Y-13838822D01*
X16052729Y-13838822D02*
X16043206Y-13829298D01*
X16043206Y-13829298D02*
X16033682Y-13810251D01*
X16033682Y-13810251D02*
X16024158Y-13772155D01*
X16024158Y-13772155D02*
X16024158Y-13724536D01*
X16024158Y-13724536D02*
X16033682Y-13686441D01*
X16033682Y-13686441D02*
X16043206Y-13667393D01*
X16043206Y-13667393D02*
X16052729Y-13657870D01*
X16052729Y-13657870D02*
X16071777Y-13648346D01*
X16214634Y-13648346D02*
X16214634Y-13686441D01*
X16290825Y-13648346D02*
X16290825Y-13686441D01*
X16586063Y-13924536D02*
X16576539Y-13915012D01*
X16576539Y-13915012D02*
X16557491Y-13886441D01*
X16557491Y-13886441D02*
X16547968Y-13867393D01*
X16547968Y-13867393D02*
X16538444Y-13838822D01*
X16538444Y-13838822D02*
X16528920Y-13791203D01*
X16528920Y-13791203D02*
X16528920Y-13753108D01*
X16528920Y-13753108D02*
X16538444Y-13705489D01*
X16538444Y-13705489D02*
X16547968Y-13676917D01*
X16547968Y-13676917D02*
X16557491Y-13657870D01*
X16557491Y-13657870D02*
X16576539Y-13629298D01*
X16576539Y-13629298D02*
X16586063Y-13619774D01*
X16747968Y-13715012D02*
X16747968Y-13848346D01*
X16700348Y-13638822D02*
X16652729Y-13781679D01*
X16652729Y-13781679D02*
X16776539Y-13781679D01*
X17005111Y-13848346D02*
X17005111Y-13648346D01*
X17090825Y-13848346D02*
X17090825Y-13743584D01*
X17090825Y-13743584D02*
X17081301Y-13724536D01*
X17081301Y-13724536D02*
X17062253Y-13715012D01*
X17062253Y-13715012D02*
X17033682Y-13715012D01*
X17033682Y-13715012D02*
X17014634Y-13724536D01*
X17014634Y-13724536D02*
X17005111Y-13734060D01*
X17214634Y-13848346D02*
X17195587Y-13838822D01*
X17195587Y-13838822D02*
X17186063Y-13829298D01*
X17186063Y-13829298D02*
X17176539Y-13810251D01*
X17176539Y-13810251D02*
X17176539Y-13753108D01*
X17176539Y-13753108D02*
X17186063Y-13734060D01*
X17186063Y-13734060D02*
X17195587Y-13724536D01*
X17195587Y-13724536D02*
X17214634Y-13715012D01*
X17214634Y-13715012D02*
X17243206Y-13715012D01*
X17243206Y-13715012D02*
X17262253Y-13724536D01*
X17262253Y-13724536D02*
X17271777Y-13734060D01*
X17271777Y-13734060D02*
X17281301Y-13753108D01*
X17281301Y-13753108D02*
X17281301Y-13810251D01*
X17281301Y-13810251D02*
X17271777Y-13829298D01*
X17271777Y-13829298D02*
X17262253Y-13838822D01*
X17262253Y-13838822D02*
X17243206Y-13848346D01*
X17243206Y-13848346D02*
X17214634Y-13848346D01*
X17395587Y-13848346D02*
X17376539Y-13838822D01*
X17376539Y-13838822D02*
X17367015Y-13819774D01*
X17367015Y-13819774D02*
X17367015Y-13648346D01*
X17547968Y-13838822D02*
X17528920Y-13848346D01*
X17528920Y-13848346D02*
X17490825Y-13848346D01*
X17490825Y-13848346D02*
X17471777Y-13838822D01*
X17471777Y-13838822D02*
X17462253Y-13819774D01*
X17462253Y-13819774D02*
X17462253Y-13743584D01*
X17462253Y-13743584D02*
X17471777Y-13724536D01*
X17471777Y-13724536D02*
X17490825Y-13715012D01*
X17490825Y-13715012D02*
X17528920Y-13715012D01*
X17528920Y-13715012D02*
X17547968Y-13724536D01*
X17547968Y-13724536D02*
X17557492Y-13743584D01*
X17557492Y-13743584D02*
X17557492Y-13762632D01*
X17557492Y-13762632D02*
X17462253Y-13781679D01*
X17633682Y-13838822D02*
X17652730Y-13848346D01*
X17652730Y-13848346D02*
X17690825Y-13848346D01*
X17690825Y-13848346D02*
X17709873Y-13838822D01*
X17709873Y-13838822D02*
X17719396Y-13819774D01*
X17719396Y-13819774D02*
X17719396Y-13810251D01*
X17719396Y-13810251D02*
X17709873Y-13791203D01*
X17709873Y-13791203D02*
X17690825Y-13781679D01*
X17690825Y-13781679D02*
X17662253Y-13781679D01*
X17662253Y-13781679D02*
X17643206Y-13772155D01*
X17643206Y-13772155D02*
X17633682Y-13753108D01*
X17633682Y-13753108D02*
X17633682Y-13743584D01*
X17633682Y-13743584D02*
X17643206Y-13724536D01*
X17643206Y-13724536D02*
X17662253Y-13715012D01*
X17662253Y-13715012D02*
X17690825Y-13715012D01*
X17690825Y-13715012D02*
X17709873Y-13724536D01*
X17786063Y-13924536D02*
X17795587Y-13915012D01*
X17795587Y-13915012D02*
X17814634Y-13886441D01*
X17814634Y-13886441D02*
X17824158Y-13867393D01*
X17824158Y-13867393D02*
X17833682Y-13838822D01*
X17833682Y-13838822D02*
X17843206Y-13791203D01*
X17843206Y-13791203D02*
X17843206Y-13753108D01*
X17843206Y-13753108D02*
X17833682Y-13705489D01*
X17833682Y-13705489D02*
X17824158Y-13676917D01*
X17824158Y-13676917D02*
X17814634Y-13657870D01*
X17814634Y-13657870D02*
X17795587Y-13629298D01*
X17795587Y-13629298D02*
X17786063Y-13619774D01*
M02*
