M48
; DRILL file {KiCad 7.0.5} date Thu Jun  8 00:56:17 2023
; FORMAT={-:-/ absolute / inch / decimal}
; #@! TF.CreationDate,2023-06-08T00:56:17-04:00
; #@! TF.GenerationSoftware,Kicad,Pcbnew,7.0.5
; #@! TF.FileFunction,Plated,1,2,PTH
FMAT,2
INCH
; #@! TA.AperFunction,Plated,PTH,ViaDrill
T1C0.0130
; #@! TA.AperFunction,Plated,PTH,ComponentDrill
T2C0.0315
; #@! TA.AperFunction,Plated,PTH,ComponentDrill
T3C0.0394
; #@! TA.AperFunction,Plated,PTH,ComponentDrill
T4C0.0650
%
G90
G05
T1
X5.2031Y-3.6692
X5.2031Y-3.748
X5.2031Y-3.8267
X5.2031Y-4.0629
X5.2031Y-4.1417
X5.2031Y-4.2204
X5.2819Y-3.433
X5.2819Y-3.5118
X5.2819Y-3.5905
X5.2819Y-3.6692
X5.2819Y-3.748
X5.2819Y-3.8267
X5.2819Y-4.0629
X5.2819Y-4.1417
X5.2819Y-4.2204
X5.2819Y-4.2992
X5.2819Y-4.3779
X5.2819Y-4.4566
X5.3606Y-3.433
X5.3606Y-3.5118
X5.3606Y-4.1417
X5.3606Y-4.2204
X5.3606Y-4.2992
X5.3606Y-4.3779
X5.3606Y-4.4566
X5.4394Y-3.3543
X5.4394Y-3.433
X5.4394Y-3.5118
X5.4394Y-4.3779
X5.4394Y-4.4566
X5.4394Y-4.5354
X5.5181Y-3.3543
X5.5181Y-3.433
X5.5181Y-4.4566
X5.5181Y-4.5354
X5.5969Y-3.3543
X5.5969Y-3.433
X5.5969Y-3.5118
X5.5969Y-3.5905
X5.5969Y-3.6692
X5.5969Y-3.748
X5.5969Y-3.8267
X5.6756Y-3.2362
X5.6756Y-3.5118
X5.6756Y-3.5905
X5.6756Y-3.6692
X5.6756Y-3.748
X5.6756Y-3.8267
X5.6756Y-4.0433
X5.6756Y-4.122
X5.6756Y-4.2007
X5.6756Y-4.2795
X5.6756Y-4.6535
X5.7543Y-3.2362
X5.7543Y-3.5118
X5.7543Y-3.5905
X5.7543Y-3.6692
X5.7543Y-3.748
X5.7543Y-3.8267
X5.7543Y-4.0433
X5.7543Y-4.122
X5.7543Y-4.2007
X5.7543Y-4.2795
X5.7543Y-4.6535
X5.8331Y-3.1574
X5.8331Y-3.2362
X5.8331Y-3.5118
X5.8331Y-3.5905
X5.8331Y-4.2795
X5.8331Y-4.3582
X5.8331Y-4.6535
X5.8331Y-4.7322
X5.9118Y-3.2362
X5.9118Y-3.5118
X5.9118Y-3.5905
X5.9118Y-4.2795
X5.9118Y-4.3582
X5.9118Y-4.6535
X5.9906Y-3.1574
X5.9906Y-3.2362
X5.9906Y-3.5118
X5.9906Y-3.5905
X5.9906Y-4.2795
X5.9906Y-4.3582
X5.9906Y-4.6535
X5.9906Y-4.7322
X6.0693Y-3.2362
X6.0693Y-3.5118
X6.0693Y-3.5905
X6.0693Y-3.6692
X6.0693Y-3.748
X6.0693Y-3.807
X6.0693Y-3.8858
X6.0693Y-3.9645
X6.0693Y-4.0433
X6.0693Y-4.122
X6.0693Y-4.2007
X6.0693Y-4.2795
X6.0693Y-4.3582
X6.0693Y-4.6535
X6.148Y-3.2362
X6.148Y-3.5118
X6.148Y-3.5905
X6.148Y-3.6692
X6.148Y-3.748
X6.148Y-4.122
X6.148Y-4.2007
X6.148Y-4.2795
X6.148Y-4.3582
X6.148Y-4.6535
X6.2268Y-3.5118
X6.2268Y-3.5905
X6.2268Y-3.6692
X6.2268Y-3.748
X6.2268Y-4.122
X6.2268Y-4.2007
X6.2268Y-4.2795
X6.2268Y-4.3582
X6.3055Y-3.3543
X6.3055Y-3.433
X6.3055Y-3.5118
X6.3055Y-3.5905
X6.3055Y-3.6692
X6.3055Y-3.748
X6.3055Y-4.122
X6.3055Y-4.2007
X6.3055Y-4.2795
X6.3055Y-4.3582
X6.3055Y-4.4566
X6.3055Y-4.5354
X6.3843Y-3.3543
X6.3843Y-3.433
X6.3843Y-3.5118
X6.3843Y-3.5905
X6.3843Y-3.6692
X6.3843Y-3.748
X6.3843Y-4.0433
X6.3843Y-4.122
X6.3843Y-4.2007
X6.3843Y-4.2795
X6.3843Y-4.3779
X6.3843Y-4.4566
X6.3843Y-4.5354
X6.463Y-3.433
X6.463Y-3.5118
X6.463Y-3.5905
X6.463Y-3.6692
X6.463Y-3.748
X6.463Y-4.0433
X6.463Y-4.122
X6.463Y-4.2007
X6.463Y-4.2992
X6.463Y-4.3779
X6.463Y-4.4566
X6.5417Y-3.433
X6.5417Y-3.5118
X6.5417Y-3.5905
X6.5417Y-3.6692
X6.5417Y-3.748
X6.5417Y-4.0433
X6.5417Y-4.122
X6.5417Y-4.2007
X6.6205Y-3.6692
X6.6205Y-3.748
X6.6205Y-4.0433
X6.6205Y-4.122
X6.6205Y-4.2007
T2
X5.215Y-3.9015
X5.215Y-3.9803
X6.2268Y-3.8403
X6.2268Y-3.9403
X6.2268Y-4.0403
X6.6165Y-3.9018
X6.6165Y-3.9805
T3
X5.6618Y-3.3042
X5.6618Y-3.4042
X5.6618Y-4.4781
X5.6618Y-4.5781
X5.7618Y-3.3042
X5.7618Y-3.4042
X5.7618Y-4.4781
X5.7618Y-4.5781
X5.8618Y-3.3042
X5.8618Y-3.4042
X5.8618Y-4.4781
X5.8618Y-4.5781
X5.9618Y-3.3042
X5.9618Y-3.4042
X5.9618Y-4.4781
X5.9618Y-4.5781
X6.0618Y-3.3042
X6.0618Y-3.4042
X6.0618Y-4.4781
X6.0618Y-4.5781
X6.1618Y-3.3042
X6.1618Y-3.4042
X6.1618Y-4.4781
X6.1618Y-4.5781
T4
X5.9118Y-3.7088
X5.9118Y-3.8529
X5.9118Y-4.0289
X5.9118Y-4.173
T0
M30
