%TF.GenerationSoftware,KiCad,Pcbnew,7.0.5*%
%TF.CreationDate,2023-06-08T00:56:16-04:00*%
%TF.ProjectId,INDICATOR,494e4449-4341-4544-9f52-2e6b69636164,rev?*%
%TF.SameCoordinates,Original*%
%TF.FileFunction,Soldermask,Top*%
%TF.FilePolarity,Negative*%
%FSLAX46Y46*%
G04 Gerber Fmt 4.6, Leading zero omitted, Abs format (unit mm)*
G04 Created by KiCad (PCBNEW 7.0.5) date 2023-06-08 00:56:16*
%MOMM*%
%LPD*%
G01*
G04 APERTURE LIST*
G04 Aperture macros list*
%AMRoundRect*
0 Rectangle with rounded corners*
0 $1 Rounding radius*
0 $2 $3 $4 $5 $6 $7 $8 $9 X,Y pos of 4 corners*
0 Add a 4 corners polygon primitive as box body*
4,1,4,$2,$3,$4,$5,$6,$7,$8,$9,$2,$3,0*
0 Add four circle primitives for the rounded corners*
1,1,$1+$1,$2,$3*
1,1,$1+$1,$4,$5*
1,1,$1+$1,$6,$7*
1,1,$1+$1,$8,$9*
0 Add four rect primitives between the rounded corners*
20,1,$1+$1,$2,$3,$4,$5,0*
20,1,$1+$1,$4,$5,$6,$7,0*
20,1,$1+$1,$6,$7,$8,$9,0*
20,1,$1+$1,$8,$9,$2,$3,0*%
G04 Aperture macros list end*
%ADD10C,2.500000*%
%ADD11R,1.350000X1.350000*%
%ADD12O,1.350000X1.350000*%
%ADD13R,1.700000X1.700000*%
%ADD14O,1.700000X1.700000*%
%ADD15RoundRect,0.237500X-0.237500X0.250000X-0.237500X-0.250000X0.237500X-0.250000X0.237500X0.250000X0*%
%ADD16RoundRect,0.237500X0.237500X-0.250000X0.237500X0.250000X-0.237500X0.250000X-0.237500X-0.250000X0*%
%ADD17RoundRect,0.150000X0.625000X-0.150000X0.625000X0.150000X-0.625000X0.150000X-0.625000X-0.150000X0*%
%ADD18RoundRect,0.250000X0.650000X-0.350000X0.650000X0.350000X-0.650000X0.350000X-0.650000X-0.350000X0*%
%ADD19RoundRect,0.250000X-0.925000X0.875000X-0.925000X-0.875000X0.925000X-0.875000X0.925000X0.875000X0*%
%ADD20RoundRect,0.150000X0.150000X-0.587500X0.150000X0.587500X-0.150000X0.587500X-0.150000X-0.587500X0*%
G04 APERTURE END LIST*
D10*
%TO.C,U1*%
X150160000Y-94203621D03*
X150160000Y-97863621D03*
X150160000Y-102333621D03*
X150160000Y-105993621D03*
%TD*%
D11*
%TO.C,J3*%
X168060000Y-101104610D03*
D12*
X168060000Y-99104610D03*
%TD*%
D13*
%TO.C,SW1*%
X158160000Y-102623621D03*
D14*
X158160000Y-100083621D03*
X158160000Y-97543621D03*
%TD*%
D15*
%TO.C,R2*%
X139130000Y-92186121D03*
X139130000Y-94011121D03*
%TD*%
D13*
%TO.C,J1*%
X143810000Y-86465599D03*
D14*
X143810000Y-83925599D03*
X146350000Y-86465599D03*
X146350000Y-83925599D03*
X148890000Y-86465599D03*
X148890000Y-83925599D03*
X151430000Y-86465599D03*
X151430000Y-83925599D03*
X153970000Y-86465599D03*
X153970000Y-83925599D03*
X156510000Y-86465599D03*
X156510000Y-83925599D03*
%TD*%
D13*
%TO.C,J2*%
X156510000Y-113743621D03*
D14*
X156510000Y-116283621D03*
X153970000Y-113743621D03*
X153970000Y-116283621D03*
X151430000Y-113743621D03*
X151430000Y-116283621D03*
X148890000Y-113743621D03*
X148890000Y-116283621D03*
X146350000Y-113743621D03*
X146350000Y-116283621D03*
X143810000Y-113743621D03*
X143810000Y-116283621D03*
%TD*%
D16*
%TO.C,R1*%
X138585000Y-108481121D03*
X138585000Y-106656121D03*
%TD*%
D11*
%TO.C,J4*%
X132460000Y-99098621D03*
D12*
X132460000Y-101098621D03*
%TD*%
D17*
%TO.C,J6*%
X138585000Y-102598621D03*
X138585000Y-101598621D03*
X138585000Y-100598621D03*
X138585000Y-99598621D03*
X138585000Y-98598621D03*
X138585000Y-97598621D03*
D18*
X136060000Y-103898621D03*
X136060000Y-96298621D03*
%TD*%
D19*
%TO.C,C1*%
X164610000Y-99024610D03*
X164610000Y-104124610D03*
%TD*%
D20*
%TO.C,Q1*%
X135410000Y-93998621D03*
X137310000Y-93998621D03*
X136360000Y-92123621D03*
%TD*%
M02*
