%TF.GenerationSoftware,KiCad,Pcbnew,7.0.5*%
%TF.CreationDate,2023-06-08T01:46:04-04:00*%
%TF.ProjectId,TOPBOARD,544f5042-4f41-4524-942e-6b696361645f,rev?*%
%TF.SameCoordinates,Original*%
%TF.FileFunction,Drillmap*%
%TF.FilePolarity,Positive*%
%FSLAX45Y45*%
G04 Gerber Fmt 4.5, Leading zero omitted, Abs format (unit mm)*
G04 Created by KiCad (PCBNEW 7.0.5) date 2023-06-08 01:46:04*
%MOMM*%
%LPD*%
G01*
G04 APERTURE LIST*
%ADD10C,0.100000*%
%ADD11C,0.200000*%
G04 APERTURE END LIST*
D10*
X13866000Y-8319862D02*
X15066000Y-8319862D01*
X15066000Y-9019862D01*
X13866000Y-9019862D01*
X13866000Y-8319862D01*
D11*
X14121777Y-9336346D02*
X14121777Y-9136346D01*
X14121777Y-9136346D02*
X14169396Y-9136346D01*
X14169396Y-9136346D02*
X14197967Y-9145870D01*
X14197967Y-9145870D02*
X14217015Y-9164917D01*
X14217015Y-9164917D02*
X14226539Y-9183965D01*
X14226539Y-9183965D02*
X14236062Y-9222060D01*
X14236062Y-9222060D02*
X14236062Y-9250632D01*
X14236062Y-9250632D02*
X14226539Y-9288727D01*
X14226539Y-9288727D02*
X14217015Y-9307774D01*
X14217015Y-9307774D02*
X14197967Y-9326822D01*
X14197967Y-9326822D02*
X14169396Y-9336346D01*
X14169396Y-9336346D02*
X14121777Y-9336346D01*
X14321777Y-9336346D02*
X14321777Y-9203013D01*
X14321777Y-9241108D02*
X14331301Y-9222060D01*
X14331301Y-9222060D02*
X14340824Y-9212536D01*
X14340824Y-9212536D02*
X14359872Y-9203013D01*
X14359872Y-9203013D02*
X14378920Y-9203013D01*
X14445586Y-9336346D02*
X14445586Y-9203013D01*
X14445586Y-9136346D02*
X14436062Y-9145870D01*
X14436062Y-9145870D02*
X14445586Y-9155394D01*
X14445586Y-9155394D02*
X14455110Y-9145870D01*
X14455110Y-9145870D02*
X14445586Y-9136346D01*
X14445586Y-9136346D02*
X14445586Y-9155394D01*
X14569396Y-9336346D02*
X14550348Y-9326822D01*
X14550348Y-9326822D02*
X14540824Y-9307774D01*
X14540824Y-9307774D02*
X14540824Y-9136346D01*
X14674158Y-9336346D02*
X14655110Y-9326822D01*
X14655110Y-9326822D02*
X14645586Y-9307774D01*
X14645586Y-9307774D02*
X14645586Y-9136346D01*
X14902729Y-9336346D02*
X14902729Y-9136346D01*
X14902729Y-9136346D02*
X14969396Y-9279203D01*
X14969396Y-9279203D02*
X15036062Y-9136346D01*
X15036062Y-9136346D02*
X15036062Y-9336346D01*
X15217015Y-9336346D02*
X15217015Y-9231584D01*
X15217015Y-9231584D02*
X15207491Y-9212536D01*
X15207491Y-9212536D02*
X15188443Y-9203013D01*
X15188443Y-9203013D02*
X15150348Y-9203013D01*
X15150348Y-9203013D02*
X15131301Y-9212536D01*
X15217015Y-9326822D02*
X15197967Y-9336346D01*
X15197967Y-9336346D02*
X15150348Y-9336346D01*
X15150348Y-9336346D02*
X15131301Y-9326822D01*
X15131301Y-9326822D02*
X15121777Y-9307774D01*
X15121777Y-9307774D02*
X15121777Y-9288727D01*
X15121777Y-9288727D02*
X15131301Y-9269679D01*
X15131301Y-9269679D02*
X15150348Y-9260155D01*
X15150348Y-9260155D02*
X15197967Y-9260155D01*
X15197967Y-9260155D02*
X15217015Y-9250632D01*
X15312253Y-9203013D02*
X15312253Y-9403013D01*
X15312253Y-9212536D02*
X15331301Y-9203013D01*
X15331301Y-9203013D02*
X15369396Y-9203013D01*
X15369396Y-9203013D02*
X15388443Y-9212536D01*
X15388443Y-9212536D02*
X15397967Y-9222060D01*
X15397967Y-9222060D02*
X15407491Y-9241108D01*
X15407491Y-9241108D02*
X15407491Y-9298251D01*
X15407491Y-9298251D02*
X15397967Y-9317298D01*
X15397967Y-9317298D02*
X15388443Y-9326822D01*
X15388443Y-9326822D02*
X15369396Y-9336346D01*
X15369396Y-9336346D02*
X15331301Y-9336346D01*
X15331301Y-9336346D02*
X15312253Y-9326822D01*
X15493205Y-9317298D02*
X15502729Y-9326822D01*
X15502729Y-9326822D02*
X15493205Y-9336346D01*
X15493205Y-9336346D02*
X15483682Y-9326822D01*
X15483682Y-9326822D02*
X15493205Y-9317298D01*
X15493205Y-9317298D02*
X15493205Y-9336346D01*
X15493205Y-9212536D02*
X15502729Y-9222060D01*
X15502729Y-9222060D02*
X15493205Y-9231584D01*
X15493205Y-9231584D02*
X15483682Y-9222060D01*
X15483682Y-9222060D02*
X15493205Y-9212536D01*
X15493205Y-9212536D02*
X15493205Y-9231584D01*
M02*
