%TF.GenerationSoftware,KiCad,Pcbnew,7.0.5*%
%TF.CreationDate,2023-06-19T10:59:58-04:00*%
%TF.ProjectId,DATA_STORAGE,44415441-5f53-4544-9f52-4147452e6b69,rev?*%
%TF.SameCoordinates,Original*%
%TF.FileFunction,Legend,Bot*%
%TF.FilePolarity,Positive*%
%FSLAX46Y46*%
G04 Gerber Fmt 4.6, Leading zero omitted, Abs format (unit mm)*
G04 Created by KiCad (PCBNEW 7.0.5) date 2023-06-19 10:59:58*
%MOMM*%
%LPD*%
G01*
G04 APERTURE LIST*
%ADD10C,0.254000*%
%ADD11C,0.200000*%
%ADD12C,0.120000*%
G04 APERTURE END LIST*
D10*
%TO.C,Q2*%
X156590952Y-98953891D02*
X156711904Y-98893415D01*
X156711904Y-98893415D02*
X156832857Y-98772463D01*
X156832857Y-98772463D02*
X157014285Y-98591034D01*
X157014285Y-98591034D02*
X157135238Y-98530558D01*
X157135238Y-98530558D02*
X157256190Y-98530558D01*
X157195714Y-98832939D02*
X157316666Y-98772463D01*
X157316666Y-98772463D02*
X157437619Y-98651510D01*
X157437619Y-98651510D02*
X157498095Y-98409605D01*
X157498095Y-98409605D02*
X157498095Y-97986272D01*
X157498095Y-97986272D02*
X157437619Y-97744367D01*
X157437619Y-97744367D02*
X157316666Y-97623415D01*
X157316666Y-97623415D02*
X157195714Y-97562939D01*
X157195714Y-97562939D02*
X156953809Y-97562939D01*
X156953809Y-97562939D02*
X156832857Y-97623415D01*
X156832857Y-97623415D02*
X156711904Y-97744367D01*
X156711904Y-97744367D02*
X156651428Y-97986272D01*
X156651428Y-97986272D02*
X156651428Y-98409605D01*
X156651428Y-98409605D02*
X156711904Y-98651510D01*
X156711904Y-98651510D02*
X156832857Y-98772463D01*
X156832857Y-98772463D02*
X156953809Y-98832939D01*
X156953809Y-98832939D02*
X157195714Y-98832939D01*
X156167619Y-97683891D02*
X156107143Y-97623415D01*
X156107143Y-97623415D02*
X155986190Y-97562939D01*
X155986190Y-97562939D02*
X155683809Y-97562939D01*
X155683809Y-97562939D02*
X155562857Y-97623415D01*
X155562857Y-97623415D02*
X155502381Y-97683891D01*
X155502381Y-97683891D02*
X155441904Y-97804843D01*
X155441904Y-97804843D02*
X155441904Y-97925796D01*
X155441904Y-97925796D02*
X155502381Y-98107224D01*
X155502381Y-98107224D02*
X156228095Y-98832939D01*
X156228095Y-98832939D02*
X155441904Y-98832939D01*
D11*
%TO.C,Q1*%
X158172000Y-98833621D02*
X159272000Y-98833621D01*
X159622000Y-95848621D02*
X159622000Y-98748621D01*
X159622000Y-98748621D02*
X159922000Y-98748621D01*
X159922000Y-95848621D02*
X159622000Y-95848621D01*
X159922000Y-98748621D02*
X159922000Y-95848621D01*
D12*
%TO.C,R3*%
X165477500Y-97593345D02*
X165477500Y-97083897D01*
X166522500Y-97593345D02*
X166522500Y-97083897D01*
D11*
%TO.C,Q2*%
X155395000Y-99238621D02*
X155870000Y-99238621D01*
X156220000Y-97458621D02*
X156220000Y-99058621D01*
X156220000Y-99058621D02*
X156720000Y-99058621D01*
X156720000Y-97458621D02*
X156220000Y-97458621D01*
X156720000Y-99058621D02*
X156720000Y-97458621D01*
%TD*%
M02*
