%TF.GenerationSoftware,KiCad,Pcbnew,7.0.5*%
%TF.CreationDate,2023-06-19T10:59:58-04:00*%
%TF.ProjectId,DATA_STORAGE,44415441-5f53-4544-9f52-4147452e6b69,rev?*%
%TF.SameCoordinates,Original*%
%TF.FileFunction,Copper,L1,Top*%
%TF.FilePolarity,Positive*%
%FSLAX46Y46*%
G04 Gerber Fmt 4.6, Leading zero omitted, Abs format (unit mm)*
G04 Created by KiCad (PCBNEW 7.0.5) date 2023-06-19 10:59:58*
%MOMM*%
%LPD*%
G01*
G04 APERTURE LIST*
G04 Aperture macros list*
%AMRoundRect*
0 Rectangle with rounded corners*
0 $1 Rounding radius*
0 $2 $3 $4 $5 $6 $7 $8 $9 X,Y pos of 4 corners*
0 Add a 4 corners polygon primitive as box body*
4,1,4,$2,$3,$4,$5,$6,$7,$8,$9,$2,$3,0*
0 Add four circle primitives for the rounded corners*
1,1,$1+$1,$2,$3*
1,1,$1+$1,$4,$5*
1,1,$1+$1,$6,$7*
1,1,$1+$1,$8,$9*
0 Add four rect primitives between the rounded corners*
20,1,$1+$1,$2,$3,$4,$5,0*
20,1,$1+$1,$4,$5,$6,$7,0*
20,1,$1+$1,$6,$7,$8,$9,0*
20,1,$1+$1,$8,$9,$2,$3,0*%
G04 Aperture macros list end*
%TA.AperFunction,SMDPad,CuDef*%
%ADD10RoundRect,0.250000X0.325000X0.450000X-0.325000X0.450000X-0.325000X-0.450000X0.325000X-0.450000X0*%
%TD*%
%TA.AperFunction,SMDPad,CuDef*%
%ADD11RoundRect,0.237500X0.237500X-0.250000X0.237500X0.250000X-0.237500X0.250000X-0.237500X-0.250000X0*%
%TD*%
%TA.AperFunction,SMDPad,CuDef*%
%ADD12RoundRect,0.237500X0.237500X-0.300000X0.237500X0.300000X-0.237500X0.300000X-0.237500X-0.300000X0*%
%TD*%
%TA.AperFunction,ComponentPad*%
%ADD13R,1.700000X1.700000*%
%TD*%
%TA.AperFunction,ComponentPad*%
%ADD14O,1.700000X1.700000*%
%TD*%
%TA.AperFunction,SMDPad,CuDef*%
%ADD15R,1.500000X0.800000*%
%TD*%
%TA.AperFunction,SMDPad,CuDef*%
%ADD16R,1.400000X1.800000*%
%TD*%
%TA.AperFunction,SMDPad,CuDef*%
%ADD17R,1.900000X1.400000*%
%TD*%
%TA.AperFunction,SMDPad,CuDef*%
%ADD18RoundRect,0.237500X-0.237500X0.250000X-0.237500X-0.250000X0.237500X-0.250000X0.237500X0.250000X0*%
%TD*%
%TA.AperFunction,SMDPad,CuDef*%
%ADD19RoundRect,0.150000X-0.625000X-0.150000X0.625000X-0.150000X0.625000X0.150000X-0.625000X0.150000X0*%
%TD*%
%TA.AperFunction,SMDPad,CuDef*%
%ADD20RoundRect,0.237500X0.300000X0.237500X-0.300000X0.237500X-0.300000X-0.237500X0.300000X-0.237500X0*%
%TD*%
%TA.AperFunction,ViaPad*%
%ADD21C,0.660400*%
%TD*%
%TA.AperFunction,ViaPad*%
%ADD22C,0.812800*%
%TD*%
%TA.AperFunction,Conductor*%
%ADD23C,0.508000*%
%TD*%
%TA.AperFunction,Conductor*%
%ADD24C,0.762000*%
%TD*%
%TA.AperFunction,Conductor*%
%ADD25C,0.254000*%
%TD*%
%TA.AperFunction,Conductor*%
%ADD26C,0.152400*%
%TD*%
%TA.AperFunction,Conductor*%
%ADD27C,0.381000*%
%TD*%
G04 APERTURE END LIST*
D10*
%TO.P,C1,1*%
%TO.N,VCC*%
X146342500Y-89868621D03*
%TO.P,C1,2*%
%TO.N,GND*%
X144292500Y-89868621D03*
%TD*%
D11*
%TO.P,R6,1*%
%TO.N,/RXD*%
X136670000Y-96751121D03*
%TO.P,R6,2*%
%TO.N,VCC*%
X136670000Y-94926121D03*
%TD*%
D12*
%TO.P,C2,1*%
%TO.N,VCC*%
X159820000Y-91541121D03*
%TO.P,C2,2*%
%TO.N,GND*%
X159820000Y-89816121D03*
%TD*%
D13*
%TO.P,J1,1,Pin_1*%
%TO.N,/VBAT*%
X143810000Y-86465599D03*
D14*
%TO.P,J1,2,Pin_2*%
%TO.N,/~{EN}*%
X143810000Y-83925599D03*
%TO.P,J1,3,Pin_3*%
%TO.N,VCC*%
X146350000Y-86465599D03*
%TO.P,J1,4,Pin_4*%
%TO.N,/VBAT_OK*%
X146350000Y-83925599D03*
%TO.P,J1,5,Pin_5*%
%TO.N,/~{I2C_RESET}*%
X148890000Y-86465599D03*
%TO.P,J1,6,Pin_6*%
%TO.N,+5V*%
X148890000Y-83925599D03*
%TO.P,J1,7,Pin_7*%
%TO.N,/RXD*%
X151430000Y-86465599D03*
%TO.P,J1,8,Pin_8*%
%TO.N,GND*%
X151430000Y-83925599D03*
%TO.P,J1,9,Pin_9*%
%TO.N,/TXD*%
X153970000Y-86465599D03*
%TO.P,J1,10,Pin_10*%
%TO.N,GND*%
X153970000Y-83925599D03*
%TO.P,J1,11,Pin_11*%
%TO.N,/SDA*%
X156510000Y-86465599D03*
%TO.P,J1,12,Pin_12*%
%TO.N,/SCL*%
X156510000Y-83925599D03*
%TD*%
D15*
%TO.P,J3,1,DAT2*%
%TO.N,unconnected-(J3-DAT2-Pad1)*%
X163510000Y-98179610D03*
%TO.P,J3,2,CD/DAT3*%
%TO.N,/A1*%
X163310000Y-99279610D03*
%TO.P,J3,3,CMD*%
%TO.N,/MOSI*%
X163510000Y-100379610D03*
%TO.P,J3,4,VDD*%
%TO.N,Net-(J3-VDD)*%
X163710000Y-101479610D03*
%TO.P,J3,5,CLK*%
%TO.N,/SCK*%
X163510000Y-102579610D03*
%TO.P,J3,6,VSS*%
%TO.N,GND*%
X163710000Y-103679610D03*
%TO.P,J3,7,DAT0*%
%TO.N,/MISO*%
X163510000Y-104779610D03*
%TO.P,J3,8,DAT1*%
%TO.N,unconnected-(J3-DAT1-Pad8)*%
X163510000Y-105879610D03*
D16*
%TO.P,J3,9,CARD_DETECT_1*%
%TO.N,/CARD_DETECT*%
X153210000Y-104079610D03*
%TO.P,J3,10,CARD_DETECT_2*%
%TO.N,unconnected-(J3-CARD_DETECT_2-Pad10)*%
X153210000Y-99379610D03*
D17*
%TO.P,J3,11,GND_1*%
%TO.N,GND*%
X167360000Y-93529610D03*
%TO.P,J3,12,GND_2*%
X166360000Y-106679610D03*
%TD*%
D18*
%TO.P,R1,1*%
%TO.N,/CARD_DETECT*%
X149960000Y-104086121D03*
%TO.P,R1,2*%
%TO.N,VCC*%
X149960000Y-105911121D03*
%TD*%
D13*
%TO.P,J2,1,Pin_1*%
%TO.N,/D11*%
X156510000Y-113743621D03*
D14*
%TO.P,J2,2,Pin_2*%
%TO.N,/D13*%
X156510000Y-116283621D03*
%TO.P,J2,3,Pin_3*%
%TO.N,/A1*%
X153970000Y-113743621D03*
%TO.P,J2,4,Pin_4*%
%TO.N,/D6*%
X153970000Y-116283621D03*
%TO.P,J2,5,Pin_5*%
%TO.N,/SCK*%
X151430000Y-113743621D03*
%TO.P,J2,6,Pin_6*%
%TO.N,/A5*%
X151430000Y-116283621D03*
%TO.P,J2,7,Pin_7*%
%TO.N,/MOSI*%
X148890000Y-113743621D03*
%TO.P,J2,8,Pin_8*%
%TO.N,/~{CS}*%
X148890000Y-116283621D03*
%TO.P,J2,9,Pin_9*%
%TO.N,/MISO*%
X146350000Y-113743621D03*
%TO.P,J2,10,Pin_10*%
%TO.N,GND*%
X146350000Y-116283621D03*
%TO.P,J2,11,Pin_11*%
%TO.N,/LED2*%
X143810000Y-113743621D03*
%TO.P,J2,12,Pin_12*%
%TO.N,GND*%
X143810000Y-116283621D03*
%TD*%
D19*
%TO.P,U1,1,~{CS}*%
%TO.N,/RXD*%
X138755000Y-96753621D03*
%TO.P,U1,2,SO*%
%TO.N,/MISO*%
X138755000Y-98023621D03*
%TO.P,U1,3,~{WP}*%
%TO.N,/~{WP}*%
X138755000Y-99293621D03*
%TO.P,U1,4,GND*%
%TO.N,GND*%
X138755000Y-100563621D03*
%TO.P,U1,5,SI*%
%TO.N,/MOSI*%
X144105000Y-100563621D03*
%TO.P,U1,6,SCK*%
%TO.N,/SCK*%
X144105000Y-99293621D03*
%TO.P,U1,7,~{HOLD}*%
%TO.N,/~{HL}*%
X144105000Y-98023621D03*
%TO.P,U1,8,VDD*%
%TO.N,VCC*%
X144105000Y-96753621D03*
%TD*%
D20*
%TO.P,C5,1*%
%TO.N,GND*%
X145832500Y-94918621D03*
%TO.P,C5,2*%
%TO.N,VCC*%
X144107500Y-94918621D03*
%TD*%
D11*
%TO.P,R5,1*%
%TO.N,/~{HL}*%
X146250000Y-98381121D03*
%TO.P,R5,2*%
%TO.N,VCC*%
X146250000Y-96556121D03*
%TD*%
%TO.P,R4,1*%
%TO.N,/~{WP}*%
X135120000Y-96751121D03*
%TO.P,R4,2*%
%TO.N,VCC*%
X135120000Y-94926121D03*
%TD*%
D21*
%TO.N,GND*%
X137660000Y-93198621D03*
X157660000Y-110698621D03*
X165160000Y-93198621D03*
X165160000Y-110698621D03*
X160160000Y-113198621D03*
X135160000Y-110698621D03*
X135160000Y-105698621D03*
X140160000Y-88198621D03*
X150160000Y-95698621D03*
X140160000Y-110698621D03*
X162660000Y-90698621D03*
X147660000Y-98198621D03*
X137660000Y-113198621D03*
X162660000Y-108198621D03*
X155160000Y-93198621D03*
X132660000Y-98198621D03*
X147660000Y-95698621D03*
X165160000Y-113198621D03*
X132660000Y-100698621D03*
X140160000Y-108198621D03*
X162660000Y-113198621D03*
X147660000Y-103198621D03*
X162660000Y-88198621D03*
X165160000Y-90698621D03*
X135160000Y-103198621D03*
X132660000Y-105698621D03*
X165160000Y-108198621D03*
X160160000Y-110698621D03*
X167660000Y-103198621D03*
X132660000Y-103198621D03*
X150160000Y-100698621D03*
X152660000Y-95698621D03*
X152660000Y-93198621D03*
X140160000Y-113198621D03*
X132660000Y-95698621D03*
X160160000Y-85698621D03*
X150160000Y-98198621D03*
X142660000Y-90698621D03*
X150160000Y-90698621D03*
X135160000Y-93198621D03*
X165160000Y-88198621D03*
X140160000Y-90698621D03*
X135160000Y-108198621D03*
X157660000Y-100698621D03*
X167660000Y-100698621D03*
X135160000Y-90698621D03*
X160160000Y-115698621D03*
X137660000Y-88198621D03*
X140160000Y-103198621D03*
X162660000Y-85698621D03*
X150160000Y-93198621D03*
X142660000Y-95698621D03*
X140160000Y-85698621D03*
X142660000Y-88198621D03*
X132660000Y-93198621D03*
X137660000Y-108198621D03*
X137660000Y-103198621D03*
X167660000Y-95698621D03*
X147660000Y-93198621D03*
X140160000Y-100698621D03*
X137660000Y-90698621D03*
X147660000Y-90698621D03*
X137660000Y-110698621D03*
X142660000Y-98198621D03*
X167660000Y-98198621D03*
X162660000Y-110698621D03*
X160160000Y-88198621D03*
%TO.N,VCC*%
X162790000Y-93968621D03*
%TO.N,/A1*%
X157920000Y-107208621D03*
%TO.N,/MOSI*%
X163510000Y-100379610D03*
%TO.N,/MISO*%
X146370000Y-110968621D03*
%TO.N,/SCK*%
X163510000Y-102579610D03*
%TO.N,/RXD*%
X138755000Y-96753621D03*
D22*
%TO.N,Net-(J3-VDD)*%
X163440000Y-96398621D03*
%TD*%
D23*
%TO.N,GND*%
X163710000Y-103679610D02*
X162110989Y-103679610D01*
X163710000Y-103679610D02*
X165240989Y-103679610D01*
D24*
%TO.N,VCC*%
X146350000Y-89855817D02*
X146350000Y-86465599D01*
D25*
X144105000Y-94921121D02*
X144107500Y-94918621D01*
D23*
X162790000Y-92708621D02*
X161622500Y-91541121D01*
X159820000Y-91541121D02*
X161622500Y-91541121D01*
D25*
X144107500Y-94031121D02*
X146342500Y-91796121D01*
D24*
X146346250Y-89864871D02*
X146342500Y-89868621D01*
D26*
X135120000Y-94926121D02*
X136670000Y-94926121D01*
D25*
X149960000Y-105911121D02*
X154847500Y-105911121D01*
X155860000Y-104898621D02*
X155860000Y-97298621D01*
X146342500Y-91796121D02*
X146342500Y-89868621D01*
D27*
X152630000Y-89868621D02*
X154302500Y-91541121D01*
D25*
X159820000Y-93338621D02*
X159820000Y-91541121D01*
X155860000Y-97298621D02*
X159820000Y-93338621D01*
X146052500Y-96753621D02*
X146250000Y-96556121D01*
D27*
X154302500Y-91541121D02*
X159820000Y-91541121D01*
D26*
X136670000Y-94926121D02*
X144100000Y-94926121D01*
D25*
X144107500Y-94918621D02*
X144107500Y-94031121D01*
X144105000Y-96753621D02*
X144105000Y-94921121D01*
D27*
X146342500Y-89868621D02*
X152630000Y-89868621D01*
D25*
X144105000Y-96753621D02*
X146052500Y-96753621D01*
D26*
X144100000Y-94926121D02*
X144107500Y-94918621D01*
D23*
X162790000Y-93968621D02*
X162790000Y-92708621D01*
D25*
X154847500Y-105911121D02*
X155860000Y-104898621D01*
D24*
X146346240Y-89864861D02*
G75*
G03*
X146350000Y-89855817I-9040J9061D01*
G01*
D26*
%TO.N,/A1*%
X159980000Y-101388621D02*
X159980000Y-105148621D01*
X163310000Y-99279610D02*
X162089011Y-99279610D01*
X162089011Y-99279610D02*
X159980000Y-101388621D01*
X159980000Y-105148621D02*
X157920000Y-107208621D01*
%TO.N,/MOSI*%
X147515000Y-112368621D02*
X148890000Y-113743621D01*
X142100000Y-109058621D02*
X145410000Y-112368621D01*
X145410000Y-112368621D02*
X147515000Y-112368621D01*
X144105000Y-100563621D02*
X143165000Y-100563621D01*
X143165000Y-100563621D02*
X142100000Y-101628621D01*
X142100000Y-101628621D02*
X142100000Y-109058621D01*
%TO.N,/MISO*%
X141750000Y-99828621D02*
X141750000Y-109143621D01*
X148560000Y-108778621D02*
X146370000Y-110968621D01*
X162099011Y-104779610D02*
X158100000Y-108778621D01*
X163510000Y-104779610D02*
X162099011Y-104779610D01*
X141750000Y-109143621D02*
X146350000Y-113743621D01*
X138755000Y-98023621D02*
X139945000Y-98023621D01*
X139945000Y-98023621D02*
X141750000Y-99828621D01*
X158100000Y-108778621D02*
X148560000Y-108778621D01*
%TO.N,/SCK*%
X145345000Y-99293621D02*
X145900000Y-99848621D01*
X145590000Y-112028621D02*
X149715000Y-112028621D01*
X144105000Y-99293621D02*
X145345000Y-99293621D01*
X145900000Y-99848621D02*
X145900000Y-101178621D01*
X145900000Y-101178621D02*
X142520000Y-104558621D01*
X142520000Y-108958621D02*
X145590000Y-112028621D01*
X149715000Y-112028621D02*
X151430000Y-113743621D01*
X142520000Y-104558621D02*
X142520000Y-108958621D01*
%TO.N,/RXD*%
X138752500Y-96751121D02*
X138755000Y-96753621D01*
X136670000Y-96751121D02*
X138752500Y-96751121D01*
%TO.N,/~{WP}*%
X135120000Y-96751121D02*
X135120000Y-98378621D01*
X136035000Y-99293621D02*
X138755000Y-99293621D01*
X135120000Y-98378621D02*
X136035000Y-99293621D01*
%TO.N,/~{HL}*%
X145892500Y-98023621D02*
X146250000Y-98381121D01*
X144105000Y-98023621D02*
X145892500Y-98023621D01*
D23*
%TO.N,Net-(J3-VDD)*%
X165670000Y-97588621D02*
X164480000Y-96398621D01*
X165670000Y-98218621D02*
X165670000Y-97588621D01*
X164480000Y-96398621D02*
X163440000Y-96398621D01*
X163710000Y-101479610D02*
X165119011Y-101479610D01*
X165670000Y-100928621D02*
X165670000Y-98218621D01*
X165119011Y-101479610D02*
X165670000Y-100928621D01*
D25*
%TO.N,/CARD_DETECT*%
X149966511Y-104079610D02*
X149960000Y-104086121D01*
X153210000Y-104079610D02*
X149966511Y-104079610D01*
%TD*%
%TA.AperFunction,Conductor*%
%TO.N,GND*%
G36*
X150203946Y-77388502D02*
G01*
X169810750Y-88708494D01*
X169849399Y-88754554D01*
X169854700Y-88784618D01*
X169854700Y-111424599D01*
X169834135Y-111481100D01*
X169810750Y-111500723D01*
X150203949Y-122820715D01*
X150144735Y-122831156D01*
X150116049Y-122820715D01*
X149138254Y-122256185D01*
X146770601Y-120889220D01*
X148749884Y-120889220D01*
X148769115Y-121121316D01*
X148769116Y-121121322D01*
X148826286Y-121347080D01*
X148826289Y-121347088D01*
X148897987Y-121510541D01*
X148919840Y-121560361D01*
X148919844Y-121560367D01*
X149047215Y-121755325D01*
X149047216Y-121755327D01*
X149047220Y-121755331D01*
X149204954Y-121926676D01*
X149388740Y-122069722D01*
X149593563Y-122180567D01*
X149813837Y-122256187D01*
X149813839Y-122256187D01*
X149813841Y-122256188D01*
X150043550Y-122294520D01*
X150043554Y-122294520D01*
X150276450Y-122294520D01*
X150506158Y-122256188D01*
X150506158Y-122256187D01*
X150506163Y-122256187D01*
X150726437Y-122180567D01*
X150931260Y-122069722D01*
X151115046Y-121926676D01*
X151272780Y-121755331D01*
X151400160Y-121560361D01*
X151493712Y-121347084D01*
X151550884Y-121121317D01*
X151570116Y-120889220D01*
X151550884Y-120657123D01*
X151550883Y-120657117D01*
X151493713Y-120431359D01*
X151493710Y-120431351D01*
X151400164Y-120218089D01*
X151400160Y-120218079D01*
X151319435Y-120094520D01*
X151272784Y-120023114D01*
X151272783Y-120023112D01*
X151115050Y-119851768D01*
X151115048Y-119851767D01*
X151115046Y-119851764D01*
X150931260Y-119708718D01*
X150726437Y-119597873D01*
X150726433Y-119597871D01*
X150726430Y-119597870D01*
X150506167Y-119522254D01*
X150506158Y-119522251D01*
X150276450Y-119483920D01*
X150276446Y-119483920D01*
X150043554Y-119483920D01*
X150043550Y-119483920D01*
X149813841Y-119522251D01*
X149813832Y-119522254D01*
X149593569Y-119597870D01*
X149388740Y-119708718D01*
X149204949Y-119851768D01*
X149047216Y-120023112D01*
X149047215Y-120023114D01*
X148919844Y-120218072D01*
X148919835Y-120218089D01*
X148826289Y-120431351D01*
X148826286Y-120431359D01*
X148769116Y-120657117D01*
X148769115Y-120657123D01*
X148749884Y-120889220D01*
X146770601Y-120889220D01*
X139013440Y-116410621D01*
X142815259Y-116410621D01*
X142822105Y-116480132D01*
X142879419Y-116669073D01*
X142972504Y-116843222D01*
X143097759Y-116995845D01*
X143097775Y-116995861D01*
X143250398Y-117121116D01*
X143250397Y-117121116D01*
X143424547Y-117214201D01*
X143613491Y-117271516D01*
X143613498Y-117271517D01*
X143682999Y-117278362D01*
X143683000Y-117278362D01*
X143683000Y-116770502D01*
X143774237Y-116783621D01*
X143845763Y-116783621D01*
X143937000Y-116770502D01*
X143937000Y-117278362D01*
X144006501Y-117271517D01*
X144006508Y-117271516D01*
X144195452Y-117214201D01*
X144369601Y-117121116D01*
X144522224Y-116995861D01*
X144522240Y-116995845D01*
X144647495Y-116843222D01*
X144740580Y-116669073D01*
X144797894Y-116480132D01*
X144804741Y-116410621D01*
X145355259Y-116410621D01*
X145362105Y-116480132D01*
X145419419Y-116669073D01*
X145512504Y-116843222D01*
X145637759Y-116995845D01*
X145637775Y-116995861D01*
X145790398Y-117121116D01*
X145790397Y-117121116D01*
X145964547Y-117214201D01*
X146153491Y-117271516D01*
X146153498Y-117271517D01*
X146222999Y-117278362D01*
X146223000Y-117278362D01*
X146223000Y-116770502D01*
X146314237Y-116783621D01*
X146385763Y-116783621D01*
X146477000Y-116770502D01*
X146477000Y-117278362D01*
X146546501Y-117271517D01*
X146546508Y-117271516D01*
X146735452Y-117214201D01*
X146909601Y-117121116D01*
X147062224Y-116995861D01*
X147062240Y-116995845D01*
X147187495Y-116843222D01*
X147280580Y-116669073D01*
X147337894Y-116480132D01*
X147344741Y-116410621D01*
X146833818Y-116410621D01*
X146850000Y-116355510D01*
X146850000Y-116283621D01*
X147882247Y-116283621D01*
X147901612Y-116480230D01*
X147958898Y-116669073D01*
X147958958Y-116669271D01*
X148052084Y-116843499D01*
X148177411Y-116996210D01*
X148330122Y-117121537D01*
X148504350Y-117214663D01*
X148638715Y-117255422D01*
X148691771Y-117271517D01*
X148693397Y-117272010D01*
X148890000Y-117291374D01*
X149086603Y-117272010D01*
X149275650Y-117214663D01*
X149449878Y-117121537D01*
X149602589Y-116996210D01*
X149727916Y-116843499D01*
X149821042Y-116669271D01*
X149878389Y-116480224D01*
X149897753Y-116283621D01*
X150422247Y-116283621D01*
X150441612Y-116480230D01*
X150498898Y-116669073D01*
X150498958Y-116669271D01*
X150592084Y-116843499D01*
X150717411Y-116996210D01*
X150870122Y-117121537D01*
X151044350Y-117214663D01*
X151178715Y-117255422D01*
X151231771Y-117271517D01*
X151233397Y-117272010D01*
X151430000Y-117291374D01*
X151626603Y-117272010D01*
X151815650Y-117214663D01*
X151989878Y-117121537D01*
X152142589Y-116996210D01*
X152267916Y-116843499D01*
X152361042Y-116669271D01*
X152418389Y-116480224D01*
X152437753Y-116283621D01*
X152962247Y-116283621D01*
X152981612Y-116480230D01*
X153038898Y-116669073D01*
X153038958Y-116669271D01*
X153132084Y-116843499D01*
X153257411Y-116996210D01*
X153410122Y-117121537D01*
X153584350Y-117214663D01*
X153718715Y-117255422D01*
X153771771Y-117271517D01*
X153773397Y-117272010D01*
X153970000Y-117291374D01*
X154166603Y-117272010D01*
X154355650Y-117214663D01*
X154529878Y-117121537D01*
X154682589Y-116996210D01*
X154807916Y-116843499D01*
X154901042Y-116669271D01*
X154958389Y-116480224D01*
X154977753Y-116283621D01*
X155502247Y-116283621D01*
X155521612Y-116480230D01*
X155578898Y-116669073D01*
X155578958Y-116669271D01*
X155672084Y-116843499D01*
X155797411Y-116996210D01*
X155950122Y-117121537D01*
X156124350Y-117214663D01*
X156258715Y-117255422D01*
X156311771Y-117271517D01*
X156313397Y-117272010D01*
X156510000Y-117291374D01*
X156706603Y-117272010D01*
X156895650Y-117214663D01*
X157069878Y-117121537D01*
X157222589Y-116996210D01*
X157347916Y-116843499D01*
X157441042Y-116669271D01*
X157498389Y-116480224D01*
X157517753Y-116283621D01*
X157498389Y-116087018D01*
X157441042Y-115897971D01*
X157347916Y-115723743D01*
X157222589Y-115571032D01*
X157069878Y-115445705D01*
X156895650Y-115352579D01*
X156895649Y-115352578D01*
X156895648Y-115352578D01*
X156706609Y-115295233D01*
X156706604Y-115295232D01*
X156706603Y-115295232D01*
X156510000Y-115275868D01*
X156509999Y-115275868D01*
X156462657Y-115280530D01*
X156313397Y-115295232D01*
X156313395Y-115295232D01*
X156313390Y-115295233D01*
X156124351Y-115352578D01*
X155950121Y-115445705D01*
X155797413Y-115571030D01*
X155797409Y-115571034D01*
X155672084Y-115723742D01*
X155578957Y-115897972D01*
X155521612Y-116087011D01*
X155502247Y-116283621D01*
X154977753Y-116283621D01*
X154958389Y-116087018D01*
X154901042Y-115897971D01*
X154807916Y-115723743D01*
X154682589Y-115571032D01*
X154529878Y-115445705D01*
X154355650Y-115352579D01*
X154355649Y-115352578D01*
X154355648Y-115352578D01*
X154166609Y-115295233D01*
X154166604Y-115295232D01*
X154166603Y-115295232D01*
X153970000Y-115275868D01*
X153773397Y-115295232D01*
X153773395Y-115295232D01*
X153773390Y-115295233D01*
X153584351Y-115352578D01*
X153410121Y-115445705D01*
X153257413Y-115571030D01*
X153257409Y-115571034D01*
X153132084Y-115723742D01*
X153038957Y-115897972D01*
X152981612Y-116087011D01*
X152962247Y-116283621D01*
X152437753Y-116283621D01*
X152418389Y-116087018D01*
X152361042Y-115897971D01*
X152267916Y-115723743D01*
X152142589Y-115571032D01*
X151989878Y-115445705D01*
X151815650Y-115352579D01*
X151815649Y-115352578D01*
X151815648Y-115352578D01*
X151626609Y-115295233D01*
X151626604Y-115295232D01*
X151626603Y-115295232D01*
X151430000Y-115275868D01*
X151429999Y-115275868D01*
X151382657Y-115280530D01*
X151233397Y-115295232D01*
X151233395Y-115295232D01*
X151233390Y-115295233D01*
X151044351Y-115352578D01*
X150870121Y-115445705D01*
X150717413Y-115571030D01*
X150717409Y-115571034D01*
X150592084Y-115723742D01*
X150498957Y-115897972D01*
X150441612Y-116087011D01*
X150422247Y-116283621D01*
X149897753Y-116283621D01*
X149878389Y-116087018D01*
X149821042Y-115897971D01*
X149727916Y-115723743D01*
X149602589Y-115571032D01*
X149449878Y-115445705D01*
X149275650Y-115352579D01*
X149275649Y-115352578D01*
X149275648Y-115352578D01*
X149086609Y-115295233D01*
X149086604Y-115295232D01*
X149086603Y-115295232D01*
X148890000Y-115275868D01*
X148889999Y-115275868D01*
X148842657Y-115280530D01*
X148693397Y-115295232D01*
X148693395Y-115295232D01*
X148693390Y-115295233D01*
X148504351Y-115352578D01*
X148330121Y-115445705D01*
X148177413Y-115571030D01*
X148177409Y-115571034D01*
X148052084Y-115723742D01*
X147958957Y-115897972D01*
X147901612Y-116087011D01*
X147882247Y-116283621D01*
X146850000Y-116283621D01*
X146850000Y-116211732D01*
X146833818Y-116156621D01*
X147344741Y-116156621D01*
X147337894Y-116087109D01*
X147280580Y-115898168D01*
X147187495Y-115724019D01*
X147062240Y-115571396D01*
X147062224Y-115571380D01*
X146909601Y-115446125D01*
X146909602Y-115446125D01*
X146735452Y-115353040D01*
X146546511Y-115295726D01*
X146546512Y-115295726D01*
X146477000Y-115288879D01*
X146477000Y-115796739D01*
X146385763Y-115783621D01*
X146314237Y-115783621D01*
X146223000Y-115796739D01*
X146223000Y-115288879D01*
X146153488Y-115295726D01*
X145964547Y-115353040D01*
X145790398Y-115446125D01*
X145637775Y-115571380D01*
X145637759Y-115571396D01*
X145512504Y-115724019D01*
X145419419Y-115898168D01*
X145362105Y-116087109D01*
X145355259Y-116156621D01*
X145866182Y-116156621D01*
X145850000Y-116211732D01*
X145850000Y-116355510D01*
X145866182Y-116410621D01*
X145355259Y-116410621D01*
X144804741Y-116410621D01*
X144293818Y-116410621D01*
X144310000Y-116355510D01*
X144310000Y-116211732D01*
X144293818Y-116156621D01*
X144804741Y-116156621D01*
X144797894Y-116087109D01*
X144740580Y-115898168D01*
X144647495Y-115724019D01*
X144522240Y-115571396D01*
X144522224Y-115571380D01*
X144369601Y-115446125D01*
X144369602Y-115446125D01*
X144195452Y-115353040D01*
X144006511Y-115295726D01*
X144006512Y-115295726D01*
X143937000Y-115288879D01*
X143937000Y-115796739D01*
X143845763Y-115783621D01*
X143774237Y-115783621D01*
X143683000Y-115796739D01*
X143683000Y-115288879D01*
X143613488Y-115295726D01*
X143424547Y-115353040D01*
X143250398Y-115446125D01*
X143097775Y-115571380D01*
X143097759Y-115571396D01*
X142972504Y-115724019D01*
X142879419Y-115898168D01*
X142822105Y-116087109D01*
X142815259Y-116156621D01*
X143326182Y-116156621D01*
X143310000Y-116211732D01*
X143310000Y-116355510D01*
X143326182Y-116410621D01*
X142815259Y-116410621D01*
X139013440Y-116410621D01*
X134394061Y-113743621D01*
X142802247Y-113743621D01*
X142821612Y-113940230D01*
X142878957Y-114129269D01*
X142878958Y-114129271D01*
X142972084Y-114303499D01*
X143097411Y-114456210D01*
X143250122Y-114581537D01*
X143424350Y-114674663D01*
X143613397Y-114732010D01*
X143810000Y-114751374D01*
X144006603Y-114732010D01*
X144195650Y-114674663D01*
X144369878Y-114581537D01*
X144522589Y-114456210D01*
X144647916Y-114303499D01*
X144741042Y-114129271D01*
X144798389Y-113940224D01*
X144817753Y-113743621D01*
X144798389Y-113547018D01*
X144741042Y-113357971D01*
X144647916Y-113183743D01*
X144522589Y-113031032D01*
X144369878Y-112905705D01*
X144195650Y-112812579D01*
X144195649Y-112812578D01*
X144195648Y-112812578D01*
X144006609Y-112755233D01*
X144006604Y-112755232D01*
X144006603Y-112755232D01*
X143810000Y-112735868D01*
X143613397Y-112755232D01*
X143613395Y-112755232D01*
X143613390Y-112755233D01*
X143424351Y-112812578D01*
X143250121Y-112905705D01*
X143097413Y-113031030D01*
X143097409Y-113031034D01*
X142972084Y-113183742D01*
X142878957Y-113357972D01*
X142821612Y-113547011D01*
X142802247Y-113743621D01*
X134394061Y-113743621D01*
X130509248Y-111500723D01*
X130470600Y-111454664D01*
X130465300Y-111424605D01*
X130465300Y-110496915D01*
X130749884Y-110496915D01*
X130769115Y-110729011D01*
X130769116Y-110729017D01*
X130826286Y-110954775D01*
X130826289Y-110954783D01*
X130892675Y-111106126D01*
X130919840Y-111168056D01*
X130919844Y-111168062D01*
X131047215Y-111363020D01*
X131047216Y-111363022D01*
X131173979Y-111500724D01*
X131204954Y-111534371D01*
X131388740Y-111677417D01*
X131593563Y-111788262D01*
X131813837Y-111863882D01*
X131813839Y-111863882D01*
X131813841Y-111863883D01*
X132043550Y-111902215D01*
X132043554Y-111902215D01*
X132276450Y-111902215D01*
X132506158Y-111863883D01*
X132506158Y-111863882D01*
X132506163Y-111863882D01*
X132726437Y-111788262D01*
X132931260Y-111677417D01*
X133115046Y-111534371D01*
X133272780Y-111363026D01*
X133400160Y-111168056D01*
X133493712Y-110954779D01*
X133550884Y-110729012D01*
X133570116Y-110496915D01*
X133550884Y-110264818D01*
X133550883Y-110264812D01*
X133493713Y-110039054D01*
X133493710Y-110039046D01*
X133400164Y-109825784D01*
X133400160Y-109825774D01*
X133319435Y-109702215D01*
X133272784Y-109630809D01*
X133272783Y-109630807D01*
X133115050Y-109459463D01*
X133115048Y-109459462D01*
X133115046Y-109459459D01*
X132931260Y-109316413D01*
X132726437Y-109205568D01*
X132726433Y-109205566D01*
X132726430Y-109205565D01*
X132506167Y-109129949D01*
X132506158Y-109129946D01*
X132276450Y-109091615D01*
X132276446Y-109091615D01*
X132043554Y-109091615D01*
X132043550Y-109091615D01*
X131813841Y-109129946D01*
X131813832Y-109129949D01*
X131593569Y-109205565D01*
X131593564Y-109205567D01*
X131593563Y-109205568D01*
X131472314Y-109271185D01*
X131388740Y-109316413D01*
X131204949Y-109459463D01*
X131047216Y-109630807D01*
X131047215Y-109630809D01*
X130919844Y-109825767D01*
X130919835Y-109825784D01*
X130826289Y-110039046D01*
X130826286Y-110039054D01*
X130769116Y-110264812D01*
X130769115Y-110264818D01*
X130749884Y-110496915D01*
X130465300Y-110496915D01*
X130465300Y-100758765D01*
X137827600Y-100758765D01*
X137827601Y-100758784D01*
X137830533Y-100784055D01*
X137830534Y-100784058D01*
X137876198Y-100887476D01*
X137956144Y-100967422D01*
X138059562Y-101013086D01*
X138059565Y-101013087D01*
X138084836Y-101016019D01*
X138084855Y-101016021D01*
X138627999Y-101016021D01*
X138628000Y-101016020D01*
X138628000Y-100690621D01*
X138882000Y-100690621D01*
X138882000Y-101016020D01*
X138882001Y-101016021D01*
X139425145Y-101016021D01*
X139425163Y-101016019D01*
X139450434Y-101013087D01*
X139450437Y-101013086D01*
X139553855Y-100967422D01*
X139633801Y-100887476D01*
X139679465Y-100784058D01*
X139679466Y-100784055D01*
X139682398Y-100758784D01*
X139682400Y-100758765D01*
X139682400Y-100690622D01*
X139682399Y-100690621D01*
X138882000Y-100690621D01*
X138628000Y-100690621D01*
X137827601Y-100690621D01*
X137827600Y-100690622D01*
X137827600Y-100758765D01*
X130465300Y-100758765D01*
X130465300Y-100436619D01*
X137827600Y-100436619D01*
X137827601Y-100436621D01*
X138627999Y-100436621D01*
X138628000Y-100436620D01*
X138882000Y-100436620D01*
X138882001Y-100436621D01*
X139682399Y-100436621D01*
X139682400Y-100436619D01*
X139682400Y-100368476D01*
X139682398Y-100368457D01*
X139679466Y-100343186D01*
X139679465Y-100343183D01*
X139633801Y-100239765D01*
X139553855Y-100159819D01*
X139450437Y-100114155D01*
X139450434Y-100114154D01*
X139425163Y-100111222D01*
X139425145Y-100111221D01*
X138882001Y-100111221D01*
X138882000Y-100111222D01*
X138882000Y-100436620D01*
X138628000Y-100436620D01*
X138628000Y-100111222D01*
X138627999Y-100111221D01*
X138084855Y-100111221D01*
X138084836Y-100111222D01*
X138059565Y-100114154D01*
X138059562Y-100114155D01*
X137956144Y-100159819D01*
X137876198Y-100239765D01*
X137830534Y-100343183D01*
X137830533Y-100343186D01*
X137827601Y-100368457D01*
X137827600Y-100368476D01*
X137827600Y-100436619D01*
X130465300Y-100436619D01*
X130465300Y-97031843D01*
X134492100Y-97031843D01*
X134492366Y-97033521D01*
X134506579Y-97123262D01*
X134506579Y-97123263D01*
X134506580Y-97123265D01*
X134562723Y-97233453D01*
X134650168Y-97320898D01*
X134760356Y-97377041D01*
X134816750Y-97385973D01*
X134869339Y-97415123D01*
X134890887Y-97471257D01*
X134890900Y-97472791D01*
X134890900Y-98371471D01*
X134890840Y-98373772D01*
X134888666Y-98415260D01*
X134897177Y-98437433D01*
X134901092Y-98450650D01*
X134906031Y-98473888D01*
X134910124Y-98479521D01*
X134921071Y-98499682D01*
X134923567Y-98506183D01*
X134923568Y-98506185D01*
X134940364Y-98522982D01*
X134949320Y-98533468D01*
X134963276Y-98552677D01*
X134963278Y-98552679D01*
X134969308Y-98556160D01*
X134987510Y-98570127D01*
X135867951Y-99450569D01*
X135869535Y-99452238D01*
X135897330Y-99483107D01*
X135897331Y-99483107D01*
X135897332Y-99483108D01*
X135919022Y-99492765D01*
X135931144Y-99499347D01*
X135942464Y-99506698D01*
X135951061Y-99512281D01*
X135951062Y-99512281D01*
X135951063Y-99512282D01*
X135957938Y-99513370D01*
X135979938Y-99519887D01*
X135986303Y-99522721D01*
X136010058Y-99522721D01*
X136023807Y-99523802D01*
X136047258Y-99527517D01*
X136053979Y-99525716D01*
X136076729Y-99522721D01*
X137776538Y-99522721D01*
X137833039Y-99543286D01*
X137856947Y-99575115D01*
X137875780Y-99617766D01*
X137955855Y-99697841D01*
X138059450Y-99743583D01*
X138084774Y-99746521D01*
X138084781Y-99746521D01*
X139425219Y-99746521D01*
X139425226Y-99746521D01*
X139450550Y-99743583D01*
X139554145Y-99697841D01*
X139634220Y-99617766D01*
X139679962Y-99514171D01*
X139682900Y-99488847D01*
X139682900Y-99098395D01*
X139679962Y-99073071D01*
X139634220Y-98969476D01*
X139554145Y-98889401D01*
X139554143Y-98889400D01*
X139450553Y-98843660D01*
X139450551Y-98843659D01*
X139450550Y-98843659D01*
X139443061Y-98842790D01*
X139425237Y-98840722D01*
X139425232Y-98840721D01*
X139425226Y-98840721D01*
X138084774Y-98840721D01*
X138084768Y-98840721D01*
X138084762Y-98840722D01*
X138059450Y-98843659D01*
X138059446Y-98843660D01*
X137955856Y-98889400D01*
X137875779Y-98969477D01*
X137856948Y-99012126D01*
X137815314Y-99055506D01*
X137776538Y-99064521D01*
X136166306Y-99064521D01*
X136109805Y-99043956D01*
X136104151Y-99038776D01*
X135374845Y-98309469D01*
X135349434Y-98254975D01*
X135349100Y-98247314D01*
X135349100Y-98218839D01*
X137827100Y-98218839D01*
X137827101Y-98218858D01*
X137830038Y-98244170D01*
X137830039Y-98244174D01*
X137845181Y-98278466D01*
X137875780Y-98347766D01*
X137955855Y-98427841D01*
X138059450Y-98473583D01*
X138084774Y-98476521D01*
X138084781Y-98476521D01*
X139425219Y-98476521D01*
X139425226Y-98476521D01*
X139450550Y-98473583D01*
X139554145Y-98427841D01*
X139634220Y-98347766D01*
X139653052Y-98305115D01*
X139694686Y-98261736D01*
X139733462Y-98252721D01*
X139813694Y-98252721D01*
X139870195Y-98273286D01*
X139875849Y-98278466D01*
X141495155Y-99897772D01*
X141520566Y-99952266D01*
X141520900Y-99959927D01*
X141520900Y-109136471D01*
X141520840Y-109138772D01*
X141518666Y-109180260D01*
X141527177Y-109202433D01*
X141531092Y-109215650D01*
X141536031Y-109238888D01*
X141540124Y-109244521D01*
X141551071Y-109264682D01*
X141553567Y-109271183D01*
X141553568Y-109271185D01*
X141570364Y-109287982D01*
X141579320Y-109298468D01*
X141593276Y-109317677D01*
X141593278Y-109317679D01*
X141599308Y-109321160D01*
X141617510Y-109335127D01*
X145449978Y-113167595D01*
X145475389Y-113222089D01*
X145465344Y-113271185D01*
X145418958Y-113357968D01*
X145418957Y-113357972D01*
X145361612Y-113547011D01*
X145342247Y-113743621D01*
X145361612Y-113940230D01*
X145418957Y-114129269D01*
X145418958Y-114129271D01*
X145512084Y-114303499D01*
X145637411Y-114456210D01*
X145790122Y-114581537D01*
X145964350Y-114674663D01*
X146153397Y-114732010D01*
X146350000Y-114751374D01*
X146546603Y-114732010D01*
X146735650Y-114674663D01*
X146909878Y-114581537D01*
X147062589Y-114456210D01*
X147187916Y-114303499D01*
X147281042Y-114129271D01*
X147338389Y-113940224D01*
X147357753Y-113743621D01*
X147338389Y-113547018D01*
X147281042Y-113357971D01*
X147187916Y-113183743D01*
X147062589Y-113031032D01*
X146909878Y-112905705D01*
X146735650Y-112812579D01*
X146735649Y-112812578D01*
X146735648Y-112812578D01*
X146594418Y-112769736D01*
X146546319Y-112733655D01*
X146532666Y-112675099D01*
X146559846Y-112621466D01*
X146615142Y-112597852D01*
X146619934Y-112597721D01*
X147383694Y-112597721D01*
X147440195Y-112618286D01*
X147445849Y-112623466D01*
X147989978Y-113167595D01*
X148015389Y-113222089D01*
X148005344Y-113271185D01*
X147958958Y-113357968D01*
X147958957Y-113357972D01*
X147901612Y-113547011D01*
X147882247Y-113743620D01*
X147901612Y-113940230D01*
X147958957Y-114129269D01*
X147958958Y-114129271D01*
X148052084Y-114303499D01*
X148177411Y-114456210D01*
X148330122Y-114581537D01*
X148504350Y-114674663D01*
X148693397Y-114732010D01*
X148890000Y-114751374D01*
X149086603Y-114732010D01*
X149275650Y-114674663D01*
X149449878Y-114581537D01*
X149602589Y-114456210D01*
X149727916Y-114303499D01*
X149821042Y-114129271D01*
X149878389Y-113940224D01*
X149897753Y-113743621D01*
X149878389Y-113547018D01*
X149821042Y-113357971D01*
X149727916Y-113183743D01*
X149602589Y-113031032D01*
X149449878Y-112905705D01*
X149275650Y-112812579D01*
X149275649Y-112812578D01*
X149275648Y-112812578D01*
X149086609Y-112755233D01*
X149086604Y-112755232D01*
X149086603Y-112755232D01*
X148890000Y-112735868D01*
X148693397Y-112755232D01*
X148693395Y-112755232D01*
X148693390Y-112755233D01*
X148504351Y-112812578D01*
X148504347Y-112812579D01*
X148417565Y-112858965D01*
X148358041Y-112867463D01*
X148313975Y-112843599D01*
X147878152Y-112407776D01*
X147852741Y-112353282D01*
X147868304Y-112295204D01*
X147917557Y-112260716D01*
X147940307Y-112257721D01*
X149583694Y-112257721D01*
X149640195Y-112278286D01*
X149645849Y-112283466D01*
X150529978Y-113167595D01*
X150555389Y-113222089D01*
X150545344Y-113271185D01*
X150498958Y-113357968D01*
X150498957Y-113357972D01*
X150441612Y-113547011D01*
X150422247Y-113743620D01*
X150441612Y-113940230D01*
X150498957Y-114129269D01*
X150498958Y-114129271D01*
X150592084Y-114303499D01*
X150717411Y-114456210D01*
X150870122Y-114581537D01*
X151044350Y-114674663D01*
X151233397Y-114732010D01*
X151430000Y-114751374D01*
X151626603Y-114732010D01*
X151815650Y-114674663D01*
X151989878Y-114581537D01*
X152142589Y-114456210D01*
X152267916Y-114303499D01*
X152361042Y-114129271D01*
X152418389Y-113940224D01*
X152437753Y-113743621D01*
X152437753Y-113743620D01*
X152962247Y-113743620D01*
X152981612Y-113940230D01*
X153038957Y-114129269D01*
X153038958Y-114129271D01*
X153132084Y-114303499D01*
X153257411Y-114456210D01*
X153410122Y-114581537D01*
X153584350Y-114674663D01*
X153773397Y-114732010D01*
X153970000Y-114751374D01*
X154166603Y-114732010D01*
X154355650Y-114674663D01*
X154479098Y-114608679D01*
X155507100Y-114608679D01*
X155515972Y-114653279D01*
X155549766Y-114703855D01*
X155566701Y-114715171D01*
X155600341Y-114737649D01*
X155607741Y-114739120D01*
X155644943Y-114746521D01*
X157375056Y-114746520D01*
X157375058Y-114746520D01*
X157387750Y-114743995D01*
X157419658Y-114737649D01*
X157470234Y-114703855D01*
X157504028Y-114653279D01*
X157512900Y-114608678D01*
X157512899Y-112878565D01*
X157512899Y-112878564D01*
X157512899Y-112878562D01*
X157509001Y-112858965D01*
X157504028Y-112833963D01*
X157470234Y-112783387D01*
X157470002Y-112783232D01*
X157419658Y-112749592D01*
X157382456Y-112742192D01*
X157375057Y-112740721D01*
X157375056Y-112740721D01*
X155644941Y-112740721D01*
X155600341Y-112749593D01*
X155549767Y-112783386D01*
X155549764Y-112783389D01*
X155515971Y-112833962D01*
X155507100Y-112878564D01*
X155507100Y-114608679D01*
X154479098Y-114608679D01*
X154529878Y-114581537D01*
X154682589Y-114456210D01*
X154807916Y-114303499D01*
X154901042Y-114129271D01*
X154958389Y-113940224D01*
X154977753Y-113743621D01*
X154958389Y-113547018D01*
X154901042Y-113357971D01*
X154807916Y-113183743D01*
X154682589Y-113031032D01*
X154529878Y-112905705D01*
X154355650Y-112812579D01*
X154355649Y-112812578D01*
X154355648Y-112812578D01*
X154166609Y-112755233D01*
X154166604Y-112755232D01*
X154166603Y-112755232D01*
X153970000Y-112735868D01*
X153773397Y-112755232D01*
X153773395Y-112755232D01*
X153773390Y-112755233D01*
X153584351Y-112812578D01*
X153410121Y-112905705D01*
X153257413Y-113031030D01*
X153257409Y-113031034D01*
X153132084Y-113183742D01*
X153038957Y-113357972D01*
X152981612Y-113547011D01*
X152962247Y-113743620D01*
X152437753Y-113743620D01*
X152418389Y-113547018D01*
X152361042Y-113357971D01*
X152267916Y-113183743D01*
X152142589Y-113031032D01*
X151989878Y-112905705D01*
X151815650Y-112812579D01*
X151815649Y-112812578D01*
X151815648Y-112812578D01*
X151626609Y-112755233D01*
X151626604Y-112755232D01*
X151626603Y-112755232D01*
X151430000Y-112735868D01*
X151429999Y-112735868D01*
X151382657Y-112740530D01*
X151233397Y-112755232D01*
X151233395Y-112755232D01*
X151233390Y-112755233D01*
X151044351Y-112812578D01*
X151044347Y-112812579D01*
X150957564Y-112858965D01*
X150898040Y-112867463D01*
X150853974Y-112843599D01*
X149882039Y-111871662D01*
X149880470Y-111870010D01*
X149852670Y-111839135D01*
X149852669Y-111839134D01*
X149830972Y-111829473D01*
X149818858Y-111822896D01*
X149806022Y-111814561D01*
X149798936Y-111809960D01*
X149798933Y-111809959D01*
X149798932Y-111809959D01*
X149792058Y-111808870D01*
X149770064Y-111802355D01*
X149763699Y-111799521D01*
X149763697Y-111799521D01*
X149739947Y-111799521D01*
X149726197Y-111798439D01*
X149714119Y-111796526D01*
X149702743Y-111794724D01*
X149702740Y-111794724D01*
X149696017Y-111796526D01*
X149673267Y-111799521D01*
X145721306Y-111799521D01*
X145664805Y-111778956D01*
X145659151Y-111773776D01*
X144853999Y-110968624D01*
X145881932Y-110968624D01*
X145901700Y-111106119D01*
X145901701Y-111106124D01*
X145901702Y-111106126D01*
X145959411Y-111232490D01*
X146050383Y-111337478D01*
X146050385Y-111337479D01*
X146050386Y-111337480D01*
X146167245Y-111412581D01*
X146167246Y-111412581D01*
X146167249Y-111412583D01*
X146258035Y-111439240D01*
X146300536Y-111451720D01*
X146300539Y-111451720D01*
X146300541Y-111451721D01*
X146300542Y-111451721D01*
X146439458Y-111451721D01*
X146439459Y-111451721D01*
X146439461Y-111451720D01*
X146439463Y-111451720D01*
X146455305Y-111447067D01*
X146572751Y-111412583D01*
X146689617Y-111337478D01*
X146780589Y-111232490D01*
X146838298Y-111106126D01*
X146858068Y-110968621D01*
X146858068Y-110968617D01*
X146843706Y-110868724D01*
X146856020Y-110809871D01*
X146868552Y-110794064D01*
X147165702Y-110496914D01*
X166749884Y-110496914D01*
X166769115Y-110729011D01*
X166769116Y-110729017D01*
X166826286Y-110954775D01*
X166826289Y-110954783D01*
X166892675Y-111106126D01*
X166919840Y-111168056D01*
X166919844Y-111168062D01*
X167047215Y-111363020D01*
X167047216Y-111363022D01*
X167173979Y-111500724D01*
X167204954Y-111534371D01*
X167388740Y-111677417D01*
X167593563Y-111788262D01*
X167813837Y-111863882D01*
X167813839Y-111863882D01*
X167813841Y-111863883D01*
X168043550Y-111902215D01*
X168043554Y-111902215D01*
X168276450Y-111902215D01*
X168506158Y-111863883D01*
X168506158Y-111863882D01*
X168506163Y-111863882D01*
X168726437Y-111788262D01*
X168931260Y-111677417D01*
X169115046Y-111534371D01*
X169272780Y-111363026D01*
X169400160Y-111168056D01*
X169493712Y-110954779D01*
X169550884Y-110729012D01*
X169570116Y-110496915D01*
X169550884Y-110264818D01*
X169550883Y-110264812D01*
X169493713Y-110039054D01*
X169493710Y-110039046D01*
X169400164Y-109825784D01*
X169400160Y-109825774D01*
X169319435Y-109702215D01*
X169272784Y-109630809D01*
X169272783Y-109630807D01*
X169115050Y-109459463D01*
X169115048Y-109459462D01*
X169115046Y-109459459D01*
X168931260Y-109316413D01*
X168726437Y-109205568D01*
X168726433Y-109205566D01*
X168726430Y-109205565D01*
X168506167Y-109129949D01*
X168506158Y-109129946D01*
X168276450Y-109091615D01*
X168276446Y-109091615D01*
X168043554Y-109091615D01*
X168043550Y-109091615D01*
X167813841Y-109129946D01*
X167813832Y-109129949D01*
X167593569Y-109205565D01*
X167593564Y-109205567D01*
X167593563Y-109205568D01*
X167472314Y-109271185D01*
X167388740Y-109316413D01*
X167204949Y-109459463D01*
X167047216Y-109630807D01*
X167047215Y-109630809D01*
X166919844Y-109825767D01*
X166919835Y-109825784D01*
X166826289Y-110039046D01*
X166826286Y-110039054D01*
X166769116Y-110264812D01*
X166769115Y-110264818D01*
X166749884Y-110496914D01*
X147165702Y-110496914D01*
X148629151Y-109033466D01*
X148683646Y-109008055D01*
X148691307Y-109007721D01*
X158092851Y-109007721D01*
X158095152Y-109007781D01*
X158102843Y-109008183D01*
X158136639Y-109009955D01*
X158158809Y-109001444D01*
X158172027Y-108997528D01*
X158195265Y-108992590D01*
X158200894Y-108988499D01*
X158221061Y-108977548D01*
X158227564Y-108975053D01*
X158244365Y-108958250D01*
X158254840Y-108949304D01*
X158274058Y-108935343D01*
X158277540Y-108929311D01*
X158291503Y-108911112D01*
X159670605Y-107532010D01*
X165687206Y-107532010D01*
X167032794Y-107532010D01*
X166360000Y-106859216D01*
X165687206Y-107532010D01*
X159670605Y-107532010D01*
X159807995Y-107394620D01*
X165257600Y-107394620D01*
X165266442Y-107439075D01*
X165300124Y-107489482D01*
X165342323Y-107517678D01*
X166180392Y-106679610D01*
X166539605Y-106679610D01*
X167377675Y-107517680D01*
X167419874Y-107489484D01*
X167419875Y-107489483D01*
X167453557Y-107439075D01*
X167462400Y-107394620D01*
X167462400Y-105964599D01*
X167453557Y-105920144D01*
X167419875Y-105869737D01*
X167377675Y-105841539D01*
X166539605Y-106679610D01*
X166180392Y-106679610D01*
X166180393Y-106679609D01*
X165342323Y-105841539D01*
X165300126Y-105869735D01*
X165266442Y-105920144D01*
X165257600Y-105964599D01*
X165257600Y-107394620D01*
X159807995Y-107394620D01*
X162168161Y-105034455D01*
X162222656Y-105009044D01*
X162230317Y-105008710D01*
X162519201Y-105008710D01*
X162575702Y-105029275D01*
X162605766Y-105081346D01*
X162607101Y-105096610D01*
X162607101Y-105194668D01*
X162610996Y-105214249D01*
X162615972Y-105239268D01*
X162643706Y-105280774D01*
X162657998Y-105339178D01*
X162643706Y-105378443D01*
X162615972Y-105419949D01*
X162607100Y-105464553D01*
X162607100Y-106294668D01*
X162615972Y-106339268D01*
X162649766Y-106389844D01*
X162666701Y-106401160D01*
X162700341Y-106423638D01*
X162707741Y-106425109D01*
X162744943Y-106432510D01*
X164275056Y-106432509D01*
X164275058Y-106432509D01*
X164287750Y-106429984D01*
X164319658Y-106423638D01*
X164370234Y-106389844D01*
X164404028Y-106339268D01*
X164412900Y-106294667D01*
X164412899Y-105827210D01*
X165687206Y-105827210D01*
X166359999Y-106500003D01*
X167032794Y-105827210D01*
X165687206Y-105827210D01*
X164412899Y-105827210D01*
X164412899Y-105464554D01*
X164412899Y-105464553D01*
X164412899Y-105464551D01*
X164409583Y-105447884D01*
X164404028Y-105419952D01*
X164376292Y-105378443D01*
X164362001Y-105320041D01*
X164376294Y-105280774D01*
X164404028Y-105239268D01*
X164412900Y-105194667D01*
X164412899Y-104364554D01*
X164407050Y-104335147D01*
X164416196Y-104275723D01*
X164461402Y-104236078D01*
X164476115Y-104231790D01*
X164519464Y-104223168D01*
X164569870Y-104189486D01*
X164569876Y-104189480D01*
X164603557Y-104139075D01*
X164612400Y-104094620D01*
X164612400Y-103264599D01*
X164603557Y-103220144D01*
X164569876Y-103169739D01*
X164569870Y-103169733D01*
X164519464Y-103136052D01*
X164476114Y-103127429D01*
X164424710Y-103096237D01*
X164405383Y-103039300D01*
X164407051Y-103024069D01*
X164412900Y-102994667D01*
X164412899Y-102164554D01*
X164407147Y-102135636D01*
X164416293Y-102076213D01*
X164461498Y-102036567D01*
X164476207Y-102032279D01*
X164519658Y-102023638D01*
X164570234Y-101989844D01*
X164604028Y-101939268D01*
X164604027Y-101939268D01*
X164608838Y-101932070D01*
X164610415Y-101933123D01*
X164644023Y-101896443D01*
X164684614Y-101886510D01*
X165183457Y-101886510D01*
X165207717Y-101878627D01*
X165221123Y-101875408D01*
X165236746Y-101872934D01*
X165246312Y-101871420D01*
X165246312Y-101871419D01*
X165246317Y-101871419D01*
X165269040Y-101859839D01*
X165281783Y-101854561D01*
X165306043Y-101846680D01*
X165326684Y-101831681D01*
X165338437Y-101824480D01*
X165361162Y-101812902D01*
X165452303Y-101721761D01*
X165980366Y-101193698D01*
X165999662Y-101174402D01*
X166000177Y-101173885D01*
X166003292Y-101170772D01*
X166003292Y-101170770D01*
X166003460Y-101170603D01*
X166003798Y-101169777D01*
X166014873Y-101148041D01*
X166022071Y-101136294D01*
X166037070Y-101115653D01*
X166044957Y-101091377D01*
X166050226Y-101078659D01*
X166061809Y-101055927D01*
X166065799Y-101030723D01*
X166069017Y-101017324D01*
X166076900Y-100993068D01*
X166076900Y-100864175D01*
X166076900Y-98186597D01*
X166076900Y-98186596D01*
X166076900Y-97556597D01*
X166076900Y-97556596D01*
X166076900Y-97524174D01*
X166069014Y-97499907D01*
X166065797Y-97486501D01*
X166061809Y-97461317D01*
X166061809Y-97461315D01*
X166061807Y-97461312D01*
X166061807Y-97461310D01*
X166050231Y-97438591D01*
X166044952Y-97425848D01*
X166037070Y-97401589D01*
X166031895Y-97394467D01*
X166022077Y-97380953D01*
X166014870Y-97369193D01*
X166003291Y-97346469D01*
X166003291Y-97346468D01*
X165912151Y-97255328D01*
X165912151Y-97255329D01*
X164757439Y-96100617D01*
X164757437Y-96100613D01*
X164722152Y-96065330D01*
X164722149Y-96065327D01*
X164699430Y-96053752D01*
X164687668Y-96046544D01*
X164667036Y-96031553D01*
X164667027Y-96031548D01*
X164642770Y-96023667D01*
X164630027Y-96018389D01*
X164607304Y-96006811D01*
X164607307Y-96006811D01*
X164582114Y-96002821D01*
X164568707Y-95999603D01*
X164544446Y-95991721D01*
X164512024Y-95991721D01*
X163858305Y-95991721D01*
X163804794Y-95973556D01*
X163722065Y-95910075D01*
X163722063Y-95910074D01*
X163586007Y-95853717D01*
X163440000Y-95834495D01*
X163293992Y-95853717D01*
X163157936Y-95910074D01*
X163157929Y-95910078D01*
X163041109Y-95999718D01*
X163041097Y-95999730D01*
X162951457Y-96116550D01*
X162951453Y-96116557D01*
X162895096Y-96252613D01*
X162875874Y-96398620D01*
X162875874Y-96398621D01*
X162895096Y-96544628D01*
X162951453Y-96680684D01*
X162951457Y-96680691D01*
X163041097Y-96797511D01*
X163041099Y-96797513D01*
X163041103Y-96797518D01*
X163041107Y-96797521D01*
X163041109Y-96797523D01*
X163157929Y-96887163D01*
X163157934Y-96887166D01*
X163157937Y-96887168D01*
X163293993Y-96943525D01*
X163440000Y-96962747D01*
X163586007Y-96943525D01*
X163722063Y-96887168D01*
X163804794Y-96823685D01*
X163858305Y-96805521D01*
X164275047Y-96805521D01*
X164331548Y-96826086D01*
X164337202Y-96831266D01*
X165237355Y-97731419D01*
X165262766Y-97785913D01*
X165263100Y-97793574D01*
X165263100Y-100723667D01*
X165242535Y-100780168D01*
X165237355Y-100785822D01*
X164976213Y-101046965D01*
X164921719Y-101072375D01*
X164914058Y-101072710D01*
X164684614Y-101072710D01*
X164628113Y-101052145D01*
X164609474Y-101026725D01*
X164608838Y-101027151D01*
X164604028Y-101019952D01*
X164570234Y-100969376D01*
X164519658Y-100935582D01*
X164504210Y-100932509D01*
X164476209Y-100926939D01*
X164424806Y-100895746D01*
X164405480Y-100838809D01*
X164407146Y-100823589D01*
X164412900Y-100794667D01*
X164412899Y-99964554D01*
X164412899Y-99964552D01*
X164412899Y-99964551D01*
X164408715Y-99943516D01*
X164404028Y-99919952D01*
X164370234Y-99869376D01*
X164319658Y-99835582D01*
X164304210Y-99832509D01*
X164276209Y-99826939D01*
X164224806Y-99795746D01*
X164205480Y-99738809D01*
X164207146Y-99723589D01*
X164212900Y-99694667D01*
X164212899Y-98864554D01*
X164207147Y-98835636D01*
X164216293Y-98776213D01*
X164261498Y-98736567D01*
X164276207Y-98732279D01*
X164319658Y-98723638D01*
X164370234Y-98689844D01*
X164404028Y-98639268D01*
X164412900Y-98594667D01*
X164412899Y-97764554D01*
X164412899Y-97764553D01*
X164412899Y-97764551D01*
X164408159Y-97740721D01*
X164404028Y-97719952D01*
X164370234Y-97669376D01*
X164370002Y-97669221D01*
X164319658Y-97635581D01*
X164282456Y-97628181D01*
X164275057Y-97626710D01*
X164275056Y-97626710D01*
X162744941Y-97626710D01*
X162700341Y-97635582D01*
X162649767Y-97669375D01*
X162649764Y-97669378D01*
X162615971Y-97719951D01*
X162607100Y-97764553D01*
X162607100Y-98594668D01*
X162612852Y-98623581D01*
X162603705Y-98683008D01*
X162558499Y-98722653D01*
X162543790Y-98726940D01*
X162500341Y-98735582D01*
X162449767Y-98769375D01*
X162449764Y-98769378D01*
X162415971Y-98819951D01*
X162407100Y-98864553D01*
X162407100Y-98962610D01*
X162386535Y-99019111D01*
X162334464Y-99049175D01*
X162319200Y-99050510D01*
X162096160Y-99050510D01*
X162093859Y-99050450D01*
X162066462Y-99049014D01*
X162052372Y-99048276D01*
X162052371Y-99048276D01*
X162052370Y-99048276D01*
X162030199Y-99056786D01*
X162016982Y-99060701D01*
X162004105Y-99063439D01*
X161993746Y-99065641D01*
X161993743Y-99065642D01*
X161988106Y-99069738D01*
X161967953Y-99080680D01*
X161961446Y-99083178D01*
X161961443Y-99083180D01*
X161944650Y-99099973D01*
X161934165Y-99108928D01*
X161914956Y-99122884D01*
X161914949Y-99122891D01*
X161911469Y-99128920D01*
X161897504Y-99147119D01*
X159823040Y-101221582D01*
X159821372Y-101223165D01*
X159790514Y-101250950D01*
X159786506Y-101259950D01*
X159780849Y-101272655D01*
X159774278Y-101284758D01*
X159765226Y-101298697D01*
X159761338Y-101304686D01*
X159760248Y-101311568D01*
X159753735Y-101333555D01*
X159750900Y-101339924D01*
X159750900Y-101363672D01*
X159749818Y-101377421D01*
X159746103Y-101400876D01*
X159746103Y-101400879D01*
X159747905Y-101407603D01*
X159750900Y-101430354D01*
X159750900Y-105017313D01*
X159730335Y-105073814D01*
X159725155Y-105079468D01*
X158095632Y-106708990D01*
X158041138Y-106734401D01*
X158008712Y-106731174D01*
X157989463Y-106725521D01*
X157989459Y-106725521D01*
X157850541Y-106725521D01*
X157850536Y-106725521D01*
X157717249Y-106764659D01*
X157717245Y-106764660D01*
X157600386Y-106839761D01*
X157600381Y-106839765D01*
X157509410Y-106944753D01*
X157451702Y-107071116D01*
X157451700Y-107071122D01*
X157431932Y-107208617D01*
X157431932Y-107208624D01*
X157451700Y-107346119D01*
X157451701Y-107346124D01*
X157451702Y-107346126D01*
X157509411Y-107472490D01*
X157600383Y-107577478D01*
X157600385Y-107577479D01*
X157600386Y-107577480D01*
X157717245Y-107652581D01*
X157717246Y-107652581D01*
X157717249Y-107652583D01*
X157808035Y-107679240D01*
X157850536Y-107691720D01*
X157850539Y-107691720D01*
X157850541Y-107691721D01*
X157850542Y-107691721D01*
X157989458Y-107691721D01*
X157989459Y-107691721D01*
X157989461Y-107691720D01*
X157989463Y-107691720D01*
X158005305Y-107687067D01*
X158122751Y-107652583D01*
X158239617Y-107577478D01*
X158330589Y-107472490D01*
X158388298Y-107346126D01*
X158408068Y-107208621D01*
X158408068Y-107208617D01*
X158393706Y-107108724D01*
X158406020Y-107049871D01*
X158418552Y-107034064D01*
X160136975Y-105315641D01*
X160138608Y-105314092D01*
X160169486Y-105286291D01*
X160179145Y-105264594D01*
X160185721Y-105252482D01*
X160198662Y-105232557D01*
X160199751Y-105225678D01*
X160206268Y-105203675D01*
X160209100Y-105197318D01*
X160209100Y-105173569D01*
X160210182Y-105159819D01*
X160213897Y-105136363D01*
X160212865Y-105132510D01*
X160212095Y-105129635D01*
X160209100Y-105106887D01*
X160209100Y-101519927D01*
X160229665Y-101463426D01*
X160234845Y-101457772D01*
X162158163Y-99534455D01*
X162212657Y-99509044D01*
X162220318Y-99508710D01*
X162319201Y-99508710D01*
X162375702Y-99529275D01*
X162405766Y-99581346D01*
X162407101Y-99596610D01*
X162407101Y-99694668D01*
X162414796Y-99733356D01*
X162415972Y-99739268D01*
X162449766Y-99789844D01*
X162458599Y-99795746D01*
X162500341Y-99823638D01*
X162507264Y-99825015D01*
X162543789Y-99832280D01*
X162595191Y-99863470D01*
X162614519Y-99920406D01*
X162612851Y-99935637D01*
X162607100Y-99964552D01*
X162607100Y-100794668D01*
X162612851Y-100823578D01*
X162615972Y-100839268D01*
X162649766Y-100889844D01*
X162656052Y-100894044D01*
X162700341Y-100923638D01*
X162707264Y-100925015D01*
X162743789Y-100932280D01*
X162795191Y-100963470D01*
X162814519Y-101020406D01*
X162812851Y-101035637D01*
X162807100Y-101064552D01*
X162807100Y-101894668D01*
X162812852Y-101923581D01*
X162803705Y-101983008D01*
X162758499Y-102022653D01*
X162743790Y-102026940D01*
X162700341Y-102035582D01*
X162649767Y-102069375D01*
X162649764Y-102069378D01*
X162615971Y-102119951D01*
X162607100Y-102164553D01*
X162607100Y-102994668D01*
X162615239Y-103035581D01*
X162615972Y-103039268D01*
X162649766Y-103089844D01*
X162659334Y-103096237D01*
X162700341Y-103123638D01*
X162712502Y-103126056D01*
X162744278Y-103132377D01*
X162795680Y-103163569D01*
X162815008Y-103220505D01*
X162813341Y-103235733D01*
X162807600Y-103264601D01*
X162807600Y-104094621D01*
X162813341Y-104123485D01*
X162804194Y-104182912D01*
X162758987Y-104222556D01*
X162744278Y-104226843D01*
X162700342Y-104235582D01*
X162649767Y-104269375D01*
X162649764Y-104269378D01*
X162615971Y-104319951D01*
X162607100Y-104364553D01*
X162607100Y-104462610D01*
X162586535Y-104519111D01*
X162534464Y-104549175D01*
X162519200Y-104550510D01*
X162106180Y-104550510D01*
X162103880Y-104550450D01*
X162074379Y-104548904D01*
X162062372Y-104548275D01*
X162062371Y-104548275D01*
X162062370Y-104548275D01*
X162040195Y-104556787D01*
X162026976Y-104560702D01*
X162003750Y-104565639D01*
X162003739Y-104565644D01*
X161998104Y-104569738D01*
X161977954Y-104580679D01*
X161971448Y-104583176D01*
X161971445Y-104583179D01*
X161954650Y-104599973D01*
X161944167Y-104608927D01*
X161924954Y-104622886D01*
X161924949Y-104622891D01*
X161921469Y-104628920D01*
X161907504Y-104647119D01*
X158030848Y-108523776D01*
X157976354Y-108549187D01*
X157968693Y-108549521D01*
X148567156Y-108549521D01*
X148564856Y-108549461D01*
X148539537Y-108548134D01*
X148523361Y-108547287D01*
X148523360Y-108547287D01*
X148523359Y-108547287D01*
X148501188Y-108555797D01*
X148487971Y-108559712D01*
X148464735Y-108564652D01*
X148464732Y-108564653D01*
X148459095Y-108568749D01*
X148438942Y-108579691D01*
X148432435Y-108582189D01*
X148432432Y-108582191D01*
X148415639Y-108598984D01*
X148405154Y-108607939D01*
X148385945Y-108621895D01*
X148385938Y-108621902D01*
X148382458Y-108627931D01*
X148368493Y-108646130D01*
X146545632Y-110468990D01*
X146491138Y-110494401D01*
X146458712Y-110491174D01*
X146439463Y-110485521D01*
X146439459Y-110485521D01*
X146300541Y-110485521D01*
X146300536Y-110485521D01*
X146167249Y-110524659D01*
X146167245Y-110524660D01*
X146050386Y-110599761D01*
X146050381Y-110599765D01*
X145959410Y-110704753D01*
X145901702Y-110831116D01*
X145901700Y-110831122D01*
X145881932Y-110968617D01*
X145881932Y-110968624D01*
X144853999Y-110968624D01*
X142774845Y-108889469D01*
X142749434Y-108834975D01*
X142749100Y-108827314D01*
X142749100Y-104689927D01*
X142769665Y-104633426D01*
X142774845Y-104627772D01*
X143035775Y-104366842D01*
X149332100Y-104366842D01*
X149346579Y-104458262D01*
X149346579Y-104458263D01*
X149346580Y-104458265D01*
X149402723Y-104568453D01*
X149490168Y-104655898D01*
X149600356Y-104712041D01*
X149691778Y-104726521D01*
X149691779Y-104726521D01*
X150228221Y-104726521D01*
X150228222Y-104726521D01*
X150319644Y-104712041D01*
X150429832Y-104655898D01*
X150517277Y-104568453D01*
X150573420Y-104458265D01*
X150577317Y-104433659D01*
X150606467Y-104381072D01*
X150662600Y-104359523D01*
X150664135Y-104359510D01*
X152269201Y-104359510D01*
X152325702Y-104380075D01*
X152355766Y-104432146D01*
X152357101Y-104447410D01*
X152357101Y-104994668D01*
X152360874Y-105013636D01*
X152365972Y-105039268D01*
X152399766Y-105089844D01*
X152409892Y-105096610D01*
X152450341Y-105123638D01*
X152457741Y-105125109D01*
X152494943Y-105132510D01*
X153925056Y-105132509D01*
X153925058Y-105132509D01*
X153939506Y-105129635D01*
X153969658Y-105123638D01*
X154020234Y-105089844D01*
X154054028Y-105039268D01*
X154062900Y-104994667D01*
X154062899Y-103164554D01*
X154062899Y-103164553D01*
X154062899Y-103164551D01*
X154057230Y-103136052D01*
X154054028Y-103119952D01*
X154020234Y-103069376D01*
X154020002Y-103069221D01*
X153969658Y-103035581D01*
X153932456Y-103028181D01*
X153925057Y-103026710D01*
X153925056Y-103026710D01*
X152494941Y-103026710D01*
X152450341Y-103035582D01*
X152399767Y-103069375D01*
X152399764Y-103069378D01*
X152365971Y-103119951D01*
X152357100Y-103164553D01*
X152357100Y-103711810D01*
X152336535Y-103768311D01*
X152284464Y-103798375D01*
X152269200Y-103799710D01*
X150662073Y-103799710D01*
X150605572Y-103779145D01*
X150575508Y-103727074D01*
X150575255Y-103725561D01*
X150573420Y-103713979D01*
X150573420Y-103713977D01*
X150517277Y-103603789D01*
X150429832Y-103516344D01*
X150319644Y-103460201D01*
X150319642Y-103460200D01*
X150319641Y-103460200D01*
X150249414Y-103449077D01*
X150228222Y-103445721D01*
X149691778Y-103445721D01*
X149674574Y-103448445D01*
X149600358Y-103460200D01*
X149490168Y-103516344D01*
X149402723Y-103603789D01*
X149346579Y-103713979D01*
X149332100Y-103805399D01*
X149332100Y-104366842D01*
X143035775Y-104366842D01*
X144407953Y-102994664D01*
X146056975Y-101345641D01*
X146058608Y-101344092D01*
X146089486Y-101316291D01*
X146099145Y-101294594D01*
X146105721Y-101282482D01*
X146118662Y-101262557D01*
X146119751Y-101255678D01*
X146126268Y-101233675D01*
X146129100Y-101227318D01*
X146129100Y-101203568D01*
X146130182Y-101189818D01*
X146133897Y-101166362D01*
X146133896Y-101166357D01*
X146132095Y-101159634D01*
X146129100Y-101136886D01*
X146129100Y-100294668D01*
X152357100Y-100294668D01*
X152365028Y-100334521D01*
X152365972Y-100339268D01*
X152399766Y-100389844D01*
X152404398Y-100392939D01*
X152450341Y-100423638D01*
X152457741Y-100425109D01*
X152494943Y-100432510D01*
X153925056Y-100432509D01*
X153925058Y-100432509D01*
X153937750Y-100429984D01*
X153969658Y-100423638D01*
X154020234Y-100389844D01*
X154054028Y-100339268D01*
X154062900Y-100294667D01*
X154062899Y-98464554D01*
X154062899Y-98464553D01*
X154062899Y-98464551D01*
X154055597Y-98427841D01*
X154054028Y-98419952D01*
X154020234Y-98369376D01*
X153987890Y-98347764D01*
X153969658Y-98335581D01*
X153932456Y-98328181D01*
X153925057Y-98326710D01*
X153925056Y-98326710D01*
X152494941Y-98326710D01*
X152450341Y-98335582D01*
X152399767Y-98369375D01*
X152399764Y-98369378D01*
X152365971Y-98419951D01*
X152357100Y-98464553D01*
X152357100Y-100294668D01*
X146129100Y-100294668D01*
X146129100Y-99855788D01*
X146129160Y-99853487D01*
X146130724Y-99823638D01*
X146131335Y-99811982D01*
X146122824Y-99789813D01*
X146118907Y-99776586D01*
X146113970Y-99753358D01*
X146113969Y-99753356D01*
X146109874Y-99747720D01*
X146098927Y-99727558D01*
X146096432Y-99721057D01*
X146079636Y-99704261D01*
X146070678Y-99693772D01*
X146056722Y-99674563D01*
X146056721Y-99674562D01*
X146050692Y-99671081D01*
X146032488Y-99657113D01*
X145512039Y-99136662D01*
X145510470Y-99135010D01*
X145482670Y-99104135D01*
X145482669Y-99104134D01*
X145460972Y-99094473D01*
X145448858Y-99087896D01*
X145431361Y-99076535D01*
X145428936Y-99074960D01*
X145428933Y-99074959D01*
X145428932Y-99074959D01*
X145422058Y-99073870D01*
X145400064Y-99067355D01*
X145393699Y-99064521D01*
X145393697Y-99064521D01*
X145369947Y-99064521D01*
X145356197Y-99063439D01*
X145338917Y-99060702D01*
X145332743Y-99059724D01*
X145332740Y-99059724D01*
X145326017Y-99061526D01*
X145303267Y-99064521D01*
X145083462Y-99064521D01*
X145026961Y-99043956D01*
X145003052Y-99012126D01*
X144984220Y-98969477D01*
X144984220Y-98969476D01*
X144904145Y-98889401D01*
X144904143Y-98889400D01*
X144800553Y-98843660D01*
X144800551Y-98843659D01*
X144800550Y-98843659D01*
X144793061Y-98842790D01*
X144775237Y-98840722D01*
X144775232Y-98840721D01*
X144775226Y-98840721D01*
X143434774Y-98840721D01*
X143434768Y-98840721D01*
X143434762Y-98840722D01*
X143409450Y-98843659D01*
X143409446Y-98843660D01*
X143305856Y-98889400D01*
X143225779Y-98969477D01*
X143180039Y-99073067D01*
X143180038Y-99073071D01*
X143177101Y-99098383D01*
X143177100Y-99098402D01*
X143177100Y-99488839D01*
X143177101Y-99488858D01*
X143180038Y-99514170D01*
X143180039Y-99514174D01*
X143225779Y-99617764D01*
X143225780Y-99617766D01*
X143305855Y-99697841D01*
X143409450Y-99743583D01*
X143434774Y-99746521D01*
X143434781Y-99746521D01*
X144775219Y-99746521D01*
X144775226Y-99746521D01*
X144800550Y-99743583D01*
X144904145Y-99697841D01*
X144984220Y-99617766D01*
X145003052Y-99575115D01*
X145044686Y-99531736D01*
X145083462Y-99522721D01*
X145213694Y-99522721D01*
X145270195Y-99543286D01*
X145275849Y-99548466D01*
X145645155Y-99917771D01*
X145670566Y-99972265D01*
X145670900Y-99979926D01*
X145670900Y-101047313D01*
X145650335Y-101103814D01*
X145645155Y-101109468D01*
X142479155Y-104275468D01*
X142424661Y-104300879D01*
X142366583Y-104285316D01*
X142332095Y-104236063D01*
X142329100Y-104213313D01*
X142329100Y-101759926D01*
X142349665Y-101703425D01*
X142354834Y-101697782D01*
X143133162Y-100919454D01*
X143187654Y-100894044D01*
X143245732Y-100909607D01*
X143257463Y-100919449D01*
X143305855Y-100967841D01*
X143409450Y-101013583D01*
X143434774Y-101016521D01*
X143434781Y-101016521D01*
X144775219Y-101016521D01*
X144775226Y-101016521D01*
X144800550Y-101013583D01*
X144904145Y-100967841D01*
X144984220Y-100887766D01*
X145029962Y-100784171D01*
X145032900Y-100758847D01*
X145032900Y-100368395D01*
X145029962Y-100343071D01*
X144984220Y-100239476D01*
X144904145Y-100159401D01*
X144904143Y-100159400D01*
X144800553Y-100113660D01*
X144800551Y-100113659D01*
X144800550Y-100113659D01*
X144793061Y-100112790D01*
X144775237Y-100110722D01*
X144775232Y-100110721D01*
X144775226Y-100110721D01*
X143434774Y-100110721D01*
X143434768Y-100110721D01*
X143434762Y-100110722D01*
X143409450Y-100113659D01*
X143409446Y-100113660D01*
X143305856Y-100159400D01*
X143225779Y-100239477D01*
X143208005Y-100279732D01*
X143166370Y-100323111D01*
X143137207Y-100329092D01*
X143137485Y-100330842D01*
X143128361Y-100332286D01*
X143106188Y-100340797D01*
X143092972Y-100344711D01*
X143069736Y-100349651D01*
X143069735Y-100349651D01*
X143064095Y-100353749D01*
X143043942Y-100364691D01*
X143037435Y-100367189D01*
X143037432Y-100367191D01*
X143020639Y-100383984D01*
X143010154Y-100392939D01*
X142990945Y-100406895D01*
X142990938Y-100406902D01*
X142987458Y-100412931D01*
X142973493Y-100431130D01*
X142129155Y-101275469D01*
X142074661Y-101300880D01*
X142016583Y-101285317D01*
X141982095Y-101236064D01*
X141979100Y-101213314D01*
X141979100Y-99835768D01*
X141979160Y-99833467D01*
X141979675Y-99823638D01*
X141981334Y-99791981D01*
X141972821Y-99769803D01*
X141968906Y-99756584D01*
X141968220Y-99753358D01*
X141963969Y-99733356D01*
X141959874Y-99727720D01*
X141948926Y-99707554D01*
X141946432Y-99701056D01*
X141946431Y-99701055D01*
X141929632Y-99684255D01*
X141920675Y-99673768D01*
X141908574Y-99657113D01*
X141906722Y-99654563D01*
X141906721Y-99654562D01*
X141900697Y-99651084D01*
X141882492Y-99637116D01*
X140464216Y-98218839D01*
X143177100Y-98218839D01*
X143177101Y-98218858D01*
X143180038Y-98244170D01*
X143180039Y-98244174D01*
X143195181Y-98278466D01*
X143225780Y-98347766D01*
X143305855Y-98427841D01*
X143409450Y-98473583D01*
X143434774Y-98476521D01*
X143434781Y-98476521D01*
X144775219Y-98476521D01*
X144775226Y-98476521D01*
X144800550Y-98473583D01*
X144904145Y-98427841D01*
X144984220Y-98347766D01*
X145003052Y-98305115D01*
X145044686Y-98261736D01*
X145083462Y-98252721D01*
X145534200Y-98252721D01*
X145590701Y-98273286D01*
X145620765Y-98325357D01*
X145622100Y-98340621D01*
X145622100Y-98661842D01*
X145636579Y-98753262D01*
X145636579Y-98753263D01*
X145636580Y-98753265D01*
X145692723Y-98863453D01*
X145780168Y-98950898D01*
X145890356Y-99007041D01*
X145981778Y-99021521D01*
X145981779Y-99021521D01*
X146518221Y-99021521D01*
X146518222Y-99021521D01*
X146609644Y-99007041D01*
X146719832Y-98950898D01*
X146807277Y-98863453D01*
X146863420Y-98753265D01*
X146877900Y-98661843D01*
X146877900Y-98100399D01*
X146863420Y-98008977D01*
X146807277Y-97898789D01*
X146719832Y-97811344D01*
X146609644Y-97755201D01*
X146609642Y-97755200D01*
X146609641Y-97755200D01*
X146539414Y-97744077D01*
X146518222Y-97740721D01*
X145981778Y-97740721D01*
X145967299Y-97743014D01*
X145890357Y-97755200D01*
X145831987Y-97784941D01*
X145792082Y-97794521D01*
X145083462Y-97794521D01*
X145026961Y-97773956D01*
X145003052Y-97742126D01*
X144993261Y-97719952D01*
X144984220Y-97699476D01*
X144904145Y-97619401D01*
X144904143Y-97619400D01*
X144800553Y-97573660D01*
X144800551Y-97573659D01*
X144800550Y-97573659D01*
X144793061Y-97572790D01*
X144775237Y-97570722D01*
X144775232Y-97570721D01*
X144775226Y-97570721D01*
X143434774Y-97570721D01*
X143434768Y-97570721D01*
X143434762Y-97570722D01*
X143409450Y-97573659D01*
X143409446Y-97573660D01*
X143305856Y-97619400D01*
X143225779Y-97699477D01*
X143180039Y-97803067D01*
X143180038Y-97803071D01*
X143177101Y-97828383D01*
X143177100Y-97828402D01*
X143177100Y-98218839D01*
X140464216Y-98218839D01*
X140112039Y-97866662D01*
X140110470Y-97865010D01*
X140082670Y-97834135D01*
X140082669Y-97834134D01*
X140060972Y-97824473D01*
X140048858Y-97817896D01*
X140036022Y-97809561D01*
X140028936Y-97804960D01*
X140028933Y-97804959D01*
X140028932Y-97804959D01*
X140022058Y-97803870D01*
X140000064Y-97797355D01*
X139993699Y-97794521D01*
X139993697Y-97794521D01*
X139969947Y-97794521D01*
X139956197Y-97793439D01*
X139944119Y-97791526D01*
X139932743Y-97789724D01*
X139932740Y-97789724D01*
X139926017Y-97791526D01*
X139903267Y-97794521D01*
X139733462Y-97794521D01*
X139676961Y-97773956D01*
X139653052Y-97742126D01*
X139643261Y-97719952D01*
X139634220Y-97699476D01*
X139554145Y-97619401D01*
X139554143Y-97619400D01*
X139450553Y-97573660D01*
X139450551Y-97573659D01*
X139450550Y-97573659D01*
X139443061Y-97572790D01*
X139425237Y-97570722D01*
X139425232Y-97570721D01*
X139425226Y-97570721D01*
X138084774Y-97570721D01*
X138084768Y-97570721D01*
X138084762Y-97570722D01*
X138059450Y-97573659D01*
X138059446Y-97573660D01*
X137955856Y-97619400D01*
X137875779Y-97699477D01*
X137830039Y-97803067D01*
X137830038Y-97803071D01*
X137827101Y-97828383D01*
X137827100Y-97828402D01*
X137827100Y-98218839D01*
X135349100Y-98218839D01*
X135349100Y-97472791D01*
X135369665Y-97416290D01*
X135421736Y-97386226D01*
X135423250Y-97385973D01*
X135479644Y-97377041D01*
X135589832Y-97320898D01*
X135677277Y-97233453D01*
X135733420Y-97123265D01*
X135747900Y-97031843D01*
X136042100Y-97031843D01*
X136042366Y-97033521D01*
X136056579Y-97123262D01*
X136056579Y-97123263D01*
X136056580Y-97123265D01*
X136112723Y-97233453D01*
X136200168Y-97320898D01*
X136310356Y-97377041D01*
X136401778Y-97391521D01*
X136401779Y-97391521D01*
X136938221Y-97391521D01*
X136938222Y-97391521D01*
X137029644Y-97377041D01*
X137139832Y-97320898D01*
X137227277Y-97233453D01*
X137283420Y-97123265D01*
X137294332Y-97054369D01*
X137323482Y-97001782D01*
X137379616Y-96980234D01*
X137381150Y-96980221D01*
X137775434Y-96980221D01*
X137831935Y-97000786D01*
X137855844Y-97032616D01*
X137871651Y-97068416D01*
X137875780Y-97077766D01*
X137955855Y-97157841D01*
X138059450Y-97203583D01*
X138084774Y-97206521D01*
X138570052Y-97206521D01*
X138594817Y-97210082D01*
X138685536Y-97236720D01*
X138685539Y-97236720D01*
X138685541Y-97236721D01*
X138685542Y-97236721D01*
X138824458Y-97236721D01*
X138824459Y-97236721D01*
X138824461Y-97236720D01*
X138824463Y-97236720D01*
X138915183Y-97210082D01*
X138939948Y-97206521D01*
X139425219Y-97206521D01*
X139425226Y-97206521D01*
X139450550Y-97203583D01*
X139554145Y-97157841D01*
X139634220Y-97077766D01*
X139679962Y-96974171D01*
X139682900Y-96948847D01*
X139682900Y-96558395D01*
X139679962Y-96533071D01*
X139634220Y-96429476D01*
X139554145Y-96349401D01*
X139554143Y-96349400D01*
X139450553Y-96303660D01*
X139450551Y-96303659D01*
X139450550Y-96303659D01*
X139443061Y-96302790D01*
X139425237Y-96300722D01*
X139425232Y-96300721D01*
X139425226Y-96300721D01*
X139425219Y-96300721D01*
X138939948Y-96300721D01*
X138915183Y-96297160D01*
X138824463Y-96270521D01*
X138824459Y-96270521D01*
X138685541Y-96270521D01*
X138685536Y-96270521D01*
X138594817Y-96297160D01*
X138570052Y-96300721D01*
X138084774Y-96300721D01*
X138084768Y-96300721D01*
X138084762Y-96300722D01*
X138059450Y-96303659D01*
X138059446Y-96303660D01*
X137955856Y-96349400D01*
X137875779Y-96429477D01*
X137858052Y-96469626D01*
X137816418Y-96513006D01*
X137777642Y-96522021D01*
X137381150Y-96522021D01*
X137324649Y-96501456D01*
X137294585Y-96449385D01*
X137294332Y-96447872D01*
X137292372Y-96435496D01*
X137283420Y-96378977D01*
X137227277Y-96268789D01*
X137139832Y-96181344D01*
X137029644Y-96125201D01*
X137029642Y-96125200D01*
X137029641Y-96125200D01*
X136959414Y-96114077D01*
X136938222Y-96110721D01*
X136401778Y-96110721D01*
X136384574Y-96113445D01*
X136310358Y-96125200D01*
X136310356Y-96125200D01*
X136310356Y-96125201D01*
X136200168Y-96181344D01*
X136112723Y-96268789D01*
X136096453Y-96300722D01*
X136056579Y-96378979D01*
X136048581Y-96429477D01*
X136042100Y-96470399D01*
X136042100Y-97031843D01*
X135747900Y-97031843D01*
X135747900Y-96470399D01*
X135733420Y-96378977D01*
X135677277Y-96268789D01*
X135589832Y-96181344D01*
X135479644Y-96125201D01*
X135479642Y-96125200D01*
X135479641Y-96125200D01*
X135409414Y-96114077D01*
X135388222Y-96110721D01*
X134851778Y-96110721D01*
X134834574Y-96113445D01*
X134760358Y-96125200D01*
X134760356Y-96125200D01*
X134760356Y-96125201D01*
X134650168Y-96181344D01*
X134562723Y-96268789D01*
X134546453Y-96300722D01*
X134506579Y-96378979D01*
X134498581Y-96429477D01*
X134492100Y-96470399D01*
X134492100Y-97031843D01*
X130465300Y-97031843D01*
X130465300Y-95206842D01*
X134492100Y-95206842D01*
X134506579Y-95298262D01*
X134506579Y-95298263D01*
X134506580Y-95298265D01*
X134562723Y-95408453D01*
X134650168Y-95495898D01*
X134760356Y-95552041D01*
X134851778Y-95566521D01*
X134851779Y-95566521D01*
X135388221Y-95566521D01*
X135388222Y-95566521D01*
X135479644Y-95552041D01*
X135589832Y-95495898D01*
X135677277Y-95408453D01*
X135733420Y-95298265D01*
X135744332Y-95229369D01*
X135773482Y-95176782D01*
X135829616Y-95155234D01*
X135831150Y-95155221D01*
X135958850Y-95155221D01*
X136015351Y-95175786D01*
X136045415Y-95227857D01*
X136045668Y-95229370D01*
X136056579Y-95298262D01*
X136056579Y-95298263D01*
X136056580Y-95298265D01*
X136112723Y-95408453D01*
X136200168Y-95495898D01*
X136310356Y-95552041D01*
X136401778Y-95566521D01*
X136401779Y-95566521D01*
X136938221Y-95566521D01*
X136938222Y-95566521D01*
X137029644Y-95552041D01*
X137139832Y-95495898D01*
X137227277Y-95408453D01*
X137283420Y-95298265D01*
X137294332Y-95229369D01*
X137323482Y-95176782D01*
X137379616Y-95155234D01*
X137381150Y-95155221D01*
X143337018Y-95155221D01*
X143393519Y-95175786D01*
X143423583Y-95227857D01*
X143423836Y-95229371D01*
X143431579Y-95278262D01*
X143431579Y-95278263D01*
X143431580Y-95278265D01*
X143487723Y-95388453D01*
X143575168Y-95475898D01*
X143685356Y-95532041D01*
X143750950Y-95542430D01*
X143803539Y-95571580D01*
X143825087Y-95627714D01*
X143825100Y-95629248D01*
X143825100Y-96212821D01*
X143804535Y-96269322D01*
X143752464Y-96299386D01*
X143737200Y-96300721D01*
X143434774Y-96300721D01*
X143434768Y-96300721D01*
X143434762Y-96300722D01*
X143409450Y-96303659D01*
X143409446Y-96303660D01*
X143305856Y-96349400D01*
X143225779Y-96429477D01*
X143180039Y-96533067D01*
X143180038Y-96533071D01*
X143177101Y-96558383D01*
X143177100Y-96558402D01*
X143177100Y-96948848D01*
X143180038Y-96974170D01*
X143180039Y-96974174D01*
X143222962Y-97071384D01*
X143225780Y-97077766D01*
X143305855Y-97157841D01*
X143409450Y-97203583D01*
X143434774Y-97206521D01*
X143434781Y-97206521D01*
X144775219Y-97206521D01*
X144775226Y-97206521D01*
X144800550Y-97203583D01*
X144904145Y-97157841D01*
X144984220Y-97077766D01*
X144984223Y-97077759D01*
X144988343Y-97071746D01*
X145037240Y-97036754D01*
X145060861Y-97033521D01*
X145651382Y-97033521D01*
X145707883Y-97054086D01*
X145713525Y-97059255D01*
X145780168Y-97125898D01*
X145890356Y-97182041D01*
X145981778Y-97196521D01*
X145981779Y-97196521D01*
X146518221Y-97196521D01*
X146518222Y-97196521D01*
X146609644Y-97182041D01*
X146719832Y-97125898D01*
X146807277Y-97038453D01*
X146863420Y-96928265D01*
X146877900Y-96836843D01*
X146877900Y-96275399D01*
X146863420Y-96183977D01*
X146807277Y-96073789D01*
X146719832Y-95986344D01*
X146609644Y-95930201D01*
X146609642Y-95930200D01*
X146609641Y-95930200D01*
X146539414Y-95919077D01*
X146518222Y-95915721D01*
X145981778Y-95915721D01*
X145964574Y-95918445D01*
X145890358Y-95930200D01*
X145780168Y-95986344D01*
X145692723Y-96073789D01*
X145636579Y-96183979D01*
X145622100Y-96275399D01*
X145622100Y-96385821D01*
X145601535Y-96442322D01*
X145549464Y-96472386D01*
X145534200Y-96473721D01*
X145060861Y-96473721D01*
X145004360Y-96453156D01*
X144988343Y-96435496D01*
X144984220Y-96429477D01*
X144984220Y-96429476D01*
X144904145Y-96349401D01*
X144904143Y-96349400D01*
X144800553Y-96303660D01*
X144800551Y-96303659D01*
X144800550Y-96303659D01*
X144793061Y-96302790D01*
X144775237Y-96300722D01*
X144775232Y-96300721D01*
X144775226Y-96300721D01*
X144775219Y-96300721D01*
X144472800Y-96300721D01*
X144416299Y-96280156D01*
X144386235Y-96228085D01*
X144384900Y-96212821D01*
X144384900Y-95630040D01*
X144405465Y-95573539D01*
X144457536Y-95543475D01*
X144459035Y-95543224D01*
X144529644Y-95532041D01*
X144639832Y-95475898D01*
X144727277Y-95388453D01*
X144783420Y-95278265D01*
X144797900Y-95186843D01*
X144797900Y-95186805D01*
X145142601Y-95186805D01*
X145157060Y-95278106D01*
X145157061Y-95278109D01*
X145213130Y-95388152D01*
X145300468Y-95475490D01*
X145410513Y-95531560D01*
X145410512Y-95531560D01*
X145501816Y-95546020D01*
X145705500Y-95546020D01*
X145705500Y-95546019D01*
X145959500Y-95546019D01*
X145959501Y-95546020D01*
X146163183Y-95546020D01*
X146163184Y-95546019D01*
X146254485Y-95531560D01*
X146254488Y-95531559D01*
X146364531Y-95475490D01*
X146451869Y-95388152D01*
X146507939Y-95278107D01*
X146522400Y-95186805D01*
X146522400Y-95045622D01*
X146522399Y-95045621D01*
X145959501Y-95045621D01*
X145959500Y-95045622D01*
X145959500Y-95546019D01*
X145705500Y-95546019D01*
X145705500Y-95045622D01*
X145705499Y-95045621D01*
X145142602Y-95045621D01*
X145142601Y-95045622D01*
X145142601Y-95186805D01*
X144797900Y-95186805D01*
X144797900Y-94791620D01*
X145142600Y-94791620D01*
X145142601Y-94791621D01*
X145705499Y-94791621D01*
X145705500Y-94791620D01*
X145959500Y-94791620D01*
X145959501Y-94791621D01*
X146522398Y-94791621D01*
X146522399Y-94791620D01*
X146522399Y-94650438D01*
X146522398Y-94650436D01*
X146507939Y-94559135D01*
X146507938Y-94559132D01*
X146451869Y-94449089D01*
X146364531Y-94361751D01*
X146254486Y-94305681D01*
X146254487Y-94305681D01*
X146163184Y-94291221D01*
X145959501Y-94291221D01*
X145959500Y-94291222D01*
X145959500Y-94791620D01*
X145705500Y-94791620D01*
X145705500Y-94291222D01*
X145705499Y-94291221D01*
X145501817Y-94291221D01*
X145501815Y-94291222D01*
X145410514Y-94305681D01*
X145410511Y-94305682D01*
X145300468Y-94361751D01*
X145213130Y-94449089D01*
X145157060Y-94559134D01*
X145142600Y-94650436D01*
X145142600Y-94791620D01*
X144797900Y-94791620D01*
X144797900Y-94650399D01*
X144783420Y-94558977D01*
X144727277Y-94448789D01*
X144639832Y-94361344D01*
X144529644Y-94305201D01*
X144529642Y-94305200D01*
X144529641Y-94305200D01*
X144461549Y-94294415D01*
X144408960Y-94265264D01*
X144387413Y-94209130D01*
X144387400Y-94207597D01*
X144387400Y-94183469D01*
X144407965Y-94126968D01*
X144413145Y-94121314D01*
X145348188Y-93186271D01*
X146497995Y-92036463D01*
X146508230Y-92029108D01*
X146507595Y-92028267D01*
X146514099Y-92023355D01*
X146539021Y-91996016D01*
X146544321Y-91990202D01*
X146545668Y-91988791D01*
X146558758Y-91975702D01*
X146560713Y-91972847D01*
X146564483Y-91968085D01*
X146584598Y-91946022D01*
X146588084Y-91937021D01*
X146597534Y-91919094D01*
X146602986Y-91911137D01*
X146609819Y-91882082D01*
X146611616Y-91876277D01*
X146622400Y-91848443D01*
X146622400Y-91838784D01*
X146624735Y-91818658D01*
X146626943Y-91809272D01*
X146622821Y-91779726D01*
X146622400Y-91773649D01*
X146622400Y-90808759D01*
X146642965Y-90752258D01*
X146695036Y-90722194D01*
X146696550Y-90721941D01*
X146699202Y-90721521D01*
X146699208Y-90721521D01*
X146793555Y-90706578D01*
X146907271Y-90648637D01*
X146997516Y-90558392D01*
X147055457Y-90444676D01*
X147070400Y-90350329D01*
X147070400Y-90299921D01*
X147090965Y-90243420D01*
X147143036Y-90213356D01*
X147158300Y-90212021D01*
X152451349Y-90212021D01*
X152507850Y-90232586D01*
X152513504Y-90237766D01*
X154047732Y-91771995D01*
X154050323Y-91774823D01*
X154078358Y-91808234D01*
X154078359Y-91808235D01*
X154078362Y-91808238D01*
X154116161Y-91830060D01*
X154119384Y-91832114D01*
X154155134Y-91857147D01*
X154158768Y-91858120D01*
X154179975Y-91866904D01*
X154183239Y-91868789D01*
X154226223Y-91876367D01*
X154229960Y-91877197D01*
X154237134Y-91879119D01*
X154272109Y-91888491D01*
X154315585Y-91884687D01*
X154319400Y-91884521D01*
X159119034Y-91884521D01*
X159175535Y-91905086D01*
X159205599Y-91957157D01*
X159205852Y-91958669D01*
X159206579Y-91963263D01*
X159206579Y-91963264D01*
X159206580Y-91963265D01*
X159262723Y-92073453D01*
X159350168Y-92160898D01*
X159460356Y-92217041D01*
X159463992Y-92217617D01*
X159465949Y-92217927D01*
X159518538Y-92247076D01*
X159540087Y-92303209D01*
X159540100Y-92304745D01*
X159540100Y-93186271D01*
X159519535Y-93242772D01*
X159514355Y-93248426D01*
X155704501Y-97058280D01*
X155694275Y-97065649D01*
X155694901Y-97066477D01*
X155688403Y-97071384D01*
X155658181Y-97104534D01*
X155656782Y-97105999D01*
X155643741Y-97119042D01*
X155643738Y-97119045D01*
X155641780Y-97121903D01*
X155638005Y-97126667D01*
X155617903Y-97148719D01*
X155617898Y-97148727D01*
X155614413Y-97157723D01*
X155604971Y-97175638D01*
X155599513Y-97183605D01*
X155592682Y-97212649D01*
X155590880Y-97218468D01*
X155580100Y-97246297D01*
X155580100Y-97255953D01*
X155577765Y-97276077D01*
X155575556Y-97285469D01*
X155579678Y-97315019D01*
X155580100Y-97321098D01*
X155580100Y-104746273D01*
X155559535Y-104802774D01*
X155554355Y-104808428D01*
X154757307Y-105605476D01*
X154702813Y-105630887D01*
X154695152Y-105631221D01*
X150663104Y-105631221D01*
X150606603Y-105610656D01*
X150576539Y-105558585D01*
X150576286Y-105557071D01*
X150573420Y-105538979D01*
X150573420Y-105538977D01*
X150517277Y-105428789D01*
X150429832Y-105341344D01*
X150319644Y-105285201D01*
X150319642Y-105285200D01*
X150319641Y-105285200D01*
X150249414Y-105274077D01*
X150228222Y-105270721D01*
X149691778Y-105270721D01*
X149674574Y-105273445D01*
X149600358Y-105285200D01*
X149490168Y-105341344D01*
X149402723Y-105428789D01*
X149346579Y-105538979D01*
X149343714Y-105557071D01*
X149332100Y-105630399D01*
X149332100Y-106191843D01*
X149332305Y-106193138D01*
X149346579Y-106283262D01*
X149346579Y-106283263D01*
X149346580Y-106283265D01*
X149402723Y-106393453D01*
X149490168Y-106480898D01*
X149600356Y-106537041D01*
X149691778Y-106551521D01*
X149691779Y-106551521D01*
X150228221Y-106551521D01*
X150228222Y-106551521D01*
X150319644Y-106537041D01*
X150429832Y-106480898D01*
X150517277Y-106393453D01*
X150573420Y-106283265D01*
X150576285Y-106265171D01*
X150605436Y-106212582D01*
X150661570Y-106191034D01*
X150663104Y-106191021D01*
X154787501Y-106191021D01*
X154799942Y-106193052D01*
X154800088Y-106192013D01*
X154808154Y-106193137D01*
X154808160Y-106193139D01*
X154852954Y-106191067D01*
X154854982Y-106191021D01*
X154873435Y-106191021D01*
X154876832Y-106190385D01*
X154882883Y-106189684D01*
X154901272Y-106188833D01*
X154912693Y-106188306D01*
X154918549Y-106185719D01*
X154921519Y-106184409D01*
X154940874Y-106178414D01*
X154950363Y-106176641D01*
X154975741Y-106160925D01*
X154981107Y-106158096D01*
X155008422Y-106146037D01*
X155015248Y-106139210D01*
X155031128Y-106126631D01*
X155039333Y-106121552D01*
X155057313Y-106097740D01*
X155061304Y-106093153D01*
X156015495Y-105138963D01*
X156025730Y-105131608D01*
X156025095Y-105130767D01*
X156031595Y-105125858D01*
X156031596Y-105125856D01*
X156031599Y-105125855D01*
X156061831Y-105092689D01*
X156063179Y-105091278D01*
X156076258Y-105078202D01*
X156078208Y-105075353D01*
X156081996Y-105070571D01*
X156102097Y-105048523D01*
X156102096Y-105048523D01*
X156102098Y-105048522D01*
X156105584Y-105039521D01*
X156115034Y-105021594D01*
X156120486Y-105013637D01*
X156127319Y-104984582D01*
X156129116Y-104978777D01*
X156139900Y-104950943D01*
X156139900Y-104941284D01*
X156142235Y-104921158D01*
X156144443Y-104911772D01*
X156140321Y-104882226D01*
X156139900Y-104876149D01*
X156139900Y-97450968D01*
X156160465Y-97394467D01*
X156165634Y-97388824D01*
X159975493Y-93578964D01*
X159985730Y-93571608D01*
X159985095Y-93570767D01*
X159991598Y-93565856D01*
X159991599Y-93565855D01*
X160021843Y-93532677D01*
X160023168Y-93531290D01*
X160036258Y-93518201D01*
X160038210Y-93515349D01*
X160041983Y-93510584D01*
X160062098Y-93488522D01*
X160065586Y-93479515D01*
X160075033Y-93461595D01*
X160080486Y-93453637D01*
X160087316Y-93424591D01*
X160089115Y-93418778D01*
X160099900Y-93390943D01*
X160099900Y-93381289D01*
X160102235Y-93361164D01*
X160104444Y-93351772D01*
X160100322Y-93322220D01*
X160099900Y-93316142D01*
X160099900Y-92304745D01*
X160120465Y-92248244D01*
X160172536Y-92218180D01*
X160174051Y-92217927D01*
X160175527Y-92217693D01*
X160179644Y-92217041D01*
X160289832Y-92160898D01*
X160377277Y-92073453D01*
X160416733Y-91996014D01*
X160460706Y-91955009D01*
X160495052Y-91948021D01*
X161417547Y-91948021D01*
X161474048Y-91968586D01*
X161479702Y-91973766D01*
X162357355Y-92851419D01*
X162382766Y-92905913D01*
X162383100Y-92913574D01*
X162383100Y-93677552D01*
X162375157Y-93714067D01*
X162321702Y-93831116D01*
X162321700Y-93831122D01*
X162301932Y-93968617D01*
X162301932Y-93968624D01*
X162321700Y-94106119D01*
X162321701Y-94106124D01*
X162321702Y-94106126D01*
X162379411Y-94232490D01*
X162470383Y-94337478D01*
X162470385Y-94337479D01*
X162470386Y-94337480D01*
X162587245Y-94412581D01*
X162587246Y-94412581D01*
X162587249Y-94412583D01*
X162678035Y-94439240D01*
X162720536Y-94451720D01*
X162720539Y-94451720D01*
X162720541Y-94451721D01*
X162720542Y-94451721D01*
X162859458Y-94451721D01*
X162859459Y-94451721D01*
X162859461Y-94451720D01*
X162859463Y-94451720D01*
X162886473Y-94443789D01*
X162992751Y-94412583D01*
X163040324Y-94382010D01*
X166687206Y-94382010D01*
X168032794Y-94382010D01*
X167360000Y-93709216D01*
X166687206Y-94382010D01*
X163040324Y-94382010D01*
X163109617Y-94337478D01*
X163190078Y-94244620D01*
X166257600Y-94244620D01*
X166266442Y-94289075D01*
X166300124Y-94339482D01*
X166342323Y-94367678D01*
X167180392Y-93529610D01*
X167539605Y-93529610D01*
X168377675Y-94367680D01*
X168419874Y-94339484D01*
X168419875Y-94339483D01*
X168453557Y-94289075D01*
X168462399Y-94244620D01*
X168462399Y-92814599D01*
X168453557Y-92770144D01*
X168419875Y-92719737D01*
X168377675Y-92691539D01*
X167539605Y-93529610D01*
X167180392Y-93529610D01*
X167180393Y-93529609D01*
X166342323Y-92691539D01*
X166300126Y-92719735D01*
X166266442Y-92770144D01*
X166257600Y-92814599D01*
X166257600Y-94244620D01*
X163190078Y-94244620D01*
X163200589Y-94232490D01*
X163258298Y-94106126D01*
X163270973Y-94017969D01*
X163278068Y-93968624D01*
X163278068Y-93968617D01*
X163258299Y-93831122D01*
X163258298Y-93831121D01*
X163258298Y-93831116D01*
X163204842Y-93714066D01*
X163196900Y-93677552D01*
X163196900Y-92677210D01*
X166687206Y-92677210D01*
X167360000Y-93350003D01*
X168032794Y-92677210D01*
X166687206Y-92677210D01*
X163196900Y-92677210D01*
X163196900Y-92674956D01*
X163196899Y-92674926D01*
X163196899Y-92644175D01*
X163196899Y-92644174D01*
X163189016Y-92619913D01*
X163185798Y-92606505D01*
X163181809Y-92581317D01*
X163181809Y-92581315D01*
X163170230Y-92558590D01*
X163164950Y-92545844D01*
X163157069Y-92521587D01*
X163142076Y-92500951D01*
X163134869Y-92489191D01*
X163131884Y-92483334D01*
X163123292Y-92466470D01*
X163100368Y-92443546D01*
X163100366Y-92443543D01*
X161887577Y-91230755D01*
X161887576Y-91230755D01*
X161864651Y-91207829D01*
X161864648Y-91207827D01*
X161841929Y-91196251D01*
X161830168Y-91189044D01*
X161809536Y-91174053D01*
X161809527Y-91174048D01*
X161785270Y-91166167D01*
X161772527Y-91160889D01*
X161749804Y-91149311D01*
X161749807Y-91149311D01*
X161724614Y-91145321D01*
X161711207Y-91142103D01*
X161686946Y-91134221D01*
X161654524Y-91134221D01*
X160495052Y-91134221D01*
X160438551Y-91113656D01*
X160416733Y-91086228D01*
X160377277Y-91008789D01*
X160289832Y-90921344D01*
X160179644Y-90865201D01*
X160179642Y-90865200D01*
X160179641Y-90865200D01*
X160109414Y-90854077D01*
X160088222Y-90850721D01*
X159551778Y-90850721D01*
X159534574Y-90853445D01*
X159460358Y-90865200D01*
X159350168Y-90921344D01*
X159262723Y-91008789D01*
X159206579Y-91118978D01*
X159205852Y-91123573D01*
X159176701Y-91176161D01*
X159120567Y-91197708D01*
X159119034Y-91197721D01*
X154481151Y-91197721D01*
X154424650Y-91177156D01*
X154418996Y-91171976D01*
X153393826Y-90146805D01*
X159192601Y-90146805D01*
X159207060Y-90238106D01*
X159207061Y-90238109D01*
X159263130Y-90348152D01*
X159350468Y-90435490D01*
X159460513Y-90491560D01*
X159460512Y-90491560D01*
X159551816Y-90506020D01*
X159693000Y-90506020D01*
X159693000Y-89943122D01*
X159692999Y-89943121D01*
X159947000Y-89943121D01*
X159947000Y-90506019D01*
X159947001Y-90506020D01*
X160088183Y-90506020D01*
X160088184Y-90506019D01*
X160179485Y-90491560D01*
X160179488Y-90491559D01*
X160289531Y-90435490D01*
X160376869Y-90348152D01*
X160432939Y-90238107D01*
X160447400Y-90146805D01*
X160447400Y-89943122D01*
X160447399Y-89943121D01*
X159947000Y-89943121D01*
X159692999Y-89943121D01*
X159192602Y-89943121D01*
X159192601Y-89943122D01*
X159192601Y-90146805D01*
X153393826Y-90146805D01*
X152959326Y-89712305D01*
X166749884Y-89712305D01*
X166769115Y-89944401D01*
X166769116Y-89944407D01*
X166826286Y-90170165D01*
X166826289Y-90170173D01*
X166919835Y-90383435D01*
X166919840Y-90383446D01*
X166919844Y-90383452D01*
X167047215Y-90578410D01*
X167047216Y-90578412D01*
X167179576Y-90722194D01*
X167204954Y-90749761D01*
X167388740Y-90892807D01*
X167593563Y-91003652D01*
X167813837Y-91079272D01*
X167813839Y-91079272D01*
X167813841Y-91079273D01*
X168043550Y-91117605D01*
X168043554Y-91117605D01*
X168276450Y-91117605D01*
X168506158Y-91079273D01*
X168506158Y-91079272D01*
X168506163Y-91079272D01*
X168726437Y-91003652D01*
X168931260Y-90892807D01*
X169115046Y-90749761D01*
X169272780Y-90578416D01*
X169400160Y-90383446D01*
X169493712Y-90170169D01*
X169522342Y-90057112D01*
X169550883Y-89944407D01*
X169550884Y-89944401D01*
X169555463Y-89889142D01*
X169570116Y-89712305D01*
X169550884Y-89480208D01*
X169550883Y-89480202D01*
X169493713Y-89254444D01*
X169493710Y-89254436D01*
X169421148Y-89089012D01*
X169400160Y-89041164D01*
X169319435Y-88917605D01*
X169272784Y-88846199D01*
X169272783Y-88846197D01*
X169115050Y-88674853D01*
X169115048Y-88674852D01*
X169115046Y-88674849D01*
X168931260Y-88531803D01*
X168726437Y-88420958D01*
X168726433Y-88420956D01*
X168726430Y-88420955D01*
X168506167Y-88345339D01*
X168506158Y-88345336D01*
X168276450Y-88307005D01*
X168276446Y-88307005D01*
X168043554Y-88307005D01*
X168043550Y-88307005D01*
X167813841Y-88345336D01*
X167813832Y-88345339D01*
X167593569Y-88420955D01*
X167593564Y-88420957D01*
X167593563Y-88420958D01*
X167388740Y-88531803D01*
X167379779Y-88538778D01*
X167204949Y-88674853D01*
X167047216Y-88846197D01*
X167047215Y-88846199D01*
X166919844Y-89041157D01*
X166919835Y-89041174D01*
X166826289Y-89254436D01*
X166826286Y-89254444D01*
X166769116Y-89480202D01*
X166769115Y-89480208D01*
X166749884Y-89712305D01*
X152959326Y-89712305D01*
X152936141Y-89689120D01*
X159192600Y-89689120D01*
X159192601Y-89689121D01*
X159692999Y-89689121D01*
X159693000Y-89689120D01*
X159693000Y-89689119D01*
X159947000Y-89689119D01*
X159947001Y-89689121D01*
X160447398Y-89689121D01*
X160447399Y-89689120D01*
X160447399Y-89485437D01*
X160447398Y-89485436D01*
X160432939Y-89394135D01*
X160432938Y-89394132D01*
X160376869Y-89284089D01*
X160289531Y-89196751D01*
X160179486Y-89140681D01*
X160179487Y-89140681D01*
X160088184Y-89126221D01*
X159947001Y-89126221D01*
X159947000Y-89126222D01*
X159947000Y-89689119D01*
X159693000Y-89689119D01*
X159693000Y-89126221D01*
X159551817Y-89126221D01*
X159551815Y-89126222D01*
X159460514Y-89140681D01*
X159460511Y-89140682D01*
X159350468Y-89196751D01*
X159263130Y-89284089D01*
X159207060Y-89394134D01*
X159192600Y-89485436D01*
X159192600Y-89689120D01*
X152936141Y-89689120D01*
X152884766Y-89637745D01*
X152882181Y-89634925D01*
X152854138Y-89601504D01*
X152838619Y-89592544D01*
X152816348Y-89579685D01*
X152813113Y-89577624D01*
X152777368Y-89552594D01*
X152773717Y-89551616D01*
X152752525Y-89542837D01*
X152749261Y-89540952D01*
X152706281Y-89533373D01*
X152702538Y-89532543D01*
X152660390Y-89521250D01*
X152635458Y-89523432D01*
X152616914Y-89525054D01*
X152613100Y-89525221D01*
X147158300Y-89525221D01*
X147101799Y-89504656D01*
X147071735Y-89452585D01*
X147070400Y-89437321D01*
X147070400Y-89386914D01*
X147055457Y-89292567D01*
X147055457Y-89292566D01*
X146997516Y-89178850D01*
X146959347Y-89140681D01*
X146909645Y-89090978D01*
X146884234Y-89036485D01*
X146883900Y-89028824D01*
X146883900Y-87366407D01*
X146904465Y-87309906D01*
X146916028Y-87298467D01*
X147062589Y-87178188D01*
X147187916Y-87025477D01*
X147281042Y-86851249D01*
X147338389Y-86662202D01*
X147357753Y-86465599D01*
X147357753Y-86465598D01*
X147882247Y-86465598D01*
X147901612Y-86662208D01*
X147958957Y-86851247D01*
X147958958Y-86851249D01*
X148052084Y-87025477D01*
X148177411Y-87178188D01*
X148330122Y-87303515D01*
X148504350Y-87396641D01*
X148693397Y-87453988D01*
X148890000Y-87473352D01*
X149086603Y-87453988D01*
X149275650Y-87396641D01*
X149449878Y-87303515D01*
X149602589Y-87178188D01*
X149727916Y-87025477D01*
X149821042Y-86851249D01*
X149878389Y-86662202D01*
X149897753Y-86465599D01*
X150422247Y-86465599D01*
X150441612Y-86662208D01*
X150498957Y-86851247D01*
X150498958Y-86851249D01*
X150592084Y-87025477D01*
X150717411Y-87178188D01*
X150870122Y-87303515D01*
X151044350Y-87396641D01*
X151233397Y-87453988D01*
X151430000Y-87473352D01*
X151626603Y-87453988D01*
X151815650Y-87396641D01*
X151989878Y-87303515D01*
X152142589Y-87178188D01*
X152267916Y-87025477D01*
X152361042Y-86851249D01*
X152418389Y-86662202D01*
X152437753Y-86465599D01*
X152962247Y-86465599D01*
X152981612Y-86662208D01*
X153038957Y-86851247D01*
X153038958Y-86851249D01*
X153132084Y-87025477D01*
X153257411Y-87178188D01*
X153410122Y-87303515D01*
X153584350Y-87396641D01*
X153773397Y-87453988D01*
X153970000Y-87473352D01*
X154166603Y-87453988D01*
X154355650Y-87396641D01*
X154529878Y-87303515D01*
X154682589Y-87178188D01*
X154807916Y-87025477D01*
X154901042Y-86851249D01*
X154958389Y-86662202D01*
X154977753Y-86465599D01*
X155502247Y-86465599D01*
X155521612Y-86662208D01*
X155578957Y-86851247D01*
X155578958Y-86851249D01*
X155672084Y-87025477D01*
X155797411Y-87178188D01*
X155950122Y-87303515D01*
X156124350Y-87396641D01*
X156313397Y-87453988D01*
X156510000Y-87473352D01*
X156706603Y-87453988D01*
X156895650Y-87396641D01*
X157069878Y-87303515D01*
X157222589Y-87178188D01*
X157347916Y-87025477D01*
X157441042Y-86851249D01*
X157498389Y-86662202D01*
X157517753Y-86465599D01*
X157498389Y-86268996D01*
X157441042Y-86079949D01*
X157347916Y-85905721D01*
X157222589Y-85753010D01*
X157069878Y-85627683D01*
X156895650Y-85534557D01*
X156895649Y-85534556D01*
X156895648Y-85534556D01*
X156706609Y-85477211D01*
X156706604Y-85477210D01*
X156706603Y-85477210D01*
X156510000Y-85457846D01*
X156509999Y-85457846D01*
X156462657Y-85462508D01*
X156313397Y-85477210D01*
X156313395Y-85477210D01*
X156313390Y-85477211D01*
X156124351Y-85534556D01*
X155950121Y-85627683D01*
X155797413Y-85753008D01*
X155797409Y-85753012D01*
X155672084Y-85905720D01*
X155578957Y-86079950D01*
X155521612Y-86268989D01*
X155502247Y-86465599D01*
X154977753Y-86465599D01*
X154958389Y-86268996D01*
X154901042Y-86079949D01*
X154807916Y-85905721D01*
X154682589Y-85753010D01*
X154529878Y-85627683D01*
X154355650Y-85534557D01*
X154355649Y-85534556D01*
X154355648Y-85534556D01*
X154166609Y-85477211D01*
X154166604Y-85477210D01*
X154166603Y-85477210D01*
X153970000Y-85457846D01*
X153773397Y-85477210D01*
X153773395Y-85477210D01*
X153773390Y-85477211D01*
X153584351Y-85534556D01*
X153410121Y-85627683D01*
X153257413Y-85753008D01*
X153257409Y-85753012D01*
X153132084Y-85905720D01*
X153038957Y-86079950D01*
X152981612Y-86268989D01*
X152962247Y-86465599D01*
X152437753Y-86465599D01*
X152418389Y-86268996D01*
X152361042Y-86079949D01*
X152267916Y-85905721D01*
X152142589Y-85753010D01*
X151989878Y-85627683D01*
X151815650Y-85534557D01*
X151815649Y-85534556D01*
X151815648Y-85534556D01*
X151626609Y-85477211D01*
X151626604Y-85477210D01*
X151626603Y-85477210D01*
X151430000Y-85457846D01*
X151233397Y-85477210D01*
X151233395Y-85477210D01*
X151233390Y-85477211D01*
X151044351Y-85534556D01*
X150870121Y-85627683D01*
X150717413Y-85753008D01*
X150717409Y-85753012D01*
X150592084Y-85905720D01*
X150498957Y-86079950D01*
X150441612Y-86268989D01*
X150422247Y-86465599D01*
X149897753Y-86465599D01*
X149878389Y-86268996D01*
X149821042Y-86079949D01*
X149727916Y-85905721D01*
X149602589Y-85753010D01*
X149449878Y-85627683D01*
X149275650Y-85534557D01*
X149275649Y-85534556D01*
X149275648Y-85534556D01*
X149086609Y-85477211D01*
X149086604Y-85477210D01*
X149086603Y-85477210D01*
X148890000Y-85457846D01*
X148889999Y-85457846D01*
X148842657Y-85462508D01*
X148693397Y-85477210D01*
X148693395Y-85477210D01*
X148693390Y-85477211D01*
X148504351Y-85534556D01*
X148330121Y-85627683D01*
X148177413Y-85753008D01*
X148177409Y-85753012D01*
X148052084Y-85905720D01*
X147958957Y-86079950D01*
X147901612Y-86268989D01*
X147882247Y-86465598D01*
X147357753Y-86465598D01*
X147338389Y-86268996D01*
X147281042Y-86079949D01*
X147187916Y-85905721D01*
X147062589Y-85753010D01*
X146909878Y-85627683D01*
X146735650Y-85534557D01*
X146735649Y-85534556D01*
X146735648Y-85534556D01*
X146546609Y-85477211D01*
X146546604Y-85477210D01*
X146546603Y-85477210D01*
X146350000Y-85457846D01*
X146153397Y-85477210D01*
X146153395Y-85477210D01*
X146153390Y-85477211D01*
X145964351Y-85534556D01*
X145790121Y-85627683D01*
X145637413Y-85753008D01*
X145637409Y-85753012D01*
X145512084Y-85905720D01*
X145418957Y-86079950D01*
X145361612Y-86268989D01*
X145342247Y-86465598D01*
X145361612Y-86662208D01*
X145418957Y-86851247D01*
X145418958Y-86851249D01*
X145512084Y-87025477D01*
X145637411Y-87178188D01*
X145783964Y-87298461D01*
X145814593Y-87350200D01*
X145816100Y-87366407D01*
X145816100Y-89015939D01*
X145795535Y-89072440D01*
X145779872Y-89087048D01*
X145777731Y-89088603D01*
X145687482Y-89178852D01*
X145629542Y-89292567D01*
X145614600Y-89386914D01*
X145614600Y-90350327D01*
X145629542Y-90444674D01*
X145660798Y-90506019D01*
X145687484Y-90558392D01*
X145777729Y-90648637D01*
X145891445Y-90706578D01*
X145891444Y-90706578D01*
X145904903Y-90708709D01*
X145985792Y-90721521D01*
X145985798Y-90721521D01*
X145988450Y-90721941D01*
X146041038Y-90751091D01*
X146062587Y-90807224D01*
X146062600Y-90808759D01*
X146062600Y-91643772D01*
X146042035Y-91700273D01*
X146036855Y-91705927D01*
X143952001Y-93790780D01*
X143941775Y-93798149D01*
X143942401Y-93798977D01*
X143935903Y-93803884D01*
X143905681Y-93837034D01*
X143904282Y-93838499D01*
X143891241Y-93851542D01*
X143891238Y-93851545D01*
X143889280Y-93854403D01*
X143885505Y-93859167D01*
X143865403Y-93881219D01*
X143865398Y-93881227D01*
X143861913Y-93890223D01*
X143852471Y-93908138D01*
X143847013Y-93916105D01*
X143840182Y-93945149D01*
X143838380Y-93950968D01*
X143827600Y-93978797D01*
X143827600Y-93988453D01*
X143825265Y-94008577D01*
X143823056Y-94017969D01*
X143827178Y-94047519D01*
X143827600Y-94053598D01*
X143827600Y-94207597D01*
X143807035Y-94264098D01*
X143754964Y-94294162D01*
X143753451Y-94294415D01*
X143685358Y-94305200D01*
X143575168Y-94361344D01*
X143487723Y-94448789D01*
X143431579Y-94558979D01*
X143421460Y-94622872D01*
X143392310Y-94675460D01*
X143336176Y-94697008D01*
X143334642Y-94697021D01*
X137381150Y-94697021D01*
X137324649Y-94676456D01*
X137294585Y-94624385D01*
X137294332Y-94622872D01*
X137283420Y-94553979D01*
X137283420Y-94553977D01*
X137227277Y-94443789D01*
X137139832Y-94356344D01*
X137029644Y-94300201D01*
X137029642Y-94300200D01*
X137029641Y-94300200D01*
X136959398Y-94289075D01*
X136938222Y-94285721D01*
X136401778Y-94285721D01*
X136384574Y-94288445D01*
X136310358Y-94300200D01*
X136200168Y-94356344D01*
X136112723Y-94443789D01*
X136056579Y-94553979D01*
X136045668Y-94622872D01*
X136016518Y-94675460D01*
X135960384Y-94697008D01*
X135958850Y-94697021D01*
X135831150Y-94697021D01*
X135774649Y-94676456D01*
X135744585Y-94624385D01*
X135744332Y-94622872D01*
X135733420Y-94553979D01*
X135733420Y-94553977D01*
X135677277Y-94443789D01*
X135589832Y-94356344D01*
X135479644Y-94300201D01*
X135479642Y-94300200D01*
X135479641Y-94300200D01*
X135409398Y-94289075D01*
X135388222Y-94285721D01*
X134851778Y-94285721D01*
X134834574Y-94288445D01*
X134760358Y-94300200D01*
X134650168Y-94356344D01*
X134562723Y-94443789D01*
X134506579Y-94553979D01*
X134492100Y-94645399D01*
X134492100Y-95206842D01*
X130465300Y-95206842D01*
X130465300Y-89712304D01*
X130749884Y-89712304D01*
X130769115Y-89944401D01*
X130769116Y-89944407D01*
X130826286Y-90170165D01*
X130826289Y-90170173D01*
X130919835Y-90383435D01*
X130919840Y-90383446D01*
X130919844Y-90383452D01*
X131047215Y-90578410D01*
X131047216Y-90578412D01*
X131179576Y-90722194D01*
X131204954Y-90749761D01*
X131388740Y-90892807D01*
X131593563Y-91003652D01*
X131813837Y-91079272D01*
X131813839Y-91079272D01*
X131813841Y-91079273D01*
X132043550Y-91117605D01*
X132043554Y-91117605D01*
X132276450Y-91117605D01*
X132506158Y-91079273D01*
X132506158Y-91079272D01*
X132506163Y-91079272D01*
X132726437Y-91003652D01*
X132931260Y-90892807D01*
X133115046Y-90749761D01*
X133272780Y-90578416D01*
X133400160Y-90383446D01*
X133493712Y-90170169D01*
X133522342Y-90057112D01*
X133537914Y-89995621D01*
X143565100Y-89995621D01*
X143565100Y-90350289D01*
X143580023Y-90444518D01*
X143580023Y-90444519D01*
X143637891Y-90558090D01*
X143728030Y-90648229D01*
X143841601Y-90706097D01*
X143935831Y-90721020D01*
X143935832Y-90721021D01*
X144165499Y-90721021D01*
X144165500Y-90721020D01*
X144165500Y-89995621D01*
X144419500Y-89995621D01*
X144419500Y-90721020D01*
X144419501Y-90721021D01*
X144649168Y-90721021D01*
X144649168Y-90721020D01*
X144743397Y-90706097D01*
X144743398Y-90706097D01*
X144856969Y-90648229D01*
X144947108Y-90558090D01*
X145004976Y-90444519D01*
X145004976Y-90444518D01*
X145019899Y-90350289D01*
X145019900Y-90350289D01*
X145019900Y-89995622D01*
X145019899Y-89995621D01*
X144419500Y-89995621D01*
X144165500Y-89995621D01*
X143565100Y-89995621D01*
X133537914Y-89995621D01*
X133550883Y-89944407D01*
X133550884Y-89944401D01*
X133555463Y-89889142D01*
X133567687Y-89741620D01*
X143565100Y-89741620D01*
X143565101Y-89741621D01*
X144165499Y-89741621D01*
X144165500Y-89741620D01*
X144165500Y-89016221D01*
X144419500Y-89016221D01*
X144419500Y-89741620D01*
X144419501Y-89741621D01*
X145019899Y-89741621D01*
X145019900Y-89741619D01*
X145019900Y-89386952D01*
X145004976Y-89292723D01*
X145004976Y-89292722D01*
X144947108Y-89179151D01*
X144856969Y-89089012D01*
X144743398Y-89031144D01*
X144649169Y-89016221D01*
X144419500Y-89016221D01*
X144165500Y-89016221D01*
X143935831Y-89016221D01*
X143841602Y-89031144D01*
X143841601Y-89031144D01*
X143728030Y-89089012D01*
X143637891Y-89179151D01*
X143580023Y-89292722D01*
X143580023Y-89292723D01*
X143565100Y-89386952D01*
X143565100Y-89741620D01*
X133567687Y-89741620D01*
X133570116Y-89712305D01*
X133550884Y-89480208D01*
X133550883Y-89480202D01*
X133493713Y-89254444D01*
X133493710Y-89254436D01*
X133421148Y-89089012D01*
X133400160Y-89041164D01*
X133319435Y-88917605D01*
X133272784Y-88846199D01*
X133272783Y-88846197D01*
X133115050Y-88674853D01*
X133115048Y-88674852D01*
X133115046Y-88674849D01*
X132931260Y-88531803D01*
X132726437Y-88420958D01*
X132726433Y-88420956D01*
X132726430Y-88420955D01*
X132506167Y-88345339D01*
X132506158Y-88345336D01*
X132276450Y-88307005D01*
X132276446Y-88307005D01*
X132043554Y-88307005D01*
X132043550Y-88307005D01*
X131813841Y-88345336D01*
X131813832Y-88345339D01*
X131593569Y-88420955D01*
X131593564Y-88420957D01*
X131593563Y-88420958D01*
X131388740Y-88531803D01*
X131379779Y-88538778D01*
X131204949Y-88674853D01*
X131047216Y-88846197D01*
X131047215Y-88846199D01*
X130919844Y-89041157D01*
X130919835Y-89041174D01*
X130826289Y-89254436D01*
X130826286Y-89254444D01*
X130769116Y-89480202D01*
X130769115Y-89480208D01*
X130749884Y-89712304D01*
X130465300Y-89712304D01*
X130465300Y-88784618D01*
X130485865Y-88728118D01*
X130509248Y-88708496D01*
X132895735Y-87330657D01*
X142807100Y-87330657D01*
X142810988Y-87350200D01*
X142815972Y-87375257D01*
X142849766Y-87425833D01*
X142866701Y-87437149D01*
X142900341Y-87459627D01*
X142907741Y-87461098D01*
X142944943Y-87468499D01*
X144675056Y-87468498D01*
X144675058Y-87468498D01*
X144687750Y-87465973D01*
X144719658Y-87459627D01*
X144770234Y-87425833D01*
X144804028Y-87375257D01*
X144812900Y-87330656D01*
X144812899Y-85600543D01*
X144812899Y-85600542D01*
X144812899Y-85600540D01*
X144809111Y-85581501D01*
X144804028Y-85555941D01*
X144770234Y-85505365D01*
X144770002Y-85505210D01*
X144719658Y-85471570D01*
X144682456Y-85464170D01*
X144675057Y-85462699D01*
X144675056Y-85462699D01*
X142944941Y-85462699D01*
X142900341Y-85471571D01*
X142849767Y-85505364D01*
X142849764Y-85505367D01*
X142815971Y-85555940D01*
X142807100Y-85600542D01*
X142807100Y-87330657D01*
X132895735Y-87330657D01*
X138793467Y-83925599D01*
X142802247Y-83925599D01*
X142821612Y-84122208D01*
X142878898Y-84311051D01*
X142878958Y-84311249D01*
X142972084Y-84485477D01*
X143097411Y-84638188D01*
X143250122Y-84763515D01*
X143424350Y-84856641D01*
X143558715Y-84897400D01*
X143611771Y-84913495D01*
X143613397Y-84913988D01*
X143810000Y-84933352D01*
X144006603Y-84913988D01*
X144195650Y-84856641D01*
X144369878Y-84763515D01*
X144522589Y-84638188D01*
X144647916Y-84485477D01*
X144741042Y-84311249D01*
X144798389Y-84122202D01*
X144817753Y-83925599D01*
X145342247Y-83925599D01*
X145361612Y-84122208D01*
X145418898Y-84311051D01*
X145418958Y-84311249D01*
X145512084Y-84485477D01*
X145637411Y-84638188D01*
X145790122Y-84763515D01*
X145964350Y-84856641D01*
X146098715Y-84897400D01*
X146151771Y-84913495D01*
X146153397Y-84913988D01*
X146350000Y-84933352D01*
X146546603Y-84913988D01*
X146735650Y-84856641D01*
X146909878Y-84763515D01*
X147062589Y-84638188D01*
X147187916Y-84485477D01*
X147281042Y-84311249D01*
X147338389Y-84122202D01*
X147357753Y-83925599D01*
X147882247Y-83925599D01*
X147901612Y-84122208D01*
X147958898Y-84311051D01*
X147958958Y-84311249D01*
X148052084Y-84485477D01*
X148177411Y-84638188D01*
X148330122Y-84763515D01*
X148504350Y-84856641D01*
X148638715Y-84897400D01*
X148691771Y-84913495D01*
X148693397Y-84913988D01*
X148890000Y-84933352D01*
X149086603Y-84913988D01*
X149275650Y-84856641D01*
X149449878Y-84763515D01*
X149602589Y-84638188D01*
X149727916Y-84485477D01*
X149821042Y-84311249D01*
X149878389Y-84122202D01*
X149885244Y-84052599D01*
X150435259Y-84052599D01*
X150442105Y-84122110D01*
X150499419Y-84311051D01*
X150592504Y-84485200D01*
X150717759Y-84637823D01*
X150717775Y-84637839D01*
X150870398Y-84763094D01*
X150870397Y-84763094D01*
X151044547Y-84856179D01*
X151233491Y-84913494D01*
X151233498Y-84913495D01*
X151302999Y-84920340D01*
X151303000Y-84920340D01*
X151303000Y-84412480D01*
X151394237Y-84425599D01*
X151465763Y-84425599D01*
X151557000Y-84412480D01*
X151557000Y-84920340D01*
X151626501Y-84913495D01*
X151626508Y-84913494D01*
X151815452Y-84856179D01*
X151989601Y-84763094D01*
X152142224Y-84637839D01*
X152142240Y-84637823D01*
X152267495Y-84485200D01*
X152360580Y-84311051D01*
X152417894Y-84122110D01*
X152424741Y-84052599D01*
X152975259Y-84052599D01*
X152982105Y-84122110D01*
X153039419Y-84311051D01*
X153132504Y-84485200D01*
X153257759Y-84637823D01*
X153257775Y-84637839D01*
X153410398Y-84763094D01*
X153410397Y-84763094D01*
X153584547Y-84856179D01*
X153773491Y-84913494D01*
X153773498Y-84913495D01*
X153842999Y-84920340D01*
X153843000Y-84920340D01*
X153843000Y-84412480D01*
X153934237Y-84425599D01*
X154005763Y-84425599D01*
X154097000Y-84412480D01*
X154097000Y-84920340D01*
X154166501Y-84913495D01*
X154166508Y-84913494D01*
X154355452Y-84856179D01*
X154529601Y-84763094D01*
X154682224Y-84637839D01*
X154682240Y-84637823D01*
X154807495Y-84485200D01*
X154900580Y-84311051D01*
X154957894Y-84122110D01*
X154964741Y-84052599D01*
X154453818Y-84052599D01*
X154470000Y-83997488D01*
X154470000Y-83925599D01*
X155502247Y-83925599D01*
X155521612Y-84122208D01*
X155578898Y-84311051D01*
X155578958Y-84311249D01*
X155672084Y-84485477D01*
X155797411Y-84638188D01*
X155950122Y-84763515D01*
X156124350Y-84856641D01*
X156258715Y-84897400D01*
X156311771Y-84913495D01*
X156313397Y-84913988D01*
X156510000Y-84933352D01*
X156706603Y-84913988D01*
X156895650Y-84856641D01*
X157069878Y-84763515D01*
X157222589Y-84638188D01*
X157347916Y-84485477D01*
X157441042Y-84311249D01*
X157498389Y-84122202D01*
X157517753Y-83925599D01*
X157498389Y-83728996D01*
X157441042Y-83539949D01*
X157347916Y-83365721D01*
X157222589Y-83213010D01*
X157069878Y-83087683D01*
X156895650Y-82994557D01*
X156895649Y-82994556D01*
X156895648Y-82994556D01*
X156706609Y-82937211D01*
X156706604Y-82937210D01*
X156706603Y-82937210D01*
X156510000Y-82917846D01*
X156313397Y-82937210D01*
X156313395Y-82937210D01*
X156313390Y-82937211D01*
X156124351Y-82994556D01*
X155950121Y-83087683D01*
X155797413Y-83213008D01*
X155797409Y-83213012D01*
X155672084Y-83365720D01*
X155578957Y-83539950D01*
X155521612Y-83728989D01*
X155502247Y-83925599D01*
X154470000Y-83925599D01*
X154470000Y-83853710D01*
X154453818Y-83798599D01*
X154964741Y-83798599D01*
X154957894Y-83729087D01*
X154900580Y-83540146D01*
X154807495Y-83365997D01*
X154682240Y-83213374D01*
X154682224Y-83213358D01*
X154529601Y-83088103D01*
X154529602Y-83088103D01*
X154355452Y-82995018D01*
X154166511Y-82937704D01*
X154166512Y-82937704D01*
X154097000Y-82930857D01*
X154097000Y-83438717D01*
X154005763Y-83425599D01*
X153934237Y-83425599D01*
X153843000Y-83438717D01*
X153843000Y-82930857D01*
X153773488Y-82937704D01*
X153584547Y-82995018D01*
X153410398Y-83088103D01*
X153257775Y-83213358D01*
X153257759Y-83213374D01*
X153132504Y-83365997D01*
X153039419Y-83540146D01*
X152982105Y-83729087D01*
X152975259Y-83798599D01*
X153486182Y-83798599D01*
X153470000Y-83853710D01*
X153470000Y-83997488D01*
X153486182Y-84052599D01*
X152975259Y-84052599D01*
X152424741Y-84052599D01*
X151913818Y-84052599D01*
X151930000Y-83997488D01*
X151930000Y-83853710D01*
X151913818Y-83798599D01*
X152424741Y-83798599D01*
X152417894Y-83729087D01*
X152360580Y-83540146D01*
X152267495Y-83365997D01*
X152142240Y-83213374D01*
X152142224Y-83213358D01*
X151989601Y-83088103D01*
X151989602Y-83088103D01*
X151815452Y-82995018D01*
X151626511Y-82937704D01*
X151626512Y-82937704D01*
X151557000Y-82930857D01*
X151557000Y-83438717D01*
X151465763Y-83425599D01*
X151394237Y-83425599D01*
X151303000Y-83438717D01*
X151303000Y-82930857D01*
X151233488Y-82937704D01*
X151044547Y-82995018D01*
X150870398Y-83088103D01*
X150717775Y-83213358D01*
X150717759Y-83213374D01*
X150592504Y-83365997D01*
X150499419Y-83540146D01*
X150442105Y-83729087D01*
X150435259Y-83798599D01*
X150946182Y-83798599D01*
X150930000Y-83853710D01*
X150930000Y-83997488D01*
X150946182Y-84052599D01*
X150435259Y-84052599D01*
X149885244Y-84052599D01*
X149897753Y-83925599D01*
X149878389Y-83728996D01*
X149821042Y-83539949D01*
X149727916Y-83365721D01*
X149602589Y-83213010D01*
X149449878Y-83087683D01*
X149275650Y-82994557D01*
X149275649Y-82994556D01*
X149275648Y-82994556D01*
X149086609Y-82937211D01*
X149086604Y-82937210D01*
X149086603Y-82937210D01*
X148890000Y-82917846D01*
X148693397Y-82937210D01*
X148693395Y-82937210D01*
X148693390Y-82937211D01*
X148504351Y-82994556D01*
X148330121Y-83087683D01*
X148177413Y-83213008D01*
X148177409Y-83213012D01*
X148052084Y-83365720D01*
X147958957Y-83539950D01*
X147901612Y-83728989D01*
X147882247Y-83925599D01*
X147357753Y-83925599D01*
X147338389Y-83728996D01*
X147281042Y-83539949D01*
X147187916Y-83365721D01*
X147062589Y-83213010D01*
X146909878Y-83087683D01*
X146735650Y-82994557D01*
X146735649Y-82994556D01*
X146735648Y-82994556D01*
X146546609Y-82937211D01*
X146546604Y-82937210D01*
X146546603Y-82937210D01*
X146350000Y-82917846D01*
X146153397Y-82937210D01*
X146153395Y-82937210D01*
X146153390Y-82937211D01*
X145964351Y-82994556D01*
X145790121Y-83087683D01*
X145637413Y-83213008D01*
X145637409Y-83213012D01*
X145512084Y-83365720D01*
X145418957Y-83539950D01*
X145361612Y-83728989D01*
X145342247Y-83925599D01*
X144817753Y-83925599D01*
X144798389Y-83728996D01*
X144741042Y-83539949D01*
X144647916Y-83365721D01*
X144522589Y-83213010D01*
X144369878Y-83087683D01*
X144195650Y-82994557D01*
X144195649Y-82994556D01*
X144195648Y-82994556D01*
X144006609Y-82937211D01*
X144006604Y-82937210D01*
X144006603Y-82937210D01*
X143810000Y-82917846D01*
X143613397Y-82937210D01*
X143613395Y-82937210D01*
X143613390Y-82937211D01*
X143424351Y-82994556D01*
X143250121Y-83087683D01*
X143097413Y-83213008D01*
X143097409Y-83213012D01*
X142972084Y-83365720D01*
X142878957Y-83539950D01*
X142821612Y-83728989D01*
X142802247Y-83925599D01*
X138793467Y-83925599D01*
X146770598Y-79320000D01*
X148749884Y-79320000D01*
X148769115Y-79552096D01*
X148769116Y-79552102D01*
X148826286Y-79777860D01*
X148826289Y-79777868D01*
X148897987Y-79941321D01*
X148919840Y-79991141D01*
X148919844Y-79991147D01*
X149047215Y-80186105D01*
X149047216Y-80186107D01*
X149047220Y-80186111D01*
X149204954Y-80357456D01*
X149388740Y-80500502D01*
X149593563Y-80611347D01*
X149813837Y-80686967D01*
X149813839Y-80686967D01*
X149813841Y-80686968D01*
X150043550Y-80725300D01*
X150043554Y-80725300D01*
X150276450Y-80725300D01*
X150506158Y-80686968D01*
X150506158Y-80686967D01*
X150506163Y-80686967D01*
X150726437Y-80611347D01*
X150931260Y-80500502D01*
X151115046Y-80357456D01*
X151272780Y-80186111D01*
X151400160Y-79991141D01*
X151493712Y-79777864D01*
X151550884Y-79552097D01*
X151570116Y-79320000D01*
X151550884Y-79087903D01*
X151550883Y-79087897D01*
X151493713Y-78862139D01*
X151493710Y-78862131D01*
X151400164Y-78648869D01*
X151400160Y-78648859D01*
X151319435Y-78525300D01*
X151272784Y-78453894D01*
X151272783Y-78453892D01*
X151115050Y-78282548D01*
X151115048Y-78282547D01*
X151115046Y-78282544D01*
X150931260Y-78139498D01*
X150726437Y-78028653D01*
X150726433Y-78028651D01*
X150726430Y-78028650D01*
X150506167Y-77953034D01*
X150506158Y-77953031D01*
X150276450Y-77914700D01*
X150276446Y-77914700D01*
X150043554Y-77914700D01*
X150043550Y-77914700D01*
X149813841Y-77953031D01*
X149813832Y-77953034D01*
X149593569Y-78028650D01*
X149388740Y-78139498D01*
X149204949Y-78282548D01*
X149047216Y-78453892D01*
X149047215Y-78453894D01*
X148919844Y-78648852D01*
X148919835Y-78648869D01*
X148826289Y-78862131D01*
X148826286Y-78862139D01*
X148769116Y-79087897D01*
X148769115Y-79087903D01*
X148749884Y-79320000D01*
X146770598Y-79320000D01*
X150116050Y-77388502D01*
X150175263Y-77378062D01*
X150203946Y-77388502D01*
G37*
%TD.AperFunction*%
%TD*%
M02*
