%TF.GenerationSoftware,KiCad,Pcbnew,7.0.5*%
%TF.CreationDate,2023-06-05T00:46:42-04:00*%
%TF.ProjectId,SIDE,53494445-2e6b-4696-9361-645f70636258,rev?*%
%TF.SameCoordinates,Original*%
%TF.FileFunction,Copper,L1,Top*%
%TF.FilePolarity,Positive*%
%FSLAX46Y46*%
G04 Gerber Fmt 4.6, Leading zero omitted, Abs format (unit mm)*
G04 Created by KiCad (PCBNEW 7.0.5) date 2023-06-05 00:46:42*
%MOMM*%
%LPD*%
G01*
G04 APERTURE LIST*
G04 Aperture macros list*
%AMOutline5P*
0 Free polygon, 5 corners , with rotation*
0 The origin of the aperture is its center*
0 number of corners: always 5*
0 $1 to $10 corner X, Y*
0 $11 Rotation angle, in degrees counterclockwise*
0 create outline with 5 corners*
4,1,5,$1,$2,$3,$4,$5,$6,$7,$8,$9,$10,$1,$2,$11*%
%AMOutline6P*
0 Free polygon, 6 corners , with rotation*
0 The origin of the aperture is its center*
0 number of corners: always 6*
0 $1 to $12 corner X, Y*
0 $13 Rotation angle, in degrees counterclockwise*
0 create outline with 6 corners*
4,1,6,$1,$2,$3,$4,$5,$6,$7,$8,$9,$10,$11,$12,$1,$2,$13*%
%AMOutline7P*
0 Free polygon, 7 corners , with rotation*
0 The origin of the aperture is its center*
0 number of corners: always 7*
0 $1 to $14 corner X, Y*
0 $15 Rotation angle, in degrees counterclockwise*
0 create outline with 7 corners*
4,1,7,$1,$2,$3,$4,$5,$6,$7,$8,$9,$10,$11,$12,$13,$14,$1,$2,$15*%
%AMOutline8P*
0 Free polygon, 8 corners , with rotation*
0 The origin of the aperture is its center*
0 number of corners: always 8*
0 $1 to $16 corner X, Y*
0 $17 Rotation angle, in degrees counterclockwise*
0 create outline with 8 corners*
4,1,8,$1,$2,$3,$4,$5,$6,$7,$8,$9,$10,$11,$12,$13,$14,$15,$16,$1,$2,$17*%
G04 Aperture macros list end*
%ADD10C,0.200000*%
%TA.AperFunction,NonConductor*%
%ADD11C,0.200000*%
%TD*%
%TA.AperFunction,SMDPad,CuDef*%
%ADD12R,14.000000X3.000000*%
%TD*%
%TA.AperFunction,SMDPad,CuDef*%
%ADD13Outline5P,-0.287500X0.244000X0.287500X0.244000X0.287500X-0.067100X0.110600X-0.244000X-0.287500X-0.244000X90.000000*%
%TD*%
%TA.AperFunction,SMDPad,CuDef*%
%ADD14R,0.488000X0.575000*%
%TD*%
%TA.AperFunction,SMDPad,CuDef*%
%ADD15R,0.500000X0.300000*%
%TD*%
%TA.AperFunction,ComponentPad*%
%ADD16C,1.600000*%
%TD*%
%TA.AperFunction,ComponentPad*%
%ADD17O,1.600000X1.600000*%
%TD*%
%TA.AperFunction,SMDPad,CuDef*%
%ADD18R,0.550000X0.300000*%
%TD*%
%TA.AperFunction,ViaPad*%
%ADD19C,0.660400*%
%TD*%
%TA.AperFunction,Conductor*%
%ADD20C,0.254000*%
%TD*%
%TA.AperFunction,Conductor*%
%ADD21C,0.152400*%
%TD*%
%TA.AperFunction,Conductor*%
%ADD22C,0.508000*%
%TD*%
G04 APERTURE END LIST*
D10*
D11*
X140005828Y-69817292D02*
X139948685Y-69988720D01*
X139948685Y-69988720D02*
X139891542Y-70045863D01*
X139891542Y-70045863D02*
X139777257Y-70103006D01*
X139777257Y-70103006D02*
X139605828Y-70103006D01*
X139605828Y-70103006D02*
X139491542Y-70045863D01*
X139491542Y-70045863D02*
X139434400Y-69988720D01*
X139434400Y-69988720D02*
X139377257Y-69874435D01*
X139377257Y-69874435D02*
X139377257Y-69417292D01*
X139377257Y-69417292D02*
X140577257Y-69417292D01*
X140577257Y-69417292D02*
X140577257Y-69817292D01*
X140577257Y-69817292D02*
X140520114Y-69931578D01*
X140520114Y-69931578D02*
X140462971Y-69988720D01*
X140462971Y-69988720D02*
X140348685Y-70045863D01*
X140348685Y-70045863D02*
X140234400Y-70045863D01*
X140234400Y-70045863D02*
X140120114Y-69988720D01*
X140120114Y-69988720D02*
X140062971Y-69931578D01*
X140062971Y-69931578D02*
X140005828Y-69817292D01*
X140005828Y-69817292D02*
X140005828Y-69417292D01*
X140577257Y-70617292D02*
X139605828Y-70617292D01*
X139605828Y-70617292D02*
X139491542Y-70674435D01*
X139491542Y-70674435D02*
X139434400Y-70731578D01*
X139434400Y-70731578D02*
X139377257Y-70845863D01*
X139377257Y-70845863D02*
X139377257Y-71074435D01*
X139377257Y-71074435D02*
X139434400Y-71188720D01*
X139434400Y-71188720D02*
X139491542Y-71245863D01*
X139491542Y-71245863D02*
X139605828Y-71303006D01*
X139605828Y-71303006D02*
X140577257Y-71303006D01*
X139377257Y-72560149D02*
X139948685Y-72160149D01*
X139377257Y-71874435D02*
X140577257Y-71874435D01*
X140577257Y-71874435D02*
X140577257Y-72331578D01*
X140577257Y-72331578D02*
X140520114Y-72445863D01*
X140520114Y-72445863D02*
X140462971Y-72503006D01*
X140462971Y-72503006D02*
X140348685Y-72560149D01*
X140348685Y-72560149D02*
X140177257Y-72560149D01*
X140177257Y-72560149D02*
X140062971Y-72503006D01*
X140062971Y-72503006D02*
X140005828Y-72445863D01*
X140005828Y-72445863D02*
X139948685Y-72331578D01*
X139948685Y-72331578D02*
X139948685Y-71874435D01*
X139377257Y-73074435D02*
X140577257Y-73074435D01*
X140577257Y-73074435D02*
X139377257Y-73760149D01*
X139377257Y-73760149D02*
X140577257Y-73760149D01*
X139377257Y-74331578D02*
X140577257Y-74331578D01*
X139377257Y-74903007D02*
X140577257Y-74903007D01*
X140577257Y-74903007D02*
X139377257Y-75588721D01*
X139377257Y-75588721D02*
X140577257Y-75588721D01*
X140520114Y-76788721D02*
X140577257Y-76674436D01*
X140577257Y-76674436D02*
X140577257Y-76503007D01*
X140577257Y-76503007D02*
X140520114Y-76331578D01*
X140520114Y-76331578D02*
X140405828Y-76217293D01*
X140405828Y-76217293D02*
X140291542Y-76160150D01*
X140291542Y-76160150D02*
X140062971Y-76103007D01*
X140062971Y-76103007D02*
X139891542Y-76103007D01*
X139891542Y-76103007D02*
X139662971Y-76160150D01*
X139662971Y-76160150D02*
X139548685Y-76217293D01*
X139548685Y-76217293D02*
X139434400Y-76331578D01*
X139434400Y-76331578D02*
X139377257Y-76503007D01*
X139377257Y-76503007D02*
X139377257Y-76617293D01*
X139377257Y-76617293D02*
X139434400Y-76788721D01*
X139434400Y-76788721D02*
X139491542Y-76845864D01*
X139491542Y-76845864D02*
X139891542Y-76845864D01*
X139891542Y-76845864D02*
X139891542Y-76617293D01*
X139377257Y-78960150D02*
X139948685Y-78560150D01*
X139377257Y-78274436D02*
X140577257Y-78274436D01*
X140577257Y-78274436D02*
X140577257Y-78731579D01*
X140577257Y-78731579D02*
X140520114Y-78845864D01*
X140520114Y-78845864D02*
X140462971Y-78903007D01*
X140462971Y-78903007D02*
X140348685Y-78960150D01*
X140348685Y-78960150D02*
X140177257Y-78960150D01*
X140177257Y-78960150D02*
X140062971Y-78903007D01*
X140062971Y-78903007D02*
X140005828Y-78845864D01*
X140005828Y-78845864D02*
X139948685Y-78731579D01*
X139948685Y-78731579D02*
X139948685Y-78274436D01*
X140005828Y-79474436D02*
X140005828Y-79874436D01*
X139377257Y-80045864D02*
X139377257Y-79474436D01*
X139377257Y-79474436D02*
X140577257Y-79474436D01*
X140577257Y-79474436D02*
X140577257Y-80045864D01*
X139434400Y-80503007D02*
X139377257Y-80674436D01*
X139377257Y-80674436D02*
X139377257Y-80960150D01*
X139377257Y-80960150D02*
X139434400Y-81074436D01*
X139434400Y-81074436D02*
X139491542Y-81131578D01*
X139491542Y-81131578D02*
X139605828Y-81188721D01*
X139605828Y-81188721D02*
X139720114Y-81188721D01*
X139720114Y-81188721D02*
X139834400Y-81131578D01*
X139834400Y-81131578D02*
X139891542Y-81074436D01*
X139891542Y-81074436D02*
X139948685Y-80960150D01*
X139948685Y-80960150D02*
X140005828Y-80731578D01*
X140005828Y-80731578D02*
X140062971Y-80617293D01*
X140062971Y-80617293D02*
X140120114Y-80560150D01*
X140120114Y-80560150D02*
X140234400Y-80503007D01*
X140234400Y-80503007D02*
X140348685Y-80503007D01*
X140348685Y-80503007D02*
X140462971Y-80560150D01*
X140462971Y-80560150D02*
X140520114Y-80617293D01*
X140520114Y-80617293D02*
X140577257Y-80731578D01*
X140577257Y-80731578D02*
X140577257Y-81017293D01*
X140577257Y-81017293D02*
X140520114Y-81188721D01*
X139377257Y-81703007D02*
X140577257Y-81703007D01*
X139434400Y-82217293D02*
X139377257Y-82388722D01*
X139377257Y-82388722D02*
X139377257Y-82674436D01*
X139377257Y-82674436D02*
X139434400Y-82788722D01*
X139434400Y-82788722D02*
X139491542Y-82845864D01*
X139491542Y-82845864D02*
X139605828Y-82903007D01*
X139605828Y-82903007D02*
X139720114Y-82903007D01*
X139720114Y-82903007D02*
X139834400Y-82845864D01*
X139834400Y-82845864D02*
X139891542Y-82788722D01*
X139891542Y-82788722D02*
X139948685Y-82674436D01*
X139948685Y-82674436D02*
X140005828Y-82445864D01*
X140005828Y-82445864D02*
X140062971Y-82331579D01*
X140062971Y-82331579D02*
X140120114Y-82274436D01*
X140120114Y-82274436D02*
X140234400Y-82217293D01*
X140234400Y-82217293D02*
X140348685Y-82217293D01*
X140348685Y-82217293D02*
X140462971Y-82274436D01*
X140462971Y-82274436D02*
X140520114Y-82331579D01*
X140520114Y-82331579D02*
X140577257Y-82445864D01*
X140577257Y-82445864D02*
X140577257Y-82731579D01*
X140577257Y-82731579D02*
X140520114Y-82903007D01*
X140577257Y-83245864D02*
X140577257Y-83931579D01*
X139377257Y-83588721D02*
X140577257Y-83588721D01*
X140577257Y-84560150D02*
X140577257Y-84788722D01*
X140577257Y-84788722D02*
X140520114Y-84903007D01*
X140520114Y-84903007D02*
X140405828Y-85017293D01*
X140405828Y-85017293D02*
X140177257Y-85074436D01*
X140177257Y-85074436D02*
X139777257Y-85074436D01*
X139777257Y-85074436D02*
X139548685Y-85017293D01*
X139548685Y-85017293D02*
X139434400Y-84903007D01*
X139434400Y-84903007D02*
X139377257Y-84788722D01*
X139377257Y-84788722D02*
X139377257Y-84560150D01*
X139377257Y-84560150D02*
X139434400Y-84445865D01*
X139434400Y-84445865D02*
X139548685Y-84331579D01*
X139548685Y-84331579D02*
X139777257Y-84274436D01*
X139777257Y-84274436D02*
X140177257Y-84274436D01*
X140177257Y-84274436D02*
X140405828Y-84331579D01*
X140405828Y-84331579D02*
X140520114Y-84445865D01*
X140520114Y-84445865D02*
X140577257Y-84560150D01*
X139377257Y-86274436D02*
X139948685Y-85874436D01*
X139377257Y-85588722D02*
X140577257Y-85588722D01*
X140577257Y-85588722D02*
X140577257Y-86045865D01*
X140577257Y-86045865D02*
X140520114Y-86160150D01*
X140520114Y-86160150D02*
X140462971Y-86217293D01*
X140462971Y-86217293D02*
X140348685Y-86274436D01*
X140348685Y-86274436D02*
X140177257Y-86274436D01*
X140177257Y-86274436D02*
X140062971Y-86217293D01*
X140062971Y-86217293D02*
X140005828Y-86160150D01*
X140005828Y-86160150D02*
X139948685Y-86045865D01*
X139948685Y-86045865D02*
X139948685Y-85588722D01*
X139834400Y-87703008D02*
X139834400Y-88617294D01*
X139377257Y-90103008D02*
X140577257Y-90103008D01*
X140005828Y-90103008D02*
X140005828Y-90788722D01*
X139377257Y-90788722D02*
X140577257Y-90788722D01*
X140577257Y-91588722D02*
X140577257Y-91817294D01*
X140577257Y-91817294D02*
X140520114Y-91931579D01*
X140520114Y-91931579D02*
X140405828Y-92045865D01*
X140405828Y-92045865D02*
X140177257Y-92103008D01*
X140177257Y-92103008D02*
X139777257Y-92103008D01*
X139777257Y-92103008D02*
X139548685Y-92045865D01*
X139548685Y-92045865D02*
X139434400Y-91931579D01*
X139434400Y-91931579D02*
X139377257Y-91817294D01*
X139377257Y-91817294D02*
X139377257Y-91588722D01*
X139377257Y-91588722D02*
X139434400Y-91474437D01*
X139434400Y-91474437D02*
X139548685Y-91360151D01*
X139548685Y-91360151D02*
X139777257Y-91303008D01*
X139777257Y-91303008D02*
X140177257Y-91303008D01*
X140177257Y-91303008D02*
X140405828Y-91360151D01*
X140405828Y-91360151D02*
X140520114Y-91474437D01*
X140520114Y-91474437D02*
X140577257Y-91588722D01*
X140577257Y-92445865D02*
X140577257Y-93131580D01*
X139377257Y-92788722D02*
X140577257Y-92788722D01*
X139491542Y-94445866D02*
X139434400Y-94503009D01*
X139434400Y-94503009D02*
X139377257Y-94445866D01*
X139377257Y-94445866D02*
X139434400Y-94388723D01*
X139434400Y-94388723D02*
X139491542Y-94445866D01*
X139491542Y-94445866D02*
X139377257Y-94445866D01*
X139834400Y-94445866D02*
X140520114Y-94388723D01*
X140520114Y-94388723D02*
X140577257Y-94445866D01*
X140577257Y-94445866D02*
X140520114Y-94503009D01*
X140520114Y-94503009D02*
X139834400Y-94445866D01*
X139834400Y-94445866D02*
X140577257Y-94445866D01*
X139491542Y-95017295D02*
X139434400Y-95074438D01*
X139434400Y-95074438D02*
X139377257Y-95017295D01*
X139377257Y-95017295D02*
X139434400Y-94960152D01*
X139434400Y-94960152D02*
X139491542Y-95017295D01*
X139491542Y-95017295D02*
X139377257Y-95017295D01*
X139834400Y-95017295D02*
X140520114Y-94960152D01*
X140520114Y-94960152D02*
X140577257Y-95017295D01*
X140577257Y-95017295D02*
X140520114Y-95074438D01*
X140520114Y-95074438D02*
X139834400Y-95017295D01*
X139834400Y-95017295D02*
X140577257Y-95017295D01*
X139491542Y-95588724D02*
X139434400Y-95645867D01*
X139434400Y-95645867D02*
X139377257Y-95588724D01*
X139377257Y-95588724D02*
X139434400Y-95531581D01*
X139434400Y-95531581D02*
X139491542Y-95588724D01*
X139491542Y-95588724D02*
X139377257Y-95588724D01*
X139834400Y-95588724D02*
X140520114Y-95531581D01*
X140520114Y-95531581D02*
X140577257Y-95588724D01*
X140577257Y-95588724D02*
X140520114Y-95645867D01*
X140520114Y-95645867D02*
X139834400Y-95588724D01*
X139834400Y-95588724D02*
X140577257Y-95588724D01*
D12*
%TO.P,SC2,1,+*%
%TO.N,Net-(D2-A)*%
X154220000Y-141958022D03*
%TO.P,SC2,2,-*%
%TO.N,GND*%
X154220000Y-101958022D03*
%TD*%
D13*
%TO.P,U1,1,VDD*%
%TO.N,+1V8*%
X149102500Y-96161022D03*
D14*
%TO.P,U1,2,SCL*%
%TO.N,/SCL_1.8*%
X149902500Y-96161022D03*
%TO.P,U1,3,GND*%
%TO.N,GND*%
X150702500Y-96161022D03*
%TO.P,U1,4,LDR*%
%TO.N,unconnected-(U1-LDR-Pad4)*%
X151502500Y-96161022D03*
%TO.P,U1,5,PGND*%
%TO.N,GND*%
X151502500Y-94885022D03*
%TO.P,U1,6,GPIO*%
%TO.N,unconnected-(U1-GPIO-Pad6)*%
X150702500Y-94885022D03*
%TO.P,U1,7,INT*%
%TO.N,unconnected-(U1-INT-Pad7)*%
X149902500Y-94885022D03*
%TO.P,U1,8,SDA*%
%TO.N,/SDA_1.8*%
X149102500Y-94885022D03*
%TD*%
D12*
%TO.P,SC1,1,+*%
%TO.N,Net-(D1-A)*%
X154220000Y-49468022D03*
%TO.P,SC1,2,-*%
%TO.N,GND*%
X154220000Y-89468022D03*
%TD*%
D15*
%TO.P,U3,1,SDA*%
%TO.N,/SDA*%
X156060000Y-95123022D03*
%TO.P,U3,2,SCL*%
%TO.N,/SCL*%
X156060000Y-95923022D03*
%TO.P,U3,3,VDD*%
%TO.N,+3V3*%
X157460000Y-95923022D03*
%TO.P,U3,4,VSS*%
%TO.N,GND*%
X157460000Y-95123022D03*
%TD*%
D16*
%TO.P,R6,1*%
%TO.N,/BR+*%
X139970000Y-64330000D03*
D17*
%TO.P,R6,2*%
%TO.N,/BR-*%
X139970000Y-54170000D03*
%TD*%
D18*
%TO.P,IC1,1,GND*%
%TO.N,GND*%
X160070000Y-94873022D03*
%TO.P,IC1,2,SDA*%
%TO.N,/SDA*%
X160070000Y-95523022D03*
%TO.P,IC1,3,INT*%
%TO.N,unconnected-(IC1-INT-Pad3)*%
X160070000Y-96173022D03*
%TO.P,IC1,4,ADDR*%
%TO.N,Net-(IC1-ADDR)*%
X161820000Y-96173022D03*
%TO.P,IC1,5,SCL*%
%TO.N,/SCL*%
X161820000Y-95523022D03*
%TO.P,IC1,6,VDD*%
%TO.N,+3V3*%
X161820000Y-94873022D03*
%TD*%
D19*
%TO.N,+3V3*%
X155100000Y-96758022D03*
X157840000Y-75628022D03*
X158580000Y-95920522D03*
X152460000Y-95098022D03*
X158760000Y-85948022D03*
%TO.N,GND*%
X159970000Y-124718022D03*
X144970000Y-74718022D03*
X164970000Y-64718022D03*
X155470000Y-91718022D03*
X164970000Y-89718022D03*
X154470000Y-88718022D03*
X164970000Y-74718022D03*
X164970000Y-99718022D03*
X159970000Y-109718022D03*
X164970000Y-139718022D03*
X159970000Y-119718022D03*
X155470000Y-88718022D03*
X155470000Y-85718022D03*
X164970000Y-104718022D03*
X154470000Y-87718022D03*
X164970000Y-84718022D03*
X155470000Y-87718022D03*
X154470000Y-86718022D03*
X159970000Y-139718022D03*
X154720000Y-59718022D03*
X164970000Y-79718022D03*
X164970000Y-69718022D03*
X153470000Y-87718022D03*
X154970000Y-114718022D03*
X159970000Y-54718022D03*
X164970000Y-59718022D03*
X164970000Y-94718022D03*
X154970000Y-129718022D03*
X144970000Y-79718022D03*
X155470000Y-90718022D03*
X155470000Y-89718022D03*
X159970000Y-84718022D03*
X149970000Y-119718022D03*
X164970000Y-54718022D03*
X152470000Y-88718022D03*
X159970000Y-79718022D03*
X164970000Y-124718022D03*
X164970000Y-129718022D03*
X159970000Y-134718022D03*
X149970000Y-114718022D03*
X164970000Y-114718022D03*
X159970000Y-59718022D03*
X158580000Y-94198022D03*
X156220000Y-65000000D03*
X159970000Y-74718022D03*
X154720000Y-54718022D03*
X159720000Y-69500000D03*
X154970000Y-124718022D03*
X149970000Y-109718022D03*
X159970000Y-114718022D03*
X159970000Y-104718022D03*
X154970000Y-119718022D03*
X154970000Y-109718022D03*
X153470000Y-88718022D03*
X164970000Y-109718022D03*
X164970000Y-134718022D03*
X164970000Y-119718022D03*
X149970000Y-124718022D03*
X155470000Y-86718022D03*
X149970000Y-104718022D03*
X154970000Y-104718022D03*
X144970000Y-84718022D03*
%TO.N,/SDA_1.8*%
X149100000Y-93740522D03*
%TO.N,/SCL_1.8*%
X151307500Y-97688022D03*
%TO.N,+1V8*%
X147587500Y-96048022D03*
X147587500Y-93758022D03*
X153220000Y-72858022D03*
%TO.N,/SDA*%
X155120000Y-94648022D03*
%TO.N,/SCL*%
X155050000Y-95578022D03*
%TO.N,Net-(D1-A)*%
X155220000Y-49968022D03*
X159220000Y-49968022D03*
X151220000Y-49968022D03*
X160220000Y-48968022D03*
X150220000Y-48968022D03*
X154220000Y-48968022D03*
X158220000Y-48968022D03*
X152220000Y-48968022D03*
X153220000Y-49968022D03*
X156220000Y-48968022D03*
X149220000Y-49968022D03*
X157220000Y-49968022D03*
X148220000Y-48968022D03*
%TO.N,Net-(D2-A)*%
X159220000Y-142468022D03*
X157220000Y-142468022D03*
X158220000Y-141468022D03*
X153220000Y-142468022D03*
X151220000Y-142468022D03*
X155220000Y-142468022D03*
X148220000Y-141468022D03*
X152220000Y-141468022D03*
X154220000Y-141468022D03*
X149220000Y-142468022D03*
X150220000Y-141468022D03*
X156220000Y-141468022D03*
X160220000Y-141468022D03*
%TO.N,Net-(IC1-ADDR)*%
X161150000Y-97688022D03*
%TD*%
D20*
%TO.N,+3V3*%
X159460000Y-96878022D02*
X160400000Y-96878022D01*
D21*
X152460000Y-95098022D02*
X152460000Y-96018022D01*
D20*
X160834400Y-95329622D02*
X161291000Y-94873022D01*
X160400000Y-96878022D02*
X160834400Y-96443622D01*
X161291000Y-94873022D02*
X161820000Y-94873022D01*
X158580000Y-95920522D02*
X158580000Y-95998022D01*
D21*
X153200000Y-96758022D02*
X152460000Y-96018022D01*
D20*
X158577500Y-95923022D02*
X158580000Y-95920522D01*
X160834400Y-96443622D02*
X160834400Y-95329622D01*
D21*
X155100000Y-96758022D02*
X153200000Y-96758022D01*
D22*
X158760000Y-76548022D02*
X158760000Y-85948022D01*
D20*
X158580000Y-95998022D02*
X159460000Y-96878022D01*
X157460000Y-95923022D02*
X158577500Y-95923022D01*
D22*
X157840000Y-75628022D02*
X158760000Y-76548022D01*
D20*
%TO.N,GND*%
X158580000Y-94620000D02*
X158580000Y-94198022D01*
X158076978Y-95123022D02*
X158580000Y-94620000D01*
X157460000Y-95123022D02*
X158076978Y-95123022D01*
D21*
%TO.N,/SDA_1.8*%
X149102500Y-94885022D02*
X149102500Y-93743022D01*
X149102500Y-93743022D02*
X149100000Y-93740522D01*
%TO.N,/SCL_1.8*%
X149902500Y-96161022D02*
X149902500Y-97020522D01*
X150570000Y-97688022D02*
X151307500Y-97688022D01*
X149902500Y-97020522D02*
X150570000Y-97688022D01*
D22*
%TO.N,+1V8*%
X146320000Y-92490522D02*
X146320000Y-79758022D01*
D20*
X147700500Y-96161022D02*
X147587500Y-96048022D01*
D22*
X147587500Y-93758022D02*
X146320000Y-92490522D01*
D20*
X149102500Y-96161022D02*
X147700500Y-96161022D01*
D22*
X146320000Y-79758022D02*
X153220000Y-72858022D01*
D21*
%TO.N,/SDA*%
X156880000Y-93438022D02*
X158740000Y-93438022D01*
X156060000Y-95123022D02*
X155595000Y-95123022D01*
X155933800Y-94384222D02*
X156880000Y-93438022D01*
X155933800Y-95004586D02*
X155933800Y-94384222D01*
X159915000Y-95523022D02*
X160070000Y-95523022D01*
X156060000Y-95123022D02*
X156052236Y-95123022D01*
X158740000Y-93438022D02*
X159410000Y-94108022D01*
X159410000Y-95018022D02*
X159915000Y-95523022D01*
X159410000Y-94108022D02*
X159410000Y-95018022D01*
X156052236Y-95123022D02*
X155933800Y-95004586D01*
X155595000Y-95123022D02*
X155120000Y-94648022D01*
%TO.N,/SCL*%
X161695000Y-95523022D02*
X161190000Y-96028022D01*
X160460000Y-97358022D02*
X156640000Y-97358022D01*
X156640000Y-97358022D02*
X155920000Y-96638022D01*
X155395000Y-95923022D02*
X155050000Y-95578022D01*
X155920000Y-96638022D02*
X155920000Y-96055258D01*
X161820000Y-95523022D02*
X161695000Y-95523022D01*
X156060000Y-95923022D02*
X155395000Y-95923022D01*
X161190000Y-96028022D02*
X161190000Y-96628022D01*
X155920000Y-96055258D02*
X156052236Y-95923022D01*
X161190000Y-96628022D02*
X160460000Y-97358022D01*
X156052236Y-95923022D02*
X156060000Y-95923022D01*
%TO.N,Net-(IC1-ADDR)*%
X161820000Y-97018022D02*
X161150000Y-97688022D01*
X161820000Y-96173022D02*
X161820000Y-97018022D01*
%TD*%
%TA.AperFunction,Conductor*%
%TO.N,GND*%
G36*
X165885569Y-41542401D02*
G01*
X165913461Y-41590711D01*
X165914700Y-41604872D01*
X165914700Y-149831172D01*
X165895621Y-149883591D01*
X165847311Y-149911483D01*
X165833150Y-149912722D01*
X137606850Y-149912722D01*
X137554431Y-149893643D01*
X137526539Y-149845333D01*
X137525300Y-149831172D01*
X137525300Y-147718028D01*
X141309884Y-147718028D01*
X141329115Y-147950116D01*
X141386287Y-148175882D01*
X141386289Y-148175888D01*
X141479840Y-148389163D01*
X141607224Y-148584139D01*
X141764949Y-148755473D01*
X141764954Y-148755478D01*
X141948740Y-148898524D01*
X141948742Y-148898525D01*
X141948746Y-148898528D01*
X142153559Y-149009367D01*
X142153563Y-149009369D01*
X142153570Y-149009371D01*
X142153569Y-149009371D01*
X142373833Y-149084988D01*
X142373835Y-149084988D01*
X142373837Y-149084989D01*
X142603554Y-149123322D01*
X142603559Y-149123322D01*
X142836441Y-149123322D01*
X142836446Y-149123322D01*
X143066163Y-149084989D01*
X143286437Y-149009369D01*
X143491260Y-148898524D01*
X143675046Y-148755478D01*
X143759475Y-148663763D01*
X143832775Y-148584139D01*
X143832776Y-148584137D01*
X143832780Y-148584133D01*
X143960160Y-148389163D01*
X144053712Y-148175886D01*
X144110884Y-147950119D01*
X144130116Y-147718028D01*
X150309884Y-147718028D01*
X150329115Y-147950116D01*
X150386287Y-148175882D01*
X150386289Y-148175888D01*
X150479840Y-148389163D01*
X150607224Y-148584139D01*
X150764949Y-148755473D01*
X150764954Y-148755478D01*
X150948740Y-148898524D01*
X150948742Y-148898525D01*
X150948746Y-148898528D01*
X151153559Y-149009367D01*
X151153563Y-149009369D01*
X151153570Y-149009371D01*
X151153569Y-149009371D01*
X151373833Y-149084988D01*
X151373835Y-149084988D01*
X151373837Y-149084989D01*
X151603554Y-149123322D01*
X151603559Y-149123322D01*
X151836441Y-149123322D01*
X151836446Y-149123322D01*
X152066163Y-149084989D01*
X152286437Y-149009369D01*
X152491260Y-148898524D01*
X152675046Y-148755478D01*
X152759475Y-148663763D01*
X152832775Y-148584139D01*
X152832776Y-148584137D01*
X152832780Y-148584133D01*
X152960160Y-148389163D01*
X153053712Y-148175886D01*
X153110884Y-147950119D01*
X153130116Y-147718028D01*
X159309884Y-147718028D01*
X159329115Y-147950116D01*
X159386287Y-148175882D01*
X159386289Y-148175888D01*
X159479840Y-148389163D01*
X159607224Y-148584139D01*
X159764949Y-148755473D01*
X159764954Y-148755478D01*
X159948740Y-148898524D01*
X159948742Y-148898525D01*
X159948746Y-148898528D01*
X160153559Y-149009367D01*
X160153563Y-149009369D01*
X160153570Y-149009371D01*
X160153569Y-149009371D01*
X160373833Y-149084988D01*
X160373835Y-149084988D01*
X160373837Y-149084989D01*
X160603554Y-149123322D01*
X160603559Y-149123322D01*
X160836441Y-149123322D01*
X160836446Y-149123322D01*
X161066163Y-149084989D01*
X161286437Y-149009369D01*
X161491260Y-148898524D01*
X161675046Y-148755478D01*
X161759475Y-148663763D01*
X161832775Y-148584139D01*
X161832776Y-148584137D01*
X161832780Y-148584133D01*
X161960160Y-148389163D01*
X162053712Y-148175886D01*
X162110884Y-147950119D01*
X162130116Y-147718022D01*
X162130116Y-147718015D01*
X162110884Y-147485927D01*
X162110884Y-147485925D01*
X162053712Y-147260158D01*
X161960160Y-147046881D01*
X161832780Y-146851911D01*
X161832778Y-146851909D01*
X161832775Y-146851904D01*
X161675050Y-146680570D01*
X161675047Y-146680567D01*
X161675046Y-146680566D01*
X161491260Y-146537520D01*
X161491258Y-146537518D01*
X161491253Y-146537515D01*
X161286440Y-146426676D01*
X161286430Y-146426672D01*
X161066166Y-146351055D01*
X160836448Y-146312722D01*
X160836446Y-146312722D01*
X160603554Y-146312722D01*
X160603551Y-146312722D01*
X160373833Y-146351055D01*
X160153569Y-146426672D01*
X160153559Y-146426676D01*
X159948746Y-146537515D01*
X159764952Y-146680567D01*
X159764949Y-146680570D01*
X159607224Y-146851904D01*
X159479840Y-147046880D01*
X159386289Y-147260155D01*
X159386287Y-147260161D01*
X159329115Y-147485927D01*
X159309884Y-147718015D01*
X159309884Y-147718028D01*
X153130116Y-147718028D01*
X153130116Y-147718022D01*
X153130116Y-147718015D01*
X153110884Y-147485927D01*
X153110884Y-147485925D01*
X153053712Y-147260158D01*
X152960160Y-147046881D01*
X152832780Y-146851911D01*
X152832778Y-146851909D01*
X152832775Y-146851904D01*
X152675050Y-146680570D01*
X152675047Y-146680567D01*
X152675046Y-146680566D01*
X152491260Y-146537520D01*
X152491258Y-146537518D01*
X152491253Y-146537515D01*
X152286440Y-146426676D01*
X152286430Y-146426672D01*
X152066166Y-146351055D01*
X151836448Y-146312722D01*
X151836446Y-146312722D01*
X151603554Y-146312722D01*
X151603551Y-146312722D01*
X151373833Y-146351055D01*
X151153569Y-146426672D01*
X151153559Y-146426676D01*
X150948746Y-146537515D01*
X150764952Y-146680567D01*
X150764949Y-146680570D01*
X150607224Y-146851904D01*
X150479840Y-147046880D01*
X150386289Y-147260155D01*
X150386287Y-147260161D01*
X150329115Y-147485927D01*
X150309884Y-147718015D01*
X150309884Y-147718028D01*
X144130116Y-147718028D01*
X144130116Y-147718022D01*
X144130116Y-147718015D01*
X144110884Y-147485927D01*
X144110884Y-147485925D01*
X144053712Y-147260158D01*
X143960160Y-147046881D01*
X143832780Y-146851911D01*
X143832778Y-146851909D01*
X143832775Y-146851904D01*
X143675050Y-146680570D01*
X143675047Y-146680567D01*
X143675046Y-146680566D01*
X143491260Y-146537520D01*
X143491258Y-146537518D01*
X143491253Y-146537515D01*
X143286440Y-146426676D01*
X143286430Y-146426672D01*
X143066166Y-146351055D01*
X142836448Y-146312722D01*
X142836446Y-146312722D01*
X142603554Y-146312722D01*
X142603551Y-146312722D01*
X142373833Y-146351055D01*
X142153569Y-146426672D01*
X142153559Y-146426676D01*
X141948746Y-146537515D01*
X141764952Y-146680567D01*
X141764949Y-146680570D01*
X141607224Y-146851904D01*
X141479840Y-147046880D01*
X141386289Y-147260155D01*
X141386287Y-147260161D01*
X141329115Y-147485927D01*
X141309884Y-147718015D01*
X141309884Y-147718028D01*
X137525300Y-147718028D01*
X137525300Y-143473074D01*
X147067100Y-143473074D01*
X147067101Y-143473084D01*
X147075971Y-143517677D01*
X147075972Y-143517680D01*
X147109766Y-143568256D01*
X147109769Y-143568258D01*
X147160340Y-143602049D01*
X147160342Y-143602050D01*
X147204943Y-143610922D01*
X161235056Y-143610921D01*
X161235060Y-143610920D01*
X161235062Y-143610920D01*
X161245975Y-143608749D01*
X161279658Y-143602050D01*
X161330234Y-143568256D01*
X161364028Y-143517680D01*
X161372900Y-143473079D01*
X161372899Y-140442966D01*
X161364028Y-140398364D01*
X161330234Y-140347788D01*
X161330230Y-140347785D01*
X161279659Y-140313994D01*
X161235058Y-140305122D01*
X147204947Y-140305122D01*
X147204937Y-140305123D01*
X147160344Y-140313993D01*
X147160338Y-140313996D01*
X147109769Y-140347785D01*
X147109763Y-140347791D01*
X147075972Y-140398362D01*
X147067100Y-140442962D01*
X147067100Y-143473074D01*
X137525300Y-143473074D01*
X137525300Y-103475528D01*
X147042200Y-103475528D01*
X147042201Y-103475533D01*
X147052516Y-103527396D01*
X147091813Y-103586206D01*
X147091817Y-103586210D01*
X147150625Y-103625505D01*
X147150627Y-103625506D01*
X147202487Y-103635821D01*
X152362593Y-103635821D01*
X152721806Y-103635821D01*
X155718193Y-103635821D01*
X154219999Y-102137627D01*
X152721806Y-103635821D01*
X152362593Y-103635821D01*
X154040393Y-101958021D01*
X154399605Y-101958021D01*
X156077405Y-103635821D01*
X161237506Y-103635821D01*
X161237511Y-103635820D01*
X161289374Y-103625505D01*
X161348184Y-103586208D01*
X161348188Y-103586204D01*
X161387483Y-103527396D01*
X161387484Y-103527394D01*
X161397799Y-103475537D01*
X161397799Y-100440515D01*
X161397798Y-100440510D01*
X161387483Y-100388647D01*
X161348186Y-100329837D01*
X161348182Y-100329833D01*
X161289374Y-100290538D01*
X161289372Y-100290537D01*
X161237515Y-100280222D01*
X156077405Y-100280222D01*
X154399605Y-101958021D01*
X154040393Y-101958021D01*
X152362594Y-100280222D01*
X152721806Y-100280222D01*
X154219999Y-101778415D01*
X155718193Y-100280222D01*
X152721806Y-100280222D01*
X152362594Y-100280222D01*
X147202493Y-100280222D01*
X147202488Y-100280223D01*
X147150625Y-100290538D01*
X147091815Y-100329835D01*
X147091811Y-100329839D01*
X147052516Y-100388647D01*
X147052515Y-100388649D01*
X147042200Y-100440506D01*
X147042200Y-103475528D01*
X137525300Y-103475528D01*
X137525300Y-68675671D01*
X138895671Y-68675671D01*
X138895671Y-96327190D01*
X138895672Y-96327190D01*
X141244328Y-96327190D01*
X141244329Y-96327190D01*
X141244329Y-96048022D01*
X147099432Y-96048022D01*
X147119201Y-96185525D01*
X147119203Y-96185530D01*
X147166630Y-96289379D01*
X147176911Y-96311891D01*
X147267883Y-96416879D01*
X147284421Y-96427507D01*
X147384743Y-96491981D01*
X147384745Y-96491982D01*
X147384746Y-96491982D01*
X147384749Y-96491984D01*
X147518041Y-96531122D01*
X147518042Y-96531122D01*
X147656958Y-96531122D01*
X147656959Y-96531122D01*
X147790251Y-96491984D01*
X147849561Y-96453867D01*
X147893650Y-96440922D01*
X148634168Y-96440922D01*
X148686587Y-96460001D01*
X148710850Y-96500988D01*
X148711400Y-96500761D01*
X148712994Y-96504610D01*
X148714150Y-96506563D01*
X148714472Y-96508180D01*
X148714473Y-96508181D01*
X148714474Y-96508183D01*
X148745737Y-96554972D01*
X148748266Y-96558756D01*
X148748269Y-96558758D01*
X148798840Y-96592549D01*
X148798842Y-96592550D01*
X148843443Y-96601422D01*
X149361556Y-96601421D01*
X149361560Y-96601420D01*
X149361562Y-96601420D01*
X149372475Y-96599249D01*
X149406158Y-96592550D01*
X149456734Y-96558756D01*
X149456735Y-96558753D01*
X149457191Y-96558449D01*
X149511376Y-96545190D01*
X149547806Y-96558449D01*
X149598840Y-96592549D01*
X149598842Y-96592550D01*
X149607235Y-96594219D01*
X149607760Y-96594324D01*
X149655450Y-96623263D01*
X149673400Y-96674307D01*
X149673400Y-97013468D01*
X149673344Y-97015602D01*
X149671165Y-97057157D01*
X149671166Y-97057162D01*
X149679854Y-97079795D01*
X149683488Y-97092062D01*
X149688531Y-97115787D01*
X149693113Y-97122094D01*
X149703270Y-97140799D01*
X149706067Y-97148084D01*
X149706068Y-97148086D01*
X149723219Y-97165238D01*
X149731524Y-97174961D01*
X149745778Y-97194580D01*
X149752526Y-97198476D01*
X149769418Y-97211436D01*
X150403012Y-97845031D01*
X150404482Y-97846580D01*
X150432330Y-97877508D01*
X150454483Y-97887371D01*
X150465718Y-97893471D01*
X150486064Y-97906684D01*
X150493762Y-97907903D01*
X150514177Y-97913949D01*
X150521303Y-97917122D01*
X150545553Y-97917122D01*
X150558308Y-97918125D01*
X150582259Y-97921919D01*
X150589792Y-97919900D01*
X150610897Y-97917122D01*
X150830037Y-97917122D01*
X150882456Y-97936201D01*
X150892692Y-97947829D01*
X150893092Y-97947483D01*
X150896910Y-97951889D01*
X150896911Y-97951891D01*
X150987883Y-98056879D01*
X150987885Y-98056880D01*
X151104743Y-98131981D01*
X151104745Y-98131982D01*
X151104746Y-98131982D01*
X151104749Y-98131984D01*
X151238041Y-98171122D01*
X151238042Y-98171122D01*
X151376958Y-98171122D01*
X151376959Y-98171122D01*
X151510251Y-98131984D01*
X151627117Y-98056879D01*
X151718089Y-97951891D01*
X151775798Y-97825527D01*
X151795568Y-97688022D01*
X151775798Y-97550517D01*
X151718089Y-97424153D01*
X151627117Y-97319165D01*
X151627114Y-97319163D01*
X151510256Y-97244062D01*
X151510254Y-97244061D01*
X151500245Y-97241122D01*
X151376959Y-97204922D01*
X151238041Y-97204922D01*
X151154433Y-97229471D01*
X151104745Y-97244061D01*
X151104743Y-97244062D01*
X150987885Y-97319163D01*
X150987883Y-97319164D01*
X150987883Y-97319165D01*
X150896911Y-97424153D01*
X150896910Y-97424154D01*
X150893092Y-97428561D01*
X150891321Y-97427027D01*
X150854263Y-97455240D01*
X150830037Y-97458922D01*
X150698676Y-97458922D01*
X150646257Y-97439843D01*
X150641011Y-97435036D01*
X150155485Y-96949509D01*
X150131910Y-96898952D01*
X150131600Y-96891845D01*
X150131600Y-96674306D01*
X150150679Y-96621887D01*
X150197240Y-96594323D01*
X150206158Y-96592550D01*
X150234784Y-96573422D01*
X150288967Y-96560164D01*
X150325397Y-96573423D01*
X150389124Y-96616005D01*
X150389127Y-96616006D01*
X150440987Y-96626321D01*
X150575500Y-96626321D01*
X150575500Y-95695723D01*
X150575499Y-95695722D01*
X150829500Y-95695722D01*
X150829500Y-96626320D01*
X150829501Y-96626321D01*
X150964006Y-96626321D01*
X150964011Y-96626320D01*
X151015875Y-96616005D01*
X151015877Y-96616004D01*
X151079601Y-96573424D01*
X151133785Y-96560164D01*
X151170216Y-96573422D01*
X151198842Y-96592550D01*
X151243443Y-96601422D01*
X151761556Y-96601421D01*
X151761560Y-96601420D01*
X151761562Y-96601420D01*
X151772475Y-96599249D01*
X151806158Y-96592550D01*
X151856734Y-96558756D01*
X151890528Y-96508180D01*
X151899400Y-96463579D01*
X151899399Y-95858466D01*
X151890528Y-95813864D01*
X151856734Y-95763288D01*
X151856730Y-95763285D01*
X151806159Y-95729494D01*
X151761558Y-95720622D01*
X151243447Y-95720622D01*
X151243437Y-95720623D01*
X151198844Y-95729493D01*
X151198836Y-95729497D01*
X151170214Y-95748621D01*
X151116029Y-95761879D01*
X151079602Y-95748620D01*
X151015875Y-95706038D01*
X151015872Y-95706037D01*
X150964015Y-95695722D01*
X150829500Y-95695722D01*
X150575499Y-95695722D01*
X150440993Y-95695722D01*
X150440988Y-95695723D01*
X150389124Y-95706038D01*
X150389123Y-95706038D01*
X150325397Y-95748620D01*
X150271212Y-95761879D01*
X150234783Y-95748620D01*
X150206159Y-95729494D01*
X150161558Y-95720622D01*
X149643447Y-95720622D01*
X149643437Y-95720623D01*
X149598844Y-95729493D01*
X149598838Y-95729496D01*
X149548269Y-95763285D01*
X149548263Y-95763291D01*
X149514472Y-95813861D01*
X149512996Y-95821284D01*
X149484055Y-95868973D01*
X149431232Y-95886903D01*
X149379242Y-95866683D01*
X149375349Y-95863037D01*
X149267070Y-95754759D01*
X149257882Y-95748620D01*
X149229258Y-95729494D01*
X149229253Y-95729493D01*
X149184658Y-95720622D01*
X148843447Y-95720622D01*
X148843437Y-95720623D01*
X148798844Y-95729493D01*
X148798838Y-95729496D01*
X148748269Y-95763285D01*
X148748263Y-95763291D01*
X148714472Y-95813862D01*
X148714150Y-95815483D01*
X148713050Y-95817295D01*
X148711399Y-95821282D01*
X148710785Y-95821027D01*
X148685210Y-95863172D01*
X148634167Y-95881122D01*
X148094782Y-95881122D01*
X148042363Y-95862043D01*
X148020602Y-95833449D01*
X148015046Y-95821284D01*
X147998089Y-95784153D01*
X147907117Y-95679165D01*
X147881634Y-95662788D01*
X147790256Y-95604062D01*
X147790254Y-95604061D01*
X147779036Y-95600767D01*
X147656959Y-95564922D01*
X147518041Y-95564922D01*
X147473423Y-95578023D01*
X147384745Y-95604061D01*
X147384743Y-95604062D01*
X147267885Y-95679163D01*
X147267883Y-95679164D01*
X147267883Y-95679165D01*
X147202382Y-95754758D01*
X147176911Y-95784153D01*
X147176909Y-95784156D01*
X147119203Y-95910513D01*
X147119201Y-95910518D01*
X147099432Y-96048022D01*
X141244329Y-96048022D01*
X141244329Y-92554968D01*
X145913100Y-92554968D01*
X145921134Y-92579695D01*
X145924121Y-92592135D01*
X145928190Y-92617827D01*
X145939995Y-92640994D01*
X145944892Y-92652817D01*
X145952929Y-92677553D01*
X145952930Y-92677554D01*
X145968215Y-92698591D01*
X145974900Y-92709499D01*
X145986708Y-92732673D01*
X146009633Y-92755598D01*
X146009634Y-92755599D01*
X147094911Y-93840876D01*
X147117966Y-93886933D01*
X147119202Y-93895527D01*
X147172739Y-94012757D01*
X147176911Y-94021891D01*
X147267883Y-94126879D01*
X147267885Y-94126880D01*
X147384743Y-94201981D01*
X147384745Y-94201982D01*
X147384746Y-94201982D01*
X147384749Y-94201984D01*
X147518041Y-94241122D01*
X147518042Y-94241122D01*
X147656958Y-94241122D01*
X147656959Y-94241122D01*
X147790251Y-94201984D01*
X147907117Y-94126879D01*
X147998089Y-94021891D01*
X148055798Y-93895527D01*
X148075568Y-93758022D01*
X148073052Y-93740521D01*
X148611932Y-93740521D01*
X148631701Y-93878025D01*
X148631703Y-93878030D01*
X148678481Y-93980458D01*
X148689411Y-94004391D01*
X148780383Y-94109379D01*
X148835939Y-94145082D01*
X148869722Y-94189471D01*
X148873400Y-94213686D01*
X148873400Y-94371737D01*
X148854321Y-94424156D01*
X148807762Y-94451719D01*
X148798847Y-94453493D01*
X148798842Y-94453494D01*
X148798838Y-94453496D01*
X148748269Y-94487285D01*
X148748263Y-94487291D01*
X148714472Y-94537862D01*
X148705600Y-94582462D01*
X148705600Y-95187574D01*
X148705601Y-95187584D01*
X148714471Y-95232177D01*
X148714474Y-95232183D01*
X148734708Y-95262466D01*
X148748266Y-95282756D01*
X148748269Y-95282758D01*
X148798840Y-95316549D01*
X148798842Y-95316550D01*
X148843443Y-95325422D01*
X149361556Y-95325421D01*
X149361560Y-95325420D01*
X149361562Y-95325420D01*
X149372475Y-95323249D01*
X149406158Y-95316550D01*
X149456734Y-95282756D01*
X149456735Y-95282753D01*
X149457191Y-95282449D01*
X149511376Y-95269190D01*
X149547806Y-95282449D01*
X149598840Y-95316549D01*
X149598842Y-95316550D01*
X149643443Y-95325422D01*
X150161556Y-95325421D01*
X150161560Y-95325420D01*
X150161562Y-95325420D01*
X150172475Y-95323249D01*
X150206158Y-95316550D01*
X150256734Y-95282756D01*
X150256735Y-95282753D01*
X150257191Y-95282449D01*
X150311376Y-95269190D01*
X150347806Y-95282449D01*
X150398840Y-95316549D01*
X150398842Y-95316550D01*
X150443443Y-95325422D01*
X150961556Y-95325421D01*
X150961560Y-95325420D01*
X150961562Y-95325420D01*
X150972475Y-95323249D01*
X151006158Y-95316550D01*
X151034784Y-95297422D01*
X151088967Y-95284164D01*
X151125397Y-95297423D01*
X151189124Y-95340005D01*
X151189127Y-95340006D01*
X151240987Y-95350321D01*
X151375500Y-95350321D01*
X151375500Y-95350319D01*
X151629500Y-95350319D01*
X151629501Y-95350321D01*
X151764006Y-95350321D01*
X151764011Y-95350320D01*
X151815874Y-95340005D01*
X151874684Y-95300708D01*
X151874687Y-95300705D01*
X151880635Y-95291804D01*
X151925621Y-95258818D01*
X151981285Y-95262466D01*
X152021582Y-95301041D01*
X152022622Y-95303232D01*
X152049410Y-95361890D01*
X152049411Y-95361891D01*
X152140383Y-95466879D01*
X152193439Y-95500975D01*
X152227222Y-95545364D01*
X152230900Y-95569579D01*
X152230900Y-96010968D01*
X152230844Y-96013102D01*
X152228665Y-96054657D01*
X152228666Y-96054662D01*
X152237354Y-96077295D01*
X152240988Y-96089562D01*
X152246031Y-96113287D01*
X152250613Y-96119594D01*
X152260770Y-96138299D01*
X152263567Y-96145584D01*
X152263568Y-96145586D01*
X152280719Y-96162738D01*
X152289024Y-96172461D01*
X152303278Y-96192080D01*
X152310026Y-96195976D01*
X152326918Y-96208936D01*
X153033021Y-96915041D01*
X153034491Y-96916590D01*
X153061881Y-96947010D01*
X153062330Y-96947508D01*
X153084484Y-96957372D01*
X153095721Y-96963473D01*
X153116064Y-96976683D01*
X153123763Y-96977902D01*
X153144171Y-96983947D01*
X153147127Y-96985263D01*
X153151303Y-96987122D01*
X153175553Y-96987122D01*
X153188310Y-96988125D01*
X153212258Y-96991919D01*
X153219791Y-96989900D01*
X153240896Y-96987122D01*
X154622537Y-96987122D01*
X154674956Y-97006201D01*
X154685192Y-97017829D01*
X154685592Y-97017483D01*
X154689410Y-97021889D01*
X154689411Y-97021891D01*
X154780383Y-97126879D01*
X154790748Y-97133540D01*
X154897243Y-97201981D01*
X154897245Y-97201982D01*
X154897246Y-97201982D01*
X154897249Y-97201984D01*
X155030541Y-97241122D01*
X155030542Y-97241122D01*
X155169458Y-97241122D01*
X155169459Y-97241122D01*
X155302751Y-97201984D01*
X155314274Y-97194579D01*
X155344792Y-97174966D01*
X155419617Y-97126879D01*
X155510589Y-97021891D01*
X155568298Y-96895527D01*
X155580965Y-96807423D01*
X155607308Y-96758255D01*
X155659096Y-96737522D01*
X155712094Y-96754928D01*
X155719350Y-96761368D01*
X155740719Y-96782738D01*
X155749024Y-96792461D01*
X155763278Y-96812080D01*
X155770026Y-96815976D01*
X155786917Y-96828935D01*
X156132947Y-97174966D01*
X156473022Y-97515041D01*
X156474491Y-97516590D01*
X156502330Y-97547508D01*
X156509091Y-97550518D01*
X156524478Y-97557369D01*
X156535725Y-97563476D01*
X156544980Y-97569486D01*
X156556064Y-97576684D01*
X156563762Y-97577903D01*
X156584177Y-97583949D01*
X156591303Y-97587122D01*
X156615553Y-97587122D01*
X156628308Y-97588125D01*
X156652259Y-97591919D01*
X156659792Y-97589900D01*
X156680897Y-97587122D01*
X160452948Y-97587122D01*
X160455077Y-97587177D01*
X160473169Y-97588126D01*
X160496637Y-97589356D01*
X160496637Y-97589355D01*
X160496639Y-97589356D01*
X160519285Y-97580662D01*
X160531528Y-97577035D01*
X160555265Y-97571991D01*
X160555266Y-97571989D01*
X160563652Y-97570208D01*
X160564147Y-97572541D01*
X160607785Y-97569486D01*
X160652918Y-97602270D01*
X160666418Y-97656396D01*
X160666034Y-97659482D01*
X160661932Y-97688018D01*
X160661932Y-97688021D01*
X160681701Y-97825525D01*
X160681703Y-97825530D01*
X160737398Y-97947483D01*
X160739411Y-97951891D01*
X160830383Y-98056879D01*
X160830385Y-98056880D01*
X160947243Y-98131981D01*
X160947245Y-98131982D01*
X160947246Y-98131982D01*
X160947249Y-98131984D01*
X161080541Y-98171122D01*
X161080542Y-98171122D01*
X161219458Y-98171122D01*
X161219459Y-98171122D01*
X161352751Y-98131984D01*
X161469617Y-98056879D01*
X161560589Y-97951891D01*
X161618298Y-97825527D01*
X161638068Y-97688022D01*
X161623252Y-97584980D01*
X161634678Y-97530379D01*
X161646304Y-97515713D01*
X161977018Y-97185000D01*
X161978568Y-97183530D01*
X161978809Y-97183312D01*
X162009486Y-97155692D01*
X162019351Y-97133533D01*
X162025450Y-97122300D01*
X162038661Y-97101958D01*
X162039880Y-97094256D01*
X162045925Y-97073849D01*
X162049100Y-97066719D01*
X162049100Y-97042458D01*
X162050104Y-97029709D01*
X162053897Y-97005766D01*
X162053896Y-97005765D01*
X162053897Y-97005764D01*
X162051877Y-96998228D01*
X162049100Y-96977132D01*
X162049100Y-96554971D01*
X162068179Y-96502553D01*
X162114742Y-96474989D01*
X162123440Y-96473259D01*
X162154658Y-96467050D01*
X162205234Y-96433256D01*
X162239028Y-96382680D01*
X162247900Y-96338079D01*
X162247899Y-96007966D01*
X162244477Y-95990763D01*
X162239028Y-95963366D01*
X162239028Y-95963364D01*
X162205234Y-95912788D01*
X162205230Y-95912785D01*
X162199554Y-95907109D01*
X162201765Y-95904897D01*
X162176795Y-95870830D01*
X162180451Y-95815166D01*
X162201142Y-95790523D01*
X162199554Y-95788935D01*
X162205227Y-95783260D01*
X162205234Y-95783256D01*
X162239028Y-95732680D01*
X162247900Y-95688079D01*
X162247899Y-95357966D01*
X162246378Y-95350321D01*
X162241426Y-95325420D01*
X162239028Y-95313364D01*
X162205234Y-95262788D01*
X162205230Y-95262785D01*
X162199554Y-95257109D01*
X162201765Y-95254897D01*
X162176795Y-95220830D01*
X162180451Y-95165166D01*
X162201142Y-95140523D01*
X162199554Y-95138935D01*
X162205227Y-95133260D01*
X162205234Y-95133256D01*
X162239028Y-95082680D01*
X162247900Y-95038079D01*
X162247899Y-94707966D01*
X162243644Y-94686575D01*
X162239028Y-94663366D01*
X162239028Y-94663364D01*
X162205234Y-94612788D01*
X162205230Y-94612785D01*
X162154659Y-94578994D01*
X162110058Y-94570122D01*
X161529947Y-94570122D01*
X161529937Y-94570123D01*
X161485344Y-94578993D01*
X161485338Y-94578996D01*
X161484767Y-94579378D01*
X161483456Y-94579775D01*
X161477919Y-94582069D01*
X161477693Y-94581523D01*
X161439460Y-94593122D01*
X161349963Y-94593122D01*
X161337949Y-94591162D01*
X161337826Y-94592048D01*
X161330340Y-94591003D01*
X161285471Y-94593078D01*
X161283588Y-94593122D01*
X161265063Y-94593122D01*
X161261448Y-94593797D01*
X161255841Y-94594447D01*
X161225810Y-94595836D01*
X161225807Y-94595837D01*
X161216296Y-94600035D01*
X161198356Y-94605591D01*
X161192164Y-94606749D01*
X161188136Y-94607502D01*
X161162581Y-94623325D01*
X161157581Y-94625961D01*
X161130082Y-94638103D01*
X161130072Y-94638109D01*
X161122722Y-94645459D01*
X161108002Y-94657119D01*
X161099166Y-94662590D01*
X161099166Y-94662591D01*
X161081053Y-94686575D01*
X161077343Y-94690838D01*
X160678167Y-95090015D01*
X160668290Y-95097126D01*
X160668827Y-95097837D01*
X160656770Y-95106942D01*
X160655484Y-95105240D01*
X160615085Y-95126394D01*
X160560595Y-95114450D01*
X160526531Y-95070275D01*
X160523832Y-95044539D01*
X160522800Y-95044539D01*
X160522799Y-94705515D01*
X160522798Y-94705510D01*
X160512484Y-94653648D01*
X160495058Y-94627568D01*
X160127665Y-94994962D01*
X160077108Y-95018537D01*
X160023225Y-95004099D01*
X160012335Y-94994962D01*
X159662985Y-94645612D01*
X159639410Y-94595055D01*
X159639100Y-94587947D01*
X159639100Y-94545222D01*
X159921806Y-94545222D01*
X160070000Y-94693416D01*
X160218194Y-94545222D01*
X159921806Y-94545222D01*
X159639100Y-94545222D01*
X159639100Y-94115073D01*
X159639156Y-94112939D01*
X159641334Y-94071385D01*
X159641333Y-94071384D01*
X159641334Y-94071382D01*
X159632641Y-94048737D01*
X159629010Y-94036475D01*
X159625909Y-94021887D01*
X159623969Y-94012757D01*
X159619382Y-94006443D01*
X159609226Y-93987736D01*
X159606432Y-93980458D01*
X159606430Y-93980455D01*
X159589280Y-93963305D01*
X159580970Y-93953575D01*
X159566722Y-93933963D01*
X159559968Y-93930064D01*
X159543080Y-93917106D01*
X158906977Y-93281001D01*
X158905507Y-93279452D01*
X158877669Y-93248535D01*
X158855515Y-93238671D01*
X158844273Y-93232567D01*
X158823934Y-93219359D01*
X158816230Y-93218139D01*
X158795828Y-93212096D01*
X158788698Y-93208922D01*
X158788697Y-93208922D01*
X158764447Y-93208922D01*
X158751689Y-93207918D01*
X158727743Y-93204125D01*
X158727742Y-93204125D01*
X158720208Y-93206143D01*
X158699104Y-93208922D01*
X156887052Y-93208922D01*
X156884922Y-93208866D01*
X156879980Y-93208607D01*
X156843360Y-93206687D01*
X156820727Y-93215375D01*
X156808462Y-93219008D01*
X156784736Y-93224052D01*
X156784735Y-93224052D01*
X156778417Y-93228642D01*
X156759725Y-93238790D01*
X156752443Y-93241586D01*
X156752433Y-93241592D01*
X156735286Y-93258738D01*
X156725562Y-93267043D01*
X156705943Y-93281297D01*
X156705941Y-93281300D01*
X156702039Y-93288058D01*
X156689084Y-93304940D01*
X155776777Y-94217245D01*
X155775229Y-94218714D01*
X155744313Y-94246553D01*
X155734451Y-94268702D01*
X155728349Y-94279942D01*
X155715139Y-94300285D01*
X155713918Y-94307992D01*
X155707875Y-94328390D01*
X155704701Y-94335519D01*
X155704700Y-94335526D01*
X155704700Y-94359774D01*
X155703695Y-94372534D01*
X155700078Y-94395365D01*
X155673032Y-94444154D01*
X155620953Y-94464143D01*
X155568209Y-94445979D01*
X155545355Y-94416486D01*
X155530589Y-94384153D01*
X155439617Y-94279165D01*
X155432461Y-94274566D01*
X155322756Y-94204062D01*
X155322754Y-94204061D01*
X155322751Y-94204060D01*
X155189459Y-94164922D01*
X155050541Y-94164922D01*
X154966933Y-94189471D01*
X154917245Y-94204061D01*
X154917243Y-94204062D01*
X154800385Y-94279163D01*
X154800383Y-94279164D01*
X154800383Y-94279165D01*
X154766221Y-94318590D01*
X154709411Y-94384153D01*
X154709409Y-94384156D01*
X154651703Y-94510513D01*
X154651701Y-94510518D01*
X154631932Y-94648021D01*
X154631932Y-94648022D01*
X154633240Y-94657119D01*
X154651701Y-94785525D01*
X154651703Y-94785530D01*
X154686986Y-94862788D01*
X154709411Y-94911891D01*
X154800383Y-95016879D01*
X154808232Y-95021923D01*
X154842016Y-95066312D01*
X154839363Y-95122033D01*
X154808234Y-95159132D01*
X154730384Y-95209164D01*
X154730383Y-95209164D01*
X154730383Y-95209165D01*
X154666615Y-95282758D01*
X154639411Y-95314153D01*
X154639409Y-95314156D01*
X154581703Y-95440513D01*
X154581701Y-95440518D01*
X154561932Y-95578022D01*
X154581701Y-95715525D01*
X154581703Y-95715530D01*
X154639409Y-95841887D01*
X154639411Y-95841891D01*
X154730383Y-95946879D01*
X154756028Y-95963360D01*
X154847243Y-96021981D01*
X154847245Y-96021982D01*
X154847246Y-96021982D01*
X154847249Y-96021984D01*
X154980541Y-96061122D01*
X154980542Y-96061122D01*
X155119459Y-96061122D01*
X155142327Y-96054407D01*
X155197998Y-96057943D01*
X155222969Y-96074988D01*
X155228021Y-96080041D01*
X155229491Y-96081590D01*
X155257330Y-96112508D01*
X155271491Y-96118813D01*
X155279478Y-96122369D01*
X155290725Y-96128476D01*
X155302957Y-96136419D01*
X155311064Y-96141684D01*
X155318762Y-96142903D01*
X155339177Y-96148949D01*
X155346303Y-96152122D01*
X155370553Y-96152122D01*
X155383308Y-96153125D01*
X155407259Y-96156919D01*
X155414792Y-96154900D01*
X155435897Y-96152122D01*
X155609350Y-96152122D01*
X155661769Y-96171201D01*
X155689661Y-96219511D01*
X155690900Y-96233672D01*
X155690900Y-96514099D01*
X155671821Y-96566518D01*
X155623511Y-96594410D01*
X155568575Y-96584723D01*
X155535170Y-96547977D01*
X155510589Y-96494153D01*
X155487104Y-96467050D01*
X155419617Y-96389165D01*
X155381213Y-96364484D01*
X155302756Y-96314062D01*
X155302754Y-96314061D01*
X155295364Y-96311891D01*
X155169459Y-96274922D01*
X155030541Y-96274922D01*
X154946933Y-96299471D01*
X154897245Y-96314061D01*
X154897243Y-96314062D01*
X154780385Y-96389163D01*
X154780383Y-96389164D01*
X154780383Y-96389165D01*
X154689411Y-96494153D01*
X154689410Y-96494154D01*
X154685592Y-96498561D01*
X154683821Y-96497027D01*
X154646763Y-96525240D01*
X154622537Y-96528922D01*
X153328676Y-96528922D01*
X153276257Y-96509843D01*
X153271011Y-96505037D01*
X152712985Y-95947010D01*
X152689410Y-95896452D01*
X152689100Y-95889345D01*
X152689100Y-95569579D01*
X152708179Y-95517160D01*
X152726558Y-95500977D01*
X152779617Y-95466879D01*
X152870589Y-95361891D01*
X152928298Y-95235527D01*
X152948068Y-95098022D01*
X152928298Y-94960517D01*
X152870589Y-94834153D01*
X152779617Y-94729165D01*
X152779614Y-94729163D01*
X152662756Y-94654062D01*
X152662754Y-94654061D01*
X152662751Y-94654060D01*
X152529459Y-94614922D01*
X152390541Y-94614922D01*
X152356835Y-94624819D01*
X152257245Y-94654061D01*
X152257243Y-94654062D01*
X152140383Y-94729163D01*
X152140382Y-94729165D01*
X152067480Y-94813299D01*
X152018734Y-94840421D01*
X151963959Y-94829864D01*
X151928784Y-94786567D01*
X151924299Y-94759895D01*
X151924299Y-94580015D01*
X151924298Y-94580010D01*
X151913983Y-94528147D01*
X151874686Y-94469337D01*
X151874682Y-94469333D01*
X151815874Y-94430038D01*
X151815872Y-94430037D01*
X151764015Y-94419722D01*
X151629501Y-94419722D01*
X151629500Y-94419723D01*
X151629500Y-95350319D01*
X151375500Y-95350319D01*
X151375500Y-94419723D01*
X151375499Y-94419722D01*
X151240993Y-94419722D01*
X151240988Y-94419723D01*
X151189124Y-94430038D01*
X151189123Y-94430038D01*
X151125397Y-94472620D01*
X151071212Y-94485879D01*
X151034783Y-94472620D01*
X151006159Y-94453494D01*
X150961558Y-94444622D01*
X150443447Y-94444622D01*
X150443437Y-94444623D01*
X150398844Y-94453493D01*
X150398838Y-94453496D01*
X150347807Y-94487594D01*
X150293622Y-94500853D01*
X150257193Y-94487594D01*
X150206159Y-94453494D01*
X150161558Y-94444622D01*
X149643447Y-94444622D01*
X149643437Y-94444623D01*
X149598844Y-94453493D01*
X149598838Y-94453496D01*
X149547807Y-94487594D01*
X149493622Y-94500853D01*
X149457193Y-94487594D01*
X149406158Y-94453493D01*
X149397235Y-94451718D01*
X149349547Y-94422776D01*
X149331600Y-94371736D01*
X149331600Y-94210473D01*
X149350679Y-94158054D01*
X149369062Y-94141868D01*
X149419617Y-94109379D01*
X149510589Y-94004391D01*
X149568298Y-93878027D01*
X149588068Y-93740522D01*
X149568298Y-93603017D01*
X149510589Y-93476653D01*
X149419617Y-93371665D01*
X149419614Y-93371663D01*
X149302756Y-93296562D01*
X149302754Y-93296561D01*
X149281421Y-93290297D01*
X149169459Y-93257422D01*
X149030541Y-93257422D01*
X148955514Y-93279452D01*
X148897245Y-93296561D01*
X148897243Y-93296562D01*
X148780385Y-93371663D01*
X148689411Y-93476653D01*
X148689409Y-93476656D01*
X148631703Y-93603013D01*
X148631701Y-93603018D01*
X148611932Y-93740521D01*
X148073052Y-93740521D01*
X148055798Y-93620517D01*
X147998089Y-93494153D01*
X147907117Y-93389165D01*
X147907114Y-93389163D01*
X147790256Y-93314062D01*
X147790249Y-93314059D01*
X147709326Y-93290297D01*
X147674637Y-93269716D01*
X146750785Y-92345863D01*
X146727210Y-92295306D01*
X146726900Y-92288198D01*
X146726900Y-90985528D01*
X147042200Y-90985528D01*
X147042201Y-90985533D01*
X147052516Y-91037396D01*
X147091813Y-91096206D01*
X147091817Y-91096210D01*
X147150625Y-91135505D01*
X147150627Y-91135506D01*
X147202487Y-91145821D01*
X152362593Y-91145821D01*
X152721806Y-91145821D01*
X155718193Y-91145821D01*
X154219999Y-89647627D01*
X152721806Y-91145821D01*
X152362593Y-91145821D01*
X154040393Y-89468021D01*
X154399605Y-89468021D01*
X156077405Y-91145821D01*
X161237506Y-91145821D01*
X161237511Y-91145820D01*
X161289374Y-91135505D01*
X161348184Y-91096208D01*
X161348188Y-91096204D01*
X161387483Y-91037396D01*
X161387484Y-91037394D01*
X161397799Y-90985537D01*
X161397799Y-87950515D01*
X161397798Y-87950510D01*
X161387483Y-87898647D01*
X161348186Y-87839837D01*
X161348182Y-87839833D01*
X161289374Y-87800538D01*
X161289372Y-87800537D01*
X161237515Y-87790222D01*
X156077405Y-87790222D01*
X154399605Y-89468021D01*
X154040393Y-89468021D01*
X152362594Y-87790222D01*
X152721806Y-87790222D01*
X154219999Y-89288415D01*
X155718193Y-87790222D01*
X152721806Y-87790222D01*
X152362594Y-87790222D01*
X147202493Y-87790222D01*
X147202488Y-87790223D01*
X147150625Y-87800538D01*
X147091815Y-87839835D01*
X147091811Y-87839839D01*
X147052516Y-87898647D01*
X147052515Y-87898649D01*
X147042200Y-87950506D01*
X147042200Y-90985528D01*
X146726900Y-90985528D01*
X146726900Y-79960344D01*
X146745979Y-79907925D01*
X146750774Y-79902690D01*
X151025441Y-75628022D01*
X157351932Y-75628022D01*
X157371701Y-75765525D01*
X157371702Y-75765527D01*
X157429411Y-75891891D01*
X157520383Y-75996879D01*
X157637249Y-76071984D01*
X157718170Y-76095744D01*
X157752861Y-76116326D01*
X158329215Y-76692680D01*
X158352790Y-76743237D01*
X158353100Y-76750345D01*
X158353100Y-85658335D01*
X158345730Y-85692212D01*
X158291703Y-85810513D01*
X158291701Y-85810518D01*
X158271932Y-85948021D01*
X158291701Y-86085525D01*
X158291702Y-86085527D01*
X158349411Y-86211891D01*
X158440383Y-86316879D01*
X158440385Y-86316880D01*
X158557243Y-86391981D01*
X158557245Y-86391982D01*
X158557246Y-86391982D01*
X158557249Y-86391984D01*
X158690541Y-86431122D01*
X158690542Y-86431122D01*
X158829458Y-86431122D01*
X158829459Y-86431122D01*
X158962751Y-86391984D01*
X159079617Y-86316879D01*
X159170589Y-86211891D01*
X159228298Y-86085527D01*
X159248068Y-85948022D01*
X159228298Y-85810517D01*
X159215291Y-85782035D01*
X159174270Y-85692212D01*
X159166900Y-85658335D01*
X159166900Y-76514476D01*
X159166899Y-76514446D01*
X159166899Y-76483575D01*
X159158861Y-76458840D01*
X159155876Y-76446400D01*
X159151810Y-76420722D01*
X159151809Y-76420721D01*
X159151809Y-76420716D01*
X159140000Y-76397540D01*
X159135105Y-76385722D01*
X159127070Y-76360991D01*
X159111782Y-76339948D01*
X159105098Y-76329040D01*
X159093293Y-76305873D01*
X159093291Y-76305870D01*
X159073214Y-76285792D01*
X158332587Y-75545166D01*
X158309532Y-75499105D01*
X158308298Y-75490517D01*
X158250589Y-75364153D01*
X158159617Y-75259165D01*
X158159614Y-75259163D01*
X158042756Y-75184062D01*
X158042754Y-75184061D01*
X158042751Y-75184060D01*
X157909459Y-75144922D01*
X157770541Y-75144922D01*
X157686933Y-75169471D01*
X157637245Y-75184061D01*
X157637243Y-75184062D01*
X157520385Y-75259163D01*
X157429411Y-75364153D01*
X157429409Y-75364156D01*
X157371703Y-75490513D01*
X157371701Y-75490518D01*
X157351932Y-75628022D01*
X151025441Y-75628022D01*
X153307139Y-73346324D01*
X153341826Y-73325745D01*
X153422751Y-73301984D01*
X153539617Y-73226879D01*
X153630589Y-73121891D01*
X153688298Y-72995527D01*
X153708068Y-72858022D01*
X153688298Y-72720517D01*
X153630589Y-72594153D01*
X153539617Y-72489165D01*
X153539614Y-72489163D01*
X153422756Y-72414062D01*
X153422754Y-72414061D01*
X153422751Y-72414060D01*
X153289459Y-72374922D01*
X153150541Y-72374922D01*
X153066933Y-72399471D01*
X153017245Y-72414061D01*
X153017243Y-72414062D01*
X152900385Y-72489163D01*
X152809411Y-72594153D01*
X152809409Y-72594156D01*
X152751702Y-72720514D01*
X152751699Y-72720525D01*
X152750465Y-72729110D01*
X152727411Y-72775166D01*
X150357656Y-75144922D01*
X146077848Y-79424730D01*
X146077849Y-79424730D01*
X145986708Y-79515870D01*
X145974900Y-79539043D01*
X145968217Y-79549948D01*
X145952931Y-79570987D01*
X145952930Y-79570990D01*
X145944892Y-79595727D01*
X145939997Y-79607544D01*
X145928189Y-79630719D01*
X145924120Y-79656404D01*
X145921136Y-79668836D01*
X145913100Y-79693573D01*
X145913100Y-92554968D01*
X141244329Y-92554968D01*
X141244329Y-68675671D01*
X138895671Y-68675671D01*
X137525300Y-68675671D01*
X137525300Y-55889363D01*
X137910736Y-55889363D01*
X137914526Y-55930254D01*
X137914700Y-55934018D01*
X137914700Y-62564061D01*
X137911587Y-62586378D01*
X137910737Y-62589364D01*
X137914526Y-62630254D01*
X137914700Y-62634018D01*
X137914700Y-62646314D01*
X137916957Y-62658394D01*
X137917477Y-62662123D01*
X137921267Y-62703016D01*
X137922652Y-62705797D01*
X137929813Y-62727159D01*
X137930385Y-62730220D01*
X137952005Y-62765139D01*
X137953838Y-62768429D01*
X137961449Y-62783714D01*
X137970000Y-62820065D01*
X137970000Y-66000000D01*
X137970001Y-66000000D01*
X141969999Y-66000000D01*
X141970000Y-66000000D01*
X141970000Y-62827446D01*
X141982218Y-62784512D01*
X141984064Y-62781530D01*
X141984064Y-62781528D01*
X141984067Y-62781526D01*
X141985188Y-62778630D01*
X141996157Y-62758938D01*
X141998027Y-62756463D01*
X142009271Y-62716937D01*
X142010453Y-62713411D01*
X142025300Y-62675092D01*
X142025300Y-62671984D01*
X142028414Y-62649665D01*
X142029263Y-62646680D01*
X142025474Y-62605788D01*
X142025300Y-62602024D01*
X142025300Y-55971984D01*
X142028414Y-55949665D01*
X142029263Y-55946680D01*
X142025474Y-55905788D01*
X142025300Y-55902024D01*
X142025300Y-55889734D01*
X142025300Y-55889733D01*
X142023042Y-55877654D01*
X142022521Y-55873920D01*
X142018732Y-55833029D01*
X142018732Y-55833026D01*
X142017343Y-55830237D01*
X142010185Y-55808876D01*
X142009615Y-55805826D01*
X142009615Y-55805825D01*
X141987985Y-55770892D01*
X141986165Y-55767621D01*
X141978547Y-55752322D01*
X141970000Y-55715976D01*
X141970000Y-52500001D01*
X141970000Y-52500000D01*
X137970000Y-52500000D01*
X137970000Y-52500001D01*
X137970000Y-55708596D01*
X137957784Y-55751528D01*
X137955931Y-55754519D01*
X137954806Y-55757424D01*
X137943853Y-55777089D01*
X137941976Y-55779575D01*
X137941972Y-55779582D01*
X137930733Y-55819083D01*
X137929536Y-55822655D01*
X137914700Y-55860948D01*
X137914699Y-55860957D01*
X137914699Y-55864069D01*
X137911588Y-55886371D01*
X137910736Y-55889363D01*
X137525300Y-55889363D01*
X137525300Y-50983074D01*
X147067100Y-50983074D01*
X147067101Y-50983084D01*
X147075971Y-51027677D01*
X147075972Y-51027680D01*
X147109766Y-51078256D01*
X147109769Y-51078258D01*
X147160340Y-51112049D01*
X147160342Y-51112050D01*
X147204943Y-51120922D01*
X161235056Y-51120921D01*
X161235060Y-51120920D01*
X161235062Y-51120920D01*
X161245975Y-51118749D01*
X161279658Y-51112050D01*
X161330234Y-51078256D01*
X161364028Y-51027680D01*
X161372900Y-50983079D01*
X161372899Y-47952966D01*
X161364028Y-47908364D01*
X161330234Y-47857788D01*
X161330230Y-47857785D01*
X161279659Y-47823994D01*
X161235058Y-47815122D01*
X147204947Y-47815122D01*
X147204937Y-47815123D01*
X147160344Y-47823993D01*
X147160338Y-47823996D01*
X147109769Y-47857785D01*
X147109763Y-47857791D01*
X147075972Y-47908362D01*
X147067100Y-47952962D01*
X147067100Y-50983074D01*
X137525300Y-50983074D01*
X137525300Y-43718028D01*
X141309884Y-43718028D01*
X141329115Y-43950116D01*
X141386287Y-44175882D01*
X141386289Y-44175888D01*
X141479840Y-44389163D01*
X141607224Y-44584139D01*
X141764949Y-44755473D01*
X141764954Y-44755478D01*
X141948740Y-44898524D01*
X141948742Y-44898525D01*
X141948746Y-44898528D01*
X142153559Y-45009367D01*
X142153563Y-45009369D01*
X142153570Y-45009371D01*
X142153569Y-45009371D01*
X142373833Y-45084988D01*
X142373835Y-45084988D01*
X142373837Y-45084989D01*
X142603554Y-45123322D01*
X142603559Y-45123322D01*
X142836441Y-45123322D01*
X142836446Y-45123322D01*
X143066163Y-45084989D01*
X143286437Y-45009369D01*
X143491260Y-44898524D01*
X143675046Y-44755478D01*
X143759475Y-44663763D01*
X143832775Y-44584139D01*
X143832776Y-44584137D01*
X143832780Y-44584133D01*
X143960160Y-44389163D01*
X144053712Y-44175886D01*
X144110884Y-43950119D01*
X144130116Y-43718028D01*
X150309884Y-43718028D01*
X150329115Y-43950116D01*
X150386287Y-44175882D01*
X150386289Y-44175888D01*
X150479840Y-44389163D01*
X150607224Y-44584139D01*
X150764949Y-44755473D01*
X150764954Y-44755478D01*
X150948740Y-44898524D01*
X150948742Y-44898525D01*
X150948746Y-44898528D01*
X151153559Y-45009367D01*
X151153563Y-45009369D01*
X151153570Y-45009371D01*
X151153569Y-45009371D01*
X151373833Y-45084988D01*
X151373835Y-45084988D01*
X151373837Y-45084989D01*
X151603554Y-45123322D01*
X151603559Y-45123322D01*
X151836441Y-45123322D01*
X151836446Y-45123322D01*
X152066163Y-45084989D01*
X152286437Y-45009369D01*
X152491260Y-44898524D01*
X152675046Y-44755478D01*
X152759475Y-44663763D01*
X152832775Y-44584139D01*
X152832776Y-44584137D01*
X152832780Y-44584133D01*
X152960160Y-44389163D01*
X153053712Y-44175886D01*
X153110884Y-43950119D01*
X153130116Y-43718028D01*
X159309884Y-43718028D01*
X159329115Y-43950116D01*
X159386287Y-44175882D01*
X159386289Y-44175888D01*
X159479840Y-44389163D01*
X159607224Y-44584139D01*
X159764949Y-44755473D01*
X159764954Y-44755478D01*
X159948740Y-44898524D01*
X159948742Y-44898525D01*
X159948746Y-44898528D01*
X160153559Y-45009367D01*
X160153563Y-45009369D01*
X160153570Y-45009371D01*
X160153569Y-45009371D01*
X160373833Y-45084988D01*
X160373835Y-45084988D01*
X160373837Y-45084989D01*
X160603554Y-45123322D01*
X160603559Y-45123322D01*
X160836441Y-45123322D01*
X160836446Y-45123322D01*
X161066163Y-45084989D01*
X161286437Y-45009369D01*
X161491260Y-44898524D01*
X161675046Y-44755478D01*
X161759475Y-44663763D01*
X161832775Y-44584139D01*
X161832776Y-44584137D01*
X161832780Y-44584133D01*
X161960160Y-44389163D01*
X162053712Y-44175886D01*
X162110884Y-43950119D01*
X162130116Y-43718022D01*
X162130116Y-43718015D01*
X162110884Y-43485927D01*
X162110884Y-43485925D01*
X162053712Y-43260158D01*
X161960160Y-43046881D01*
X161832780Y-42851911D01*
X161832778Y-42851909D01*
X161832775Y-42851904D01*
X161675050Y-42680570D01*
X161675047Y-42680567D01*
X161675046Y-42680566D01*
X161491260Y-42537520D01*
X161491258Y-42537518D01*
X161491253Y-42537515D01*
X161286440Y-42426676D01*
X161286430Y-42426672D01*
X161066166Y-42351055D01*
X160836448Y-42312722D01*
X160836446Y-42312722D01*
X160603554Y-42312722D01*
X160603551Y-42312722D01*
X160373833Y-42351055D01*
X160153569Y-42426672D01*
X160153559Y-42426676D01*
X159948746Y-42537515D01*
X159764952Y-42680567D01*
X159764949Y-42680570D01*
X159607224Y-42851904D01*
X159479840Y-43046880D01*
X159386289Y-43260155D01*
X159386287Y-43260161D01*
X159329115Y-43485927D01*
X159309884Y-43718015D01*
X159309884Y-43718028D01*
X153130116Y-43718028D01*
X153130116Y-43718022D01*
X153130116Y-43718015D01*
X153110884Y-43485927D01*
X153110884Y-43485925D01*
X153053712Y-43260158D01*
X152960160Y-43046881D01*
X152832780Y-42851911D01*
X152832778Y-42851909D01*
X152832775Y-42851904D01*
X152675050Y-42680570D01*
X152675047Y-42680567D01*
X152675046Y-42680566D01*
X152491260Y-42537520D01*
X152491258Y-42537518D01*
X152491253Y-42537515D01*
X152286440Y-42426676D01*
X152286430Y-42426672D01*
X152066166Y-42351055D01*
X151836448Y-42312722D01*
X151836446Y-42312722D01*
X151603554Y-42312722D01*
X151603551Y-42312722D01*
X151373833Y-42351055D01*
X151153569Y-42426672D01*
X151153559Y-42426676D01*
X150948746Y-42537515D01*
X150764952Y-42680567D01*
X150764949Y-42680570D01*
X150607224Y-42851904D01*
X150479840Y-43046880D01*
X150386289Y-43260155D01*
X150386287Y-43260161D01*
X150329115Y-43485927D01*
X150309884Y-43718015D01*
X150309884Y-43718028D01*
X144130116Y-43718028D01*
X144130116Y-43718022D01*
X144130116Y-43718015D01*
X144110884Y-43485927D01*
X144110884Y-43485925D01*
X144053712Y-43260158D01*
X143960160Y-43046881D01*
X143832780Y-42851911D01*
X143832778Y-42851909D01*
X143832775Y-42851904D01*
X143675050Y-42680570D01*
X143675047Y-42680567D01*
X143675046Y-42680566D01*
X143491260Y-42537520D01*
X143491258Y-42537518D01*
X143491253Y-42537515D01*
X143286440Y-42426676D01*
X143286430Y-42426672D01*
X143066166Y-42351055D01*
X142836448Y-42312722D01*
X142836446Y-42312722D01*
X142603554Y-42312722D01*
X142603551Y-42312722D01*
X142373833Y-42351055D01*
X142153569Y-42426672D01*
X142153559Y-42426676D01*
X141948746Y-42537515D01*
X141764952Y-42680567D01*
X141764949Y-42680570D01*
X141607224Y-42851904D01*
X141479840Y-43046880D01*
X141386289Y-43260155D01*
X141386287Y-43260161D01*
X141329115Y-43485927D01*
X141309884Y-43718015D01*
X141309884Y-43718028D01*
X137525300Y-43718028D01*
X137525300Y-41604872D01*
X137544379Y-41552453D01*
X137592689Y-41524561D01*
X137606850Y-41523322D01*
X165833150Y-41523322D01*
X165885569Y-41542401D01*
G37*
%TD.AperFunction*%
%TD*%
M02*
