%TF.GenerationSoftware,KiCad,Pcbnew,7.0.5*%
%TF.CreationDate,2023-06-05T00:46:42-04:00*%
%TF.ProjectId,SIDE,53494445-2e6b-4696-9361-645f70636258,rev?*%
%TF.SameCoordinates,Original*%
%TF.FileFunction,Legend,Top*%
%TF.FilePolarity,Positive*%
%FSLAX46Y46*%
G04 Gerber Fmt 4.6, Leading zero omitted, Abs format (unit mm)*
G04 Created by KiCad (PCBNEW 7.0.5) date 2023-06-05 00:46:42*
%MOMM*%
%LPD*%
G01*
G04 APERTURE LIST*
%ADD10C,0.500000*%
%ADD11C,0.150000*%
%ADD12C,0.120000*%
%ADD13C,0.200000*%
G04 APERTURE END LIST*
D10*
X139403334Y-102218022D02*
X139403334Y-104318022D01*
X141536668Y-101118022D02*
X141536668Y-104318022D01*
X138336668Y-102218022D02*
X140470000Y-102218022D01*
X138336668Y-102218022D02*
X138336668Y-104318022D01*
X141536668Y-101118022D02*
X138290000Y-101118022D01*
D11*
X137970000Y-48468022D02*
X141970000Y-48468022D01*
X141970000Y-99668022D01*
X137970000Y-99668022D01*
X137970000Y-48468022D01*
X137970000Y-138968022D02*
X141970000Y-138968022D01*
X141970000Y-142968022D01*
X137970000Y-142968022D01*
X137970000Y-138968022D01*
G36*
X137970000Y-138968022D02*
G01*
X141970000Y-138968022D01*
X141970000Y-142968022D01*
X137970000Y-142968022D01*
X137970000Y-138968022D01*
G37*
D10*
X140470000Y-102218022D02*
X140470000Y-104318022D01*
D11*
X142720000Y-91718022D02*
X165670000Y-91718022D01*
X165670000Y-99718022D01*
X142720000Y-99718022D01*
X142720000Y-91718022D01*
X139826848Y-105554801D02*
X140826848Y-105554801D01*
X140826848Y-105554801D02*
X140112563Y-105888134D01*
X140112563Y-105888134D02*
X140826848Y-106221467D01*
X140826848Y-106221467D02*
X139826848Y-106221467D01*
X139826848Y-106697658D02*
X140826848Y-106697658D01*
X140826848Y-107030991D02*
X140826848Y-107602419D01*
X139826848Y-107316705D02*
X140826848Y-107316705D01*
X139826848Y-108697658D02*
X140826848Y-108697658D01*
X140826848Y-108697658D02*
X140112563Y-109030991D01*
X140112563Y-109030991D02*
X140826848Y-109364324D01*
X140826848Y-109364324D02*
X139826848Y-109364324D01*
X139874468Y-110221467D02*
X139826848Y-110126229D01*
X139826848Y-110126229D02*
X139826848Y-109935753D01*
X139826848Y-109935753D02*
X139874468Y-109840515D01*
X139874468Y-109840515D02*
X139969706Y-109792896D01*
X139969706Y-109792896D02*
X140350658Y-109792896D01*
X140350658Y-109792896D02*
X140445896Y-109840515D01*
X140445896Y-109840515D02*
X140493515Y-109935753D01*
X140493515Y-109935753D02*
X140493515Y-110126229D01*
X140493515Y-110126229D02*
X140445896Y-110221467D01*
X140445896Y-110221467D02*
X140350658Y-110269086D01*
X140350658Y-110269086D02*
X140255420Y-110269086D01*
X140255420Y-110269086D02*
X140160182Y-109792896D01*
X139826848Y-111126229D02*
X140826848Y-111126229D01*
X139874468Y-111126229D02*
X139826848Y-111030991D01*
X139826848Y-111030991D02*
X139826848Y-110840515D01*
X139826848Y-110840515D02*
X139874468Y-110745277D01*
X139874468Y-110745277D02*
X139922087Y-110697658D01*
X139922087Y-110697658D02*
X140017325Y-110650039D01*
X140017325Y-110650039D02*
X140303039Y-110650039D01*
X140303039Y-110650039D02*
X140398277Y-110697658D01*
X140398277Y-110697658D02*
X140445896Y-110745277D01*
X140445896Y-110745277D02*
X140493515Y-110840515D01*
X140493515Y-110840515D02*
X140493515Y-111030991D01*
X140493515Y-111030991D02*
X140445896Y-111126229D01*
X139826848Y-111602420D02*
X140493515Y-111602420D01*
X140826848Y-111602420D02*
X140779229Y-111554801D01*
X140779229Y-111554801D02*
X140731610Y-111602420D01*
X140731610Y-111602420D02*
X140779229Y-111650039D01*
X140779229Y-111650039D02*
X140826848Y-111602420D01*
X140826848Y-111602420D02*
X140731610Y-111602420D01*
X139826848Y-112507181D02*
X140350658Y-112507181D01*
X140350658Y-112507181D02*
X140445896Y-112459562D01*
X140445896Y-112459562D02*
X140493515Y-112364324D01*
X140493515Y-112364324D02*
X140493515Y-112173848D01*
X140493515Y-112173848D02*
X140445896Y-112078610D01*
X139874468Y-112507181D02*
X139826848Y-112411943D01*
X139826848Y-112411943D02*
X139826848Y-112173848D01*
X139826848Y-112173848D02*
X139874468Y-112078610D01*
X139874468Y-112078610D02*
X139969706Y-112030991D01*
X139969706Y-112030991D02*
X140064944Y-112030991D01*
X140064944Y-112030991D02*
X140160182Y-112078610D01*
X140160182Y-112078610D02*
X140207801Y-112173848D01*
X140207801Y-112173848D02*
X140207801Y-112411943D01*
X140207801Y-112411943D02*
X140255420Y-112507181D01*
X139826848Y-114221467D02*
X139826848Y-113745277D01*
X139826848Y-113745277D02*
X140826848Y-113745277D01*
X139826848Y-114983372D02*
X140350658Y-114983372D01*
X140350658Y-114983372D02*
X140445896Y-114935753D01*
X140445896Y-114935753D02*
X140493515Y-114840515D01*
X140493515Y-114840515D02*
X140493515Y-114650039D01*
X140493515Y-114650039D02*
X140445896Y-114554801D01*
X139874468Y-114983372D02*
X139826848Y-114888134D01*
X139826848Y-114888134D02*
X139826848Y-114650039D01*
X139826848Y-114650039D02*
X139874468Y-114554801D01*
X139874468Y-114554801D02*
X139969706Y-114507182D01*
X139969706Y-114507182D02*
X140064944Y-114507182D01*
X140064944Y-114507182D02*
X140160182Y-114554801D01*
X140160182Y-114554801D02*
X140207801Y-114650039D01*
X140207801Y-114650039D02*
X140207801Y-114888134D01*
X140207801Y-114888134D02*
X140255420Y-114983372D01*
X139826848Y-115459563D02*
X140826848Y-115459563D01*
X140445896Y-115459563D02*
X140493515Y-115554801D01*
X140493515Y-115554801D02*
X140493515Y-115745277D01*
X140493515Y-115745277D02*
X140445896Y-115840515D01*
X140445896Y-115840515D02*
X140398277Y-115888134D01*
X140398277Y-115888134D02*
X140303039Y-115935753D01*
X140303039Y-115935753D02*
X140017325Y-115935753D01*
X140017325Y-115935753D02*
X139922087Y-115888134D01*
X139922087Y-115888134D02*
X139874468Y-115840515D01*
X139874468Y-115840515D02*
X139826848Y-115745277D01*
X139826848Y-115745277D02*
X139826848Y-115554801D01*
X139826848Y-115554801D02*
X139874468Y-115459563D01*
X140207801Y-117126230D02*
X140207801Y-117888135D01*
X139826848Y-119697658D02*
X140303039Y-119364325D01*
X139826848Y-119126230D02*
X140826848Y-119126230D01*
X140826848Y-119126230D02*
X140826848Y-119507182D01*
X140826848Y-119507182D02*
X140779229Y-119602420D01*
X140779229Y-119602420D02*
X140731610Y-119650039D01*
X140731610Y-119650039D02*
X140636372Y-119697658D01*
X140636372Y-119697658D02*
X140493515Y-119697658D01*
X140493515Y-119697658D02*
X140398277Y-119650039D01*
X140398277Y-119650039D02*
X140350658Y-119602420D01*
X140350658Y-119602420D02*
X140303039Y-119507182D01*
X140303039Y-119507182D02*
X140303039Y-119126230D01*
X139874468Y-120507182D02*
X139826848Y-120411944D01*
X139826848Y-120411944D02*
X139826848Y-120221468D01*
X139826848Y-120221468D02*
X139874468Y-120126230D01*
X139874468Y-120126230D02*
X139969706Y-120078611D01*
X139969706Y-120078611D02*
X140350658Y-120078611D01*
X140350658Y-120078611D02*
X140445896Y-120126230D01*
X140445896Y-120126230D02*
X140493515Y-120221468D01*
X140493515Y-120221468D02*
X140493515Y-120411944D01*
X140493515Y-120411944D02*
X140445896Y-120507182D01*
X140445896Y-120507182D02*
X140350658Y-120554801D01*
X140350658Y-120554801D02*
X140255420Y-120554801D01*
X140255420Y-120554801D02*
X140160182Y-120078611D01*
X139874468Y-120935754D02*
X139826848Y-121030992D01*
X139826848Y-121030992D02*
X139826848Y-121221468D01*
X139826848Y-121221468D02*
X139874468Y-121316706D01*
X139874468Y-121316706D02*
X139969706Y-121364325D01*
X139969706Y-121364325D02*
X140017325Y-121364325D01*
X140017325Y-121364325D02*
X140112563Y-121316706D01*
X140112563Y-121316706D02*
X140160182Y-121221468D01*
X140160182Y-121221468D02*
X140160182Y-121078611D01*
X140160182Y-121078611D02*
X140207801Y-120983373D01*
X140207801Y-120983373D02*
X140303039Y-120935754D01*
X140303039Y-120935754D02*
X140350658Y-120935754D01*
X140350658Y-120935754D02*
X140445896Y-120983373D01*
X140445896Y-120983373D02*
X140493515Y-121078611D01*
X140493515Y-121078611D02*
X140493515Y-121221468D01*
X140493515Y-121221468D02*
X140445896Y-121316706D01*
X140493515Y-121792897D02*
X139493515Y-121792897D01*
X140445896Y-121792897D02*
X140493515Y-121888135D01*
X140493515Y-121888135D02*
X140493515Y-122078611D01*
X140493515Y-122078611D02*
X140445896Y-122173849D01*
X140445896Y-122173849D02*
X140398277Y-122221468D01*
X140398277Y-122221468D02*
X140303039Y-122269087D01*
X140303039Y-122269087D02*
X140017325Y-122269087D01*
X140017325Y-122269087D02*
X139922087Y-122221468D01*
X139922087Y-122221468D02*
X139874468Y-122173849D01*
X139874468Y-122173849D02*
X139826848Y-122078611D01*
X139826848Y-122078611D02*
X139826848Y-121888135D01*
X139826848Y-121888135D02*
X139874468Y-121792897D01*
X139826848Y-122840516D02*
X139874468Y-122745278D01*
X139874468Y-122745278D02*
X139922087Y-122697659D01*
X139922087Y-122697659D02*
X140017325Y-122650040D01*
X140017325Y-122650040D02*
X140303039Y-122650040D01*
X140303039Y-122650040D02*
X140398277Y-122697659D01*
X140398277Y-122697659D02*
X140445896Y-122745278D01*
X140445896Y-122745278D02*
X140493515Y-122840516D01*
X140493515Y-122840516D02*
X140493515Y-122983373D01*
X140493515Y-122983373D02*
X140445896Y-123078611D01*
X140445896Y-123078611D02*
X140398277Y-123126230D01*
X140398277Y-123126230D02*
X140303039Y-123173849D01*
X140303039Y-123173849D02*
X140017325Y-123173849D01*
X140017325Y-123173849D02*
X139922087Y-123126230D01*
X139922087Y-123126230D02*
X139874468Y-123078611D01*
X139874468Y-123078611D02*
X139826848Y-122983373D01*
X139826848Y-122983373D02*
X139826848Y-122840516D01*
X140493515Y-123602421D02*
X139826848Y-123602421D01*
X140398277Y-123602421D02*
X140445896Y-123650040D01*
X140445896Y-123650040D02*
X140493515Y-123745278D01*
X140493515Y-123745278D02*
X140493515Y-123888135D01*
X140493515Y-123888135D02*
X140445896Y-123983373D01*
X140445896Y-123983373D02*
X140350658Y-124030992D01*
X140350658Y-124030992D02*
X139826848Y-124030992D01*
X139874468Y-124459564D02*
X139826848Y-124554802D01*
X139826848Y-124554802D02*
X139826848Y-124745278D01*
X139826848Y-124745278D02*
X139874468Y-124840516D01*
X139874468Y-124840516D02*
X139969706Y-124888135D01*
X139969706Y-124888135D02*
X140017325Y-124888135D01*
X140017325Y-124888135D02*
X140112563Y-124840516D01*
X140112563Y-124840516D02*
X140160182Y-124745278D01*
X140160182Y-124745278D02*
X140160182Y-124602421D01*
X140160182Y-124602421D02*
X140207801Y-124507183D01*
X140207801Y-124507183D02*
X140303039Y-124459564D01*
X140303039Y-124459564D02*
X140350658Y-124459564D01*
X140350658Y-124459564D02*
X140445896Y-124507183D01*
X140445896Y-124507183D02*
X140493515Y-124602421D01*
X140493515Y-124602421D02*
X140493515Y-124745278D01*
X140493515Y-124745278D02*
X140445896Y-124840516D01*
X139826848Y-125316707D02*
X140493515Y-125316707D01*
X140826848Y-125316707D02*
X140779229Y-125269088D01*
X140779229Y-125269088D02*
X140731610Y-125316707D01*
X140731610Y-125316707D02*
X140779229Y-125364326D01*
X140779229Y-125364326D02*
X140826848Y-125316707D01*
X140826848Y-125316707D02*
X140731610Y-125316707D01*
X140493515Y-125697659D02*
X139826848Y-125935754D01*
X139826848Y-125935754D02*
X140493515Y-126173849D01*
X139874468Y-126935754D02*
X139826848Y-126840516D01*
X139826848Y-126840516D02*
X139826848Y-126650040D01*
X139826848Y-126650040D02*
X139874468Y-126554802D01*
X139874468Y-126554802D02*
X139969706Y-126507183D01*
X139969706Y-126507183D02*
X140350658Y-126507183D01*
X140350658Y-126507183D02*
X140445896Y-126554802D01*
X140445896Y-126554802D02*
X140493515Y-126650040D01*
X140493515Y-126650040D02*
X140493515Y-126840516D01*
X140493515Y-126840516D02*
X140445896Y-126935754D01*
X140445896Y-126935754D02*
X140350658Y-126983373D01*
X140350658Y-126983373D02*
X140255420Y-126983373D01*
X140255420Y-126983373D02*
X140160182Y-126507183D01*
X140350658Y-128173850D02*
X140350658Y-128507183D01*
X139826848Y-128650040D02*
X139826848Y-128173850D01*
X139826848Y-128173850D02*
X140826848Y-128173850D01*
X140826848Y-128173850D02*
X140826848Y-128650040D01*
X140493515Y-129078612D02*
X139826848Y-129078612D01*
X140398277Y-129078612D02*
X140445896Y-129126231D01*
X140445896Y-129126231D02*
X140493515Y-129221469D01*
X140493515Y-129221469D02*
X140493515Y-129364326D01*
X140493515Y-129364326D02*
X140445896Y-129459564D01*
X140445896Y-129459564D02*
X140350658Y-129507183D01*
X140350658Y-129507183D02*
X139826848Y-129507183D01*
X140493515Y-129888136D02*
X139826848Y-130126231D01*
X139826848Y-130126231D02*
X140493515Y-130364326D01*
X139826848Y-130745279D02*
X140493515Y-130745279D01*
X140826848Y-130745279D02*
X140779229Y-130697660D01*
X140779229Y-130697660D02*
X140731610Y-130745279D01*
X140731610Y-130745279D02*
X140779229Y-130792898D01*
X140779229Y-130792898D02*
X140826848Y-130745279D01*
X140826848Y-130745279D02*
X140731610Y-130745279D01*
X139826848Y-131221469D02*
X140493515Y-131221469D01*
X140303039Y-131221469D02*
X140398277Y-131269088D01*
X140398277Y-131269088D02*
X140445896Y-131316707D01*
X140445896Y-131316707D02*
X140493515Y-131411945D01*
X140493515Y-131411945D02*
X140493515Y-131507183D01*
X139826848Y-131983374D02*
X139874468Y-131888136D01*
X139874468Y-131888136D02*
X139922087Y-131840517D01*
X139922087Y-131840517D02*
X140017325Y-131792898D01*
X140017325Y-131792898D02*
X140303039Y-131792898D01*
X140303039Y-131792898D02*
X140398277Y-131840517D01*
X140398277Y-131840517D02*
X140445896Y-131888136D01*
X140445896Y-131888136D02*
X140493515Y-131983374D01*
X140493515Y-131983374D02*
X140493515Y-132126231D01*
X140493515Y-132126231D02*
X140445896Y-132221469D01*
X140445896Y-132221469D02*
X140398277Y-132269088D01*
X140398277Y-132269088D02*
X140303039Y-132316707D01*
X140303039Y-132316707D02*
X140017325Y-132316707D01*
X140017325Y-132316707D02*
X139922087Y-132269088D01*
X139922087Y-132269088D02*
X139874468Y-132221469D01*
X139874468Y-132221469D02*
X139826848Y-132126231D01*
X139826848Y-132126231D02*
X139826848Y-131983374D01*
X140493515Y-132745279D02*
X139826848Y-132745279D01*
X140398277Y-132745279D02*
X140445896Y-132792898D01*
X140445896Y-132792898D02*
X140493515Y-132888136D01*
X140493515Y-132888136D02*
X140493515Y-133030993D01*
X140493515Y-133030993D02*
X140445896Y-133126231D01*
X140445896Y-133126231D02*
X140350658Y-133173850D01*
X140350658Y-133173850D02*
X139826848Y-133173850D01*
X139826848Y-133650041D02*
X140493515Y-133650041D01*
X140398277Y-133650041D02*
X140445896Y-133697660D01*
X140445896Y-133697660D02*
X140493515Y-133792898D01*
X140493515Y-133792898D02*
X140493515Y-133935755D01*
X140493515Y-133935755D02*
X140445896Y-134030993D01*
X140445896Y-134030993D02*
X140350658Y-134078612D01*
X140350658Y-134078612D02*
X139826848Y-134078612D01*
X140350658Y-134078612D02*
X140445896Y-134126231D01*
X140445896Y-134126231D02*
X140493515Y-134221469D01*
X140493515Y-134221469D02*
X140493515Y-134364326D01*
X140493515Y-134364326D02*
X140445896Y-134459565D01*
X140445896Y-134459565D02*
X140350658Y-134507184D01*
X140350658Y-134507184D02*
X139826848Y-134507184D01*
X139874468Y-135364326D02*
X139826848Y-135269088D01*
X139826848Y-135269088D02*
X139826848Y-135078612D01*
X139826848Y-135078612D02*
X139874468Y-134983374D01*
X139874468Y-134983374D02*
X139969706Y-134935755D01*
X139969706Y-134935755D02*
X140350658Y-134935755D01*
X140350658Y-134935755D02*
X140445896Y-134983374D01*
X140445896Y-134983374D02*
X140493515Y-135078612D01*
X140493515Y-135078612D02*
X140493515Y-135269088D01*
X140493515Y-135269088D02*
X140445896Y-135364326D01*
X140445896Y-135364326D02*
X140350658Y-135411945D01*
X140350658Y-135411945D02*
X140255420Y-135411945D01*
X140255420Y-135411945D02*
X140160182Y-134935755D01*
X140493515Y-135840517D02*
X139826848Y-135840517D01*
X140398277Y-135840517D02*
X140445896Y-135888136D01*
X140445896Y-135888136D02*
X140493515Y-135983374D01*
X140493515Y-135983374D02*
X140493515Y-136126231D01*
X140493515Y-136126231D02*
X140445896Y-136221469D01*
X140445896Y-136221469D02*
X140350658Y-136269088D01*
X140350658Y-136269088D02*
X139826848Y-136269088D01*
X140493515Y-136602422D02*
X140493515Y-136983374D01*
X140826848Y-136745279D02*
X139969706Y-136745279D01*
X139969706Y-136745279D02*
X139874468Y-136792898D01*
X139874468Y-136792898D02*
X139826848Y-136888136D01*
X139826848Y-136888136D02*
X139826848Y-136983374D01*
X139874468Y-137269089D02*
X139826848Y-137364327D01*
X139826848Y-137364327D02*
X139826848Y-137554803D01*
X139826848Y-137554803D02*
X139874468Y-137650041D01*
X139874468Y-137650041D02*
X139969706Y-137697660D01*
X139969706Y-137697660D02*
X140017325Y-137697660D01*
X140017325Y-137697660D02*
X140112563Y-137650041D01*
X140112563Y-137650041D02*
X140160182Y-137554803D01*
X140160182Y-137554803D02*
X140160182Y-137411946D01*
X140160182Y-137411946D02*
X140207801Y-137316708D01*
X140207801Y-137316708D02*
X140303039Y-137269089D01*
X140303039Y-137269089D02*
X140350658Y-137269089D01*
X140350658Y-137269089D02*
X140445896Y-137316708D01*
X140445896Y-137316708D02*
X140493515Y-137411946D01*
X140493515Y-137411946D02*
X140493515Y-137554803D01*
X140493515Y-137554803D02*
X140445896Y-137650041D01*
X138216848Y-105554801D02*
X139216848Y-105554801D01*
X138740658Y-105554801D02*
X138740658Y-106126229D01*
X138216848Y-106126229D02*
X139216848Y-106126229D01*
X138264468Y-106983372D02*
X138216848Y-106888134D01*
X138216848Y-106888134D02*
X138216848Y-106697658D01*
X138216848Y-106697658D02*
X138264468Y-106602420D01*
X138264468Y-106602420D02*
X138359706Y-106554801D01*
X138359706Y-106554801D02*
X138740658Y-106554801D01*
X138740658Y-106554801D02*
X138835896Y-106602420D01*
X138835896Y-106602420D02*
X138883515Y-106697658D01*
X138883515Y-106697658D02*
X138883515Y-106888134D01*
X138883515Y-106888134D02*
X138835896Y-106983372D01*
X138835896Y-106983372D02*
X138740658Y-107030991D01*
X138740658Y-107030991D02*
X138645420Y-107030991D01*
X138645420Y-107030991D02*
X138550182Y-106554801D01*
X138216848Y-107364325D02*
X138883515Y-107888134D01*
X138883515Y-107364325D02*
X138216848Y-107888134D01*
X138264468Y-108221468D02*
X138216848Y-108364325D01*
X138216848Y-108364325D02*
X138216848Y-108602420D01*
X138216848Y-108602420D02*
X138264468Y-108697658D01*
X138264468Y-108697658D02*
X138312087Y-108745277D01*
X138312087Y-108745277D02*
X138407325Y-108792896D01*
X138407325Y-108792896D02*
X138502563Y-108792896D01*
X138502563Y-108792896D02*
X138597801Y-108745277D01*
X138597801Y-108745277D02*
X138645420Y-108697658D01*
X138645420Y-108697658D02*
X138693039Y-108602420D01*
X138693039Y-108602420D02*
X138740658Y-108411944D01*
X138740658Y-108411944D02*
X138788277Y-108316706D01*
X138788277Y-108316706D02*
X138835896Y-108269087D01*
X138835896Y-108269087D02*
X138931134Y-108221468D01*
X138931134Y-108221468D02*
X139026372Y-108221468D01*
X139026372Y-108221468D02*
X139121610Y-108269087D01*
X139121610Y-108269087D02*
X139169229Y-108316706D01*
X139169229Y-108316706D02*
X139216848Y-108411944D01*
X139216848Y-108411944D02*
X139216848Y-108650039D01*
X139216848Y-108650039D02*
X139169229Y-108792896D01*
X138264468Y-109602420D02*
X138216848Y-109507182D01*
X138216848Y-109507182D02*
X138216848Y-109316706D01*
X138216848Y-109316706D02*
X138264468Y-109221468D01*
X138264468Y-109221468D02*
X138359706Y-109173849D01*
X138359706Y-109173849D02*
X138740658Y-109173849D01*
X138740658Y-109173849D02*
X138835896Y-109221468D01*
X138835896Y-109221468D02*
X138883515Y-109316706D01*
X138883515Y-109316706D02*
X138883515Y-109507182D01*
X138883515Y-109507182D02*
X138835896Y-109602420D01*
X138835896Y-109602420D02*
X138740658Y-109650039D01*
X138740658Y-109650039D02*
X138645420Y-109650039D01*
X138645420Y-109650039D02*
X138550182Y-109173849D01*
X138883515Y-110078611D02*
X138216848Y-110078611D01*
X138788277Y-110078611D02*
X138835896Y-110126230D01*
X138835896Y-110126230D02*
X138883515Y-110221468D01*
X138883515Y-110221468D02*
X138883515Y-110364325D01*
X138883515Y-110364325D02*
X138835896Y-110459563D01*
X138835896Y-110459563D02*
X138740658Y-110507182D01*
X138740658Y-110507182D02*
X138216848Y-110507182D01*
X138264468Y-110935754D02*
X138216848Y-111030992D01*
X138216848Y-111030992D02*
X138216848Y-111221468D01*
X138216848Y-111221468D02*
X138264468Y-111316706D01*
X138264468Y-111316706D02*
X138359706Y-111364325D01*
X138359706Y-111364325D02*
X138407325Y-111364325D01*
X138407325Y-111364325D02*
X138502563Y-111316706D01*
X138502563Y-111316706D02*
X138550182Y-111221468D01*
X138550182Y-111221468D02*
X138550182Y-111078611D01*
X138550182Y-111078611D02*
X138597801Y-110983373D01*
X138597801Y-110983373D02*
X138693039Y-110935754D01*
X138693039Y-110935754D02*
X138740658Y-110935754D01*
X138740658Y-110935754D02*
X138835896Y-110983373D01*
X138835896Y-110983373D02*
X138883515Y-111078611D01*
X138883515Y-111078611D02*
X138883515Y-111221468D01*
X138883515Y-111221468D02*
X138835896Y-111316706D01*
X138264468Y-112173849D02*
X138216848Y-112078611D01*
X138216848Y-112078611D02*
X138216848Y-111888135D01*
X138216848Y-111888135D02*
X138264468Y-111792897D01*
X138264468Y-111792897D02*
X138359706Y-111745278D01*
X138359706Y-111745278D02*
X138740658Y-111745278D01*
X138740658Y-111745278D02*
X138835896Y-111792897D01*
X138835896Y-111792897D02*
X138883515Y-111888135D01*
X138883515Y-111888135D02*
X138883515Y-112078611D01*
X138883515Y-112078611D02*
X138835896Y-112173849D01*
X138835896Y-112173849D02*
X138740658Y-112221468D01*
X138740658Y-112221468D02*
X138645420Y-112221468D01*
X138645420Y-112221468D02*
X138550182Y-111745278D01*
X138597801Y-113411945D02*
X138597801Y-114173850D01*
X138264468Y-115364326D02*
X138216848Y-115507183D01*
X138216848Y-115507183D02*
X138216848Y-115745278D01*
X138216848Y-115745278D02*
X138264468Y-115840516D01*
X138264468Y-115840516D02*
X138312087Y-115888135D01*
X138312087Y-115888135D02*
X138407325Y-115935754D01*
X138407325Y-115935754D02*
X138502563Y-115935754D01*
X138502563Y-115935754D02*
X138597801Y-115888135D01*
X138597801Y-115888135D02*
X138645420Y-115840516D01*
X138645420Y-115840516D02*
X138693039Y-115745278D01*
X138693039Y-115745278D02*
X138740658Y-115554802D01*
X138740658Y-115554802D02*
X138788277Y-115459564D01*
X138788277Y-115459564D02*
X138835896Y-115411945D01*
X138835896Y-115411945D02*
X138931134Y-115364326D01*
X138931134Y-115364326D02*
X139026372Y-115364326D01*
X139026372Y-115364326D02*
X139121610Y-115411945D01*
X139121610Y-115411945D02*
X139169229Y-115459564D01*
X139169229Y-115459564D02*
X139216848Y-115554802D01*
X139216848Y-115554802D02*
X139216848Y-115792897D01*
X139216848Y-115792897D02*
X139169229Y-115935754D01*
X138883515Y-116269088D02*
X138216848Y-116507183D01*
X138216848Y-116507183D02*
X138883515Y-116745278D01*
X138216848Y-117554802D02*
X138740658Y-117554802D01*
X138740658Y-117554802D02*
X138835896Y-117507183D01*
X138835896Y-117507183D02*
X138883515Y-117411945D01*
X138883515Y-117411945D02*
X138883515Y-117221469D01*
X138883515Y-117221469D02*
X138835896Y-117126231D01*
X138264468Y-117554802D02*
X138216848Y-117459564D01*
X138216848Y-117459564D02*
X138216848Y-117221469D01*
X138216848Y-117221469D02*
X138264468Y-117126231D01*
X138264468Y-117126231D02*
X138359706Y-117078612D01*
X138359706Y-117078612D02*
X138454944Y-117078612D01*
X138454944Y-117078612D02*
X138550182Y-117126231D01*
X138550182Y-117126231D02*
X138597801Y-117221469D01*
X138597801Y-117221469D02*
X138597801Y-117459564D01*
X138597801Y-117459564D02*
X138645420Y-117554802D01*
X138216848Y-118173850D02*
X138264468Y-118078612D01*
X138264468Y-118078612D02*
X138359706Y-118030993D01*
X138359706Y-118030993D02*
X139216848Y-118030993D01*
X138216848Y-118554803D02*
X139216848Y-118554803D01*
X138835896Y-118554803D02*
X138883515Y-118650041D01*
X138883515Y-118650041D02*
X138883515Y-118840517D01*
X138883515Y-118840517D02*
X138835896Y-118935755D01*
X138835896Y-118935755D02*
X138788277Y-118983374D01*
X138788277Y-118983374D02*
X138693039Y-119030993D01*
X138693039Y-119030993D02*
X138407325Y-119030993D01*
X138407325Y-119030993D02*
X138312087Y-118983374D01*
X138312087Y-118983374D02*
X138264468Y-118935755D01*
X138264468Y-118935755D02*
X138216848Y-118840517D01*
X138216848Y-118840517D02*
X138216848Y-118650041D01*
X138216848Y-118650041D02*
X138264468Y-118554803D01*
X138216848Y-119888136D02*
X138740658Y-119888136D01*
X138740658Y-119888136D02*
X138835896Y-119840517D01*
X138835896Y-119840517D02*
X138883515Y-119745279D01*
X138883515Y-119745279D02*
X138883515Y-119554803D01*
X138883515Y-119554803D02*
X138835896Y-119459565D01*
X138264468Y-119888136D02*
X138216848Y-119792898D01*
X138216848Y-119792898D02*
X138216848Y-119554803D01*
X138216848Y-119554803D02*
X138264468Y-119459565D01*
X138264468Y-119459565D02*
X138359706Y-119411946D01*
X138359706Y-119411946D02*
X138454944Y-119411946D01*
X138454944Y-119411946D02*
X138550182Y-119459565D01*
X138550182Y-119459565D02*
X138597801Y-119554803D01*
X138597801Y-119554803D02*
X138597801Y-119792898D01*
X138597801Y-119792898D02*
X138645420Y-119888136D01*
X138216848Y-120364327D02*
X138883515Y-120364327D01*
X138693039Y-120364327D02*
X138788277Y-120411946D01*
X138788277Y-120411946D02*
X138835896Y-120459565D01*
X138835896Y-120459565D02*
X138883515Y-120554803D01*
X138883515Y-120554803D02*
X138883515Y-120650041D01*
X138216848Y-121411946D02*
X139216848Y-121411946D01*
X138264468Y-121411946D02*
X138216848Y-121316708D01*
X138216848Y-121316708D02*
X138216848Y-121126232D01*
X138216848Y-121126232D02*
X138264468Y-121030994D01*
X138264468Y-121030994D02*
X138312087Y-120983375D01*
X138312087Y-120983375D02*
X138407325Y-120935756D01*
X138407325Y-120935756D02*
X138693039Y-120935756D01*
X138693039Y-120935756D02*
X138788277Y-120983375D01*
X138788277Y-120983375D02*
X138835896Y-121030994D01*
X138835896Y-121030994D02*
X138883515Y-121126232D01*
X138883515Y-121126232D02*
X138883515Y-121316708D01*
X138883515Y-121316708D02*
X138835896Y-121411946D01*
X138216848Y-122650042D02*
X139216848Y-122650042D01*
X139216848Y-122650042D02*
X138502563Y-122983375D01*
X138502563Y-122983375D02*
X139216848Y-123316708D01*
X139216848Y-123316708D02*
X138216848Y-123316708D01*
X138216848Y-123792899D02*
X138883515Y-123792899D01*
X139216848Y-123792899D02*
X139169229Y-123745280D01*
X139169229Y-123745280D02*
X139121610Y-123792899D01*
X139121610Y-123792899D02*
X139169229Y-123840518D01*
X139169229Y-123840518D02*
X139216848Y-123792899D01*
X139216848Y-123792899D02*
X139121610Y-123792899D01*
X138264468Y-124221470D02*
X138216848Y-124316708D01*
X138216848Y-124316708D02*
X138216848Y-124507184D01*
X138216848Y-124507184D02*
X138264468Y-124602422D01*
X138264468Y-124602422D02*
X138359706Y-124650041D01*
X138359706Y-124650041D02*
X138407325Y-124650041D01*
X138407325Y-124650041D02*
X138502563Y-124602422D01*
X138502563Y-124602422D02*
X138550182Y-124507184D01*
X138550182Y-124507184D02*
X138550182Y-124364327D01*
X138550182Y-124364327D02*
X138597801Y-124269089D01*
X138597801Y-124269089D02*
X138693039Y-124221470D01*
X138693039Y-124221470D02*
X138740658Y-124221470D01*
X138740658Y-124221470D02*
X138835896Y-124269089D01*
X138835896Y-124269089D02*
X138883515Y-124364327D01*
X138883515Y-124364327D02*
X138883515Y-124507184D01*
X138883515Y-124507184D02*
X138835896Y-124602422D01*
X138264468Y-125030994D02*
X138216848Y-125126232D01*
X138216848Y-125126232D02*
X138216848Y-125316708D01*
X138216848Y-125316708D02*
X138264468Y-125411946D01*
X138264468Y-125411946D02*
X138359706Y-125459565D01*
X138359706Y-125459565D02*
X138407325Y-125459565D01*
X138407325Y-125459565D02*
X138502563Y-125411946D01*
X138502563Y-125411946D02*
X138550182Y-125316708D01*
X138550182Y-125316708D02*
X138550182Y-125173851D01*
X138550182Y-125173851D02*
X138597801Y-125078613D01*
X138597801Y-125078613D02*
X138693039Y-125030994D01*
X138693039Y-125030994D02*
X138740658Y-125030994D01*
X138740658Y-125030994D02*
X138835896Y-125078613D01*
X138835896Y-125078613D02*
X138883515Y-125173851D01*
X138883515Y-125173851D02*
X138883515Y-125316708D01*
X138883515Y-125316708D02*
X138835896Y-125411946D01*
X138216848Y-125888137D02*
X138883515Y-125888137D01*
X139216848Y-125888137D02*
X139169229Y-125840518D01*
X139169229Y-125840518D02*
X139121610Y-125888137D01*
X139121610Y-125888137D02*
X139169229Y-125935756D01*
X139169229Y-125935756D02*
X139216848Y-125888137D01*
X139216848Y-125888137D02*
X139121610Y-125888137D01*
X138216848Y-126507184D02*
X138264468Y-126411946D01*
X138264468Y-126411946D02*
X138312087Y-126364327D01*
X138312087Y-126364327D02*
X138407325Y-126316708D01*
X138407325Y-126316708D02*
X138693039Y-126316708D01*
X138693039Y-126316708D02*
X138788277Y-126364327D01*
X138788277Y-126364327D02*
X138835896Y-126411946D01*
X138835896Y-126411946D02*
X138883515Y-126507184D01*
X138883515Y-126507184D02*
X138883515Y-126650041D01*
X138883515Y-126650041D02*
X138835896Y-126745279D01*
X138835896Y-126745279D02*
X138788277Y-126792898D01*
X138788277Y-126792898D02*
X138693039Y-126840517D01*
X138693039Y-126840517D02*
X138407325Y-126840517D01*
X138407325Y-126840517D02*
X138312087Y-126792898D01*
X138312087Y-126792898D02*
X138264468Y-126745279D01*
X138264468Y-126745279D02*
X138216848Y-126650041D01*
X138216848Y-126650041D02*
X138216848Y-126507184D01*
X138883515Y-127269089D02*
X138216848Y-127269089D01*
X138788277Y-127269089D02*
X138835896Y-127316708D01*
X138835896Y-127316708D02*
X138883515Y-127411946D01*
X138883515Y-127411946D02*
X138883515Y-127554803D01*
X138883515Y-127554803D02*
X138835896Y-127650041D01*
X138835896Y-127650041D02*
X138740658Y-127697660D01*
X138740658Y-127697660D02*
X138216848Y-127697660D01*
D12*
%TO.C,SC2*%
X165720000Y-142958022D02*
X165720000Y-100958022D01*
X165720000Y-142958022D02*
X162720000Y-142958022D01*
X165720000Y-100958022D02*
X162720000Y-100958022D01*
X145720000Y-142958022D02*
X142720000Y-142958022D01*
X142720000Y-142958022D02*
X142720000Y-100958022D01*
X142720000Y-100958022D02*
X145720000Y-100958022D01*
%TO.C,U1*%
X152012500Y-96523022D02*
X152012500Y-94523022D01*
X148592500Y-95523022D02*
X148592500Y-94523022D01*
%TO.C,SC1*%
X142720000Y-48468022D02*
X142720000Y-90468022D01*
X142720000Y-48468022D02*
X145720000Y-48468022D01*
X142720000Y-90468022D02*
X145720000Y-90468022D01*
X162720000Y-48468022D02*
X165720000Y-48468022D01*
X165720000Y-48468022D02*
X165720000Y-90468022D01*
X165720000Y-90468022D02*
X162720000Y-90468022D01*
%TO.C,U3*%
X156010000Y-96383022D02*
X157510000Y-96383022D01*
X156760000Y-94663022D02*
X157510000Y-94663022D01*
%TO.C,R6*%
X139970000Y-63290000D02*
X139970000Y-62520000D01*
X138600000Y-62520000D02*
X141340000Y-62520000D01*
X141340000Y-62520000D02*
X141340000Y-55980000D01*
X138600000Y-55980000D02*
X138600000Y-62520000D01*
X141340000Y-55980000D02*
X138600000Y-55980000D01*
X139970000Y-55210000D02*
X139970000Y-55980000D01*
D13*
%TO.C,IC1*%
X159145000Y-94873022D02*
X159145000Y-94873022D01*
X159145000Y-94873022D02*
X159145000Y-94873022D01*
X159245000Y-94873022D02*
X159245000Y-94873022D01*
X159245000Y-94873022D02*
G75*
G03*
X159145000Y-94873022I-50000J0D01*
G01*
X159145000Y-94873022D02*
G75*
G03*
X159245000Y-94873022I50000J0D01*
G01*
X159145000Y-94873022D02*
G75*
G03*
X159245000Y-94873022I50000J0D01*
G01*
%TD*%
M02*
