M48
; DRILL file {KiCad 7.0.5} date Fri Jun  2 12:32:44 2023
; FORMAT={-:-/ absolute / inch / decimal}
; #@! TF.CreationDate,2023-06-02T12:32:44-04:00
; #@! TF.GenerationSoftware,Kicad,Pcbnew,7.0.5
; #@! TF.FileFunction,Plated,1,2,PTH
FMAT,2
INCH
; #@! TA.AperFunction,Plated,PTH,ViaDrill
T1C0.0130
; #@! TA.AperFunction,Plated,PTH,ViaDrill
T2C0.0160
; #@! TA.AperFunction,Plated,PTH,ComponentDrill
T3C0.0394
%
G90
G05
T1
X5.2228Y-3.6692
X5.2228Y-3.7677
X5.2228Y-3.8661
X5.2228Y-3.9645
X5.2228Y-4.0629
X5.2228Y-4.1614
X5.3213Y-3.5708
X5.3213Y-3.6692
X5.3213Y-4.0629
X5.3213Y-4.1614
X5.3213Y-4.2598
X5.3213Y-4.3582
X5.4197Y-3.4724
X5.4197Y-3.5708
X5.4197Y-3.6692
X5.4197Y-4.0629
X5.4197Y-4.2598
X5.4197Y-4.3582
X5.4197Y-4.4566
X5.5181Y-3.374
X5.5181Y-3.4724
X5.5181Y-3.5708
X5.5181Y-3.7677
X5.5181Y-3.9645
X5.5181Y-4.0629
X5.5181Y-4.2598
X5.5181Y-4.3582
X5.5181Y-4.4566
X5.6165Y-3.4724
X5.6165Y-3.5708
X5.6165Y-3.6692
X5.6165Y-3.7677
X5.6165Y-3.8661
X5.7626Y-4.3688
X5.8134Y-3.5708
X5.8134Y-3.6692
X5.8134Y-3.7677
X5.8134Y-3.8661
X5.8134Y-4.0629
X5.9118Y-3.5708
X5.9118Y-3.6692
X5.9118Y-3.7677
X5.9118Y-3.8661
X5.9118Y-3.9645
X6.0102Y-3.6692
X6.0102Y-3.7677
X6.1087Y-3.6692
X6.2071Y-3.9645
X6.2071Y-4.3582
X6.2173Y-4.2208
X6.3055Y-3.374
X6.3055Y-3.4724
X6.3055Y-4.3582
X6.3055Y-4.4566
X6.3055Y-4.5551
X6.4039Y-3.374
X6.4039Y-3.4724
X6.4039Y-3.5708
X6.4039Y-4.2598
X6.4039Y-4.3582
X6.4039Y-4.4566
X6.4091Y-3.6996
X6.4374Y-3.952
X6.4374Y-4.0386
X6.5024Y-3.4724
X6.5024Y-3.5708
X6.5024Y-3.6692
X6.5024Y-4.2598
X6.5024Y-4.3582
X6.5024Y-4.4566
X6.6008Y-3.7677
X6.6008Y-3.8661
X6.6008Y-3.9645
X6.6008Y-4.0629
T2
X6.4346Y-3.7952
T3
X5.6618Y-3.3042
X5.6618Y-3.4042
X5.6618Y-4.4781
X5.6618Y-4.5781
X5.7618Y-3.3042
X5.7618Y-3.4042
X5.7618Y-4.4781
X5.7618Y-4.5781
X5.8618Y-3.3042
X5.8618Y-3.4042
X5.8618Y-4.4781
X5.8618Y-4.5781
X5.9618Y-3.3042
X5.9618Y-3.4042
X5.9618Y-4.4781
X5.9618Y-4.5781
X6.0618Y-3.3042
X6.0618Y-3.4042
X6.0618Y-4.4781
X6.0618Y-4.5781
X6.1618Y-3.3042
X6.1618Y-3.4042
X6.1618Y-4.4781
X6.1618Y-4.5781
T0
M30
