%TF.GenerationSoftware,KiCad,Pcbnew,(6.0.4)*%
%TF.CreationDate,2023-05-25T13:52:57-04:00*%
%TF.ProjectId,CONN,434f4e4e-2e6b-4696-9361-645f70636258,rev?*%
%TF.SameCoordinates,Original*%
%TF.FileFunction,Legend,Top*%
%TF.FilePolarity,Positive*%
%FSLAX46Y46*%
G04 Gerber Fmt 4.6, Leading zero omitted, Abs format (unit mm)*
G04 Created by KiCad (PCBNEW (6.0.4)) date 2023-05-25 13:52:57*
%MOMM*%
%LPD*%
G01*
G04 APERTURE LIST*
%ADD10C,0.150000*%
%ADD11C,0.120000*%
G04 APERTURE END LIST*
D10*
%TO.C,R7*%
X148871130Y-44235357D02*
X148394940Y-44568691D01*
X148871130Y-44806786D02*
X147871130Y-44806786D01*
X147871130Y-44425833D01*
X147918750Y-44330595D01*
X147966369Y-44282976D01*
X148061607Y-44235357D01*
X148204464Y-44235357D01*
X148299702Y-44282976D01*
X148347321Y-44330595D01*
X148394940Y-44425833D01*
X148394940Y-44806786D01*
X147871130Y-43902024D02*
X147871130Y-43235357D01*
X148871130Y-43663929D01*
%TO.C,R4*%
X142673333Y-50510402D02*
X142340000Y-50034212D01*
X142101904Y-50510402D02*
X142101904Y-49510402D01*
X142482857Y-49510402D01*
X142578095Y-49558022D01*
X142625714Y-49605641D01*
X142673333Y-49700879D01*
X142673333Y-49843736D01*
X142625714Y-49938974D01*
X142578095Y-49986593D01*
X142482857Y-50034212D01*
X142101904Y-50034212D01*
X143530476Y-49843736D02*
X143530476Y-50510402D01*
X143292380Y-49462783D02*
X143054285Y-50177069D01*
X143673333Y-50177069D01*
%TO.C,R9*%
X150524880Y-44235357D02*
X150048690Y-44568691D01*
X150524880Y-44806786D02*
X149524880Y-44806786D01*
X149524880Y-44425833D01*
X149572500Y-44330595D01*
X149620119Y-44282976D01*
X149715357Y-44235357D01*
X149858214Y-44235357D01*
X149953452Y-44282976D01*
X150001071Y-44330595D01*
X150048690Y-44425833D01*
X150048690Y-44806786D01*
X150524880Y-43759167D02*
X150524880Y-43568691D01*
X150477261Y-43473452D01*
X150429642Y-43425833D01*
X150286785Y-43330595D01*
X150096309Y-43282976D01*
X149715357Y-43282976D01*
X149620119Y-43330595D01*
X149572500Y-43378214D01*
X149524880Y-43473452D01*
X149524880Y-43663929D01*
X149572500Y-43759167D01*
X149620119Y-43806786D01*
X149715357Y-43854405D01*
X149953452Y-43854405D01*
X150048690Y-43806786D01*
X150096309Y-43759167D01*
X150143928Y-43663929D01*
X150143928Y-43473452D01*
X150096309Y-43378214D01*
X150048690Y-43330595D01*
X149953452Y-43282976D01*
%TO.C,D1*%
X155486130Y-44806786D02*
X154486130Y-44806786D01*
X154486130Y-44568691D01*
X154533750Y-44425833D01*
X154628988Y-44330595D01*
X154724226Y-44282976D01*
X154914702Y-44235357D01*
X155057559Y-44235357D01*
X155248035Y-44282976D01*
X155343273Y-44330595D01*
X155438511Y-44425833D01*
X155486130Y-44568691D01*
X155486130Y-44806786D01*
X155486130Y-43282976D02*
X155486130Y-43854405D01*
X155486130Y-43568691D02*
X154486130Y-43568691D01*
X154628988Y-43663929D01*
X154724226Y-43759167D01*
X154771845Y-43854405D01*
%TO.C,R3*%
X164233333Y-51902380D02*
X163900000Y-51426190D01*
X163661904Y-51902380D02*
X163661904Y-50902380D01*
X164042857Y-50902380D01*
X164138095Y-50950000D01*
X164185714Y-50997619D01*
X164233333Y-51092857D01*
X164233333Y-51235714D01*
X164185714Y-51330952D01*
X164138095Y-51378571D01*
X164042857Y-51426190D01*
X163661904Y-51426190D01*
X164566666Y-50902380D02*
X165185714Y-50902380D01*
X164852380Y-51283333D01*
X164995238Y-51283333D01*
X165090476Y-51330952D01*
X165138095Y-51378571D01*
X165185714Y-51473809D01*
X165185714Y-51711904D01*
X165138095Y-51807142D01*
X165090476Y-51854761D01*
X164995238Y-51902380D01*
X164709523Y-51902380D01*
X164614285Y-51854761D01*
X164566666Y-51807142D01*
%TO.C,TP1*%
X140258095Y-42992402D02*
X140829523Y-42992402D01*
X140543809Y-43992402D02*
X140543809Y-42992402D01*
X141162857Y-43992402D02*
X141162857Y-42992402D01*
X141543809Y-42992402D01*
X141639047Y-43040022D01*
X141686666Y-43087641D01*
X141734285Y-43182879D01*
X141734285Y-43325736D01*
X141686666Y-43420974D01*
X141639047Y-43468593D01*
X141543809Y-43516212D01*
X141162857Y-43516212D01*
X142686666Y-43992402D02*
X142115238Y-43992402D01*
X142400952Y-43992402D02*
X142400952Y-42992402D01*
X142305714Y-43135260D01*
X142210476Y-43230498D01*
X142115238Y-43278117D01*
%TO.C,R1*%
X153832380Y-44235357D02*
X153356190Y-44568691D01*
X153832380Y-44806786D02*
X152832380Y-44806786D01*
X152832380Y-44425833D01*
X152880000Y-44330595D01*
X152927619Y-44282976D01*
X153022857Y-44235357D01*
X153165714Y-44235357D01*
X153260952Y-44282976D01*
X153308571Y-44330595D01*
X153356190Y-44425833D01*
X153356190Y-44806786D01*
X153832380Y-43282976D02*
X153832380Y-43854405D01*
X153832380Y-43568691D02*
X152832380Y-43568691D01*
X152975238Y-43663929D01*
X153070476Y-43759167D01*
X153118095Y-43854405D01*
%TO.C,R10*%
X147217380Y-44235357D02*
X146741190Y-44568690D01*
X147217380Y-44806785D02*
X146217380Y-44806785D01*
X146217380Y-44425833D01*
X146265000Y-44330595D01*
X146312619Y-44282976D01*
X146407857Y-44235357D01*
X146550714Y-44235357D01*
X146645952Y-44282976D01*
X146693571Y-44330595D01*
X146741190Y-44425833D01*
X146741190Y-44806785D01*
X147217380Y-43282976D02*
X147217380Y-43854404D01*
X147217380Y-43568690D02*
X146217380Y-43568690D01*
X146360238Y-43663928D01*
X146455476Y-43759166D01*
X146503095Y-43854404D01*
X146217380Y-42663928D02*
X146217380Y-42568690D01*
X146265000Y-42473452D01*
X146312619Y-42425833D01*
X146407857Y-42378214D01*
X146598333Y-42330595D01*
X146836428Y-42330595D01*
X147026904Y-42378214D01*
X147122142Y-42425833D01*
X147169761Y-42473452D01*
X147217380Y-42568690D01*
X147217380Y-42663928D01*
X147169761Y-42759166D01*
X147122142Y-42806785D01*
X147026904Y-42854404D01*
X146836428Y-42902023D01*
X146598333Y-42902023D01*
X146407857Y-42854404D01*
X146312619Y-42806785D01*
X146265000Y-42759166D01*
X146217380Y-42663928D01*
%TO.C,R8*%
X158793630Y-44235357D02*
X158317440Y-44568691D01*
X158793630Y-44806786D02*
X157793630Y-44806786D01*
X157793630Y-44425833D01*
X157841250Y-44330595D01*
X157888869Y-44282976D01*
X157984107Y-44235357D01*
X158126964Y-44235357D01*
X158222202Y-44282976D01*
X158269821Y-44330595D01*
X158317440Y-44425833D01*
X158317440Y-44806786D01*
X158222202Y-43663929D02*
X158174583Y-43759167D01*
X158126964Y-43806786D01*
X158031726Y-43854405D01*
X157984107Y-43854405D01*
X157888869Y-43806786D01*
X157841250Y-43759167D01*
X157793630Y-43663929D01*
X157793630Y-43473452D01*
X157841250Y-43378214D01*
X157888869Y-43330595D01*
X157984107Y-43282976D01*
X158031726Y-43282976D01*
X158126964Y-43330595D01*
X158174583Y-43378214D01*
X158222202Y-43473452D01*
X158222202Y-43663929D01*
X158269821Y-43759167D01*
X158317440Y-43806786D01*
X158412678Y-43854405D01*
X158603154Y-43854405D01*
X158698392Y-43806786D01*
X158746011Y-43759167D01*
X158793630Y-43663929D01*
X158793630Y-43473452D01*
X158746011Y-43378214D01*
X158698392Y-43330595D01*
X158603154Y-43282976D01*
X158412678Y-43282976D01*
X158317440Y-43330595D01*
X158269821Y-43378214D01*
X158222202Y-43473452D01*
%TO.C,C1*%
X157044642Y-44235357D02*
X157092261Y-44282976D01*
X157139880Y-44425833D01*
X157139880Y-44521071D01*
X157092261Y-44663929D01*
X156997023Y-44759167D01*
X156901785Y-44806786D01*
X156711309Y-44854405D01*
X156568452Y-44854405D01*
X156377976Y-44806786D01*
X156282738Y-44759167D01*
X156187500Y-44663929D01*
X156139880Y-44521071D01*
X156139880Y-44425833D01*
X156187500Y-44282976D01*
X156235119Y-44235357D01*
X157139880Y-43282976D02*
X157139880Y-43854405D01*
X157139880Y-43568691D02*
X156139880Y-43568691D01*
X156282738Y-43663929D01*
X156377976Y-43759167D01*
X156425595Y-43854405D01*
%TO.C,R2*%
X164243333Y-50232380D02*
X163910000Y-49756190D01*
X163671904Y-50232380D02*
X163671904Y-49232380D01*
X164052857Y-49232380D01*
X164148095Y-49280000D01*
X164195714Y-49327619D01*
X164243333Y-49422857D01*
X164243333Y-49565714D01*
X164195714Y-49660952D01*
X164148095Y-49708571D01*
X164052857Y-49756190D01*
X163671904Y-49756190D01*
X164624285Y-49327619D02*
X164671904Y-49280000D01*
X164767142Y-49232380D01*
X165005238Y-49232380D01*
X165100476Y-49280000D01*
X165148095Y-49327619D01*
X165195714Y-49422857D01*
X165195714Y-49518095D01*
X165148095Y-49660952D01*
X164576666Y-50232380D01*
X165195714Y-50232380D01*
%TO.C,R5*%
X160447380Y-44235357D02*
X159971190Y-44568691D01*
X160447380Y-44806786D02*
X159447380Y-44806786D01*
X159447380Y-44425833D01*
X159495000Y-44330595D01*
X159542619Y-44282976D01*
X159637857Y-44235357D01*
X159780714Y-44235357D01*
X159875952Y-44282976D01*
X159923571Y-44330595D01*
X159971190Y-44425833D01*
X159971190Y-44806786D01*
X159447380Y-43330595D02*
X159447380Y-43806786D01*
X159923571Y-43854405D01*
X159875952Y-43806786D01*
X159828333Y-43711548D01*
X159828333Y-43473452D01*
X159875952Y-43378214D01*
X159923571Y-43330595D01*
X160018809Y-43282976D01*
X160256904Y-43282976D01*
X160352142Y-43330595D01*
X160399761Y-43378214D01*
X160447380Y-43473452D01*
X160447380Y-43711548D01*
X160399761Y-43806786D01*
X160352142Y-43854405D01*
%TO.C,U1*%
X149398095Y-49100402D02*
X149398095Y-49909926D01*
X149445714Y-50005164D01*
X149493333Y-50052783D01*
X149588571Y-50100402D01*
X149779047Y-50100402D01*
X149874285Y-50052783D01*
X149921904Y-50005164D01*
X149969523Y-49909926D01*
X149969523Y-49100402D01*
X150969523Y-50100402D02*
X150398095Y-50100402D01*
X150683809Y-50100402D02*
X150683809Y-49100402D01*
X150588571Y-49243260D01*
X150493333Y-49338498D01*
X150398095Y-49386117D01*
%TO.C,R6*%
X152178630Y-44235357D02*
X151702440Y-44568691D01*
X152178630Y-44806786D02*
X151178630Y-44806786D01*
X151178630Y-44425833D01*
X151226250Y-44330595D01*
X151273869Y-44282976D01*
X151369107Y-44235357D01*
X151511964Y-44235357D01*
X151607202Y-44282976D01*
X151654821Y-44330595D01*
X151702440Y-44425833D01*
X151702440Y-44806786D01*
X151178630Y-43378214D02*
X151178630Y-43568691D01*
X151226250Y-43663929D01*
X151273869Y-43711548D01*
X151416726Y-43806786D01*
X151607202Y-43854405D01*
X151988154Y-43854405D01*
X152083392Y-43806786D01*
X152131011Y-43759167D01*
X152178630Y-43663929D01*
X152178630Y-43473452D01*
X152131011Y-43378214D01*
X152083392Y-43330595D01*
X151988154Y-43282976D01*
X151750059Y-43282976D01*
X151654821Y-43330595D01*
X151607202Y-43378214D01*
X151559583Y-43473452D01*
X151559583Y-43663929D01*
X151607202Y-43759167D01*
X151654821Y-43806786D01*
X151750059Y-43854405D01*
D11*
%TO.C,J3*%
X148420000Y-41293022D02*
X148420000Y-38693022D01*
X161180000Y-41293022D02*
X161180000Y-36093022D01*
X145820000Y-41293022D02*
X145820000Y-39963022D01*
X148420000Y-41293022D02*
X161180000Y-41293022D01*
X145820000Y-36093022D02*
X161180000Y-36093022D01*
X145820000Y-38693022D02*
X145820000Y-36093022D01*
X148420000Y-38693022D02*
X145820000Y-38693022D01*
X147150000Y-41293022D02*
X145820000Y-41293022D01*
%TO.C,J2*%
X170500000Y-48828022D02*
X170500000Y-50888022D01*
X170440000Y-48828022D02*
X170440000Y-52948022D01*
X170500000Y-50888022D02*
X172560000Y-50888022D01*
X172560000Y-52948022D02*
X170440000Y-52948022D01*
X172560000Y-48828022D02*
X172560000Y-49888022D01*
X170500000Y-48828022D02*
X170440000Y-48828022D01*
X172560000Y-50888022D02*
X172560000Y-52948022D01*
X171500000Y-48828022D02*
X172560000Y-48828022D01*
%TO.C,R7*%
X147862500Y-47167224D02*
X147862500Y-46657776D01*
X148907500Y-47167224D02*
X148907500Y-46657776D01*
%TO.C,J9*%
X154640000Y-67728022D02*
X154640000Y-66578022D01*
X162860000Y-66578022D02*
X161810000Y-66578022D01*
X162860000Y-67728022D02*
X162860000Y-66578022D01*
X154640000Y-66578022D02*
X155690000Y-66578022D01*
X161690000Y-69698022D02*
X155810000Y-69698022D01*
X161810000Y-66578022D02*
X161810000Y-65588022D01*
%TO.C,R4*%
X145894724Y-50580522D02*
X145385276Y-50580522D01*
X145894724Y-49535522D02*
X145385276Y-49535522D01*
%TO.C,R9*%
X150557500Y-46657776D02*
X150557500Y-47167224D01*
X149512500Y-46657776D02*
X149512500Y-47167224D01*
%TO.C,D1*%
X155760000Y-47735000D02*
X155760000Y-45275000D01*
X154290000Y-45275000D02*
X154290000Y-47735000D01*
X155760000Y-45275000D02*
X154290000Y-45275000D01*
%TO.C,R3*%
X161495276Y-50927500D02*
X162004724Y-50927500D01*
X161495276Y-51972500D02*
X162004724Y-51972500D01*
%TO.C,J7*%
X151310000Y-60578022D02*
X151310000Y-59588022D01*
X152360000Y-60578022D02*
X151310000Y-60578022D01*
X152360000Y-61728022D02*
X152360000Y-60578022D01*
X144140000Y-60578022D02*
X145190000Y-60578022D01*
X151190000Y-63698022D02*
X145310000Y-63698022D01*
X144140000Y-61728022D02*
X144140000Y-60578022D01*
%TO.C,J6*%
X140940000Y-53778022D02*
X141990000Y-53778022D01*
X147990000Y-56898022D02*
X142110000Y-56898022D01*
X140940000Y-54928022D02*
X140940000Y-53778022D01*
X149160000Y-53778022D02*
X148110000Y-53778022D01*
X149160000Y-54928022D02*
X149160000Y-53778022D01*
X148110000Y-53778022D02*
X148110000Y-52788022D01*
%TO.C,TP1*%
X142220000Y-45688022D02*
X140820000Y-45688022D01*
X140820000Y-44288022D02*
X142220000Y-44288022D01*
X140820000Y-45688022D02*
X140820000Y-44288022D01*
X142220000Y-44288022D02*
X142220000Y-45688022D01*
%TO.C,R1*%
X152812500Y-47167224D02*
X152812500Y-46657776D01*
X153857500Y-47167224D02*
X153857500Y-46657776D01*
%TO.C,J1*%
X134395000Y-48558022D02*
X136995000Y-48558022D01*
X136995000Y-48558022D02*
X136995000Y-45958022D01*
X134395000Y-48558022D02*
X134395000Y-61318022D01*
X136995000Y-45958022D02*
X139595000Y-45958022D01*
X139595000Y-45958022D02*
X139595000Y-61318022D01*
X134395000Y-61318022D02*
X139595000Y-61318022D01*
X134395000Y-45958022D02*
X135725000Y-45958022D01*
X134395000Y-47288022D02*
X134395000Y-45958022D01*
%TO.C,J8*%
X168040000Y-57698022D02*
X162160000Y-57698022D01*
X169210000Y-54578022D02*
X168160000Y-54578022D01*
X160990000Y-55728022D02*
X160990000Y-54578022D01*
X169210000Y-55728022D02*
X169210000Y-54578022D01*
X160990000Y-54578022D02*
X162040000Y-54578022D01*
X168160000Y-54578022D02*
X168160000Y-53588022D01*
%TO.C,J4*%
X151310000Y-66578022D02*
X151310000Y-65588022D01*
X151190000Y-69698022D02*
X145310000Y-69698022D01*
X152360000Y-66578022D02*
X151310000Y-66578022D01*
X144140000Y-67728022D02*
X144140000Y-66578022D01*
X144140000Y-66578022D02*
X145190000Y-66578022D01*
X152360000Y-67728022D02*
X152360000Y-66578022D01*
%TO.C,R10*%
X147257500Y-46657776D02*
X147257500Y-47167224D01*
X146212500Y-46657776D02*
X146212500Y-47167224D01*
%TO.C,R8*%
X157842500Y-46647776D02*
X157842500Y-47157224D01*
X158887500Y-46647776D02*
X158887500Y-47157224D01*
%TO.C,C1*%
X157225000Y-47048767D02*
X157225000Y-46756233D01*
X156205000Y-47048767D02*
X156205000Y-46756233D01*
%TO.C,R2*%
X161495276Y-50302500D02*
X162004724Y-50302500D01*
X161495276Y-49257500D02*
X162004724Y-49257500D01*
%TO.C,R5*%
X159492500Y-47157224D02*
X159492500Y-46647776D01*
X160537500Y-47157224D02*
X160537500Y-46647776D01*
%TO.C,U1*%
X155150000Y-49153022D02*
X157350000Y-49153022D01*
X155150000Y-57223022D02*
X157350000Y-57223022D01*
X155150000Y-57223022D02*
X152950000Y-57223022D01*
X155150000Y-49153022D02*
X151550000Y-49153022D01*
%TO.C,R6*%
X152207500Y-47167224D02*
X152207500Y-46657776D01*
X151162500Y-47167224D02*
X151162500Y-46657776D01*
%TO.C,J5*%
X161690000Y-63698022D02*
X155810000Y-63698022D01*
X162860000Y-60578022D02*
X161810000Y-60578022D01*
X154640000Y-60578022D02*
X155690000Y-60578022D01*
X161810000Y-60578022D02*
X161810000Y-59588022D01*
X162860000Y-61728022D02*
X162860000Y-60578022D01*
X154640000Y-61728022D02*
X154640000Y-60578022D01*
%TD*%
M02*
