M48
; DRILL file {KiCad (6.0.4)} date Thu May 25 13:52:59 2023
; FORMAT={-:-/ absolute / inch / decimal}
; #@! TF.CreationDate,2023-05-25T13:52:59-04:00
; #@! TF.GenerationSoftware,Kicad,Pcbnew,(6.0.4)
; #@! TF.FileFunction,Plated,1,2,PTH
FMAT,2
INCH
; #@! TA.AperFunction,Plated,PTH,ViaDrill
T1C0.0130
; #@! TA.AperFunction,Plated,PTH,ComponentDrill
T2C0.0315
; #@! TA.AperFunction,Plated,PTH,ComponentDrill
T3C0.0394
%
G90
G05
T1
X5.4528Y-1.6019
X5.4528Y-1.6806
X5.4528Y-1.7594
X5.4921Y-2.4287
X5.4921Y-2.5074
X5.4921Y-2.5861
X5.5315Y-1.6019
X5.5315Y-1.6806
X5.5709Y-2.3499
X5.5709Y-2.4287
X5.5709Y-2.5074
X5.5709Y-2.5861
X5.5709Y-2.6649
X5.5719Y-1.7694
X5.6516Y-2.1088
X5.6976Y-1.9712
X5.7776Y-2.1403
X5.7776Y-2.3765
X5.7776Y-2.6127
X5.8071Y-2.8224
X5.8169Y-2.1403
X5.8366Y-2.468
X5.8419Y-1.811
X5.8858Y-1.3657
X5.8858Y-2.8224
X5.8957Y-2.3765
X5.8957Y-2.6127
X5.935Y-2.3765
X5.935Y-2.6127
X5.9646Y-1.3657
X5.9646Y-2.8224
X5.9719Y-1.811
X6.0039Y-2.2909
X6.0039Y-2.5468
X6.0433Y-1.3657
X6.0433Y-1.6806
X6.0433Y-2.3794
X6.0433Y-2.8224
X6.1024Y-1.9759
X6.1024Y-2.0546
X6.1024Y-2.1334
X6.1024Y-2.2121
X6.1024Y-2.2909
X6.1122Y-2.5468
X6.122Y-1.3657
X6.122Y-1.6806
X6.122Y-2.8224
X6.1571Y-2.7743
X6.1699Y-1.8805
X6.1909Y-2.3765
X6.1909Y-2.6127
X6.2008Y-1.3657
X6.2008Y-1.6806
X6.2008Y-2.8224
X6.2413Y-2.7224
X6.25Y-2.468
X6.2795Y-1.6806
X6.2799Y-2.0302
X6.2998Y-1.8106
X6.2998Y-1.8825
X6.3091Y-2.3765
X6.3091Y-2.6127
X6.3322Y-1.9598
X6.3322Y-2.0256
X6.3484Y-2.3765
X6.3484Y-2.6127
X6.437Y-1.5232
X6.437Y-1.6019
X6.437Y-1.6806
X6.437Y-1.7594
X6.4409Y-2.1403
X6.5157Y-1.5232
X6.5157Y-1.6019
X6.5157Y-1.6806
X6.5157Y-1.7594
X6.5157Y-1.8381
X6.5157Y-1.9169
X6.5157Y-2.3893
X6.5157Y-2.468
X6.5157Y-2.5468
X6.5157Y-2.6255
X6.5591Y-2.1403
X6.5942Y-1.9953
X6.5945Y-1.6019
X6.5945Y-1.6806
X6.5945Y-1.7594
X6.5945Y-1.8381
X6.5945Y-1.9169
X6.5945Y-2.3893
X6.5945Y-2.468
X6.5945Y-2.5468
X6.5945Y-2.6255
X6.5984Y-2.1403
X6.673Y-1.9169
X6.673Y-1.9953
X6.6732Y-1.7594
X6.6732Y-1.8381
X6.6732Y-2.3893
X6.6732Y-2.468
X6.752Y-1.8381
X6.752Y-2.1531
X6.752Y-2.2318
X6.752Y-2.3106
X6.752Y-2.3893
T2
X6.752Y-1.9641
X6.752Y-2.0428
T3
X5.3435Y-1.8617
X5.3435Y-1.9617
X5.3435Y-2.0617
X5.3435Y-2.1617
X5.3435Y-2.2617
X5.3435Y-2.3617
X5.4435Y-1.8617
X5.4435Y-1.9617
X5.4435Y-2.0617
X5.4435Y-2.1617
X5.4435Y-2.2617
X5.4435Y-2.3617
X5.7933Y-1.4733
X5.7933Y-1.5733
X5.8933Y-1.4733
X5.8933Y-1.5733
X5.9933Y-1.4733
X5.9933Y-1.5733
X6.0933Y-1.4733
X6.0933Y-1.5733
X6.1933Y-1.4733
X6.1933Y-1.5733
X6.2933Y-1.4733
X6.2933Y-1.5733
T0
M30
