  0
SECTION
  2
HEADER
  9
$ANGBASE
  50
0.0
  9
$ANGDIR
  70
1
  9
$MEASUREMENT
  70
1
  0
ENDSEC
  0
SECTION
  2
TABLES
  0
TABLE
  2
LTYPE
  70
4
  0
LTYPE
  5
40F
  2
CONTINUOUS
  70
0
  3
Solid line
  72
65
  73
0
  40
0.0
  0
LTYPE
  5
410
  2
DASHDOT
 70
0
  3
Dash Dot ____ _ ____ _
 72
65
 73
4
 40
2.0
 49
1.25
 49
-0.25
 49
0.25
 49
-0.25
  0
LTYPE
  5
411
  2
DASHED
 70
0
  3
Dashed __ __ __ __ __
 72
65
 73
2
 40
0.75
 49
0.5
 49
-0.25
  0
LTYPE
  5
43B
  2
DOTTED
 70
0
  3
Dotted .  .  .  .
 72
65
 73
2
 40
0.2
 49
0.0
 49
-0.2
  0
ENDTAB
  0
TABLE
  2
STYLE
  70
4
  0
STYLE
  2
KICAD
  70
0
  40
0
  41
1
  42
1
  50
0
  71
0
  3
isocp.shx
  0
STYLE
  2
KICADB
  70
0
  40
0
  41
1
  42
1
  50
0
  71
0
  3
isocp.shx
  0
STYLE
  2
KICADI
  70
0
  40
0
  41
1
  42
1
  50
15
  71
0
  3
isocp.shx
  0
STYLE
  2
KICADBI
  70
0
  40
0
  41
1
  42
1
  50
15
  71
0
  3
isocp.shx
  0
ENDTAB
  0
TABLE
  2
LAYER
  70
1
  0
LAYER
  2
BLACK
  70
0
  62
7
  6
CONTINUOUS
  0
ENDTAB
  0
ENDSEC
  0
SECTION
  2
ENTITIES
0
LINE
8
BLACK
6
CONTINUOUS
10
155.24
20
-112.354
11
155.282
21
-112.371
0
LINE
8
BLACK
6
CONTINUOUS
10
155.282
20
-112.371
11
155.3
21
-112.414
0
LINE
8
BLACK
6
CONTINUOUS
10
155.3
20
-112.414
11
155.3
21
-114.954
0
LINE
8
BLACK
6
CONTINUOUS
10
155.3
20
-114.954
11
157.84
21
-114.954
0
LINE
8
BLACK
6
CONTINUOUS
10
157.84
20
-114.954
11
157.882
21
-114.971
0
LINE
8
BLACK
6
CONTINUOUS
10
157.882
20
-114.971
11
157.9
21
-115.014
0
LINE
8
BLACK
6
CONTINUOUS
10
157.9
20
-115.014
11
157.9
21
-117.614
0
LINE
8
BLACK
6
CONTINUOUS
10
157.9
20
-117.614
11
157.882
21
-117.656
0
LINE
8
BLACK
6
CONTINUOUS
10
157.882
20
-117.656
11
157.84
21
-117.674
0
LINE
8
BLACK
6
CONTINUOUS
10
157.84
20
-117.674
11
142.48
21
-117.674
0
LINE
8
BLACK
6
CONTINUOUS
10
142.48
20
-117.674
11
142.438
21
-117.656
0
LINE
8
BLACK
6
CONTINUOUS
10
142.438
20
-117.656
11
142.42
21
-117.614
0
LINE
8
BLACK
6
CONTINUOUS
10
142.42
20
-117.614
11
142.42
21
-112.414
0
LINE
8
BLACK
6
CONTINUOUS
10
142.42
20
-112.414
11
142.438
21
-112.371
0
LINE
8
BLACK
6
CONTINUOUS
10
142.438
20
-112.371
11
142.48
21
-112.354
0
LINE
8
BLACK
6
CONTINUOUS
10
142.48
20
-112.354
11
155.24
21
-112.354
0
LINE
8
BLACK
6
CONTINUOUS
10
142.54
20
-112.474
11
142.54
21
-117.554
0
LINE
8
BLACK
6
CONTINUOUS
10
142.54
20
-117.554
11
157.78
21
-117.554
0
LINE
8
BLACK
6
CONTINUOUS
10
157.78
20
-117.554
11
157.78
21
-115.074
0
LINE
8
BLACK
6
CONTINUOUS
10
157.78
20
-115.074
11
155.24
21
-115.074
0
LINE
8
BLACK
6
CONTINUOUS
10
155.24
20
-115.074
11
155.198
21
-115.056
0
LINE
8
BLACK
6
CONTINUOUS
10
155.198
20
-115.056
11
155.18
21
-115.014
0
LINE
8
BLACK
6
CONTINUOUS
10
155.18
20
-115.014
11
155.18
21
-112.474
0
LINE
8
BLACK
6
CONTINUOUS
10
155.18
20
-112.474
11
142.54
21
-112.474
0
LINE
8
BLACK
6
CONTINUOUS
10
157.84
20
-112.354
11
157.882
21
-112.371
0
LINE
8
BLACK
6
CONTINUOUS
10
157.882
20
-112.371
11
157.9
21
-112.414
0
LINE
8
BLACK
6
CONTINUOUS
10
157.9
20
-112.414
11
157.9
21
-113.744
0
LINE
8
BLACK
6
CONTINUOUS
10
157.9
20
-113.744
11
157.882
21
-113.786
0
LINE
8
BLACK
6
CONTINUOUS
10
157.882
20
-113.786
11
157.84
21
-113.804
0
LINE
8
BLACK
6
CONTINUOUS
10
157.84
20
-113.804
11
157.798
21
-113.786
0
LINE
8
BLACK
6
CONTINUOUS
10
157.798
20
-113.786
11
157.78
21
-113.744
0
LINE
8
BLACK
6
CONTINUOUS
10
157.78
20
-113.744
11
157.78
21
-112.474
0
LINE
8
BLACK
6
CONTINUOUS
10
157.78
20
-112.474
11
156.51
21
-112.474
0
LINE
8
BLACK
6
CONTINUOUS
10
156.51
20
-112.474
11
156.468
21
-112.456
0
LINE
8
BLACK
6
CONTINUOUS
10
156.468
20
-112.456
11
156.45
21
-112.414
0
LINE
8
BLACK
6
CONTINUOUS
10
156.45
20
-112.414
11
156.468
21
-112.371
0
LINE
8
BLACK
6
CONTINUOUS
10
156.468
20
-112.371
11
156.51
21
-112.354
0
LINE
8
BLACK
6
CONTINUOUS
10
156.51
20
-112.354
11
157.84
21
-112.354
0
LINE
8
BLACK
6
CONTINUOUS
10
144.698
20
-107.001
11
144.702
21
-107.004
0
LINE
8
BLACK
6
CONTINUOUS
10
144.702
20
-107.004
11
144.706
21
-107.005
0
LINE
8
BLACK
6
CONTINUOUS
10
144.706
20
-107.005
11
144.724
21
-107.014
0
LINE
8
BLACK
6
CONTINUOUS
10
144.724
20
-107.014
11
144.73
21
-107.007
0
LINE
8
BLACK
6
CONTINUOUS
10
144.73
20
-107.007
11
144.781
21
-106.998
0
LINE
8
BLACK
6
CONTINUOUS
10
144.781
20
-106.998
11
144.825
21
-107.024
0
LINE
8
BLACK
6
CONTINUOUS
10
144.825
20
-107.024
11
144.843
21
-107.072
0
LINE
8
BLACK
6
CONTINUOUS
10
144.843
20
-107.072
11
144.843
21
-107.881
0
LINE
8
BLACK
6
CONTINUOUS
10
144.843
20
-107.881
11
144.838
21
-107.907
0
LINE
8
BLACK
6
CONTINUOUS
10
144.838
20
-107.907
11
144.835
21
-107.91
0
LINE
8
BLACK
6
CONTINUOUS
10
144.835
20
-107.91
11
144.835
21
-107.915
0
LINE
8
BLACK
6
CONTINUOUS
10
144.835
20
-107.915
11
144.787
21
-108.01
0
LINE
8
BLACK
6
CONTINUOUS
10
144.787
20
-108.01
11
144.774
21
-108.028
0
LINE
8
BLACK
6
CONTINUOUS
10
144.774
20
-108.028
11
144.773
21
-108.03
0
LINE
8
BLACK
6
CONTINUOUS
10
144.773
20
-108.03
11
144.726
21
-108.077
0
LINE
8
BLACK
6
CONTINUOUS
10
144.726
20
-108.077
11
144.707
21
-108.09
0
LINE
8
BLACK
6
CONTINUOUS
10
144.707
20
-108.09
11
144.706
21
-108.091
0
LINE
8
BLACK
6
CONTINUOUS
10
144.706
20
-108.091
11
144.611
21
-108.139
0
LINE
8
BLACK
6
CONTINUOUS
10
144.611
20
-108.139
11
144.586
21
-108.146
0
LINE
8
BLACK
6
CONTINUOUS
10
144.586
20
-108.146
11
144.581
21
-108.145
0
LINE
8
BLACK
6
CONTINUOUS
10
144.581
20
-108.145
11
144.577
21
-108.147
0
LINE
8
BLACK
6
CONTINUOUS
10
144.577
20
-108.147
11
144.434
21
-108.147
0
LINE
8
BLACK
6
CONTINUOUS
10
144.434
20
-108.147
11
144.409
21
-108.142
0
LINE
8
BLACK
6
CONTINUOUS
10
144.409
20
-108.142
11
144.405
21
-108.139
0
LINE
8
BLACK
6
CONTINUOUS
10
144.405
20
-108.139
11
144.401
21
-108.139
0
LINE
8
BLACK
6
CONTINUOUS
10
144.401
20
-108.139
11
144.306
21
-108.091
0
LINE
8
BLACK
6
CONTINUOUS
10
144.306
20
-108.091
11
144.285
21
-108.076
0
LINE
8
BLACK
6
CONTINUOUS
10
144.285
20
-108.076
11
144.264
21
-108.029
0
LINE
8
BLACK
6
CONTINUOUS
10
144.264
20
-108.029
11
144.279
21
-107.979
0
LINE
8
BLACK
6
CONTINUOUS
10
144.279
20
-107.979
11
144.322
21
-107.951
0
LINE
8
BLACK
6
CONTINUOUS
10
144.322
20
-107.951
11
144.373
21
-107.957
0
LINE
8
BLACK
6
CONTINUOUS
10
144.373
20
-107.957
11
144.452
21
-107.997
0
LINE
8
BLACK
6
CONTINUOUS
10
144.452
20
-107.997
11
144.56
21
-107.997
0
LINE
8
BLACK
6
CONTINUOUS
10
144.56
20
-107.997
11
144.628
21
-107.963
0
LINE
8
BLACK
6
CONTINUOUS
10
144.628
20
-107.963
11
144.658
21
-107.932
0
LINE
8
BLACK
6
CONTINUOUS
10
144.658
20
-107.932
11
144.693
21
-107.864
0
LINE
8
BLACK
6
CONTINUOUS
10
144.693
20
-107.864
11
144.693
21
-107.809
0
LINE
8
BLACK
6
CONTINUOUS
10
144.693
20
-107.809
11
144.681
21
-107.813
0
LINE
8
BLACK
6
CONTINUOUS
10
144.681
20
-107.813
11
144.677
21
-107.812
0
LINE
8
BLACK
6
CONTINUOUS
10
144.677
20
-107.812
11
144.672
21
-107.813
0
LINE
8
BLACK
6
CONTINUOUS
10
144.672
20
-107.813
11
144.482
21
-107.813
0
LINE
8
BLACK
6
CONTINUOUS
10
144.482
20
-107.813
11
144.456
21
-107.809
0
LINE
8
BLACK
6
CONTINUOUS
10
144.456
20
-107.809
11
144.453
21
-107.806
0
LINE
8
BLACK
6
CONTINUOUS
10
144.453
20
-107.806
11
144.448
21
-107.806
0
LINE
8
BLACK
6
CONTINUOUS
10
144.448
20
-107.806
11
144.353
21
-107.758
0
LINE
8
BLACK
6
CONTINUOUS
10
144.353
20
-107.758
11
144.335
21
-107.745
0
LINE
8
BLACK
6
CONTINUOUS
10
144.335
20
-107.745
11
144.334
21
-107.744
0
LINE
8
BLACK
6
CONTINUOUS
10
144.334
20
-107.744
11
144.286
21
-107.696
0
LINE
8
BLACK
6
CONTINUOUS
10
144.286
20
-107.696
11
144.273
21
-107.678
0
LINE
8
BLACK
6
CONTINUOUS
10
144.273
20
-107.678
11
144.272
21
-107.677
0
LINE
8
BLACK
6
CONTINUOUS
10
144.272
20
-107.677
11
144.224
21
-107.582
0
LINE
8
BLACK
6
CONTINUOUS
10
144.224
20
-107.582
11
144.217
21
-107.557
0
LINE
8
BLACK
6
CONTINUOUS
10
144.217
20
-107.557
11
144.218
21
-107.552
0
LINE
8
BLACK
6
CONTINUOUS
10
144.218
20
-107.552
11
144.217
21
-107.548
0
LINE
8
BLACK
6
CONTINUOUS
10
144.217
20
-107.548
11
144.217
21
-107.262
0
LINE
8
BLACK
6
CONTINUOUS
10
144.217
20
-107.262
11
144.221
21
-107.237
0
LINE
8
BLACK
6
CONTINUOUS
10
144.221
20
-107.237
11
144.224
21
-107.233
0
LINE
8
BLACK
6
CONTINUOUS
10
144.224
20
-107.233
11
144.224
21
-107.229
0
LINE
8
BLACK
6
CONTINUOUS
10
144.224
20
-107.229
11
144.272
21
-107.133
0
LINE
8
BLACK
6
CONTINUOUS
10
144.272
20
-107.133
11
144.285
21
-107.115
0
LINE
8
BLACK
6
CONTINUOUS
10
144.285
20
-107.115
11
144.286
21
-107.114
0
LINE
8
BLACK
6
CONTINUOUS
10
144.286
20
-107.114
11
144.334
21
-107.066
0
LINE
8
BLACK
6
CONTINUOUS
10
144.334
20
-107.066
11
144.352
21
-107.053
0
LINE
8
BLACK
6
CONTINUOUS
10
144.352
20
-107.053
11
144.353
21
-107.052
0
LINE
8
BLACK
6
CONTINUOUS
10
144.353
20
-107.052
11
144.448
21
-107.005
0
LINE
8
BLACK
6
CONTINUOUS
10
144.448
20
-107.005
11
144.473
21
-106.997
0
LINE
8
BLACK
6
CONTINUOUS
10
144.473
20
-106.997
11
144.478
21
-106.998
0
LINE
8
BLACK
6
CONTINUOUS
10
144.478
20
-106.998
11
144.482
21
-106.997
0
LINE
8
BLACK
6
CONTINUOUS
10
144.482
20
-106.997
11
144.672
21
-106.997
0
LINE
8
BLACK
6
CONTINUOUS
10
144.672
20
-106.997
11
144.698
21
-107.001
0
LINE
8
BLACK
6
CONTINUOUS
10
144.431
20
-107.181
11
144.401
21
-107.211
0
LINE
8
BLACK
6
CONTINUOUS
10
144.401
20
-107.211
11
144.367
21
-107.28
0
LINE
8
BLACK
6
CONTINUOUS
10
144.367
20
-107.28
11
144.367
21
-107.53
0
LINE
8
BLACK
6
CONTINUOUS
10
144.367
20
-107.53
11
144.401
21
-107.599
0
LINE
8
BLACK
6
CONTINUOUS
10
144.401
20
-107.599
11
144.431
21
-107.629
0
LINE
8
BLACK
6
CONTINUOUS
10
144.431
20
-107.629
11
144.5
21
-107.663
0
LINE
8
BLACK
6
CONTINUOUS
10
144.5
20
-107.663
11
144.655
21
-107.663
0
LINE
8
BLACK
6
CONTINUOUS
10
144.655
20
-107.663
11
144.693
21
-107.644
0
LINE
8
BLACK
6
CONTINUOUS
10
144.693
20
-107.644
11
144.693
21
-107.166
0
LINE
8
BLACK
6
CONTINUOUS
10
144.693
20
-107.166
11
144.655
21
-107.147
0
LINE
8
BLACK
6
CONTINUOUS
10
144.655
20
-107.147
11
144.5
21
-107.147
0
LINE
8
BLACK
6
CONTINUOUS
10
144.5
20
-107.147
11
144.431
21
-107.181
0
LINE
8
BLACK
6
CONTINUOUS
10
140.317
20
-107.763
11
140.356
21
-107.796
0
LINE
8
BLACK
6
CONTINUOUS
10
140.356
20
-107.796
11
140.365
21
-107.847
0
LINE
8
BLACK
6
CONTINUOUS
10
140.365
20
-107.847
11
140.34
21
-107.891
0
LINE
8
BLACK
6
CONTINUOUS
10
140.34
20
-107.891
11
140.292
21
-107.909
0
LINE
8
BLACK
6
CONTINUOUS
10
140.292
20
-107.909
11
139.53
21
-107.909
0
LINE
8
BLACK
6
CONTINUOUS
10
139.53
20
-107.909
11
139.504
21
-107.904
0
LINE
8
BLACK
6
CONTINUOUS
10
139.504
20
-107.904
11
139.465
21
-107.871
0
LINE
8
BLACK
6
CONTINUOUS
10
139.465
20
-107.871
11
139.456
21
-107.821
0
LINE
8
BLACK
6
CONTINUOUS
10
139.456
20
-107.821
11
139.481
21
-107.776
0
LINE
8
BLACK
6
CONTINUOUS
10
139.481
20
-107.776
11
139.53
21
-107.759
0
LINE
8
BLACK
6
CONTINUOUS
10
139.53
20
-107.759
11
140.292
21
-107.759
0
LINE
8
BLACK
6
CONTINUOUS
10
140.292
20
-107.759
11
140.317
21
-107.763
0
LINE
8
BLACK
6
CONTINUOUS
10
136.647
20
-106.667
11
136.649
21
-106.667
0
LINE
8
BLACK
6
CONTINUOUS
10
136.649
20
-106.667
11
136.791
21
-106.715
0
LINE
8
BLACK
6
CONTINUOUS
10
136.791
20
-106.715
11
136.814
21
-106.727
0
LINE
8
BLACK
6
CONTINUOUS
10
136.814
20
-106.727
11
136.817
21
-106.731
0
LINE
8
BLACK
6
CONTINUOUS
10
136.817
20
-106.731
11
136.821
21
-106.733
0
LINE
8
BLACK
6
CONTINUOUS
10
136.821
20
-106.733
11
136.916
21
-106.828
0
LINE
8
BLACK
6
CONTINUOUS
10
136.916
20
-106.828
11
136.929
21
-106.847
0
LINE
8
BLACK
6
CONTINUOUS
10
136.929
20
-106.847
11
136.93
21
-106.848
0
LINE
8
BLACK
6
CONTINUOUS
10
136.93
20
-106.848
11
136.978
21
-106.943
0
LINE
8
BLACK
6
CONTINUOUS
10
136.978
20
-106.943
11
136.981
21
-106.955
0
LINE
8
BLACK
6
CONTINUOUS
10
136.981
20
-106.955
11
136.983
21
-106.958
0
LINE
8
BLACK
6
CONTINUOUS
10
136.983
20
-106.958
11
137.031
21
-107.149
0
LINE
8
BLACK
6
CONTINUOUS
10
137.031
20
-107.149
11
137.032
21
-107.164
0
LINE
8
BLACK
6
CONTINUOUS
10
137.032
20
-107.164
11
137.033
21
-107.167
0
LINE
8
BLACK
6
CONTINUOUS
10
137.033
20
-107.167
11
137.033
21
-107.31
0
LINE
8
BLACK
6
CONTINUOUS
10
137.033
20
-107.31
11
137.031
21
-107.325
0
LINE
8
BLACK
6
CONTINUOUS
10
137.031
20
-107.325
11
137.031
21
-107.328
0
LINE
8
BLACK
6
CONTINUOUS
10
137.031
20
-107.328
11
136.983
21
-107.519
0
LINE
8
BLACK
6
CONTINUOUS
10
136.983
20
-107.519
11
136.978
21
-107.53
0
LINE
8
BLACK
6
CONTINUOUS
10
136.978
20
-107.53
11
136.978
21
-107.534
0
LINE
8
BLACK
6
CONTINUOUS
10
136.978
20
-107.534
11
136.93
21
-107.629
0
LINE
8
BLACK
6
CONTINUOUS
10
136.93
20
-107.629
11
136.917
21
-107.647
0
LINE
8
BLACK
6
CONTINUOUS
10
136.917
20
-107.647
11
136.916
21
-107.649
0
LINE
8
BLACK
6
CONTINUOUS
10
136.916
20
-107.649
11
136.821
21
-107.744
0
LINE
8
BLACK
6
CONTINUOUS
10
136.821
20
-107.744
11
136.799
21
-107.759
0
LINE
8
BLACK
6
CONTINUOUS
10
136.799
20
-107.759
11
136.795
21
-107.759
0
LINE
8
BLACK
6
CONTINUOUS
10
136.795
20
-107.759
11
136.791
21
-107.762
0
LINE
8
BLACK
6
CONTINUOUS
10
136.791
20
-107.762
11
136.649
21
-107.81
0
LINE
8
BLACK
6
CONTINUOUS
10
136.649
20
-107.81
11
136.626
21
-107.813
0
LINE
8
BLACK
6
CONTINUOUS
10
136.626
20
-107.813
11
136.625
21
-107.813
0
LINE
8
BLACK
6
CONTINUOUS
10
136.625
20
-107.813
11
136.387
21
-107.813
0
LINE
8
BLACK
6
CONTINUOUS
10
136.387
20
-107.813
11
136.377
21
-107.812
0
LINE
8
BLACK
6
CONTINUOUS
10
136.377
20
-107.812
11
136.374
21
-107.812
0
LINE
8
BLACK
6
CONTINUOUS
10
136.374
20
-107.812
11
136.371
21
-107.811
0
LINE
8
BLACK
6
CONTINUOUS
10
136.371
20
-107.811
11
136.361
21
-107.809
0
LINE
8
BLACK
6
CONTINUOUS
10
136.361
20
-107.809
11
136.346
21
-107.796
0
LINE
8
BLACK
6
CONTINUOUS
10
136.346
20
-107.796
11
136.329
21
-107.787
0
LINE
8
BLACK
6
CONTINUOUS
10
136.329
20
-107.787
11
136.327
21
-107.78
0
LINE
8
BLACK
6
CONTINUOUS
10
136.327
20
-107.78
11
136.322
21
-107.776
0
LINE
8
BLACK
6
CONTINUOUS
10
136.322
20
-107.776
11
136.318
21
-107.757
0
LINE
8
BLACK
6
CONTINUOUS
10
136.318
20
-107.757
11
136.312
21
-107.738
0
LINE
8
BLACK
6
CONTINUOUS
10
136.312
20
-107.738
11
136.312
21
-106.738
0
LINE
8
BLACK
6
CONTINUOUS
10
136.312
20
-106.738
11
136.313
21
-106.729
0
LINE
8
BLACK
6
CONTINUOUS
10
136.313
20
-106.729
11
136.313
21
-106.725
0
LINE
8
BLACK
6
CONTINUOUS
10
136.313
20
-106.725
11
136.315
21
-106.723
0
LINE
8
BLACK
6
CONTINUOUS
10
136.315
20
-106.723
11
136.316
21
-106.713
0
LINE
8
BLACK
6
CONTINUOUS
10
136.316
20
-106.713
11
136.329
21
-106.698
0
LINE
8
BLACK
6
CONTINUOUS
10
136.329
20
-106.698
11
136.339
21
-106.681
0
LINE
8
BLACK
6
CONTINUOUS
10
136.339
20
-106.681
11
136.345
21
-106.679
0
LINE
8
BLACK
6
CONTINUOUS
10
136.345
20
-106.679
11
136.349
21
-106.673
0
LINE
8
BLACK
6
CONTINUOUS
10
136.349
20
-106.673
11
136.368
21
-106.67
0
LINE
8
BLACK
6
CONTINUOUS
10
136.368
20
-106.67
11
136.387
21
-106.663
0
LINE
8
BLACK
6
CONTINUOUS
10
136.387
20
-106.663
11
136.625
21
-106.663
0
LINE
8
BLACK
6
CONTINUOUS
10
136.625
20
-106.663
11
136.647
21
-106.667
0
LINE
8
BLACK
6
CONTINUOUS
10
136.462
20
-107.663
11
136.613
21
-107.663
0
LINE
8
BLACK
6
CONTINUOUS
10
136.613
20
-107.663
11
136.727
21
-107.625
0
LINE
8
BLACK
6
CONTINUOUS
10
136.727
20
-107.625
11
136.801
21
-107.551
0
LINE
8
BLACK
6
CONTINUOUS
10
136.801
20
-107.551
11
136.84
21
-107.474
0
LINE
8
BLACK
6
CONTINUOUS
10
136.84
20
-107.474
11
136.883
21
-107.301
0
LINE
8
BLACK
6
CONTINUOUS
10
136.883
20
-107.301
11
136.883
21
-107.176
0
LINE
8
BLACK
6
CONTINUOUS
10
136.883
20
-107.176
11
136.84
21
-107.003
0
LINE
8
BLACK
6
CONTINUOUS
10
136.84
20
-107.003
11
136.801
21
-106.926
0
LINE
8
BLACK
6
CONTINUOUS
10
136.801
20
-106.926
11
136.727
21
-106.852
0
LINE
8
BLACK
6
CONTINUOUS
10
136.727
20
-106.852
11
136.613
21
-106.813
0
LINE
8
BLACK
6
CONTINUOUS
10
136.613
20
-106.813
11
136.462
21
-106.813
0
LINE
8
BLACK
6
CONTINUOUS
10
136.462
20
-106.813
11
136.462
21
-107.663
0
LINE
8
BLACK
6
CONTINUOUS
10
137.698
20
-107.001
11
137.702
21
-107.004
0
LINE
8
BLACK
6
CONTINUOUS
10
137.702
20
-107.004
11
137.706
21
-107.005
0
LINE
8
BLACK
6
CONTINUOUS
10
137.706
20
-107.005
11
137.801
21
-107.052
0
LINE
8
BLACK
6
CONTINUOUS
10
137.801
20
-107.052
11
137.822
21
-107.068
0
LINE
8
BLACK
6
CONTINUOUS
10
137.822
20
-107.068
11
137.827
21
-107.078
0
LINE
8
BLACK
6
CONTINUOUS
10
137.827
20
-107.078
11
137.835
21
-107.086
0
LINE
8
BLACK
6
CONTINUOUS
10
137.835
20
-107.086
11
137.882
21
-107.181
0
LINE
8
BLACK
6
CONTINUOUS
10
137.882
20
-107.181
11
137.89
21
-107.206
0
LINE
8
BLACK
6
CONTINUOUS
10
137.89
20
-107.206
11
137.889
21
-107.21
0
LINE
8
BLACK
6
CONTINUOUS
10
137.889
20
-107.21
11
137.89
21
-107.215
0
LINE
8
BLACK
6
CONTINUOUS
10
137.89
20
-107.215
11
137.89
21
-107.738
0
LINE
8
BLACK
6
CONTINUOUS
10
137.89
20
-107.738
11
137.886
21
-107.764
0
LINE
8
BLACK
6
CONTINUOUS
10
137.886
20
-107.764
11
137.853
21
-107.803
0
LINE
8
BLACK
6
CONTINUOUS
10
137.853
20
-107.803
11
137.802
21
-107.812
0
LINE
8
BLACK
6
CONTINUOUS
10
137.802
20
-107.812
11
137.773
21
-107.796
0
LINE
8
BLACK
6
CONTINUOUS
10
137.773
20
-107.796
11
137.754
21
-107.806
0
LINE
8
BLACK
6
CONTINUOUS
10
137.754
20
-107.806
11
137.729
21
-107.813
0
LINE
8
BLACK
6
CONTINUOUS
10
137.729
20
-107.813
11
137.724
21
-107.812
0
LINE
8
BLACK
6
CONTINUOUS
10
137.724
20
-107.812
11
137.72
21
-107.813
0
LINE
8
BLACK
6
CONTINUOUS
10
137.72
20
-107.813
11
137.482
21
-107.813
0
LINE
8
BLACK
6
CONTINUOUS
10
137.482
20
-107.813
11
137.456
21
-107.809
0
LINE
8
BLACK
6
CONTINUOUS
10
137.456
20
-107.809
11
137.453
21
-107.806
0
LINE
8
BLACK
6
CONTINUOUS
10
137.453
20
-107.806
11
137.448
21
-107.806
0
LINE
8
BLACK
6
CONTINUOUS
10
137.448
20
-107.806
11
137.353
21
-107.758
0
LINE
8
BLACK
6
CONTINUOUS
10
137.353
20
-107.758
11
137.332
21
-107.742
0
LINE
8
BLACK
6
CONTINUOUS
10
137.332
20
-107.742
11
137.328
21
-107.732
0
LINE
8
BLACK
6
CONTINUOUS
10
137.328
20
-107.732
11
137.32
21
-107.724
0
LINE
8
BLACK
6
CONTINUOUS
10
137.32
20
-107.724
11
137.272
21
-107.629
0
LINE
8
BLACK
6
CONTINUOUS
10
137.272
20
-107.629
11
137.265
21
-107.604
0
LINE
8
BLACK
6
CONTINUOUS
10
137.265
20
-107.604
11
137.266
21
-107.6
0
LINE
8
BLACK
6
CONTINUOUS
10
137.266
20
-107.6
11
137.264
21
-107.596
0
LINE
8
BLACK
6
CONTINUOUS
10
137.264
20
-107.596
11
137.264
21
-107.5
0
LINE
8
BLACK
6
CONTINUOUS
10
137.264
20
-107.5
11
137.269
21
-107.475
0
LINE
8
BLACK
6
CONTINUOUS
10
137.269
20
-107.475
11
137.272
21
-107.471
0
LINE
8
BLACK
6
CONTINUOUS
10
137.272
20
-107.471
11
137.272
21
-107.467
0
LINE
8
BLACK
6
CONTINUOUS
10
137.272
20
-107.467
11
137.32
21
-107.372
0
LINE
8
BLACK
6
CONTINUOUS
10
137.32
20
-107.372
11
137.335
21
-107.351
0
LINE
8
BLACK
6
CONTINUOUS
10
137.335
20
-107.351
11
137.346
21
-107.346
0
LINE
8
BLACK
6
CONTINUOUS
10
137.346
20
-107.346
11
137.353
21
-107.338
0
LINE
8
BLACK
6
CONTINUOUS
10
137.353
20
-107.338
11
137.448
21
-107.29
0
LINE
8
BLACK
6
CONTINUOUS
10
137.448
20
-107.29
11
137.473
21
-107.283
0
LINE
8
BLACK
6
CONTINUOUS
10
137.473
20
-107.283
11
137.478
21
-107.284
0
LINE
8
BLACK
6
CONTINUOUS
10
137.478
20
-107.284
11
137.482
21
-107.282
0
LINE
8
BLACK
6
CONTINUOUS
10
137.482
20
-107.282
11
137.702
21
-107.282
0
LINE
8
BLACK
6
CONTINUOUS
10
137.702
20
-107.282
11
137.74
21
-107.264
0
LINE
8
BLACK
6
CONTINUOUS
10
137.74
20
-107.264
11
137.74
21
-107.232
0
LINE
8
BLACK
6
CONTINUOUS
10
137.74
20
-107.232
11
137.712
21
-107.175
0
LINE
8
BLACK
6
CONTINUOUS
10
137.712
20
-107.175
11
137.655
21
-107.147
0
LINE
8
BLACK
6
CONTINUOUS
10
137.655
20
-107.147
11
137.5
21
-107.147
0
LINE
8
BLACK
6
CONTINUOUS
10
137.5
20
-107.147
11
137.42
21
-107.186
0
LINE
8
BLACK
6
CONTINUOUS
10
137.42
20
-107.186
11
137.395
21
-107.194
0
LINE
8
BLACK
6
CONTINUOUS
10
137.395
20
-107.194
11
137.345
21
-107.182
0
LINE
8
BLACK
6
CONTINUOUS
10
137.345
20
-107.182
11
137.315
21
-107.141
0
LINE
8
BLACK
6
CONTINUOUS
10
137.315
20
-107.141
11
137.318
21
-107.09
0
LINE
8
BLACK
6
CONTINUOUS
10
137.318
20
-107.09
11
137.353
21
-107.052
0
LINE
8
BLACK
6
CONTINUOUS
10
137.353
20
-107.052
11
137.448
21
-107.005
0
LINE
8
BLACK
6
CONTINUOUS
10
137.448
20
-107.005
11
137.473
21
-106.997
0
LINE
8
BLACK
6
CONTINUOUS
10
137.473
20
-106.997
11
137.478
21
-106.998
0
LINE
8
BLACK
6
CONTINUOUS
10
137.478
20
-106.998
11
137.482
21
-106.997
0
LINE
8
BLACK
6
CONTINUOUS
10
137.482
20
-106.997
11
137.672
21
-106.997
0
LINE
8
BLACK
6
CONTINUOUS
10
137.672
20
-106.997
11
137.698
21
-107.001
0
LINE
8
BLACK
6
CONTINUOUS
10
137.729
20
-107.432
11
137.724
21
-107.431
0
LINE
8
BLACK
6
CONTINUOUS
10
137.724
20
-107.431
11
137.72
21
-107.432
0
LINE
8
BLACK
6
CONTINUOUS
10
137.72
20
-107.432
11
137.5
21
-107.432
0
LINE
8
BLACK
6
CONTINUOUS
10
137.5
20
-107.432
11
137.443
21
-107.461
0
LINE
8
BLACK
6
CONTINUOUS
10
137.443
20
-107.461
11
137.414
21
-107.518
0
LINE
8
BLACK
6
CONTINUOUS
10
137.414
20
-107.518
11
137.414
21
-107.578
0
LINE
8
BLACK
6
CONTINUOUS
10
137.414
20
-107.578
11
137.443
21
-107.635
0
LINE
8
BLACK
6
CONTINUOUS
10
137.443
20
-107.635
11
137.5
21
-107.663
0
LINE
8
BLACK
6
CONTINUOUS
10
137.5
20
-107.663
11
137.702
21
-107.663
0
LINE
8
BLACK
6
CONTINUOUS
10
137.702
20
-107.663
11
137.74
21
-107.644
0
LINE
8
BLACK
6
CONTINUOUS
10
137.74
20
-107.644
11
137.74
21
-107.429
0
LINE
8
BLACK
6
CONTINUOUS
10
137.74
20
-107.429
11
137.729
21
-107.432
0
LINE
8
BLACK
6
CONTINUOUS
10
138.349
20
-106.69
11
138.367
21
-106.738
0
LINE
8
BLACK
6
CONTINUOUS
10
138.367
20
-106.738
11
138.367
21
-106.997
0
LINE
8
BLACK
6
CONTINUOUS
10
138.367
20
-106.997
11
138.53
21
-106.997
0
LINE
8
BLACK
6
CONTINUOUS
10
138.53
20
-106.997
11
138.555
21
-107.001
0
LINE
8
BLACK
6
CONTINUOUS
10
138.555
20
-107.001
11
138.595
21
-107.034
0
LINE
8
BLACK
6
CONTINUOUS
10
138.595
20
-107.034
11
138.603
21
-107.085
0
LINE
8
BLACK
6
CONTINUOUS
10
138.603
20
-107.085
11
138.578
21
-107.129
0
LINE
8
BLACK
6
CONTINUOUS
10
138.578
20
-107.129
11
138.53
21
-107.147
0
LINE
8
BLACK
6
CONTINUOUS
10
138.53
20
-107.147
11
138.367
21
-107.147
0
LINE
8
BLACK
6
CONTINUOUS
10
138.367
20
-107.147
11
138.367
21
-107.578
0
LINE
8
BLACK
6
CONTINUOUS
10
138.367
20
-107.578
11
138.395
21
-107.635
0
LINE
8
BLACK
6
CONTINUOUS
10
138.395
20
-107.635
11
138.452
21
-107.663
0
LINE
8
BLACK
6
CONTINUOUS
10
138.452
20
-107.663
11
138.53
21
-107.663
0
LINE
8
BLACK
6
CONTINUOUS
10
138.53
20
-107.663
11
138.555
21
-107.668
0
LINE
8
BLACK
6
CONTINUOUS
10
138.555
20
-107.668
11
138.595
21
-107.701
0
LINE
8
BLACK
6
CONTINUOUS
10
138.595
20
-107.701
11
138.603
21
-107.751
0
LINE
8
BLACK
6
CONTINUOUS
10
138.603
20
-107.751
11
138.578
21
-107.796
0
LINE
8
BLACK
6
CONTINUOUS
10
138.578
20
-107.796
11
138.53
21
-107.813
0
LINE
8
BLACK
6
CONTINUOUS
10
138.53
20
-107.813
11
138.434
21
-107.813
0
LINE
8
BLACK
6
CONTINUOUS
10
138.434
20
-107.813
11
138.409
21
-107.809
0
LINE
8
BLACK
6
CONTINUOUS
10
138.409
20
-107.809
11
138.405
21
-107.806
0
LINE
8
BLACK
6
CONTINUOUS
10
138.405
20
-107.806
11
138.401
21
-107.806
0
LINE
8
BLACK
6
CONTINUOUS
10
138.401
20
-107.806
11
138.306
21
-107.758
0
LINE
8
BLACK
6
CONTINUOUS
10
138.306
20
-107.758
11
138.285
21
-107.742
0
LINE
8
BLACK
6
CONTINUOUS
10
138.285
20
-107.742
11
138.28
21
-107.732
0
LINE
8
BLACK
6
CONTINUOUS
10
138.28
20
-107.732
11
138.272
21
-107.724
0
LINE
8
BLACK
6
CONTINUOUS
10
138.272
20
-107.724
11
138.224
21
-107.629
0
LINE
8
BLACK
6
CONTINUOUS
10
138.224
20
-107.629
11
138.217
21
-107.604
0
LINE
8
BLACK
6
CONTINUOUS
10
138.217
20
-107.604
11
138.218
21
-107.6
0
LINE
8
BLACK
6
CONTINUOUS
10
138.218
20
-107.6
11
138.217
21
-107.596
0
LINE
8
BLACK
6
CONTINUOUS
10
138.217
20
-107.596
11
138.217
21
-107.147
0
LINE
8
BLACK
6
CONTINUOUS
10
138.217
20
-107.147
11
138.149
21
-107.147
0
LINE
8
BLACK
6
CONTINUOUS
10
138.149
20
-107.147
11
138.123
21
-107.142
0
LINE
8
BLACK
6
CONTINUOUS
10
138.123
20
-107.142
11
138.084
21
-107.109
0
LINE
8
BLACK
6
CONTINUOUS
10
138.084
20
-107.109
11
138.075
21
-107.059
0
LINE
8
BLACK
6
CONTINUOUS
10
138.075
20
-107.059
11
138.1
21
-107.014
0
LINE
8
BLACK
6
CONTINUOUS
10
138.1
20
-107.014
11
138.149
21
-106.997
0
LINE
8
BLACK
6
CONTINUOUS
10
138.149
20
-106.997
11
138.217
21
-106.997
0
LINE
8
BLACK
6
CONTINUOUS
10
138.217
20
-106.997
11
138.217
21
-106.738
0
LINE
8
BLACK
6
CONTINUOUS
10
138.217
20
-106.738
11
138.221
21
-106.713
0
LINE
8
BLACK
6
CONTINUOUS
10
138.221
20
-106.713
11
138.254
21
-106.673
0
LINE
8
BLACK
6
CONTINUOUS
10
138.254
20
-106.673
11
138.305
21
-106.665
0
LINE
8
BLACK
6
CONTINUOUS
10
138.305
20
-106.665
11
138.349
21
-106.69
0
LINE
8
BLACK
6
CONTINUOUS
10
139.174
20
-107.001
11
139.178
21
-107.004
0
LINE
8
BLACK
6
CONTINUOUS
10
139.178
20
-107.004
11
139.182
21
-107.005
0
LINE
8
BLACK
6
CONTINUOUS
10
139.182
20
-107.005
11
139.277
21
-107.052
0
LINE
8
BLACK
6
CONTINUOUS
10
139.277
20
-107.052
11
139.298
21
-107.068
0
LINE
8
BLACK
6
CONTINUOUS
10
139.298
20
-107.068
11
139.303
21
-107.078
0
LINE
8
BLACK
6
CONTINUOUS
10
139.303
20
-107.078
11
139.311
21
-107.086
0
LINE
8
BLACK
6
CONTINUOUS
10
139.311
20
-107.086
11
139.359
21
-107.181
0
LINE
8
BLACK
6
CONTINUOUS
10
139.359
20
-107.181
11
139.366
21
-107.206
0
LINE
8
BLACK
6
CONTINUOUS
10
139.366
20
-107.206
11
139.365
21
-107.21
0
LINE
8
BLACK
6
CONTINUOUS
10
139.365
20
-107.21
11
139.367
21
-107.215
0
LINE
8
BLACK
6
CONTINUOUS
10
139.367
20
-107.215
11
139.367
21
-107.738
0
LINE
8
BLACK
6
CONTINUOUS
10
139.367
20
-107.738
11
139.362
21
-107.764
0
LINE
8
BLACK
6
CONTINUOUS
10
139.362
20
-107.764
11
139.329
21
-107.803
0
LINE
8
BLACK
6
CONTINUOUS
10
139.329
20
-107.803
11
139.279
21
-107.812
0
LINE
8
BLACK
6
CONTINUOUS
10
139.279
20
-107.812
11
139.25
21
-107.796
0
LINE
8
BLACK
6
CONTINUOUS
10
139.25
20
-107.796
11
139.23
21
-107.806
0
LINE
8
BLACK
6
CONTINUOUS
10
139.23
20
-107.806
11
139.205
21
-107.813
0
LINE
8
BLACK
6
CONTINUOUS
10
139.205
20
-107.813
11
139.201
21
-107.812
0
LINE
8
BLACK
6
CONTINUOUS
10
139.201
20
-107.812
11
139.196
21
-107.813
0
LINE
8
BLACK
6
CONTINUOUS
10
139.196
20
-107.813
11
138.958
21
-107.813
0
LINE
8
BLACK
6
CONTINUOUS
10
138.958
20
-107.813
11
138.933
21
-107.809
0
LINE
8
BLACK
6
CONTINUOUS
10
138.933
20
-107.809
11
138.929
21
-107.806
0
LINE
8
BLACK
6
CONTINUOUS
10
138.929
20
-107.806
11
138.925
21
-107.806
0
LINE
8
BLACK
6
CONTINUOUS
10
138.925
20
-107.806
11
138.829
21
-107.758
0
LINE
8
BLACK
6
CONTINUOUS
10
138.829
20
-107.758
11
138.809
21
-107.742
0
LINE
8
BLACK
6
CONTINUOUS
10
138.809
20
-107.742
11
138.804
21
-107.732
0
LINE
8
BLACK
6
CONTINUOUS
10
138.804
20
-107.732
11
138.796
21
-107.724
0
LINE
8
BLACK
6
CONTINUOUS
10
138.796
20
-107.724
11
138.748
21
-107.629
0
LINE
8
BLACK
6
CONTINUOUS
10
138.748
20
-107.629
11
138.741
21
-107.604
0
LINE
8
BLACK
6
CONTINUOUS
10
138.741
20
-107.604
11
138.742
21
-107.6
0
LINE
8
BLACK
6
CONTINUOUS
10
138.742
20
-107.6
11
138.74
21
-107.596
0
LINE
8
BLACK
6
CONTINUOUS
10
138.74
20
-107.596
11
138.74
21
-107.5
0
LINE
8
BLACK
6
CONTINUOUS
10
138.74
20
-107.5
11
138.745
21
-107.475
0
LINE
8
BLACK
6
CONTINUOUS
10
138.745
20
-107.475
11
138.748
21
-107.471
0
LINE
8
BLACK
6
CONTINUOUS
10
138.748
20
-107.471
11
138.748
21
-107.467
0
LINE
8
BLACK
6
CONTINUOUS
10
138.748
20
-107.467
11
138.796
21
-107.372
0
LINE
8
BLACK
6
CONTINUOUS
10
138.796
20
-107.372
11
138.811
21
-107.351
0
LINE
8
BLACK
6
CONTINUOUS
10
138.811
20
-107.351
11
138.822
21
-107.346
0
LINE
8
BLACK
6
CONTINUOUS
10
138.822
20
-107.346
11
138.829
21
-107.338
0
LINE
8
BLACK
6
CONTINUOUS
10
138.829
20
-107.338
11
138.925
21
-107.29
0
LINE
8
BLACK
6
CONTINUOUS
10
138.925
20
-107.29
11
138.95
21
-107.283
0
LINE
8
BLACK
6
CONTINUOUS
10
138.95
20
-107.283
11
138.954
21
-107.284
0
LINE
8
BLACK
6
CONTINUOUS
10
138.954
20
-107.284
11
138.958
21
-107.282
0
LINE
8
BLACK
6
CONTINUOUS
10
138.958
20
-107.282
11
139.179
21
-107.282
0
LINE
8
BLACK
6
CONTINUOUS
10
139.179
20
-107.282
11
139.217
21
-107.264
0
LINE
8
BLACK
6
CONTINUOUS
10
139.217
20
-107.264
11
139.217
21
-107.232
0
LINE
8
BLACK
6
CONTINUOUS
10
139.217
20
-107.232
11
139.188
21
-107.175
0
LINE
8
BLACK
6
CONTINUOUS
10
139.188
20
-107.175
11
139.131
21
-107.147
0
LINE
8
BLACK
6
CONTINUOUS
10
139.131
20
-107.147
11
138.976
21
-107.147
0
LINE
8
BLACK
6
CONTINUOUS
10
138.976
20
-107.147
11
138.897
21
-107.186
0
LINE
8
BLACK
6
CONTINUOUS
10
138.897
20
-107.186
11
138.872
21
-107.194
0
LINE
8
BLACK
6
CONTINUOUS
10
138.872
20
-107.194
11
138.822
21
-107.182
0
LINE
8
BLACK
6
CONTINUOUS
10
138.822
20
-107.182
11
138.791
21
-107.141
0
LINE
8
BLACK
6
CONTINUOUS
10
138.791
20
-107.141
11
138.794
21
-107.09
0
LINE
8
BLACK
6
CONTINUOUS
10
138.794
20
-107.09
11
138.829
21
-107.052
0
LINE
8
BLACK
6
CONTINUOUS
10
138.829
20
-107.052
11
138.925
21
-107.005
0
LINE
8
BLACK
6
CONTINUOUS
10
138.925
20
-107.005
11
138.95
21
-106.997
0
LINE
8
BLACK
6
CONTINUOUS
10
138.95
20
-106.997
11
138.954
21
-106.998
0
LINE
8
BLACK
6
CONTINUOUS
10
138.954
20
-106.998
11
138.958
21
-106.997
0
LINE
8
BLACK
6
CONTINUOUS
10
138.958
20
-106.997
11
139.149
21
-106.997
0
LINE
8
BLACK
6
CONTINUOUS
10
139.149
20
-106.997
11
139.174
21
-107.001
0
LINE
8
BLACK
6
CONTINUOUS
10
139.205
20
-107.432
11
139.201
21
-107.431
0
LINE
8
BLACK
6
CONTINUOUS
10
139.201
20
-107.431
11
139.196
21
-107.432
0
LINE
8
BLACK
6
CONTINUOUS
10
139.196
20
-107.432
11
138.976
21
-107.432
0
LINE
8
BLACK
6
CONTINUOUS
10
138.976
20
-107.432
11
138.919
21
-107.461
0
LINE
8
BLACK
6
CONTINUOUS
10
138.919
20
-107.461
11
138.89
21
-107.518
0
LINE
8
BLACK
6
CONTINUOUS
10
138.89
20
-107.518
11
138.89
21
-107.578
0
LINE
8
BLACK
6
CONTINUOUS
10
138.89
20
-107.578
11
138.919
21
-107.635
0
LINE
8
BLACK
6
CONTINUOUS
10
138.919
20
-107.635
11
138.976
21
-107.663
0
LINE
8
BLACK
6
CONTINUOUS
10
138.976
20
-107.663
11
139.179
21
-107.663
0
LINE
8
BLACK
6
CONTINUOUS
10
139.179
20
-107.663
11
139.217
21
-107.644
0
LINE
8
BLACK
6
CONTINUOUS
10
139.217
20
-107.644
11
139.217
21
-107.429
0
LINE
8
BLACK
6
CONTINUOUS
10
139.217
20
-107.429
11
139.205
21
-107.432
0
LINE
8
BLACK
6
CONTINUOUS
10
140.793
20
-107.001
11
140.797
21
-107.004
0
LINE
8
BLACK
6
CONTINUOUS
10
140.797
20
-107.004
11
140.801
21
-107.005
0
LINE
8
BLACK
6
CONTINUOUS
10
140.801
20
-107.005
11
140.897
21
-107.052
0
LINE
8
BLACK
6
CONTINUOUS
10
140.897
20
-107.052
11
140.917
21
-107.068
0
LINE
8
BLACK
6
CONTINUOUS
10
140.917
20
-107.068
11
140.938
21
-107.115
0
LINE
8
BLACK
6
CONTINUOUS
10
140.938
20
-107.115
11
140.923
21
-107.164
0
LINE
8
BLACK
6
CONTINUOUS
10
140.923
20
-107.164
11
140.88
21
-107.192
0
LINE
8
BLACK
6
CONTINUOUS
10
140.88
20
-107.192
11
140.829
21
-107.186
0
LINE
8
BLACK
6
CONTINUOUS
10
140.829
20
-107.186
11
140.75
21
-107.147
0
LINE
8
BLACK
6
CONTINUOUS
10
140.75
20
-107.147
11
140.643
21
-107.147
0
LINE
8
BLACK
6
CONTINUOUS
10
140.643
20
-107.147
11
140.586
21
-107.175
0
LINE
8
BLACK
6
CONTINUOUS
10
140.586
20
-107.175
11
140.557
21
-107.232
0
LINE
8
BLACK
6
CONTINUOUS
10
140.557
20
-107.232
11
140.557
21
-107.245
0
LINE
8
BLACK
6
CONTINUOUS
10
140.557
20
-107.245
11
140.586
21
-107.302
0
LINE
8
BLACK
6
CONTINUOUS
10
140.586
20
-107.302
11
140.643
21
-107.33
0
LINE
8
BLACK
6
CONTINUOUS
10
140.643
20
-107.33
11
140.768
21
-107.33
0
LINE
8
BLACK
6
CONTINUOUS
10
140.768
20
-107.33
11
140.793
21
-107.335
0
LINE
8
BLACK
6
CONTINUOUS
10
140.793
20
-107.335
11
140.797
21
-107.338
0
LINE
8
BLACK
6
CONTINUOUS
10
140.797
20
-107.338
11
140.801
21
-107.338
0
LINE
8
BLACK
6
CONTINUOUS
10
140.801
20
-107.338
11
140.897
21
-107.386
0
LINE
8
BLACK
6
CONTINUOUS
10
140.897
20
-107.386
11
140.917
21
-107.401
0
LINE
8
BLACK
6
CONTINUOUS
10
140.917
20
-107.401
11
140.922
21
-107.411
0
LINE
8
BLACK
6
CONTINUOUS
10
140.922
20
-107.411
11
140.93
21
-107.419
0
LINE
8
BLACK
6
CONTINUOUS
10
140.93
20
-107.419
11
140.978
21
-107.514
0
LINE
8
BLACK
6
CONTINUOUS
10
140.978
20
-107.514
11
140.985
21
-107.539
0
LINE
8
BLACK
6
CONTINUOUS
10
140.985
20
-107.539
11
140.984
21
-107.544
0
LINE
8
BLACK
6
CONTINUOUS
10
140.984
20
-107.544
11
140.986
21
-107.548
0
LINE
8
BLACK
6
CONTINUOUS
10
140.986
20
-107.548
11
140.986
21
-107.596
0
LINE
8
BLACK
6
CONTINUOUS
10
140.986
20
-107.596
11
140.981
21
-107.621
0
LINE
8
BLACK
6
CONTINUOUS
10
140.981
20
-107.621
11
140.978
21
-107.625
0
LINE
8
BLACK
6
CONTINUOUS
10
140.978
20
-107.625
11
140.978
21
-107.629
0
LINE
8
BLACK
6
CONTINUOUS
10
140.978
20
-107.629
11
140.93
21
-107.724
0
LINE
8
BLACK
6
CONTINUOUS
10
140.93
20
-107.724
11
140.915
21
-107.745
0
LINE
8
BLACK
6
CONTINUOUS
10
140.915
20
-107.745
11
140.904
21
-107.75
0
LINE
8
BLACK
6
CONTINUOUS
10
140.904
20
-107.75
11
140.897
21
-107.758
0
LINE
8
BLACK
6
CONTINUOUS
10
140.897
20
-107.758
11
140.801
21
-107.806
0
LINE
8
BLACK
6
CONTINUOUS
10
140.801
20
-107.806
11
140.776
21
-107.813
0
LINE
8
BLACK
6
CONTINUOUS
10
140.776
20
-107.813
11
140.772
21
-107.812
0
LINE
8
BLACK
6
CONTINUOUS
10
140.772
20
-107.812
11
140.768
21
-107.813
0
LINE
8
BLACK
6
CONTINUOUS
10
140.768
20
-107.813
11
140.577
21
-107.813
0
LINE
8
BLACK
6
CONTINUOUS
10
140.577
20
-107.813
11
140.552
21
-107.809
0
LINE
8
BLACK
6
CONTINUOUS
10
140.552
20
-107.809
11
140.548
21
-107.806
0
LINE
8
BLACK
6
CONTINUOUS
10
140.548
20
-107.806
11
140.544
21
-107.806
0
LINE
8
BLACK
6
CONTINUOUS
10
140.544
20
-107.806
11
140.448
21
-107.758
0
LINE
8
BLACK
6
CONTINUOUS
10
140.448
20
-107.758
11
140.428
21
-107.742
0
LINE
8
BLACK
6
CONTINUOUS
10
140.428
20
-107.742
11
140.407
21
-107.695
0
LINE
8
BLACK
6
CONTINUOUS
10
140.407
20
-107.695
11
140.422
21
-107.646
0
LINE
8
BLACK
6
CONTINUOUS
10
140.422
20
-107.646
11
140.465
21
-107.618
0
LINE
8
BLACK
6
CONTINUOUS
10
140.465
20
-107.618
11
140.516
21
-107.624
0
LINE
8
BLACK
6
CONTINUOUS
10
140.516
20
-107.624
11
140.595
21
-107.663
0
LINE
8
BLACK
6
CONTINUOUS
10
140.595
20
-107.663
11
140.75
21
-107.663
0
LINE
8
BLACK
6
CONTINUOUS
10
140.75
20
-107.663
11
140.807
21
-107.635
0
LINE
8
BLACK
6
CONTINUOUS
10
140.807
20
-107.635
11
140.836
21
-107.578
0
LINE
8
BLACK
6
CONTINUOUS
10
140.836
20
-107.578
11
140.836
21
-107.566
0
LINE
8
BLACK
6
CONTINUOUS
10
140.836
20
-107.566
11
140.807
21
-107.509
0
LINE
8
BLACK
6
CONTINUOUS
10
140.807
20
-107.509
11
140.75
21
-107.48
0
LINE
8
BLACK
6
CONTINUOUS
10
140.75
20
-107.48
11
140.625
21
-107.48
0
LINE
8
BLACK
6
CONTINUOUS
10
140.625
20
-107.48
11
140.599
21
-107.476
0
LINE
8
BLACK
6
CONTINUOUS
10
140.599
20
-107.476
11
140.596
21
-107.473
0
LINE
8
BLACK
6
CONTINUOUS
10
140.596
20
-107.473
11
140.591
21
-107.472
0
LINE
8
BLACK
6
CONTINUOUS
10
140.591
20
-107.472
11
140.496
21
-107.425
0
LINE
8
BLACK
6
CONTINUOUS
10
140.496
20
-107.425
11
140.475
21
-107.409
0
LINE
8
BLACK
6
CONTINUOUS
10
140.475
20
-107.409
11
140.471
21
-107.399
0
LINE
8
BLACK
6
CONTINUOUS
10
140.471
20
-107.399
11
140.463
21
-107.391
0
LINE
8
BLACK
6
CONTINUOUS
10
140.463
20
-107.391
11
140.415
21
-107.296
0
LINE
8
BLACK
6
CONTINUOUS
10
140.415
20
-107.296
11
140.408
21
-107.271
0
LINE
8
BLACK
6
CONTINUOUS
10
140.408
20
-107.271
11
140.409
21
-107.266
0
LINE
8
BLACK
6
CONTINUOUS
10
140.409
20
-107.266
11
140.407
21
-107.262
0
LINE
8
BLACK
6
CONTINUOUS
10
140.407
20
-107.262
11
140.407
21
-107.215
0
LINE
8
BLACK
6
CONTINUOUS
10
140.407
20
-107.215
11
140.412
21
-107.189
0
LINE
8
BLACK
6
CONTINUOUS
10
140.412
20
-107.189
11
140.414
21
-107.186
0
LINE
8
BLACK
6
CONTINUOUS
10
140.414
20
-107.186
11
140.415
21
-107.181
0
LINE
8
BLACK
6
CONTINUOUS
10
140.415
20
-107.181
11
140.463
21
-107.086
0
LINE
8
BLACK
6
CONTINUOUS
10
140.463
20
-107.086
11
140.478
21
-107.065
0
LINE
8
BLACK
6
CONTINUOUS
10
140.478
20
-107.065
11
140.488
21
-107.06
0
LINE
8
BLACK
6
CONTINUOUS
10
140.488
20
-107.06
11
140.496
21
-107.052
0
LINE
8
BLACK
6
CONTINUOUS
10
140.496
20
-107.052
11
140.591
21
-107.005
0
LINE
8
BLACK
6
CONTINUOUS
10
140.591
20
-107.005
11
140.616
21
-106.997
0
LINE
8
BLACK
6
CONTINUOUS
10
140.616
20
-106.997
11
140.621
21
-106.998
0
LINE
8
BLACK
6
CONTINUOUS
10
140.621
20
-106.998
11
140.625
21
-106.997
0
LINE
8
BLACK
6
CONTINUOUS
10
140.625
20
-106.997
11
140.768
21
-106.997
0
LINE
8
BLACK
6
CONTINUOUS
10
140.768
20
-106.997
11
140.793
21
-107.001
0
LINE
8
BLACK
6
CONTINUOUS
10
141.397
20
-106.69
11
141.414
21
-106.738
0
LINE
8
BLACK
6
CONTINUOUS
10
141.414
20
-106.738
11
141.414
21
-106.997
0
LINE
8
BLACK
6
CONTINUOUS
10
141.414
20
-106.997
11
141.577
21
-106.997
0
LINE
8
BLACK
6
CONTINUOUS
10
141.577
20
-106.997
11
141.603
21
-107.001
0
LINE
8
BLACK
6
CONTINUOUS
10
141.603
20
-107.001
11
141.642
21
-107.034
0
LINE
8
BLACK
6
CONTINUOUS
10
141.642
20
-107.034
11
141.651
21
-107.085
0
LINE
8
BLACK
6
CONTINUOUS
10
141.651
20
-107.085
11
141.625
21
-107.129
0
LINE
8
BLACK
6
CONTINUOUS
10
141.625
20
-107.129
11
141.577
21
-107.147
0
LINE
8
BLACK
6
CONTINUOUS
10
141.577
20
-107.147
11
141.414
21
-107.147
0
LINE
8
BLACK
6
CONTINUOUS
10
141.414
20
-107.147
11
141.414
21
-107.578
0
LINE
8
BLACK
6
CONTINUOUS
10
141.414
20
-107.578
11
141.443
21
-107.635
0
LINE
8
BLACK
6
CONTINUOUS
10
141.443
20
-107.635
11
141.5
21
-107.663
0
LINE
8
BLACK
6
CONTINUOUS
10
141.5
20
-107.663
11
141.577
21
-107.663
0
LINE
8
BLACK
6
CONTINUOUS
10
141.577
20
-107.663
11
141.603
21
-107.668
0
LINE
8
BLACK
6
CONTINUOUS
10
141.603
20
-107.668
11
141.642
21
-107.701
0
LINE
8
BLACK
6
CONTINUOUS
10
141.642
20
-107.701
11
141.651
21
-107.751
0
LINE
8
BLACK
6
CONTINUOUS
10
141.651
20
-107.751
11
141.625
21
-107.796
0
LINE
8
BLACK
6
CONTINUOUS
10
141.625
20
-107.796
11
141.577
21
-107.813
0
LINE
8
BLACK
6
CONTINUOUS
10
141.577
20
-107.813
11
141.482
21
-107.813
0
LINE
8
BLACK
6
CONTINUOUS
10
141.482
20
-107.813
11
141.456
21
-107.809
0
LINE
8
BLACK
6
CONTINUOUS
10
141.456
20
-107.809
11
141.453
21
-107.806
0
LINE
8
BLACK
6
CONTINUOUS
10
141.453
20
-107.806
11
141.448
21
-107.806
0
LINE
8
BLACK
6
CONTINUOUS
10
141.448
20
-107.806
11
141.353
21
-107.758
0
LINE
8
BLACK
6
CONTINUOUS
10
141.353
20
-107.758
11
141.332
21
-107.742
0
LINE
8
BLACK
6
CONTINUOUS
10
141.332
20
-107.742
11
141.328
21
-107.732
0
LINE
8
BLACK
6
CONTINUOUS
10
141.328
20
-107.732
11
141.32
21
-107.724
0
LINE
8
BLACK
6
CONTINUOUS
10
141.32
20
-107.724
11
141.272
21
-107.629
0
LINE
8
BLACK
6
CONTINUOUS
10
141.272
20
-107.629
11
141.265
21
-107.604
0
LINE
8
BLACK
6
CONTINUOUS
10
141.265
20
-107.604
11
141.266
21
-107.6
0
LINE
8
BLACK
6
CONTINUOUS
10
141.266
20
-107.6
11
141.264
21
-107.596
0
LINE
8
BLACK
6
CONTINUOUS
10
141.264
20
-107.596
11
141.264
21
-107.147
0
LINE
8
BLACK
6
CONTINUOUS
10
141.264
20
-107.147
11
141.196
21
-107.147
0
LINE
8
BLACK
6
CONTINUOUS
10
141.196
20
-107.147
11
141.171
21
-107.142
0
LINE
8
BLACK
6
CONTINUOUS
10
141.171
20
-107.142
11
141.131
21
-107.109
0
LINE
8
BLACK
6
CONTINUOUS
10
141.131
20
-107.109
11
141.122
21
-107.059
0
LINE
8
BLACK
6
CONTINUOUS
10
141.122
20
-107.059
11
141.148
21
-107.014
0
LINE
8
BLACK
6
CONTINUOUS
10
141.148
20
-107.014
11
141.196
21
-106.997
0
LINE
8
BLACK
6
CONTINUOUS
10
141.196
20
-106.997
11
141.264
21
-106.997
0
LINE
8
BLACK
6
CONTINUOUS
10
141.264
20
-106.997
11
141.264
21
-106.738
0
LINE
8
BLACK
6
CONTINUOUS
10
141.264
20
-106.738
11
141.269
21
-106.713
0
LINE
8
BLACK
6
CONTINUOUS
10
141.269
20
-106.713
11
141.302
21
-106.673
0
LINE
8
BLACK
6
CONTINUOUS
10
141.302
20
-106.673
11
141.352
21
-106.665
0
LINE
8
BLACK
6
CONTINUOUS
10
141.352
20
-106.665
11
141.397
21
-106.69
0
LINE
8
BLACK
6
CONTINUOUS
10
142.222
20
-107.001
11
142.225
21
-107.004
0
LINE
8
BLACK
6
CONTINUOUS
10
142.225
20
-107.004
11
142.23
21
-107.005
0
LINE
8
BLACK
6
CONTINUOUS
10
142.23
20
-107.005
11
142.325
21
-107.052
0
LINE
8
BLACK
6
CONTINUOUS
10
142.325
20
-107.052
11
142.343
21
-107.066
0
LINE
8
BLACK
6
CONTINUOUS
10
142.343
20
-107.066
11
142.345
21
-107.066
0
LINE
8
BLACK
6
CONTINUOUS
10
142.345
20
-107.066
11
142.392
21
-107.114
0
LINE
8
BLACK
6
CONTINUOUS
10
142.392
20
-107.114
11
142.405
21
-107.132
0
LINE
8
BLACK
6
CONTINUOUS
10
142.405
20
-107.132
11
142.406
21
-107.133
0
LINE
8
BLACK
6
CONTINUOUS
10
142.406
20
-107.133
11
142.454
21
-107.229
0
LINE
8
BLACK
6
CONTINUOUS
10
142.454
20
-107.229
11
142.461
21
-107.254
0
LINE
8
BLACK
6
CONTINUOUS
10
142.461
20
-107.254
11
142.46
21
-107.258
0
LINE
8
BLACK
6
CONTINUOUS
10
142.46
20
-107.258
11
142.462
21
-107.262
0
LINE
8
BLACK
6
CONTINUOUS
10
142.462
20
-107.262
11
142.462
21
-107.548
0
LINE
8
BLACK
6
CONTINUOUS
10
142.462
20
-107.548
11
142.457
21
-107.574
0
LINE
8
BLACK
6
CONTINUOUS
10
142.457
20
-107.574
11
142.454
21
-107.577
0
LINE
8
BLACK
6
CONTINUOUS
10
142.454
20
-107.577
11
142.454
21
-107.582
0
LINE
8
BLACK
6
CONTINUOUS
10
142.454
20
-107.582
11
142.406
21
-107.677
0
LINE
8
BLACK
6
CONTINUOUS
10
142.406
20
-107.677
11
142.393
21
-107.695
0
LINE
8
BLACK
6
CONTINUOUS
10
142.393
20
-107.695
11
142.392
21
-107.696
0
LINE
8
BLACK
6
CONTINUOUS
10
142.392
20
-107.696
11
142.345
21
-107.744
0
LINE
8
BLACK
6
CONTINUOUS
10
142.345
20
-107.744
11
142.326
21
-107.757
0
LINE
8
BLACK
6
CONTINUOUS
10
142.326
20
-107.757
11
142.325
21
-107.758
0
LINE
8
BLACK
6
CONTINUOUS
10
142.325
20
-107.758
11
142.23
21
-107.806
0
LINE
8
BLACK
6
CONTINUOUS
10
142.23
20
-107.806
11
142.205
21
-107.813
0
LINE
8
BLACK
6
CONTINUOUS
10
142.205
20
-107.813
11
142.201
21
-107.812
0
LINE
8
BLACK
6
CONTINUOUS
10
142.201
20
-107.812
11
142.196
21
-107.813
0
LINE
8
BLACK
6
CONTINUOUS
10
142.196
20
-107.813
11
142.053
21
-107.813
0
LINE
8
BLACK
6
CONTINUOUS
10
142.053
20
-107.813
11
142.028
21
-107.809
0
LINE
8
BLACK
6
CONTINUOUS
10
142.028
20
-107.809
11
142.024
21
-107.806
0
LINE
8
BLACK
6
CONTINUOUS
10
142.024
20
-107.806
11
142.02
21
-107.806
0
LINE
8
BLACK
6
CONTINUOUS
10
142.02
20
-107.806
11
141.925
21
-107.758
0
LINE
8
BLACK
6
CONTINUOUS
10
141.925
20
-107.758
11
141.907
21
-107.745
0
LINE
8
BLACK
6
CONTINUOUS
10
141.907
20
-107.745
11
141.905
21
-107.744
0
LINE
8
BLACK
6
CONTINUOUS
10
141.905
20
-107.744
11
141.858
21
-107.696
0
LINE
8
BLACK
6
CONTINUOUS
10
141.858
20
-107.696
11
141.845
21
-107.678
0
LINE
8
BLACK
6
CONTINUOUS
10
141.845
20
-107.678
11
141.844
21
-107.677
0
LINE
8
BLACK
6
CONTINUOUS
10
141.844
20
-107.677
11
141.796
21
-107.582
0
LINE
8
BLACK
6
CONTINUOUS
10
141.796
20
-107.582
11
141.788
21
-107.557
0
LINE
8
BLACK
6
CONTINUOUS
10
141.788
20
-107.557
11
141.79
21
-107.552
0
LINE
8
BLACK
6
CONTINUOUS
10
141.79
20
-107.552
11
141.788
21
-107.548
0
LINE
8
BLACK
6
CONTINUOUS
10
141.788
20
-107.548
11
141.788
21
-107.262
0
LINE
8
BLACK
6
CONTINUOUS
10
141.788
20
-107.262
11
141.792
21
-107.237
0
LINE
8
BLACK
6
CONTINUOUS
10
141.792
20
-107.237
11
141.795
21
-107.233
0
LINE
8
BLACK
6
CONTINUOUS
10
141.795
20
-107.233
11
141.796
21
-107.229
0
LINE
8
BLACK
6
CONTINUOUS
10
141.796
20
-107.229
11
141.844
21
-107.133
0
LINE
8
BLACK
6
CONTINUOUS
10
141.844
20
-107.133
11
141.857
21
-107.115
0
LINE
8
BLACK
6
CONTINUOUS
10
141.857
20
-107.115
11
141.858
21
-107.114
0
LINE
8
BLACK
6
CONTINUOUS
10
141.858
20
-107.114
11
141.905
21
-107.066
0
LINE
8
BLACK
6
CONTINUOUS
10
141.905
20
-107.066
11
141.924
21
-107.053
0
LINE
8
BLACK
6
CONTINUOUS
10
141.924
20
-107.053
11
141.925
21
-107.052
0
LINE
8
BLACK
6
CONTINUOUS
10
141.925
20
-107.052
11
142.02
21
-107.005
0
LINE
8
BLACK
6
CONTINUOUS
10
142.02
20
-107.005
11
142.045
21
-106.997
0
LINE
8
BLACK
6
CONTINUOUS
10
142.045
20
-106.997
11
142.049
21
-106.998
0
LINE
8
BLACK
6
CONTINUOUS
10
142.049
20
-106.998
11
142.053
21
-106.997
0
LINE
8
BLACK
6
CONTINUOUS
10
142.053
20
-106.997
11
142.196
21
-106.997
0
LINE
8
BLACK
6
CONTINUOUS
10
142.196
20
-106.997
11
142.222
21
-107.001
0
LINE
8
BLACK
6
CONTINUOUS
10
142.003
20
-107.181
11
141.972
21
-107.211
0
LINE
8
BLACK
6
CONTINUOUS
10
141.972
20
-107.211
11
141.938
21
-107.28
0
LINE
8
BLACK
6
CONTINUOUS
10
141.938
20
-107.28
11
141.938
21
-107.53
0
LINE
8
BLACK
6
CONTINUOUS
10
141.938
20
-107.53
11
141.972
21
-107.599
0
LINE
8
BLACK
6
CONTINUOUS
10
141.972
20
-107.599
11
142.003
21
-107.629
0
LINE
8
BLACK
6
CONTINUOUS
10
142.003
20
-107.629
11
142.071
21
-107.663
0
LINE
8
BLACK
6
CONTINUOUS
10
142.071
20
-107.663
11
142.179
21
-107.663
0
LINE
8
BLACK
6
CONTINUOUS
10
142.179
20
-107.663
11
142.247
21
-107.629
0
LINE
8
BLACK
6
CONTINUOUS
10
142.247
20
-107.629
11
142.278
21
-107.599
0
LINE
8
BLACK
6
CONTINUOUS
10
142.278
20
-107.599
11
142.312
21
-107.53
0
LINE
8
BLACK
6
CONTINUOUS
10
142.312
20
-107.53
11
142.312
21
-107.28
0
LINE
8
BLACK
6
CONTINUOUS
10
142.312
20
-107.28
11
142.278
21
-107.211
0
LINE
8
BLACK
6
CONTINUOUS
10
142.278
20
-107.211
11
142.247
21
-107.181
0
LINE
8
BLACK
6
CONTINUOUS
10
142.247
20
-107.181
11
142.179
21
-107.147
0
LINE
8
BLACK
6
CONTINUOUS
10
142.179
20
-107.147
11
142.071
21
-107.147
0
LINE
8
BLACK
6
CONTINUOUS
10
142.071
20
-107.147
11
142.003
21
-107.181
0
LINE
8
BLACK
6
CONTINUOUS
10
143.746
20
-107.001
11
143.749
21
-107.004
0
LINE
8
BLACK
6
CONTINUOUS
10
143.749
20
-107.004
11
143.754
21
-107.005
0
LINE
8
BLACK
6
CONTINUOUS
10
143.754
20
-107.005
11
143.849
21
-107.052
0
LINE
8
BLACK
6
CONTINUOUS
10
143.849
20
-107.052
11
143.87
21
-107.068
0
LINE
8
BLACK
6
CONTINUOUS
10
143.87
20
-107.068
11
143.874
21
-107.078
0
LINE
8
BLACK
6
CONTINUOUS
10
143.874
20
-107.078
11
143.882
21
-107.086
0
LINE
8
BLACK
6
CONTINUOUS
10
143.882
20
-107.086
11
143.93
21
-107.181
0
LINE
8
BLACK
6
CONTINUOUS
10
143.93
20
-107.181
11
143.937
21
-107.206
0
LINE
8
BLACK
6
CONTINUOUS
10
143.937
20
-107.206
11
143.936
21
-107.21
0
LINE
8
BLACK
6
CONTINUOUS
10
143.936
20
-107.21
11
143.938
21
-107.215
0
LINE
8
BLACK
6
CONTINUOUS
10
143.938
20
-107.215
11
143.938
21
-107.738
0
LINE
8
BLACK
6
CONTINUOUS
10
143.938
20
-107.738
11
143.933
21
-107.764
0
LINE
8
BLACK
6
CONTINUOUS
10
143.933
20
-107.764
11
143.9
21
-107.803
0
LINE
8
BLACK
6
CONTINUOUS
10
143.9
20
-107.803
11
143.85
21
-107.812
0
LINE
8
BLACK
6
CONTINUOUS
10
143.85
20
-107.812
11
143.821
21
-107.796
0
LINE
8
BLACK
6
CONTINUOUS
10
143.821
20
-107.796
11
143.801
21
-107.806
0
LINE
8
BLACK
6
CONTINUOUS
10
143.801
20
-107.806
11
143.776
21
-107.813
0
LINE
8
BLACK
6
CONTINUOUS
10
143.776
20
-107.813
11
143.772
21
-107.812
0
LINE
8
BLACK
6
CONTINUOUS
10
143.772
20
-107.812
11
143.768
21
-107.813
0
LINE
8
BLACK
6
CONTINUOUS
10
143.768
20
-107.813
11
143.53
21
-107.813
0
LINE
8
BLACK
6
CONTINUOUS
10
143.53
20
-107.813
11
143.504
21
-107.809
0
LINE
8
BLACK
6
CONTINUOUS
10
143.504
20
-107.809
11
143.501
21
-107.806
0
LINE
8
BLACK
6
CONTINUOUS
10
143.501
20
-107.806
11
143.496
21
-107.806
0
LINE
8
BLACK
6
CONTINUOUS
10
143.496
20
-107.806
11
143.401
21
-107.758
0
LINE
8
BLACK
6
CONTINUOUS
10
143.401
20
-107.758
11
143.38
21
-107.742
0
LINE
8
BLACK
6
CONTINUOUS
10
143.38
20
-107.742
11
143.375
21
-107.732
0
LINE
8
BLACK
6
CONTINUOUS
10
143.375
20
-107.732
11
143.367
21
-107.724
0
LINE
8
BLACK
6
CONTINUOUS
10
143.367
20
-107.724
11
143.32
21
-107.629
0
LINE
8
BLACK
6
CONTINUOUS
10
143.32
20
-107.629
11
143.312
21
-107.604
0
LINE
8
BLACK
6
CONTINUOUS
10
143.312
20
-107.604
11
143.313
21
-107.6
0
LINE
8
BLACK
6
CONTINUOUS
10
143.313
20
-107.6
11
143.312
21
-107.596
0
LINE
8
BLACK
6
CONTINUOUS
10
143.312
20
-107.596
11
143.312
21
-107.5
0
LINE
8
BLACK
6
CONTINUOUS
10
143.312
20
-107.5
11
143.316
21
-107.475
0
LINE
8
BLACK
6
CONTINUOUS
10
143.316
20
-107.475
11
143.319
21
-107.471
0
LINE
8
BLACK
6
CONTINUOUS
10
143.319
20
-107.471
11
143.32
21
-107.467
0
LINE
8
BLACK
6
CONTINUOUS
10
143.32
20
-107.467
11
143.367
21
-107.372
0
LINE
8
BLACK
6
CONTINUOUS
10
143.367
20
-107.372
11
143.383
21
-107.351
0
LINE
8
BLACK
6
CONTINUOUS
10
143.383
20
-107.351
11
143.393
21
-107.346
0
LINE
8
BLACK
6
CONTINUOUS
10
143.393
20
-107.346
11
143.401
21
-107.338
0
LINE
8
BLACK
6
CONTINUOUS
10
143.401
20
-107.338
11
143.496
21
-107.29
0
LINE
8
BLACK
6
CONTINUOUS
10
143.496
20
-107.29
11
143.521
21
-107.283
0
LINE
8
BLACK
6
CONTINUOUS
10
143.521
20
-107.283
11
143.525
21
-107.284
0
LINE
8
BLACK
6
CONTINUOUS
10
143.525
20
-107.284
11
143.53
21
-107.282
0
LINE
8
BLACK
6
CONTINUOUS
10
143.53
20
-107.282
11
143.75
21
-107.282
0
LINE
8
BLACK
6
CONTINUOUS
10
143.75
20
-107.282
11
143.788
21
-107.264
0
LINE
8
BLACK
6
CONTINUOUS
10
143.788
20
-107.264
11
143.788
21
-107.232
0
LINE
8
BLACK
6
CONTINUOUS
10
143.788
20
-107.232
11
143.759
21
-107.175
0
LINE
8
BLACK
6
CONTINUOUS
10
143.759
20
-107.175
11
143.702
21
-107.147
0
LINE
8
BLACK
6
CONTINUOUS
10
143.702
20
-107.147
11
143.547
21
-107.147
0
LINE
8
BLACK
6
CONTINUOUS
10
143.547
20
-107.147
11
143.468
21
-107.186
0
LINE
8
BLACK
6
CONTINUOUS
10
143.468
20
-107.186
11
143.443
21
-107.194
0
LINE
8
BLACK
6
CONTINUOUS
10
143.443
20
-107.194
11
143.393
21
-107.182
0
LINE
8
BLACK
6
CONTINUOUS
10
143.393
20
-107.182
11
143.363
21
-107.141
0
LINE
8
BLACK
6
CONTINUOUS
10
143.363
20
-107.141
11
143.366
21
-107.09
0
LINE
8
BLACK
6
CONTINUOUS
10
143.366
20
-107.09
11
143.401
21
-107.052
0
LINE
8
BLACK
6
CONTINUOUS
10
143.401
20
-107.052
11
143.496
21
-107.005
0
LINE
8
BLACK
6
CONTINUOUS
10
143.496
20
-107.005
11
143.521
21
-106.997
0
LINE
8
BLACK
6
CONTINUOUS
10
143.521
20
-106.997
11
143.525
21
-106.998
0
LINE
8
BLACK
6
CONTINUOUS
10
143.525
20
-106.998
11
143.53
21
-106.997
0
LINE
8
BLACK
6
CONTINUOUS
10
143.53
20
-106.997
11
143.72
21
-106.997
0
LINE
8
BLACK
6
CONTINUOUS
10
143.72
20
-106.997
11
143.746
21
-107.001
0
LINE
8
BLACK
6
CONTINUOUS
10
143.776
20
-107.432
11
143.772
21
-107.431
0
LINE
8
BLACK
6
CONTINUOUS
10
143.772
20
-107.431
11
143.768
21
-107.432
0
LINE
8
BLACK
6
CONTINUOUS
10
143.768
20
-107.432
11
143.547
21
-107.432
0
LINE
8
BLACK
6
CONTINUOUS
10
143.547
20
-107.432
11
143.49
21
-107.461
0
LINE
8
BLACK
6
CONTINUOUS
10
143.49
20
-107.461
11
143.462
21
-107.518
0
LINE
8
BLACK
6
CONTINUOUS
10
143.462
20
-107.518
11
143.462
21
-107.578
0
LINE
8
BLACK
6
CONTINUOUS
10
143.462
20
-107.578
11
143.49
21
-107.635
0
LINE
8
BLACK
6
CONTINUOUS
10
143.49
20
-107.635
11
143.547
21
-107.663
0
LINE
8
BLACK
6
CONTINUOUS
10
143.547
20
-107.663
11
143.75
21
-107.663
0
LINE
8
BLACK
6
CONTINUOUS
10
143.75
20
-107.663
11
143.788
21
-107.644
0
LINE
8
BLACK
6
CONTINUOUS
10
143.788
20
-107.644
11
143.788
21
-107.429
0
LINE
8
BLACK
6
CONTINUOUS
10
143.788
20
-107.429
11
143.776
21
-107.432
0
LINE
8
BLACK
6
CONTINUOUS
10
145.555
20
-107.001
11
145.559
21
-107.004
0
LINE
8
BLACK
6
CONTINUOUS
10
145.559
20
-107.004
11
145.563
21
-107.005
0
LINE
8
BLACK
6
CONTINUOUS
10
145.563
20
-107.005
11
145.658
21
-107.052
0
LINE
8
BLACK
6
CONTINUOUS
10
145.658
20
-107.052
11
145.679
21
-107.068
0
LINE
8
BLACK
6
CONTINUOUS
10
145.679
20
-107.068
11
145.684
21
-107.078
0
LINE
8
BLACK
6
CONTINUOUS
10
145.684
20
-107.078
11
145.692
21
-107.086
0
LINE
8
BLACK
6
CONTINUOUS
10
145.692
20
-107.086
11
145.74
21
-107.181
0
LINE
8
BLACK
6
CONTINUOUS
10
145.74
20
-107.181
11
145.747
21
-107.206
0
LINE
8
BLACK
6
CONTINUOUS
10
145.747
20
-107.206
11
145.746
21
-107.21
0
LINE
8
BLACK
6
CONTINUOUS
10
145.746
20
-107.21
11
145.747
21
-107.215
0
LINE
8
BLACK
6
CONTINUOUS
10
145.747
20
-107.215
11
145.747
21
-107.31
0
LINE
8
BLACK
6
CONTINUOUS
10
145.747
20
-107.31
11
145.743
21
-107.336
0
LINE
8
BLACK
6
CONTINUOUS
10
145.743
20
-107.336
11
145.735
21
-107.345
0
LINE
8
BLACK
6
CONTINUOUS
10
145.735
20
-107.345
11
145.731
21
-107.357
0
LINE
8
BLACK
6
CONTINUOUS
10
145.731
20
-107.357
11
145.719
21
-107.364
0
LINE
8
BLACK
6
CONTINUOUS
10
145.719
20
-107.364
11
145.71
21
-107.375
0
LINE
8
BLACK
6
CONTINUOUS
10
145.71
20
-107.375
11
145.698
21
-107.377
0
LINE
8
BLACK
6
CONTINUOUS
10
145.698
20
-107.377
11
145.687
21
-107.383
0
LINE
8
BLACK
6
CONTINUOUS
10
145.687
20
-107.383
11
145.271
21
-107.467
0
LINE
8
BLACK
6
CONTINUOUS
10
145.271
20
-107.467
11
145.271
21
-107.578
0
LINE
8
BLACK
6
CONTINUOUS
10
145.271
20
-107.578
11
145.3
21
-107.635
0
LINE
8
BLACK
6
CONTINUOUS
10
145.3
20
-107.635
11
145.357
21
-107.663
0
LINE
8
BLACK
6
CONTINUOUS
10
145.357
20
-107.663
11
145.512
21
-107.663
0
LINE
8
BLACK
6
CONTINUOUS
10
145.512
20
-107.663
11
145.591
21
-107.624
0
LINE
8
BLACK
6
CONTINUOUS
10
145.591
20
-107.624
11
145.616
21
-107.616
0
LINE
8
BLACK
6
CONTINUOUS
10
145.616
20
-107.616
11
145.666
21
-107.628
0
LINE
8
BLACK
6
CONTINUOUS
10
145.666
20
-107.628
11
145.697
21
-107.669
0
LINE
8
BLACK
6
CONTINUOUS
10
145.697
20
-107.669
11
145.694
21
-107.721
0
LINE
8
BLACK
6
CONTINUOUS
10
145.694
20
-107.721
11
145.658
21
-107.758
0
LINE
8
BLACK
6
CONTINUOUS
10
145.658
20
-107.758
11
145.563
21
-107.806
0
LINE
8
BLACK
6
CONTINUOUS
10
145.563
20
-107.806
11
145.538
21
-107.813
0
LINE
8
BLACK
6
CONTINUOUS
10
145.538
20
-107.813
11
145.534
21
-107.812
0
LINE
8
BLACK
6
CONTINUOUS
10
145.534
20
-107.812
11
145.53
21
-107.813
0
LINE
8
BLACK
6
CONTINUOUS
10
145.53
20
-107.813
11
145.339
21
-107.813
0
LINE
8
BLACK
6
CONTINUOUS
10
145.339
20
-107.813
11
145.314
21
-107.809
0
LINE
8
BLACK
6
CONTINUOUS
10
145.314
20
-107.809
11
145.31
21
-107.806
0
LINE
8
BLACK
6
CONTINUOUS
10
145.31
20
-107.806
11
145.306
21
-107.806
0
LINE
8
BLACK
6
CONTINUOUS
10
145.306
20
-107.806
11
145.21
21
-107.758
0
LINE
8
BLACK
6
CONTINUOUS
10
145.21
20
-107.758
11
145.189
21
-107.742
0
LINE
8
BLACK
6
CONTINUOUS
10
145.189
20
-107.742
11
145.185
21
-107.732
0
LINE
8
BLACK
6
CONTINUOUS
10
145.185
20
-107.732
11
145.177
21
-107.724
0
LINE
8
BLACK
6
CONTINUOUS
10
145.177
20
-107.724
11
145.129
21
-107.629
0
LINE
8
BLACK
6
CONTINUOUS
10
145.129
20
-107.629
11
145.122
21
-107.604
0
LINE
8
BLACK
6
CONTINUOUS
10
145.122
20
-107.604
11
145.123
21
-107.6
0
LINE
8
BLACK
6
CONTINUOUS
10
145.123
20
-107.6
11
145.121
21
-107.596
0
LINE
8
BLACK
6
CONTINUOUS
10
145.121
20
-107.596
11
145.121
21
-107.215
0
LINE
8
BLACK
6
CONTINUOUS
10
145.121
20
-107.215
11
145.126
21
-107.189
0
LINE
8
BLACK
6
CONTINUOUS
10
145.126
20
-107.189
11
145.129
21
-107.186
0
LINE
8
BLACK
6
CONTINUOUS
10
145.129
20
-107.186
11
145.129
21
-107.181
0
LINE
8
BLACK
6
CONTINUOUS
10
145.129
20
-107.181
11
145.177
21
-107.086
0
LINE
8
BLACK
6
CONTINUOUS
10
145.177
20
-107.086
11
145.192
21
-107.065
0
LINE
8
BLACK
6
CONTINUOUS
10
145.192
20
-107.065
11
145.203
21
-107.06
0
LINE
8
BLACK
6
CONTINUOUS
10
145.203
20
-107.06
11
145.21
21
-107.052
0
LINE
8
BLACK
6
CONTINUOUS
10
145.21
20
-107.052
11
145.306
21
-107.005
0
LINE
8
BLACK
6
CONTINUOUS
10
145.306
20
-107.005
11
145.331
21
-106.997
0
LINE
8
BLACK
6
CONTINUOUS
10
145.331
20
-106.997
11
145.335
21
-106.998
0
LINE
8
BLACK
6
CONTINUOUS
10
145.335
20
-106.998
11
145.339
21
-106.997
0
LINE
8
BLACK
6
CONTINUOUS
10
145.339
20
-106.997
11
145.53
21
-106.997
0
LINE
8
BLACK
6
CONTINUOUS
10
145.53
20
-106.997
11
145.555
21
-107.001
0
LINE
8
BLACK
6
CONTINUOUS
10
145.3
20
-107.175
11
145.271
21
-107.232
0
LINE
8
BLACK
6
CONTINUOUS
10
145.271
20
-107.232
11
145.271
21
-107.314
0
LINE
8
BLACK
6
CONTINUOUS
10
145.271
20
-107.314
11
145.597
21
-107.248
0
LINE
8
BLACK
6
CONTINUOUS
10
145.597
20
-107.248
11
145.597
21
-107.232
0
LINE
8
BLACK
6
CONTINUOUS
10
145.597
20
-107.232
11
145.569
21
-107.175
0
LINE
8
BLACK
6
CONTINUOUS
10
145.569
20
-107.175
11
145.512
21
-107.147
0
LINE
8
BLACK
6
CONTINUOUS
10
145.512
20
-107.147
11
145.357
21
-107.147
0
LINE
8
BLACK
6
CONTINUOUS
10
145.357
20
-107.147
11
145.3
21
-107.175
0
LINE
8
BLACK
6
CONTINUOUS
10
143.127
20
-107.001
11
143.166
21
-107.034
0
LINE
8
BLACK
6
CONTINUOUS
10
143.166
20
-107.034
11
143.175
21
-107.085
0
LINE
8
BLACK
6
CONTINUOUS
10
143.175
20
-107.085
11
143.149
21
-107.129
0
LINE
8
BLACK
6
CONTINUOUS
10
143.149
20
-107.129
11
143.101
21
-107.147
0
LINE
8
BLACK
6
CONTINUOUS
10
143.101
20
-107.147
11
143.024
21
-107.147
0
LINE
8
BLACK
6
CONTINUOUS
10
143.024
20
-107.147
11
142.955
21
-107.181
0
LINE
8
BLACK
6
CONTINUOUS
10
142.955
20
-107.181
11
142.925
21
-107.211
0
LINE
8
BLACK
6
CONTINUOUS
10
142.925
20
-107.211
11
142.89
21
-107.28
0
LINE
8
BLACK
6
CONTINUOUS
10
142.89
20
-107.28
11
142.89
21
-107.738
0
LINE
8
BLACK
6
CONTINUOUS
10
142.89
20
-107.738
11
142.886
21
-107.764
0
LINE
8
BLACK
6
CONTINUOUS
10
142.886
20
-107.764
11
142.853
21
-107.803
0
LINE
8
BLACK
6
CONTINUOUS
10
142.853
20
-107.803
11
142.802
21
-107.812
0
LINE
8
BLACK
6
CONTINUOUS
10
142.802
20
-107.812
11
142.758
21
-107.787
0
LINE
8
BLACK
6
CONTINUOUS
10
142.758
20
-107.787
11
142.74
21
-107.738
0
LINE
8
BLACK
6
CONTINUOUS
10
142.74
20
-107.738
11
142.74
21
-107.072
0
LINE
8
BLACK
6
CONTINUOUS
10
142.74
20
-107.072
11
142.745
21
-107.046
0
LINE
8
BLACK
6
CONTINUOUS
10
142.745
20
-107.046
11
142.778
21
-107.007
0
LINE
8
BLACK
6
CONTINUOUS
10
142.778
20
-107.007
11
142.828
21
-106.998
0
LINE
8
BLACK
6
CONTINUOUS
10
142.828
20
-106.998
11
142.873
21
-107.024
0
LINE
8
BLACK
6
CONTINUOUS
10
142.873
20
-107.024
11
142.882
21
-107.05
0
LINE
8
BLACK
6
CONTINUOUS
10
142.882
20
-107.05
11
142.972
21
-107.005
0
LINE
8
BLACK
6
CONTINUOUS
10
142.972
20
-107.005
11
142.997
21
-106.997
0
LINE
8
BLACK
6
CONTINUOUS
10
142.997
20
-106.997
11
143.002
21
-106.998
0
LINE
8
BLACK
6
CONTINUOUS
10
143.002
20
-106.998
11
143.006
21
-106.997
0
LINE
8
BLACK
6
CONTINUOUS
10
143.006
20
-106.997
11
143.101
21
-106.997
0
LINE
8
BLACK
6
CONTINUOUS
10
143.101
20
-106.997
11
143.127
21
-107.001
0
LINE
8
BLACK
6
CONTINUOUS
10
152.845
20
-105.394
11
152.86
21
-105.43
0
LINE
8
BLACK
6
CONTINUOUS
10
152.86
20
-105.43
11
152.86
21
-107.105
0
LINE
8
BLACK
6
CONTINUOUS
10
152.86
20
-107.105
11
165.11
21
-107.105
0
LINE
8
BLACK
6
CONTINUOUS
10
165.11
20
-107.105
11
165.145
21
-107.119
0
LINE
8
BLACK
6
CONTINUOUS
10
165.145
20
-107.119
11
165.16
21
-107.155
0
LINE
8
BLACK
6
CONTINUOUS
10
165.16
20
-107.155
11
165.145
21
-107.19
0
LINE
8
BLACK
6
CONTINUOUS
10
165.145
20
-107.19
11
165.11
21
-107.205
0
LINE
8
BLACK
6
CONTINUOUS
10
165.11
20
-107.205
11
152.81
21
-107.205
0
LINE
8
BLACK
6
CONTINUOUS
10
152.81
20
-107.205
11
152.775
21
-107.19
0
LINE
8
BLACK
6
CONTINUOUS
10
152.775
20
-107.19
11
152.76
21
-107.155
0
LINE
8
BLACK
6
CONTINUOUS
10
152.76
20
-107.155
11
152.76
21
-107.155
0
LINE
8
BLACK
6
CONTINUOUS
10
152.76
20
-107.155
11
152.76
21
-105.43
0
LINE
8
BLACK
6
CONTINUOUS
10
152.76
20
-105.43
11
152.775
21
-105.394
0
LINE
8
BLACK
6
CONTINUOUS
10
152.775
20
-105.394
11
152.81
21
-105.38
0
LINE
8
BLACK
6
CONTINUOUS
10
152.81
20
-105.38
11
152.845
21
-105.394
0
LINE
8
BLACK
6
CONTINUOUS
10
137.809
20
-104.978
11
137.848
21
-105.011
0
LINE
8
BLACK
6
CONTINUOUS
10
137.848
20
-105.011
11
137.857
21
-105.061
0
LINE
8
BLACK
6
CONTINUOUS
10
137.857
20
-105.061
11
137.831
21
-105.106
0
LINE
8
BLACK
6
CONTINUOUS
10
137.831
20
-105.106
11
137.783
21
-105.123
0
LINE
8
BLACK
6
CONTINUOUS
10
137.783
20
-105.123
11
137.382
21
-105.123
0
LINE
8
BLACK
6
CONTINUOUS
10
137.382
20
-105.123
11
137.382
21
-105.45
0
LINE
8
BLACK
6
CONTINUOUS
10
137.382
20
-105.45
11
137.64
21
-105.45
0
LINE
8
BLACK
6
CONTINUOUS
10
137.64
20
-105.45
11
137.666
21
-105.454
0
LINE
8
BLACK
6
CONTINUOUS
10
137.666
20
-105.454
11
137.705
21
-105.487
0
LINE
8
BLACK
6
CONTINUOUS
10
137.705
20
-105.487
11
137.714
21
-105.538
0
LINE
8
BLACK
6
CONTINUOUS
10
137.714
20
-105.538
11
137.688
21
-105.582
0
LINE
8
BLACK
6
CONTINUOUS
10
137.688
20
-105.582
11
137.64
21
-105.6
0
LINE
8
BLACK
6
CONTINUOUS
10
137.64
20
-105.6
11
137.382
21
-105.6
0
LINE
8
BLACK
6
CONTINUOUS
10
137.382
20
-105.6
11
137.382
21
-105.973
0
LINE
8
BLACK
6
CONTINUOUS
10
137.382
20
-105.973
11
137.783
21
-105.973
0
LINE
8
BLACK
6
CONTINUOUS
10
137.783
20
-105.973
11
137.809
21
-105.978
0
LINE
8
BLACK
6
CONTINUOUS
10
137.809
20
-105.978
11
137.848
21
-106.011
0
LINE
8
BLACK
6
CONTINUOUS
10
137.848
20
-106.011
11
137.857
21
-106.061
0
LINE
8
BLACK
6
CONTINUOUS
10
137.857
20
-106.061
11
137.831
21
-106.106
0
LINE
8
BLACK
6
CONTINUOUS
10
137.831
20
-106.106
11
137.783
21
-106.123
0
LINE
8
BLACK
6
CONTINUOUS
10
137.783
20
-106.123
11
137.307
21
-106.123
0
LINE
8
BLACK
6
CONTINUOUS
10
137.307
20
-106.123
11
137.297
21
-106.122
0
LINE
8
BLACK
6
CONTINUOUS
10
137.297
20
-106.122
11
137.294
21
-106.122
0
LINE
8
BLACK
6
CONTINUOUS
10
137.294
20
-106.122
11
137.291
21
-106.121
0
LINE
8
BLACK
6
CONTINUOUS
10
137.291
20
-106.121
11
137.281
21
-106.119
0
LINE
8
BLACK
6
CONTINUOUS
10
137.281
20
-106.119
11
137.266
21
-106.106
0
LINE
8
BLACK
6
CONTINUOUS
10
137.266
20
-106.106
11
137.249
21
-106.097
0
LINE
8
BLACK
6
CONTINUOUS
10
137.249
20
-106.097
11
137.247
21
-106.09
0
LINE
8
BLACK
6
CONTINUOUS
10
137.247
20
-106.09
11
137.242
21
-106.086
0
LINE
8
BLACK
6
CONTINUOUS
10
137.242
20
-106.086
11
137.238
21
-106.067
0
LINE
8
BLACK
6
CONTINUOUS
10
137.238
20
-106.067
11
137.232
21
-106.048
0
LINE
8
BLACK
6
CONTINUOUS
10
137.232
20
-106.048
11
137.232
21
-105.048
0
LINE
8
BLACK
6
CONTINUOUS
10
137.232
20
-105.048
11
137.233
21
-105.039
0
LINE
8
BLACK
6
CONTINUOUS
10
137.233
20
-105.039
11
137.233
21
-105.035
0
LINE
8
BLACK
6
CONTINUOUS
10
137.233
20
-105.035
11
137.235
21
-105.033
0
LINE
8
BLACK
6
CONTINUOUS
10
137.235
20
-105.033
11
137.236
21
-105.023
0
LINE
8
BLACK
6
CONTINUOUS
10
137.236
20
-105.023
11
137.249
21
-105.008
0
LINE
8
BLACK
6
CONTINUOUS
10
137.249
20
-105.008
11
137.259
21
-104.991
0
LINE
8
BLACK
6
CONTINUOUS
10
137.259
20
-104.991
11
137.265
21
-104.989
0
LINE
8
BLACK
6
CONTINUOUS
10
137.265
20
-104.989
11
137.269
21
-104.983
0
LINE
8
BLACK
6
CONTINUOUS
10
137.269
20
-104.983
11
137.288
21
-104.98
0
LINE
8
BLACK
6
CONTINUOUS
10
137.288
20
-104.98
11
137.307
21
-104.973
0
LINE
8
BLACK
6
CONTINUOUS
10
137.307
20
-104.973
11
137.783
21
-104.973
0
LINE
8
BLACK
6
CONTINUOUS
10
137.783
20
-104.973
11
137.809
21
-104.978
0
LINE
8
BLACK
6
CONTINUOUS
10
138.615
20
-104.977
11
138.616
21
-104.977
0
LINE
8
BLACK
6
CONTINUOUS
10
138.616
20
-104.977
11
138.759
21
-105.025
0
LINE
8
BLACK
6
CONTINUOUS
10
138.759
20
-105.025
11
138.782
21
-105.037
0
LINE
8
BLACK
6
CONTINUOUS
10
138.782
20
-105.037
11
138.809
21
-105.081
0
LINE
8
BLACK
6
CONTINUOUS
10
138.809
20
-105.081
11
138.801
21
-105.132
0
LINE
8
BLACK
6
CONTINUOUS
10
138.801
20
-105.132
11
138.763
21
-105.166
0
LINE
8
BLACK
6
CONTINUOUS
10
138.763
20
-105.166
11
138.712
21
-105.167
0
LINE
8
BLACK
6
CONTINUOUS
10
138.712
20
-105.167
11
138.58
21
-105.123
0
LINE
8
BLACK
6
CONTINUOUS
10
138.58
20
-105.123
11
138.372
21
-105.123
0
LINE
8
BLACK
6
CONTINUOUS
10
138.372
20
-105.123
11
138.304
21
-105.158
0
LINE
8
BLACK
6
CONTINUOUS
10
138.304
20
-105.158
11
138.273
21
-105.188
0
LINE
8
BLACK
6
CONTINUOUS
10
138.273
20
-105.188
11
138.239
21
-105.257
0
LINE
8
BLACK
6
CONTINUOUS
10
138.239
20
-105.257
11
138.239
21
-105.316
0
LINE
8
BLACK
6
CONTINUOUS
10
138.239
20
-105.316
11
138.273
21
-105.385
0
LINE
8
BLACK
6
CONTINUOUS
10
138.273
20
-105.385
11
138.304
21
-105.415
0
LINE
8
BLACK
6
CONTINUOUS
10
138.304
20
-105.415
11
138.381
21
-105.454
0
LINE
8
BLACK
6
CONTINUOUS
10
138.381
20
-105.454
11
138.563
21
-105.499
0
LINE
8
BLACK
6
CONTINUOUS
10
138.563
20
-105.499
11
138.575
21
-105.505
0
LINE
8
BLACK
6
CONTINUOUS
10
138.575
20
-105.505
11
138.578
21
-105.505
0
LINE
8
BLACK
6
CONTINUOUS
10
138.578
20
-105.505
11
138.674
21
-105.553
0
LINE
8
BLACK
6
CONTINUOUS
10
138.674
20
-105.553
11
138.692
21
-105.566
0
LINE
8
BLACK
6
CONTINUOUS
10
138.692
20
-105.566
11
138.693
21
-105.567
0
LINE
8
BLACK
6
CONTINUOUS
10
138.693
20
-105.567
11
138.741
21
-105.614
0
LINE
8
BLACK
6
CONTINUOUS
10
138.741
20
-105.614
11
138.754
21
-105.633
0
LINE
8
BLACK
6
CONTINUOUS
10
138.754
20
-105.633
11
138.755
21
-105.634
0
LINE
8
BLACK
6
CONTINUOUS
10
138.755
20
-105.634
11
138.802
21
-105.729
0
LINE
8
BLACK
6
CONTINUOUS
10
138.802
20
-105.729
11
138.81
21
-105.754
0
LINE
8
BLACK
6
CONTINUOUS
10
138.81
20
-105.754
11
138.809
21
-105.759
0
LINE
8
BLACK
6
CONTINUOUS
10
138.809
20
-105.759
11
138.81
21
-105.763
0
LINE
8
BLACK
6
CONTINUOUS
10
138.81
20
-105.763
11
138.81
21
-105.858
0
LINE
8
BLACK
6
CONTINUOUS
10
138.81
20
-105.858
11
138.806
21
-105.884
0
LINE
8
BLACK
6
CONTINUOUS
10
138.806
20
-105.884
11
138.803
21
-105.887
0
LINE
8
BLACK
6
CONTINUOUS
10
138.803
20
-105.887
11
138.802
21
-105.892
0
LINE
8
BLACK
6
CONTINUOUS
10
138.802
20
-105.892
11
138.755
21
-105.987
0
LINE
8
BLACK
6
CONTINUOUS
10
138.755
20
-105.987
11
138.741
21
-106.005
0
LINE
8
BLACK
6
CONTINUOUS
10
138.741
20
-106.005
11
138.741
21
-106.006
0
LINE
8
BLACK
6
CONTINUOUS
10
138.741
20
-106.006
11
138.693
21
-106.054
0
LINE
8
BLACK
6
CONTINUOUS
10
138.693
20
-106.054
11
138.675
21
-106.067
0
LINE
8
BLACK
6
CONTINUOUS
10
138.675
20
-106.067
11
138.674
21
-106.068
0
LINE
8
BLACK
6
CONTINUOUS
10
138.674
20
-106.068
11
138.578
21
-106.116
0
LINE
8
BLACK
6
CONTINUOUS
10
138.578
20
-106.116
11
138.553
21
-106.123
0
LINE
8
BLACK
6
CONTINUOUS
10
138.553
20
-106.123
11
138.549
21
-106.122
0
LINE
8
BLACK
6
CONTINUOUS
10
138.549
20
-106.122
11
138.545
21
-106.123
0
LINE
8
BLACK
6
CONTINUOUS
10
138.545
20
-106.123
11
138.307
21
-106.123
0
LINE
8
BLACK
6
CONTINUOUS
10
138.307
20
-106.123
11
138.285
21
-106.12
0
LINE
8
BLACK
6
CONTINUOUS
10
138.285
20
-106.12
11
138.283
21
-106.12
0
LINE
8
BLACK
6
CONTINUOUS
10
138.283
20
-106.12
11
138.14
21
-106.072
0
LINE
8
BLACK
6
CONTINUOUS
10
138.14
20
-106.072
11
138.117
21
-106.06
0
LINE
8
BLACK
6
CONTINUOUS
10
138.117
20
-106.06
11
138.09
21
-106.016
0
LINE
8
BLACK
6
CONTINUOUS
10
138.09
20
-106.016
11
138.098
21
-105.965
0
LINE
8
BLACK
6
CONTINUOUS
10
138.098
20
-105.965
11
138.136
21
-105.931
0
LINE
8
BLACK
6
CONTINUOUS
10
138.136
20
-105.931
11
138.188
21
-105.93
0
LINE
8
BLACK
6
CONTINUOUS
10
138.188
20
-105.93
11
138.319
21
-105.973
0
LINE
8
BLACK
6
CONTINUOUS
10
138.319
20
-105.973
11
138.527
21
-105.973
0
LINE
8
BLACK
6
CONTINUOUS
10
138.527
20
-105.973
11
138.596
21
-105.939
0
LINE
8
BLACK
6
CONTINUOUS
10
138.596
20
-105.939
11
138.626
21
-105.909
0
LINE
8
BLACK
6
CONTINUOUS
10
138.626
20
-105.909
11
138.66
21
-105.84
0
LINE
8
BLACK
6
CONTINUOUS
10
138.66
20
-105.84
11
138.66
21
-105.78
0
LINE
8
BLACK
6
CONTINUOUS
10
138.66
20
-105.78
11
138.626
21
-105.712
0
LINE
8
BLACK
6
CONTINUOUS
10
138.626
20
-105.712
11
138.596
21
-105.682
0
LINE
8
BLACK
6
CONTINUOUS
10
138.596
20
-105.682
11
138.519
21
-105.643
0
LINE
8
BLACK
6
CONTINUOUS
10
138.519
20
-105.643
11
138.336
21
-105.597
0
LINE
8
BLACK
6
CONTINUOUS
10
138.336
20
-105.597
11
138.324
21
-105.592
0
LINE
8
BLACK
6
CONTINUOUS
10
138.324
20
-105.592
11
138.321
21
-105.592
0
LINE
8
BLACK
6
CONTINUOUS
10
138.321
20
-105.592
11
138.226
21
-105.544
0
LINE
8
BLACK
6
CONTINUOUS
10
138.226
20
-105.544
11
138.208
21
-105.531
0
LINE
8
BLACK
6
CONTINUOUS
10
138.208
20
-105.531
11
138.206
21
-105.53
0
LINE
8
BLACK
6
CONTINUOUS
10
138.206
20
-105.53
11
138.159
21
-105.482
0
LINE
8
BLACK
6
CONTINUOUS
10
138.159
20
-105.482
11
138.146
21
-105.464
0
LINE
8
BLACK
6
CONTINUOUS
10
138.146
20
-105.464
11
138.144
21
-105.463
0
LINE
8
BLACK
6
CONTINUOUS
10
138.144
20
-105.463
11
138.097
21
-105.368
0
LINE
8
BLACK
6
CONTINUOUS
10
138.097
20
-105.368
11
138.089
21
-105.343
0
LINE
8
BLACK
6
CONTINUOUS
10
138.089
20
-105.343
11
138.09
21
-105.338
0
LINE
8
BLACK
6
CONTINUOUS
10
138.09
20
-105.338
11
138.089
21
-105.334
0
LINE
8
BLACK
6
CONTINUOUS
10
138.089
20
-105.334
11
138.089
21
-105.239
0
LINE
8
BLACK
6
CONTINUOUS
10
138.089
20
-105.239
11
138.093
21
-105.213
0
LINE
8
BLACK
6
CONTINUOUS
10
138.093
20
-105.213
11
138.096
21
-105.21
0
LINE
8
BLACK
6
CONTINUOUS
10
138.096
20
-105.21
11
138.097
21
-105.205
0
LINE
8
BLACK
6
CONTINUOUS
10
138.097
20
-105.205
11
138.144
21
-105.11
0
LINE
8
BLACK
6
CONTINUOUS
10
138.144
20
-105.11
11
138.158
21
-105.092
0
LINE
8
BLACK
6
CONTINUOUS
10
138.158
20
-105.092
11
138.159
21
-105.091
0
LINE
8
BLACK
6
CONTINUOUS
10
138.159
20
-105.091
11
138.206
21
-105.043
0
LINE
8
BLACK
6
CONTINUOUS
10
138.206
20
-105.043
11
138.224
21
-105.03
0
LINE
8
BLACK
6
CONTINUOUS
10
138.224
20
-105.03
11
138.226
21
-105.029
0
LINE
8
BLACK
6
CONTINUOUS
10
138.226
20
-105.029
11
138.321
21
-104.981
0
LINE
8
BLACK
6
CONTINUOUS
10
138.321
20
-104.981
11
138.346
21
-104.974
0
LINE
8
BLACK
6
CONTINUOUS
10
138.346
20
-104.974
11
138.35
21
-104.975
0
LINE
8
BLACK
6
CONTINUOUS
10
138.35
20
-104.975
11
138.354
21
-104.973
0
LINE
8
BLACK
6
CONTINUOUS
10
138.354
20
-104.973
11
138.592
21
-104.973
0
LINE
8
BLACK
6
CONTINUOUS
10
138.592
20
-104.973
11
138.615
21
-104.977
0
LINE
8
BLACK
6
CONTINUOUS
10
139.666
20
-104.978
11
139.705
21
-105.011
0
LINE
8
BLACK
6
CONTINUOUS
10
139.705
20
-105.011
11
139.714
21
-105.061
0
LINE
8
BLACK
6
CONTINUOUS
10
139.714
20
-105.061
11
139.688
21
-105.106
0
LINE
8
BLACK
6
CONTINUOUS
10
139.688
20
-105.106
11
139.64
21
-105.123
0
LINE
8
BLACK
6
CONTINUOUS
10
139.64
20
-105.123
11
139.239
21
-105.123
0
LINE
8
BLACK
6
CONTINUOUS
10
139.239
20
-105.123
11
139.239
21
-105.45
0
LINE
8
BLACK
6
CONTINUOUS
10
139.239
20
-105.45
11
139.497
21
-105.45
0
LINE
8
BLACK
6
CONTINUOUS
10
139.497
20
-105.45
11
139.523
21
-105.454
0
LINE
8
BLACK
6
CONTINUOUS
10
139.523
20
-105.454
11
139.562
21
-105.487
0
LINE
8
BLACK
6
CONTINUOUS
10
139.562
20
-105.487
11
139.571
21
-105.538
0
LINE
8
BLACK
6
CONTINUOUS
10
139.571
20
-105.538
11
139.545
21
-105.582
0
LINE
8
BLACK
6
CONTINUOUS
10
139.545
20
-105.582
11
139.497
21
-105.6
0
LINE
8
BLACK
6
CONTINUOUS
10
139.497
20
-105.6
11
139.239
21
-105.6
0
LINE
8
BLACK
6
CONTINUOUS
10
139.239
20
-105.6
11
139.239
21
-105.973
0
LINE
8
BLACK
6
CONTINUOUS
10
139.239
20
-105.973
11
139.64
21
-105.973
0
LINE
8
BLACK
6
CONTINUOUS
10
139.64
20
-105.973
11
139.666
21
-105.978
0
LINE
8
BLACK
6
CONTINUOUS
10
139.666
20
-105.978
11
139.705
21
-106.011
0
LINE
8
BLACK
6
CONTINUOUS
10
139.705
20
-106.011
11
139.714
21
-106.061
0
LINE
8
BLACK
6
CONTINUOUS
10
139.714
20
-106.061
11
139.688
21
-106.106
0
LINE
8
BLACK
6
CONTINUOUS
10
139.688
20
-106.106
11
139.64
21
-106.123
0
LINE
8
BLACK
6
CONTINUOUS
10
139.64
20
-106.123
11
139.164
21
-106.123
0
LINE
8
BLACK
6
CONTINUOUS
10
139.164
20
-106.123
11
139.154
21
-106.122
0
LINE
8
BLACK
6
CONTINUOUS
10
139.154
20
-106.122
11
139.151
21
-106.122
0
LINE
8
BLACK
6
CONTINUOUS
10
139.151
20
-106.122
11
139.148
21
-106.121
0
LINE
8
BLACK
6
CONTINUOUS
10
139.148
20
-106.121
11
139.138
21
-106.119
0
LINE
8
BLACK
6
CONTINUOUS
10
139.138
20
-106.119
11
139.123
21
-106.106
0
LINE
8
BLACK
6
CONTINUOUS
10
139.123
20
-106.106
11
139.106
21
-106.097
0
LINE
8
BLACK
6
CONTINUOUS
10
139.106
20
-106.097
11
139.104
21
-106.09
0
LINE
8
BLACK
6
CONTINUOUS
10
139.104
20
-106.09
11
139.099
21
-106.086
0
LINE
8
BLACK
6
CONTINUOUS
10
139.099
20
-106.086
11
139.096
21
-106.067
0
LINE
8
BLACK
6
CONTINUOUS
10
139.096
20
-106.067
11
139.089
21
-106.048
0
LINE
8
BLACK
6
CONTINUOUS
10
139.089
20
-106.048
11
139.089
21
-105.048
0
LINE
8
BLACK
6
CONTINUOUS
10
139.089
20
-105.048
11
139.091
21
-105.039
0
LINE
8
BLACK
6
CONTINUOUS
10
139.091
20
-105.039
11
139.09
21
-105.035
0
LINE
8
BLACK
6
CONTINUOUS
10
139.09
20
-105.035
11
139.092
21
-105.033
0
LINE
8
BLACK
6
CONTINUOUS
10
139.092
20
-105.033
11
139.093
21
-105.023
0
LINE
8
BLACK
6
CONTINUOUS
10
139.093
20
-105.023
11
139.106
21
-105.008
0
LINE
8
BLACK
6
CONTINUOUS
10
139.106
20
-105.008
11
139.116
21
-104.991
0
LINE
8
BLACK
6
CONTINUOUS
10
139.116
20
-104.991
11
139.122
21
-104.989
0
LINE
8
BLACK
6
CONTINUOUS
10
139.122
20
-104.989
11
139.126
21
-104.983
0
LINE
8
BLACK
6
CONTINUOUS
10
139.126
20
-104.983
11
139.146
21
-104.98
0
LINE
8
BLACK
6
CONTINUOUS
10
139.146
20
-104.98
11
139.164
21
-104.973
0
LINE
8
BLACK
6
CONTINUOUS
10
139.164
20
-104.973
11
139.64
21
-104.973
0
LINE
8
BLACK
6
CONTINUOUS
10
139.64
20
-104.973
11
139.666
21
-104.978
0
LINE
8
BLACK
6
CONTINUOUS
10
141.013
20
-104.985
11
141.045
21
-105.025
0
LINE
8
BLACK
6
CONTINUOUS
10
141.045
20
-105.025
11
141.307
21
-105.811
0
LINE
8
BLACK
6
CONTINUOUS
10
141.307
20
-105.811
11
141.569
21
-105.025
0
LINE
8
BLACK
6
CONTINUOUS
10
141.569
20
-105.025
11
141.581
21
-105.002
0
LINE
8
BLACK
6
CONTINUOUS
10
141.581
20
-105.002
11
141.625
21
-104.975
0
LINE
8
BLACK
6
CONTINUOUS
10
141.625
20
-104.975
11
141.676
21
-104.982
0
LINE
8
BLACK
6
CONTINUOUS
10
141.676
20
-104.982
11
141.71
21
-105.021
0
LINE
8
BLACK
6
CONTINUOUS
10
141.71
20
-105.021
11
141.711
21
-105.072
0
LINE
8
BLACK
6
CONTINUOUS
10
141.711
20
-105.072
11
141.378
21
-106.072
0
LINE
8
BLACK
6
CONTINUOUS
10
141.378
20
-106.072
11
141.366
21
-106.095
0
LINE
8
BLACK
6
CONTINUOUS
10
141.366
20
-106.095
11
141.364
21
-106.096
0
LINE
8
BLACK
6
CONTINUOUS
10
141.364
20
-106.096
11
141.363
21
-106.098
0
LINE
8
BLACK
6
CONTINUOUS
10
141.363
20
-106.098
11
141.342
21
-106.109
0
LINE
8
BLACK
6
CONTINUOUS
10
141.342
20
-106.109
11
141.322
21
-106.122
0
LINE
8
BLACK
6
CONTINUOUS
10
141.322
20
-106.122
11
141.32
21
-106.122
0
LINE
8
BLACK
6
CONTINUOUS
10
141.32
20
-106.122
11
141.318
21
-106.123
0
LINE
8
BLACK
6
CONTINUOUS
10
141.318
20
-106.123
11
141.295
21
-106.118
0
LINE
8
BLACK
6
CONTINUOUS
10
141.295
20
-106.118
11
141.271
21
-106.114
0
LINE
8
BLACK
6
CONTINUOUS
10
141.271
20
-106.114
11
141.27
21
-106.113
0
LINE
8
BLACK
6
CONTINUOUS
10
141.27
20
-106.113
11
141.268
21
-106.112
0
LINE
8
BLACK
6
CONTINUOUS
10
141.268
20
-106.112
11
141.253
21
-106.094
0
LINE
8
BLACK
6
CONTINUOUS
10
141.253
20
-106.094
11
141.237
21
-106.076
0
LINE
8
BLACK
6
CONTINUOUS
10
141.237
20
-106.076
11
141.237
21
-106.074
0
LINE
8
BLACK
6
CONTINUOUS
10
141.237
20
-106.074
11
141.236
21
-106.072
0
LINE
8
BLACK
6
CONTINUOUS
10
141.236
20
-106.072
11
140.902
21
-105.072
0
LINE
8
BLACK
6
CONTINUOUS
10
140.902
20
-105.072
11
140.898
21
-105.046
0
LINE
8
BLACK
6
CONTINUOUS
10
140.898
20
-105.046
11
140.917
21
-104.999
0
LINE
8
BLACK
6
CONTINUOUS
10
140.917
20
-104.999
11
140.962
21
-104.974
0
LINE
8
BLACK
6
CONTINUOUS
10
140.962
20
-104.974
11
141.013
21
-104.985
0
LINE
8
BLACK
6
CONTINUOUS
10
136.713
20
-104.978
11
136.717
21
-104.981
0
LINE
8
BLACK
6
CONTINUOUS
10
136.717
20
-104.981
11
136.721
21
-104.981
0
LINE
8
BLACK
6
CONTINUOUS
10
136.721
20
-104.981
11
136.817
21
-105.029
0
LINE
8
BLACK
6
CONTINUOUS
10
136.817
20
-105.029
11
136.835
21
-105.042
0
LINE
8
BLACK
6
CONTINUOUS
10
136.835
20
-105.042
11
136.836
21
-105.043
0
LINE
8
BLACK
6
CONTINUOUS
10
136.836
20
-105.043
11
136.884
21
-105.091
0
LINE
8
BLACK
6
CONTINUOUS
10
136.884
20
-105.091
11
136.896
21
-105.109
0
LINE
8
BLACK
6
CONTINUOUS
10
136.896
20
-105.109
11
136.898
21
-105.11
0
LINE
8
BLACK
6
CONTINUOUS
10
136.898
20
-105.11
11
136.945
21
-105.205
0
LINE
8
BLACK
6
CONTINUOUS
10
136.945
20
-105.205
11
136.953
21
-105.23
0
LINE
8
BLACK
6
CONTINUOUS
10
136.953
20
-105.23
11
136.952
21
-105.235
0
LINE
8
BLACK
6
CONTINUOUS
10
136.952
20
-105.235
11
136.953
21
-105.239
0
LINE
8
BLACK
6
CONTINUOUS
10
136.953
20
-105.239
11
136.953
21
-105.382
0
LINE
8
BLACK
6
CONTINUOUS
10
136.953
20
-105.382
11
136.949
21
-105.407
0
LINE
8
BLACK
6
CONTINUOUS
10
136.949
20
-105.407
11
136.946
21
-105.411
0
LINE
8
BLACK
6
CONTINUOUS
10
136.946
20
-105.411
11
136.945
21
-105.415
0
LINE
8
BLACK
6
CONTINUOUS
10
136.945
20
-105.415
11
136.898
21
-105.511
0
LINE
8
BLACK
6
CONTINUOUS
10
136.898
20
-105.511
11
136.884
21
-105.529
0
LINE
8
BLACK
6
CONTINUOUS
10
136.884
20
-105.529
11
136.884
21
-105.53
0
LINE
8
BLACK
6
CONTINUOUS
10
136.884
20
-105.53
11
136.836
21
-105.578
0
LINE
8
BLACK
6
CONTINUOUS
10
136.836
20
-105.578
11
136.818
21
-105.591
0
LINE
8
BLACK
6
CONTINUOUS
10
136.818
20
-105.591
11
136.817
21
-105.592
0
LINE
8
BLACK
6
CONTINUOUS
10
136.817
20
-105.592
11
136.721
21
-105.639
0
LINE
8
BLACK
6
CONTINUOUS
10
136.721
20
-105.639
11
136.696
21
-105.647
0
LINE
8
BLACK
6
CONTINUOUS
10
136.696
20
-105.647
11
136.692
21
-105.646
0
LINE
8
BLACK
6
CONTINUOUS
10
136.692
20
-105.646
11
136.689
21
-105.647
0
LINE
8
BLACK
6
CONTINUOUS
10
136.689
20
-105.647
11
136.94
21
-106.005
0
LINE
8
BLACK
6
CONTINUOUS
10
136.94
20
-106.005
11
136.951
21
-106.029
0
LINE
8
BLACK
6
CONTINUOUS
10
136.951
20
-106.029
11
136.946
21
-106.08
0
LINE
8
BLACK
6
CONTINUOUS
10
136.946
20
-106.08
11
136.91
21
-106.116
0
LINE
8
BLACK
6
CONTINUOUS
10
136.91
20
-106.116
11
136.859
21
-106.121
0
LINE
8
BLACK
6
CONTINUOUS
10
136.859
20
-106.121
11
136.817
21
-106.091
0
LINE
8
BLACK
6
CONTINUOUS
10
136.817
20
-106.091
11
136.506
21
-105.647
0
LINE
8
BLACK
6
CONTINUOUS
10
136.506
20
-105.647
11
136.382
21
-105.647
0
LINE
8
BLACK
6
CONTINUOUS
10
136.382
20
-105.647
11
136.382
21
-106.048
0
LINE
8
BLACK
6
CONTINUOUS
10
136.382
20
-106.048
11
136.377
21
-106.074
0
LINE
8
BLACK
6
CONTINUOUS
10
136.377
20
-106.074
11
136.344
21
-106.113
0
LINE
8
BLACK
6
CONTINUOUS
10
136.344
20
-106.113
11
136.294
21
-106.122
0
LINE
8
BLACK
6
CONTINUOUS
10
136.294
20
-106.122
11
136.249
21
-106.097
0
LINE
8
BLACK
6
CONTINUOUS
10
136.249
20
-106.097
11
136.232
21
-106.048
0
LINE
8
BLACK
6
CONTINUOUS
10
136.232
20
-106.048
11
136.232
21
-105.048
0
LINE
8
BLACK
6
CONTINUOUS
10
136.232
20
-105.048
11
136.233
21
-105.039
0
LINE
8
BLACK
6
CONTINUOUS
10
136.233
20
-105.039
11
136.233
21
-105.035
0
LINE
8
BLACK
6
CONTINUOUS
10
136.233
20
-105.035
11
136.235
21
-105.033
0
LINE
8
BLACK
6
CONTINUOUS
10
136.235
20
-105.033
11
136.236
21
-105.023
0
LINE
8
BLACK
6
CONTINUOUS
10
136.236
20
-105.023
11
136.249
21
-105.008
0
LINE
8
BLACK
6
CONTINUOUS
10
136.249
20
-105.008
11
136.259
21
-104.991
0
LINE
8
BLACK
6
CONTINUOUS
10
136.259
20
-104.991
11
136.265
21
-104.989
0
LINE
8
BLACK
6
CONTINUOUS
10
136.265
20
-104.989
11
136.269
21
-104.983
0
LINE
8
BLACK
6
CONTINUOUS
10
136.269
20
-104.983
11
136.288
21
-104.98
0
LINE
8
BLACK
6
CONTINUOUS
10
136.288
20
-104.98
11
136.307
21
-104.973
0
LINE
8
BLACK
6
CONTINUOUS
10
136.307
20
-104.973
11
136.688
21
-104.973
0
LINE
8
BLACK
6
CONTINUOUS
10
136.688
20
-104.973
11
136.713
21
-104.978
0
LINE
8
BLACK
6
CONTINUOUS
10
136.382
20
-105.497
11
136.67
21
-105.497
0
LINE
8
BLACK
6
CONTINUOUS
10
136.67
20
-105.497
11
136.739
21
-105.463
0
LINE
8
BLACK
6
CONTINUOUS
10
136.739
20
-105.463
11
136.769
21
-105.433
0
LINE
8
BLACK
6
CONTINUOUS
10
136.769
20
-105.433
11
136.803
21
-105.364
0
LINE
8
BLACK
6
CONTINUOUS
10
136.803
20
-105.364
11
136.803
21
-105.257
0
LINE
8
BLACK
6
CONTINUOUS
10
136.803
20
-105.257
11
136.769
21
-105.188
0
LINE
8
BLACK
6
CONTINUOUS
10
136.769
20
-105.188
11
136.739
21
-105.158
0
LINE
8
BLACK
6
CONTINUOUS
10
136.739
20
-105.158
11
136.67
21
-105.123
0
LINE
8
BLACK
6
CONTINUOUS
10
136.67
20
-105.123
11
136.382
21
-105.123
0
LINE
8
BLACK
6
CONTINUOUS
10
136.382
20
-105.123
11
136.382
21
-105.497
0
LINE
8
BLACK
6
CONTINUOUS
10
140.698
20
-105
11
140.715
21
-105.048
0
LINE
8
BLACK
6
CONTINUOUS
10
140.715
20
-105.048
11
140.715
21
-106.048
0
LINE
8
BLACK
6
CONTINUOUS
10
140.715
20
-106.048
11
140.711
21
-106.074
0
LINE
8
BLACK
6
CONTINUOUS
10
140.711
20
-106.074
11
140.706
21
-106.079
0
LINE
8
BLACK
6
CONTINUOUS
10
140.706
20
-106.079
11
140.705
21
-106.086
0
LINE
8
BLACK
6
CONTINUOUS
10
140.705
20
-106.086
11
140.69
21
-106.099
0
LINE
8
BLACK
6
CONTINUOUS
10
140.69
20
-106.099
11
140.678
21
-106.113
0
LINE
8
BLACK
6
CONTINUOUS
10
140.678
20
-106.113
11
140.671
21
-106.115
0
LINE
8
BLACK
6
CONTINUOUS
10
140.671
20
-106.115
11
140.665
21
-106.119
0
LINE
8
BLACK
6
CONTINUOUS
10
140.665
20
-106.119
11
140.646
21
-106.119
0
LINE
8
BLACK
6
CONTINUOUS
10
140.646
20
-106.119
11
140.627
21
-106.122
0
LINE
8
BLACK
6
CONTINUOUS
10
140.627
20
-106.122
11
140.621
21
-106.119
0
LINE
8
BLACK
6
CONTINUOUS
10
140.621
20
-106.119
11
140.614
21
-106.119
0
LINE
8
BLACK
6
CONTINUOUS
10
140.614
20
-106.119
11
140.599
21
-106.106
0
LINE
8
BLACK
6
CONTINUOUS
10
140.599
20
-106.106
11
140.583
21
-106.097
0
LINE
8
BLACK
6
CONTINUOUS
10
140.583
20
-106.097
11
140.58
21
-106.09
0
LINE
8
BLACK
6
CONTINUOUS
10
140.58
20
-106.09
11
140.575
21
-106.086
0
LINE
8
BLACK
6
CONTINUOUS
10
140.575
20
-106.086
11
140.144
21
-105.331
0
LINE
8
BLACK
6
CONTINUOUS
10
140.144
20
-105.331
11
140.144
21
-106.048
0
LINE
8
BLACK
6
CONTINUOUS
10
140.144
20
-106.048
11
140.139
21
-106.074
0
LINE
8
BLACK
6
CONTINUOUS
10
140.139
20
-106.074
11
140.106
21
-106.113
0
LINE
8
BLACK
6
CONTINUOUS
10
140.106
20
-106.113
11
140.056
21
-106.122
0
LINE
8
BLACK
6
CONTINUOUS
10
140.056
20
-106.122
11
140.011
21
-106.097
0
LINE
8
BLACK
6
CONTINUOUS
10
140.011
20
-106.097
11
139.994
21
-106.048
0
LINE
8
BLACK
6
CONTINUOUS
10
139.994
20
-106.048
11
139.994
21
-105.048
0
LINE
8
BLACK
6
CONTINUOUS
10
139.994
20
-105.048
11
139.998
21
-105.023
0
LINE
8
BLACK
6
CONTINUOUS
10
139.998
20
-105.023
11
140.003
21
-105.017
0
LINE
8
BLACK
6
CONTINUOUS
10
140.003
20
-105.017
11
140.004
21
-105.011
0
LINE
8
BLACK
6
CONTINUOUS
10
140.004
20
-105.011
11
140.019
21
-104.998
0
LINE
8
BLACK
6
CONTINUOUS
10
140.019
20
-104.998
11
140.031
21
-104.983
0
LINE
8
BLACK
6
CONTINUOUS
10
140.031
20
-104.983
11
140.038
21
-104.982
0
LINE
8
BLACK
6
CONTINUOUS
10
140.038
20
-104.982
11
140.043
21
-104.978
0
LINE
8
BLACK
6
CONTINUOUS
10
140.043
20
-104.978
11
140.063
21
-104.978
0
LINE
8
BLACK
6
CONTINUOUS
10
140.063
20
-104.978
11
140.082
21
-104.975
0
LINE
8
BLACK
6
CONTINUOUS
10
140.082
20
-104.975
11
140.088
21
-104.978
0
LINE
8
BLACK
6
CONTINUOUS
10
140.088
20
-104.978
11
140.095
21
-104.978
0
LINE
8
BLACK
6
CONTINUOUS
10
140.095
20
-104.978
11
140.109
21
-104.991
0
LINE
8
BLACK
6
CONTINUOUS
10
140.109
20
-104.991
11
140.126
21
-105
0
LINE
8
BLACK
6
CONTINUOUS
10
140.126
20
-105
11
140.129
21
-105.007
0
LINE
8
BLACK
6
CONTINUOUS
10
140.129
20
-105.007
11
140.134
21
-105.011
0
LINE
8
BLACK
6
CONTINUOUS
10
140.134
20
-105.011
11
140.565
21
-105.766
0
LINE
8
BLACK
6
CONTINUOUS
10
140.565
20
-105.766
11
140.565
21
-105.048
0
LINE
8
BLACK
6
CONTINUOUS
10
140.565
20
-105.048
11
140.57
21
-105.023
0
LINE
8
BLACK
6
CONTINUOUS
10
140.57
20
-105.023
11
140.603
21
-104.983
0
LINE
8
BLACK
6
CONTINUOUS
10
140.603
20
-104.983
11
140.653
21
-104.975
0
LINE
8
BLACK
6
CONTINUOUS
10
140.653
20
-104.975
11
140.698
21
-105
0
LINE
8
BLACK
6
CONTINUOUS
10
168.085
20
-94.6943
11
168.1
21
-94.7296
0
LINE
8
BLACK
6
CONTINUOUS
10
168.1
20
-94.7296
11
168.1
21
-96.8296
0
LINE
8
BLACK
6
CONTINUOUS
10
168.1
20
-96.8296
11
168.085
21
-96.865
0
LINE
8
BLACK
6
CONTINUOUS
10
168.085
20
-96.865
11
168.05
21
-96.8796
0
LINE
8
BLACK
6
CONTINUOUS
10
168.05
20
-96.8796
11
167.16
21
-96.8796
0
LINE
8
BLACK
6
CONTINUOUS
10
167.16
20
-96.8796
11
167.16
21
-105.53
0
LINE
8
BLACK
6
CONTINUOUS
10
167.16
20
-105.53
11
167.145
21
-105.565
0
LINE
8
BLACK
6
CONTINUOUS
10
167.145
20
-105.565
11
167.11
21
-105.58
0
LINE
8
BLACK
6
CONTINUOUS
10
167.11
20
-105.58
11
167.075
21
-105.565
0
LINE
8
BLACK
6
CONTINUOUS
10
167.075
20
-105.565
11
167.06
21
-105.53
0
LINE
8
BLACK
6
CONTINUOUS
10
167.06
20
-105.53
11
167.06
21
-96.8296
0
LINE
8
BLACK
6
CONTINUOUS
10
167.06
20
-96.8296
11
167.075
21
-96.7943
0
LINE
8
BLACK
6
CONTINUOUS
10
167.075
20
-96.7943
11
167.11
21
-96.7796
0
LINE
8
BLACK
6
CONTINUOUS
10
167.11
20
-96.7796
11
168
21
-96.7796
0
LINE
8
BLACK
6
CONTINUOUS
10
168
20
-96.7796
11
168
21
-94.7296
0
LINE
8
BLACK
6
CONTINUOUS
10
168
20
-94.7296
11
168.015
21
-94.6943
0
LINE
8
BLACK
6
CONTINUOUS
10
168.015
20
-94.6943
11
168.05
21
-94.6796
0
LINE
8
BLACK
6
CONTINUOUS
10
168.05
20
-94.6796
11
168.085
21
-94.6943
0
LINE
8
BLACK
6
CONTINUOUS
10
149.48
20
-104.701
11
149.498
21
-104.744
0
LINE
8
BLACK
6
CONTINUOUS
10
149.498
20
-104.744
11
149.498
21
-105.253
0
LINE
8
BLACK
6
CONTINUOUS
10
149.498
20
-105.253
11
149.48
21
-105.296
0
LINE
8
BLACK
6
CONTINUOUS
10
149.48
20
-105.296
11
149.438
21
-105.313
0
LINE
8
BLACK
6
CONTINUOUS
10
149.438
20
-105.313
11
149.395
21
-105.296
0
LINE
8
BLACK
6
CONTINUOUS
10
149.395
20
-105.296
11
149.377
21
-105.253
0
LINE
8
BLACK
6
CONTINUOUS
10
149.377
20
-105.253
11
149.377
21
-104.744
0
LINE
8
BLACK
6
CONTINUOUS
10
149.377
20
-104.744
11
149.395
21
-104.701
0
LINE
8
BLACK
6
CONTINUOUS
10
149.395
20
-104.701
11
149.438
21
-104.684
0
LINE
8
BLACK
6
CONTINUOUS
10
149.438
20
-104.684
11
149.48
21
-104.701
0
LINE
8
BLACK
6
CONTINUOUS
10
150.525
20
-104.701
11
150.542
21
-104.744
0
LINE
8
BLACK
6
CONTINUOUS
10
150.542
20
-104.744
11
150.542
21
-105.253
0
LINE
8
BLACK
6
CONTINUOUS
10
150.542
20
-105.253
11
150.525
21
-105.296
0
LINE
8
BLACK
6
CONTINUOUS
10
150.525
20
-105.296
11
150.482
21
-105.313
0
LINE
8
BLACK
6
CONTINUOUS
10
150.482
20
-105.313
11
150.44
21
-105.296
0
LINE
8
BLACK
6
CONTINUOUS
10
150.44
20
-105.296
11
150.422
21
-105.253
0
LINE
8
BLACK
6
CONTINUOUS
10
150.422
20
-105.253
11
150.422
21
-104.744
0
LINE
8
BLACK
6
CONTINUOUS
10
150.422
20
-104.744
11
150.44
21
-104.701
0
LINE
8
BLACK
6
CONTINUOUS
10
150.44
20
-104.701
11
150.482
21
-104.684
0
LINE
8
BLACK
6
CONTINUOUS
10
150.482
20
-104.684
11
150.525
21
-104.701
0
LINE
8
BLACK
6
CONTINUOUS
10
141.094
20
-103.368
11
141.134
21
-103.401
0
LINE
8
BLACK
6
CONTINUOUS
10
141.134
20
-103.401
11
141.143
21
-103.451
0
LINE
8
BLACK
6
CONTINUOUS
10
141.143
20
-103.451
11
141.117
21
-103.496
0
LINE
8
BLACK
6
CONTINUOUS
10
141.117
20
-103.496
11
141.069
21
-103.513
0
LINE
8
BLACK
6
CONTINUOUS
10
141.069
20
-103.513
11
140.667
21
-103.513
0
LINE
8
BLACK
6
CONTINUOUS
10
140.667
20
-103.513
11
140.667
21
-103.84
0
LINE
8
BLACK
6
CONTINUOUS
10
140.667
20
-103.84
11
140.926
21
-103.84
0
LINE
8
BLACK
6
CONTINUOUS
10
140.926
20
-103.84
11
140.951
21
-103.844
0
LINE
8
BLACK
6
CONTINUOUS
10
140.951
20
-103.844
11
140.991
21
-103.877
0
LINE
8
BLACK
6
CONTINUOUS
10
140.991
20
-103.877
11
141
21
-103.928
0
LINE
8
BLACK
6
CONTINUOUS
10
141
20
-103.928
11
140.974
21
-103.972
0
LINE
8
BLACK
6
CONTINUOUS
10
140.974
20
-103.972
11
140.926
21
-103.99
0
LINE
8
BLACK
6
CONTINUOUS
10
140.926
20
-103.99
11
140.667
21
-103.99
0
LINE
8
BLACK
6
CONTINUOUS
10
140.667
20
-103.99
11
140.667
21
-104.363
0
LINE
8
BLACK
6
CONTINUOUS
10
140.667
20
-104.363
11
141.069
21
-104.363
0
LINE
8
BLACK
6
CONTINUOUS
10
141.069
20
-104.363
11
141.094
21
-104.368
0
LINE
8
BLACK
6
CONTINUOUS
10
141.094
20
-104.368
11
141.134
21
-104.401
0
LINE
8
BLACK
6
CONTINUOUS
10
141.134
20
-104.401
11
141.143
21
-104.451
0
LINE
8
BLACK
6
CONTINUOUS
10
141.143
20
-104.451
11
141.117
21
-104.496
0
LINE
8
BLACK
6
CONTINUOUS
10
141.117
20
-104.496
11
141.069
21
-104.513
0
LINE
8
BLACK
6
CONTINUOUS
10
141.069
20
-104.513
11
140.592
21
-104.513
0
LINE
8
BLACK
6
CONTINUOUS
10
140.592
20
-104.513
11
140.583
21
-104.512
0
LINE
8
BLACK
6
CONTINUOUS
10
140.583
20
-104.512
11
140.579
21
-104.512
0
LINE
8
BLACK
6
CONTINUOUS
10
140.579
20
-104.512
11
140.577
21
-104.511
0
LINE
8
BLACK
6
CONTINUOUS
10
140.577
20
-104.511
11
140.567
21
-104.509
0
LINE
8
BLACK
6
CONTINUOUS
10
140.567
20
-104.509
11
140.552
21
-104.496
0
LINE
8
BLACK
6
CONTINUOUS
10
140.552
20
-104.496
11
140.535
21
-104.487
0
LINE
8
BLACK
6
CONTINUOUS
10
140.535
20
-104.487
11
140.533
21
-104.48
0
LINE
8
BLACK
6
CONTINUOUS
10
140.533
20
-104.48
11
140.528
21
-104.476
0
LINE
8
BLACK
6
CONTINUOUS
10
140.528
20
-104.476
11
140.524
21
-104.457
0
LINE
8
BLACK
6
CONTINUOUS
10
140.524
20
-104.457
11
140.517
21
-104.438
0
LINE
8
BLACK
6
CONTINUOUS
10
140.517
20
-104.438
11
140.517
21
-103.438
0
LINE
8
BLACK
6
CONTINUOUS
10
140.517
20
-103.438
11
140.519
21
-103.429
0
LINE
8
BLACK
6
CONTINUOUS
10
140.519
20
-103.429
11
140.519
21
-103.425
0
LINE
8
BLACK
6
CONTINUOUS
10
140.519
20
-103.425
11
140.52
21
-103.423
0
LINE
8
BLACK
6
CONTINUOUS
10
140.52
20
-103.423
11
140.522
21
-103.413
0
LINE
8
BLACK
6
CONTINUOUS
10
140.522
20
-103.413
11
140.535
21
-103.398
0
LINE
8
BLACK
6
CONTINUOUS
10
140.535
20
-103.398
11
140.544
21
-103.381
0
LINE
8
BLACK
6
CONTINUOUS
10
140.544
20
-103.381
11
140.551
21
-103.379
0
LINE
8
BLACK
6
CONTINUOUS
10
140.551
20
-103.379
11
140.555
21
-103.373
0
LINE
8
BLACK
6
CONTINUOUS
10
140.555
20
-103.373
11
140.574
21
-103.37
0
LINE
8
BLACK
6
CONTINUOUS
10
140.574
20
-103.37
11
140.592
21
-103.363
0
LINE
8
BLACK
6
CONTINUOUS
10
140.592
20
-103.363
11
141.069
21
-103.363
0
LINE
8
BLACK
6
CONTINUOUS
10
141.069
20
-103.363
11
141.094
21
-103.368
0
LINE
8
BLACK
6
CONTINUOUS
10
141.757
20
-103.367
11
141.759
21
-103.367
0
LINE
8
BLACK
6
CONTINUOUS
10
141.759
20
-103.367
11
141.902
21
-103.415
0
LINE
8
BLACK
6
CONTINUOUS
10
141.902
20
-103.415
11
141.925
21
-103.427
0
LINE
8
BLACK
6
CONTINUOUS
10
141.925
20
-103.427
11
141.927
21
-103.431
0
LINE
8
BLACK
6
CONTINUOUS
10
141.927
20
-103.431
11
141.931
21
-103.433
0
LINE
8
BLACK
6
CONTINUOUS
10
141.931
20
-103.433
11
142.026
21
-103.528
0
LINE
8
BLACK
6
CONTINUOUS
10
142.026
20
-103.528
11
142.039
21
-103.547
0
LINE
8
BLACK
6
CONTINUOUS
10
142.039
20
-103.547
11
142.041
21
-103.548
0
LINE
8
BLACK
6
CONTINUOUS
10
142.041
20
-103.548
11
142.088
21
-103.643
0
LINE
8
BLACK
6
CONTINUOUS
10
142.088
20
-103.643
11
142.092
21
-103.655
0
LINE
8
BLACK
6
CONTINUOUS
10
142.092
20
-103.655
11
142.094
21
-103.658
0
LINE
8
BLACK
6
CONTINUOUS
10
142.094
20
-103.658
11
142.141
21
-103.849
0
LINE
8
BLACK
6
CONTINUOUS
10
142.141
20
-103.849
11
142.142
21
-103.864
0
LINE
8
BLACK
6
CONTINUOUS
10
142.142
20
-103.864
11
142.144
21
-103.867
0
LINE
8
BLACK
6
CONTINUOUS
10
142.144
20
-103.867
11
142.144
21
-104.01
0
LINE
8
BLACK
6
CONTINUOUS
10
142.144
20
-104.01
11
142.141
21
-104.025
0
LINE
8
BLACK
6
CONTINUOUS
10
142.141
20
-104.025
11
142.141
21
-104.028
0
LINE
8
BLACK
6
CONTINUOUS
10
142.141
20
-104.028
11
142.094
21
-104.219
0
LINE
8
BLACK
6
CONTINUOUS
10
142.094
20
-104.219
11
142.089
21
-104.23
0
LINE
8
BLACK
6
CONTINUOUS
10
142.089
20
-104.23
11
142.088
21
-104.234
0
LINE
8
BLACK
6
CONTINUOUS
10
142.088
20
-104.234
11
142.041
21
-104.329
0
LINE
8
BLACK
6
CONTINUOUS
10
142.041
20
-104.329
11
142.027
21
-104.347
0
LINE
8
BLACK
6
CONTINUOUS
10
142.027
20
-104.347
11
142.026
21
-104.349
0
LINE
8
BLACK
6
CONTINUOUS
10
142.026
20
-104.349
11
141.931
21
-104.444
0
LINE
8
BLACK
6
CONTINUOUS
10
141.931
20
-104.444
11
141.91
21
-104.459
0
LINE
8
BLACK
6
CONTINUOUS
10
141.91
20
-104.459
11
141.905
21
-104.459
0
LINE
8
BLACK
6
CONTINUOUS
10
141.905
20
-104.459
11
141.902
21
-104.462
0
LINE
8
BLACK
6
CONTINUOUS
10
141.902
20
-104.462
11
141.759
21
-104.51
0
LINE
8
BLACK
6
CONTINUOUS
10
141.759
20
-104.51
11
141.737
21
-104.513
0
LINE
8
BLACK
6
CONTINUOUS
10
141.737
20
-104.513
11
141.735
21
-104.513
0
LINE
8
BLACK
6
CONTINUOUS
10
141.735
20
-104.513
11
141.497
21
-104.513
0
LINE
8
BLACK
6
CONTINUOUS
10
141.497
20
-104.513
11
141.488
21
-104.512
0
LINE
8
BLACK
6
CONTINUOUS
10
141.488
20
-104.512
11
141.484
21
-104.512
0
LINE
8
BLACK
6
CONTINUOUS
10
141.484
20
-104.512
11
141.481
21
-104.511
0
LINE
8
BLACK
6
CONTINUOUS
10
141.481
20
-104.511
11
141.472
21
-104.509
0
LINE
8
BLACK
6
CONTINUOUS
10
141.472
20
-104.509
11
141.457
21
-104.496
0
LINE
8
BLACK
6
CONTINUOUS
10
141.457
20
-104.496
11
141.44
21
-104.487
0
LINE
8
BLACK
6
CONTINUOUS
10
141.44
20
-104.487
11
141.437
21
-104.48
0
LINE
8
BLACK
6
CONTINUOUS
10
141.437
20
-104.48
11
141.432
21
-104.476
0
LINE
8
BLACK
6
CONTINUOUS
10
141.432
20
-104.476
11
141.429
21
-104.457
0
LINE
8
BLACK
6
CONTINUOUS
10
141.429
20
-104.457
11
141.422
21
-104.438
0
LINE
8
BLACK
6
CONTINUOUS
10
141.422
20
-104.438
11
141.422
21
-103.438
0
LINE
8
BLACK
6
CONTINUOUS
10
141.422
20
-103.438
11
141.424
21
-103.429
0
LINE
8
BLACK
6
CONTINUOUS
10
141.424
20
-103.429
11
141.423
21
-103.425
0
LINE
8
BLACK
6
CONTINUOUS
10
141.423
20
-103.425
11
141.425
21
-103.423
0
LINE
8
BLACK
6
CONTINUOUS
10
141.425
20
-103.423
11
141.427
21
-103.413
0
LINE
8
BLACK
6
CONTINUOUS
10
141.427
20
-103.413
11
141.439
21
-103.398
0
LINE
8
BLACK
6
CONTINUOUS
10
141.439
20
-103.398
11
141.449
21
-103.381
0
LINE
8
BLACK
6
CONTINUOUS
10
141.449
20
-103.381
11
141.455
21
-103.379
0
LINE
8
BLACK
6
CONTINUOUS
10
141.455
20
-103.379
11
141.46
21
-103.373
0
LINE
8
BLACK
6
CONTINUOUS
10
141.46
20
-103.373
11
141.479
21
-103.37
0
LINE
8
BLACK
6
CONTINUOUS
10
141.479
20
-103.37
11
141.497
21
-103.363
0
LINE
8
BLACK
6
CONTINUOUS
10
141.497
20
-103.363
11
141.735
21
-103.363
0
LINE
8
BLACK
6
CONTINUOUS
10
141.735
20
-103.363
11
141.757
21
-103.367
0
LINE
8
BLACK
6
CONTINUOUS
10
141.572
20
-104.363
11
141.723
21
-104.363
0
LINE
8
BLACK
6
CONTINUOUS
10
141.723
20
-104.363
11
141.838
21
-104.325
0
LINE
8
BLACK
6
CONTINUOUS
10
141.838
20
-104.325
11
141.912
21
-104.251
0
LINE
8
BLACK
6
CONTINUOUS
10
141.912
20
-104.251
11
141.95
21
-104.174
0
LINE
8
BLACK
6
CONTINUOUS
10
141.95
20
-104.174
11
141.994
21
-104.001
0
LINE
8
BLACK
6
CONTINUOUS
10
141.994
20
-104.001
11
141.994
21
-103.876
0
LINE
8
BLACK
6
CONTINUOUS
10
141.994
20
-103.876
11
141.95
21
-103.703
0
LINE
8
BLACK
6
CONTINUOUS
10
141.95
20
-103.703
11
141.912
21
-103.626
0
LINE
8
BLACK
6
CONTINUOUS
10
141.912
20
-103.626
11
141.838
21
-103.552
0
LINE
8
BLACK
6
CONTINUOUS
10
141.838
20
-103.552
11
141.723
21
-103.513
0
LINE
8
BLACK
6
CONTINUOUS
10
141.723
20
-103.513
11
141.572
21
-103.513
0
LINE
8
BLACK
6
CONTINUOUS
10
141.572
20
-103.513
11
141.572
21
-104.363
0
LINE
8
BLACK
6
CONTINUOUS
10
144.65
20
-103.39
11
144.667
21
-103.438
0
LINE
8
BLACK
6
CONTINUOUS
10
144.667
20
-103.438
11
144.667
21
-104.363
0
LINE
8
BLACK
6
CONTINUOUS
10
144.667
20
-104.363
11
145.069
21
-104.363
0
LINE
8
BLACK
6
CONTINUOUS
10
145.069
20
-104.363
11
145.094
21
-104.368
0
LINE
8
BLACK
6
CONTINUOUS
10
145.094
20
-104.368
11
145.134
21
-104.401
0
LINE
8
BLACK
6
CONTINUOUS
10
145.134
20
-104.401
11
145.143
21
-104.451
0
LINE
8
BLACK
6
CONTINUOUS
10
145.143
20
-104.451
11
145.117
21
-104.496
0
LINE
8
BLACK
6
CONTINUOUS
10
145.117
20
-104.496
11
145.069
21
-104.513
0
LINE
8
BLACK
6
CONTINUOUS
10
145.069
20
-104.513
11
144.592
21
-104.513
0
LINE
8
BLACK
6
CONTINUOUS
10
144.592
20
-104.513
11
144.583
21
-104.512
0
LINE
8
BLACK
6
CONTINUOUS
10
144.583
20
-104.512
11
144.579
21
-104.512
0
LINE
8
BLACK
6
CONTINUOUS
10
144.579
20
-104.512
11
144.577
21
-104.511
0
LINE
8
BLACK
6
CONTINUOUS
10
144.577
20
-104.511
11
144.567
21
-104.509
0
LINE
8
BLACK
6
CONTINUOUS
10
144.567
20
-104.509
11
144.552
21
-104.496
0
LINE
8
BLACK
6
CONTINUOUS
10
144.552
20
-104.496
11
144.535
21
-104.487
0
LINE
8
BLACK
6
CONTINUOUS
10
144.535
20
-104.487
11
144.533
21
-104.48
0
LINE
8
BLACK
6
CONTINUOUS
10
144.533
20
-104.48
11
144.528
21
-104.476
0
LINE
8
BLACK
6
CONTINUOUS
10
144.528
20
-104.476
11
144.524
21
-104.457
0
LINE
8
BLACK
6
CONTINUOUS
10
144.524
20
-104.457
11
144.517
21
-104.438
0
LINE
8
BLACK
6
CONTINUOUS
10
144.517
20
-104.438
11
144.517
21
-103.438
0
LINE
8
BLACK
6
CONTINUOUS
10
144.517
20
-103.438
11
144.522
21
-103.413
0
LINE
8
BLACK
6
CONTINUOUS
10
144.522
20
-103.413
11
144.555
21
-103.373
0
LINE
8
BLACK
6
CONTINUOUS
10
144.555
20
-103.373
11
144.606
21
-103.365
0
LINE
8
BLACK
6
CONTINUOUS
10
144.606
20
-103.365
11
144.65
21
-103.39
0
LINE
8
BLACK
6
CONTINUOUS
10
146.618
20
-103.368
11
146.622
21
-103.371
0
LINE
8
BLACK
6
CONTINUOUS
10
146.622
20
-103.371
11
146.626
21
-103.371
0
LINE
8
BLACK
6
CONTINUOUS
10
146.626
20
-103.371
11
146.721
21
-103.419
0
LINE
8
BLACK
6
CONTINUOUS
10
146.721
20
-103.419
11
146.739
21
-103.432
0
LINE
8
BLACK
6
CONTINUOUS
10
146.739
20
-103.432
11
146.741
21
-103.433
0
LINE
8
BLACK
6
CONTINUOUS
10
146.741
20
-103.433
11
146.788
21
-103.481
0
LINE
8
BLACK
6
CONTINUOUS
10
146.788
20
-103.481
11
146.801
21
-103.499
0
LINE
8
BLACK
6
CONTINUOUS
10
146.801
20
-103.499
11
146.802
21
-103.5
0
LINE
8
BLACK
6
CONTINUOUS
10
146.802
20
-103.5
11
146.85
21
-103.595
0
LINE
8
BLACK
6
CONTINUOUS
10
146.85
20
-103.595
11
146.857
21
-103.62
0
LINE
8
BLACK
6
CONTINUOUS
10
146.857
20
-103.62
11
146.856
21
-103.625
0
LINE
8
BLACK
6
CONTINUOUS
10
146.856
20
-103.625
11
146.858
21
-103.629
0
LINE
8
BLACK
6
CONTINUOUS
10
146.858
20
-103.629
11
146.858
21
-103.724
0
LINE
8
BLACK
6
CONTINUOUS
10
146.858
20
-103.724
11
146.853
21
-103.75
0
LINE
8
BLACK
6
CONTINUOUS
10
146.853
20
-103.75
11
146.851
21
-103.753
0
LINE
8
BLACK
6
CONTINUOUS
10
146.851
20
-103.753
11
146.85
21
-103.758
0
LINE
8
BLACK
6
CONTINUOUS
10
146.85
20
-103.758
11
146.802
21
-103.853
0
LINE
8
BLACK
6
CONTINUOUS
10
146.802
20
-103.853
11
146.789
21
-103.871
0
LINE
8
BLACK
6
CONTINUOUS
10
146.789
20
-103.871
11
146.788
21
-103.872
0
LINE
8
BLACK
6
CONTINUOUS
10
146.788
20
-103.872
11
146.766
21
-103.895
0
LINE
8
BLACK
6
CONTINUOUS
10
146.766
20
-103.895
11
146.782
21
-103.903
0
LINE
8
BLACK
6
CONTINUOUS
10
146.782
20
-103.903
11
146.784
21
-103.907
0
LINE
8
BLACK
6
CONTINUOUS
10
146.784
20
-103.907
11
146.788
21
-103.909
0
LINE
8
BLACK
6
CONTINUOUS
10
146.788
20
-103.909
11
146.836
21
-103.957
0
LINE
8
BLACK
6
CONTINUOUS
10
146.836
20
-103.957
11
146.849
21
-103.975
0
LINE
8
BLACK
6
CONTINUOUS
10
146.849
20
-103.975
11
146.85
21
-103.976
0
LINE
8
BLACK
6
CONTINUOUS
10
146.85
20
-103.976
11
146.898
21
-104.072
0
LINE
8
BLACK
6
CONTINUOUS
10
146.898
20
-104.072
11
146.905
21
-104.097
0
LINE
8
BLACK
6
CONTINUOUS
10
146.905
20
-104.097
11
146.904
21
-104.101
0
LINE
8
BLACK
6
CONTINUOUS
10
146.904
20
-104.101
11
146.906
21
-104.105
0
LINE
8
BLACK
6
CONTINUOUS
10
146.906
20
-104.105
11
146.906
21
-104.248
0
LINE
8
BLACK
6
CONTINUOUS
10
146.906
20
-104.248
11
146.901
21
-104.274
0
LINE
8
BLACK
6
CONTINUOUS
10
146.901
20
-104.274
11
146.898
21
-104.277
0
LINE
8
BLACK
6
CONTINUOUS
10
146.898
20
-104.277
11
146.898
21
-104.282
0
LINE
8
BLACK
6
CONTINUOUS
10
146.898
20
-104.282
11
146.85
21
-104.377
0
LINE
8
BLACK
6
CONTINUOUS
10
146.85
20
-104.377
11
146.837
21
-104.395
0
LINE
8
BLACK
6
CONTINUOUS
10
146.837
20
-104.395
11
146.836
21
-104.396
0
LINE
8
BLACK
6
CONTINUOUS
10
146.836
20
-104.396
11
146.788
21
-104.444
0
LINE
8
BLACK
6
CONTINUOUS
10
146.788
20
-104.444
11
146.77
21
-104.457
0
LINE
8
BLACK
6
CONTINUOUS
10
146.77
20
-104.457
11
146.769
21
-104.458
0
LINE
8
BLACK
6
CONTINUOUS
10
146.769
20
-104.458
11
146.674
21
-104.506
0
LINE
8
BLACK
6
CONTINUOUS
10
146.674
20
-104.506
11
146.649
21
-104.513
0
LINE
8
BLACK
6
CONTINUOUS
10
146.649
20
-104.513
11
146.644
21
-104.512
0
LINE
8
BLACK
6
CONTINUOUS
10
146.644
20
-104.512
11
146.64
21
-104.513
0
LINE
8
BLACK
6
CONTINUOUS
10
146.64
20
-104.513
11
146.259
21
-104.513
0
LINE
8
BLACK
6
CONTINUOUS
10
146.259
20
-104.513
11
146.249
21
-104.512
0
LINE
8
BLACK
6
CONTINUOUS
10
146.249
20
-104.512
11
146.246
21
-104.512
0
LINE
8
BLACK
6
CONTINUOUS
10
146.246
20
-104.512
11
146.243
21
-104.511
0
LINE
8
BLACK
6
CONTINUOUS
10
146.243
20
-104.511
11
146.234
21
-104.509
0
LINE
8
BLACK
6
CONTINUOUS
10
146.234
20
-104.509
11
146.219
21
-104.496
0
LINE
8
BLACK
6
CONTINUOUS
10
146.219
20
-104.496
11
146.202
21
-104.487
0
LINE
8
BLACK
6
CONTINUOUS
10
146.202
20
-104.487
11
146.199
21
-104.48
0
LINE
8
BLACK
6
CONTINUOUS
10
146.199
20
-104.48
11
146.194
21
-104.476
0
LINE
8
BLACK
6
CONTINUOUS
10
146.194
20
-104.476
11
146.191
21
-104.457
0
LINE
8
BLACK
6
CONTINUOUS
10
146.191
20
-104.457
11
146.184
21
-104.438
0
LINE
8
BLACK
6
CONTINUOUS
10
146.184
20
-104.438
11
146.184
21
-103.438
0
LINE
8
BLACK
6
CONTINUOUS
10
146.184
20
-103.438
11
146.186
21
-103.429
0
LINE
8
BLACK
6
CONTINUOUS
10
146.186
20
-103.429
11
146.185
21
-103.425
0
LINE
8
BLACK
6
CONTINUOUS
10
146.185
20
-103.425
11
146.187
21
-103.423
0
LINE
8
BLACK
6
CONTINUOUS
10
146.187
20
-103.423
11
146.189
21
-103.413
0
LINE
8
BLACK
6
CONTINUOUS
10
146.189
20
-103.413
11
146.201
21
-103.398
0
LINE
8
BLACK
6
CONTINUOUS
10
146.201
20
-103.398
11
146.211
21
-103.381
0
LINE
8
BLACK
6
CONTINUOUS
10
146.211
20
-103.381
11
146.217
21
-103.379
0
LINE
8
BLACK
6
CONTINUOUS
10
146.217
20
-103.379
11
146.222
21
-103.373
0
LINE
8
BLACK
6
CONTINUOUS
10
146.222
20
-103.373
11
146.241
21
-103.37
0
LINE
8
BLACK
6
CONTINUOUS
10
146.241
20
-103.37
11
146.259
21
-103.363
0
LINE
8
BLACK
6
CONTINUOUS
10
146.259
20
-103.363
11
146.592
21
-103.363
0
LINE
8
BLACK
6
CONTINUOUS
10
146.592
20
-103.363
11
146.618
21
-103.368
0
LINE
8
BLACK
6
CONTINUOUS
10
146.334
20
-104.363
11
146.622
21
-104.363
0
LINE
8
BLACK
6
CONTINUOUS
10
146.622
20
-104.363
11
146.691
21
-104.329
0
LINE
8
BLACK
6
CONTINUOUS
10
146.691
20
-104.329
11
146.721
21
-104.299
0
LINE
8
BLACK
6
CONTINUOUS
10
146.721
20
-104.299
11
146.756
21
-104.23
0
LINE
8
BLACK
6
CONTINUOUS
10
146.756
20
-104.23
11
146.756
21
-104.123
0
LINE
8
BLACK
6
CONTINUOUS
10
146.756
20
-104.123
11
146.721
21
-104.054
0
LINE
8
BLACK
6
CONTINUOUS
10
146.721
20
-104.054
11
146.695
21
-104.028
0
LINE
8
BLACK
6
CONTINUOUS
10
146.695
20
-104.028
11
146.58
21
-103.99
0
LINE
8
BLACK
6
CONTINUOUS
10
146.58
20
-103.99
11
146.334
21
-103.99
0
LINE
8
BLACK
6
CONTINUOUS
10
146.334
20
-103.99
11
146.334
21
-104.363
0
LINE
8
BLACK
6
CONTINUOUS
10
146.334
20
-103.84
11
146.575
21
-103.84
0
LINE
8
BLACK
6
CONTINUOUS
10
146.575
20
-103.84
11
146.643
21
-103.805
0
LINE
8
BLACK
6
CONTINUOUS
10
146.643
20
-103.805
11
146.674
21
-103.775
0
LINE
8
BLACK
6
CONTINUOUS
10
146.674
20
-103.775
11
146.708
21
-103.706
0
LINE
8
BLACK
6
CONTINUOUS
10
146.708
20
-103.706
11
146.708
21
-103.647
0
LINE
8
BLACK
6
CONTINUOUS
10
146.708
20
-103.647
11
146.674
21
-103.578
0
LINE
8
BLACK
6
CONTINUOUS
10
146.674
20
-103.578
11
146.643
21
-103.548
0
LINE
8
BLACK
6
CONTINUOUS
10
146.643
20
-103.548
11
146.575
21
-103.513
0
LINE
8
BLACK
6
CONTINUOUS
10
146.575
20
-103.513
11
146.334
21
-103.513
0
LINE
8
BLACK
6
CONTINUOUS
10
146.334
20
-103.513
11
146.334
21
-103.84
0
LINE
8
BLACK
6
CONTINUOUS
10
143.176
20
-103.369
11
143.2
21
-103.372
0
LINE
8
BLACK
6
CONTINUOUS
10
143.2
20
-103.372
11
143.201
21
-103.374
0
LINE
8
BLACK
6
CONTINUOUS
10
143.201
20
-103.374
11
143.203
21
-103.375
0
LINE
8
BLACK
6
CONTINUOUS
10
143.203
20
-103.375
11
143.218
21
-103.393
0
LINE
8
BLACK
6
CONTINUOUS
10
143.218
20
-103.393
11
143.234
21
-103.411
0
LINE
8
BLACK
6
CONTINUOUS
10
143.234
20
-103.411
11
143.234
21
-103.413
0
LINE
8
BLACK
6
CONTINUOUS
10
143.234
20
-103.413
11
143.235
21
-103.415
0
LINE
8
BLACK
6
CONTINUOUS
10
143.235
20
-103.415
11
143.568
21
-104.415
0
LINE
8
BLACK
6
CONTINUOUS
10
143.568
20
-104.415
11
143.572
21
-104.44
0
LINE
8
BLACK
6
CONTINUOUS
10
143.572
20
-104.44
11
143.553
21
-104.488
0
LINE
8
BLACK
6
CONTINUOUS
10
143.553
20
-104.488
11
143.508
21
-104.513
0
LINE
8
BLACK
6
CONTINUOUS
10
143.508
20
-104.513
11
143.458
21
-104.502
0
LINE
8
BLACK
6
CONTINUOUS
10
143.458
20
-104.502
11
143.426
21
-104.462
0
LINE
8
BLACK
6
CONTINUOUS
10
143.426
20
-104.462
11
143.348
21
-104.228
0
LINE
8
BLACK
6
CONTINUOUS
10
143.348
20
-104.228
11
142.98
21
-104.228
0
LINE
8
BLACK
6
CONTINUOUS
10
142.98
20
-104.228
11
142.902
21
-104.462
0
LINE
8
BLACK
6
CONTINUOUS
10
142.902
20
-104.462
11
142.889
21
-104.485
0
LINE
8
BLACK
6
CONTINUOUS
10
142.889
20
-104.485
11
142.846
21
-104.512
0
LINE
8
BLACK
6
CONTINUOUS
10
142.846
20
-104.512
11
142.795
21
-104.504
0
LINE
8
BLACK
6
CONTINUOUS
10
142.795
20
-104.504
11
142.761
21
-104.466
0
LINE
8
BLACK
6
CONTINUOUS
10
142.761
20
-104.466
11
142.759
21
-104.415
0
LINE
8
BLACK
6
CONTINUOUS
10
142.759
20
-104.415
11
143.093
21
-103.415
0
LINE
8
BLACK
6
CONTINUOUS
10
143.093
20
-103.415
11
143.105
21
-103.392
0
LINE
8
BLACK
6
CONTINUOUS
10
143.105
20
-103.392
11
143.107
21
-103.391
0
LINE
8
BLACK
6
CONTINUOUS
10
143.107
20
-103.391
11
143.108
21
-103.389
0
LINE
8
BLACK
6
CONTINUOUS
10
143.108
20
-103.389
11
143.129
21
-103.377
0
LINE
8
BLACK
6
CONTINUOUS
10
143.129
20
-103.377
11
143.149
21
-103.365
0
LINE
8
BLACK
6
CONTINUOUS
10
143.149
20
-103.365
11
143.151
21
-103.365
0
LINE
8
BLACK
6
CONTINUOUS
10
143.151
20
-103.365
11
143.153
21
-103.364
0
LINE
8
BLACK
6
CONTINUOUS
10
143.153
20
-103.364
11
143.176
21
-103.369
0
LINE
8
BLACK
6
CONTINUOUS
10
143.03
20
-104.078
11
143.298
21
-104.078
0
LINE
8
BLACK
6
CONTINUOUS
10
143.298
20
-104.078
11
143.164
21
-103.676
0
LINE
8
BLACK
6
CONTINUOUS
10
143.164
20
-103.676
11
143.03
21
-104.078
0
LINE
8
BLACK
6
CONTINUOUS
10
145.605
20
-103.369
11
145.628
21
-103.372
0
LINE
8
BLACK
6
CONTINUOUS
10
145.628
20
-103.372
11
145.63
21
-103.374
0
LINE
8
BLACK
6
CONTINUOUS
10
145.63
20
-103.374
11
145.632
21
-103.375
0
LINE
8
BLACK
6
CONTINUOUS
10
145.632
20
-103.375
11
145.647
21
-103.393
0
LINE
8
BLACK
6
CONTINUOUS
10
145.647
20
-103.393
11
145.662
21
-103.411
0
LINE
8
BLACK
6
CONTINUOUS
10
145.662
20
-103.411
11
145.662
21
-103.413
0
LINE
8
BLACK
6
CONTINUOUS
10
145.662
20
-103.413
11
145.664
21
-103.415
0
LINE
8
BLACK
6
CONTINUOUS
10
145.664
20
-103.415
11
145.997
21
-104.415
0
LINE
8
BLACK
6
CONTINUOUS
10
145.997
20
-104.415
11
146.001
21
-104.44
0
LINE
8
BLACK
6
CONTINUOUS
10
146.001
20
-104.44
11
145.982
21
-104.488
0
LINE
8
BLACK
6
CONTINUOUS
10
145.982
20
-104.488
11
145.937
21
-104.513
0
LINE
8
BLACK
6
CONTINUOUS
10
145.937
20
-104.513
11
145.887
21
-104.502
0
LINE
8
BLACK
6
CONTINUOUS
10
145.887
20
-104.502
11
145.855
21
-104.462
0
LINE
8
BLACK
6
CONTINUOUS
10
145.855
20
-104.462
11
145.777
21
-104.228
0
LINE
8
BLACK
6
CONTINUOUS
10
145.777
20
-104.228
11
145.408
21
-104.228
0
LINE
8
BLACK
6
CONTINUOUS
10
145.408
20
-104.228
11
145.33
21
-104.462
0
LINE
8
BLACK
6
CONTINUOUS
10
145.33
20
-104.462
11
145.318
21
-104.485
0
LINE
8
BLACK
6
CONTINUOUS
10
145.318
20
-104.485
11
145.274
21
-104.512
0
LINE
8
BLACK
6
CONTINUOUS
10
145.274
20
-104.512
11
145.223
21
-104.504
0
LINE
8
BLACK
6
CONTINUOUS
10
145.223
20
-104.504
11
145.189
21
-104.466
0
LINE
8
BLACK
6
CONTINUOUS
10
145.189
20
-104.466
11
145.188
21
-104.415
0
LINE
8
BLACK
6
CONTINUOUS
10
145.188
20
-104.415
11
145.521
21
-103.415
0
LINE
8
BLACK
6
CONTINUOUS
10
145.521
20
-103.415
11
145.534
21
-103.392
0
LINE
8
BLACK
6
CONTINUOUS
10
145.534
20
-103.392
11
145.536
21
-103.391
0
LINE
8
BLACK
6
CONTINUOUS
10
145.536
20
-103.391
11
145.536
21
-103.389
0
LINE
8
BLACK
6
CONTINUOUS
10
145.536
20
-103.389
11
145.557
21
-103.377
0
LINE
8
BLACK
6
CONTINUOUS
10
145.557
20
-103.377
11
145.577
21
-103.365
0
LINE
8
BLACK
6
CONTINUOUS
10
145.577
20
-103.365
11
145.58
21
-103.365
0
LINE
8
BLACK
6
CONTINUOUS
10
145.58
20
-103.365
11
145.581
21
-103.364
0
LINE
8
BLACK
6
CONTINUOUS
10
145.581
20
-103.364
11
145.605
21
-103.369
0
LINE
8
BLACK
6
CONTINUOUS
10
145.458
20
-104.078
11
145.727
21
-104.078
0
LINE
8
BLACK
6
CONTINUOUS
10
145.727
20
-104.078
11
145.592
21
-103.676
0
LINE
8
BLACK
6
CONTINUOUS
10
145.592
20
-103.676
11
145.458
21
-104.078
0
LINE
8
BLACK
6
CONTINUOUS
10
136.977
20
-103.366
11
136.986
21
-103.365
0
LINE
8
BLACK
6
CONTINUOUS
10
136.986
20
-103.365
11
137.001
21
-103.373
0
LINE
8
BLACK
6
CONTINUOUS
10
137.001
20
-103.373
11
137.016
21
-103.377
0
LINE
8
BLACK
6
CONTINUOUS
10
137.016
20
-103.377
11
137.022
21
-103.385
0
LINE
8
BLACK
6
CONTINUOUS
10
137.022
20
-103.385
11
137.031
21
-103.39
0
LINE
8
BLACK
6
CONTINUOUS
10
137.031
20
-103.39
11
137.037
21
-103.406
0
LINE
8
BLACK
6
CONTINUOUS
10
137.037
20
-103.406
11
137.046
21
-103.419
0
LINE
8
BLACK
6
CONTINUOUS
10
137.046
20
-103.419
11
137.045
21
-103.429
0
LINE
8
BLACK
6
CONTINUOUS
10
137.045
20
-103.429
11
137.048
21
-103.438
0
LINE
8
BLACK
6
CONTINUOUS
10
137.048
20
-103.438
11
137.048
21
-104.438
0
LINE
8
BLACK
6
CONTINUOUS
10
137.048
20
-104.438
11
137.044
21
-104.464
0
LINE
8
BLACK
6
CONTINUOUS
10
137.044
20
-104.464
11
137.011
21
-104.503
0
LINE
8
BLACK
6
CONTINUOUS
10
137.011
20
-104.503
11
136.96
21
-104.512
0
LINE
8
BLACK
6
CONTINUOUS
10
136.96
20
-104.512
11
136.916
21
-104.487
0
LINE
8
BLACK
6
CONTINUOUS
10
136.916
20
-104.487
11
136.898
21
-104.438
0
LINE
8
BLACK
6
CONTINUOUS
10
136.898
20
-104.438
11
136.898
21
-103.777
0
LINE
8
BLACK
6
CONTINUOUS
10
136.898
20
-103.777
11
136.708
21
-104.184
0
LINE
8
BLACK
6
CONTINUOUS
10
136.708
20
-104.184
11
136.702
21
-104.193
0
LINE
8
BLACK
6
CONTINUOUS
10
136.702
20
-104.193
11
136.702
21
-104.196
0
LINE
8
BLACK
6
CONTINUOUS
10
136.702
20
-104.196
11
136.699
21
-104.198
0
LINE
8
BLACK
6
CONTINUOUS
10
136.699
20
-104.198
11
136.693
21
-104.206
0
LINE
8
BLACK
6
CONTINUOUS
10
136.693
20
-104.206
11
136.675
21
-104.214
0
LINE
8
BLACK
6
CONTINUOUS
10
136.675
20
-104.214
11
136.66
21
-104.225
0
LINE
8
BLACK
6
CONTINUOUS
10
136.66
20
-104.225
11
136.653
21
-104.225
0
LINE
8
BLACK
6
CONTINUOUS
10
136.653
20
-104.225
11
136.647
21
-104.227
0
LINE
8
BLACK
6
CONTINUOUS
10
136.647
20
-104.227
11
136.628
21
-104.222
0
LINE
8
BLACK
6
CONTINUOUS
10
136.628
20
-104.222
11
136.608
21
-104.221
0
LINE
8
BLACK
6
CONTINUOUS
10
136.608
20
-104.221
11
136.604
21
-104.216
0
LINE
8
BLACK
6
CONTINUOUS
10
136.604
20
-104.216
11
136.597
21
-104.214
0
LINE
8
BLACK
6
CONTINUOUS
10
136.597
20
-104.214
11
136.586
21
-104.198
0
LINE
8
BLACK
6
CONTINUOUS
10
136.586
20
-104.198
11
136.572
21
-104.184
0
LINE
8
BLACK
6
CONTINUOUS
10
136.572
20
-104.184
11
136.382
21
-103.777
0
LINE
8
BLACK
6
CONTINUOUS
10
136.382
20
-103.777
11
136.382
21
-104.438
0
LINE
8
BLACK
6
CONTINUOUS
10
136.382
20
-104.438
11
136.377
21
-104.464
0
LINE
8
BLACK
6
CONTINUOUS
10
136.377
20
-104.464
11
136.344
21
-104.503
0
LINE
8
BLACK
6
CONTINUOUS
10
136.344
20
-104.503
11
136.294
21
-104.512
0
LINE
8
BLACK
6
CONTINUOUS
10
136.294
20
-104.512
11
136.249
21
-104.487
0
LINE
8
BLACK
6
CONTINUOUS
10
136.249
20
-104.487
11
136.232
21
-104.438
0
LINE
8
BLACK
6
CONTINUOUS
10
136.232
20
-104.438
11
136.232
21
-103.438
0
LINE
8
BLACK
6
CONTINUOUS
10
136.232
20
-103.438
11
136.236
21
-103.413
0
LINE
8
BLACK
6
CONTINUOUS
10
136.236
20
-103.413
11
136.243
21
-103.405
0
LINE
8
BLACK
6
CONTINUOUS
10
136.243
20
-103.405
11
136.245
21
-103.395
0
LINE
8
BLACK
6
CONTINUOUS
10
136.245
20
-103.395
11
136.259
21
-103.386
0
LINE
8
BLACK
6
CONTINUOUS
10
136.259
20
-103.386
11
136.269
21
-103.373
0
LINE
8
BLACK
6
CONTINUOUS
10
136.269
20
-103.373
11
136.279
21
-103.372
0
LINE
8
BLACK
6
CONTINUOUS
10
136.279
20
-103.372
11
136.287
21
-103.366
0
LINE
8
BLACK
6
CONTINUOUS
10
136.287
20
-103.366
11
136.304
21
-103.367
0
LINE
8
BLACK
6
CONTINUOUS
10
136.304
20
-103.367
11
136.32
21
-103.365
0
LINE
8
BLACK
6
CONTINUOUS
10
136.32
20
-103.365
11
136.328
21
-103.37
0
LINE
8
BLACK
6
CONTINUOUS
10
136.328
20
-103.37
11
136.338
21
-103.37
0
LINE
8
BLACK
6
CONTINUOUS
10
136.338
20
-103.37
11
136.35
21
-103.382
0
LINE
8
BLACK
6
CONTINUOUS
10
136.35
20
-103.382
11
136.364
21
-103.39
0
LINE
8
BLACK
6
CONTINUOUS
10
136.364
20
-103.39
11
136.368
21
-103.4
0
LINE
8
BLACK
6
CONTINUOUS
10
136.368
20
-103.4
11
136.375
21
-103.407
0
LINE
8
BLACK
6
CONTINUOUS
10
136.375
20
-103.407
11
136.64
21
-103.975
0
LINE
8
BLACK
6
CONTINUOUS
10
136.64
20
-103.975
11
136.905
21
-103.407
0
LINE
8
BLACK
6
CONTINUOUS
10
136.905
20
-103.407
11
136.92
21
-103.385
0
LINE
8
BLACK
6
CONTINUOUS
10
136.92
20
-103.385
11
136.93
21
-103.381
0
LINE
8
BLACK
6
CONTINUOUS
10
136.93
20
-103.381
11
136.936
21
-103.373
0
LINE
8
BLACK
6
CONTINUOUS
10
136.936
20
-103.373
11
136.952
21
-103.371
0
LINE
8
BLACK
6
CONTINUOUS
10
136.952
20
-103.371
11
136.967
21
-103.364
0
LINE
8
BLACK
6
CONTINUOUS
10
136.967
20
-103.364
11
136.977
21
-103.366
0
LINE
8
BLACK
6
CONTINUOUS
10
137.507
20
-103.39
11
137.525
21
-103.438
0
LINE
8
BLACK
6
CONTINUOUS
10
137.525
20
-103.438
11
137.525
21
-104.438
0
LINE
8
BLACK
6
CONTINUOUS
10
137.525
20
-104.438
11
137.52
21
-104.464
0
LINE
8
BLACK
6
CONTINUOUS
10
137.52
20
-104.464
11
137.487
21
-104.503
0
LINE
8
BLACK
6
CONTINUOUS
10
137.487
20
-104.503
11
137.437
21
-104.512
0
LINE
8
BLACK
6
CONTINUOUS
10
137.437
20
-104.512
11
137.392
21
-104.487
0
LINE
8
BLACK
6
CONTINUOUS
10
137.392
20
-104.487
11
137.375
21
-104.438
0
LINE
8
BLACK
6
CONTINUOUS
10
137.375
20
-104.438
11
137.375
21
-103.438
0
LINE
8
BLACK
6
CONTINUOUS
10
137.375
20
-103.438
11
137.379
21
-103.413
0
LINE
8
BLACK
6
CONTINUOUS
10
137.379
20
-103.413
11
137.412
21
-103.373
0
LINE
8
BLACK
6
CONTINUOUS
10
137.412
20
-103.373
11
137.463
21
-103.365
0
LINE
8
BLACK
6
CONTINUOUS
10
137.463
20
-103.365
11
137.507
21
-103.39
0
LINE
8
BLACK
6
CONTINUOUS
10
138.38
20
-103.368
11
138.419
21
-103.401
0
LINE
8
BLACK
6
CONTINUOUS
10
138.419
20
-103.401
11
138.428
21
-103.451
0
LINE
8
BLACK
6
CONTINUOUS
10
138.428
20
-103.451
11
138.403
21
-103.496
0
LINE
8
BLACK
6
CONTINUOUS
10
138.403
20
-103.496
11
138.354
21
-103.513
0
LINE
8
BLACK
6
CONTINUOUS
10
138.354
20
-103.513
11
138.144
21
-103.513
0
LINE
8
BLACK
6
CONTINUOUS
10
138.144
20
-103.513
11
138.144
21
-104.438
0
LINE
8
BLACK
6
CONTINUOUS
10
138.144
20
-104.438
11
138.139
21
-104.464
0
LINE
8
BLACK
6
CONTINUOUS
10
138.139
20
-104.464
11
138.106
21
-104.503
0
LINE
8
BLACK
6
CONTINUOUS
10
138.106
20
-104.503
11
138.056
21
-104.512
0
LINE
8
BLACK
6
CONTINUOUS
10
138.056
20
-104.512
11
138.011
21
-104.487
0
LINE
8
BLACK
6
CONTINUOUS
10
138.011
20
-104.487
11
137.994
21
-104.438
0
LINE
8
BLACK
6
CONTINUOUS
10
137.994
20
-104.438
11
137.994
21
-103.513
0
LINE
8
BLACK
6
CONTINUOUS
10
137.994
20
-103.513
11
137.783
21
-103.513
0
LINE
8
BLACK
6
CONTINUOUS
10
137.783
20
-103.513
11
137.757
21
-103.509
0
LINE
8
BLACK
6
CONTINUOUS
10
137.757
20
-103.509
11
137.718
21
-103.476
0
LINE
8
BLACK
6
CONTINUOUS
10
137.718
20
-103.476
11
137.709
21
-103.425
0
LINE
8
BLACK
6
CONTINUOUS
10
137.709
20
-103.425
11
137.735
21
-103.381
0
LINE
8
BLACK
6
CONTINUOUS
10
137.735
20
-103.381
11
137.783
21
-103.363
0
LINE
8
BLACK
6
CONTINUOUS
10
137.783
20
-103.363
11
138.354
21
-103.363
0
LINE
8
BLACK
6
CONTINUOUS
10
138.354
20
-103.363
11
138.38
21
-103.368
0
LINE
8
BLACK
6
CONTINUOUS
10
140.119
20
-103.366
11
140.129
21
-103.365
0
LINE
8
BLACK
6
CONTINUOUS
10
140.129
20
-103.365
11
140.144
21
-103.373
0
LINE
8
BLACK
6
CONTINUOUS
10
140.144
20
-103.373
11
140.159
21
-103.377
0
LINE
8
BLACK
6
CONTINUOUS
10
140.159
20
-103.377
11
140.165
21
-103.385
0
LINE
8
BLACK
6
CONTINUOUS
10
140.165
20
-103.385
11
140.174
21
-103.39
0
LINE
8
BLACK
6
CONTINUOUS
10
140.174
20
-103.39
11
140.179
21
-103.406
0
LINE
8
BLACK
6
CONTINUOUS
10
140.179
20
-103.406
11
140.189
21
-103.419
0
LINE
8
BLACK
6
CONTINUOUS
10
140.189
20
-103.419
11
140.188
21
-103.429
0
LINE
8
BLACK
6
CONTINUOUS
10
140.188
20
-103.429
11
140.191
21
-103.438
0
LINE
8
BLACK
6
CONTINUOUS
10
140.191
20
-103.438
11
140.191
21
-104.438
0
LINE
8
BLACK
6
CONTINUOUS
10
140.191
20
-104.438
11
140.187
21
-104.464
0
LINE
8
BLACK
6
CONTINUOUS
10
140.187
20
-104.464
11
140.154
21
-104.503
0
LINE
8
BLACK
6
CONTINUOUS
10
140.154
20
-104.503
11
140.103
21
-104.512
0
LINE
8
BLACK
6
CONTINUOUS
10
140.103
20
-104.512
11
140.059
21
-104.487
0
LINE
8
BLACK
6
CONTINUOUS
10
140.059
20
-104.487
11
140.041
21
-104.438
0
LINE
8
BLACK
6
CONTINUOUS
10
140.041
20
-104.438
11
140.041
21
-103.777
0
LINE
8
BLACK
6
CONTINUOUS
10
140.041
20
-103.777
11
139.851
21
-104.184
0
LINE
8
BLACK
6
CONTINUOUS
10
139.851
20
-104.184
11
139.845
21
-104.193
0
LINE
8
BLACK
6
CONTINUOUS
10
139.845
20
-104.193
11
139.844
21
-104.196
0
LINE
8
BLACK
6
CONTINUOUS
10
139.844
20
-104.196
11
139.842
21
-104.198
0
LINE
8
BLACK
6
CONTINUOUS
10
139.842
20
-104.198
11
139.836
21
-104.206
0
LINE
8
BLACK
6
CONTINUOUS
10
139.836
20
-104.206
11
139.818
21
-104.214
0
LINE
8
BLACK
6
CONTINUOUS
10
139.818
20
-104.214
11
139.802
21
-104.225
0
LINE
8
BLACK
6
CONTINUOUS
10
139.802
20
-104.225
11
139.796
21
-104.225
0
LINE
8
BLACK
6
CONTINUOUS
10
139.796
20
-104.225
11
139.789
21
-104.227
0
LINE
8
BLACK
6
CONTINUOUS
10
139.789
20
-104.227
11
139.771
21
-104.222
0
LINE
8
BLACK
6
CONTINUOUS
10
139.771
20
-104.222
11
139.751
21
-104.221
0
LINE
8
BLACK
6
CONTINUOUS
10
139.751
20
-104.221
11
139.746
21
-104.216
0
LINE
8
BLACK
6
CONTINUOUS
10
139.746
20
-104.216
11
139.74
21
-104.214
0
LINE
8
BLACK
6
CONTINUOUS
10
139.74
20
-104.214
11
139.729
21
-104.198
0
LINE
8
BLACK
6
CONTINUOUS
10
139.729
20
-104.198
11
139.715
21
-104.184
0
LINE
8
BLACK
6
CONTINUOUS
10
139.715
20
-104.184
11
139.525
21
-103.777
0
LINE
8
BLACK
6
CONTINUOUS
10
139.525
20
-103.777
11
139.525
21
-104.438
0
LINE
8
BLACK
6
CONTINUOUS
10
139.525
20
-104.438
11
139.52
21
-104.464
0
LINE
8
BLACK
6
CONTINUOUS
10
139.52
20
-104.464
11
139.487
21
-104.503
0
LINE
8
BLACK
6
CONTINUOUS
10
139.487
20
-104.503
11
139.437
21
-104.512
0
LINE
8
BLACK
6
CONTINUOUS
10
139.437
20
-104.512
11
139.392
21
-104.487
0
LINE
8
BLACK
6
CONTINUOUS
10
139.392
20
-104.487
11
139.375
21
-104.438
0
LINE
8
BLACK
6
CONTINUOUS
10
139.375
20
-104.438
11
139.375
21
-103.438
0
LINE
8
BLACK
6
CONTINUOUS
10
139.375
20
-103.438
11
139.379
21
-103.413
0
LINE
8
BLACK
6
CONTINUOUS
10
139.379
20
-103.413
11
139.386
21
-103.405
0
LINE
8
BLACK
6
CONTINUOUS
10
139.386
20
-103.405
11
139.388
21
-103.395
0
LINE
8
BLACK
6
CONTINUOUS
10
139.388
20
-103.395
11
139.402
21
-103.386
0
LINE
8
BLACK
6
CONTINUOUS
10
139.402
20
-103.386
11
139.412
21
-103.373
0
LINE
8
BLACK
6
CONTINUOUS
10
139.412
20
-103.373
11
139.422
21
-103.372
0
LINE
8
BLACK
6
CONTINUOUS
10
139.422
20
-103.372
11
139.43
21
-103.366
0
LINE
8
BLACK
6
CONTINUOUS
10
139.43
20
-103.366
11
139.447
21
-103.367
0
LINE
8
BLACK
6
CONTINUOUS
10
139.447
20
-103.367
11
139.463
21
-103.365
0
LINE
8
BLACK
6
CONTINUOUS
10
139.463
20
-103.365
11
139.471
21
-103.37
0
LINE
8
BLACK
6
CONTINUOUS
10
139.471
20
-103.37
11
139.481
21
-103.37
0
LINE
8
BLACK
6
CONTINUOUS
10
139.481
20
-103.37
11
139.493
21
-103.382
0
LINE
8
BLACK
6
CONTINUOUS
10
139.493
20
-103.382
11
139.507
21
-103.39
0
LINE
8
BLACK
6
CONTINUOUS
10
139.507
20
-103.39
11
139.511
21
-103.4
0
LINE
8
BLACK
6
CONTINUOUS
10
139.511
20
-103.4
11
139.518
21
-103.407
0
LINE
8
BLACK
6
CONTINUOUS
10
139.518
20
-103.407
11
139.783
21
-103.975
0
LINE
8
BLACK
6
CONTINUOUS
10
139.783
20
-103.975
11
140.048
21
-103.407
0
LINE
8
BLACK
6
CONTINUOUS
10
140.048
20
-103.407
11
140.063
21
-103.385
0
LINE
8
BLACK
6
CONTINUOUS
10
140.063
20
-103.385
11
140.072
21
-103.381
0
LINE
8
BLACK
6
CONTINUOUS
10
140.072
20
-103.381
11
140.079
21
-103.373
0
LINE
8
BLACK
6
CONTINUOUS
10
140.079
20
-103.373
11
140.095
21
-103.371
0
LINE
8
BLACK
6
CONTINUOUS
10
140.095
20
-103.371
11
140.11
21
-103.364
0
LINE
8
BLACK
6
CONTINUOUS
10
140.11
20
-103.364
11
140.119
21
-103.366
0
LINE
8
BLACK
6
CONTINUOUS
10
142.555
20
-103.39
11
142.572
21
-103.438
0
LINE
8
BLACK
6
CONTINUOUS
10
142.572
20
-103.438
11
142.572
21
-104.438
0
LINE
8
BLACK
6
CONTINUOUS
10
142.572
20
-104.438
11
142.568
21
-104.464
0
LINE
8
BLACK
6
CONTINUOUS
10
142.568
20
-104.464
11
142.535
21
-104.503
0
LINE
8
BLACK
6
CONTINUOUS
10
142.535
20
-104.503
11
142.484
21
-104.512
0
LINE
8
BLACK
6
CONTINUOUS
10
142.484
20
-104.512
11
142.44
21
-104.487
0
LINE
8
BLACK
6
CONTINUOUS
10
142.44
20
-104.487
11
142.422
21
-104.438
0
LINE
8
BLACK
6
CONTINUOUS
10
142.422
20
-104.438
11
142.422
21
-103.438
0
LINE
8
BLACK
6
CONTINUOUS
10
142.422
20
-103.438
11
142.427
21
-103.413
0
LINE
8
BLACK
6
CONTINUOUS
10
142.427
20
-103.413
11
142.46
21
-103.373
0
LINE
8
BLACK
6
CONTINUOUS
10
142.46
20
-103.373
11
142.51
21
-103.365
0
LINE
8
BLACK
6
CONTINUOUS
10
142.51
20
-103.365
11
142.555
21
-103.39
0
LINE
8
BLACK
6
CONTINUOUS
10
143.85
20
-95.9435
11
143.866
21
-95.9435
0
LINE
8
BLACK
6
CONTINUOUS
10
143.866
20
-95.9435
11
143.879
21
-95.9528
0
LINE
8
BLACK
6
CONTINUOUS
10
143.879
20
-95.9528
11
143.894
21
-95.9577
0
LINE
8
BLACK
6
CONTINUOUS
10
143.894
20
-95.9577
11
143.903
21
-95.9705
0
LINE
8
BLACK
6
CONTINUOUS
10
143.903
20
-95.9705
11
143.916
21
-95.9798
0
LINE
8
BLACK
6
CONTINUOUS
10
143.916
20
-95.9798
11
143.921
21
-95.9949
0
LINE
8
BLACK
6
CONTINUOUS
10
143.921
20
-95.9949
11
143.93
21
-96.0077
0
LINE
8
BLACK
6
CONTINUOUS
10
143.93
20
-96.0077
11
143.93
21
-96.0236
0
LINE
8
BLACK
6
CONTINUOUS
10
143.93
20
-96.0236
11
143.935
21
-96.0386
0
LINE
8
BLACK
6
CONTINUOUS
10
143.935
20
-96.0386
11
143.935
21
-101.269
0
LINE
8
BLACK
6
CONTINUOUS
10
143.935
20
-101.269
11
143.93
21
-101.284
0
LINE
8
BLACK
6
CONTINUOUS
10
143.93
20
-101.284
11
143.93
21
-101.3
0
LINE
8
BLACK
6
CONTINUOUS
10
143.93
20
-101.3
11
143.921
21
-101.312
0
LINE
8
BLACK
6
CONTINUOUS
10
143.921
20
-101.312
11
143.916
21
-101.327
0
LINE
8
BLACK
6
CONTINUOUS
10
143.916
20
-101.327
11
143.903
21
-101.337
0
LINE
8
BLACK
6
CONTINUOUS
10
143.903
20
-101.337
11
143.894
21
-101.35
0
LINE
8
BLACK
6
CONTINUOUS
10
143.894
20
-101.35
11
143.879
21
-101.354
0
LINE
8
BLACK
6
CONTINUOUS
10
143.879
20
-101.354
11
143.866
21
-101.364
0
LINE
8
BLACK
6
CONTINUOUS
10
143.866
20
-101.364
11
143.85
21
-101.364
0
LINE
8
BLACK
6
CONTINUOUS
10
143.85
20
-101.364
11
143.835
21
-101.369
0
LINE
8
BLACK
6
CONTINUOUS
10
143.835
20
-101.369
11
138.835
21
-101.369
0
LINE
8
BLACK
6
CONTINUOUS
10
138.835
20
-101.369
11
138.82
21
-101.364
0
LINE
8
BLACK
6
CONTINUOUS
10
138.82
20
-101.364
11
138.804
21
-101.364
0
LINE
8
BLACK
6
CONTINUOUS
10
138.804
20
-101.364
11
138.791
21
-101.354
0
LINE
8
BLACK
6
CONTINUOUS
10
138.791
20
-101.354
11
138.776
21
-101.35
0
LINE
8
BLACK
6
CONTINUOUS
10
138.776
20
-101.35
11
138.767
21
-101.337
0
LINE
8
BLACK
6
CONTINUOUS
10
138.767
20
-101.337
11
138.754
21
-101.327
0
LINE
8
BLACK
6
CONTINUOUS
10
138.754
20
-101.327
11
138.749
21
-101.312
0
LINE
8
BLACK
6
CONTINUOUS
10
138.749
20
-101.312
11
138.74
21
-101.3
0
LINE
8
BLACK
6
CONTINUOUS
10
138.74
20
-101.3
11
138.74
21
-101.284
0
LINE
8
BLACK
6
CONTINUOUS
10
138.74
20
-101.284
11
138.735
21
-101.269
0
LINE
8
BLACK
6
CONTINUOUS
10
138.735
20
-101.269
11
138.735
21
-96.0386
0
LINE
8
BLACK
6
CONTINUOUS
10
138.735
20
-96.0386
11
138.74
21
-96.0236
0
LINE
8
BLACK
6
CONTINUOUS
10
138.74
20
-96.0236
11
138.74
21
-96.0077
0
LINE
8
BLACK
6
CONTINUOUS
10
138.74
20
-96.0077
11
138.749
21
-95.9949
0
LINE
8
BLACK
6
CONTINUOUS
10
138.749
20
-95.9949
11
138.754
21
-95.9798
0
LINE
8
BLACK
6
CONTINUOUS
10
138.754
20
-95.9798
11
138.767
21
-95.9705
0
LINE
8
BLACK
6
CONTINUOUS
10
138.767
20
-95.9705
11
138.776
21
-95.9577
0
LINE
8
BLACK
6
CONTINUOUS
10
138.776
20
-95.9577
11
138.791
21
-95.9528
0
LINE
8
BLACK
6
CONTINUOUS
10
138.791
20
-95.9528
11
138.804
21
-95.9435
0
LINE
8
BLACK
6
CONTINUOUS
10
138.804
20
-95.9435
11
138.82
21
-95.9435
0
LINE
8
BLACK
6
CONTINUOUS
10
138.82
20
-95.9435
11
138.835
21
-95.9386
0
LINE
8
BLACK
6
CONTINUOUS
10
138.835
20
-95.9386
11
143.835
21
-95.9386
0
LINE
8
BLACK
6
CONTINUOUS
10
143.835
20
-95.9386
11
143.85
21
-95.9435
0
LINE
8
BLACK
6
CONTINUOUS
10
138.935
20
-96.1386
11
138.935
21
-101.169
0
LINE
8
BLACK
6
CONTINUOUS
10
138.935
20
-101.169
11
143.735
21
-101.169
0
LINE
8
BLACK
6
CONTINUOUS
10
143.735
20
-101.169
11
143.735
21
-96.1386
0
LINE
8
BLACK
6
CONTINUOUS
10
143.735
20
-96.1386
11
138.935
21
-96.1386
0
LINE
8
BLACK
6
CONTINUOUS
10
135.36
20
-99.6162
11
135.378
21
-99.6586
0
LINE
8
BLACK
6
CONTINUOUS
10
135.378
20
-99.6586
11
135.36
21
-99.701
0
LINE
8
BLACK
6
CONTINUOUS
10
135.36
20
-99.701
11
135.318
21
-99.7186
0
LINE
8
BLACK
6
CONTINUOUS
10
135.318
20
-99.7186
11
134.982
21
-99.7186
0
LINE
8
BLACK
6
CONTINUOUS
10
134.982
20
-99.7186
11
134.94
21
-99.701
0
LINE
8
BLACK
6
CONTINUOUS
10
134.94
20
-99.701
11
134.922
21
-99.6586
0
LINE
8
BLACK
6
CONTINUOUS
10
134.922
20
-99.6586
11
134.94
21
-99.6162
0
LINE
8
BLACK
6
CONTINUOUS
10
134.94
20
-99.6162
11
134.982
21
-99.5986
0
LINE
8
BLACK
6
CONTINUOUS
10
134.982
20
-99.5986
11
135.318
21
-99.5986
0
LINE
8
BLACK
6
CONTINUOUS
10
135.318
20
-99.5986
11
135.36
21
-99.6162
0
LINE
8
BLACK
6
CONTINUOUS
10
135.36
20
-98.8562
11
135.378
21
-98.8986
0
LINE
8
BLACK
6
CONTINUOUS
10
135.378
20
-98.8986
11
135.36
21
-98.941
0
LINE
8
BLACK
6
CONTINUOUS
10
135.36
20
-98.941
11
135.318
21
-98.9586
0
LINE
8
BLACK
6
CONTINUOUS
10
135.318
20
-98.9586
11
134.982
21
-98.9586
0
LINE
8
BLACK
6
CONTINUOUS
10
134.982
20
-98.9586
11
134.94
21
-98.941
0
LINE
8
BLACK
6
CONTINUOUS
10
134.94
20
-98.941
11
134.922
21
-98.8986
0
LINE
8
BLACK
6
CONTINUOUS
10
134.922
20
-98.8986
11
134.94
21
-98.8562
0
LINE
8
BLACK
6
CONTINUOUS
10
134.94
20
-98.8562
11
134.982
21
-98.8386
0
LINE
8
BLACK
6
CONTINUOUS
10
134.982
20
-98.8386
11
135.318
21
-98.8386
0
LINE
8
BLACK
6
CONTINUOUS
10
135.318
20
-98.8386
11
135.36
21
-98.8562
0
LINE
8
BLACK
6
CONTINUOUS
10
167.51
20
-98.0796
11
167.56
21
-98.093
0
LINE
8
BLACK
6
CONTINUOUS
10
167.56
20
-98.093
11
167.597
21
-98.1296
0
LINE
8
BLACK
6
CONTINUOUS
10
167.597
20
-98.1296
11
167.61
21
-98.1796
0
LINE
8
BLACK
6
CONTINUOUS
10
167.61
20
-98.1796
11
167.597
21
-98.2296
0
LINE
8
BLACK
6
CONTINUOUS
10
167.597
20
-98.2296
11
167.56
21
-98.2662
0
LINE
8
BLACK
6
CONTINUOUS
10
167.56
20
-98.2662
11
167.51
21
-98.2795
0
LINE
8
BLACK
6
CONTINUOUS
10
167.51
20
-98.2795
11
167.51
21
-98.2796
0
LINE
8
BLACK
6
CONTINUOUS
10
167.51
20
-98.2796
11
167.46
21
-98.2662
0
LINE
8
BLACK
6
CONTINUOUS
10
167.46
20
-98.2662
11
167.423
21
-98.2296
0
LINE
8
BLACK
6
CONTINUOUS
10
167.423
20
-98.2296
11
167.41
21
-98.1796
0
LINE
8
BLACK
6
CONTINUOUS
10
167.41
20
-98.1796
11
167.423
21
-98.1296
0
LINE
8
BLACK
6
CONTINUOUS
10
167.423
20
-98.1296
11
167.46
21
-98.093
0
LINE
8
BLACK
6
CONTINUOUS
10
167.46
20
-98.093
11
167.51
21
-98.0796
0
LINE
8
BLACK
6
CONTINUOUS
10
167.51
20
-98.0796
11
167.51
21
-98.0796
0
LINE
8
BLACK
6
CONTINUOUS
10
167.51
20
-98.1796
11
167.51
21
-98.1796
0
LINE
8
BLACK
6
CONTINUOUS
10
167.51
20
-98.1796
11
167.51
21
-98.1796
0
LINE
8
BLACK
6
CONTINUOUS
10
167.51
20
-98.1796
11
167.51
21
-98.1796
0
LINE
8
BLACK
6
CONTINUOUS
10
166.145
20
-93.0693
11
166.16
21
-93.1046
0
LINE
8
BLACK
6
CONTINUOUS
10
166.16
20
-93.1046
11
166.145
21
-93.14
0
LINE
8
BLACK
6
CONTINUOUS
10
166.145
20
-93.14
11
166.11
21
-93.1546
0
LINE
8
BLACK
6
CONTINUOUS
10
166.11
20
-93.1546
11
152.86
21
-93.1546
0
LINE
8
BLACK
6
CONTINUOUS
10
152.86
20
-93.1546
11
152.86
21
-98.1296
0
LINE
8
BLACK
6
CONTINUOUS
10
152.86
20
-98.1296
11
152.845
21
-98.165
0
LINE
8
BLACK
6
CONTINUOUS
10
152.845
20
-98.165
11
152.81
21
-98.1796
0
LINE
8
BLACK
6
CONTINUOUS
10
152.81
20
-98.1796
11
152.775
21
-98.165
0
LINE
8
BLACK
6
CONTINUOUS
10
152.775
20
-98.165
11
152.76
21
-98.1296
0
LINE
8
BLACK
6
CONTINUOUS
10
152.76
20
-98.1296
11
152.76
21
-93.1046
0
LINE
8
BLACK
6
CONTINUOUS
10
152.76
20
-93.1046
11
152.775
21
-93.0693
0
LINE
8
BLACK
6
CONTINUOUS
10
152.775
20
-93.0693
11
152.81
21
-93.0546
0
LINE
8
BLACK
6
CONTINUOUS
10
152.81
20
-93.0546
11
166.11
21
-93.0546
0
LINE
8
BLACK
6
CONTINUOUS
10
166.11
20
-93.0546
11
166.145
21
-93.0693
0
LINE
8
BLACK
6
CONTINUOUS
10
138.544
20
-95.9927
11
138.58
21
-96.0427
0
LINE
8
BLACK
6
CONTINUOUS
10
138.58
20
-96.0427
11
138.58
21
-96.1045
0
LINE
8
BLACK
6
CONTINUOUS
10
138.58
20
-96.1045
11
138.544
21
-96.1545
0
LINE
8
BLACK
6
CONTINUOUS
10
138.544
20
-96.1545
11
138.485
21
-96.1736
0
LINE
8
BLACK
6
CONTINUOUS
10
138.485
20
-96.1736
11
136.835
21
-96.1736
0
LINE
8
BLACK
6
CONTINUOUS
10
136.835
20
-96.1736
11
136.776
21
-96.1545
0
LINE
8
BLACK
6
CONTINUOUS
10
136.776
20
-96.1545
11
136.74
21
-96.1045
0
LINE
8
BLACK
6
CONTINUOUS
10
136.74
20
-96.1045
11
136.74
21
-96.0427
0
LINE
8
BLACK
6
CONTINUOUS
10
136.74
20
-96.0427
11
136.776
21
-95.9927
0
LINE
8
BLACK
6
CONTINUOUS
10
136.776
20
-95.9927
11
136.835
21
-95.9736
0
LINE
8
BLACK
6
CONTINUOUS
10
136.835
20
-95.9736
11
138.485
21
-95.9736
0
LINE
8
BLACK
6
CONTINUOUS
10
138.485
20
-95.9736
11
138.544
21
-95.9927
0
LINE
8
BLACK
6
CONTINUOUS
10
141.826
20
-91.5477
11
141.907
21
-91.6018
0
LINE
8
BLACK
6
CONTINUOUS
10
141.907
20
-91.6018
11
141.961
21
-91.6829
0
LINE
8
BLACK
6
CONTINUOUS
10
141.961
20
-91.6829
11
141.98
21
-91.7786
0
LINE
8
BLACK
6
CONTINUOUS
10
141.98
20
-91.7786
11
141.961
21
-91.8743
0
LINE
8
BLACK
6
CONTINUOUS
10
141.961
20
-91.8743
11
141.907
21
-91.9554
0
LINE
8
BLACK
6
CONTINUOUS
10
141.907
20
-91.9554
11
141.826
21
-92.0096
0
LINE
8
BLACK
6
CONTINUOUS
10
141.826
20
-92.0096
11
141.73
21
-92.0286
0
LINE
8
BLACK
6
CONTINUOUS
10
141.73
20
-92.0286
11
138.98
21
-92.0286
0
LINE
8
BLACK
6
CONTINUOUS
10
138.98
20
-92.0286
11
138.98
21
-94.7786
0
LINE
8
BLACK
6
CONTINUOUS
10
138.98
20
-94.7786
11
138.961
21
-94.8743
0
LINE
8
BLACK
6
CONTINUOUS
10
138.961
20
-94.8743
11
138.907
21
-94.9554
0
LINE
8
BLACK
6
CONTINUOUS
10
138.907
20
-94.9554
11
138.826
21
-95.0096
0
LINE
8
BLACK
6
CONTINUOUS
10
138.826
20
-95.0096
11
138.73
21
-95.0286
0
LINE
8
BLACK
6
CONTINUOUS
10
138.73
20
-95.0286
11
138.634
21
-95.0096
0
LINE
8
BLACK
6
CONTINUOUS
10
138.634
20
-95.0096
11
138.553
21
-94.9554
0
LINE
8
BLACK
6
CONTINUOUS
10
138.553
20
-94.9554
11
138.499
21
-94.8743
0
LINE
8
BLACK
6
CONTINUOUS
10
138.499
20
-94.8743
11
138.48
21
-94.7786
0
LINE
8
BLACK
6
CONTINUOUS
10
138.48
20
-94.7786
11
138.48
21
-91.7786
0
LINE
8
BLACK
6
CONTINUOUS
10
138.48
20
-91.7786
11
138.499
21
-91.6829
0
LINE
8
BLACK
6
CONTINUOUS
10
138.499
20
-91.6829
11
138.553
21
-91.6018
0
LINE
8
BLACK
6
CONTINUOUS
10
138.553
20
-91.6018
11
138.634
21
-91.5477
0
LINE
8
BLACK
6
CONTINUOUS
10
138.634
20
-91.5477
11
138.73
21
-91.5286
0
LINE
8
BLACK
6
CONTINUOUS
10
138.73
20
-91.5286
11
141.73
21
-91.5286
0
LINE
8
BLACK
6
CONTINUOUS
10
141.73
20
-91.5286
11
141.826
21
-91.5477
0
LINE
8
BLACK
6
CONTINUOUS
10
141.826
20
-92.5477
11
141.907
21
-92.6018
0
LINE
8
BLACK
6
CONTINUOUS
10
141.907
20
-92.6018
11
141.961
21
-92.6829
0
LINE
8
BLACK
6
CONTINUOUS
10
141.961
20
-92.6829
11
141.98
21
-92.7786
0
LINE
8
BLACK
6
CONTINUOUS
10
141.98
20
-92.7786
11
141.961
21
-92.8743
0
LINE
8
BLACK
6
CONTINUOUS
10
141.961
20
-92.8743
11
141.907
21
-92.9554
0
LINE
8
BLACK
6
CONTINUOUS
10
141.907
20
-92.9554
11
141.826
21
-93.0096
0
LINE
8
BLACK
6
CONTINUOUS
10
141.826
20
-93.0096
11
141.73
21
-93.0286
0
LINE
8
BLACK
6
CONTINUOUS
10
141.73
20
-93.0286
11
139.98
21
-93.0286
0
LINE
8
BLACK
6
CONTINUOUS
10
139.98
20
-93.0286
11
139.98
21
-93.5286
0
LINE
8
BLACK
6
CONTINUOUS
10
139.98
20
-93.5286
11
141.73
21
-93.5286
0
LINE
8
BLACK
6
CONTINUOUS
10
141.73
20
-93.5286
11
141.826
21
-93.5477
0
LINE
8
BLACK
6
CONTINUOUS
10
141.826
20
-93.5477
11
141.907
21
-93.6018
0
LINE
8
BLACK
6
CONTINUOUS
10
141.907
20
-93.6018
11
141.961
21
-93.6829
0
LINE
8
BLACK
6
CONTINUOUS
10
141.961
20
-93.6829
11
141.98
21
-93.7786
0
LINE
8
BLACK
6
CONTINUOUS
10
141.98
20
-93.7786
11
141.961
21
-93.8743
0
LINE
8
BLACK
6
CONTINUOUS
10
141.961
20
-93.8743
11
141.907
21
-93.9554
0
LINE
8
BLACK
6
CONTINUOUS
10
141.907
20
-93.9554
11
141.826
21
-94.0096
0
LINE
8
BLACK
6
CONTINUOUS
10
141.826
20
-94.0096
11
141.73
21
-94.0286
0
LINE
8
BLACK
6
CONTINUOUS
10
141.73
20
-94.0286
11
139.98
21
-94.0286
0
LINE
8
BLACK
6
CONTINUOUS
10
139.98
20
-94.0286
11
139.98
21
-94.5286
0
LINE
8
BLACK
6
CONTINUOUS
10
139.98
20
-94.5286
11
141.73
21
-94.5286
0
LINE
8
BLACK
6
CONTINUOUS
10
141.73
20
-94.5286
11
141.826
21
-94.5477
0
LINE
8
BLACK
6
CONTINUOUS
10
141.826
20
-94.5477
11
141.907
21
-94.6018
0
LINE
8
BLACK
6
CONTINUOUS
10
141.907
20
-94.6018
11
141.961
21
-94.6829
0
LINE
8
BLACK
6
CONTINUOUS
10
141.961
20
-94.6829
11
141.98
21
-94.7786
0
LINE
8
BLACK
6
CONTINUOUS
10
141.98
20
-94.7786
11
141.961
21
-94.8743
0
LINE
8
BLACK
6
CONTINUOUS
10
141.961
20
-94.8743
11
141.907
21
-94.9554
0
LINE
8
BLACK
6
CONTINUOUS
10
141.907
20
-94.9554
11
141.826
21
-95.0096
0
LINE
8
BLACK
6
CONTINUOUS
10
141.826
20
-95.0096
11
141.73
21
-95.0286
0
LINE
8
BLACK
6
CONTINUOUS
10
141.73
20
-95.0286
11
139.73
21
-95.0286
0
LINE
8
BLACK
6
CONTINUOUS
10
139.73
20
-95.0286
11
139.634
21
-95.0096
0
LINE
8
BLACK
6
CONTINUOUS
10
139.634
20
-95.0096
11
139.553
21
-94.9554
0
LINE
8
BLACK
6
CONTINUOUS
10
139.553
20
-94.9554
11
139.499
21
-94.8743
0
LINE
8
BLACK
6
CONTINUOUS
10
139.499
20
-94.8743
11
139.48
21
-94.7786
0
LINE
8
BLACK
6
CONTINUOUS
10
139.48
20
-94.7786
11
139.48
21
-94.7786
0
LINE
8
BLACK
6
CONTINUOUS
10
139.48
20
-94.7786
11
139.48
21
-92.7786
0
LINE
8
BLACK
6
CONTINUOUS
10
139.48
20
-92.7786
11
139.499
21
-92.6829
0
LINE
8
BLACK
6
CONTINUOUS
10
139.499
20
-92.6829
11
139.553
21
-92.6018
0
LINE
8
BLACK
6
CONTINUOUS
10
139.553
20
-92.6018
11
139.634
21
-92.5477
0
LINE
8
BLACK
6
CONTINUOUS
10
139.634
20
-92.5477
11
139.73
21
-92.5286
0
LINE
8
BLACK
6
CONTINUOUS
10
139.73
20
-92.5286
11
141.73
21
-92.5286
0
LINE
8
BLACK
6
CONTINUOUS
10
141.73
20
-92.5286
11
141.826
21
-92.5477
0
LINE
8
BLACK
6
CONTINUOUS
10
146.081
20
-94.9262
11
146.099
21
-94.9686
0
LINE
8
BLACK
6
CONTINUOUS
10
146.099
20
-94.9686
11
146.081
21
-95.011
0
LINE
8
BLACK
6
CONTINUOUS
10
146.081
20
-95.011
11
146.039
21
-95.0286
0
LINE
8
BLACK
6
CONTINUOUS
10
146.039
20
-95.0286
11
145.746
21
-95.0286
0
LINE
8
BLACK
6
CONTINUOUS
10
145.746
20
-95.0286
11
145.704
21
-95.011
0
LINE
8
BLACK
6
CONTINUOUS
10
145.704
20
-95.011
11
145.686
21
-94.9686
0
LINE
8
BLACK
6
CONTINUOUS
10
145.686
20
-94.9686
11
145.704
21
-94.9262
0
LINE
8
BLACK
6
CONTINUOUS
10
145.704
20
-94.9262
11
145.746
21
-94.9086
0
LINE
8
BLACK
6
CONTINUOUS
10
145.746
20
-94.9086
11
146.039
21
-94.9086
0
LINE
8
BLACK
6
CONTINUOUS
10
146.039
20
-94.9086
11
146.081
21
-94.9262
0
LINE
8
BLACK
6
CONTINUOUS
10
146.081
20
-93.9062
11
146.099
21
-93.9486
0
LINE
8
BLACK
6
CONTINUOUS
10
146.099
20
-93.9486
11
146.081
21
-93.991
0
LINE
8
BLACK
6
CONTINUOUS
10
146.081
20
-93.991
11
146.039
21
-94.0086
0
LINE
8
BLACK
6
CONTINUOUS
10
146.039
20
-94.0086
11
145.746
21
-94.0086
0
LINE
8
BLACK
6
CONTINUOUS
10
145.746
20
-94.0086
11
145.704
21
-93.991
0
LINE
8
BLACK
6
CONTINUOUS
10
145.704
20
-93.991
11
145.686
21
-93.9486
0
LINE
8
BLACK
6
CONTINUOUS
10
145.686
20
-93.9486
11
145.704
21
-93.9062
0
LINE
8
BLACK
6
CONTINUOUS
10
145.704
20
-93.9062
11
145.746
21
-93.8886
0
LINE
8
BLACK
6
CONTINUOUS
10
145.746
20
-93.8886
11
146.039
21
-93.8886
0
LINE
8
BLACK
6
CONTINUOUS
10
146.039
20
-93.8886
11
146.081
21
-93.9062
0
LINE
8
BLACK
6
CONTINUOUS
10
147.177
20
-88.8486
11
147.22
21
-88.8662
0
LINE
8
BLACK
6
CONTINUOUS
10
147.22
20
-88.8662
11
147.237
21
-88.9086
0
LINE
8
BLACK
6
CONTINUOUS
10
147.237
20
-88.9086
11
147.237
21
-90.8286
0
LINE
8
BLACK
6
CONTINUOUS
10
147.237
20
-90.8286
11
147.22
21
-90.871
0
LINE
8
BLACK
6
CONTINUOUS
10
147.22
20
-90.871
11
147.177
21
-90.8886
0
LINE
8
BLACK
6
CONTINUOUS
10
147.177
20
-90.8886
11
144.317
21
-90.8886
0
LINE
8
BLACK
6
CONTINUOUS
10
144.317
20
-90.8886
11
144.275
21
-90.871
0
LINE
8
BLACK
6
CONTINUOUS
10
144.275
20
-90.871
11
144.257
21
-90.8286
0
LINE
8
BLACK
6
CONTINUOUS
10
144.257
20
-90.8286
11
144.275
21
-90.7862
0
LINE
8
BLACK
6
CONTINUOUS
10
144.275
20
-90.7862
11
144.317
21
-90.7686
0
LINE
8
BLACK
6
CONTINUOUS
10
144.317
20
-90.7686
11
147.118
21
-90.7686
0
LINE
8
BLACK
6
CONTINUOUS
10
147.118
20
-90.7686
11
147.118
21
-88.9686
0
LINE
8
BLACK
6
CONTINUOUS
10
147.118
20
-88.9686
11
144.317
21
-88.9686
0
LINE
8
BLACK
6
CONTINUOUS
10
144.317
20
-88.9686
11
144.275
21
-88.951
0
LINE
8
BLACK
6
CONTINUOUS
10
144.275
20
-88.951
11
144.257
21
-88.9086
0
LINE
8
BLACK
6
CONTINUOUS
10
144.257
20
-88.9086
11
144.275
21
-88.8662
0
LINE
8
BLACK
6
CONTINUOUS
10
144.275
20
-88.8662
11
144.317
21
-88.8486
0
LINE
8
BLACK
6
CONTINUOUS
10
144.317
20
-88.8486
11
147.177
21
-88.8486
0
LINE
8
BLACK
6
CONTINUOUS
10
159.352
20
-90.4899
11
159.37
21
-90.5324
0
LINE
8
BLACK
6
CONTINUOUS
10
159.37
20
-90.5324
11
159.37
21
-90.8249
0
LINE
8
BLACK
6
CONTINUOUS
10
159.37
20
-90.8249
11
159.352
21
-90.8673
0
LINE
8
BLACK
6
CONTINUOUS
10
159.352
20
-90.8673
11
159.31
21
-90.8849
0
LINE
8
BLACK
6
CONTINUOUS
10
159.31
20
-90.8849
11
159.268
21
-90.8673
0
LINE
8
BLACK
6
CONTINUOUS
10
159.268
20
-90.8673
11
159.25
21
-90.8249
0
LINE
8
BLACK
6
CONTINUOUS
10
159.25
20
-90.8249
11
159.25
21
-90.5324
0
LINE
8
BLACK
6
CONTINUOUS
10
159.25
20
-90.5324
11
159.268
21
-90.4899
0
LINE
8
BLACK
6
CONTINUOUS
10
159.268
20
-90.4899
11
159.31
21
-90.4724
0
LINE
8
BLACK
6
CONTINUOUS
10
159.31
20
-90.4724
11
159.352
21
-90.4899
0
LINE
8
BLACK
6
CONTINUOUS
10
160.372
20
-90.4899
11
160.39
21
-90.5324
0
LINE
8
BLACK
6
CONTINUOUS
10
160.39
20
-90.5324
11
160.39
21
-90.8249
0
LINE
8
BLACK
6
CONTINUOUS
10
160.39
20
-90.8249
11
160.372
21
-90.8673
0
LINE
8
BLACK
6
CONTINUOUS
10
160.372
20
-90.8673
11
160.33
21
-90.8849
0
LINE
8
BLACK
6
CONTINUOUS
10
160.33
20
-90.8849
11
160.288
21
-90.8673
0
LINE
8
BLACK
6
CONTINUOUS
10
160.288
20
-90.8673
11
160.27
21
-90.8249
0
LINE
8
BLACK
6
CONTINUOUS
10
160.27
20
-90.8249
11
160.27
21
-90.5324
0
LINE
8
BLACK
6
CONTINUOUS
10
160.27
20
-90.5324
11
160.288
21
-90.4899
0
LINE
8
BLACK
6
CONTINUOUS
10
160.288
20
-90.4899
11
160.33
21
-90.4724
0
LINE
8
BLACK
6
CONTINUOUS
10
160.33
20
-90.4724
11
160.372
21
-90.4899
0
LINE
8
BLACK
6
CONTINUOUS
10
142.522
20
-86.4232
11
142.54
21
-86.4656
0
LINE
8
BLACK
6
CONTINUOUS
10
142.54
20
-86.4656
11
142.54
21
-87.7356
0
LINE
8
BLACK
6
CONTINUOUS
10
142.54
20
-87.7356
11
143.81
21
-87.7356
0
LINE
8
BLACK
6
CONTINUOUS
10
143.81
20
-87.7356
11
143.852
21
-87.7532
0
LINE
8
BLACK
6
CONTINUOUS
10
143.852
20
-87.7532
11
143.87
21
-87.7956
0
LINE
8
BLACK
6
CONTINUOUS
10
143.87
20
-87.7956
11
143.852
21
-87.838
0
LINE
8
BLACK
6
CONTINUOUS
10
143.852
20
-87.838
11
143.81
21
-87.8556
0
LINE
8
BLACK
6
CONTINUOUS
10
143.81
20
-87.8556
11
142.48
21
-87.8556
0
LINE
8
BLACK
6
CONTINUOUS
10
142.48
20
-87.8556
11
142.438
21
-87.838
0
LINE
8
BLACK
6
CONTINUOUS
10
142.438
20
-87.838
11
142.42
21
-87.7956
0
LINE
8
BLACK
6
CONTINUOUS
10
142.42
20
-87.7956
11
142.42
21
-86.4656
0
LINE
8
BLACK
6
CONTINUOUS
10
142.42
20
-86.4656
11
142.438
21
-86.4232
0
LINE
8
BLACK
6
CONTINUOUS
10
142.438
20
-86.4232
11
142.48
21
-86.4056
0
LINE
8
BLACK
6
CONTINUOUS
10
142.48
20
-86.4056
11
142.522
21
-86.4232
0
LINE
8
BLACK
6
CONTINUOUS
10
157.84
20
-82.5356
11
157.882
21
-82.5532
0
LINE
8
BLACK
6
CONTINUOUS
10
157.882
20
-82.5532
11
157.9
21
-82.5956
0
LINE
8
BLACK
6
CONTINUOUS
10
157.9
20
-82.5956
11
157.9
21
-87.7956
0
LINE
8
BLACK
6
CONTINUOUS
10
157.9
20
-87.7956
11
157.882
21
-87.838
0
LINE
8
BLACK
6
CONTINUOUS
10
157.882
20
-87.838
11
157.84
21
-87.8556
0
LINE
8
BLACK
6
CONTINUOUS
10
157.84
20
-87.8556
11
145.08
21
-87.8556
0
LINE
8
BLACK
6
CONTINUOUS
10
145.08
20
-87.8556
11
145.038
21
-87.838
0
LINE
8
BLACK
6
CONTINUOUS
10
145.038
20
-87.838
11
145.02
21
-87.7956
0
LINE
8
BLACK
6
CONTINUOUS
10
145.02
20
-87.7956
11
145.02
21
-87.7956
0
LINE
8
BLACK
6
CONTINUOUS
10
145.02
20
-87.7956
11
145.02
21
-85.2556
0
LINE
8
BLACK
6
CONTINUOUS
10
145.02
20
-85.2556
11
142.48
21
-85.2556
0
LINE
8
BLACK
6
CONTINUOUS
10
142.48
20
-85.2556
11
142.438
21
-85.238
0
LINE
8
BLACK
6
CONTINUOUS
10
142.438
20
-85.238
11
142.42
21
-85.1956
0
LINE
8
BLACK
6
CONTINUOUS
10
142.42
20
-85.1956
11
142.42
21
-85.1956
0
LINE
8
BLACK
6
CONTINUOUS
10
142.42
20
-85.1956
11
142.42
21
-82.5956
0
LINE
8
BLACK
6
CONTINUOUS
10
142.42
20
-82.5956
11
142.438
21
-82.5532
0
LINE
8
BLACK
6
CONTINUOUS
10
142.438
20
-82.5532
11
142.48
21
-82.5356
0
LINE
8
BLACK
6
CONTINUOUS
10
142.48
20
-82.5356
11
157.84
21
-82.5356
0
LINE
8
BLACK
6
CONTINUOUS
10
142.54
20
-82.6556
11
142.54
21
-85.1356
0
LINE
8
BLACK
6
CONTINUOUS
10
142.54
20
-85.1356
11
145.08
21
-85.1356
0
LINE
8
BLACK
6
CONTINUOUS
10
145.08
20
-85.1356
11
145.122
21
-85.1532
0
LINE
8
BLACK
6
CONTINUOUS
10
145.122
20
-85.1532
11
145.14
21
-85.1956
0
LINE
8
BLACK
6
CONTINUOUS
10
145.14
20
-85.1956
11
145.14
21
-87.7356
0
LINE
8
BLACK
6
CONTINUOUS
10
145.14
20
-87.7356
11
157.78
21
-87.7356
0
LINE
8
BLACK
6
CONTINUOUS
10
157.78
20
-87.7356
11
157.78
21
-82.6556
0
LINE
8
BLACK
6
CONTINUOUS
10
157.78
20
-82.6556
11
142.54
21
-82.6556
  0
ENDSEC
  0
EOF
