%TF.GenerationSoftware,KiCad,Pcbnew,7.0.5*%
%TF.CreationDate,2023-06-05T00:45:25-04:00*%
%TF.ProjectId,BURNING_R,4255524e-494e-4475-9f52-2e6b69636164,rev?*%
%TF.SameCoordinates,Original*%
%TF.FileFunction,Paste,Top*%
%TF.FilePolarity,Positive*%
%FSLAX46Y46*%
G04 Gerber Fmt 4.6, Leading zero omitted, Abs format (unit mm)*
G04 Created by KiCad (PCBNEW 7.0.5) date 2023-06-05 00:45:25*
%MOMM*%
%LPD*%
G01*
G04 APERTURE LIST*
G04 Aperture macros list*
%AMRoundRect*
0 Rectangle with rounded corners*
0 $1 Rounding radius*
0 $2 $3 $4 $5 $6 $7 $8 $9 X,Y pos of 4 corners*
0 Add a 4 corners polygon primitive as box body*
4,1,4,$2,$3,$4,$5,$6,$7,$8,$9,$2,$3,0*
0 Add four circle primitives for the rounded corners*
1,1,$1+$1,$2,$3*
1,1,$1+$1,$4,$5*
1,1,$1+$1,$6,$7*
1,1,$1+$1,$8,$9*
0 Add four rect primitives between the rounded corners*
20,1,$1+$1,$2,$3,$4,$5,0*
20,1,$1+$1,$4,$5,$6,$7,0*
20,1,$1+$1,$6,$7,$8,$9,0*
20,1,$1+$1,$8,$9,$2,$3,0*%
G04 Aperture macros list end*
%ADD10RoundRect,0.150000X-0.587500X-0.150000X0.587500X-0.150000X0.587500X0.150000X-0.587500X0.150000X0*%
%ADD11RoundRect,0.150000X0.150000X0.625000X-0.150000X0.625000X-0.150000X-0.625000X0.150000X-0.625000X0*%
%ADD12RoundRect,0.250000X0.350000X0.650000X-0.350000X0.650000X-0.350000X-0.650000X0.350000X-0.650000X0*%
%ADD13RoundRect,0.237500X0.300000X0.237500X-0.300000X0.237500X-0.300000X-0.237500X0.300000X-0.237500X0*%
%ADD14RoundRect,0.150000X0.587500X0.150000X-0.587500X0.150000X-0.587500X-0.150000X0.587500X-0.150000X0*%
%ADD15RoundRect,0.237500X0.287500X0.237500X-0.287500X0.237500X-0.287500X-0.237500X0.287500X-0.237500X0*%
%ADD16RoundRect,0.250000X-0.450000X0.325000X-0.450000X-0.325000X0.450000X-0.325000X0.450000X0.325000X0*%
%ADD17RoundRect,0.150000X-0.150000X-0.625000X0.150000X-0.625000X0.150000X0.625000X-0.150000X0.625000X0*%
%ADD18RoundRect,0.250000X-0.350000X-0.650000X0.350000X-0.650000X0.350000X0.650000X-0.350000X0.650000X0*%
%ADD19RoundRect,0.250000X0.325000X0.450000X-0.325000X0.450000X-0.325000X-0.450000X0.325000X-0.450000X0*%
%ADD20RoundRect,0.100000X-0.637500X-0.100000X0.637500X-0.100000X0.637500X0.100000X-0.637500X0.100000X0*%
G04 APERTURE END LIST*
D10*
%TO.C,Q5*%
X147210000Y-96648621D03*
X147210000Y-98548621D03*
X149085000Y-97598621D03*
%TD*%
D11*
%TO.C,J3*%
X141760000Y-105773621D03*
X140760000Y-105773621D03*
X139760000Y-105773621D03*
X138760000Y-105773621D03*
D12*
X143060000Y-108298621D03*
X137460000Y-108298621D03*
%TD*%
D13*
%TO.C,C2*%
X167222500Y-96498621D03*
X165497500Y-96498621D03*
%TD*%
D14*
%TO.C,Q3*%
X156997500Y-103748621D03*
X156997500Y-101848621D03*
X155122500Y-102798621D03*
%TD*%
D15*
%TO.C,D1*%
X150615000Y-89338621D03*
X148865000Y-89338621D03*
%TD*%
D10*
%TO.C,Q4*%
X139310000Y-96648621D03*
X139310000Y-98548621D03*
X141185000Y-97598621D03*
%TD*%
D11*
%TO.C,J5*%
X157560000Y-105773621D03*
X156560000Y-105773621D03*
X155560000Y-105773621D03*
X154560000Y-105773621D03*
D12*
X158860000Y-108298621D03*
X153260000Y-108298621D03*
%TD*%
D16*
%TO.C,C3*%
X135060000Y-100273621D03*
X135060000Y-102323621D03*
%TD*%
D17*
%TO.C,J8*%
X154560000Y-94623621D03*
X155560000Y-94623621D03*
X156560000Y-94623621D03*
X157560000Y-94623621D03*
D18*
X153260000Y-92098621D03*
X158860000Y-92098621D03*
%TD*%
D19*
%TO.C,C1*%
X146335000Y-89398621D03*
X144285000Y-89398621D03*
%TD*%
D17*
%TO.C,J6*%
X138760000Y-94623621D03*
X139760000Y-94623621D03*
X140760000Y-94623621D03*
X141760000Y-94623621D03*
D18*
X137460000Y-92098621D03*
X143060000Y-92098621D03*
%TD*%
D14*
%TO.C,Q1*%
X141197500Y-103748621D03*
X141197500Y-101848621D03*
X139322500Y-102798621D03*
%TD*%
D20*
%TO.C,U1*%
X161497500Y-97823621D03*
X161497500Y-98473621D03*
X161497500Y-99123621D03*
X161497500Y-99773621D03*
X161497500Y-100423621D03*
X161497500Y-101073621D03*
X161497500Y-101723621D03*
X161497500Y-102373621D03*
X167222500Y-102373621D03*
X167222500Y-101723621D03*
X167222500Y-101073621D03*
X167222500Y-100423621D03*
X167222500Y-99773621D03*
X167222500Y-99123621D03*
X167222500Y-98473621D03*
X167222500Y-97823621D03*
%TD*%
D10*
%TO.C,Q6*%
X155110000Y-96648621D03*
X155110000Y-98548621D03*
X156985000Y-97598621D03*
%TD*%
D11*
%TO.C,J4*%
X149660000Y-105773621D03*
X148660000Y-105773621D03*
X147660000Y-105773621D03*
X146660000Y-105773621D03*
D12*
X150960000Y-108298621D03*
X145360000Y-108298621D03*
%TD*%
D17*
%TO.C,J7*%
X146660000Y-94623621D03*
X147660000Y-94623621D03*
X148660000Y-94623621D03*
X149660000Y-94623621D03*
D18*
X145360000Y-92098621D03*
X150960000Y-92098621D03*
%TD*%
D14*
%TO.C,Q2*%
X149097500Y-103748621D03*
X149097500Y-101848621D03*
X147222500Y-102798621D03*
%TD*%
M02*
