%TF.GenerationSoftware,KiCad,Pcbnew,7.0.5*%
%TF.CreationDate,2023-06-05T00:45:25-04:00*%
%TF.ProjectId,BURNING_R,4255524e-494e-4475-9f52-2e6b69636164,rev?*%
%TF.SameCoordinates,Original*%
%TF.FileFunction,Copper,L1,Top*%
%TF.FilePolarity,Positive*%
%FSLAX46Y46*%
G04 Gerber Fmt 4.6, Leading zero omitted, Abs format (unit mm)*
G04 Created by KiCad (PCBNEW 7.0.5) date 2023-06-05 00:45:25*
%MOMM*%
%LPD*%
G01*
G04 APERTURE LIST*
G04 Aperture macros list*
%AMRoundRect*
0 Rectangle with rounded corners*
0 $1 Rounding radius*
0 $2 $3 $4 $5 $6 $7 $8 $9 X,Y pos of 4 corners*
0 Add a 4 corners polygon primitive as box body*
4,1,4,$2,$3,$4,$5,$6,$7,$8,$9,$2,$3,0*
0 Add four circle primitives for the rounded corners*
1,1,$1+$1,$2,$3*
1,1,$1+$1,$4,$5*
1,1,$1+$1,$6,$7*
1,1,$1+$1,$8,$9*
0 Add four rect primitives between the rounded corners*
20,1,$1+$1,$2,$3,$4,$5,0*
20,1,$1+$1,$4,$5,$6,$7,0*
20,1,$1+$1,$6,$7,$8,$9,0*
20,1,$1+$1,$8,$9,$2,$3,0*%
G04 Aperture macros list end*
%TA.AperFunction,SMDPad,CuDef*%
%ADD10RoundRect,0.150000X-0.587500X-0.150000X0.587500X-0.150000X0.587500X0.150000X-0.587500X0.150000X0*%
%TD*%
%TA.AperFunction,SMDPad,CuDef*%
%ADD11RoundRect,0.150000X0.150000X0.625000X-0.150000X0.625000X-0.150000X-0.625000X0.150000X-0.625000X0*%
%TD*%
%TA.AperFunction,SMDPad,CuDef*%
%ADD12RoundRect,0.250000X0.350000X0.650000X-0.350000X0.650000X-0.350000X-0.650000X0.350000X-0.650000X0*%
%TD*%
%TA.AperFunction,SMDPad,CuDef*%
%ADD13RoundRect,0.237500X0.300000X0.237500X-0.300000X0.237500X-0.300000X-0.237500X0.300000X-0.237500X0*%
%TD*%
%TA.AperFunction,SMDPad,CuDef*%
%ADD14RoundRect,0.150000X0.587500X0.150000X-0.587500X0.150000X-0.587500X-0.150000X0.587500X-0.150000X0*%
%TD*%
%TA.AperFunction,SMDPad,CuDef*%
%ADD15RoundRect,0.237500X0.287500X0.237500X-0.287500X0.237500X-0.287500X-0.237500X0.287500X-0.237500X0*%
%TD*%
%TA.AperFunction,ComponentPad*%
%ADD16R,1.700000X1.700000*%
%TD*%
%TA.AperFunction,ComponentPad*%
%ADD17O,1.700000X1.700000*%
%TD*%
%TA.AperFunction,SMDPad,CuDef*%
%ADD18RoundRect,0.250000X-0.450000X0.325000X-0.450000X-0.325000X0.450000X-0.325000X0.450000X0.325000X0*%
%TD*%
%TA.AperFunction,SMDPad,CuDef*%
%ADD19RoundRect,0.150000X-0.150000X-0.625000X0.150000X-0.625000X0.150000X0.625000X-0.150000X0.625000X0*%
%TD*%
%TA.AperFunction,SMDPad,CuDef*%
%ADD20RoundRect,0.250000X-0.350000X-0.650000X0.350000X-0.650000X0.350000X0.650000X-0.350000X0.650000X0*%
%TD*%
%TA.AperFunction,SMDPad,CuDef*%
%ADD21RoundRect,0.250000X0.325000X0.450000X-0.325000X0.450000X-0.325000X-0.450000X0.325000X-0.450000X0*%
%TD*%
%TA.AperFunction,ComponentPad*%
%ADD22R,1.350000X1.350000*%
%TD*%
%TA.AperFunction,ComponentPad*%
%ADD23O,1.350000X1.350000*%
%TD*%
%TA.AperFunction,SMDPad,CuDef*%
%ADD24RoundRect,0.100000X-0.637500X-0.100000X0.637500X-0.100000X0.637500X0.100000X-0.637500X0.100000X0*%
%TD*%
%TA.AperFunction,ViaPad*%
%ADD25C,0.660400*%
%TD*%
%TA.AperFunction,Conductor*%
%ADD26C,0.254000*%
%TD*%
%TA.AperFunction,Conductor*%
%ADD27C,0.152400*%
%TD*%
%TA.AperFunction,Conductor*%
%ADD28C,1.524000*%
%TD*%
%TA.AperFunction,Conductor*%
%ADD29C,1.270000*%
%TD*%
G04 APERTURE END LIST*
D10*
%TO.P,Q5,1,D*%
%TO.N,/BR_5*%
X147210000Y-96648621D03*
%TO.P,Q5,2,G*%
%TO.N,/BR_5_EN*%
X147210000Y-98548621D03*
%TO.P,Q5,3,S*%
%TO.N,GND*%
X149085000Y-97598621D03*
%TD*%
D11*
%TO.P,J3,1*%
%TO.N,/BR_1*%
X141760000Y-105773621D03*
%TO.P,J3,2*%
X140760000Y-105773621D03*
%TO.P,J3,3*%
%TO.N,/BAT_BR*%
X139760000Y-105773621D03*
%TO.P,J3,4*%
X138760000Y-105773621D03*
D12*
%TO.P,J3,MP*%
%TO.N,GND*%
X143060000Y-108298621D03*
X137460000Y-108298621D03*
%TD*%
D13*
%TO.P,C2,1*%
%TO.N,VCC*%
X167222500Y-96498621D03*
%TO.P,C2,2*%
%TO.N,GND*%
X165497500Y-96498621D03*
%TD*%
D14*
%TO.P,Q3,1,D*%
%TO.N,/BR_3*%
X156997500Y-103748621D03*
%TO.P,Q3,2,G*%
%TO.N,/BR_3_EN*%
X156997500Y-101848621D03*
%TO.P,Q3,3,S*%
%TO.N,GND*%
X155122500Y-102798621D03*
%TD*%
D15*
%TO.P,D1,1,K*%
%TO.N,Net-(D1-K)*%
X150615000Y-89338621D03*
%TO.P,D1,2,A*%
%TO.N,+5V*%
X148865000Y-89338621D03*
%TD*%
D10*
%TO.P,Q4,1,D*%
%TO.N,/BR_4*%
X139310000Y-96648621D03*
%TO.P,Q4,2,G*%
%TO.N,/BR_4_EN*%
X139310000Y-98548621D03*
%TO.P,Q4,3,S*%
%TO.N,GND*%
X141185000Y-97598621D03*
%TD*%
D16*
%TO.P,J1,1,Pin_1*%
%TO.N,/VBAT*%
X143810000Y-86465599D03*
D17*
%TO.P,J1,2,Pin_2*%
%TO.N,/~{EN}*%
X143810000Y-83925599D03*
%TO.P,J1,3,Pin_3*%
%TO.N,VCC*%
X146350000Y-86465599D03*
%TO.P,J1,4,Pin_4*%
%TO.N,/VBAT_OK*%
X146350000Y-83925599D03*
%TO.P,J1,5,Pin_5*%
%TO.N,/~{I2C_RESET}*%
X148890000Y-86465599D03*
%TO.P,J1,6,Pin_6*%
%TO.N,+5V*%
X148890000Y-83925599D03*
%TO.P,J1,7,Pin_7*%
%TO.N,/RXD*%
X151430000Y-86465599D03*
%TO.P,J1,8,Pin_8*%
%TO.N,GND*%
X151430000Y-83925599D03*
%TO.P,J1,9,Pin_9*%
%TO.N,/TXD*%
X153970000Y-86465599D03*
%TO.P,J1,10,Pin_10*%
%TO.N,GND*%
X153970000Y-83925599D03*
%TO.P,J1,11,Pin_11*%
%TO.N,/SDA*%
X156510000Y-86465599D03*
%TO.P,J1,12,Pin_12*%
%TO.N,/SCL*%
X156510000Y-83925599D03*
%TD*%
D11*
%TO.P,J5,1*%
%TO.N,/BR_3*%
X157560000Y-105773621D03*
%TO.P,J5,2*%
X156560000Y-105773621D03*
%TO.P,J5,3*%
%TO.N,/BAT_BR*%
X155560000Y-105773621D03*
%TO.P,J5,4*%
X154560000Y-105773621D03*
D12*
%TO.P,J5,MP*%
%TO.N,GND*%
X158860000Y-108298621D03*
X153260000Y-108298621D03*
%TD*%
D18*
%TO.P,C3,1*%
%TO.N,/BAT_BR*%
X135060000Y-100273621D03*
%TO.P,C3,2*%
%TO.N,GND*%
X135060000Y-102323621D03*
%TD*%
D19*
%TO.P,J8,1*%
%TO.N,/BR_6*%
X154560000Y-94623621D03*
%TO.P,J8,2*%
X155560000Y-94623621D03*
%TO.P,J8,3*%
%TO.N,/BAT_BR*%
X156560000Y-94623621D03*
%TO.P,J8,4*%
X157560000Y-94623621D03*
D20*
%TO.P,J8,MP*%
%TO.N,GND*%
X153260000Y-92098621D03*
X158860000Y-92098621D03*
%TD*%
D21*
%TO.P,C1,1*%
%TO.N,VCC*%
X146335000Y-89398621D03*
%TO.P,C1,2*%
%TO.N,GND*%
X144285000Y-89398621D03*
%TD*%
D19*
%TO.P,J6,1*%
%TO.N,/BR_4*%
X138760000Y-94623621D03*
%TO.P,J6,2*%
X139760000Y-94623621D03*
%TO.P,J6,3*%
%TO.N,/BAT_BR*%
X140760000Y-94623621D03*
%TO.P,J6,4*%
X141760000Y-94623621D03*
D20*
%TO.P,J6,MP*%
%TO.N,GND*%
X137460000Y-92098621D03*
X143060000Y-92098621D03*
%TD*%
D16*
%TO.P,J2,1,Pin_1*%
%TO.N,/P1*%
X156510000Y-113743621D03*
D17*
%TO.P,J2,2,Pin_2*%
%TO.N,unconnected-(J2-Pin_2-Pad2)*%
X156510000Y-116283621D03*
%TO.P,J2,3,Pin_3*%
%TO.N,/P2*%
X153970000Y-113743621D03*
%TO.P,J2,4,Pin_4*%
%TO.N,unconnected-(J2-Pin_4-Pad4)*%
X153970000Y-116283621D03*
%TO.P,J2,5,Pin_5*%
%TO.N,unconnected-(J2-Pin_5-Pad5)*%
X151430000Y-113743621D03*
%TO.P,J2,6,Pin_6*%
%TO.N,unconnected-(J2-Pin_6-Pad6)*%
X151430000Y-116283621D03*
%TO.P,J2,7,Pin_7*%
%TO.N,unconnected-(J2-Pin_7-Pad7)*%
X148890000Y-113743621D03*
%TO.P,J2,8,Pin_8*%
%TO.N,unconnected-(J2-Pin_8-Pad8)*%
X148890000Y-116283621D03*
%TO.P,J2,9,Pin_9*%
%TO.N,unconnected-(J2-Pin_9-Pad9)*%
X146350000Y-113743621D03*
%TO.P,J2,10,Pin_10*%
%TO.N,GND*%
X146350000Y-116283621D03*
%TO.P,J2,11,Pin_11*%
%TO.N,/BAT_BR*%
X143810000Y-113743621D03*
%TO.P,J2,12,Pin_12*%
%TO.N,GND*%
X143810000Y-116283621D03*
%TD*%
D14*
%TO.P,Q1,1,D*%
%TO.N,/BR_1*%
X141197500Y-103748621D03*
%TO.P,Q1,2,G*%
%TO.N,/BR_1_EN*%
X141197500Y-101848621D03*
%TO.P,Q1,3,S*%
%TO.N,GND*%
X139322500Y-102798621D03*
%TD*%
D22*
%TO.P,J9,1,Pin_1*%
%TO.N,GND*%
X132460000Y-102276121D03*
D23*
%TO.P,J9,2,Pin_2*%
%TO.N,/BAT_BR*%
X132460000Y-100276121D03*
%TD*%
D24*
%TO.P,U1,1,A0*%
%TO.N,GND*%
X161497500Y-97823621D03*
%TO.P,U1,2,A1*%
X161497500Y-98473621D03*
%TO.P,U1,3,A2*%
X161497500Y-99123621D03*
%TO.P,U1,4,P0*%
%TO.N,/BR_4_EN*%
X161497500Y-99773621D03*
%TO.P,U1,5,P1*%
%TO.N,/BR_5_EN*%
X161497500Y-100423621D03*
%TO.P,U1,6,P2*%
%TO.N,/BR_6_EN*%
X161497500Y-101073621D03*
%TO.P,U1,7,P3*%
%TO.N,/BR_3_EN*%
X161497500Y-101723621D03*
%TO.P,U1,8,GND*%
%TO.N,GND*%
X161497500Y-102373621D03*
%TO.P,U1,9,P4*%
%TO.N,/BR_2_EN*%
X167222500Y-102373621D03*
%TO.P,U1,10,P5*%
%TO.N,/BR_1_EN*%
X167222500Y-101723621D03*
%TO.P,U1,11,P6*%
%TO.N,/P1*%
X167222500Y-101073621D03*
%TO.P,U1,12,P7*%
%TO.N,/P2*%
X167222500Y-100423621D03*
%TO.P,U1,13,~{INT}*%
%TO.N,unconnected-(U1-~{INT}-Pad13)*%
X167222500Y-99773621D03*
%TO.P,U1,14,SCL*%
%TO.N,/SCL*%
X167222500Y-99123621D03*
%TO.P,U1,15,SDA*%
%TO.N,/SDA*%
X167222500Y-98473621D03*
%TO.P,U1,16,VDD*%
%TO.N,VCC*%
X167222500Y-97823621D03*
%TD*%
D10*
%TO.P,Q6,1,D*%
%TO.N,/BR_6*%
X155110000Y-96648621D03*
%TO.P,Q6,2,G*%
%TO.N,/BR_6_EN*%
X155110000Y-98548621D03*
%TO.P,Q6,3,S*%
%TO.N,GND*%
X156985000Y-97598621D03*
%TD*%
D11*
%TO.P,J4,1*%
%TO.N,/BR_2*%
X149660000Y-105773621D03*
%TO.P,J4,2*%
X148660000Y-105773621D03*
%TO.P,J4,3*%
%TO.N,/BAT_BR*%
X147660000Y-105773621D03*
%TO.P,J4,4*%
X146660000Y-105773621D03*
D12*
%TO.P,J4,MP*%
%TO.N,GND*%
X150960000Y-108298621D03*
X145360000Y-108298621D03*
%TD*%
D19*
%TO.P,J7,1*%
%TO.N,/BR_5*%
X146660000Y-94623621D03*
%TO.P,J7,2*%
X147660000Y-94623621D03*
%TO.P,J7,3*%
%TO.N,/BAT_BR*%
X148660000Y-94623621D03*
%TO.P,J7,4*%
X149660000Y-94623621D03*
D20*
%TO.P,J7,MP*%
%TO.N,GND*%
X145360000Y-92098621D03*
X150960000Y-92098621D03*
%TD*%
D14*
%TO.P,Q2,1,D*%
%TO.N,/BR_2*%
X149097500Y-103748621D03*
%TO.P,Q2,2,G*%
%TO.N,/BR_2_EN*%
X149097500Y-101848621D03*
%TO.P,Q2,3,S*%
%TO.N,GND*%
X147222500Y-102798621D03*
%TD*%
D25*
%TO.N,GND*%
X134160000Y-109198621D03*
X144160000Y-105198621D03*
X140160000Y-85198621D03*
X134160000Y-111198621D03*
X134160000Y-91198621D03*
X152160000Y-118198621D03*
X162160000Y-87198621D03*
X164160000Y-109198621D03*
X150160000Y-82198621D03*
X148160000Y-111198621D03*
X150160000Y-111198621D03*
X140160000Y-89198621D03*
X136160000Y-89198621D03*
X142160000Y-89198621D03*
X138160000Y-85198621D03*
X138160000Y-89198621D03*
X166160000Y-89198621D03*
X151160000Y-98698621D03*
X140160000Y-111198621D03*
X152160000Y-111198621D03*
X136160000Y-113198621D03*
X148160000Y-120198621D03*
X144160000Y-107198621D03*
X140160000Y-91198621D03*
X132160000Y-95198621D03*
X152160000Y-120198621D03*
X138160000Y-87198621D03*
X146160000Y-82198621D03*
X140160000Y-109198621D03*
X134160000Y-107198621D03*
X146160000Y-118198621D03*
X156160000Y-82198621D03*
X162160000Y-105198621D03*
X134160000Y-87198621D03*
X134160000Y-93198621D03*
X152160000Y-107198621D03*
X136160000Y-93198621D03*
X138160000Y-111198621D03*
X154160000Y-82198621D03*
X162160000Y-111198621D03*
X152160000Y-105198621D03*
X132160000Y-97198621D03*
X136160000Y-105198621D03*
X162160000Y-113198621D03*
X134160000Y-105198621D03*
X136160000Y-111198621D03*
X146160000Y-111198621D03*
X136160000Y-87198621D03*
X134160000Y-95198621D03*
X142160000Y-87198621D03*
X154160000Y-118198621D03*
X164160000Y-111198621D03*
X148160000Y-82198621D03*
X134160000Y-113198621D03*
X162160000Y-91198621D03*
X160160000Y-85198621D03*
X136160000Y-109198621D03*
X142160000Y-85198621D03*
X132160000Y-105198621D03*
X156160000Y-109198621D03*
X164160000Y-93198621D03*
X166160000Y-87198621D03*
X160160000Y-87198621D03*
X162160000Y-85198621D03*
X136160000Y-91198621D03*
X160160000Y-107198621D03*
X148160000Y-80198621D03*
X156160000Y-107198621D03*
X144160000Y-82198621D03*
X148160000Y-118198621D03*
X156160000Y-118198621D03*
X138160000Y-115198621D03*
X143160000Y-98698621D03*
X164160000Y-95198621D03*
X155160000Y-91198621D03*
X164160000Y-87198621D03*
X168160000Y-93198621D03*
X162160000Y-115198621D03*
X136160000Y-107198621D03*
X134160000Y-89198621D03*
X168160000Y-107198621D03*
X162160000Y-93198621D03*
X134160000Y-97198621D03*
X132160000Y-93198621D03*
X138160000Y-113198621D03*
X164160000Y-113198621D03*
X160160000Y-115198621D03*
X152160000Y-82198621D03*
X150160000Y-118198621D03*
X140160000Y-113198621D03*
X166160000Y-91198621D03*
X144160000Y-118198621D03*
X164160000Y-89198621D03*
X152160000Y-80198621D03*
X144160000Y-111198621D03*
X140160000Y-87198621D03*
X140160000Y-115198621D03*
X143160000Y-102198621D03*
X160160000Y-91198621D03*
X151160000Y-102198621D03*
X160160000Y-105198621D03*
X148160000Y-109198621D03*
X160160000Y-113198621D03*
X132160000Y-107198621D03*
X136160000Y-95198621D03*
%TO.N,VCC*%
X155360000Y-89398621D03*
X152660000Y-89398621D03*
%TO.N,/SDA*%
X165685000Y-98473621D03*
%TO.N,/SCL*%
X164085000Y-98698621D03*
%TO.N,/BR_1_EN*%
X141220000Y-101848621D03*
X163760000Y-103973621D03*
%TO.N,/BR_2_EN*%
X149110000Y-101858621D03*
X165485000Y-103373621D03*
%TO.N,/BR_3_EN*%
X163010000Y-101898621D03*
X157000000Y-101828621D03*
%TO.N,/BR_4_EN*%
X163035000Y-99773621D03*
X139317500Y-98548621D03*
%TO.N,/BR_5_EN*%
X147207500Y-98548621D03*
X163860000Y-100223621D03*
%TO.N,/BR_6_EN*%
X155117500Y-98548621D03*
X163785000Y-101248621D03*
%TO.N,/P1*%
X168630000Y-101438621D03*
%TO.N,/P2*%
X165550000Y-100898621D03*
%TO.N,Net-(D1-K)*%
X150610000Y-89338621D03*
%TD*%
D26*
%TO.N,VCC*%
X147355000Y-90418621D02*
X151640000Y-90418621D01*
X146350000Y-86465599D02*
X146350000Y-89383621D01*
X152660000Y-89398621D02*
X155360000Y-89398621D01*
X146350000Y-89383621D02*
X146335000Y-89398621D01*
X155360000Y-89398621D02*
X162060000Y-89398621D01*
X167222500Y-97823621D02*
X167222500Y-96498621D01*
X167222500Y-94561121D02*
X162060000Y-89398621D01*
X146335000Y-89398621D02*
X147355000Y-90418621D01*
X151640000Y-90418621D02*
X152660000Y-89398621D01*
X167222500Y-96498621D02*
X167222500Y-94561121D01*
D27*
%TO.N,+5V*%
X150160000Y-85195599D02*
X150160000Y-88043621D01*
X150160000Y-88043621D02*
X148865000Y-89338621D01*
X148890000Y-83925599D02*
X150160000Y-85195599D01*
%TO.N,/SDA*%
X167222500Y-98473621D02*
X165685000Y-98473621D01*
%TO.N,/SCL*%
X164510000Y-99123621D02*
X164085000Y-98698621D01*
X167222500Y-99123621D02*
X164510000Y-99123621D01*
D28*
%TO.N,/BAT_BR*%
X144860000Y-100273621D02*
X152660000Y-100273621D01*
D29*
X144860000Y-103973621D02*
X146660000Y-105773621D01*
X152660000Y-100273621D02*
X152660000Y-103873621D01*
X144860000Y-97723621D02*
X141760000Y-94623621D01*
X144860000Y-100273621D02*
X144860000Y-103973621D01*
X137560000Y-100273621D02*
X137560000Y-104573621D01*
D28*
X137560000Y-100273621D02*
X144860000Y-100273621D01*
D29*
X158960000Y-96023621D02*
X157560000Y-94623621D01*
D28*
X152660000Y-100273621D02*
X158235000Y-100273621D01*
D29*
X152660000Y-103873621D02*
X154560000Y-105773621D01*
X135057500Y-100276121D02*
X135060000Y-100273621D01*
X137560000Y-104573621D02*
X138760000Y-105773621D01*
X158235000Y-100273621D02*
X158960000Y-99548621D01*
D28*
X132460000Y-100276121D02*
X135057500Y-100276121D01*
D29*
X144860000Y-100273621D02*
X144860000Y-97723621D01*
X158960000Y-99548621D02*
X158960000Y-96023621D01*
X152660000Y-100273621D02*
X152660000Y-97623621D01*
X152660000Y-97623621D02*
X149660000Y-94623621D01*
D28*
X135060000Y-100273621D02*
X137560000Y-100273621D01*
D27*
%TO.N,/BR_1_EN*%
X167222500Y-101723621D02*
X166010000Y-101723621D01*
X166010000Y-101723621D02*
X163760000Y-103973621D01*
%TO.N,/BR_2_EN*%
X167222500Y-102373621D02*
X166485000Y-102373621D01*
X166485000Y-102373621D02*
X165485000Y-103373621D01*
%TO.N,/BR_3_EN*%
X161497500Y-101723621D02*
X162835000Y-101723621D01*
X162835000Y-101723621D02*
X163010000Y-101898621D01*
%TO.N,/BR_4_EN*%
X161497500Y-99773621D02*
X163035000Y-99773621D01*
%TO.N,/BR_5_EN*%
X163660000Y-100423621D02*
X163860000Y-100223621D01*
X161497500Y-100423621D02*
X163660000Y-100423621D01*
%TO.N,/BR_6_EN*%
X161497500Y-101073621D02*
X163610000Y-101073621D01*
X163610000Y-101073621D02*
X163785000Y-101248621D01*
%TO.N,/P1*%
X167222500Y-101073621D02*
X168265000Y-101073621D01*
X168265000Y-101073621D02*
X168630000Y-101438621D01*
%TO.N,/P2*%
X166025000Y-100423621D02*
X165550000Y-100898621D01*
X167222500Y-100423621D02*
X166025000Y-100423621D01*
%TD*%
%TA.AperFunction,Conductor*%
%TO.N,/BR_5*%
G36*
X148028601Y-93769186D02*
G01*
X148058665Y-93821257D01*
X148060000Y-93836521D01*
X148060000Y-97010721D01*
X148039435Y-97067222D01*
X147987364Y-97097286D01*
X147972100Y-97098621D01*
X146397900Y-97098621D01*
X146341399Y-97078056D01*
X146311335Y-97025985D01*
X146310000Y-97010721D01*
X146310000Y-93836521D01*
X146330565Y-93780020D01*
X146382636Y-93749956D01*
X146397900Y-93748621D01*
X147972100Y-93748621D01*
X148028601Y-93769186D01*
G37*
%TD.AperFunction*%
%TD*%
%TA.AperFunction,Conductor*%
%TO.N,/BR_6*%
G36*
X155928601Y-93819186D02*
G01*
X155958665Y-93871257D01*
X155960000Y-93886521D01*
X155960000Y-97060721D01*
X155939435Y-97117222D01*
X155887364Y-97147286D01*
X155872100Y-97148621D01*
X154297900Y-97148621D01*
X154241399Y-97128056D01*
X154211335Y-97075985D01*
X154210000Y-97060721D01*
X154210000Y-93886521D01*
X154230565Y-93830020D01*
X154282636Y-93799956D01*
X154297900Y-93798621D01*
X155872100Y-93798621D01*
X155928601Y-93819186D01*
G37*
%TD.AperFunction*%
%TD*%
%TA.AperFunction,Conductor*%
%TO.N,/BAT_BR*%
G36*
X157928601Y-93769186D02*
G01*
X157958665Y-93821257D01*
X157960000Y-93836521D01*
X157960000Y-95410721D01*
X157939435Y-95467222D01*
X157887364Y-95497286D01*
X157872100Y-95498621D01*
X156297900Y-95498621D01*
X156241399Y-95478056D01*
X156211335Y-95425985D01*
X156210000Y-95410721D01*
X156210000Y-93836521D01*
X156230565Y-93780020D01*
X156282636Y-93749956D01*
X156297900Y-93748621D01*
X157872100Y-93748621D01*
X157928601Y-93769186D01*
G37*
%TD.AperFunction*%
%TD*%
%TA.AperFunction,Conductor*%
%TO.N,GND*%
G36*
X150203946Y-77388502D02*
G01*
X169810750Y-88708494D01*
X169849399Y-88754554D01*
X169854700Y-88784618D01*
X169854700Y-111424599D01*
X169834135Y-111481100D01*
X169810750Y-111500723D01*
X150203949Y-122820715D01*
X150144735Y-122831156D01*
X150116049Y-122820715D01*
X149138254Y-122256185D01*
X146770601Y-120889220D01*
X148749884Y-120889220D01*
X148769115Y-121121316D01*
X148769116Y-121121322D01*
X148826286Y-121347080D01*
X148826289Y-121347088D01*
X148897987Y-121510541D01*
X148919840Y-121560361D01*
X148919844Y-121560367D01*
X149047215Y-121755325D01*
X149047216Y-121755327D01*
X149047220Y-121755331D01*
X149204954Y-121926676D01*
X149388740Y-122069722D01*
X149593563Y-122180567D01*
X149813837Y-122256187D01*
X149813839Y-122256187D01*
X149813841Y-122256188D01*
X150043550Y-122294520D01*
X150043554Y-122294520D01*
X150276450Y-122294520D01*
X150506158Y-122256188D01*
X150506158Y-122256187D01*
X150506163Y-122256187D01*
X150726437Y-122180567D01*
X150931260Y-122069722D01*
X151115046Y-121926676D01*
X151272780Y-121755331D01*
X151400160Y-121560361D01*
X151493712Y-121347084D01*
X151550884Y-121121317D01*
X151570116Y-120889220D01*
X151550884Y-120657123D01*
X151550883Y-120657117D01*
X151493713Y-120431359D01*
X151493710Y-120431351D01*
X151400164Y-120218089D01*
X151400160Y-120218079D01*
X151319435Y-120094520D01*
X151272784Y-120023114D01*
X151272783Y-120023112D01*
X151115050Y-119851768D01*
X151115048Y-119851767D01*
X151115046Y-119851764D01*
X150931260Y-119708718D01*
X150726437Y-119597873D01*
X150726433Y-119597871D01*
X150726430Y-119597870D01*
X150506167Y-119522254D01*
X150506158Y-119522251D01*
X150276450Y-119483920D01*
X150276446Y-119483920D01*
X150043554Y-119483920D01*
X150043550Y-119483920D01*
X149813841Y-119522251D01*
X149813832Y-119522254D01*
X149593569Y-119597870D01*
X149388740Y-119708718D01*
X149204949Y-119851768D01*
X149047216Y-120023112D01*
X149047215Y-120023114D01*
X148919844Y-120218072D01*
X148919835Y-120218089D01*
X148826289Y-120431351D01*
X148826286Y-120431359D01*
X148769116Y-120657117D01*
X148769115Y-120657123D01*
X148749884Y-120889220D01*
X146770601Y-120889220D01*
X138353527Y-116029620D01*
X142813001Y-116029620D01*
X142813002Y-116029621D01*
X143378884Y-116029621D01*
X143350507Y-116073777D01*
X143310000Y-116211732D01*
X143310000Y-116355510D01*
X143350507Y-116493465D01*
X143378884Y-116537621D01*
X142813002Y-116537621D01*
X142855840Y-116678841D01*
X142855840Y-116678843D01*
X142951281Y-116857399D01*
X143079717Y-117013899D01*
X143079721Y-117013903D01*
X143236221Y-117142339D01*
X143414778Y-117237780D01*
X143555999Y-117280619D01*
X143556000Y-117280619D01*
X143556000Y-116717295D01*
X143667685Y-116768301D01*
X143774237Y-116783621D01*
X143845763Y-116783621D01*
X143952315Y-116768301D01*
X144064000Y-116717295D01*
X144064000Y-117280619D01*
X144205220Y-117237780D01*
X144205222Y-117237780D01*
X144383778Y-117142339D01*
X144540278Y-117013903D01*
X144540282Y-117013899D01*
X144668718Y-116857399D01*
X144764159Y-116678843D01*
X144764159Y-116678841D01*
X144806998Y-116537621D01*
X144241116Y-116537621D01*
X144269493Y-116493465D01*
X144310000Y-116355510D01*
X144310000Y-116211732D01*
X144269493Y-116073777D01*
X144241116Y-116029621D01*
X144806998Y-116029621D01*
X144806998Y-116029620D01*
X145353001Y-116029620D01*
X145353002Y-116029621D01*
X145918884Y-116029621D01*
X145890507Y-116073777D01*
X145850000Y-116211732D01*
X145850000Y-116355510D01*
X145890507Y-116493465D01*
X145918884Y-116537621D01*
X145353002Y-116537621D01*
X145395840Y-116678841D01*
X145395840Y-116678843D01*
X145491281Y-116857399D01*
X145619717Y-117013899D01*
X145619721Y-117013903D01*
X145776221Y-117142339D01*
X145954778Y-117237780D01*
X146095999Y-117280619D01*
X146096000Y-117280618D01*
X146096000Y-116717295D01*
X146207685Y-116768301D01*
X146314237Y-116783621D01*
X146385763Y-116783621D01*
X146492315Y-116768301D01*
X146604000Y-116717295D01*
X146604000Y-117280619D01*
X146745220Y-117237780D01*
X146745222Y-117237780D01*
X146923778Y-117142339D01*
X147080278Y-117013903D01*
X147080282Y-117013899D01*
X147208718Y-116857399D01*
X147304159Y-116678843D01*
X147304159Y-116678841D01*
X147346998Y-116537621D01*
X146781116Y-116537621D01*
X146809493Y-116493465D01*
X146850000Y-116355510D01*
X146850000Y-116283621D01*
X147882247Y-116283621D01*
X147901612Y-116480230D01*
X147958957Y-116669269D01*
X147958958Y-116669271D01*
X148052084Y-116843499D01*
X148177411Y-116996210D01*
X148330122Y-117121537D01*
X148504350Y-117214663D01*
X148693397Y-117272010D01*
X148890000Y-117291374D01*
X149086603Y-117272010D01*
X149275650Y-117214663D01*
X149449878Y-117121537D01*
X149602589Y-116996210D01*
X149727916Y-116843499D01*
X149821042Y-116669271D01*
X149878389Y-116480224D01*
X149897753Y-116283621D01*
X150422247Y-116283621D01*
X150441612Y-116480230D01*
X150498957Y-116669269D01*
X150498958Y-116669271D01*
X150592084Y-116843499D01*
X150717411Y-116996210D01*
X150870122Y-117121537D01*
X151044350Y-117214663D01*
X151233397Y-117272010D01*
X151430000Y-117291374D01*
X151626603Y-117272010D01*
X151815650Y-117214663D01*
X151989878Y-117121537D01*
X152142589Y-116996210D01*
X152267916Y-116843499D01*
X152361042Y-116669271D01*
X152418389Y-116480224D01*
X152437753Y-116283621D01*
X152962247Y-116283621D01*
X152981612Y-116480230D01*
X153038957Y-116669269D01*
X153038958Y-116669271D01*
X153132084Y-116843499D01*
X153257411Y-116996210D01*
X153410122Y-117121537D01*
X153584350Y-117214663D01*
X153773397Y-117272010D01*
X153970000Y-117291374D01*
X154166603Y-117272010D01*
X154355650Y-117214663D01*
X154529878Y-117121537D01*
X154682589Y-116996210D01*
X154807916Y-116843499D01*
X154901042Y-116669271D01*
X154958389Y-116480224D01*
X154977753Y-116283621D01*
X155502247Y-116283621D01*
X155521612Y-116480230D01*
X155578957Y-116669269D01*
X155578958Y-116669271D01*
X155672084Y-116843499D01*
X155797411Y-116996210D01*
X155950122Y-117121537D01*
X156124350Y-117214663D01*
X156313397Y-117272010D01*
X156510000Y-117291374D01*
X156706603Y-117272010D01*
X156895650Y-117214663D01*
X157069878Y-117121537D01*
X157222589Y-116996210D01*
X157347916Y-116843499D01*
X157441042Y-116669271D01*
X157498389Y-116480224D01*
X157517753Y-116283621D01*
X157498389Y-116087018D01*
X157441042Y-115897971D01*
X157347916Y-115723743D01*
X157222589Y-115571032D01*
X157069878Y-115445705D01*
X156895650Y-115352579D01*
X156895649Y-115352578D01*
X156895648Y-115352578D01*
X156706609Y-115295233D01*
X156706604Y-115295232D01*
X156706603Y-115295232D01*
X156510000Y-115275868D01*
X156509999Y-115275868D01*
X156462657Y-115280530D01*
X156313397Y-115295232D01*
X156313395Y-115295232D01*
X156313390Y-115295233D01*
X156124351Y-115352578D01*
X155950121Y-115445705D01*
X155797413Y-115571030D01*
X155797409Y-115571034D01*
X155672084Y-115723742D01*
X155578957Y-115897972D01*
X155521612Y-116087011D01*
X155502247Y-116283621D01*
X154977753Y-116283621D01*
X154958389Y-116087018D01*
X154901042Y-115897971D01*
X154807916Y-115723743D01*
X154682589Y-115571032D01*
X154529878Y-115445705D01*
X154355650Y-115352579D01*
X154355649Y-115352578D01*
X154355648Y-115352578D01*
X154166609Y-115295233D01*
X154166604Y-115295232D01*
X154166603Y-115295232D01*
X153970000Y-115275868D01*
X153773397Y-115295232D01*
X153773395Y-115295232D01*
X153773390Y-115295233D01*
X153584351Y-115352578D01*
X153410121Y-115445705D01*
X153257413Y-115571030D01*
X153257409Y-115571034D01*
X153132084Y-115723742D01*
X153038957Y-115897972D01*
X152981612Y-116087011D01*
X152962247Y-116283621D01*
X152437753Y-116283621D01*
X152418389Y-116087018D01*
X152361042Y-115897971D01*
X152267916Y-115723743D01*
X152142589Y-115571032D01*
X151989878Y-115445705D01*
X151815650Y-115352579D01*
X151815649Y-115352578D01*
X151815648Y-115352578D01*
X151626609Y-115295233D01*
X151626604Y-115295232D01*
X151626603Y-115295232D01*
X151430000Y-115275868D01*
X151429999Y-115275868D01*
X151382657Y-115280530D01*
X151233397Y-115295232D01*
X151233395Y-115295232D01*
X151233390Y-115295233D01*
X151044351Y-115352578D01*
X150870121Y-115445705D01*
X150717413Y-115571030D01*
X150717409Y-115571034D01*
X150592084Y-115723742D01*
X150498957Y-115897972D01*
X150441612Y-116087011D01*
X150422247Y-116283621D01*
X149897753Y-116283621D01*
X149878389Y-116087018D01*
X149821042Y-115897971D01*
X149727916Y-115723743D01*
X149602589Y-115571032D01*
X149449878Y-115445705D01*
X149275650Y-115352579D01*
X149275649Y-115352578D01*
X149275648Y-115352578D01*
X149086609Y-115295233D01*
X149086604Y-115295232D01*
X149086603Y-115295232D01*
X148890000Y-115275868D01*
X148889999Y-115275868D01*
X148842657Y-115280530D01*
X148693397Y-115295232D01*
X148693395Y-115295232D01*
X148693390Y-115295233D01*
X148504351Y-115352578D01*
X148330121Y-115445705D01*
X148177413Y-115571030D01*
X148177409Y-115571034D01*
X148052084Y-115723742D01*
X147958957Y-115897972D01*
X147901612Y-116087011D01*
X147882247Y-116283621D01*
X146850000Y-116283621D01*
X146850000Y-116211732D01*
X146809493Y-116073777D01*
X146781116Y-116029621D01*
X147346998Y-116029621D01*
X147346998Y-116029620D01*
X147304159Y-115888400D01*
X147304159Y-115888398D01*
X147208718Y-115709842D01*
X147080282Y-115553342D01*
X147080278Y-115553338D01*
X146923778Y-115424902D01*
X146745225Y-115329463D01*
X146604000Y-115286622D01*
X146604000Y-115849946D01*
X146492315Y-115798941D01*
X146385763Y-115783621D01*
X146314237Y-115783621D01*
X146207685Y-115798941D01*
X146096000Y-115849946D01*
X146096000Y-115286622D01*
X145954774Y-115329463D01*
X145776221Y-115424902D01*
X145619721Y-115553338D01*
X145619717Y-115553342D01*
X145491281Y-115709842D01*
X145395840Y-115888398D01*
X145395840Y-115888400D01*
X145353001Y-116029620D01*
X144806998Y-116029620D01*
X144764159Y-115888400D01*
X144764159Y-115888398D01*
X144668718Y-115709842D01*
X144540282Y-115553342D01*
X144540278Y-115553338D01*
X144383778Y-115424902D01*
X144205225Y-115329463D01*
X144064000Y-115286622D01*
X144064000Y-115849946D01*
X143952315Y-115798941D01*
X143845763Y-115783621D01*
X143774237Y-115783621D01*
X143667685Y-115798941D01*
X143556000Y-115849946D01*
X143556000Y-115286622D01*
X143414774Y-115329463D01*
X143236221Y-115424902D01*
X143079721Y-115553338D01*
X143079717Y-115553342D01*
X142951281Y-115709842D01*
X142855840Y-115888398D01*
X142855840Y-115888400D01*
X142813001Y-116029620D01*
X138353527Y-116029620D01*
X134394061Y-113743621D01*
X142802247Y-113743621D01*
X142821612Y-113940230D01*
X142878957Y-114129269D01*
X142878958Y-114129271D01*
X142972084Y-114303499D01*
X143097411Y-114456210D01*
X143250122Y-114581537D01*
X143424350Y-114674663D01*
X143613397Y-114732010D01*
X143810000Y-114751374D01*
X144006603Y-114732010D01*
X144195650Y-114674663D01*
X144369878Y-114581537D01*
X144522589Y-114456210D01*
X144647916Y-114303499D01*
X144741042Y-114129271D01*
X144798389Y-113940224D01*
X144817753Y-113743621D01*
X145342247Y-113743621D01*
X145361612Y-113940230D01*
X145418957Y-114129269D01*
X145418958Y-114129271D01*
X145512084Y-114303499D01*
X145637411Y-114456210D01*
X145790122Y-114581537D01*
X145964350Y-114674663D01*
X146153397Y-114732010D01*
X146350000Y-114751374D01*
X146546603Y-114732010D01*
X146735650Y-114674663D01*
X146909878Y-114581537D01*
X147062589Y-114456210D01*
X147187916Y-114303499D01*
X147281042Y-114129271D01*
X147338389Y-113940224D01*
X147357753Y-113743621D01*
X147357753Y-113743620D01*
X147882247Y-113743620D01*
X147901612Y-113940230D01*
X147958957Y-114129269D01*
X147958958Y-114129271D01*
X148052084Y-114303499D01*
X148177411Y-114456210D01*
X148330122Y-114581537D01*
X148504350Y-114674663D01*
X148693397Y-114732010D01*
X148890000Y-114751374D01*
X149086603Y-114732010D01*
X149275650Y-114674663D01*
X149449878Y-114581537D01*
X149602589Y-114456210D01*
X149727916Y-114303499D01*
X149821042Y-114129271D01*
X149878389Y-113940224D01*
X149897753Y-113743621D01*
X149897753Y-113743620D01*
X150422247Y-113743620D01*
X150441612Y-113940230D01*
X150498957Y-114129269D01*
X150498958Y-114129271D01*
X150592084Y-114303499D01*
X150717411Y-114456210D01*
X150870122Y-114581537D01*
X151044350Y-114674663D01*
X151233397Y-114732010D01*
X151430000Y-114751374D01*
X151626603Y-114732010D01*
X151815650Y-114674663D01*
X151989878Y-114581537D01*
X152142589Y-114456210D01*
X152267916Y-114303499D01*
X152361042Y-114129271D01*
X152418389Y-113940224D01*
X152437753Y-113743621D01*
X152437753Y-113743620D01*
X152962247Y-113743620D01*
X152981612Y-113940230D01*
X153038957Y-114129269D01*
X153038958Y-114129271D01*
X153132084Y-114303499D01*
X153257411Y-114456210D01*
X153410122Y-114581537D01*
X153584350Y-114674663D01*
X153773397Y-114732010D01*
X153970000Y-114751374D01*
X154166603Y-114732010D01*
X154355650Y-114674663D01*
X154479098Y-114608679D01*
X155507100Y-114608679D01*
X155515972Y-114653279D01*
X155549766Y-114703855D01*
X155566701Y-114715171D01*
X155600341Y-114737649D01*
X155607741Y-114739120D01*
X155644943Y-114746521D01*
X157375056Y-114746520D01*
X157375058Y-114746520D01*
X157387750Y-114743995D01*
X157419658Y-114737649D01*
X157470234Y-114703855D01*
X157504028Y-114653279D01*
X157512900Y-114608678D01*
X157512899Y-112878565D01*
X157512899Y-112878564D01*
X157512899Y-112878562D01*
X157509111Y-112859523D01*
X157504028Y-112833963D01*
X157470234Y-112783387D01*
X157470002Y-112783232D01*
X157419658Y-112749592D01*
X157382456Y-112742192D01*
X157375057Y-112740721D01*
X157375056Y-112740721D01*
X155644941Y-112740721D01*
X155600341Y-112749593D01*
X155549767Y-112783386D01*
X155549764Y-112783389D01*
X155515971Y-112833962D01*
X155507100Y-112878564D01*
X155507100Y-114608679D01*
X154479098Y-114608679D01*
X154529878Y-114581537D01*
X154682589Y-114456210D01*
X154807916Y-114303499D01*
X154901042Y-114129271D01*
X154958389Y-113940224D01*
X154977753Y-113743621D01*
X154958389Y-113547018D01*
X154901042Y-113357971D01*
X154807916Y-113183743D01*
X154682589Y-113031032D01*
X154529878Y-112905705D01*
X154355650Y-112812579D01*
X154355649Y-112812578D01*
X154355648Y-112812578D01*
X154166609Y-112755233D01*
X154166604Y-112755232D01*
X154166603Y-112755232D01*
X153970000Y-112735868D01*
X153773397Y-112755232D01*
X153773395Y-112755232D01*
X153773390Y-112755233D01*
X153584351Y-112812578D01*
X153410121Y-112905705D01*
X153257413Y-113031030D01*
X153257409Y-113031034D01*
X153132084Y-113183742D01*
X153038957Y-113357972D01*
X152981612Y-113547011D01*
X152962247Y-113743620D01*
X152437753Y-113743620D01*
X152418389Y-113547018D01*
X152361042Y-113357971D01*
X152267916Y-113183743D01*
X152142589Y-113031032D01*
X151989878Y-112905705D01*
X151815650Y-112812579D01*
X151815649Y-112812578D01*
X151815648Y-112812578D01*
X151626609Y-112755233D01*
X151626604Y-112755232D01*
X151626603Y-112755232D01*
X151430000Y-112735868D01*
X151429999Y-112735868D01*
X151382657Y-112740530D01*
X151233397Y-112755232D01*
X151233395Y-112755232D01*
X151233390Y-112755233D01*
X151044351Y-112812578D01*
X150870121Y-112905705D01*
X150717413Y-113031030D01*
X150717409Y-113031034D01*
X150592084Y-113183742D01*
X150498957Y-113357972D01*
X150441612Y-113547011D01*
X150422247Y-113743620D01*
X149897753Y-113743620D01*
X149878389Y-113547018D01*
X149821042Y-113357971D01*
X149727916Y-113183743D01*
X149602589Y-113031032D01*
X149449878Y-112905705D01*
X149275650Y-112812579D01*
X149275649Y-112812578D01*
X149275648Y-112812578D01*
X149086609Y-112755233D01*
X149086604Y-112755232D01*
X149086603Y-112755232D01*
X148890000Y-112735868D01*
X148693397Y-112755232D01*
X148693395Y-112755232D01*
X148693390Y-112755233D01*
X148504351Y-112812578D01*
X148330121Y-112905705D01*
X148177413Y-113031030D01*
X148177409Y-113031034D01*
X148052084Y-113183742D01*
X147958957Y-113357972D01*
X147901612Y-113547011D01*
X147882247Y-113743620D01*
X147357753Y-113743620D01*
X147338389Y-113547018D01*
X147281042Y-113357971D01*
X147187916Y-113183743D01*
X147062589Y-113031032D01*
X146909878Y-112905705D01*
X146735650Y-112812579D01*
X146735649Y-112812578D01*
X146735648Y-112812578D01*
X146546609Y-112755233D01*
X146546604Y-112755232D01*
X146546603Y-112755232D01*
X146350000Y-112735868D01*
X146153397Y-112755232D01*
X146153395Y-112755232D01*
X146153390Y-112755233D01*
X145964351Y-112812578D01*
X145790121Y-112905705D01*
X145637413Y-113031030D01*
X145637409Y-113031034D01*
X145512084Y-113183742D01*
X145418957Y-113357972D01*
X145361612Y-113547011D01*
X145342247Y-113743621D01*
X144817753Y-113743621D01*
X144798389Y-113547018D01*
X144741042Y-113357971D01*
X144647916Y-113183743D01*
X144522589Y-113031032D01*
X144369878Y-112905705D01*
X144195650Y-112812579D01*
X144195649Y-112812578D01*
X144195648Y-112812578D01*
X144006609Y-112755233D01*
X144006604Y-112755232D01*
X144006603Y-112755232D01*
X143810000Y-112735868D01*
X143613397Y-112755232D01*
X143613395Y-112755232D01*
X143613390Y-112755233D01*
X143424351Y-112812578D01*
X143250121Y-112905705D01*
X143097413Y-113031030D01*
X143097409Y-113031034D01*
X142972084Y-113183742D01*
X142878957Y-113357972D01*
X142821612Y-113547011D01*
X142802247Y-113743621D01*
X134394061Y-113743621D01*
X130509248Y-111500723D01*
X130470600Y-111454664D01*
X130465300Y-111424605D01*
X130465300Y-110496915D01*
X130749884Y-110496915D01*
X130769115Y-110729011D01*
X130769116Y-110729017D01*
X130826286Y-110954775D01*
X130826289Y-110954783D01*
X130897987Y-111118236D01*
X130919840Y-111168056D01*
X130919844Y-111168062D01*
X131047215Y-111363020D01*
X131047216Y-111363022D01*
X131173979Y-111500724D01*
X131204954Y-111534371D01*
X131388740Y-111677417D01*
X131593563Y-111788262D01*
X131813837Y-111863882D01*
X131813839Y-111863882D01*
X131813841Y-111863883D01*
X132043550Y-111902215D01*
X132043554Y-111902215D01*
X132276450Y-111902215D01*
X132506158Y-111863883D01*
X132506158Y-111863882D01*
X132506163Y-111863882D01*
X132726437Y-111788262D01*
X132931260Y-111677417D01*
X133115046Y-111534371D01*
X133272780Y-111363026D01*
X133400160Y-111168056D01*
X133493712Y-110954779D01*
X133550884Y-110729012D01*
X133570116Y-110496915D01*
X133570116Y-110496914D01*
X166749884Y-110496914D01*
X166769115Y-110729011D01*
X166769116Y-110729017D01*
X166826286Y-110954775D01*
X166826289Y-110954783D01*
X166897987Y-111118236D01*
X166919840Y-111168056D01*
X166919844Y-111168062D01*
X167047215Y-111363020D01*
X167047216Y-111363022D01*
X167173979Y-111500724D01*
X167204954Y-111534371D01*
X167388740Y-111677417D01*
X167593563Y-111788262D01*
X167813837Y-111863882D01*
X167813839Y-111863882D01*
X167813841Y-111863883D01*
X168043550Y-111902215D01*
X168043554Y-111902215D01*
X168276450Y-111902215D01*
X168506158Y-111863883D01*
X168506158Y-111863882D01*
X168506163Y-111863882D01*
X168726437Y-111788262D01*
X168931260Y-111677417D01*
X169115046Y-111534371D01*
X169272780Y-111363026D01*
X169400160Y-111168056D01*
X169493712Y-110954779D01*
X169550884Y-110729012D01*
X169570116Y-110496915D01*
X169550884Y-110264818D01*
X169550883Y-110264812D01*
X169493713Y-110039054D01*
X169493710Y-110039046D01*
X169400164Y-109825784D01*
X169400160Y-109825774D01*
X169319435Y-109702215D01*
X169272784Y-109630809D01*
X169272783Y-109630807D01*
X169115050Y-109459463D01*
X169115048Y-109459462D01*
X169115046Y-109459459D01*
X168931260Y-109316413D01*
X168726437Y-109205568D01*
X168726433Y-109205566D01*
X168726430Y-109205565D01*
X168506167Y-109129949D01*
X168506158Y-109129946D01*
X168276450Y-109091615D01*
X168276446Y-109091615D01*
X168043554Y-109091615D01*
X168043550Y-109091615D01*
X167813841Y-109129946D01*
X167813832Y-109129949D01*
X167593569Y-109205565D01*
X167388740Y-109316413D01*
X167204949Y-109459463D01*
X167047216Y-109630807D01*
X167047215Y-109630809D01*
X166919844Y-109825767D01*
X166919835Y-109825784D01*
X166826289Y-110039046D01*
X166826286Y-110039054D01*
X166769116Y-110264812D01*
X166769115Y-110264818D01*
X166749884Y-110496914D01*
X133570116Y-110496914D01*
X133550884Y-110264818D01*
X133550883Y-110264812D01*
X133493713Y-110039054D01*
X133493710Y-110039046D01*
X133400164Y-109825784D01*
X133400160Y-109825774D01*
X133319435Y-109702215D01*
X133272784Y-109630809D01*
X133272783Y-109630807D01*
X133115050Y-109459463D01*
X133115048Y-109459462D01*
X133115046Y-109459459D01*
X132931260Y-109316413D01*
X132726437Y-109205568D01*
X132726433Y-109205566D01*
X132726430Y-109205565D01*
X132506167Y-109129949D01*
X132506158Y-109129946D01*
X132276450Y-109091615D01*
X132276446Y-109091615D01*
X132043554Y-109091615D01*
X132043550Y-109091615D01*
X131813841Y-109129946D01*
X131813832Y-109129949D01*
X131593569Y-109205565D01*
X131388740Y-109316413D01*
X131204949Y-109459463D01*
X131047216Y-109630807D01*
X131047215Y-109630809D01*
X130919844Y-109825767D01*
X130919835Y-109825784D01*
X130826289Y-110039046D01*
X130826286Y-110039054D01*
X130769116Y-110264812D01*
X130769115Y-110264818D01*
X130749884Y-110496915D01*
X130465300Y-110496915D01*
X130465300Y-108552621D01*
X136682200Y-108552621D01*
X136682200Y-109000154D01*
X136684909Y-109029050D01*
X136684910Y-109029055D01*
X136727501Y-109150774D01*
X136727502Y-109150775D01*
X136804080Y-109254535D01*
X136804085Y-109254540D01*
X136907845Y-109331118D01*
X136907846Y-109331119D01*
X137029565Y-109373710D01*
X137029570Y-109373711D01*
X137058466Y-109376420D01*
X137058470Y-109376421D01*
X137205999Y-109376421D01*
X137206000Y-109376419D01*
X137714000Y-109376419D01*
X137714001Y-109376421D01*
X137861530Y-109376421D01*
X137861533Y-109376420D01*
X137890429Y-109373711D01*
X137890434Y-109373710D01*
X138012153Y-109331119D01*
X138012154Y-109331118D01*
X138115914Y-109254540D01*
X138115919Y-109254535D01*
X138192497Y-109150775D01*
X138192498Y-109150774D01*
X138235089Y-109029055D01*
X138235090Y-109029050D01*
X138237799Y-109000154D01*
X142282200Y-109000154D01*
X142284909Y-109029050D01*
X142284910Y-109029055D01*
X142327501Y-109150774D01*
X142327502Y-109150775D01*
X142404080Y-109254535D01*
X142404085Y-109254540D01*
X142507845Y-109331118D01*
X142507846Y-109331119D01*
X142629565Y-109373710D01*
X142629570Y-109373711D01*
X142658466Y-109376420D01*
X142658470Y-109376421D01*
X142805999Y-109376421D01*
X142806000Y-109376420D01*
X143314000Y-109376420D01*
X143314001Y-109376421D01*
X143461530Y-109376421D01*
X143461533Y-109376420D01*
X143490429Y-109373711D01*
X143490434Y-109373710D01*
X143612153Y-109331119D01*
X143612154Y-109331118D01*
X143715914Y-109254540D01*
X143715919Y-109254535D01*
X143792497Y-109150775D01*
X143792498Y-109150774D01*
X143835089Y-109029055D01*
X143835090Y-109029050D01*
X143837799Y-109000154D01*
X144582200Y-109000154D01*
X144584909Y-109029050D01*
X144584910Y-109029055D01*
X144627501Y-109150774D01*
X144627502Y-109150775D01*
X144704080Y-109254535D01*
X144704085Y-109254540D01*
X144807845Y-109331118D01*
X144807846Y-109331119D01*
X144929565Y-109373710D01*
X144929570Y-109373711D01*
X144958466Y-109376420D01*
X144958470Y-109376421D01*
X145105999Y-109376421D01*
X145106000Y-109376420D01*
X145614000Y-109376420D01*
X145614001Y-109376421D01*
X145761530Y-109376421D01*
X145761533Y-109376420D01*
X145790429Y-109373711D01*
X145790434Y-109373710D01*
X145912153Y-109331119D01*
X145912154Y-109331118D01*
X146015914Y-109254540D01*
X146015919Y-109254535D01*
X146092497Y-109150775D01*
X146092498Y-109150774D01*
X146135089Y-109029055D01*
X146135090Y-109029050D01*
X146137799Y-109000154D01*
X146137800Y-109000151D01*
X146137800Y-108552622D01*
X146137799Y-108552621D01*
X150182200Y-108552621D01*
X150182200Y-109000154D01*
X150184909Y-109029050D01*
X150184910Y-109029055D01*
X150227501Y-109150774D01*
X150227502Y-109150775D01*
X150304080Y-109254535D01*
X150304085Y-109254540D01*
X150407845Y-109331118D01*
X150407846Y-109331119D01*
X150529565Y-109373710D01*
X150529570Y-109373711D01*
X150558466Y-109376420D01*
X150558470Y-109376421D01*
X150705999Y-109376421D01*
X150706000Y-109376420D01*
X150706000Y-109376419D01*
X151214000Y-109376419D01*
X151214001Y-109376421D01*
X151361530Y-109376421D01*
X151361533Y-109376420D01*
X151390429Y-109373711D01*
X151390434Y-109373710D01*
X151512153Y-109331119D01*
X151512154Y-109331118D01*
X151615914Y-109254540D01*
X151615919Y-109254535D01*
X151692497Y-109150775D01*
X151692498Y-109150774D01*
X151735089Y-109029055D01*
X151735090Y-109029050D01*
X151737799Y-109000154D01*
X152482200Y-109000154D01*
X152484909Y-109029050D01*
X152484910Y-109029055D01*
X152527501Y-109150774D01*
X152527502Y-109150775D01*
X152604080Y-109254535D01*
X152604085Y-109254540D01*
X152707845Y-109331118D01*
X152707846Y-109331119D01*
X152829565Y-109373710D01*
X152829570Y-109373711D01*
X152858466Y-109376420D01*
X152858470Y-109376421D01*
X153005999Y-109376421D01*
X153006000Y-109376420D01*
X153514000Y-109376420D01*
X153514001Y-109376421D01*
X153661530Y-109376421D01*
X153661533Y-109376420D01*
X153690429Y-109373711D01*
X153690434Y-109373710D01*
X153812153Y-109331119D01*
X153812154Y-109331118D01*
X153915914Y-109254540D01*
X153915919Y-109254535D01*
X153992497Y-109150775D01*
X153992498Y-109150774D01*
X154035089Y-109029055D01*
X154035090Y-109029050D01*
X154037799Y-109000154D01*
X158082200Y-109000154D01*
X158084909Y-109029050D01*
X158084910Y-109029055D01*
X158127501Y-109150774D01*
X158127502Y-109150775D01*
X158204080Y-109254535D01*
X158204085Y-109254540D01*
X158307845Y-109331118D01*
X158307846Y-109331119D01*
X158429565Y-109373710D01*
X158429570Y-109373711D01*
X158458466Y-109376420D01*
X158458470Y-109376421D01*
X158605999Y-109376421D01*
X158606000Y-109376420D01*
X158606000Y-109376419D01*
X159114000Y-109376419D01*
X159114001Y-109376421D01*
X159261530Y-109376421D01*
X159261533Y-109376420D01*
X159290429Y-109373711D01*
X159290434Y-109373710D01*
X159412153Y-109331119D01*
X159412154Y-109331118D01*
X159515914Y-109254540D01*
X159515919Y-109254535D01*
X159592497Y-109150775D01*
X159592498Y-109150774D01*
X159635089Y-109029055D01*
X159635090Y-109029050D01*
X159637799Y-109000154D01*
X159637800Y-109000151D01*
X159637800Y-108552622D01*
X159637799Y-108552621D01*
X159114001Y-108552621D01*
X159114000Y-108552622D01*
X159114000Y-109376419D01*
X158606000Y-109376419D01*
X158606000Y-108552622D01*
X158605999Y-108552621D01*
X158082201Y-108552621D01*
X158082200Y-108552622D01*
X158082200Y-109000154D01*
X154037799Y-109000154D01*
X154037800Y-109000151D01*
X154037800Y-108552622D01*
X154037799Y-108552621D01*
X153514001Y-108552621D01*
X153514000Y-108552622D01*
X153514000Y-109376420D01*
X153006000Y-109376420D01*
X153006000Y-109376419D01*
X153006000Y-108552622D01*
X153005999Y-108552621D01*
X152482201Y-108552621D01*
X152482200Y-108552622D01*
X152482200Y-109000154D01*
X151737799Y-109000154D01*
X151737800Y-109000151D01*
X151737800Y-108552622D01*
X151737799Y-108552621D01*
X151214001Y-108552621D01*
X151214000Y-108552622D01*
X151214000Y-109376419D01*
X150706000Y-109376419D01*
X150706000Y-108552622D01*
X150705999Y-108552621D01*
X150182200Y-108552621D01*
X146137799Y-108552621D01*
X145614001Y-108552621D01*
X145614000Y-108552622D01*
X145614000Y-109376420D01*
X145106000Y-109376420D01*
X145106000Y-109376419D01*
X145106000Y-108552622D01*
X145105999Y-108552621D01*
X144582201Y-108552621D01*
X144582200Y-108552622D01*
X144582200Y-109000154D01*
X143837799Y-109000154D01*
X143837800Y-109000151D01*
X143837800Y-108552622D01*
X143837799Y-108552621D01*
X143314001Y-108552621D01*
X143314000Y-108552622D01*
X143314000Y-109376420D01*
X142806000Y-109376420D01*
X142806000Y-109376419D01*
X142806000Y-108552622D01*
X142805999Y-108552621D01*
X142282201Y-108552621D01*
X142282200Y-108552622D01*
X142282200Y-109000154D01*
X138237799Y-109000154D01*
X138237800Y-109000151D01*
X138237800Y-108552622D01*
X138237799Y-108552621D01*
X137714001Y-108552621D01*
X137714000Y-108552622D01*
X137714000Y-109376419D01*
X137206000Y-109376419D01*
X137206000Y-108552622D01*
X137205999Y-108552621D01*
X136682200Y-108552621D01*
X130465300Y-108552621D01*
X130465300Y-108044620D01*
X136682200Y-108044620D01*
X136682201Y-108044621D01*
X137205999Y-108044621D01*
X137206000Y-108044619D01*
X137714000Y-108044619D01*
X137714001Y-108044621D01*
X138237799Y-108044621D01*
X138237800Y-108044620D01*
X142282200Y-108044620D01*
X142282201Y-108044621D01*
X142805999Y-108044621D01*
X142806000Y-108044620D01*
X143314000Y-108044620D01*
X143314001Y-108044621D01*
X143837799Y-108044621D01*
X143837800Y-108044620D01*
X144582200Y-108044620D01*
X144582201Y-108044621D01*
X145105999Y-108044621D01*
X145106000Y-108044620D01*
X145614000Y-108044620D01*
X145614001Y-108044621D01*
X146137799Y-108044621D01*
X146137800Y-108044620D01*
X150182200Y-108044620D01*
X150182201Y-108044621D01*
X150705999Y-108044621D01*
X150706000Y-108044620D01*
X151214000Y-108044620D01*
X151214001Y-108044621D01*
X151737799Y-108044621D01*
X151737800Y-108044620D01*
X151737800Y-108044619D01*
X152482200Y-108044619D01*
X152482201Y-108044621D01*
X153005999Y-108044621D01*
X153006000Y-108044620D01*
X153514000Y-108044620D01*
X153514001Y-108044621D01*
X154037799Y-108044621D01*
X154037800Y-108044620D01*
X158082200Y-108044620D01*
X158082201Y-108044621D01*
X158605999Y-108044621D01*
X158606000Y-108044620D01*
X158606000Y-108044619D01*
X159114000Y-108044619D01*
X159114001Y-108044621D01*
X159637799Y-108044621D01*
X159637800Y-108044619D01*
X159637800Y-107597090D01*
X159637799Y-107597087D01*
X159635090Y-107568191D01*
X159635089Y-107568186D01*
X159592498Y-107446467D01*
X159592497Y-107446466D01*
X159515919Y-107342706D01*
X159515914Y-107342701D01*
X159412154Y-107266123D01*
X159412153Y-107266122D01*
X159290434Y-107223531D01*
X159290429Y-107223530D01*
X159261533Y-107220821D01*
X159114001Y-107220821D01*
X159114000Y-107220822D01*
X159114000Y-108044619D01*
X158606000Y-108044619D01*
X158606000Y-107220822D01*
X158605999Y-107220821D01*
X158458466Y-107220821D01*
X158429570Y-107223530D01*
X158429565Y-107223531D01*
X158307846Y-107266122D01*
X158307845Y-107266123D01*
X158204085Y-107342701D01*
X158204080Y-107342706D01*
X158127502Y-107446466D01*
X158127501Y-107446467D01*
X158084910Y-107568186D01*
X158084909Y-107568191D01*
X158082200Y-107597087D01*
X158082200Y-108044620D01*
X154037800Y-108044620D01*
X154037800Y-107597090D01*
X154037799Y-107597087D01*
X154035090Y-107568191D01*
X154035089Y-107568186D01*
X153992498Y-107446467D01*
X153992497Y-107446466D01*
X153915919Y-107342706D01*
X153915914Y-107342701D01*
X153812154Y-107266123D01*
X153812153Y-107266122D01*
X153690434Y-107223531D01*
X153690429Y-107223530D01*
X153661533Y-107220821D01*
X153514001Y-107220821D01*
X153514000Y-107220822D01*
X153514000Y-108044620D01*
X153006000Y-108044620D01*
X153006000Y-107220822D01*
X153005999Y-107220821D01*
X152858466Y-107220821D01*
X152829570Y-107223530D01*
X152829565Y-107223531D01*
X152707846Y-107266122D01*
X152707845Y-107266123D01*
X152604085Y-107342701D01*
X152604080Y-107342706D01*
X152527502Y-107446466D01*
X152527501Y-107446467D01*
X152484910Y-107568186D01*
X152484909Y-107568191D01*
X152482200Y-107597087D01*
X152482200Y-108044619D01*
X151737800Y-108044619D01*
X151737800Y-107597090D01*
X151737799Y-107597087D01*
X151735090Y-107568191D01*
X151735089Y-107568186D01*
X151692498Y-107446467D01*
X151692497Y-107446466D01*
X151615919Y-107342706D01*
X151615914Y-107342701D01*
X151512154Y-107266123D01*
X151512153Y-107266122D01*
X151390434Y-107223531D01*
X151390429Y-107223530D01*
X151361533Y-107220821D01*
X151214001Y-107220821D01*
X151214000Y-107220822D01*
X151214000Y-108044620D01*
X150706000Y-108044620D01*
X150706000Y-107220822D01*
X150705999Y-107220821D01*
X150558466Y-107220821D01*
X150529570Y-107223530D01*
X150529565Y-107223531D01*
X150407846Y-107266122D01*
X150407845Y-107266123D01*
X150304085Y-107342701D01*
X150304080Y-107342706D01*
X150227502Y-107446466D01*
X150227501Y-107446467D01*
X150184910Y-107568186D01*
X150184909Y-107568191D01*
X150182200Y-107597087D01*
X150182200Y-108044620D01*
X146137800Y-108044620D01*
X146137800Y-108044619D01*
X146137800Y-107597090D01*
X146137799Y-107597087D01*
X146135090Y-107568191D01*
X146135089Y-107568186D01*
X146092498Y-107446467D01*
X146092497Y-107446466D01*
X146015919Y-107342706D01*
X146015914Y-107342701D01*
X145912154Y-107266123D01*
X145912153Y-107266122D01*
X145790434Y-107223531D01*
X145790429Y-107223530D01*
X145761533Y-107220821D01*
X145614001Y-107220821D01*
X145614000Y-107220822D01*
X145614000Y-108044620D01*
X145106000Y-108044620D01*
X145106000Y-108044619D01*
X145106000Y-107220822D01*
X145105999Y-107220821D01*
X144958466Y-107220821D01*
X144929570Y-107223530D01*
X144929565Y-107223531D01*
X144807846Y-107266122D01*
X144807845Y-107266123D01*
X144704085Y-107342701D01*
X144704080Y-107342706D01*
X144627502Y-107446466D01*
X144627501Y-107446467D01*
X144584910Y-107568186D01*
X144584909Y-107568191D01*
X144582200Y-107597087D01*
X144582200Y-108044620D01*
X143837800Y-108044620D01*
X143837800Y-107597090D01*
X143837799Y-107597087D01*
X143835090Y-107568191D01*
X143835089Y-107568186D01*
X143792498Y-107446467D01*
X143792497Y-107446466D01*
X143715919Y-107342706D01*
X143715914Y-107342701D01*
X143612154Y-107266123D01*
X143612153Y-107266122D01*
X143490434Y-107223531D01*
X143490429Y-107223530D01*
X143461533Y-107220821D01*
X143314001Y-107220821D01*
X143314000Y-107220822D01*
X143314000Y-108044620D01*
X142806000Y-108044620D01*
X142806000Y-108044619D01*
X142806000Y-107220822D01*
X142805999Y-107220821D01*
X142658466Y-107220821D01*
X142629570Y-107223530D01*
X142629565Y-107223531D01*
X142507846Y-107266122D01*
X142507845Y-107266123D01*
X142404085Y-107342701D01*
X142404080Y-107342706D01*
X142327502Y-107446466D01*
X142327501Y-107446467D01*
X142284910Y-107568186D01*
X142284909Y-107568191D01*
X142282200Y-107597087D01*
X142282200Y-108044620D01*
X138237800Y-108044620D01*
X138237800Y-108044619D01*
X138237800Y-107597090D01*
X138237799Y-107597087D01*
X138235090Y-107568191D01*
X138235089Y-107568186D01*
X138192498Y-107446467D01*
X138192497Y-107446466D01*
X138115919Y-107342706D01*
X138115914Y-107342701D01*
X138012154Y-107266123D01*
X138012153Y-107266122D01*
X137890434Y-107223531D01*
X137890429Y-107223530D01*
X137861533Y-107220821D01*
X137714001Y-107220821D01*
X137714000Y-107220822D01*
X137714000Y-108044619D01*
X137206000Y-108044619D01*
X137206000Y-107220822D01*
X137205999Y-107220821D01*
X137058466Y-107220821D01*
X137029570Y-107223530D01*
X137029565Y-107223531D01*
X136907846Y-107266122D01*
X136907845Y-107266123D01*
X136804085Y-107342701D01*
X136804080Y-107342706D01*
X136727502Y-107446466D01*
X136727501Y-107446467D01*
X136684910Y-107568186D01*
X136684909Y-107568191D01*
X136682200Y-107597087D01*
X136682200Y-108044620D01*
X130465300Y-108044620D01*
X130465300Y-102022120D01*
X131607200Y-102022120D01*
X131607201Y-102022121D01*
X132148314Y-102022121D01*
X132132359Y-102038076D01*
X132074835Y-102150973D01*
X132055014Y-102276121D01*
X132074835Y-102401269D01*
X132132359Y-102514166D01*
X132148314Y-102530121D01*
X131607201Y-102530121D01*
X131607201Y-102968629D01*
X131617516Y-103020496D01*
X131656811Y-103079303D01*
X131656817Y-103079309D01*
X131715624Y-103118604D01*
X131767486Y-103128920D01*
X132206000Y-103128920D01*
X132206000Y-102587807D01*
X132221955Y-102603762D01*
X132334852Y-102661286D01*
X132428519Y-102676121D01*
X132491481Y-102676121D01*
X132585148Y-102661286D01*
X132698045Y-102603762D01*
X132714000Y-102587807D01*
X132714000Y-103128918D01*
X132714001Y-103128920D01*
X133152509Y-103128920D01*
X133204375Y-103118604D01*
X133263182Y-103079309D01*
X133263188Y-103079303D01*
X133302483Y-103020496D01*
X133312800Y-102968633D01*
X133312800Y-102700154D01*
X134182200Y-102700154D01*
X134184909Y-102729050D01*
X134184910Y-102729055D01*
X134227501Y-102850774D01*
X134227502Y-102850775D01*
X134304080Y-102954535D01*
X134304085Y-102954540D01*
X134407845Y-103031118D01*
X134407846Y-103031119D01*
X134529565Y-103073710D01*
X134529570Y-103073711D01*
X134558466Y-103076420D01*
X134558470Y-103076421D01*
X134805999Y-103076421D01*
X134806000Y-103076420D01*
X134806000Y-103076419D01*
X135314000Y-103076419D01*
X135314001Y-103076421D01*
X135561530Y-103076421D01*
X135561533Y-103076420D01*
X135590429Y-103073711D01*
X135590434Y-103073710D01*
X135712153Y-103031119D01*
X135712154Y-103031118D01*
X135815914Y-102954540D01*
X135815919Y-102954535D01*
X135892497Y-102850775D01*
X135892498Y-102850774D01*
X135935089Y-102729055D01*
X135935090Y-102729050D01*
X135937799Y-102700154D01*
X135937800Y-102700151D01*
X135937800Y-102577621D01*
X135314001Y-102577621D01*
X135314000Y-102577622D01*
X135314000Y-103076419D01*
X134806000Y-103076419D01*
X134806000Y-102577622D01*
X134805999Y-102577621D01*
X134182201Y-102577621D01*
X134182200Y-102577622D01*
X134182200Y-102700154D01*
X133312800Y-102700154D01*
X133312800Y-102530122D01*
X133312799Y-102530121D01*
X132771686Y-102530121D01*
X132787641Y-102514166D01*
X132845165Y-102401269D01*
X132864986Y-102276121D01*
X132845165Y-102150973D01*
X132803714Y-102069620D01*
X134182200Y-102069620D01*
X134182201Y-102069621D01*
X134805999Y-102069621D01*
X134806000Y-102069620D01*
X135314000Y-102069620D01*
X135314001Y-102069621D01*
X135937799Y-102069621D01*
X135937800Y-102069620D01*
X135937800Y-101947090D01*
X135937799Y-101947087D01*
X135935090Y-101918191D01*
X135935089Y-101918186D01*
X135892498Y-101796467D01*
X135892497Y-101796466D01*
X135815919Y-101692706D01*
X135815914Y-101692701D01*
X135712154Y-101616123D01*
X135712153Y-101616122D01*
X135590434Y-101573531D01*
X135590429Y-101573530D01*
X135561533Y-101570821D01*
X135314001Y-101570821D01*
X135314000Y-101570822D01*
X135314000Y-102069620D01*
X134806000Y-102069620D01*
X134806000Y-101570822D01*
X134805999Y-101570821D01*
X134558466Y-101570821D01*
X134529570Y-101573530D01*
X134529565Y-101573531D01*
X134407846Y-101616122D01*
X134407845Y-101616123D01*
X134304085Y-101692701D01*
X134304080Y-101692706D01*
X134227502Y-101796466D01*
X134227501Y-101796467D01*
X134184910Y-101918186D01*
X134184909Y-101918191D01*
X134182200Y-101947087D01*
X134182200Y-102069620D01*
X132803714Y-102069620D01*
X132787641Y-102038076D01*
X132771686Y-102022121D01*
X133312798Y-102022121D01*
X133312799Y-102022120D01*
X133312799Y-101583612D01*
X133302483Y-101531745D01*
X133263188Y-101472938D01*
X133263182Y-101472932D01*
X133204375Y-101433637D01*
X133152513Y-101423321D01*
X132714001Y-101423321D01*
X132714000Y-101423322D01*
X132714000Y-101964435D01*
X132698045Y-101948480D01*
X132585148Y-101890956D01*
X132491481Y-101876121D01*
X132428519Y-101876121D01*
X132334852Y-101890956D01*
X132221955Y-101948480D01*
X132206000Y-101964435D01*
X132206000Y-101423322D01*
X132205999Y-101423321D01*
X131767486Y-101423321D01*
X131767484Y-101423322D01*
X131715628Y-101433635D01*
X131715624Y-101433637D01*
X131656817Y-101472932D01*
X131656811Y-101472938D01*
X131617516Y-101531745D01*
X131607200Y-101583608D01*
X131607200Y-102022120D01*
X130465300Y-102022120D01*
X130465300Y-100372282D01*
X131545100Y-100372282D01*
X131569588Y-100487488D01*
X131585085Y-100560398D01*
X131612644Y-100622297D01*
X131663307Y-100736088D01*
X131663308Y-100736090D01*
X131663309Y-100736091D01*
X131747565Y-100852060D01*
X131776351Y-100891681D01*
X131919269Y-101020365D01*
X131919271Y-101020366D01*
X131919273Y-101020368D01*
X131946555Y-101036119D01*
X132085822Y-101116526D01*
X132085825Y-101116527D01*
X132085827Y-101116528D01*
X132268734Y-101175958D01*
X132340390Y-101183489D01*
X132412044Y-101191021D01*
X132412048Y-101191021D01*
X135105454Y-101191021D01*
X135112581Y-101190271D01*
X135126949Y-101188761D01*
X135131539Y-101188521D01*
X136684200Y-101188521D01*
X136740701Y-101209086D01*
X136770765Y-101261157D01*
X136772100Y-101276421D01*
X136772100Y-104619211D01*
X136772101Y-104619243D01*
X136772101Y-104662398D01*
X136781458Y-104703398D01*
X136782284Y-104708259D01*
X136786994Y-104750057D01*
X136786995Y-104750061D01*
X136800886Y-104789757D01*
X136802251Y-104794497D01*
X136811607Y-104835490D01*
X136811608Y-104835493D01*
X136829856Y-104873385D01*
X136831743Y-104877941D01*
X136845634Y-104917639D01*
X136845635Y-104917641D01*
X136868012Y-104953254D01*
X136870397Y-104957570D01*
X136888644Y-104995459D01*
X136888644Y-104995460D01*
X136888645Y-104995461D01*
X136914869Y-105028345D01*
X136917716Y-105032357D01*
X136940098Y-105067977D01*
X136954980Y-105082859D01*
X136969865Y-105097745D01*
X136971584Y-105099464D01*
X136971585Y-105099465D01*
X138226355Y-106354234D01*
X138251766Y-106408727D01*
X138252100Y-106416388D01*
X138252100Y-106614165D01*
X138252191Y-106616258D01*
X138252399Y-106621040D01*
X138254034Y-106639737D01*
X138254035Y-106639745D01*
X138274588Y-106704934D01*
X138274591Y-106704940D01*
X138304653Y-106757007D01*
X138320438Y-106779550D01*
X138320440Y-106779552D01*
X138387393Y-106826433D01*
X138443894Y-106846998D01*
X138459240Y-106849704D01*
X138497887Y-106856519D01*
X138497891Y-106856519D01*
X138497900Y-106856521D01*
X138497905Y-106856521D01*
X140075532Y-106856521D01*
X140075544Y-106856521D01*
X140082426Y-106856221D01*
X140101122Y-106854586D01*
X140166316Y-106834031D01*
X140218387Y-106803967D01*
X140233080Y-106793678D01*
X140291156Y-106778115D01*
X140313558Y-106783081D01*
X140351794Y-106796998D01*
X140367140Y-106799704D01*
X140405787Y-106806519D01*
X140405791Y-106806519D01*
X140405800Y-106806521D01*
X140405805Y-106806521D01*
X141975532Y-106806521D01*
X141975544Y-106806521D01*
X141982426Y-106806221D01*
X142001122Y-106804586D01*
X142066316Y-106784031D01*
X142118387Y-106753967D01*
X142140931Y-106738181D01*
X142187812Y-106671228D01*
X142208377Y-106614727D01*
X142217900Y-106560721D01*
X142217900Y-103383077D01*
X142217600Y-103376195D01*
X142215965Y-103357499D01*
X142195410Y-103292305D01*
X142188928Y-103281079D01*
X142165346Y-103240234D01*
X142149561Y-103217691D01*
X142149559Y-103217689D01*
X142102921Y-103185033D01*
X142082607Y-103170809D01*
X142026106Y-103150244D01*
X142026093Y-103150241D01*
X141972112Y-103140722D01*
X141972102Y-103140721D01*
X141972100Y-103140721D01*
X140394456Y-103140721D01*
X140392662Y-103140799D01*
X140387580Y-103141020D01*
X140368883Y-103142655D01*
X140368880Y-103142655D01*
X140339378Y-103151957D01*
X140279308Y-103149332D01*
X140234979Y-103108709D01*
X140228743Y-103061335D01*
X140223191Y-103052621D01*
X139576501Y-103052621D01*
X139576500Y-103052622D01*
X139576500Y-103276419D01*
X139576501Y-103276420D01*
X139948414Y-103276420D01*
X139948415Y-103276419D01*
X139996145Y-103270137D01*
X139996148Y-103270136D01*
X140035396Y-103251834D01*
X140095294Y-103246593D01*
X140144548Y-103281079D01*
X140160112Y-103339157D01*
X140159111Y-103346762D01*
X140152100Y-103386519D01*
X140152100Y-104702821D01*
X140131535Y-104759322D01*
X140079464Y-104789386D01*
X140064200Y-104790721D01*
X138927768Y-104790721D01*
X138871267Y-104770156D01*
X138865613Y-104764976D01*
X138373645Y-104273007D01*
X138348234Y-104218513D01*
X138347900Y-104210852D01*
X138347900Y-103237308D01*
X138368465Y-103180807D01*
X138420536Y-103150743D01*
X138479750Y-103161184D01*
X138497955Y-103175154D01*
X138544080Y-103221280D01*
X138544083Y-103221282D01*
X138648845Y-103270133D01*
X138648854Y-103270136D01*
X138696587Y-103276420D01*
X139068500Y-103276420D01*
X139068500Y-102544620D01*
X139576500Y-102544620D01*
X139576501Y-102544621D01*
X140223191Y-102544621D01*
X140223191Y-102544620D01*
X140182659Y-102457701D01*
X140182657Y-102457698D01*
X140100920Y-102375962D01*
X140100916Y-102375959D01*
X139996154Y-102327108D01*
X139996145Y-102327105D01*
X139948413Y-102320821D01*
X139576501Y-102320821D01*
X139576500Y-102320822D01*
X139576500Y-102544620D01*
X139068500Y-102544620D01*
X139068500Y-102320822D01*
X139068499Y-102320821D01*
X138696586Y-102320821D01*
X138696584Y-102320822D01*
X138648854Y-102327104D01*
X138648848Y-102327106D01*
X138544082Y-102375960D01*
X138497955Y-102422088D01*
X138443461Y-102447499D01*
X138385383Y-102431936D01*
X138350895Y-102382683D01*
X138347900Y-102359933D01*
X138347900Y-102043839D01*
X140307100Y-102043839D01*
X140307101Y-102043858D01*
X140310038Y-102069170D01*
X140310039Y-102069174D01*
X140322527Y-102097456D01*
X140355780Y-102172766D01*
X140435855Y-102252841D01*
X140539450Y-102298583D01*
X140564774Y-102301521D01*
X141035052Y-102301521D01*
X141059817Y-102305082D01*
X141150536Y-102331720D01*
X141150539Y-102331720D01*
X141150541Y-102331721D01*
X141150542Y-102331721D01*
X141289458Y-102331721D01*
X141289459Y-102331721D01*
X141289461Y-102331720D01*
X141289463Y-102331720D01*
X141380183Y-102305082D01*
X141404948Y-102301521D01*
X141830219Y-102301521D01*
X141830226Y-102301521D01*
X141855550Y-102298583D01*
X141959145Y-102252841D01*
X142039220Y-102172766D01*
X142084962Y-102069171D01*
X142087900Y-102043847D01*
X142087900Y-101653395D01*
X142084962Y-101628071D01*
X142039220Y-101524476D01*
X141959145Y-101444401D01*
X141959143Y-101444400D01*
X141855553Y-101398660D01*
X141855551Y-101398659D01*
X141855550Y-101398659D01*
X141848061Y-101397790D01*
X141830237Y-101395722D01*
X141830232Y-101395721D01*
X141830226Y-101395721D01*
X141830219Y-101395721D01*
X141404948Y-101395721D01*
X141380183Y-101392160D01*
X141289463Y-101365521D01*
X141289459Y-101365521D01*
X141150541Y-101365521D01*
X141150536Y-101365521D01*
X141059817Y-101392160D01*
X141035052Y-101395721D01*
X140564774Y-101395721D01*
X140564768Y-101395721D01*
X140564762Y-101395722D01*
X140539450Y-101398659D01*
X140539446Y-101398660D01*
X140435856Y-101444400D01*
X140355779Y-101524477D01*
X140310039Y-101628067D01*
X140310038Y-101628071D01*
X140307101Y-101653383D01*
X140307100Y-101653402D01*
X140307100Y-102043839D01*
X138347900Y-102043839D01*
X138347900Y-101276421D01*
X138368465Y-101219920D01*
X138420536Y-101189856D01*
X138435800Y-101188521D01*
X143984200Y-101188521D01*
X144040701Y-101209086D01*
X144070765Y-101261157D01*
X144072100Y-101276421D01*
X144072100Y-104019211D01*
X144072101Y-104019243D01*
X144072101Y-104062398D01*
X144081458Y-104103398D01*
X144082284Y-104108259D01*
X144086994Y-104150057D01*
X144086995Y-104150061D01*
X144100886Y-104189757D01*
X144102251Y-104194497D01*
X144111607Y-104235490D01*
X144111608Y-104235493D01*
X144129856Y-104273385D01*
X144131743Y-104277941D01*
X144145634Y-104317639D01*
X144145635Y-104317641D01*
X144168012Y-104353254D01*
X144170397Y-104357570D01*
X144188644Y-104395459D01*
X144188644Y-104395460D01*
X144188645Y-104395461D01*
X144214869Y-104428345D01*
X144217716Y-104432357D01*
X144240098Y-104467977D01*
X144254980Y-104482859D01*
X144269865Y-104497745D01*
X144271584Y-104499464D01*
X144271585Y-104499465D01*
X146126355Y-106354234D01*
X146151766Y-106408727D01*
X146152100Y-106416388D01*
X146152100Y-106614165D01*
X146152191Y-106616258D01*
X146152399Y-106621040D01*
X146154034Y-106639737D01*
X146154035Y-106639745D01*
X146174588Y-106704934D01*
X146174591Y-106704940D01*
X146204653Y-106757007D01*
X146220438Y-106779550D01*
X146220440Y-106779552D01*
X146287393Y-106826433D01*
X146343894Y-106846998D01*
X146359240Y-106849704D01*
X146397887Y-106856519D01*
X146397891Y-106856519D01*
X146397900Y-106856521D01*
X146397905Y-106856521D01*
X147975532Y-106856521D01*
X147975544Y-106856521D01*
X147982426Y-106856221D01*
X148001122Y-106854586D01*
X148066316Y-106834031D01*
X148118387Y-106803967D01*
X148140931Y-106788181D01*
X148144215Y-106783489D01*
X148193465Y-106749001D01*
X148253364Y-106754237D01*
X148266636Y-106761899D01*
X148287393Y-106776433D01*
X148343894Y-106796998D01*
X148359240Y-106799704D01*
X148397887Y-106806519D01*
X148397891Y-106806519D01*
X148397900Y-106806521D01*
X148397905Y-106806521D01*
X149975532Y-106806521D01*
X149975544Y-106806521D01*
X149982426Y-106806221D01*
X150001122Y-106804586D01*
X150066316Y-106784031D01*
X150118387Y-106753967D01*
X150140931Y-106738181D01*
X150187812Y-106671228D01*
X150208377Y-106614727D01*
X150217900Y-106560721D01*
X150217900Y-103383077D01*
X150217600Y-103376195D01*
X150215965Y-103357499D01*
X150195410Y-103292305D01*
X150188928Y-103281079D01*
X150165346Y-103240234D01*
X150149561Y-103217691D01*
X150149559Y-103217689D01*
X150102921Y-103185033D01*
X150082607Y-103170809D01*
X150026106Y-103150244D01*
X150026093Y-103150241D01*
X149972112Y-103140722D01*
X149972102Y-103140721D01*
X149972100Y-103140721D01*
X148394456Y-103140721D01*
X148392662Y-103140799D01*
X148387580Y-103141020D01*
X148368883Y-103142655D01*
X148368875Y-103142656D01*
X148303686Y-103163209D01*
X148303680Y-103163212D01*
X148251611Y-103193275D01*
X148232263Y-103206823D01*
X148181017Y-103220552D01*
X148183939Y-103224725D01*
X148181633Y-103277538D01*
X148161624Y-103332510D01*
X148161620Y-103332527D01*
X148152101Y-103386508D01*
X148152100Y-103386526D01*
X148152100Y-104720568D01*
X148131535Y-104777069D01*
X148079464Y-104807133D01*
X148034137Y-104803167D01*
X148026111Y-104800245D01*
X148026093Y-104800241D01*
X147972112Y-104790722D01*
X147972102Y-104790721D01*
X147972100Y-104790721D01*
X147972095Y-104790721D01*
X146827768Y-104790721D01*
X146771267Y-104770156D01*
X146765613Y-104764976D01*
X145673645Y-103673007D01*
X145648234Y-103618513D01*
X145647900Y-103610852D01*
X145647900Y-103052621D01*
X146321809Y-103052621D01*
X146362340Y-103139540D01*
X146362342Y-103139543D01*
X146444079Y-103221279D01*
X146444083Y-103221282D01*
X146548845Y-103270133D01*
X146548854Y-103270136D01*
X146596587Y-103276420D01*
X146968500Y-103276420D01*
X146968500Y-103276418D01*
X147476500Y-103276418D01*
X147476501Y-103276420D01*
X147848414Y-103276420D01*
X147848415Y-103276419D01*
X147896145Y-103270137D01*
X147896151Y-103270135D01*
X148000917Y-103221281D01*
X148036879Y-103185320D01*
X148091373Y-103159909D01*
X148103986Y-103163288D01*
X148094282Y-103142476D01*
X148102184Y-103097669D01*
X148123191Y-103052621D01*
X147476501Y-103052621D01*
X147476500Y-103052622D01*
X147476500Y-103276418D01*
X146968500Y-103276418D01*
X146968500Y-103052622D01*
X146968499Y-103052621D01*
X146321809Y-103052621D01*
X145647900Y-103052621D01*
X145647900Y-102544620D01*
X146321808Y-102544620D01*
X146321809Y-102544621D01*
X146968499Y-102544621D01*
X146968500Y-102544619D01*
X146968500Y-102320822D01*
X146968499Y-102320821D01*
X147476500Y-102320821D01*
X147476500Y-102544620D01*
X147476501Y-102544621D01*
X148123191Y-102544621D01*
X148123191Y-102544620D01*
X148082659Y-102457701D01*
X148082657Y-102457698D01*
X148000920Y-102375962D01*
X148000916Y-102375959D01*
X147896154Y-102327108D01*
X147896145Y-102327105D01*
X147848413Y-102320821D01*
X147476500Y-102320821D01*
X146968499Y-102320821D01*
X146596586Y-102320821D01*
X146596584Y-102320822D01*
X146548854Y-102327104D01*
X146548848Y-102327106D01*
X146444081Y-102375961D01*
X146444079Y-102375962D01*
X146362342Y-102457698D01*
X146362340Y-102457701D01*
X146321808Y-102544620D01*
X145647900Y-102544620D01*
X145647900Y-102043839D01*
X148207100Y-102043839D01*
X148207101Y-102043858D01*
X148210038Y-102069170D01*
X148210039Y-102069174D01*
X148222527Y-102097456D01*
X148255780Y-102172766D01*
X148335855Y-102252841D01*
X148439450Y-102298583D01*
X148464774Y-102301521D01*
X148890995Y-102301521D01*
X148915760Y-102305082D01*
X149040536Y-102341720D01*
X149040539Y-102341720D01*
X149040541Y-102341721D01*
X149040542Y-102341721D01*
X149179458Y-102341721D01*
X149179459Y-102341721D01*
X149179461Y-102341720D01*
X149179463Y-102341720D01*
X149304240Y-102305082D01*
X149329005Y-102301521D01*
X149730219Y-102301521D01*
X149730226Y-102301521D01*
X149755550Y-102298583D01*
X149859145Y-102252841D01*
X149939220Y-102172766D01*
X149984962Y-102069171D01*
X149987900Y-102043847D01*
X149987900Y-101653395D01*
X149984962Y-101628071D01*
X149939220Y-101524476D01*
X149859145Y-101444401D01*
X149859143Y-101444400D01*
X149755553Y-101398660D01*
X149755551Y-101398659D01*
X149755550Y-101398659D01*
X149748061Y-101397790D01*
X149730237Y-101395722D01*
X149730232Y-101395721D01*
X149730226Y-101395721D01*
X149730219Y-101395721D01*
X149260891Y-101395721D01*
X149236126Y-101392160D01*
X149179463Y-101375521D01*
X149179459Y-101375521D01*
X149040541Y-101375521D01*
X149040536Y-101375521D01*
X148983874Y-101392160D01*
X148959109Y-101395721D01*
X148464774Y-101395721D01*
X148464768Y-101395721D01*
X148464762Y-101395722D01*
X148439450Y-101398659D01*
X148439446Y-101398660D01*
X148335856Y-101444400D01*
X148255779Y-101524477D01*
X148210039Y-101628067D01*
X148210038Y-101628071D01*
X148207101Y-101653383D01*
X148207100Y-101653402D01*
X148207100Y-102043839D01*
X145647900Y-102043839D01*
X145647900Y-101276421D01*
X145668465Y-101219920D01*
X145720536Y-101189856D01*
X145735800Y-101188521D01*
X151784200Y-101188521D01*
X151840701Y-101209086D01*
X151870765Y-101261157D01*
X151872100Y-101276421D01*
X151872100Y-103919211D01*
X151872101Y-103919243D01*
X151872101Y-103962398D01*
X151881458Y-104003398D01*
X151882284Y-104008259D01*
X151886994Y-104050057D01*
X151886995Y-104050061D01*
X151900886Y-104089757D01*
X151902251Y-104094497D01*
X151911607Y-104135490D01*
X151911608Y-104135493D01*
X151929856Y-104173385D01*
X151931743Y-104177941D01*
X151945634Y-104217639D01*
X151945635Y-104217641D01*
X151968012Y-104253254D01*
X151970397Y-104257570D01*
X151988644Y-104295459D01*
X151988644Y-104295460D01*
X151988645Y-104295461D01*
X152014869Y-104328345D01*
X152017716Y-104332357D01*
X152040098Y-104367977D01*
X152054980Y-104382859D01*
X152069865Y-104397745D01*
X152071584Y-104399464D01*
X152071585Y-104399465D01*
X154026355Y-106354235D01*
X154051766Y-106408728D01*
X154052100Y-106416388D01*
X154052100Y-106614165D01*
X154052191Y-106616258D01*
X154052399Y-106621040D01*
X154054034Y-106639737D01*
X154054035Y-106639745D01*
X154074588Y-106704934D01*
X154074591Y-106704940D01*
X154104653Y-106757007D01*
X154120438Y-106779550D01*
X154120440Y-106779552D01*
X154187393Y-106826433D01*
X154243894Y-106846998D01*
X154259240Y-106849704D01*
X154297887Y-106856519D01*
X154297891Y-106856519D01*
X154297900Y-106856521D01*
X154297905Y-106856521D01*
X155875532Y-106856521D01*
X155875544Y-106856521D01*
X155882426Y-106856221D01*
X155901122Y-106854586D01*
X155966316Y-106834031D01*
X156018387Y-106803967D01*
X156040931Y-106788181D01*
X156044215Y-106783489D01*
X156093465Y-106749001D01*
X156153364Y-106754237D01*
X156166636Y-106761899D01*
X156187393Y-106776433D01*
X156243894Y-106796998D01*
X156259240Y-106799704D01*
X156297887Y-106806519D01*
X156297891Y-106806519D01*
X156297900Y-106806521D01*
X156297905Y-106806521D01*
X157875532Y-106806521D01*
X157875544Y-106806521D01*
X157882426Y-106806221D01*
X157901122Y-106804586D01*
X157966316Y-106784031D01*
X158018387Y-106753967D01*
X158040931Y-106738181D01*
X158087812Y-106671228D01*
X158108377Y-106614727D01*
X158117900Y-106560721D01*
X158117900Y-103383077D01*
X158117600Y-103376195D01*
X158115965Y-103357499D01*
X158095410Y-103292305D01*
X158088928Y-103281079D01*
X158065346Y-103240234D01*
X158049561Y-103217691D01*
X158049559Y-103217689D01*
X158002921Y-103185033D01*
X157982607Y-103170809D01*
X157926106Y-103150244D01*
X157926093Y-103150241D01*
X157872112Y-103140722D01*
X157872102Y-103140721D01*
X157872100Y-103140721D01*
X156294456Y-103140721D01*
X156292662Y-103140799D01*
X156287580Y-103141020D01*
X156268883Y-103142655D01*
X156268875Y-103142656D01*
X156203686Y-103163209D01*
X156203680Y-103163212D01*
X156151611Y-103193275D01*
X156132263Y-103206823D01*
X156081017Y-103220552D01*
X156083939Y-103224725D01*
X156081633Y-103277538D01*
X156061624Y-103332510D01*
X156061620Y-103332527D01*
X156052101Y-103386508D01*
X156052100Y-103386526D01*
X156052100Y-104720568D01*
X156031535Y-104777069D01*
X155979464Y-104807133D01*
X155934137Y-104803167D01*
X155926111Y-104800245D01*
X155926093Y-104800241D01*
X155872112Y-104790722D01*
X155872102Y-104790721D01*
X155872100Y-104790721D01*
X155872095Y-104790721D01*
X154727769Y-104790721D01*
X154671268Y-104770156D01*
X154665614Y-104764976D01*
X153473645Y-103573007D01*
X153448234Y-103518513D01*
X153447900Y-103510852D01*
X153447900Y-103052621D01*
X154221809Y-103052621D01*
X154262340Y-103139540D01*
X154262342Y-103139543D01*
X154344079Y-103221279D01*
X154344083Y-103221282D01*
X154448845Y-103270133D01*
X154448854Y-103270136D01*
X154496587Y-103276420D01*
X154868499Y-103276420D01*
X154868499Y-103052621D01*
X155376500Y-103052621D01*
X155376500Y-103276419D01*
X155376501Y-103276420D01*
X155748414Y-103276420D01*
X155748415Y-103276419D01*
X155796145Y-103270137D01*
X155796151Y-103270135D01*
X155900917Y-103221281D01*
X155936879Y-103185320D01*
X155991373Y-103159909D01*
X156003986Y-103163288D01*
X155994282Y-103142476D01*
X156002184Y-103097669D01*
X156023191Y-103052621D01*
X155376500Y-103052621D01*
X154868499Y-103052621D01*
X154221809Y-103052621D01*
X153447900Y-103052621D01*
X153447900Y-102573621D01*
X160600480Y-102573621D01*
X160626844Y-102633332D01*
X160700287Y-102706775D01*
X160795292Y-102748724D01*
X160795296Y-102748725D01*
X160818513Y-102751419D01*
X160818532Y-102751420D01*
X161297500Y-102751420D01*
X161297500Y-102751418D01*
X161697500Y-102751418D01*
X161697501Y-102751420D01*
X162176471Y-102751420D01*
X162199705Y-102748725D01*
X162294712Y-102706775D01*
X162368155Y-102633332D01*
X162394520Y-102573621D01*
X161697501Y-102573621D01*
X161697500Y-102573622D01*
X161697500Y-102751418D01*
X161297500Y-102751418D01*
X161297500Y-102573622D01*
X161297499Y-102573621D01*
X160600480Y-102573621D01*
X153447900Y-102573621D01*
X153447900Y-102544620D01*
X154221808Y-102544620D01*
X154221809Y-102544621D01*
X154868499Y-102544621D01*
X154868499Y-102544620D01*
X155376500Y-102544620D01*
X155376501Y-102544621D01*
X156023191Y-102544621D01*
X156023191Y-102544620D01*
X155982659Y-102457701D01*
X155982657Y-102457698D01*
X155900920Y-102375962D01*
X155900916Y-102375959D01*
X155796154Y-102327108D01*
X155796145Y-102327105D01*
X155748413Y-102320821D01*
X155376501Y-102320821D01*
X155376500Y-102320822D01*
X155376500Y-102544620D01*
X154868499Y-102544620D01*
X154868499Y-102320821D01*
X154496586Y-102320821D01*
X154496584Y-102320822D01*
X154448854Y-102327104D01*
X154448848Y-102327106D01*
X154344081Y-102375961D01*
X154344079Y-102375962D01*
X154262342Y-102457698D01*
X154262340Y-102457701D01*
X154221808Y-102544620D01*
X153447900Y-102544620D01*
X153447900Y-101276421D01*
X153468465Y-101219920D01*
X153520536Y-101189856D01*
X153535800Y-101188521D01*
X156853876Y-101188521D01*
X156910377Y-101209086D01*
X156940441Y-101261157D01*
X156930000Y-101320371D01*
X156883940Y-101359020D01*
X156878641Y-101360760D01*
X156797249Y-101384658D01*
X156791530Y-101387271D01*
X156790522Y-101385064D01*
X156754227Y-101395721D01*
X156364774Y-101395721D01*
X156364768Y-101395721D01*
X156364762Y-101395722D01*
X156339450Y-101398659D01*
X156339446Y-101398660D01*
X156235856Y-101444400D01*
X156155779Y-101524477D01*
X156110039Y-101628067D01*
X156110038Y-101628071D01*
X156107101Y-101653383D01*
X156107100Y-101653402D01*
X156107100Y-102043839D01*
X156107101Y-102043858D01*
X156110038Y-102069170D01*
X156110039Y-102069174D01*
X156122527Y-102097456D01*
X156155780Y-102172766D01*
X156235855Y-102252841D01*
X156339450Y-102298583D01*
X156364774Y-102301521D01*
X156883166Y-102301521D01*
X156907929Y-102305081D01*
X156930541Y-102311721D01*
X156930542Y-102311721D01*
X157069458Y-102311721D01*
X157069459Y-102311721D01*
X157092070Y-102305081D01*
X157116834Y-102301521D01*
X157630219Y-102301521D01*
X157630226Y-102301521D01*
X157655550Y-102298583D01*
X157759145Y-102252841D01*
X157838365Y-102173621D01*
X160600480Y-102173621D01*
X162394519Y-102173621D01*
X162368155Y-102113909D01*
X162357022Y-102102776D01*
X162331611Y-102048282D01*
X162347174Y-101990204D01*
X162396427Y-101955716D01*
X162419177Y-101952721D01*
X162453544Y-101952721D01*
X162510045Y-101973286D01*
X162540109Y-102025357D01*
X162540549Y-102028111D01*
X162541700Y-102036120D01*
X162541701Y-102036124D01*
X162541702Y-102036126D01*
X162599411Y-102162490D01*
X162690383Y-102267478D01*
X162690385Y-102267479D01*
X162690386Y-102267480D01*
X162807245Y-102342581D01*
X162807246Y-102342581D01*
X162807249Y-102342583D01*
X162898035Y-102369240D01*
X162940536Y-102381720D01*
X162940539Y-102381720D01*
X162940541Y-102381721D01*
X162940542Y-102381721D01*
X163079458Y-102381721D01*
X163079459Y-102381721D01*
X163079461Y-102381720D01*
X163079463Y-102381720D01*
X163099079Y-102375960D01*
X163212751Y-102342583D01*
X163329617Y-102267478D01*
X163420589Y-102162490D01*
X163478298Y-102036126D01*
X163482636Y-102005952D01*
X163498068Y-101898624D01*
X163498068Y-101898619D01*
X163484963Y-101807476D01*
X163482893Y-101793076D01*
X163495207Y-101734224D01*
X163542470Y-101697056D01*
X163594663Y-101696228D01*
X163715536Y-101731720D01*
X163715539Y-101731720D01*
X163715541Y-101731721D01*
X163715542Y-101731721D01*
X163854458Y-101731721D01*
X163854459Y-101731721D01*
X163854461Y-101731720D01*
X163854463Y-101731720D01*
X163870305Y-101727067D01*
X163987751Y-101692583D01*
X164104617Y-101617478D01*
X164195589Y-101512490D01*
X164253298Y-101386126D01*
X164259136Y-101345521D01*
X164273068Y-101248624D01*
X164273068Y-101248617D01*
X164253299Y-101111122D01*
X164253298Y-101111121D01*
X164253298Y-101111116D01*
X164195589Y-100984752D01*
X164112777Y-100889181D01*
X164104618Y-100879765D01*
X164104617Y-100879764D01*
X164042313Y-100839724D01*
X164026786Y-100829745D01*
X163990373Y-100781898D01*
X163993234Y-100721839D01*
X164034031Y-100677670D01*
X164049541Y-100671461D01*
X164062751Y-100667583D01*
X164179617Y-100592478D01*
X164270589Y-100487490D01*
X164328298Y-100361126D01*
X164339538Y-100282950D01*
X164348068Y-100223624D01*
X164348068Y-100223617D01*
X164328299Y-100086122D01*
X164328298Y-100086121D01*
X164328298Y-100086116D01*
X164270589Y-99959752D01*
X164179617Y-99854764D01*
X164179615Y-99854763D01*
X164179613Y-99854761D01*
X164062754Y-99779660D01*
X164062751Y-99779659D01*
X164028153Y-99769500D01*
X163929463Y-99740521D01*
X163929459Y-99740521D01*
X163790541Y-99740521D01*
X163790536Y-99740521D01*
X163657249Y-99779659D01*
X163657245Y-99779660D01*
X163650270Y-99784143D01*
X163591620Y-99797386D01*
X163538178Y-99769831D01*
X163515747Y-99722702D01*
X163503299Y-99636122D01*
X163503298Y-99636121D01*
X163503298Y-99636116D01*
X163445589Y-99509752D01*
X163355716Y-99406032D01*
X163354618Y-99404765D01*
X163354613Y-99404761D01*
X163237754Y-99329660D01*
X163237751Y-99329659D01*
X163211092Y-99321831D01*
X163104463Y-99290521D01*
X163104459Y-99290521D01*
X162965541Y-99290521D01*
X162965536Y-99290521D01*
X162832249Y-99329659D01*
X162832245Y-99329660D01*
X162715386Y-99404761D01*
X162715381Y-99404765D01*
X162667065Y-99460526D01*
X162635066Y-99497456D01*
X162620572Y-99514183D01*
X162568030Y-99543417D01*
X162554141Y-99544521D01*
X162419177Y-99544521D01*
X162362676Y-99523956D01*
X162332612Y-99471885D01*
X162343053Y-99412671D01*
X162357022Y-99394466D01*
X162368155Y-99383332D01*
X162394520Y-99323621D01*
X160600480Y-99323621D01*
X160626844Y-99383332D01*
X160649544Y-99406032D01*
X160674955Y-99460526D01*
X160660475Y-99517021D01*
X160621774Y-99574940D01*
X160621772Y-99574946D01*
X160610743Y-99630394D01*
X160607101Y-99648708D01*
X160607100Y-99648711D01*
X160607100Y-99898533D01*
X160619278Y-99959752D01*
X160621773Y-99972298D01*
X160655842Y-100023286D01*
X160673549Y-100049786D01*
X160687841Y-100108190D01*
X160673549Y-100147456D01*
X160621773Y-100224943D01*
X160621772Y-100224946D01*
X160613427Y-100266902D01*
X160607101Y-100298708D01*
X160607100Y-100298711D01*
X160607100Y-100548533D01*
X160615842Y-100592480D01*
X160621773Y-100622298D01*
X160655842Y-100673286D01*
X160673549Y-100699786D01*
X160687841Y-100758190D01*
X160673549Y-100797456D01*
X160621773Y-100874943D01*
X160621772Y-100874946D01*
X160613807Y-100914993D01*
X160609034Y-100938990D01*
X160607100Y-100948711D01*
X160607100Y-101198533D01*
X160617064Y-101248624D01*
X160621773Y-101272298D01*
X160673549Y-101349786D01*
X160687841Y-101408189D01*
X160673549Y-101447454D01*
X160621774Y-101524940D01*
X160621772Y-101524946D01*
X160607100Y-101598711D01*
X160607100Y-101848533D01*
X160617064Y-101898624D01*
X160621773Y-101922298D01*
X160660475Y-101980219D01*
X160674767Y-102038623D01*
X160649545Y-102091208D01*
X160626844Y-102113908D01*
X160600480Y-102173621D01*
X157838365Y-102173621D01*
X157839220Y-102172766D01*
X157884962Y-102069171D01*
X157887900Y-102043847D01*
X157887900Y-101653395D01*
X157884962Y-101628071D01*
X157839220Y-101524476D01*
X157759145Y-101444401D01*
X157759143Y-101444400D01*
X157655553Y-101398660D01*
X157655551Y-101398659D01*
X157655550Y-101398659D01*
X157648061Y-101397790D01*
X157630237Y-101395722D01*
X157630232Y-101395721D01*
X157630226Y-101395721D01*
X157630219Y-101395721D01*
X157245773Y-101395721D01*
X157209477Y-101385064D01*
X157208470Y-101387271D01*
X157202750Y-101384658D01*
X157121359Y-101360760D01*
X157072941Y-101325110D01*
X157058766Y-101266678D01*
X157085466Y-101212805D01*
X157140549Y-101188698D01*
X157146124Y-101188521D01*
X158282956Y-101188521D01*
X158346647Y-101181826D01*
X158426266Y-101173458D01*
X158609173Y-101114028D01*
X158609175Y-101114026D01*
X158609177Y-101114026D01*
X158652256Y-101089153D01*
X158775727Y-101017868D01*
X158918649Y-100889181D01*
X159031691Y-100733591D01*
X159109915Y-100557898D01*
X159116629Y-100526306D01*
X159140451Y-100482427D01*
X159548415Y-100074465D01*
X159548416Y-100074462D01*
X159552226Y-100070653D01*
X159552228Y-100070649D01*
X159579902Y-100042977D01*
X159602286Y-100007350D01*
X159605116Y-100003363D01*
X159631356Y-99970461D01*
X159649612Y-99932548D01*
X159651985Y-99928256D01*
X159674365Y-99892641D01*
X159688257Y-99852938D01*
X159690145Y-99848381D01*
X159708391Y-99810494D01*
X159717751Y-99769482D01*
X159719109Y-99764768D01*
X159733006Y-99725055D01*
X159737717Y-99683236D01*
X159738536Y-99678417D01*
X159747900Y-99637395D01*
X159747900Y-99459846D01*
X159747900Y-99459845D01*
X159747900Y-98673621D01*
X160600480Y-98673621D01*
X160626845Y-98733334D01*
X160626847Y-98733336D01*
X160629980Y-98736470D01*
X160655388Y-98790965D01*
X160639823Y-98849042D01*
X160629980Y-98860772D01*
X160626845Y-98863907D01*
X160600480Y-98923621D01*
X161297499Y-98923621D01*
X161297500Y-98923619D01*
X161297500Y-98673622D01*
X161297499Y-98673621D01*
X161697500Y-98673621D01*
X161697500Y-98923620D01*
X161697501Y-98923621D01*
X162394519Y-98923621D01*
X162368155Y-98863909D01*
X162365022Y-98860776D01*
X162339611Y-98806282D01*
X162355174Y-98748204D01*
X162365022Y-98736466D01*
X162368155Y-98733332D01*
X162394520Y-98673621D01*
X161697500Y-98673621D01*
X161297499Y-98673621D01*
X160600480Y-98673621D01*
X159747900Y-98673621D01*
X159747900Y-98023621D01*
X160600480Y-98023621D01*
X160626845Y-98083334D01*
X160626847Y-98083336D01*
X160629980Y-98086470D01*
X160655388Y-98140965D01*
X160639823Y-98199042D01*
X160629980Y-98210772D01*
X160626845Y-98213907D01*
X160600480Y-98273621D01*
X161297499Y-98273621D01*
X161297500Y-98273620D01*
X161697500Y-98273620D01*
X161697501Y-98273621D01*
X162394519Y-98273621D01*
X162368155Y-98213909D01*
X162365022Y-98210776D01*
X162339611Y-98156282D01*
X162355174Y-98098204D01*
X162365022Y-98086466D01*
X162368155Y-98083332D01*
X162394520Y-98023621D01*
X161697501Y-98023621D01*
X161697500Y-98023622D01*
X161697500Y-98273620D01*
X161297500Y-98273620D01*
X161297500Y-98273619D01*
X161297500Y-98023622D01*
X161297499Y-98023621D01*
X160600480Y-98023621D01*
X159747900Y-98023621D01*
X159747900Y-97623621D01*
X160600480Y-97623621D01*
X161297499Y-97623621D01*
X161297500Y-97623620D01*
X161697500Y-97623620D01*
X161697501Y-97623621D01*
X162394519Y-97623621D01*
X162368155Y-97563909D01*
X162294712Y-97490466D01*
X162199707Y-97448517D01*
X162199703Y-97448516D01*
X162176486Y-97445822D01*
X162176468Y-97445821D01*
X161697501Y-97445821D01*
X161697500Y-97445822D01*
X161697500Y-97623620D01*
X161297500Y-97623620D01*
X161297500Y-97623619D01*
X161297500Y-97445822D01*
X161297499Y-97445821D01*
X160818529Y-97445821D01*
X160795294Y-97448516D01*
X160700287Y-97490466D01*
X160626844Y-97563909D01*
X160600480Y-97623621D01*
X159747900Y-97623621D01*
X159747900Y-96768805D01*
X164782200Y-96768805D01*
X164797602Y-96866053D01*
X164857326Y-96983269D01*
X164950351Y-97076294D01*
X165067567Y-97136018D01*
X165164816Y-97151421D01*
X165243499Y-97151421D01*
X165243500Y-97151420D01*
X165751500Y-97151420D01*
X165751501Y-97151421D01*
X165830184Y-97151421D01*
X165927432Y-97136018D01*
X166044648Y-97076294D01*
X166137673Y-96983269D01*
X166197397Y-96866053D01*
X166212800Y-96768805D01*
X166212800Y-96752622D01*
X166212799Y-96752621D01*
X165751501Y-96752621D01*
X165751500Y-96752622D01*
X165751500Y-97151420D01*
X165243500Y-97151420D01*
X165243500Y-96752621D01*
X164782201Y-96752621D01*
X164782200Y-96752622D01*
X164782200Y-96768805D01*
X159747900Y-96768805D01*
X159747900Y-96244620D01*
X164782200Y-96244620D01*
X164782201Y-96244621D01*
X165243499Y-96244621D01*
X165243500Y-96244620D01*
X165243500Y-96244619D01*
X165751500Y-96244619D01*
X165751501Y-96244621D01*
X166212799Y-96244621D01*
X166212800Y-96244619D01*
X166212800Y-96228436D01*
X166197397Y-96131188D01*
X166137673Y-96013972D01*
X166044648Y-95920947D01*
X165927432Y-95861223D01*
X165830184Y-95845821D01*
X165751501Y-95845821D01*
X165751500Y-95845822D01*
X165751500Y-96244619D01*
X165243500Y-96244619D01*
X165243500Y-95845822D01*
X165243499Y-95845821D01*
X165164816Y-95845821D01*
X165067567Y-95861223D01*
X164950351Y-95920947D01*
X164857326Y-96013972D01*
X164797602Y-96131188D01*
X164782200Y-96228436D01*
X164782200Y-96244620D01*
X159747900Y-96244620D01*
X159747900Y-95979377D01*
X159747900Y-95978119D01*
X159747899Y-95978082D01*
X159747899Y-95934847D01*
X159747898Y-95934844D01*
X159744726Y-95920947D01*
X159738539Y-95893838D01*
X159737715Y-95888984D01*
X159737289Y-95885200D01*
X159733006Y-95847187D01*
X159719114Y-95807487D01*
X159717747Y-95802745D01*
X159714290Y-95787597D01*
X159708391Y-95761748D01*
X159690139Y-95723850D01*
X159688259Y-95719310D01*
X159674365Y-95679601D01*
X159651985Y-95643984D01*
X159649606Y-95639681D01*
X159631355Y-95601781D01*
X159627540Y-95596997D01*
X159605128Y-95568893D01*
X159602274Y-95564870D01*
X159580082Y-95529552D01*
X159579902Y-95529265D01*
X159550620Y-95499983D01*
X159550613Y-95499975D01*
X158143645Y-94093006D01*
X158118234Y-94038512D01*
X158117900Y-94030851D01*
X158117900Y-93833089D01*
X158117900Y-93833077D01*
X158117600Y-93826195D01*
X158115965Y-93807499D01*
X158113337Y-93799164D01*
X158095411Y-93742307D01*
X158095408Y-93742301D01*
X158065346Y-93690234D01*
X158049561Y-93667691D01*
X158049559Y-93667689D01*
X157982608Y-93620810D01*
X157982609Y-93620810D01*
X157982607Y-93620809D01*
X157926106Y-93600244D01*
X157926093Y-93600241D01*
X157872112Y-93590722D01*
X157872102Y-93590721D01*
X157872100Y-93590721D01*
X156294456Y-93590721D01*
X156292662Y-93590799D01*
X156287580Y-93591020D01*
X156268883Y-93592655D01*
X156268875Y-93592656D01*
X156203686Y-93613209D01*
X156203680Y-93613212D01*
X156151613Y-93643274D01*
X156129070Y-93659059D01*
X156129067Y-93659062D01*
X156125780Y-93663757D01*
X156076525Y-93698243D01*
X156016627Y-93693000D01*
X156003361Y-93685341D01*
X155997838Y-93681474D01*
X155982607Y-93670809D01*
X155926106Y-93650244D01*
X155926093Y-93650241D01*
X155872112Y-93640722D01*
X155872102Y-93640721D01*
X155872100Y-93640721D01*
X154294456Y-93640721D01*
X154292662Y-93640799D01*
X154287580Y-93641020D01*
X154268883Y-93642655D01*
X154268875Y-93642656D01*
X154203686Y-93663209D01*
X154203680Y-93663212D01*
X154151613Y-93693274D01*
X154129070Y-93709059D01*
X154129068Y-93709061D01*
X154082189Y-93776012D01*
X154082188Y-93776014D01*
X154061623Y-93832514D01*
X154061620Y-93832527D01*
X154052101Y-93886508D01*
X154052100Y-93886518D01*
X154052100Y-93886521D01*
X154052100Y-97064165D01*
X154052191Y-97066258D01*
X154052399Y-97071040D01*
X154054034Y-97089737D01*
X154054035Y-97089745D01*
X154074588Y-97154934D01*
X154074591Y-97154940D01*
X154104653Y-97207007D01*
X154120438Y-97229550D01*
X154120440Y-97229552D01*
X154187393Y-97276433D01*
X154243894Y-97296998D01*
X154259240Y-97299704D01*
X154297887Y-97306519D01*
X154297891Y-97306519D01*
X154297900Y-97306521D01*
X154297905Y-97306521D01*
X155875532Y-97306521D01*
X155875544Y-97306521D01*
X155882426Y-97306221D01*
X155901122Y-97304586D01*
X155966316Y-97284031D01*
X155966319Y-97284029D01*
X155968102Y-97283467D01*
X156028172Y-97286090D01*
X156068668Y-97320070D01*
X156084309Y-97344621D01*
X156730999Y-97344621D01*
X156731000Y-97344620D01*
X157239000Y-97344620D01*
X157239001Y-97344621D01*
X157885691Y-97344621D01*
X157885691Y-97344620D01*
X157845159Y-97257701D01*
X157845157Y-97257698D01*
X157763420Y-97175962D01*
X157763416Y-97175959D01*
X157658654Y-97127108D01*
X157658645Y-97127105D01*
X157610913Y-97120821D01*
X157239001Y-97120821D01*
X157239000Y-97120822D01*
X157239000Y-97344620D01*
X156731000Y-97344620D01*
X156731000Y-97120822D01*
X156730999Y-97120821D01*
X156359086Y-97120821D01*
X156359084Y-97120822D01*
X156311354Y-97127104D01*
X156311345Y-97127107D01*
X156240848Y-97159981D01*
X156180950Y-97165222D01*
X156131697Y-97130735D01*
X156116134Y-97072656D01*
X156117135Y-97065057D01*
X156117900Y-97060721D01*
X156117900Y-95726673D01*
X156138465Y-95670172D01*
X156190536Y-95640108D01*
X156235865Y-95644075D01*
X156243894Y-95646998D01*
X156259240Y-95649704D01*
X156297887Y-95656519D01*
X156297891Y-95656519D01*
X156297900Y-95656521D01*
X157442231Y-95656521D01*
X157498732Y-95677086D01*
X157504386Y-95682266D01*
X158146355Y-96324234D01*
X158171766Y-96378728D01*
X158172100Y-96386389D01*
X158172100Y-99185852D01*
X158151535Y-99242353D01*
X158146355Y-99248006D01*
X158061387Y-99332975D01*
X158006894Y-99358386D01*
X157999232Y-99358721D01*
X153535800Y-99358721D01*
X153479299Y-99338156D01*
X153449235Y-99286085D01*
X153447900Y-99270821D01*
X153447900Y-98743839D01*
X154219600Y-98743839D01*
X154219601Y-98743858D01*
X154222538Y-98769170D01*
X154222539Y-98769174D01*
X154262984Y-98860772D01*
X154268280Y-98872766D01*
X154348355Y-98952841D01*
X154451950Y-98998583D01*
X154477274Y-99001521D01*
X154932552Y-99001521D01*
X154957317Y-99005082D01*
X155048036Y-99031720D01*
X155048039Y-99031720D01*
X155048041Y-99031721D01*
X155048042Y-99031721D01*
X155186958Y-99031721D01*
X155186959Y-99031721D01*
X155186961Y-99031720D01*
X155186963Y-99031720D01*
X155277683Y-99005082D01*
X155302448Y-99001521D01*
X155742719Y-99001521D01*
X155742726Y-99001521D01*
X155768050Y-98998583D01*
X155871645Y-98952841D01*
X155951720Y-98872766D01*
X155997462Y-98769171D01*
X156000400Y-98743847D01*
X156000400Y-98353395D01*
X155997462Y-98328071D01*
X155951720Y-98224476D01*
X155871645Y-98144401D01*
X155871643Y-98144400D01*
X155768053Y-98098660D01*
X155768051Y-98098659D01*
X155768050Y-98098659D01*
X155760561Y-98097790D01*
X155742737Y-98095722D01*
X155742732Y-98095721D01*
X155742726Y-98095721D01*
X155742719Y-98095721D01*
X155302448Y-98095721D01*
X155277683Y-98092160D01*
X155186963Y-98065521D01*
X155186959Y-98065521D01*
X155048041Y-98065521D01*
X155048036Y-98065521D01*
X154957317Y-98092160D01*
X154932552Y-98095721D01*
X154477274Y-98095721D01*
X154477268Y-98095721D01*
X154477262Y-98095722D01*
X154451950Y-98098659D01*
X154451946Y-98098660D01*
X154348356Y-98144400D01*
X154268279Y-98224477D01*
X154222539Y-98328067D01*
X154222538Y-98328071D01*
X154219601Y-98353383D01*
X154219600Y-98353402D01*
X154219600Y-98743839D01*
X153447900Y-98743839D01*
X153447900Y-97852621D01*
X156084309Y-97852621D01*
X156124840Y-97939540D01*
X156124842Y-97939543D01*
X156206579Y-98021279D01*
X156206583Y-98021282D01*
X156311345Y-98070133D01*
X156311354Y-98070136D01*
X156359087Y-98076420D01*
X156731000Y-98076420D01*
X156731000Y-98076418D01*
X157239000Y-98076418D01*
X157239001Y-98076420D01*
X157610914Y-98076420D01*
X157610915Y-98076419D01*
X157658645Y-98070137D01*
X157658651Y-98070135D01*
X157763418Y-98021280D01*
X157763420Y-98021279D01*
X157845157Y-97939543D01*
X157845159Y-97939540D01*
X157885691Y-97852621D01*
X157239001Y-97852621D01*
X157239000Y-97852622D01*
X157239000Y-98076418D01*
X156731000Y-98076418D01*
X156731000Y-97852621D01*
X156084309Y-97852621D01*
X153447900Y-97852621D01*
X153447900Y-97534851D01*
X153447900Y-97534847D01*
X153438536Y-97493826D01*
X153437717Y-97489004D01*
X153433006Y-97447187D01*
X153419111Y-97407479D01*
X153417750Y-97402756D01*
X153408391Y-97361748D01*
X153390144Y-97323857D01*
X153388256Y-97319300D01*
X153383784Y-97306521D01*
X153374365Y-97279601D01*
X153365109Y-97264870D01*
X153351989Y-97243989D01*
X153349603Y-97239672D01*
X153348885Y-97238181D01*
X153331356Y-97201781D01*
X153305125Y-97168889D01*
X153302275Y-97164872D01*
X153297333Y-97157007D01*
X153279902Y-97129265D01*
X153250620Y-97099983D01*
X153250613Y-97099975D01*
X150243645Y-94093006D01*
X150218234Y-94038512D01*
X150217900Y-94030851D01*
X150217900Y-93783089D01*
X150217900Y-93783077D01*
X150217600Y-93776195D01*
X150215965Y-93757499D01*
X150211175Y-93742307D01*
X150195411Y-93692307D01*
X150195408Y-93692301D01*
X150165346Y-93640234D01*
X150149561Y-93617691D01*
X150149559Y-93617689D01*
X150082608Y-93570810D01*
X150082609Y-93570810D01*
X150082607Y-93570809D01*
X150026106Y-93550244D01*
X150026093Y-93550241D01*
X149972112Y-93540722D01*
X149972102Y-93540721D01*
X149972100Y-93540721D01*
X148394456Y-93540721D01*
X148392662Y-93540799D01*
X148387580Y-93541020D01*
X148368883Y-93542655D01*
X148368875Y-93542656D01*
X148303686Y-93563209D01*
X148303680Y-93563212D01*
X148251613Y-93593274D01*
X148229070Y-93609059D01*
X148229067Y-93609062D01*
X148225780Y-93613757D01*
X148176525Y-93648243D01*
X148116627Y-93643000D01*
X148103361Y-93635341D01*
X148082608Y-93620810D01*
X148082609Y-93620810D01*
X148082607Y-93620809D01*
X148026106Y-93600244D01*
X148026093Y-93600241D01*
X147972112Y-93590722D01*
X147972102Y-93590721D01*
X147972100Y-93590721D01*
X146394456Y-93590721D01*
X146392662Y-93590799D01*
X146387580Y-93591020D01*
X146368883Y-93592655D01*
X146368875Y-93592656D01*
X146303686Y-93613209D01*
X146303680Y-93613212D01*
X146251613Y-93643274D01*
X146229070Y-93659059D01*
X146229068Y-93659061D01*
X146182189Y-93726012D01*
X146182188Y-93726014D01*
X146161623Y-93782514D01*
X146161620Y-93782527D01*
X146152101Y-93836508D01*
X146152100Y-93836526D01*
X146152100Y-97014158D01*
X146152399Y-97021040D01*
X146154034Y-97039737D01*
X146154035Y-97039745D01*
X146174588Y-97104934D01*
X146174591Y-97104940D01*
X146204653Y-97157007D01*
X146220438Y-97179550D01*
X146220440Y-97179552D01*
X146287393Y-97226433D01*
X146343894Y-97246998D01*
X146359240Y-97249704D01*
X146397887Y-97256519D01*
X146397891Y-97256519D01*
X146397900Y-97256521D01*
X146397905Y-97256521D01*
X147975532Y-97256521D01*
X147975544Y-97256521D01*
X147982426Y-97256221D01*
X148001122Y-97254586D01*
X148053154Y-97238181D01*
X148070894Y-97232588D01*
X148071298Y-97233871D01*
X148125863Y-97230283D01*
X148174360Y-97265827D01*
X148188664Y-97324228D01*
X148183373Y-97343152D01*
X148184309Y-97344621D01*
X148830999Y-97344621D01*
X148831000Y-97344620D01*
X149339000Y-97344620D01*
X149339001Y-97344621D01*
X149985691Y-97344621D01*
X149985691Y-97344620D01*
X149945159Y-97257701D01*
X149945157Y-97257698D01*
X149863420Y-97175962D01*
X149863416Y-97175959D01*
X149758654Y-97127108D01*
X149758645Y-97127105D01*
X149710913Y-97120821D01*
X149339001Y-97120821D01*
X149339000Y-97120822D01*
X149339000Y-97344620D01*
X148831000Y-97344620D01*
X148831000Y-97120822D01*
X148830999Y-97120821D01*
X148459086Y-97120821D01*
X148459084Y-97120822D01*
X148411354Y-97127104D01*
X148411350Y-97127105D01*
X148331134Y-97164511D01*
X148271235Y-97169751D01*
X148221982Y-97135263D01*
X148206421Y-97077185D01*
X148207947Y-97068548D01*
X148207711Y-97068507D01*
X148217898Y-97010733D01*
X148217898Y-97010731D01*
X148217900Y-97010721D01*
X148217900Y-95676673D01*
X148238465Y-95620172D01*
X148290536Y-95590108D01*
X148335865Y-95594075D01*
X148343894Y-95596998D01*
X148359240Y-95599704D01*
X148397887Y-95606519D01*
X148397891Y-95606519D01*
X148397900Y-95606521D01*
X149492231Y-95606521D01*
X149548732Y-95627086D01*
X149554386Y-95632265D01*
X151846355Y-97924235D01*
X151871766Y-97978728D01*
X151872100Y-97986389D01*
X151872100Y-99270821D01*
X151851535Y-99327322D01*
X151799464Y-99357386D01*
X151784200Y-99358721D01*
X145735800Y-99358721D01*
X145679299Y-99338156D01*
X145649235Y-99286085D01*
X145647900Y-99270821D01*
X145647900Y-98743839D01*
X146319600Y-98743839D01*
X146319601Y-98743858D01*
X146322538Y-98769170D01*
X146322539Y-98769174D01*
X146362984Y-98860772D01*
X146368280Y-98872766D01*
X146448355Y-98952841D01*
X146551950Y-98998583D01*
X146577274Y-99001521D01*
X147022552Y-99001521D01*
X147047317Y-99005082D01*
X147138036Y-99031720D01*
X147138039Y-99031720D01*
X147138041Y-99031721D01*
X147138042Y-99031721D01*
X147276958Y-99031721D01*
X147276959Y-99031721D01*
X147276961Y-99031720D01*
X147276963Y-99031720D01*
X147367683Y-99005082D01*
X147392448Y-99001521D01*
X147842719Y-99001521D01*
X147842726Y-99001521D01*
X147868050Y-98998583D01*
X147971645Y-98952841D01*
X148051720Y-98872766D01*
X148097462Y-98769171D01*
X148100400Y-98743847D01*
X148100400Y-98353395D01*
X148097462Y-98328071D01*
X148051720Y-98224476D01*
X147971645Y-98144401D01*
X147971643Y-98144400D01*
X147868053Y-98098660D01*
X147868051Y-98098659D01*
X147868050Y-98098659D01*
X147860561Y-98097790D01*
X147842737Y-98095722D01*
X147842732Y-98095721D01*
X147842726Y-98095721D01*
X147842719Y-98095721D01*
X147392448Y-98095721D01*
X147367683Y-98092160D01*
X147276963Y-98065521D01*
X147276959Y-98065521D01*
X147138041Y-98065521D01*
X147138036Y-98065521D01*
X147047317Y-98092160D01*
X147022552Y-98095721D01*
X146577274Y-98095721D01*
X146577268Y-98095721D01*
X146577262Y-98095722D01*
X146551950Y-98098659D01*
X146551946Y-98098660D01*
X146448356Y-98144400D01*
X146368279Y-98224477D01*
X146322539Y-98328067D01*
X146322538Y-98328071D01*
X146319601Y-98353383D01*
X146319600Y-98353402D01*
X146319600Y-98743839D01*
X145647900Y-98743839D01*
X145647900Y-97852621D01*
X148184309Y-97852621D01*
X148224840Y-97939540D01*
X148224842Y-97939543D01*
X148306579Y-98021279D01*
X148306583Y-98021282D01*
X148411345Y-98070133D01*
X148411354Y-98070136D01*
X148459087Y-98076420D01*
X148831000Y-98076420D01*
X148831000Y-98076419D01*
X149339000Y-98076419D01*
X149339001Y-98076420D01*
X149710914Y-98076420D01*
X149710915Y-98076419D01*
X149758645Y-98070137D01*
X149758651Y-98070135D01*
X149863418Y-98021280D01*
X149863420Y-98021279D01*
X149945157Y-97939543D01*
X149945159Y-97939540D01*
X149985691Y-97852621D01*
X149339001Y-97852621D01*
X149339000Y-97852622D01*
X149339000Y-98076419D01*
X148831000Y-98076419D01*
X148831000Y-97852622D01*
X148830999Y-97852621D01*
X148184309Y-97852621D01*
X145647900Y-97852621D01*
X145647900Y-97678119D01*
X145647899Y-97678082D01*
X145647899Y-97634847D01*
X145647898Y-97634844D01*
X145645639Y-97624946D01*
X145638539Y-97593838D01*
X145637715Y-97588984D01*
X145633006Y-97547187D01*
X145619114Y-97507487D01*
X145617747Y-97502745D01*
X145608391Y-97461748D01*
X145590139Y-97423850D01*
X145588259Y-97419310D01*
X145574365Y-97379601D01*
X145551985Y-97343984D01*
X145549606Y-97339681D01*
X145531355Y-97301781D01*
X145513667Y-97279601D01*
X145505128Y-97268893D01*
X145502274Y-97264870D01*
X145497769Y-97257701D01*
X145479902Y-97229265D01*
X145450620Y-97199983D01*
X145450613Y-97199975D01*
X142343645Y-94093006D01*
X142318234Y-94038512D01*
X142317900Y-94030851D01*
X142317900Y-93783089D01*
X142317900Y-93783077D01*
X142317600Y-93776195D01*
X142315965Y-93757499D01*
X142311175Y-93742307D01*
X142295411Y-93692307D01*
X142295408Y-93692301D01*
X142265346Y-93640234D01*
X142249561Y-93617691D01*
X142249559Y-93617689D01*
X142182608Y-93570810D01*
X142182609Y-93570810D01*
X142182607Y-93570809D01*
X142126106Y-93550244D01*
X142126093Y-93550241D01*
X142072112Y-93540722D01*
X142072102Y-93540721D01*
X142072100Y-93540721D01*
X140494456Y-93540721D01*
X140492662Y-93540799D01*
X140487580Y-93541020D01*
X140468883Y-93542655D01*
X140468875Y-93542656D01*
X140403686Y-93563209D01*
X140403680Y-93563212D01*
X140351615Y-93593273D01*
X140333570Y-93605909D01*
X140275491Y-93621470D01*
X140232736Y-93605909D01*
X140182608Y-93570810D01*
X140182609Y-93570810D01*
X140182607Y-93570809D01*
X140126106Y-93550244D01*
X140126093Y-93550241D01*
X140072112Y-93540722D01*
X140072102Y-93540721D01*
X140072100Y-93540721D01*
X138494456Y-93540721D01*
X138492662Y-93540799D01*
X138487580Y-93541020D01*
X138468883Y-93542655D01*
X138468875Y-93542656D01*
X138403686Y-93563209D01*
X138403680Y-93563212D01*
X138351613Y-93593274D01*
X138329070Y-93609059D01*
X138329068Y-93609061D01*
X138282189Y-93676012D01*
X138282188Y-93676014D01*
X138261623Y-93732514D01*
X138261620Y-93732527D01*
X138252101Y-93786508D01*
X138252100Y-93786518D01*
X138252100Y-93786521D01*
X138252100Y-97064165D01*
X138252191Y-97066258D01*
X138252399Y-97071040D01*
X138254034Y-97089737D01*
X138254035Y-97089745D01*
X138274588Y-97154934D01*
X138274591Y-97154940D01*
X138304653Y-97207007D01*
X138320438Y-97229550D01*
X138320440Y-97229552D01*
X138387393Y-97276433D01*
X138443894Y-97296998D01*
X138459240Y-97299704D01*
X138497887Y-97306519D01*
X138497891Y-97306519D01*
X138497900Y-97306521D01*
X138497905Y-97306521D01*
X140075532Y-97306521D01*
X140075544Y-97306521D01*
X140082426Y-97306221D01*
X140101122Y-97304586D01*
X140166316Y-97284031D01*
X140166319Y-97284029D01*
X140168102Y-97283467D01*
X140228172Y-97286090D01*
X140268668Y-97320070D01*
X140284309Y-97344621D01*
X140930999Y-97344621D01*
X140931000Y-97344619D01*
X140931000Y-97120822D01*
X140930999Y-97120821D01*
X141439000Y-97120821D01*
X141439000Y-97344620D01*
X141439001Y-97344621D01*
X142085691Y-97344621D01*
X142085691Y-97344620D01*
X142045159Y-97257701D01*
X142045157Y-97257698D01*
X141963420Y-97175962D01*
X141963416Y-97175959D01*
X141858654Y-97127108D01*
X141858645Y-97127105D01*
X141810913Y-97120821D01*
X141439000Y-97120821D01*
X140930999Y-97120821D01*
X140559086Y-97120821D01*
X140559084Y-97120822D01*
X140511354Y-97127104D01*
X140511345Y-97127107D01*
X140440848Y-97159981D01*
X140380950Y-97165222D01*
X140331697Y-97130735D01*
X140316134Y-97072656D01*
X140317135Y-97065057D01*
X140317900Y-97060721D01*
X140317900Y-95676672D01*
X140338465Y-95620172D01*
X140390536Y-95590108D01*
X140435865Y-95594075D01*
X140443894Y-95596998D01*
X140459240Y-95599704D01*
X140497887Y-95606519D01*
X140497891Y-95606519D01*
X140497900Y-95606521D01*
X141592231Y-95606521D01*
X141648732Y-95627086D01*
X141654386Y-95632266D01*
X144046355Y-98024234D01*
X144071766Y-98078728D01*
X144072100Y-98086389D01*
X144072100Y-99270821D01*
X144051535Y-99327322D01*
X143999464Y-99357386D01*
X143984200Y-99358721D01*
X135012046Y-99358721D01*
X135004918Y-99359470D01*
X134990550Y-99360980D01*
X134985961Y-99361221D01*
X132412044Y-99361221D01*
X132268738Y-99376283D01*
X132268735Y-99376283D01*
X132268734Y-99376284D01*
X132209431Y-99395552D01*
X132085822Y-99435715D01*
X131919277Y-99531871D01*
X131919269Y-99531876D01*
X131776351Y-99660560D01*
X131663307Y-99816153D01*
X131585086Y-99991842D01*
X131585084Y-99991848D01*
X131545100Y-100179959D01*
X131545100Y-100372282D01*
X130465300Y-100372282D01*
X130465300Y-98743839D01*
X138419600Y-98743839D01*
X138419601Y-98743858D01*
X138422538Y-98769170D01*
X138422539Y-98769174D01*
X138462984Y-98860772D01*
X138468280Y-98872766D01*
X138548355Y-98952841D01*
X138651950Y-98998583D01*
X138677274Y-99001521D01*
X139132552Y-99001521D01*
X139157317Y-99005082D01*
X139248036Y-99031720D01*
X139248039Y-99031720D01*
X139248041Y-99031721D01*
X139248042Y-99031721D01*
X139386958Y-99031721D01*
X139386959Y-99031721D01*
X139386961Y-99031720D01*
X139386963Y-99031720D01*
X139477683Y-99005082D01*
X139502448Y-99001521D01*
X139942719Y-99001521D01*
X139942726Y-99001521D01*
X139968050Y-98998583D01*
X140071645Y-98952841D01*
X140151720Y-98872766D01*
X140197462Y-98769171D01*
X140200400Y-98743847D01*
X140200400Y-98353395D01*
X140197462Y-98328071D01*
X140151720Y-98224476D01*
X140071645Y-98144401D01*
X140071643Y-98144400D01*
X139968053Y-98098660D01*
X139968051Y-98098659D01*
X139968050Y-98098659D01*
X139960561Y-98097790D01*
X139942737Y-98095722D01*
X139942732Y-98095721D01*
X139942726Y-98095721D01*
X139942719Y-98095721D01*
X139502448Y-98095721D01*
X139477683Y-98092160D01*
X139386963Y-98065521D01*
X139386959Y-98065521D01*
X139248041Y-98065521D01*
X139248036Y-98065521D01*
X139157317Y-98092160D01*
X139132552Y-98095721D01*
X138677274Y-98095721D01*
X138677268Y-98095721D01*
X138677262Y-98095722D01*
X138651950Y-98098659D01*
X138651946Y-98098660D01*
X138548356Y-98144400D01*
X138468279Y-98224477D01*
X138422539Y-98328067D01*
X138422538Y-98328071D01*
X138419601Y-98353383D01*
X138419600Y-98353402D01*
X138419600Y-98743839D01*
X130465300Y-98743839D01*
X130465300Y-97852621D01*
X140284309Y-97852621D01*
X140324840Y-97939540D01*
X140324842Y-97939543D01*
X140406579Y-98021279D01*
X140406583Y-98021282D01*
X140511345Y-98070133D01*
X140511354Y-98070136D01*
X140559087Y-98076420D01*
X140931000Y-98076420D01*
X140931000Y-97852622D01*
X140930999Y-97852621D01*
X141439000Y-97852621D01*
X141439000Y-98076419D01*
X141439001Y-98076420D01*
X141810914Y-98076420D01*
X141810915Y-98076419D01*
X141858645Y-98070137D01*
X141858651Y-98070135D01*
X141963418Y-98021280D01*
X141963420Y-98021279D01*
X142045157Y-97939543D01*
X142045159Y-97939540D01*
X142085691Y-97852621D01*
X141439000Y-97852621D01*
X140930999Y-97852621D01*
X140284309Y-97852621D01*
X130465300Y-97852621D01*
X130465300Y-92800154D01*
X136682200Y-92800154D01*
X136684909Y-92829050D01*
X136684910Y-92829055D01*
X136727501Y-92950774D01*
X136727502Y-92950775D01*
X136804080Y-93054535D01*
X136804085Y-93054540D01*
X136907845Y-93131118D01*
X136907846Y-93131119D01*
X137029565Y-93173710D01*
X137029570Y-93173711D01*
X137058466Y-93176420D01*
X137058470Y-93176421D01*
X137205999Y-93176421D01*
X137206000Y-93176420D01*
X137714000Y-93176420D01*
X137714001Y-93176421D01*
X137861530Y-93176421D01*
X137861533Y-93176420D01*
X137890429Y-93173711D01*
X137890434Y-93173710D01*
X138012153Y-93131119D01*
X138012154Y-93131118D01*
X138115914Y-93054540D01*
X138115919Y-93054535D01*
X138192497Y-92950775D01*
X138192498Y-92950774D01*
X138235089Y-92829055D01*
X138235090Y-92829050D01*
X138237799Y-92800154D01*
X142282200Y-92800154D01*
X142284909Y-92829050D01*
X142284910Y-92829055D01*
X142327501Y-92950774D01*
X142327502Y-92950775D01*
X142404080Y-93054535D01*
X142404085Y-93054540D01*
X142507845Y-93131118D01*
X142507846Y-93131119D01*
X142629565Y-93173710D01*
X142629570Y-93173711D01*
X142658466Y-93176420D01*
X142658470Y-93176421D01*
X142805999Y-93176421D01*
X142806000Y-93176420D01*
X142806000Y-92352622D01*
X142805999Y-92352621D01*
X143314000Y-92352621D01*
X143314000Y-93176420D01*
X143314001Y-93176421D01*
X143461530Y-93176421D01*
X143461533Y-93176420D01*
X143490429Y-93173711D01*
X143490434Y-93173710D01*
X143612153Y-93131119D01*
X143612154Y-93131118D01*
X143715914Y-93054540D01*
X143715919Y-93054535D01*
X143792497Y-92950775D01*
X143792498Y-92950774D01*
X143835089Y-92829055D01*
X143835090Y-92829050D01*
X143837799Y-92800154D01*
X143837800Y-92800151D01*
X143837800Y-92352622D01*
X143837799Y-92352621D01*
X144582200Y-92352621D01*
X144582200Y-92800154D01*
X144584909Y-92829050D01*
X144584910Y-92829055D01*
X144627501Y-92950774D01*
X144627502Y-92950775D01*
X144704080Y-93054535D01*
X144704085Y-93054540D01*
X144807845Y-93131118D01*
X144807846Y-93131119D01*
X144929565Y-93173710D01*
X144929570Y-93173711D01*
X144958466Y-93176420D01*
X144958470Y-93176421D01*
X145105999Y-93176421D01*
X145106000Y-93176420D01*
X145106000Y-92352622D01*
X145105999Y-92352621D01*
X145614000Y-92352621D01*
X145614000Y-93176420D01*
X145614001Y-93176421D01*
X145761530Y-93176421D01*
X145761533Y-93176420D01*
X145790429Y-93173711D01*
X145790434Y-93173710D01*
X145912153Y-93131119D01*
X145912154Y-93131118D01*
X146015914Y-93054540D01*
X146015919Y-93054535D01*
X146092497Y-92950775D01*
X146092498Y-92950774D01*
X146135089Y-92829055D01*
X146135090Y-92829050D01*
X146137799Y-92800154D01*
X150182200Y-92800154D01*
X150184909Y-92829050D01*
X150184910Y-92829055D01*
X150227501Y-92950774D01*
X150227502Y-92950775D01*
X150304080Y-93054535D01*
X150304085Y-93054540D01*
X150407845Y-93131118D01*
X150407846Y-93131119D01*
X150529565Y-93173710D01*
X150529570Y-93173711D01*
X150558466Y-93176420D01*
X150558470Y-93176421D01*
X150705999Y-93176421D01*
X150706000Y-93176420D01*
X150706000Y-92352621D01*
X151214000Y-92352621D01*
X151214000Y-93176420D01*
X151214001Y-93176421D01*
X151361530Y-93176421D01*
X151361533Y-93176420D01*
X151390429Y-93173711D01*
X151390434Y-93173710D01*
X151512153Y-93131119D01*
X151512154Y-93131118D01*
X151615914Y-93054540D01*
X151615919Y-93054535D01*
X151692497Y-92950775D01*
X151692498Y-92950774D01*
X151735089Y-92829055D01*
X151735090Y-92829050D01*
X151737799Y-92800154D01*
X152482200Y-92800154D01*
X152484909Y-92829050D01*
X152484910Y-92829055D01*
X152527501Y-92950774D01*
X152527502Y-92950775D01*
X152604080Y-93054535D01*
X152604085Y-93054540D01*
X152707845Y-93131118D01*
X152707846Y-93131119D01*
X152829565Y-93173710D01*
X152829570Y-93173711D01*
X152858466Y-93176420D01*
X152858470Y-93176421D01*
X153005999Y-93176421D01*
X153006000Y-93176420D01*
X153006000Y-92352622D01*
X153005999Y-92352621D01*
X153514000Y-92352621D01*
X153514000Y-93176420D01*
X153514001Y-93176421D01*
X153661530Y-93176421D01*
X153661533Y-93176420D01*
X153690429Y-93173711D01*
X153690434Y-93173710D01*
X153812153Y-93131119D01*
X153812154Y-93131118D01*
X153915914Y-93054540D01*
X153915919Y-93054535D01*
X153992497Y-92950775D01*
X153992498Y-92950774D01*
X154035089Y-92829055D01*
X154035090Y-92829050D01*
X154037799Y-92800154D01*
X158082200Y-92800154D01*
X158084909Y-92829050D01*
X158084910Y-92829055D01*
X158127501Y-92950774D01*
X158127502Y-92950775D01*
X158204080Y-93054535D01*
X158204085Y-93054540D01*
X158307845Y-93131118D01*
X158307846Y-93131119D01*
X158429565Y-93173710D01*
X158429570Y-93173711D01*
X158458466Y-93176420D01*
X158458470Y-93176421D01*
X158605999Y-93176421D01*
X158606000Y-93176420D01*
X159114000Y-93176420D01*
X159114001Y-93176421D01*
X159261530Y-93176421D01*
X159261533Y-93176420D01*
X159290429Y-93173711D01*
X159290434Y-93173710D01*
X159412153Y-93131119D01*
X159412154Y-93131118D01*
X159515914Y-93054540D01*
X159515919Y-93054535D01*
X159592497Y-92950775D01*
X159592498Y-92950774D01*
X159635089Y-92829055D01*
X159635090Y-92829050D01*
X159637799Y-92800154D01*
X159637800Y-92800151D01*
X159637800Y-92352622D01*
X159637799Y-92352621D01*
X159114001Y-92352621D01*
X159114000Y-92352622D01*
X159114000Y-93176420D01*
X158606000Y-93176420D01*
X158606000Y-92352622D01*
X158605999Y-92352621D01*
X158082201Y-92352621D01*
X158082200Y-92352622D01*
X158082200Y-92800154D01*
X154037799Y-92800154D01*
X154037800Y-92800151D01*
X154037800Y-92352622D01*
X154037799Y-92352621D01*
X153514000Y-92352621D01*
X153005999Y-92352621D01*
X152482201Y-92352621D01*
X152482200Y-92352622D01*
X152482200Y-92800154D01*
X151737799Y-92800154D01*
X151737800Y-92800151D01*
X151737800Y-92352622D01*
X151737799Y-92352621D01*
X151214000Y-92352621D01*
X150706000Y-92352621D01*
X150182201Y-92352621D01*
X150182200Y-92352622D01*
X150182200Y-92800154D01*
X146137799Y-92800154D01*
X146137800Y-92800151D01*
X146137800Y-92352622D01*
X146137799Y-92352621D01*
X145614000Y-92352621D01*
X145105999Y-92352621D01*
X144582200Y-92352621D01*
X143837799Y-92352621D01*
X143314000Y-92352621D01*
X142805999Y-92352621D01*
X142282201Y-92352621D01*
X142282200Y-92352622D01*
X142282200Y-92800154D01*
X138237799Y-92800154D01*
X138237800Y-92800151D01*
X138237800Y-92352622D01*
X138237799Y-92352621D01*
X137714001Y-92352621D01*
X137714000Y-92352622D01*
X137714000Y-93176420D01*
X137206000Y-93176420D01*
X137206000Y-93176419D01*
X137206000Y-92352622D01*
X137205999Y-92352621D01*
X136682201Y-92352621D01*
X136682200Y-92352622D01*
X136682200Y-92800154D01*
X130465300Y-92800154D01*
X130465300Y-91844620D01*
X136682200Y-91844620D01*
X136682201Y-91844621D01*
X137205999Y-91844621D01*
X137206000Y-91844620D01*
X137206000Y-91844619D01*
X137714000Y-91844619D01*
X137714001Y-91844621D01*
X138237799Y-91844621D01*
X138237800Y-91844620D01*
X142282200Y-91844620D01*
X142282201Y-91844621D01*
X142805999Y-91844621D01*
X142806000Y-91844620D01*
X142806000Y-91020822D01*
X142805999Y-91020821D01*
X143314000Y-91020821D01*
X143314000Y-91844620D01*
X143314001Y-91844621D01*
X143837799Y-91844621D01*
X143837800Y-91844620D01*
X144582200Y-91844620D01*
X144582201Y-91844621D01*
X145105999Y-91844621D01*
X145106000Y-91844620D01*
X145106000Y-91020822D01*
X145105999Y-91020821D01*
X145614000Y-91020821D01*
X145614000Y-91844620D01*
X145614001Y-91844621D01*
X146137799Y-91844621D01*
X146137800Y-91844620D01*
X150182200Y-91844620D01*
X150182201Y-91844621D01*
X150705999Y-91844621D01*
X150706000Y-91844620D01*
X150706000Y-91020822D01*
X150705999Y-91020821D01*
X151214000Y-91020821D01*
X151214000Y-91844620D01*
X151214001Y-91844621D01*
X151737799Y-91844621D01*
X151737800Y-91844620D01*
X151737800Y-91844619D01*
X152482200Y-91844619D01*
X152482201Y-91844621D01*
X153005999Y-91844621D01*
X153006000Y-91844620D01*
X153006000Y-91020822D01*
X153005999Y-91020821D01*
X153514000Y-91020821D01*
X153514000Y-91844620D01*
X153514001Y-91844621D01*
X154037799Y-91844621D01*
X154037800Y-91844619D01*
X158082200Y-91844619D01*
X158082201Y-91844621D01*
X158605999Y-91844621D01*
X158606000Y-91844619D01*
X159114000Y-91844619D01*
X159114001Y-91844621D01*
X159637799Y-91844621D01*
X159637800Y-91844620D01*
X159637800Y-91397090D01*
X159637799Y-91397087D01*
X159635090Y-91368191D01*
X159635089Y-91368186D01*
X159592498Y-91246467D01*
X159592497Y-91246466D01*
X159515919Y-91142706D01*
X159515914Y-91142701D01*
X159412154Y-91066123D01*
X159412153Y-91066122D01*
X159290434Y-91023531D01*
X159290429Y-91023530D01*
X159261533Y-91020821D01*
X159114001Y-91020821D01*
X159114000Y-91020822D01*
X159114000Y-91844619D01*
X158606000Y-91844619D01*
X158606000Y-91020822D01*
X158605999Y-91020821D01*
X158458466Y-91020821D01*
X158429570Y-91023530D01*
X158429565Y-91023531D01*
X158307846Y-91066122D01*
X158307845Y-91066123D01*
X158204085Y-91142701D01*
X158204080Y-91142706D01*
X158127502Y-91246466D01*
X158127501Y-91246467D01*
X158084910Y-91368186D01*
X158084909Y-91368191D01*
X158082200Y-91397087D01*
X158082200Y-91844619D01*
X154037800Y-91844619D01*
X154037800Y-91397090D01*
X154037799Y-91397087D01*
X154035090Y-91368191D01*
X154035089Y-91368186D01*
X153992498Y-91246467D01*
X153992497Y-91246466D01*
X153915919Y-91142706D01*
X153915914Y-91142701D01*
X153812154Y-91066123D01*
X153812153Y-91066122D01*
X153690434Y-91023531D01*
X153690429Y-91023530D01*
X153661533Y-91020821D01*
X153514000Y-91020821D01*
X153005999Y-91020821D01*
X152858466Y-91020821D01*
X152829570Y-91023530D01*
X152829565Y-91023531D01*
X152707846Y-91066122D01*
X152707845Y-91066123D01*
X152604085Y-91142701D01*
X152604080Y-91142706D01*
X152527502Y-91246466D01*
X152527501Y-91246467D01*
X152484910Y-91368186D01*
X152484909Y-91368191D01*
X152482200Y-91397087D01*
X152482200Y-91844619D01*
X151737800Y-91844619D01*
X151737800Y-91397090D01*
X151737799Y-91397087D01*
X151735090Y-91368191D01*
X151735089Y-91368186D01*
X151692498Y-91246467D01*
X151692497Y-91246466D01*
X151615919Y-91142706D01*
X151615914Y-91142701D01*
X151512154Y-91066123D01*
X151512153Y-91066122D01*
X151390434Y-91023531D01*
X151390429Y-91023530D01*
X151361533Y-91020821D01*
X151214000Y-91020821D01*
X150705999Y-91020821D01*
X150558466Y-91020821D01*
X150529570Y-91023530D01*
X150529565Y-91023531D01*
X150407846Y-91066122D01*
X150407845Y-91066123D01*
X150304085Y-91142701D01*
X150304080Y-91142706D01*
X150227502Y-91246466D01*
X150227501Y-91246467D01*
X150184910Y-91368186D01*
X150184909Y-91368191D01*
X150182200Y-91397087D01*
X150182200Y-91844620D01*
X146137800Y-91844620D01*
X146137800Y-91397090D01*
X146137799Y-91397087D01*
X146135090Y-91368191D01*
X146135089Y-91368186D01*
X146092498Y-91246467D01*
X146092497Y-91246466D01*
X146015919Y-91142706D01*
X146015914Y-91142701D01*
X145912154Y-91066123D01*
X145912153Y-91066122D01*
X145790434Y-91023531D01*
X145790429Y-91023530D01*
X145761533Y-91020821D01*
X145614000Y-91020821D01*
X145105999Y-91020821D01*
X144958466Y-91020821D01*
X144929570Y-91023530D01*
X144929565Y-91023531D01*
X144807846Y-91066122D01*
X144807845Y-91066123D01*
X144704085Y-91142701D01*
X144704080Y-91142706D01*
X144627502Y-91246466D01*
X144627501Y-91246467D01*
X144584910Y-91368186D01*
X144584909Y-91368191D01*
X144582200Y-91397087D01*
X144582200Y-91844620D01*
X143837800Y-91844620D01*
X143837800Y-91844619D01*
X143837800Y-91397090D01*
X143837799Y-91397087D01*
X143835090Y-91368191D01*
X143835089Y-91368186D01*
X143792498Y-91246467D01*
X143792497Y-91246466D01*
X143715919Y-91142706D01*
X143715914Y-91142701D01*
X143612154Y-91066123D01*
X143612153Y-91066122D01*
X143490434Y-91023531D01*
X143490429Y-91023530D01*
X143461533Y-91020821D01*
X143314000Y-91020821D01*
X142805999Y-91020821D01*
X142658466Y-91020821D01*
X142629570Y-91023530D01*
X142629565Y-91023531D01*
X142507846Y-91066122D01*
X142507845Y-91066123D01*
X142404085Y-91142701D01*
X142404080Y-91142706D01*
X142327502Y-91246466D01*
X142327501Y-91246467D01*
X142284910Y-91368186D01*
X142284909Y-91368191D01*
X142282200Y-91397087D01*
X142282200Y-91844620D01*
X138237800Y-91844620D01*
X138237800Y-91397090D01*
X138237799Y-91397087D01*
X138235090Y-91368191D01*
X138235089Y-91368186D01*
X138192498Y-91246467D01*
X138192497Y-91246466D01*
X138115919Y-91142706D01*
X138115914Y-91142701D01*
X138012154Y-91066123D01*
X138012153Y-91066122D01*
X137890434Y-91023531D01*
X137890429Y-91023530D01*
X137861533Y-91020821D01*
X137714001Y-91020821D01*
X137714000Y-91020822D01*
X137714000Y-91844619D01*
X137206000Y-91844619D01*
X137206000Y-91020822D01*
X137205999Y-91020821D01*
X137058466Y-91020821D01*
X137029570Y-91023530D01*
X137029565Y-91023531D01*
X136907846Y-91066122D01*
X136907845Y-91066123D01*
X136804085Y-91142701D01*
X136804080Y-91142706D01*
X136727502Y-91246466D01*
X136727501Y-91246467D01*
X136684910Y-91368186D01*
X136684909Y-91368191D01*
X136682200Y-91397087D01*
X136682200Y-91844620D01*
X130465300Y-91844620D01*
X130465300Y-89712304D01*
X130749884Y-89712304D01*
X130769115Y-89944401D01*
X130769116Y-89944407D01*
X130826286Y-90170165D01*
X130826289Y-90170173D01*
X130872894Y-90276420D01*
X130919840Y-90383446D01*
X130919844Y-90383452D01*
X131047215Y-90578410D01*
X131047216Y-90578412D01*
X131159933Y-90700856D01*
X131204954Y-90749761D01*
X131388740Y-90892807D01*
X131593563Y-91003652D01*
X131813837Y-91079272D01*
X131813839Y-91079272D01*
X131813841Y-91079273D01*
X132043550Y-91117605D01*
X132043554Y-91117605D01*
X132276450Y-91117605D01*
X132506158Y-91079273D01*
X132506158Y-91079272D01*
X132506163Y-91079272D01*
X132726437Y-91003652D01*
X132931260Y-90892807D01*
X133115046Y-90749761D01*
X133272780Y-90578416D01*
X133400160Y-90383446D01*
X133493712Y-90170169D01*
X133502085Y-90137106D01*
X133550883Y-89944407D01*
X133550884Y-89944401D01*
X133552156Y-89929050D01*
X133554550Y-89900154D01*
X143532200Y-89900154D01*
X143534909Y-89929050D01*
X143534910Y-89929055D01*
X143577501Y-90050774D01*
X143577502Y-90050775D01*
X143654080Y-90154535D01*
X143654085Y-90154540D01*
X143757845Y-90231118D01*
X143757846Y-90231119D01*
X143879565Y-90273710D01*
X143879570Y-90273711D01*
X143908466Y-90276420D01*
X143908470Y-90276421D01*
X144030999Y-90276421D01*
X144031000Y-90276420D01*
X144539000Y-90276420D01*
X144539001Y-90276421D01*
X144661530Y-90276421D01*
X144661533Y-90276420D01*
X144690429Y-90273711D01*
X144690434Y-90273710D01*
X144812153Y-90231119D01*
X144812154Y-90231118D01*
X144915914Y-90154540D01*
X144915919Y-90154535D01*
X144992497Y-90050775D01*
X144992498Y-90050774D01*
X145035089Y-89929055D01*
X145035090Y-89929050D01*
X145037799Y-89900154D01*
X145037800Y-89900151D01*
X145037800Y-89652622D01*
X145037799Y-89652621D01*
X144539001Y-89652621D01*
X144539000Y-89652622D01*
X144539000Y-90276420D01*
X144031000Y-90276420D01*
X144031000Y-89652622D01*
X144030999Y-89652621D01*
X143532201Y-89652621D01*
X143532200Y-89652622D01*
X143532200Y-89900154D01*
X133554550Y-89900154D01*
X133570116Y-89712305D01*
X133550884Y-89480208D01*
X133550883Y-89480202D01*
X133493713Y-89254444D01*
X133493710Y-89254436D01*
X133445540Y-89144620D01*
X143532200Y-89144620D01*
X143532201Y-89144621D01*
X144030999Y-89144621D01*
X144031000Y-89144620D01*
X144539000Y-89144620D01*
X144539001Y-89144621D01*
X145037799Y-89144621D01*
X145037800Y-89144619D01*
X145037800Y-88897090D01*
X145037799Y-88897087D01*
X145035090Y-88868191D01*
X145035089Y-88868186D01*
X144992498Y-88746467D01*
X144992497Y-88746466D01*
X144915919Y-88642706D01*
X144915914Y-88642701D01*
X144812154Y-88566123D01*
X144812153Y-88566122D01*
X144690434Y-88523531D01*
X144690429Y-88523530D01*
X144661533Y-88520821D01*
X144539001Y-88520821D01*
X144539000Y-88520822D01*
X144539000Y-89144620D01*
X144031000Y-89144620D01*
X144031000Y-88520822D01*
X144030999Y-88520821D01*
X143908466Y-88520821D01*
X143879570Y-88523530D01*
X143879565Y-88523531D01*
X143757846Y-88566122D01*
X143757845Y-88566123D01*
X143654085Y-88642701D01*
X143654080Y-88642706D01*
X143577502Y-88746466D01*
X143577501Y-88746467D01*
X143534910Y-88868186D01*
X143534909Y-88868191D01*
X143532200Y-88897087D01*
X143532200Y-89144620D01*
X133445540Y-89144620D01*
X133400160Y-89041164D01*
X133318983Y-88916913D01*
X133272784Y-88846199D01*
X133272783Y-88846197D01*
X133115050Y-88674853D01*
X133115048Y-88674852D01*
X133115046Y-88674849D01*
X132931260Y-88531803D01*
X132726437Y-88420958D01*
X132726433Y-88420956D01*
X132726430Y-88420955D01*
X132506167Y-88345339D01*
X132506158Y-88345336D01*
X132276450Y-88307005D01*
X132276446Y-88307005D01*
X132043554Y-88307005D01*
X132043550Y-88307005D01*
X131813841Y-88345336D01*
X131813832Y-88345339D01*
X131593569Y-88420955D01*
X131593564Y-88420957D01*
X131593563Y-88420958D01*
X131388740Y-88531803D01*
X131246252Y-88642706D01*
X131204949Y-88674853D01*
X131047216Y-88846197D01*
X131047215Y-88846199D01*
X130919844Y-89041157D01*
X130919835Y-89041174D01*
X130826289Y-89254436D01*
X130826286Y-89254444D01*
X130769116Y-89480202D01*
X130769115Y-89480208D01*
X130749884Y-89712304D01*
X130465300Y-89712304D01*
X130465300Y-88784618D01*
X130485865Y-88728118D01*
X130509248Y-88708496D01*
X132895735Y-87330657D01*
X142807100Y-87330657D01*
X142815972Y-87375256D01*
X142815972Y-87375257D01*
X142849766Y-87425833D01*
X142854087Y-87428720D01*
X142900341Y-87459627D01*
X142907741Y-87461098D01*
X142944943Y-87468499D01*
X144675056Y-87468498D01*
X144675058Y-87468498D01*
X144687750Y-87465973D01*
X144719658Y-87459627D01*
X144770234Y-87425833D01*
X144804028Y-87375257D01*
X144812900Y-87330656D01*
X144812899Y-86465598D01*
X145342247Y-86465598D01*
X145361612Y-86662208D01*
X145418957Y-86851247D01*
X145418958Y-86851249D01*
X145512084Y-87025477D01*
X145637411Y-87178188D01*
X145790122Y-87303515D01*
X145840898Y-87330655D01*
X145964352Y-87396642D01*
X146007715Y-87409796D01*
X146055814Y-87445876D01*
X146070100Y-87493911D01*
X146070100Y-88457821D01*
X146049535Y-88514322D01*
X145997464Y-88544386D01*
X145982200Y-88545721D01*
X145978292Y-88545721D01*
X145965955Y-88547675D01*
X145883946Y-88560663D01*
X145770231Y-88618603D01*
X145679982Y-88708852D01*
X145622042Y-88822567D01*
X145614722Y-88868789D01*
X145607100Y-88916913D01*
X145607100Y-89880329D01*
X145610240Y-89900154D01*
X145622042Y-89974674D01*
X145660816Y-90050774D01*
X145679984Y-90088392D01*
X145770229Y-90178637D01*
X145883945Y-90236578D01*
X145978292Y-90251521D01*
X145978294Y-90251521D01*
X146691708Y-90251521D01*
X146734101Y-90244806D01*
X146793124Y-90256277D01*
X146810009Y-90269468D01*
X147114657Y-90574116D01*
X147122025Y-90584349D01*
X147122858Y-90583721D01*
X147127767Y-90590222D01*
X147144247Y-90605245D01*
X147160917Y-90620442D01*
X147162350Y-90621809D01*
X147175420Y-90634879D01*
X147175423Y-90634881D01*
X147175424Y-90634882D01*
X147178264Y-90636827D01*
X147183043Y-90640612D01*
X147205099Y-90660719D01*
X147214100Y-90664205D01*
X147232029Y-90673657D01*
X147239983Y-90679106D01*
X147239984Y-90679107D01*
X147269031Y-90685938D01*
X147274847Y-90687738D01*
X147302678Y-90698521D01*
X147312332Y-90698521D01*
X147332456Y-90700855D01*
X147341849Y-90703065D01*
X147371400Y-90698942D01*
X147377478Y-90698521D01*
X151580001Y-90698521D01*
X151592442Y-90700552D01*
X151592588Y-90699513D01*
X151600654Y-90700637D01*
X151600660Y-90700639D01*
X151645454Y-90698567D01*
X151647482Y-90698521D01*
X151665935Y-90698521D01*
X151669332Y-90697885D01*
X151675383Y-90697184D01*
X151693772Y-90696333D01*
X151705193Y-90695806D01*
X151711049Y-90693219D01*
X151714019Y-90691909D01*
X151733374Y-90685914D01*
X151742863Y-90684141D01*
X151768241Y-90668425D01*
X151773607Y-90665596D01*
X151800922Y-90653537D01*
X151807748Y-90646710D01*
X151823628Y-90634131D01*
X151831833Y-90629052D01*
X151849815Y-90605238D01*
X151853803Y-90600654D01*
X152546991Y-89907465D01*
X152601486Y-89882055D01*
X152609147Y-89881721D01*
X152729458Y-89881721D01*
X152729459Y-89881721D01*
X152729461Y-89881720D01*
X152729463Y-89881720D01*
X152745305Y-89877068D01*
X152862751Y-89842583D01*
X152979617Y-89767478D01*
X153030410Y-89708858D01*
X153082952Y-89679625D01*
X153096841Y-89678521D01*
X154923159Y-89678521D01*
X154979660Y-89699086D01*
X154989588Y-89708857D01*
X155040383Y-89767478D01*
X155040385Y-89767479D01*
X155040386Y-89767480D01*
X155157245Y-89842581D01*
X155157246Y-89842581D01*
X155157249Y-89842583D01*
X155248035Y-89869240D01*
X155290536Y-89881720D01*
X155290539Y-89881720D01*
X155290541Y-89881721D01*
X155290542Y-89881721D01*
X155429458Y-89881721D01*
X155429459Y-89881721D01*
X155429461Y-89881720D01*
X155429463Y-89881720D01*
X155445305Y-89877068D01*
X155562751Y-89842583D01*
X155679617Y-89767478D01*
X155730410Y-89708858D01*
X155782952Y-89679625D01*
X155796841Y-89678521D01*
X161907652Y-89678521D01*
X161964153Y-89699086D01*
X161969807Y-89704266D01*
X166916855Y-94651314D01*
X166942266Y-94705808D01*
X166942600Y-94713469D01*
X166942600Y-95787597D01*
X166922035Y-95844098D01*
X166869964Y-95874162D01*
X166868451Y-95874415D01*
X166800358Y-95885200D01*
X166690168Y-95941344D01*
X166602723Y-96028789D01*
X166546579Y-96138979D01*
X166532100Y-96230399D01*
X166532100Y-96766842D01*
X166546579Y-96858262D01*
X166546579Y-96858263D01*
X166546580Y-96858265D01*
X166602723Y-96968453D01*
X166690168Y-97055898D01*
X166800356Y-97112041D01*
X166868450Y-97122826D01*
X166921039Y-97151976D01*
X166942587Y-97208110D01*
X166942600Y-97209644D01*
X166942600Y-97382821D01*
X166922035Y-97439322D01*
X166869964Y-97469386D01*
X166854700Y-97470721D01*
X166560087Y-97470721D01*
X166486323Y-97485394D01*
X166402670Y-97541289D01*
X166402668Y-97541291D01*
X166346773Y-97624943D01*
X166346772Y-97624946D01*
X166344803Y-97634847D01*
X166332101Y-97698708D01*
X166332100Y-97698711D01*
X166332100Y-97948533D01*
X166344945Y-98013108D01*
X166346773Y-98022298D01*
X166398549Y-98099786D01*
X166412841Y-98158189D01*
X166398554Y-98197448D01*
X166393207Y-98205450D01*
X166344723Y-98241007D01*
X166320118Y-98244521D01*
X166165859Y-98244521D01*
X166109358Y-98223956D01*
X166099428Y-98214183D01*
X166086308Y-98199042D01*
X166026045Y-98129494D01*
X166004618Y-98104765D01*
X166004613Y-98104761D01*
X165887754Y-98029660D01*
X165887751Y-98029659D01*
X165859211Y-98021279D01*
X165754463Y-97990521D01*
X165754459Y-97990521D01*
X165615541Y-97990521D01*
X165615536Y-97990521D01*
X165482249Y-98029659D01*
X165482245Y-98029660D01*
X165365386Y-98104761D01*
X165365381Y-98104765D01*
X165274410Y-98209753D01*
X165216702Y-98336116D01*
X165216700Y-98336122D01*
X165196932Y-98473617D01*
X165196932Y-98473624D01*
X165216700Y-98611119D01*
X165216702Y-98611125D01*
X165274411Y-98737491D01*
X165284436Y-98749060D01*
X165305894Y-98805227D01*
X165286228Y-98862047D01*
X165234639Y-98892933D01*
X165218005Y-98894521D01*
X164646344Y-98894521D01*
X164589843Y-98873956D01*
X164559779Y-98821885D01*
X164559339Y-98794112D01*
X164573068Y-98698623D01*
X164573068Y-98698617D01*
X164553299Y-98561122D01*
X164553298Y-98561121D01*
X164553298Y-98561116D01*
X164495589Y-98434752D01*
X164404617Y-98329764D01*
X164404615Y-98329763D01*
X164404613Y-98329761D01*
X164287754Y-98254660D01*
X164287751Y-98254659D01*
X164253224Y-98244521D01*
X164154463Y-98215521D01*
X164154459Y-98215521D01*
X164015541Y-98215521D01*
X164015536Y-98215521D01*
X163882249Y-98254659D01*
X163882245Y-98254660D01*
X163765386Y-98329761D01*
X163765381Y-98329765D01*
X163674410Y-98434753D01*
X163616702Y-98561116D01*
X163616700Y-98561122D01*
X163596932Y-98698617D01*
X163596932Y-98698624D01*
X163616700Y-98836119D01*
X163616701Y-98836124D01*
X163616702Y-98836126D01*
X163674411Y-98962490D01*
X163765383Y-99067478D01*
X163765385Y-99067479D01*
X163765386Y-99067480D01*
X163882245Y-99142581D01*
X163882246Y-99142581D01*
X163882249Y-99142583D01*
X163973035Y-99169240D01*
X164015536Y-99181720D01*
X164015539Y-99181720D01*
X164015541Y-99181721D01*
X164015542Y-99181721D01*
X164154456Y-99181721D01*
X164154459Y-99181721D01*
X164173713Y-99176067D01*
X164233719Y-99179880D01*
X164260633Y-99198251D01*
X164342959Y-99280578D01*
X164344543Y-99282247D01*
X164372328Y-99313105D01*
X164372331Y-99313108D01*
X164394019Y-99322764D01*
X164406141Y-99329345D01*
X164411731Y-99332975D01*
X164426064Y-99342283D01*
X164432940Y-99343371D01*
X164454944Y-99349889D01*
X164461303Y-99352721D01*
X164485052Y-99352721D01*
X164498801Y-99353803D01*
X164503877Y-99354606D01*
X164522259Y-99357518D01*
X164528984Y-99355715D01*
X164551734Y-99352721D01*
X166320118Y-99352721D01*
X166376619Y-99373286D01*
X166393204Y-99391786D01*
X166398549Y-99399786D01*
X166398551Y-99399789D01*
X166412840Y-99458194D01*
X166398549Y-99497456D01*
X166346773Y-99574943D01*
X166346772Y-99574946D01*
X166335743Y-99630394D01*
X166332101Y-99648708D01*
X166332100Y-99648711D01*
X166332100Y-99898533D01*
X166344278Y-99959752D01*
X166346773Y-99972298D01*
X166398549Y-100049786D01*
X166412841Y-100108189D01*
X166398554Y-100147448D01*
X166393207Y-100155450D01*
X166344723Y-100191007D01*
X166320118Y-100194521D01*
X166032149Y-100194521D01*
X166029848Y-100194461D01*
X165988360Y-100192287D01*
X165966188Y-100200797D01*
X165952972Y-100204711D01*
X165929736Y-100209651D01*
X165929735Y-100209651D01*
X165924095Y-100213749D01*
X165903942Y-100224691D01*
X165897435Y-100227189D01*
X165897432Y-100227191D01*
X165880639Y-100243984D01*
X165870154Y-100252939D01*
X165850945Y-100266895D01*
X165850938Y-100266902D01*
X165847458Y-100272931D01*
X165833493Y-100291130D01*
X165725633Y-100398990D01*
X165671139Y-100424401D01*
X165638714Y-100421174D01*
X165619465Y-100415522D01*
X165619459Y-100415521D01*
X165480541Y-100415521D01*
X165480536Y-100415521D01*
X165347249Y-100454659D01*
X165347245Y-100454660D01*
X165230386Y-100529761D01*
X165230381Y-100529765D01*
X165139410Y-100634753D01*
X165081702Y-100761116D01*
X165081700Y-100761122D01*
X165061932Y-100898617D01*
X165061932Y-100898624D01*
X165081700Y-101036119D01*
X165081701Y-101036124D01*
X165081702Y-101036126D01*
X165139411Y-101162490D01*
X165230383Y-101267478D01*
X165230385Y-101267479D01*
X165230386Y-101267480D01*
X165347245Y-101342581D01*
X165347246Y-101342581D01*
X165347249Y-101342583D01*
X165425369Y-101365521D01*
X165480536Y-101381720D01*
X165480539Y-101381720D01*
X165480541Y-101381721D01*
X165480542Y-101381721D01*
X165619458Y-101381721D01*
X165619459Y-101381721D01*
X165619461Y-101381720D01*
X165619463Y-101381720D01*
X165641133Y-101375357D01*
X165752751Y-101342583D01*
X165869617Y-101267478D01*
X165960589Y-101162490D01*
X166018298Y-101036126D01*
X166025684Y-100984753D01*
X166038068Y-100898624D01*
X166038068Y-100898619D01*
X166023705Y-100798724D01*
X166036019Y-100739871D01*
X166048551Y-100724064D01*
X166094151Y-100678465D01*
X166148646Y-100653055D01*
X166156305Y-100652721D01*
X166320118Y-100652721D01*
X166376619Y-100673286D01*
X166393206Y-100691789D01*
X166398551Y-100699789D01*
X166412840Y-100758194D01*
X166398549Y-100797456D01*
X166346773Y-100874943D01*
X166346772Y-100874946D01*
X166338807Y-100914993D01*
X166334034Y-100938990D01*
X166332100Y-100948711D01*
X166332100Y-101198533D01*
X166342064Y-101248624D01*
X166346773Y-101272298D01*
X166398549Y-101349786D01*
X166412841Y-101408189D01*
X166398554Y-101447448D01*
X166393207Y-101455450D01*
X166344723Y-101491007D01*
X166320118Y-101494521D01*
X166017169Y-101494521D01*
X166014869Y-101494461D01*
X165985368Y-101492915D01*
X165973361Y-101492286D01*
X165973360Y-101492286D01*
X165973359Y-101492286D01*
X165951184Y-101500798D01*
X165937965Y-101504713D01*
X165914739Y-101509650D01*
X165914728Y-101509655D01*
X165909093Y-101513749D01*
X165888943Y-101524690D01*
X165882437Y-101527187D01*
X165882434Y-101527190D01*
X165865639Y-101543984D01*
X165855156Y-101552938D01*
X165835943Y-101566897D01*
X165835938Y-101566902D01*
X165832458Y-101572931D01*
X165818493Y-101591130D01*
X163935632Y-103473990D01*
X163881138Y-103499401D01*
X163848712Y-103496174D01*
X163829463Y-103490521D01*
X163829459Y-103490521D01*
X163690541Y-103490521D01*
X163690536Y-103490521D01*
X163557249Y-103529659D01*
X163557245Y-103529660D01*
X163440386Y-103604761D01*
X163440381Y-103604765D01*
X163349410Y-103709753D01*
X163291702Y-103836116D01*
X163291700Y-103836122D01*
X163271932Y-103973617D01*
X163271932Y-103973624D01*
X163291700Y-104111119D01*
X163291701Y-104111124D01*
X163291702Y-104111126D01*
X163349411Y-104237490D01*
X163384462Y-104277941D01*
X163431616Y-104332361D01*
X163440383Y-104342478D01*
X163440385Y-104342479D01*
X163440386Y-104342480D01*
X163557245Y-104417581D01*
X163557246Y-104417581D01*
X163557249Y-104417583D01*
X163648035Y-104444240D01*
X163690536Y-104456720D01*
X163690539Y-104456720D01*
X163690541Y-104456721D01*
X163690542Y-104456721D01*
X163829458Y-104456721D01*
X163829459Y-104456721D01*
X163829461Y-104456720D01*
X163829463Y-104456720D01*
X163845305Y-104452068D01*
X163962751Y-104417583D01*
X164079617Y-104342478D01*
X164170589Y-104237490D01*
X164228298Y-104111126D01*
X164235304Y-104062398D01*
X164248068Y-103973624D01*
X164248068Y-103973619D01*
X164233705Y-103873725D01*
X164246019Y-103814872D01*
X164258551Y-103799064D01*
X164862735Y-103194880D01*
X164917229Y-103169470D01*
X164975307Y-103185033D01*
X165009795Y-103234286D01*
X165011895Y-103269545D01*
X164996932Y-103373617D01*
X164996932Y-103373624D01*
X165016700Y-103511119D01*
X165016701Y-103511124D01*
X165016702Y-103511126D01*
X165074411Y-103637490D01*
X165165383Y-103742478D01*
X165165385Y-103742479D01*
X165165386Y-103742480D01*
X165282245Y-103817581D01*
X165282246Y-103817581D01*
X165282249Y-103817583D01*
X165373035Y-103844240D01*
X165415536Y-103856720D01*
X165415539Y-103856720D01*
X165415541Y-103856721D01*
X165415542Y-103856721D01*
X165554458Y-103856721D01*
X165554459Y-103856721D01*
X165554461Y-103856720D01*
X165554463Y-103856720D01*
X165570305Y-103852068D01*
X165687751Y-103817583D01*
X165804617Y-103742478D01*
X165895589Y-103637490D01*
X165953298Y-103511126D01*
X165971213Y-103386526D01*
X165973068Y-103373624D01*
X165973068Y-103373619D01*
X165961377Y-103292307D01*
X165958705Y-103273724D01*
X165971019Y-103214872D01*
X165983551Y-103199064D01*
X166440127Y-102742488D01*
X166494620Y-102717078D01*
X166519427Y-102718432D01*
X166560089Y-102726521D01*
X167884910Y-102726520D01*
X167884912Y-102726520D01*
X167903289Y-102722864D01*
X167958677Y-102711848D01*
X168042331Y-102655952D01*
X168098227Y-102572298D01*
X168112900Y-102498532D01*
X168112899Y-102248711D01*
X168112899Y-102248708D01*
X168105655Y-102212290D01*
X168098227Y-102174944D01*
X168046449Y-102097453D01*
X168032158Y-102039052D01*
X168046448Y-101999789D01*
X168098227Y-101922298D01*
X168112900Y-101848532D01*
X168112899Y-101815237D01*
X168133462Y-101758739D01*
X168185533Y-101728674D01*
X168244747Y-101739113D01*
X168267228Y-101757674D01*
X168292699Y-101787070D01*
X168297904Y-101793077D01*
X168310383Y-101807478D01*
X168310385Y-101807479D01*
X168310386Y-101807480D01*
X168427245Y-101882581D01*
X168427246Y-101882581D01*
X168427249Y-101882583D01*
X168518035Y-101909240D01*
X168560536Y-101921720D01*
X168560539Y-101921720D01*
X168560541Y-101921721D01*
X168560542Y-101921721D01*
X168699458Y-101921721D01*
X168699459Y-101921721D01*
X168699461Y-101921720D01*
X168699463Y-101921720D01*
X168715305Y-101917068D01*
X168832751Y-101882583D01*
X168949617Y-101807478D01*
X169040589Y-101702490D01*
X169098298Y-101576126D01*
X169105334Y-101527187D01*
X169118068Y-101438624D01*
X169118068Y-101438617D01*
X169098299Y-101301122D01*
X169098298Y-101301121D01*
X169098298Y-101301116D01*
X169040589Y-101174752D01*
X168949617Y-101069764D01*
X168949615Y-101069763D01*
X168949613Y-101069761D01*
X168832754Y-100994660D01*
X168832751Y-100994659D01*
X168799011Y-100984752D01*
X168699463Y-100955521D01*
X168699459Y-100955521D01*
X168560541Y-100955521D01*
X168560540Y-100955521D01*
X168541285Y-100961175D01*
X168481279Y-100957361D01*
X168454366Y-100938990D01*
X168432039Y-100916662D01*
X168430470Y-100915010D01*
X168402670Y-100884135D01*
X168402669Y-100884134D01*
X168380972Y-100874473D01*
X168368858Y-100867896D01*
X168356022Y-100859561D01*
X168348936Y-100854960D01*
X168348933Y-100854959D01*
X168348932Y-100854959D01*
X168342058Y-100853870D01*
X168320064Y-100847355D01*
X168313699Y-100844521D01*
X168313697Y-100844521D01*
X168289947Y-100844521D01*
X168276197Y-100843439D01*
X168264119Y-100841526D01*
X168252743Y-100839724D01*
X168252740Y-100839724D01*
X168246017Y-100841526D01*
X168223267Y-100844521D01*
X168124882Y-100844521D01*
X168068381Y-100823956D01*
X168051798Y-100805458D01*
X168046448Y-100797452D01*
X168032159Y-100739050D01*
X168046447Y-100699791D01*
X168098227Y-100622298D01*
X168112900Y-100548532D01*
X168112899Y-100298711D01*
X168112899Y-100298710D01*
X168112899Y-100298708D01*
X168103795Y-100252939D01*
X168098227Y-100224944D01*
X168046449Y-100147453D01*
X168032158Y-100089052D01*
X168046448Y-100049789D01*
X168098227Y-99972298D01*
X168112900Y-99898532D01*
X168112899Y-99648711D01*
X168112899Y-99648710D01*
X168112899Y-99648708D01*
X168107415Y-99621142D01*
X168098227Y-99574944D01*
X168046449Y-99497453D01*
X168032158Y-99439052D01*
X168046448Y-99399789D01*
X168098227Y-99322298D01*
X168112900Y-99248532D01*
X168112899Y-98998711D01*
X168112899Y-98998708D01*
X168105694Y-98962488D01*
X168098227Y-98924944D01*
X168046449Y-98847453D01*
X168032158Y-98789052D01*
X168046448Y-98749789D01*
X168098227Y-98672298D01*
X168112900Y-98598532D01*
X168112899Y-98348711D01*
X168112899Y-98348708D01*
X168107415Y-98321142D01*
X168098227Y-98274944D01*
X168046449Y-98197453D01*
X168032158Y-98139052D01*
X168046448Y-98099789D01*
X168098227Y-98022298D01*
X168112900Y-97948532D01*
X168112899Y-97698711D01*
X168112899Y-97698710D01*
X168112899Y-97698708D01*
X168107415Y-97671142D01*
X168098227Y-97624944D01*
X168042331Y-97541290D01*
X167958677Y-97485394D01*
X167958674Y-97485393D01*
X167921541Y-97478007D01*
X167884911Y-97470721D01*
X167884909Y-97470721D01*
X167590300Y-97470721D01*
X167533799Y-97450156D01*
X167503735Y-97398085D01*
X167502400Y-97382821D01*
X167502400Y-97209644D01*
X167522965Y-97153143D01*
X167575036Y-97123079D01*
X167576531Y-97122829D01*
X167644644Y-97112041D01*
X167754832Y-97055898D01*
X167842277Y-96968453D01*
X167898420Y-96858265D01*
X167912900Y-96766843D01*
X167912900Y-96230399D01*
X167898420Y-96138977D01*
X167842277Y-96028789D01*
X167754832Y-95941344D01*
X167644644Y-95885201D01*
X167644642Y-95885200D01*
X167644641Y-95885200D01*
X167576549Y-95874415D01*
X167523960Y-95845264D01*
X167502413Y-95789130D01*
X167502400Y-95787597D01*
X167502400Y-94621120D01*
X167504431Y-94608678D01*
X167503392Y-94608533D01*
X167504515Y-94600467D01*
X167504518Y-94600461D01*
X167502446Y-94555665D01*
X167502400Y-94553638D01*
X167502400Y-94535185D01*
X167501765Y-94531791D01*
X167501063Y-94525746D01*
X167499685Y-94495928D01*
X167495785Y-94487097D01*
X167489793Y-94467745D01*
X167488020Y-94458258D01*
X167481829Y-94448259D01*
X167472313Y-94432890D01*
X167469471Y-94427499D01*
X167457417Y-94400199D01*
X167457416Y-94400197D01*
X167450584Y-94393365D01*
X167438009Y-94377490D01*
X167432931Y-94369288D01*
X167432930Y-94369287D01*
X167432929Y-94369286D01*
X167409128Y-94351312D01*
X167404531Y-94347312D01*
X162769522Y-89712305D01*
X166749884Y-89712305D01*
X166769115Y-89944401D01*
X166769116Y-89944407D01*
X166826286Y-90170165D01*
X166826289Y-90170173D01*
X166872894Y-90276420D01*
X166919840Y-90383446D01*
X166919844Y-90383452D01*
X167047215Y-90578410D01*
X167047216Y-90578412D01*
X167159933Y-90700856D01*
X167204954Y-90749761D01*
X167388740Y-90892807D01*
X167593563Y-91003652D01*
X167813837Y-91079272D01*
X167813839Y-91079272D01*
X167813841Y-91079273D01*
X168043550Y-91117605D01*
X168043554Y-91117605D01*
X168276450Y-91117605D01*
X168506158Y-91079273D01*
X168506158Y-91079272D01*
X168506163Y-91079272D01*
X168726437Y-91003652D01*
X168931260Y-90892807D01*
X169115046Y-90749761D01*
X169272780Y-90578416D01*
X169400160Y-90383446D01*
X169493712Y-90170169D01*
X169502085Y-90137106D01*
X169550883Y-89944407D01*
X169550884Y-89944401D01*
X169552156Y-89929050D01*
X169570116Y-89712305D01*
X169550884Y-89480208D01*
X169550883Y-89480202D01*
X169493713Y-89254444D01*
X169493710Y-89254436D01*
X169445540Y-89144620D01*
X169400160Y-89041164D01*
X169318983Y-88916913D01*
X169272784Y-88846199D01*
X169272783Y-88846197D01*
X169115050Y-88674853D01*
X169115048Y-88674852D01*
X169115046Y-88674849D01*
X168931260Y-88531803D01*
X168726437Y-88420958D01*
X168726433Y-88420956D01*
X168726430Y-88420955D01*
X168506167Y-88345339D01*
X168506158Y-88345336D01*
X168276450Y-88307005D01*
X168276446Y-88307005D01*
X168043554Y-88307005D01*
X168043550Y-88307005D01*
X167813841Y-88345336D01*
X167813832Y-88345339D01*
X167593569Y-88420955D01*
X167593564Y-88420957D01*
X167593563Y-88420958D01*
X167388740Y-88531803D01*
X167246252Y-88642706D01*
X167204949Y-88674853D01*
X167047216Y-88846197D01*
X167047215Y-88846199D01*
X166919844Y-89041157D01*
X166919835Y-89041174D01*
X166826289Y-89254436D01*
X166826286Y-89254444D01*
X166769116Y-89480202D01*
X166769115Y-89480208D01*
X166749884Y-89712305D01*
X162769522Y-89712305D01*
X162300342Y-89243125D01*
X162292978Y-89232887D01*
X162292141Y-89233520D01*
X162287235Y-89227022D01*
X162254097Y-89196813D01*
X162252628Y-89195411D01*
X162239579Y-89182362D01*
X162236730Y-89180410D01*
X162231955Y-89176628D01*
X162209903Y-89156525D01*
X162209901Y-89156523D01*
X162209898Y-89156522D01*
X162209897Y-89156521D01*
X162200898Y-89153035D01*
X162182976Y-89143588D01*
X162175016Y-89138135D01*
X162168215Y-89136535D01*
X162145967Y-89131302D01*
X162140147Y-89129500D01*
X162112326Y-89118722D01*
X162112323Y-89118721D01*
X162112322Y-89118721D01*
X162112321Y-89118721D01*
X162102668Y-89118721D01*
X162082543Y-89116386D01*
X162073151Y-89114177D01*
X162043599Y-89118299D01*
X162037522Y-89118721D01*
X155796841Y-89118721D01*
X155740340Y-89098156D01*
X155730410Y-89088383D01*
X155679618Y-89029765D01*
X155679613Y-89029761D01*
X155562754Y-88954660D01*
X155562751Y-88954659D01*
X155536092Y-88946831D01*
X155429463Y-88915521D01*
X155429459Y-88915521D01*
X155290541Y-88915521D01*
X155290536Y-88915521D01*
X155157249Y-88954659D01*
X155157245Y-88954660D01*
X155040386Y-89029761D01*
X155040381Y-89029765D01*
X154989590Y-89088383D01*
X154937048Y-89117617D01*
X154923159Y-89118721D01*
X153096841Y-89118721D01*
X153040340Y-89098156D01*
X153030410Y-89088383D01*
X152979618Y-89029765D01*
X152979613Y-89029761D01*
X152862754Y-88954660D01*
X152862751Y-88954659D01*
X152836092Y-88946831D01*
X152729463Y-88915521D01*
X152729459Y-88915521D01*
X152590541Y-88915521D01*
X152590536Y-88915521D01*
X152457249Y-88954659D01*
X152457245Y-88954660D01*
X152340386Y-89029761D01*
X152340381Y-89029765D01*
X152249410Y-89134753D01*
X152191702Y-89261116D01*
X152191700Y-89261122D01*
X152171932Y-89398617D01*
X152171932Y-89398623D01*
X152177263Y-89435703D01*
X152164949Y-89494556D01*
X152152413Y-89510367D01*
X151549807Y-90112976D01*
X151495313Y-90138386D01*
X151487652Y-90138721D01*
X150962870Y-90138721D01*
X150906369Y-90118156D01*
X150876305Y-90066085D01*
X150886746Y-90006871D01*
X150932806Y-89968222D01*
X150949117Y-89964003D01*
X151024644Y-89952041D01*
X151134832Y-89895898D01*
X151222277Y-89808453D01*
X151278420Y-89698265D01*
X151292900Y-89606843D01*
X151292900Y-89070399D01*
X151278420Y-88978977D01*
X151222277Y-88868789D01*
X151134832Y-88781344D01*
X151024644Y-88725201D01*
X151024642Y-88725200D01*
X151024641Y-88725200D01*
X150954414Y-88714077D01*
X150933222Y-88710721D01*
X150296778Y-88710721D01*
X150279574Y-88713445D01*
X150205358Y-88725200D01*
X150095168Y-88781344D01*
X150007723Y-88868789D01*
X149951579Y-88978979D01*
X149937100Y-89070399D01*
X149937100Y-89606842D01*
X149951579Y-89698262D01*
X149951579Y-89698263D01*
X149951580Y-89698265D01*
X150007723Y-89808453D01*
X150095168Y-89895898D01*
X150205356Y-89952041D01*
X150280881Y-89964003D01*
X150333469Y-89993153D01*
X150355017Y-90049287D01*
X150335441Y-90106138D01*
X150283902Y-90137106D01*
X150267130Y-90138721D01*
X149212870Y-90138721D01*
X149156369Y-90118156D01*
X149126305Y-90066085D01*
X149136746Y-90006871D01*
X149182806Y-89968222D01*
X149199117Y-89964003D01*
X149274644Y-89952041D01*
X149384832Y-89895898D01*
X149472277Y-89808453D01*
X149528420Y-89698265D01*
X149542900Y-89606843D01*
X149542900Y-89070399D01*
X149538191Y-89040669D01*
X149549662Y-88981647D01*
X149562849Y-88964766D01*
X150316965Y-88210650D01*
X150318598Y-88209101D01*
X150349486Y-88181291D01*
X150359145Y-88159595D01*
X150365724Y-88147477D01*
X150378662Y-88127557D01*
X150379751Y-88120678D01*
X150386268Y-88098675D01*
X150389100Y-88092318D01*
X150389100Y-88068568D01*
X150390182Y-88054818D01*
X150393897Y-88031362D01*
X150393896Y-88031357D01*
X150392095Y-88024634D01*
X150389100Y-88001886D01*
X150389100Y-86996636D01*
X150409665Y-86940135D01*
X150461736Y-86910071D01*
X150520950Y-86920512D01*
X150554519Y-86955198D01*
X150592084Y-87025477D01*
X150717411Y-87178188D01*
X150870122Y-87303515D01*
X151044350Y-87396641D01*
X151233397Y-87453988D01*
X151430000Y-87473352D01*
X151626603Y-87453988D01*
X151815650Y-87396641D01*
X151989878Y-87303515D01*
X152142589Y-87178188D01*
X152267916Y-87025477D01*
X152361042Y-86851249D01*
X152418389Y-86662202D01*
X152437753Y-86465599D01*
X152962247Y-86465599D01*
X152981612Y-86662208D01*
X153038957Y-86851247D01*
X153038958Y-86851249D01*
X153132084Y-87025477D01*
X153257411Y-87178188D01*
X153410122Y-87303515D01*
X153584350Y-87396641D01*
X153773397Y-87453988D01*
X153970000Y-87473352D01*
X154166603Y-87453988D01*
X154355650Y-87396641D01*
X154529878Y-87303515D01*
X154682589Y-87178188D01*
X154807916Y-87025477D01*
X154901042Y-86851249D01*
X154958389Y-86662202D01*
X154977753Y-86465599D01*
X155502247Y-86465599D01*
X155521612Y-86662208D01*
X155578957Y-86851247D01*
X155578958Y-86851249D01*
X155672084Y-87025477D01*
X155797411Y-87178188D01*
X155950122Y-87303515D01*
X156124350Y-87396641D01*
X156313397Y-87453988D01*
X156510000Y-87473352D01*
X156706603Y-87453988D01*
X156895650Y-87396641D01*
X157069878Y-87303515D01*
X157222589Y-87178188D01*
X157347916Y-87025477D01*
X157441042Y-86851249D01*
X157498389Y-86662202D01*
X157517753Y-86465599D01*
X157498389Y-86268996D01*
X157441042Y-86079949D01*
X157347916Y-85905721D01*
X157222589Y-85753010D01*
X157069878Y-85627683D01*
X156895650Y-85534557D01*
X156895649Y-85534556D01*
X156895648Y-85534556D01*
X156706609Y-85477211D01*
X156706604Y-85477210D01*
X156706603Y-85477210D01*
X156510000Y-85457846D01*
X156509999Y-85457846D01*
X156462657Y-85462508D01*
X156313397Y-85477210D01*
X156313395Y-85477210D01*
X156313390Y-85477211D01*
X156124351Y-85534556D01*
X155950121Y-85627683D01*
X155797413Y-85753008D01*
X155797409Y-85753012D01*
X155672084Y-85905720D01*
X155578957Y-86079950D01*
X155521612Y-86268989D01*
X155502247Y-86465599D01*
X154977753Y-86465599D01*
X154958389Y-86268996D01*
X154901042Y-86079949D01*
X154807916Y-85905721D01*
X154682589Y-85753010D01*
X154529878Y-85627683D01*
X154355650Y-85534557D01*
X154355649Y-85534556D01*
X154355648Y-85534556D01*
X154166609Y-85477211D01*
X154166604Y-85477210D01*
X154166603Y-85477210D01*
X153970000Y-85457846D01*
X153773397Y-85477210D01*
X153773395Y-85477210D01*
X153773390Y-85477211D01*
X153584351Y-85534556D01*
X153410121Y-85627683D01*
X153257413Y-85753008D01*
X153257409Y-85753012D01*
X153132084Y-85905720D01*
X153038957Y-86079950D01*
X152981612Y-86268989D01*
X152962247Y-86465599D01*
X152437753Y-86465599D01*
X152418389Y-86268996D01*
X152361042Y-86079949D01*
X152267916Y-85905721D01*
X152142589Y-85753010D01*
X151989878Y-85627683D01*
X151815650Y-85534557D01*
X151815649Y-85534556D01*
X151815648Y-85534556D01*
X151626609Y-85477211D01*
X151626604Y-85477210D01*
X151626603Y-85477210D01*
X151430000Y-85457846D01*
X151233397Y-85477210D01*
X151233395Y-85477210D01*
X151233390Y-85477211D01*
X151044351Y-85534556D01*
X150870121Y-85627683D01*
X150717413Y-85753008D01*
X150717409Y-85753012D01*
X150592084Y-85905720D01*
X150554521Y-85975997D01*
X150509750Y-86016132D01*
X150449655Y-86018099D01*
X150402355Y-85980978D01*
X150389100Y-85934561D01*
X150389100Y-85202746D01*
X150389160Y-85200445D01*
X150389421Y-85195446D01*
X150391334Y-85158959D01*
X150382823Y-85136786D01*
X150378906Y-85123562D01*
X150373969Y-85100335D01*
X150373967Y-85100331D01*
X150369875Y-85094699D01*
X150358927Y-85074534D01*
X150356433Y-85068037D01*
X150356432Y-85068036D01*
X150356432Y-85068035D01*
X150339630Y-85051233D01*
X150330677Y-85040749D01*
X150316721Y-85021540D01*
X150316722Y-85021540D01*
X150310692Y-85018059D01*
X150292488Y-85004091D01*
X149790021Y-84501624D01*
X149764610Y-84447130D01*
X149774655Y-84398033D01*
X149821042Y-84311249D01*
X149878389Y-84122202D01*
X149897753Y-83925599D01*
X149878389Y-83728996D01*
X149860977Y-83671598D01*
X150433001Y-83671598D01*
X150433002Y-83671599D01*
X150998884Y-83671599D01*
X150970507Y-83715755D01*
X150930000Y-83853710D01*
X150930000Y-83997488D01*
X150970507Y-84135443D01*
X150998884Y-84179599D01*
X150433002Y-84179599D01*
X150475840Y-84320819D01*
X150475840Y-84320821D01*
X150571281Y-84499377D01*
X150699717Y-84655877D01*
X150699721Y-84655881D01*
X150856221Y-84784317D01*
X151034778Y-84879758D01*
X151175999Y-84922597D01*
X151176000Y-84922597D01*
X151176000Y-84359273D01*
X151287685Y-84410279D01*
X151394237Y-84425599D01*
X151465763Y-84425599D01*
X151572315Y-84410279D01*
X151684000Y-84359273D01*
X151684000Y-84922597D01*
X151825220Y-84879758D01*
X151825222Y-84879758D01*
X152003778Y-84784317D01*
X152160278Y-84655881D01*
X152160282Y-84655877D01*
X152288718Y-84499377D01*
X152384159Y-84320821D01*
X152384159Y-84320819D01*
X152426998Y-84179599D01*
X151861116Y-84179599D01*
X151889493Y-84135443D01*
X151930000Y-83997488D01*
X151930000Y-83853710D01*
X151889493Y-83715755D01*
X151861116Y-83671599D01*
X152426998Y-83671599D01*
X152426998Y-83671598D01*
X152973001Y-83671598D01*
X152973002Y-83671599D01*
X153538884Y-83671599D01*
X153510507Y-83715755D01*
X153470000Y-83853710D01*
X153470000Y-83997488D01*
X153510507Y-84135443D01*
X153538884Y-84179599D01*
X152973002Y-84179599D01*
X153015840Y-84320819D01*
X153015840Y-84320821D01*
X153111281Y-84499377D01*
X153239717Y-84655877D01*
X153239721Y-84655881D01*
X153396221Y-84784317D01*
X153574778Y-84879758D01*
X153715999Y-84922597D01*
X153716000Y-84922596D01*
X153716000Y-84359273D01*
X153827685Y-84410279D01*
X153934237Y-84425599D01*
X154005763Y-84425599D01*
X154112315Y-84410279D01*
X154224000Y-84359273D01*
X154224000Y-84922597D01*
X154365220Y-84879758D01*
X154365222Y-84879758D01*
X154543778Y-84784317D01*
X154700278Y-84655881D01*
X154700282Y-84655877D01*
X154828718Y-84499377D01*
X154924159Y-84320821D01*
X154924159Y-84320819D01*
X154966998Y-84179599D01*
X154401116Y-84179599D01*
X154429493Y-84135443D01*
X154470000Y-83997488D01*
X154470000Y-83925599D01*
X155502247Y-83925599D01*
X155521612Y-84122208D01*
X155578957Y-84311247D01*
X155578958Y-84311249D01*
X155672084Y-84485477D01*
X155797411Y-84638188D01*
X155950122Y-84763515D01*
X156124350Y-84856641D01*
X156313397Y-84913988D01*
X156510000Y-84933352D01*
X156706603Y-84913988D01*
X156895650Y-84856641D01*
X157069878Y-84763515D01*
X157222589Y-84638188D01*
X157347916Y-84485477D01*
X157441042Y-84311249D01*
X157498389Y-84122202D01*
X157517753Y-83925599D01*
X157498389Y-83728996D01*
X157441042Y-83539949D01*
X157347916Y-83365721D01*
X157222589Y-83213010D01*
X157069878Y-83087683D01*
X156895650Y-82994557D01*
X156895649Y-82994556D01*
X156895648Y-82994556D01*
X156706609Y-82937211D01*
X156706604Y-82937210D01*
X156706603Y-82937210D01*
X156510000Y-82917846D01*
X156313397Y-82937210D01*
X156313395Y-82937210D01*
X156313390Y-82937211D01*
X156124351Y-82994556D01*
X155950121Y-83087683D01*
X155797413Y-83213008D01*
X155797409Y-83213012D01*
X155672084Y-83365720D01*
X155578957Y-83539950D01*
X155521612Y-83728989D01*
X155502247Y-83925599D01*
X154470000Y-83925599D01*
X154470000Y-83853710D01*
X154429493Y-83715755D01*
X154401116Y-83671599D01*
X154966998Y-83671599D01*
X154966998Y-83671598D01*
X154924159Y-83530378D01*
X154924159Y-83530376D01*
X154828718Y-83351820D01*
X154700282Y-83195320D01*
X154700278Y-83195316D01*
X154543778Y-83066880D01*
X154365225Y-82971441D01*
X154224000Y-82928600D01*
X154224000Y-83491924D01*
X154112315Y-83440919D01*
X154005763Y-83425599D01*
X153934237Y-83425599D01*
X153827685Y-83440919D01*
X153716000Y-83491924D01*
X153716000Y-82928600D01*
X153574774Y-82971441D01*
X153396221Y-83066880D01*
X153239721Y-83195316D01*
X153239717Y-83195320D01*
X153111281Y-83351820D01*
X153015840Y-83530376D01*
X153015840Y-83530378D01*
X152973001Y-83671598D01*
X152426998Y-83671598D01*
X152384159Y-83530378D01*
X152384159Y-83530376D01*
X152288718Y-83351820D01*
X152160282Y-83195320D01*
X152160278Y-83195316D01*
X152003778Y-83066880D01*
X151825225Y-82971441D01*
X151684000Y-82928600D01*
X151684000Y-83491924D01*
X151572315Y-83440919D01*
X151465763Y-83425599D01*
X151394237Y-83425599D01*
X151287685Y-83440919D01*
X151176000Y-83491924D01*
X151176000Y-82928600D01*
X151034774Y-82971441D01*
X150856221Y-83066880D01*
X150699721Y-83195316D01*
X150699717Y-83195320D01*
X150571281Y-83351820D01*
X150475840Y-83530376D01*
X150475840Y-83530378D01*
X150433001Y-83671598D01*
X149860977Y-83671598D01*
X149821042Y-83539949D01*
X149727916Y-83365721D01*
X149602589Y-83213010D01*
X149449878Y-83087683D01*
X149275650Y-82994557D01*
X149275649Y-82994556D01*
X149275648Y-82994556D01*
X149086609Y-82937211D01*
X149086604Y-82937210D01*
X149086603Y-82937210D01*
X148890000Y-82917846D01*
X148693397Y-82937210D01*
X148693395Y-82937210D01*
X148693390Y-82937211D01*
X148504351Y-82994556D01*
X148330121Y-83087683D01*
X148177413Y-83213008D01*
X148177409Y-83213012D01*
X148052084Y-83365720D01*
X147958957Y-83539950D01*
X147901612Y-83728989D01*
X147882247Y-83925599D01*
X147901612Y-84122208D01*
X147958957Y-84311247D01*
X147958958Y-84311249D01*
X148052084Y-84485477D01*
X148177411Y-84638188D01*
X148330122Y-84763515D01*
X148504350Y-84856641D01*
X148693397Y-84913988D01*
X148890000Y-84933352D01*
X149086603Y-84913988D01*
X149275650Y-84856641D01*
X149362434Y-84810253D01*
X149421958Y-84801756D01*
X149466025Y-84825620D01*
X149905155Y-85264750D01*
X149930566Y-85319244D01*
X149930900Y-85326905D01*
X149930900Y-85934561D01*
X149910335Y-85991062D01*
X149858264Y-86021126D01*
X149799050Y-86010685D01*
X149765479Y-85975997D01*
X149727915Y-85905720D01*
X149602589Y-85753010D01*
X149449878Y-85627683D01*
X149275650Y-85534557D01*
X149275649Y-85534556D01*
X149275648Y-85534556D01*
X149086609Y-85477211D01*
X149086604Y-85477210D01*
X149086603Y-85477210D01*
X148890000Y-85457846D01*
X148889999Y-85457846D01*
X148842657Y-85462508D01*
X148693397Y-85477210D01*
X148693395Y-85477210D01*
X148693390Y-85477211D01*
X148504351Y-85534556D01*
X148330121Y-85627683D01*
X148177413Y-85753008D01*
X148177409Y-85753012D01*
X148052084Y-85905720D01*
X147958957Y-86079950D01*
X147901612Y-86268989D01*
X147882247Y-86465598D01*
X147901612Y-86662208D01*
X147958957Y-86851247D01*
X147958958Y-86851249D01*
X148052084Y-87025477D01*
X148177411Y-87178188D01*
X148330122Y-87303515D01*
X148504350Y-87396641D01*
X148693397Y-87453988D01*
X148890000Y-87473352D01*
X149086603Y-87453988D01*
X149275650Y-87396641D01*
X149449878Y-87303515D01*
X149602589Y-87178188D01*
X149727916Y-87025477D01*
X149765479Y-86955199D01*
X149810250Y-86915065D01*
X149870345Y-86913098D01*
X149917645Y-86950219D01*
X149930900Y-86996636D01*
X149930900Y-87912314D01*
X149910335Y-87968815D01*
X149905155Y-87974469D01*
X149194648Y-88684976D01*
X149140154Y-88710387D01*
X149132493Y-88710721D01*
X148546778Y-88710721D01*
X148529574Y-88713445D01*
X148455358Y-88725200D01*
X148345168Y-88781344D01*
X148257723Y-88868789D01*
X148201579Y-88978979D01*
X148187100Y-89070399D01*
X148187100Y-89606842D01*
X148201579Y-89698262D01*
X148201579Y-89698263D01*
X148201580Y-89698265D01*
X148257723Y-89808453D01*
X148345168Y-89895898D01*
X148455356Y-89952041D01*
X148530881Y-89964003D01*
X148583469Y-89993153D01*
X148605017Y-90049287D01*
X148585441Y-90106138D01*
X148533902Y-90137106D01*
X148517130Y-90138721D01*
X147507349Y-90138721D01*
X147450848Y-90118156D01*
X147445194Y-90112976D01*
X147088645Y-89756427D01*
X147063234Y-89701933D01*
X147062900Y-89694272D01*
X147062900Y-88916914D01*
X147062680Y-88915521D01*
X147047957Y-88822566D01*
X146990016Y-88708850D01*
X146899771Y-88618605D01*
X146899768Y-88618603D01*
X146786053Y-88560663D01*
X146786055Y-88560663D01*
X146704049Y-88547675D01*
X146651461Y-88518524D01*
X146629913Y-88462391D01*
X146629900Y-88460857D01*
X146629900Y-87493911D01*
X146650465Y-87437410D01*
X146692285Y-87409796D01*
X146718770Y-87401761D01*
X146735650Y-87396641D01*
X146909878Y-87303515D01*
X147062589Y-87178188D01*
X147187916Y-87025477D01*
X147281042Y-86851249D01*
X147338389Y-86662202D01*
X147357753Y-86465599D01*
X147338389Y-86268996D01*
X147281042Y-86079949D01*
X147187916Y-85905721D01*
X147062589Y-85753010D01*
X146909878Y-85627683D01*
X146735650Y-85534557D01*
X146735649Y-85534556D01*
X146735648Y-85534556D01*
X146546609Y-85477211D01*
X146546604Y-85477210D01*
X146546603Y-85477210D01*
X146350000Y-85457846D01*
X146153397Y-85477210D01*
X146153395Y-85477210D01*
X146153390Y-85477211D01*
X145964351Y-85534556D01*
X145790121Y-85627683D01*
X145637413Y-85753008D01*
X145637409Y-85753012D01*
X145512084Y-85905720D01*
X145418957Y-86079950D01*
X145361612Y-86268989D01*
X145342247Y-86465598D01*
X144812899Y-86465598D01*
X144812899Y-85600543D01*
X144812899Y-85600542D01*
X144812899Y-85600540D01*
X144809111Y-85581501D01*
X144804028Y-85555941D01*
X144770234Y-85505365D01*
X144770002Y-85505210D01*
X144719658Y-85471570D01*
X144682456Y-85464170D01*
X144675057Y-85462699D01*
X144675056Y-85462699D01*
X142944941Y-85462699D01*
X142900341Y-85471571D01*
X142849767Y-85505364D01*
X142849764Y-85505367D01*
X142815971Y-85555940D01*
X142807100Y-85600542D01*
X142807100Y-87330657D01*
X132895735Y-87330657D01*
X138793467Y-83925599D01*
X142802247Y-83925599D01*
X142821612Y-84122208D01*
X142878957Y-84311247D01*
X142878958Y-84311249D01*
X142972084Y-84485477D01*
X143097411Y-84638188D01*
X143250122Y-84763515D01*
X143424350Y-84856641D01*
X143613397Y-84913988D01*
X143810000Y-84933352D01*
X144006603Y-84913988D01*
X144195650Y-84856641D01*
X144369878Y-84763515D01*
X144522589Y-84638188D01*
X144647916Y-84485477D01*
X144741042Y-84311249D01*
X144798389Y-84122202D01*
X144817753Y-83925599D01*
X145342247Y-83925599D01*
X145361612Y-84122208D01*
X145418957Y-84311247D01*
X145418958Y-84311249D01*
X145512084Y-84485477D01*
X145637411Y-84638188D01*
X145790122Y-84763515D01*
X145964350Y-84856641D01*
X146153397Y-84913988D01*
X146350000Y-84933352D01*
X146546603Y-84913988D01*
X146735650Y-84856641D01*
X146909878Y-84763515D01*
X147062589Y-84638188D01*
X147187916Y-84485477D01*
X147281042Y-84311249D01*
X147338389Y-84122202D01*
X147357753Y-83925599D01*
X147338389Y-83728996D01*
X147281042Y-83539949D01*
X147187916Y-83365721D01*
X147062589Y-83213010D01*
X146909878Y-83087683D01*
X146735650Y-82994557D01*
X146735649Y-82994556D01*
X146735648Y-82994556D01*
X146546609Y-82937211D01*
X146546604Y-82937210D01*
X146546603Y-82937210D01*
X146350000Y-82917846D01*
X146153397Y-82937210D01*
X146153395Y-82937210D01*
X146153390Y-82937211D01*
X145964351Y-82994556D01*
X145790121Y-83087683D01*
X145637413Y-83213008D01*
X145637409Y-83213012D01*
X145512084Y-83365720D01*
X145418957Y-83539950D01*
X145361612Y-83728989D01*
X145342247Y-83925599D01*
X144817753Y-83925599D01*
X144798389Y-83728996D01*
X144741042Y-83539949D01*
X144647916Y-83365721D01*
X144522589Y-83213010D01*
X144369878Y-83087683D01*
X144195650Y-82994557D01*
X144195649Y-82994556D01*
X144195648Y-82994556D01*
X144006609Y-82937211D01*
X144006604Y-82937210D01*
X144006603Y-82937210D01*
X143810000Y-82917846D01*
X143613397Y-82937210D01*
X143613395Y-82937210D01*
X143613390Y-82937211D01*
X143424351Y-82994556D01*
X143250121Y-83087683D01*
X143097413Y-83213008D01*
X143097409Y-83213012D01*
X142972084Y-83365720D01*
X142878957Y-83539950D01*
X142821612Y-83728989D01*
X142802247Y-83925599D01*
X138793467Y-83925599D01*
X146770598Y-79320000D01*
X148749884Y-79320000D01*
X148769115Y-79552096D01*
X148769116Y-79552102D01*
X148826286Y-79777860D01*
X148826289Y-79777868D01*
X148897987Y-79941321D01*
X148919840Y-79991141D01*
X148919844Y-79991147D01*
X149047215Y-80186105D01*
X149047216Y-80186107D01*
X149047220Y-80186111D01*
X149204954Y-80357456D01*
X149388740Y-80500502D01*
X149593563Y-80611347D01*
X149813837Y-80686967D01*
X149813839Y-80686967D01*
X149813841Y-80686968D01*
X150043550Y-80725300D01*
X150043554Y-80725300D01*
X150276450Y-80725300D01*
X150506158Y-80686968D01*
X150506158Y-80686967D01*
X150506163Y-80686967D01*
X150726437Y-80611347D01*
X150931260Y-80500502D01*
X151115046Y-80357456D01*
X151272780Y-80186111D01*
X151400160Y-79991141D01*
X151493712Y-79777864D01*
X151550884Y-79552097D01*
X151570116Y-79320000D01*
X151550884Y-79087903D01*
X151550883Y-79087897D01*
X151493713Y-78862139D01*
X151493710Y-78862131D01*
X151400164Y-78648869D01*
X151400160Y-78648859D01*
X151319435Y-78525300D01*
X151272784Y-78453894D01*
X151272783Y-78453892D01*
X151115050Y-78282548D01*
X151115048Y-78282547D01*
X151115046Y-78282544D01*
X150931260Y-78139498D01*
X150726437Y-78028653D01*
X150726433Y-78028651D01*
X150726430Y-78028650D01*
X150506167Y-77953034D01*
X150506158Y-77953031D01*
X150276450Y-77914700D01*
X150276446Y-77914700D01*
X150043554Y-77914700D01*
X150043550Y-77914700D01*
X149813841Y-77953031D01*
X149813832Y-77953034D01*
X149593569Y-78028650D01*
X149388740Y-78139498D01*
X149204949Y-78282548D01*
X149047216Y-78453892D01*
X149047215Y-78453894D01*
X148919844Y-78648852D01*
X148919835Y-78648869D01*
X148826289Y-78862131D01*
X148826286Y-78862139D01*
X148769116Y-79087897D01*
X148769115Y-79087903D01*
X148749884Y-79320000D01*
X146770598Y-79320000D01*
X150116050Y-77388502D01*
X150175263Y-77378062D01*
X150203946Y-77388502D01*
G37*
%TD.AperFunction*%
%TD*%
%TA.AperFunction,Conductor*%
%TO.N,/BAT_BR*%
G36*
X140128601Y-104969186D02*
G01*
X140158665Y-105021257D01*
X140160000Y-105036521D01*
X140160000Y-106610721D01*
X140139435Y-106667222D01*
X140087364Y-106697286D01*
X140072100Y-106698621D01*
X138497900Y-106698621D01*
X138441399Y-106678056D01*
X138411335Y-106625985D01*
X138410000Y-106610721D01*
X138410000Y-105036521D01*
X138430565Y-104980020D01*
X138482636Y-104949956D01*
X138497900Y-104948621D01*
X140072100Y-104948621D01*
X140128601Y-104969186D01*
G37*
%TD.AperFunction*%
%TD*%
%TA.AperFunction,Conductor*%
%TO.N,/BR_4*%
G36*
X140128601Y-93719186D02*
G01*
X140158665Y-93771257D01*
X140160000Y-93786521D01*
X140160000Y-97060721D01*
X140139435Y-97117222D01*
X140087364Y-97147286D01*
X140072100Y-97148621D01*
X138497900Y-97148621D01*
X138441399Y-97128056D01*
X138411335Y-97075985D01*
X138410000Y-97060721D01*
X138410000Y-93786521D01*
X138430565Y-93730020D01*
X138482636Y-93699956D01*
X138497900Y-93698621D01*
X140072100Y-93698621D01*
X140128601Y-93719186D01*
G37*
%TD.AperFunction*%
%TD*%
%TA.AperFunction,Conductor*%
%TO.N,/BAT_BR*%
G36*
X148028601Y-104969186D02*
G01*
X148058665Y-105021257D01*
X148060000Y-105036521D01*
X148060000Y-106610721D01*
X148039435Y-106667222D01*
X147987364Y-106697286D01*
X147972100Y-106698621D01*
X146397900Y-106698621D01*
X146341399Y-106678056D01*
X146311335Y-106625985D01*
X146310000Y-106610721D01*
X146310000Y-105036521D01*
X146330565Y-104980020D01*
X146382636Y-104949956D01*
X146397900Y-104948621D01*
X147972100Y-104948621D01*
X148028601Y-104969186D01*
G37*
%TD.AperFunction*%
%TD*%
%TA.AperFunction,Conductor*%
%TO.N,/BAT_BR*%
G36*
X150028601Y-93719186D02*
G01*
X150058665Y-93771257D01*
X150060000Y-93786521D01*
X150060000Y-95360721D01*
X150039435Y-95417222D01*
X149987364Y-95447286D01*
X149972100Y-95448621D01*
X148397900Y-95448621D01*
X148341399Y-95428056D01*
X148311335Y-95375985D01*
X148310000Y-95360721D01*
X148310000Y-93786521D01*
X148330565Y-93730020D01*
X148382636Y-93699956D01*
X148397900Y-93698621D01*
X149972100Y-93698621D01*
X150028601Y-93719186D01*
G37*
%TD.AperFunction*%
%TD*%
%TA.AperFunction,Conductor*%
%TO.N,/BR_2*%
G36*
X150028601Y-103319186D02*
G01*
X150058665Y-103371257D01*
X150060000Y-103386521D01*
X150060000Y-106560721D01*
X150039435Y-106617222D01*
X149987364Y-106647286D01*
X149972100Y-106648621D01*
X148397900Y-106648621D01*
X148341399Y-106628056D01*
X148311335Y-106575985D01*
X148310000Y-106560721D01*
X148310000Y-103386521D01*
X148330565Y-103330020D01*
X148382636Y-103299956D01*
X148397900Y-103298621D01*
X149972100Y-103298621D01*
X150028601Y-103319186D01*
G37*
%TD.AperFunction*%
%TD*%
%TA.AperFunction,Conductor*%
%TO.N,/BAT_BR*%
G36*
X142128601Y-93719186D02*
G01*
X142158665Y-93771257D01*
X142160000Y-93786521D01*
X142160000Y-95360721D01*
X142139435Y-95417222D01*
X142087364Y-95447286D01*
X142072100Y-95448621D01*
X140497900Y-95448621D01*
X140441399Y-95428056D01*
X140411335Y-95375985D01*
X140410000Y-95360721D01*
X140410000Y-93786521D01*
X140430565Y-93730020D01*
X140482636Y-93699956D01*
X140497900Y-93698621D01*
X142072100Y-93698621D01*
X142128601Y-93719186D01*
G37*
%TD.AperFunction*%
%TD*%
%TA.AperFunction,Conductor*%
%TO.N,/BR_1*%
G36*
X142028601Y-103319186D02*
G01*
X142058665Y-103371257D01*
X142060000Y-103386521D01*
X142060000Y-106560721D01*
X142039435Y-106617222D01*
X141987364Y-106647286D01*
X141972100Y-106648621D01*
X140405800Y-106648621D01*
X140349299Y-106628056D01*
X140319235Y-106575985D01*
X140317900Y-106560721D01*
X140317900Y-105033089D01*
X140317900Y-105033077D01*
X140317600Y-105026195D01*
X140315965Y-105007499D01*
X140314068Y-105001482D01*
X140310000Y-104975052D01*
X140310000Y-103386521D01*
X140330565Y-103330020D01*
X140382636Y-103299956D01*
X140397900Y-103298621D01*
X141972100Y-103298621D01*
X142028601Y-103319186D01*
G37*
%TD.AperFunction*%
%TD*%
%TA.AperFunction,Conductor*%
%TO.N,/BAT_BR*%
G36*
X155928601Y-104969186D02*
G01*
X155958665Y-105021257D01*
X155960000Y-105036521D01*
X155960000Y-106610721D01*
X155939435Y-106667222D01*
X155887364Y-106697286D01*
X155872100Y-106698621D01*
X154297900Y-106698621D01*
X154241399Y-106678056D01*
X154211335Y-106625985D01*
X154210000Y-106610721D01*
X154210000Y-105036521D01*
X154230565Y-104980020D01*
X154282636Y-104949956D01*
X154297900Y-104948621D01*
X155872100Y-104948621D01*
X155928601Y-104969186D01*
G37*
%TD.AperFunction*%
%TD*%
%TA.AperFunction,Conductor*%
%TO.N,/BR_3*%
G36*
X157928601Y-103319186D02*
G01*
X157958665Y-103371257D01*
X157960000Y-103386521D01*
X157960000Y-106560721D01*
X157939435Y-106617222D01*
X157887364Y-106647286D01*
X157872100Y-106648621D01*
X156297900Y-106648621D01*
X156241399Y-106628056D01*
X156211335Y-106575985D01*
X156210000Y-106560721D01*
X156210000Y-103386521D01*
X156230565Y-103330020D01*
X156282636Y-103299956D01*
X156297900Y-103298621D01*
X157872100Y-103298621D01*
X157928601Y-103319186D01*
G37*
%TD.AperFunction*%
%TD*%
M02*
