%TF.GenerationSoftware,KiCad,Pcbnew,7.0.5*%
%TF.CreationDate,2023-06-05T00:45:25-04:00*%
%TF.ProjectId,BURNING_R,4255524e-494e-4475-9f52-2e6b69636164,rev?*%
%TF.SameCoordinates,Original*%
%TF.FileFunction,Legend,Top*%
%TF.FilePolarity,Positive*%
%FSLAX46Y46*%
G04 Gerber Fmt 4.6, Leading zero omitted, Abs format (unit mm)*
G04 Created by KiCad (PCBNEW 7.0.5) date 2023-06-05 00:45:25*
%MOMM*%
%LPD*%
G01*
G04 APERTURE LIST*
%ADD10C,0.120000*%
G04 APERTURE END LIST*
D10*
%TO.C,Q5*%
X148147500Y-96038621D02*
X146472500Y-96038621D01*
X148147500Y-96038621D02*
X148797500Y-96038621D01*
X148147500Y-99158621D02*
X147497500Y-99158621D01*
X148147500Y-99158621D02*
X148797500Y-99158621D01*
%TO.C,J3*%
X143370000Y-107138621D02*
X143370000Y-105988621D01*
X143370000Y-105988621D02*
X142320000Y-105988621D01*
X142320000Y-105988621D02*
X142320000Y-104998621D01*
X142200000Y-109108621D02*
X138320000Y-109108621D01*
X137150000Y-107138621D02*
X137150000Y-105988621D01*
X137150000Y-105988621D02*
X138200000Y-105988621D01*
%TO.C,C2*%
X166506267Y-97008621D02*
X166213733Y-97008621D01*
X166506267Y-95988621D02*
X166213733Y-95988621D01*
%TO.C,Q3*%
X156060000Y-104358621D02*
X157735000Y-104358621D01*
X156060000Y-104358621D02*
X155410000Y-104358621D01*
X156060000Y-101238621D02*
X156710000Y-101238621D01*
X156060000Y-101238621D02*
X155410000Y-101238621D01*
%TO.C,D1*%
X151400000Y-90073621D02*
X151400000Y-88603621D01*
X151400000Y-88603621D02*
X148940000Y-88603621D01*
X148940000Y-90073621D02*
X151400000Y-90073621D01*
%TO.C,Q4*%
X140247500Y-96038621D02*
X138572500Y-96038621D01*
X140247500Y-96038621D02*
X140897500Y-96038621D01*
X140247500Y-99158621D02*
X139597500Y-99158621D01*
X140247500Y-99158621D02*
X140897500Y-99158621D01*
%TO.C,J1*%
X142480000Y-87795599D02*
X142480000Y-86465599D01*
X143810000Y-87795599D02*
X142480000Y-87795599D01*
X145080000Y-87795599D02*
X157840000Y-87795599D01*
X145080000Y-87795599D02*
X145080000Y-85195599D01*
X157840000Y-87795599D02*
X157840000Y-82595599D01*
X142480000Y-85195599D02*
X142480000Y-82595599D01*
X145080000Y-85195599D02*
X142480000Y-85195599D01*
X142480000Y-82595599D02*
X157840000Y-82595599D01*
%TO.C,J5*%
X159170000Y-107138621D02*
X159170000Y-105988621D01*
X159170000Y-105988621D02*
X158120000Y-105988621D01*
X158120000Y-105988621D02*
X158120000Y-104998621D01*
X158000000Y-109108621D02*
X154120000Y-109108621D01*
X152950000Y-107138621D02*
X152950000Y-105988621D01*
X152950000Y-105988621D02*
X154000000Y-105988621D01*
%TO.C,C3*%
X136020000Y-99438621D02*
X134100000Y-99438621D01*
X134100000Y-99438621D02*
X134100000Y-102298621D01*
X136020000Y-102298621D02*
X136020000Y-99438621D01*
%TO.C,J8*%
X152950000Y-93258621D02*
X152950000Y-94408621D01*
X152950000Y-94408621D02*
X154000000Y-94408621D01*
X154000000Y-94408621D02*
X154000000Y-95398621D01*
X154120000Y-91288621D02*
X158000000Y-91288621D01*
X159170000Y-93258621D02*
X159170000Y-94408621D01*
X159170000Y-94408621D02*
X158120000Y-94408621D01*
%TO.C,C1*%
X147170000Y-90358621D02*
X147170000Y-88438621D01*
X147170000Y-88438621D02*
X144310000Y-88438621D01*
X144310000Y-90358621D02*
X147170000Y-90358621D01*
%TO.C,J6*%
X137150000Y-93258621D02*
X137150000Y-94408621D01*
X137150000Y-94408621D02*
X138200000Y-94408621D01*
X138200000Y-94408621D02*
X138200000Y-95398621D01*
X138320000Y-91288621D02*
X142200000Y-91288621D01*
X143370000Y-93258621D02*
X143370000Y-94408621D01*
X143370000Y-94408621D02*
X142320000Y-94408621D01*
%TO.C,J2*%
X157840000Y-112413621D02*
X157840000Y-113743621D01*
X156510000Y-112413621D02*
X157840000Y-112413621D01*
X155240000Y-112413621D02*
X142480000Y-112413621D01*
X155240000Y-112413621D02*
X155240000Y-115013621D01*
X142480000Y-112413621D02*
X142480000Y-117613621D01*
X157840000Y-115013621D02*
X157840000Y-117613621D01*
X155240000Y-115013621D02*
X157840000Y-115013621D01*
X157840000Y-117613621D02*
X142480000Y-117613621D01*
%TO.C,Q1*%
X140260000Y-104358621D02*
X141935000Y-104358621D01*
X140260000Y-104358621D02*
X139610000Y-104358621D01*
X140260000Y-101238621D02*
X140910000Y-101238621D01*
X140260000Y-101238621D02*
X139610000Y-101238621D01*
%TO.C,J9*%
X133520000Y-103336121D02*
X132460000Y-103336121D01*
X133520000Y-102276121D02*
X133520000Y-103336121D01*
X133520000Y-101276121D02*
X133520000Y-99216121D01*
X133520000Y-101276121D02*
X131400000Y-101276121D01*
X133520000Y-99216121D02*
X131400000Y-99216121D01*
X131400000Y-101276121D02*
X131400000Y-99216121D01*
%TO.C,U1*%
X164360000Y-97363621D02*
X160760000Y-97363621D01*
X164360000Y-97363621D02*
X166560000Y-97363621D01*
X164360000Y-102833621D02*
X162160000Y-102833621D01*
X164360000Y-102833621D02*
X166560000Y-102833621D01*
%TO.C,Q6*%
X156047500Y-96038621D02*
X154372500Y-96038621D01*
X156047500Y-96038621D02*
X156697500Y-96038621D01*
X156047500Y-99158621D02*
X155397500Y-99158621D01*
X156047500Y-99158621D02*
X156697500Y-99158621D01*
%TO.C,J4*%
X151270000Y-107138621D02*
X151270000Y-105988621D01*
X151270000Y-105988621D02*
X150220000Y-105988621D01*
X150220000Y-105988621D02*
X150220000Y-104998621D01*
X150100000Y-109108621D02*
X146220000Y-109108621D01*
X145050000Y-107138621D02*
X145050000Y-105988621D01*
X145050000Y-105988621D02*
X146100000Y-105988621D01*
%TO.C,J7*%
X145050000Y-93258621D02*
X145050000Y-94408621D01*
X145050000Y-94408621D02*
X146100000Y-94408621D01*
X146100000Y-94408621D02*
X146100000Y-95398621D01*
X146220000Y-91288621D02*
X150100000Y-91288621D01*
X151270000Y-93258621D02*
X151270000Y-94408621D01*
X151270000Y-94408621D02*
X150220000Y-94408621D01*
%TO.C,Q2*%
X148160000Y-104358621D02*
X149835000Y-104358621D01*
X148160000Y-104358621D02*
X147510000Y-104358621D01*
X148160000Y-101238621D02*
X148810000Y-101238621D01*
X148160000Y-101238621D02*
X147510000Y-101238621D01*
%TD*%
M02*
