%TF.GenerationSoftware,KiCad,Pcbnew,7.0.5*%
%TF.CreationDate,2023-06-05T00:45:25-04:00*%
%TF.ProjectId,BURNING_R,4255524e-494e-4475-9f52-2e6b69636164,rev?*%
%TF.SameCoordinates,Original*%
%TF.FileFunction,Copper,L2,Bot*%
%TF.FilePolarity,Positive*%
%FSLAX46Y46*%
G04 Gerber Fmt 4.6, Leading zero omitted, Abs format (unit mm)*
G04 Created by KiCad (PCBNEW 7.0.5) date 2023-06-05 00:45:25*
%MOMM*%
%LPD*%
G01*
G04 APERTURE LIST*
G04 Aperture macros list*
%AMRoundRect*
0 Rectangle with rounded corners*
0 $1 Rounding radius*
0 $2 $3 $4 $5 $6 $7 $8 $9 X,Y pos of 4 corners*
0 Add a 4 corners polygon primitive as box body*
4,1,4,$2,$3,$4,$5,$6,$7,$8,$9,$2,$3,0*
0 Add four circle primitives for the rounded corners*
1,1,$1+$1,$2,$3*
1,1,$1+$1,$4,$5*
1,1,$1+$1,$6,$7*
1,1,$1+$1,$8,$9*
0 Add four rect primitives between the rounded corners*
20,1,$1+$1,$2,$3,$4,$5,0*
20,1,$1+$1,$4,$5,$6,$7,0*
20,1,$1+$1,$6,$7,$8,$9,0*
20,1,$1+$1,$8,$9,$2,$3,0*%
G04 Aperture macros list end*
%TA.AperFunction,ComponentPad*%
%ADD10R,1.700000X1.700000*%
%TD*%
%TA.AperFunction,ComponentPad*%
%ADD11O,1.700000X1.700000*%
%TD*%
%TA.AperFunction,ComponentPad*%
%ADD12R,1.350000X1.350000*%
%TD*%
%TA.AperFunction,ComponentPad*%
%ADD13O,1.350000X1.350000*%
%TD*%
%TA.AperFunction,SMDPad,CuDef*%
%ADD14RoundRect,0.160000X-0.197500X-0.160000X0.197500X-0.160000X0.197500X0.160000X-0.197500X0.160000X0*%
%TD*%
%TA.AperFunction,SMDPad,CuDef*%
%ADD15RoundRect,0.160000X0.197500X0.160000X-0.197500X0.160000X-0.197500X-0.160000X0.197500X-0.160000X0*%
%TD*%
%TA.AperFunction,SMDPad,CuDef*%
%ADD16RoundRect,0.237500X0.250000X0.237500X-0.250000X0.237500X-0.250000X-0.237500X0.250000X-0.237500X0*%
%TD*%
%TA.AperFunction,SMDPad,CuDef*%
%ADD17RoundRect,0.155000X0.212500X0.155000X-0.212500X0.155000X-0.212500X-0.155000X0.212500X-0.155000X0*%
%TD*%
%TA.AperFunction,SMDPad,CuDef*%
%ADD18RoundRect,0.237500X-0.250000X-0.237500X0.250000X-0.237500X0.250000X0.237500X-0.250000X0.237500X0*%
%TD*%
%TA.AperFunction,SMDPad,CuDef*%
%ADD19RoundRect,0.150000X0.150000X-0.512500X0.150000X0.512500X-0.150000X0.512500X-0.150000X-0.512500X0*%
%TD*%
%TA.AperFunction,ViaPad*%
%ADD20C,0.660400*%
%TD*%
%TA.AperFunction,Conductor*%
%ADD21C,0.381000*%
%TD*%
%TA.AperFunction,Conductor*%
%ADD22C,0.152400*%
%TD*%
G04 APERTURE END LIST*
D10*
%TO.P,J1,1,Pin_1*%
%TO.N,/VBAT*%
X143810000Y-86465599D03*
D11*
%TO.P,J1,2,Pin_2*%
%TO.N,/~{EN}*%
X143810000Y-83925599D03*
%TO.P,J1,3,Pin_3*%
%TO.N,VCC*%
X146350000Y-86465599D03*
%TO.P,J1,4,Pin_4*%
%TO.N,/VBAT_OK*%
X146350000Y-83925599D03*
%TO.P,J1,5,Pin_5*%
%TO.N,/~{I2C_RESET}*%
X148890000Y-86465599D03*
%TO.P,J1,6,Pin_6*%
%TO.N,+5V*%
X148890000Y-83925599D03*
%TO.P,J1,7,Pin_7*%
%TO.N,/RXD*%
X151430000Y-86465599D03*
%TO.P,J1,8,Pin_8*%
%TO.N,GND*%
X151430000Y-83925599D03*
%TO.P,J1,9,Pin_9*%
%TO.N,/TXD*%
X153970000Y-86465599D03*
%TO.P,J1,10,Pin_10*%
%TO.N,GND*%
X153970000Y-83925599D03*
%TO.P,J1,11,Pin_11*%
%TO.N,/SDA*%
X156510000Y-86465599D03*
%TO.P,J1,12,Pin_12*%
%TO.N,/SCL*%
X156510000Y-83925599D03*
%TD*%
D10*
%TO.P,J2,1,Pin_1*%
%TO.N,/P1*%
X156510000Y-113743621D03*
D11*
%TO.P,J2,2,Pin_2*%
%TO.N,unconnected-(J2-Pin_2-Pad2)*%
X156510000Y-116283621D03*
%TO.P,J2,3,Pin_3*%
%TO.N,/P2*%
X153970000Y-113743621D03*
%TO.P,J2,4,Pin_4*%
%TO.N,unconnected-(J2-Pin_4-Pad4)*%
X153970000Y-116283621D03*
%TO.P,J2,5,Pin_5*%
%TO.N,unconnected-(J2-Pin_5-Pad5)*%
X151430000Y-113743621D03*
%TO.P,J2,6,Pin_6*%
%TO.N,unconnected-(J2-Pin_6-Pad6)*%
X151430000Y-116283621D03*
%TO.P,J2,7,Pin_7*%
%TO.N,unconnected-(J2-Pin_7-Pad7)*%
X148890000Y-113743621D03*
%TO.P,J2,8,Pin_8*%
%TO.N,unconnected-(J2-Pin_8-Pad8)*%
X148890000Y-116283621D03*
%TO.P,J2,9,Pin_9*%
%TO.N,unconnected-(J2-Pin_9-Pad9)*%
X146350000Y-113743621D03*
%TO.P,J2,10,Pin_10*%
%TO.N,GND*%
X146350000Y-116283621D03*
%TO.P,J2,11,Pin_11*%
%TO.N,/BAT_BR*%
X143810000Y-113743621D03*
%TO.P,J2,12,Pin_12*%
%TO.N,GND*%
X143810000Y-116283621D03*
%TD*%
D12*
%TO.P,J9,1,Pin_1*%
%TO.N,GND*%
X132460000Y-102276121D03*
D13*
%TO.P,J9,2,Pin_2*%
%TO.N,/BAT_BR*%
X132460000Y-100276121D03*
%TD*%
D14*
%TO.P,R4,1*%
%TO.N,VCC*%
X152662500Y-89398621D03*
%TO.P,R4,2*%
%TO.N,/SCL*%
X153857500Y-89398621D03*
%TD*%
D15*
%TO.P,R9,1*%
%TO.N,/BR_3_EN*%
X156997500Y-101848621D03*
%TO.P,R9,2*%
%TO.N,GND*%
X155802500Y-101848621D03*
%TD*%
%TO.P,R8,1*%
%TO.N,/BR_4_EN*%
X139310000Y-98548621D03*
%TO.P,R8,2*%
%TO.N,GND*%
X138115000Y-98548621D03*
%TD*%
D14*
%TO.P,R5,1*%
%TO.N,VCC*%
X155362500Y-89398621D03*
%TO.P,R5,2*%
%TO.N,/SDA*%
X156557500Y-89398621D03*
%TD*%
D16*
%TO.P,R1,1*%
%TO.N,GND*%
X151952500Y-91198621D03*
%TO.P,R1,2*%
%TO.N,Net-(U2-PROG)*%
X150127500Y-91198621D03*
%TD*%
D17*
%TO.P,C4,1*%
%TO.N,+5V*%
X146607500Y-89618621D03*
%TO.P,C4,2*%
%TO.N,GND*%
X145472500Y-89618621D03*
%TD*%
D15*
%TO.P,R10,1*%
%TO.N,/BR_2_EN*%
X149097500Y-101848621D03*
%TO.P,R10,2*%
%TO.N,GND*%
X147902500Y-101848621D03*
%TD*%
%TO.P,R11,1*%
%TO.N,/BR_1_EN*%
X141197500Y-101848621D03*
%TO.P,R11,2*%
%TO.N,GND*%
X140002500Y-101848621D03*
%TD*%
D18*
%TO.P,R2,1*%
%TO.N,Net-(U2-STAT)*%
X150127500Y-93488621D03*
%TO.P,R2,2*%
%TO.N,Net-(D1-K)*%
X151952500Y-93488621D03*
%TD*%
D19*
%TO.P,U2,1,STAT*%
%TO.N,Net-(U2-STAT)*%
X148500000Y-93486121D03*
%TO.P,U2,2,VSS*%
%TO.N,GND*%
X147550000Y-93486121D03*
%TO.P,U2,3,VBAT*%
%TO.N,/BAT_BR*%
X146600000Y-93486121D03*
%TO.P,U2,4,VDD*%
%TO.N,+5V*%
X146600000Y-91211121D03*
%TO.P,U2,5,PROG*%
%TO.N,Net-(U2-PROG)*%
X148500000Y-91211121D03*
%TD*%
D15*
%TO.P,R7,1*%
%TO.N,/BR_5_EN*%
X147210000Y-98548621D03*
%TO.P,R7,2*%
%TO.N,GND*%
X146015000Y-98548621D03*
%TD*%
%TO.P,R6,1*%
%TO.N,/BR_6_EN*%
X155110000Y-98548621D03*
%TO.P,R6,2*%
%TO.N,GND*%
X153915000Y-98548621D03*
%TD*%
D20*
%TO.N,GND*%
X134160000Y-109198621D03*
X144160000Y-105198621D03*
X140160000Y-85198621D03*
X134160000Y-111198621D03*
X134160000Y-91198621D03*
X152160000Y-118198621D03*
X162160000Y-87198621D03*
X164160000Y-109198621D03*
X150160000Y-82198621D03*
X148160000Y-111198621D03*
X150160000Y-111198621D03*
X140160000Y-89198621D03*
X136160000Y-89198621D03*
X142160000Y-89198621D03*
X138160000Y-85198621D03*
X138160000Y-89198621D03*
X166160000Y-89198621D03*
X151160000Y-98698621D03*
X140160000Y-111198621D03*
X152160000Y-111198621D03*
X136160000Y-113198621D03*
X148160000Y-120198621D03*
X144160000Y-107198621D03*
X140160000Y-91198621D03*
X132160000Y-95198621D03*
X152160000Y-120198621D03*
X138160000Y-87198621D03*
X146160000Y-82198621D03*
X140160000Y-109198621D03*
X134160000Y-107198621D03*
X146160000Y-118198621D03*
X156160000Y-82198621D03*
X162160000Y-105198621D03*
X134160000Y-87198621D03*
X134160000Y-93198621D03*
X152160000Y-107198621D03*
X136160000Y-93198621D03*
X138160000Y-111198621D03*
X154160000Y-82198621D03*
X162160000Y-111198621D03*
X152160000Y-105198621D03*
X132160000Y-97198621D03*
X136160000Y-105198621D03*
X162160000Y-113198621D03*
X134160000Y-105198621D03*
X136160000Y-111198621D03*
X146160000Y-111198621D03*
X136160000Y-87198621D03*
X134160000Y-95198621D03*
X142160000Y-87198621D03*
X154160000Y-118198621D03*
X164160000Y-111198621D03*
X148160000Y-82198621D03*
X134160000Y-113198621D03*
X162160000Y-91198621D03*
X160160000Y-85198621D03*
X136160000Y-109198621D03*
X142160000Y-85198621D03*
X132160000Y-105198621D03*
X156160000Y-109198621D03*
X164160000Y-93198621D03*
X166160000Y-87198621D03*
X160160000Y-87198621D03*
X162160000Y-85198621D03*
X136160000Y-91198621D03*
X160160000Y-107198621D03*
X148160000Y-80198621D03*
X156160000Y-107198621D03*
X144160000Y-82198621D03*
X148160000Y-118198621D03*
X156160000Y-118198621D03*
X138160000Y-115198621D03*
X143160000Y-98698621D03*
X164160000Y-95198621D03*
X155160000Y-91198621D03*
X164160000Y-87198621D03*
X168160000Y-93198621D03*
X162160000Y-115198621D03*
X136160000Y-107198621D03*
X134160000Y-89198621D03*
X168160000Y-107198621D03*
X162160000Y-93198621D03*
X134160000Y-97198621D03*
X132160000Y-93198621D03*
X138160000Y-113198621D03*
X164160000Y-113198621D03*
X160160000Y-115198621D03*
X152160000Y-82198621D03*
X150160000Y-118198621D03*
X140160000Y-113198621D03*
X166160000Y-91198621D03*
X144160000Y-118198621D03*
X164160000Y-89198621D03*
X152160000Y-80198621D03*
X144160000Y-111198621D03*
X140160000Y-87198621D03*
X140160000Y-115198621D03*
X143160000Y-102198621D03*
X160160000Y-91198621D03*
X151160000Y-102198621D03*
X160160000Y-105198621D03*
X148160000Y-109198621D03*
X160160000Y-113198621D03*
X132160000Y-107198621D03*
X136160000Y-95198621D03*
%TO.N,VCC*%
X155360000Y-89398621D03*
X152660000Y-89398621D03*
%TO.N,/SDA*%
X165685000Y-98473621D03*
%TO.N,/SCL*%
X164085000Y-98698621D03*
%TO.N,/BR_1_EN*%
X141220000Y-101848621D03*
X163760000Y-103973621D03*
%TO.N,/BR_2_EN*%
X149110000Y-101858621D03*
X165485000Y-103373621D03*
%TO.N,/BR_3_EN*%
X163010000Y-101898621D03*
X157000000Y-101828621D03*
%TO.N,/BR_4_EN*%
X163035000Y-99773621D03*
X139317500Y-98548621D03*
%TO.N,/BR_5_EN*%
X147207500Y-98548621D03*
X163860000Y-100223621D03*
%TO.N,/BR_6_EN*%
X155117500Y-98548621D03*
X163785000Y-101248621D03*
%TO.N,/P1*%
X168630000Y-101438621D03*
%TO.N,/P2*%
X165550000Y-100898621D03*
%TO.N,Net-(D1-K)*%
X150610000Y-89338621D03*
%TD*%
D21*
%TO.N,+5V*%
X146607500Y-89618621D02*
X146607500Y-91203621D01*
X146607500Y-89618621D02*
X147580000Y-88646121D01*
X147580000Y-85235599D02*
X148890000Y-83925599D01*
X147580000Y-88646121D02*
X147580000Y-85235599D01*
X146607500Y-91203621D02*
X146600000Y-91211121D01*
D22*
%TO.N,/SDA*%
X165632500Y-98473621D02*
X156557500Y-89398621D01*
X165685000Y-98473621D02*
X165632500Y-98473621D01*
X156557500Y-89398621D02*
X156510000Y-89351121D01*
X156510000Y-89351121D02*
X156510000Y-86465599D01*
%TO.N,/SCL*%
X153857500Y-89398621D02*
X155235000Y-88021121D01*
X154360000Y-90473621D02*
X153857500Y-89971121D01*
X164085000Y-98698621D02*
X155860000Y-90473621D01*
X155235000Y-85200599D02*
X156510000Y-83925599D01*
X155860000Y-90473621D02*
X154360000Y-90473621D01*
X153857500Y-89971121D02*
X153857500Y-89398621D01*
X155235000Y-88021121D02*
X155235000Y-85200599D01*
D21*
%TO.N,/BAT_BR*%
X135257500Y-100276121D02*
X142180000Y-107198621D01*
X142180000Y-112113621D02*
X143810000Y-113743621D01*
X135257500Y-98798621D02*
X140570000Y-93486121D01*
X146600000Y-93486121D02*
X140570000Y-93486121D01*
X135257500Y-100276121D02*
X135257500Y-98798621D01*
X142180000Y-107198621D02*
X142180000Y-112113621D01*
X132460000Y-100276121D02*
X135257500Y-100276121D01*
D22*
%TO.N,/BR_1_EN*%
X163555000Y-103768621D02*
X163760000Y-103973621D01*
X143140000Y-103768621D02*
X163555000Y-103768621D01*
X141220000Y-101848621D02*
X143140000Y-103768621D01*
%TO.N,/BR_2_EN*%
X165485000Y-103373621D02*
X150625000Y-103373621D01*
X150625000Y-103373621D02*
X149110000Y-101858621D01*
%TO.N,/BR_3_EN*%
X163010000Y-101898621D02*
X157047500Y-101898621D01*
X157047500Y-101898621D02*
X156997500Y-101848621D01*
%TO.N,/BR_4_EN*%
X163035000Y-99773621D02*
X162665000Y-99773621D01*
X162665000Y-99773621D02*
X159870000Y-96978621D01*
X140887500Y-96978621D02*
X139317500Y-98548621D01*
X159870000Y-96978621D02*
X140887500Y-96978621D01*
%TO.N,/BR_5_EN*%
X163763900Y-100319721D02*
X163860000Y-100223621D01*
X147210000Y-98548621D02*
X148450000Y-97308621D01*
X159750000Y-97308621D02*
X162761100Y-100319721D01*
X148450000Y-97308621D02*
X159750000Y-97308621D01*
X162761100Y-100319721D02*
X163763900Y-100319721D01*
%TO.N,/BR_6_EN*%
X155110000Y-98548621D02*
X155980000Y-97678621D01*
X159600000Y-97678621D02*
X163170000Y-101248621D01*
X155980000Y-97678621D02*
X159600000Y-97678621D01*
X163170000Y-101248621D02*
X163785000Y-101248621D01*
%TO.N,/P1*%
X157775000Y-113743621D02*
X168630000Y-102888621D01*
X156510000Y-113743621D02*
X157775000Y-113743621D01*
X168630000Y-102888621D02*
X168630000Y-101438621D01*
%TO.N,/P2*%
X158530000Y-112318621D02*
X166780000Y-104068621D01*
X166780000Y-104068621D02*
X166780000Y-102818621D01*
X155395000Y-112318621D02*
X158530000Y-112318621D01*
X165550000Y-101588621D02*
X165550000Y-100898621D01*
X166780000Y-102818621D02*
X165550000Y-101588621D01*
X153970000Y-113743621D02*
X155395000Y-112318621D01*
%TO.N,Net-(D1-K)*%
X151952500Y-93488621D02*
X151040000Y-92576121D01*
X151040000Y-89768621D02*
X150610000Y-89338621D01*
X151040000Y-92576121D02*
X151040000Y-89768621D01*
%TO.N,Net-(U2-PROG)*%
X150115000Y-91211121D02*
X150127500Y-91198621D01*
X148500000Y-91211121D02*
X150115000Y-91211121D01*
%TO.N,Net-(U2-STAT)*%
X150125000Y-93486121D02*
X150127500Y-93488621D01*
X148500000Y-93486121D02*
X150125000Y-93486121D01*
%TD*%
%TA.AperFunction,Conductor*%
%TO.N,GND*%
G36*
X150203946Y-77388502D02*
G01*
X169810750Y-88708494D01*
X169849399Y-88754554D01*
X169854700Y-88784618D01*
X169854700Y-111424599D01*
X169834135Y-111481100D01*
X169810750Y-111500723D01*
X150203949Y-122820715D01*
X150144735Y-122831156D01*
X150116049Y-122820715D01*
X149138254Y-122256185D01*
X146770601Y-120889220D01*
X148749884Y-120889220D01*
X148769115Y-121121316D01*
X148769116Y-121121322D01*
X148826286Y-121347080D01*
X148826289Y-121347088D01*
X148897987Y-121510541D01*
X148919840Y-121560361D01*
X148919844Y-121560367D01*
X149047215Y-121755325D01*
X149047216Y-121755327D01*
X149047220Y-121755331D01*
X149204954Y-121926676D01*
X149388740Y-122069722D01*
X149593563Y-122180567D01*
X149813837Y-122256187D01*
X149813839Y-122256187D01*
X149813841Y-122256188D01*
X150043550Y-122294520D01*
X150043554Y-122294520D01*
X150276450Y-122294520D01*
X150506158Y-122256188D01*
X150506158Y-122256187D01*
X150506163Y-122256187D01*
X150726437Y-122180567D01*
X150931260Y-122069722D01*
X151115046Y-121926676D01*
X151272780Y-121755331D01*
X151400160Y-121560361D01*
X151493712Y-121347084D01*
X151550884Y-121121317D01*
X151570116Y-120889220D01*
X151550884Y-120657123D01*
X151550883Y-120657117D01*
X151493713Y-120431359D01*
X151493710Y-120431351D01*
X151400164Y-120218089D01*
X151400160Y-120218079D01*
X151319435Y-120094520D01*
X151272784Y-120023114D01*
X151272783Y-120023112D01*
X151115050Y-119851768D01*
X151115048Y-119851767D01*
X151115046Y-119851764D01*
X150931260Y-119708718D01*
X150726437Y-119597873D01*
X150726433Y-119597871D01*
X150726430Y-119597870D01*
X150506167Y-119522254D01*
X150506158Y-119522251D01*
X150276450Y-119483920D01*
X150276446Y-119483920D01*
X150043554Y-119483920D01*
X150043550Y-119483920D01*
X149813841Y-119522251D01*
X149813832Y-119522254D01*
X149593569Y-119597870D01*
X149388740Y-119708718D01*
X149204949Y-119851768D01*
X149047216Y-120023112D01*
X149047215Y-120023114D01*
X148919844Y-120218072D01*
X148919835Y-120218089D01*
X148826289Y-120431351D01*
X148826286Y-120431359D01*
X148769116Y-120657117D01*
X148769115Y-120657123D01*
X148749884Y-120889220D01*
X146770601Y-120889220D01*
X139013441Y-116410621D01*
X142789735Y-116410621D01*
X142797072Y-116485109D01*
X142855842Y-116678846D01*
X142855844Y-116678849D01*
X142951281Y-116857399D01*
X143079717Y-117013899D01*
X143079721Y-117013903D01*
X143236221Y-117142339D01*
X143414771Y-117237776D01*
X143414774Y-117237778D01*
X143608515Y-117296550D01*
X143683000Y-117303884D01*
X143683000Y-116770502D01*
X143774237Y-116783621D01*
X143845763Y-116783621D01*
X143937000Y-116770502D01*
X143937000Y-117303884D01*
X144011484Y-117296550D01*
X144205225Y-117237778D01*
X144205228Y-117237776D01*
X144383778Y-117142339D01*
X144540278Y-117013903D01*
X144540282Y-117013899D01*
X144668718Y-116857399D01*
X144764155Y-116678849D01*
X144764157Y-116678846D01*
X144822927Y-116485109D01*
X144830265Y-116410621D01*
X145329735Y-116410621D01*
X145337072Y-116485109D01*
X145395842Y-116678846D01*
X145395844Y-116678849D01*
X145491281Y-116857399D01*
X145619717Y-117013899D01*
X145619721Y-117013903D01*
X145776221Y-117142339D01*
X145954771Y-117237776D01*
X145954774Y-117237778D01*
X146148515Y-117296550D01*
X146223000Y-117303884D01*
X146223000Y-116770502D01*
X146314237Y-116783621D01*
X146385763Y-116783621D01*
X146477000Y-116770502D01*
X146477000Y-117303884D01*
X146551484Y-117296550D01*
X146745225Y-117237778D01*
X146745228Y-117237776D01*
X146923778Y-117142339D01*
X147080278Y-117013903D01*
X147080282Y-117013899D01*
X147208718Y-116857399D01*
X147304155Y-116678849D01*
X147304157Y-116678846D01*
X147362927Y-116485109D01*
X147370265Y-116410621D01*
X146833818Y-116410621D01*
X146850000Y-116355510D01*
X146850000Y-116283621D01*
X147882247Y-116283621D01*
X147901612Y-116480230D01*
X147958957Y-116669269D01*
X147958958Y-116669271D01*
X148052084Y-116843499D01*
X148177411Y-116996210D01*
X148330122Y-117121537D01*
X148504350Y-117214663D01*
X148693397Y-117272010D01*
X148890000Y-117291374D01*
X149086603Y-117272010D01*
X149275650Y-117214663D01*
X149449878Y-117121537D01*
X149602589Y-116996210D01*
X149727916Y-116843499D01*
X149821042Y-116669271D01*
X149878389Y-116480224D01*
X149897753Y-116283621D01*
X150422247Y-116283621D01*
X150441612Y-116480230D01*
X150498957Y-116669269D01*
X150498958Y-116669271D01*
X150592084Y-116843499D01*
X150717411Y-116996210D01*
X150870122Y-117121537D01*
X151044350Y-117214663D01*
X151233397Y-117272010D01*
X151430000Y-117291374D01*
X151626603Y-117272010D01*
X151815650Y-117214663D01*
X151989878Y-117121537D01*
X152142589Y-116996210D01*
X152267916Y-116843499D01*
X152361042Y-116669271D01*
X152418389Y-116480224D01*
X152437753Y-116283621D01*
X152962247Y-116283621D01*
X152981612Y-116480230D01*
X153038957Y-116669269D01*
X153038958Y-116669271D01*
X153132084Y-116843499D01*
X153257411Y-116996210D01*
X153410122Y-117121537D01*
X153584350Y-117214663D01*
X153773397Y-117272010D01*
X153970000Y-117291374D01*
X154166603Y-117272010D01*
X154355650Y-117214663D01*
X154529878Y-117121537D01*
X154682589Y-116996210D01*
X154807916Y-116843499D01*
X154901042Y-116669271D01*
X154958389Y-116480224D01*
X154977753Y-116283621D01*
X155502247Y-116283621D01*
X155521612Y-116480230D01*
X155578957Y-116669269D01*
X155578958Y-116669271D01*
X155672084Y-116843499D01*
X155797411Y-116996210D01*
X155950122Y-117121537D01*
X156124350Y-117214663D01*
X156313397Y-117272010D01*
X156510000Y-117291374D01*
X156706603Y-117272010D01*
X156895650Y-117214663D01*
X157069878Y-117121537D01*
X157222589Y-116996210D01*
X157347916Y-116843499D01*
X157441042Y-116669271D01*
X157498389Y-116480224D01*
X157517753Y-116283621D01*
X157498389Y-116087018D01*
X157441042Y-115897971D01*
X157347916Y-115723743D01*
X157222589Y-115571032D01*
X157069878Y-115445705D01*
X156895650Y-115352579D01*
X156895649Y-115352578D01*
X156895648Y-115352578D01*
X156706609Y-115295233D01*
X156706604Y-115295232D01*
X156706603Y-115295232D01*
X156510000Y-115275868D01*
X156509999Y-115275868D01*
X156462657Y-115280530D01*
X156313397Y-115295232D01*
X156313395Y-115295232D01*
X156313390Y-115295233D01*
X156124351Y-115352578D01*
X155950121Y-115445705D01*
X155797413Y-115571030D01*
X155797409Y-115571034D01*
X155672084Y-115723742D01*
X155578957Y-115897972D01*
X155521612Y-116087011D01*
X155502247Y-116283621D01*
X154977753Y-116283621D01*
X154958389Y-116087018D01*
X154901042Y-115897971D01*
X154807916Y-115723743D01*
X154682589Y-115571032D01*
X154529878Y-115445705D01*
X154355650Y-115352579D01*
X154355649Y-115352578D01*
X154355648Y-115352578D01*
X154166609Y-115295233D01*
X154166604Y-115295232D01*
X154166603Y-115295232D01*
X153970000Y-115275868D01*
X153773397Y-115295232D01*
X153773395Y-115295232D01*
X153773390Y-115295233D01*
X153584351Y-115352578D01*
X153410121Y-115445705D01*
X153257413Y-115571030D01*
X153257409Y-115571034D01*
X153132084Y-115723742D01*
X153038957Y-115897972D01*
X152981612Y-116087011D01*
X152962247Y-116283621D01*
X152437753Y-116283621D01*
X152418389Y-116087018D01*
X152361042Y-115897971D01*
X152267916Y-115723743D01*
X152142589Y-115571032D01*
X151989878Y-115445705D01*
X151815650Y-115352579D01*
X151815649Y-115352578D01*
X151815648Y-115352578D01*
X151626609Y-115295233D01*
X151626604Y-115295232D01*
X151626603Y-115295232D01*
X151430000Y-115275868D01*
X151429999Y-115275868D01*
X151382657Y-115280530D01*
X151233397Y-115295232D01*
X151233395Y-115295232D01*
X151233390Y-115295233D01*
X151044351Y-115352578D01*
X150870121Y-115445705D01*
X150717413Y-115571030D01*
X150717409Y-115571034D01*
X150592084Y-115723742D01*
X150498957Y-115897972D01*
X150441612Y-116087011D01*
X150422247Y-116283621D01*
X149897753Y-116283621D01*
X149878389Y-116087018D01*
X149821042Y-115897971D01*
X149727916Y-115723743D01*
X149602589Y-115571032D01*
X149449878Y-115445705D01*
X149275650Y-115352579D01*
X149275649Y-115352578D01*
X149275648Y-115352578D01*
X149086609Y-115295233D01*
X149086604Y-115295232D01*
X149086603Y-115295232D01*
X148890000Y-115275868D01*
X148889999Y-115275868D01*
X148842657Y-115280530D01*
X148693397Y-115295232D01*
X148693395Y-115295232D01*
X148693390Y-115295233D01*
X148504351Y-115352578D01*
X148330121Y-115445705D01*
X148177413Y-115571030D01*
X148177409Y-115571034D01*
X148052084Y-115723742D01*
X147958957Y-115897972D01*
X147901612Y-116087011D01*
X147882247Y-116283621D01*
X146850000Y-116283621D01*
X146850000Y-116211732D01*
X146833818Y-116156621D01*
X147370264Y-116156621D01*
X147362927Y-116082132D01*
X147304157Y-115888395D01*
X147304155Y-115888392D01*
X147208718Y-115709842D01*
X147080282Y-115553342D01*
X147080278Y-115553338D01*
X146923778Y-115424902D01*
X146745228Y-115329465D01*
X146745225Y-115329463D01*
X146551488Y-115270693D01*
X146477000Y-115263356D01*
X146477000Y-115796739D01*
X146385763Y-115783621D01*
X146314237Y-115783621D01*
X146223000Y-115796739D01*
X146223000Y-115263356D01*
X146148511Y-115270693D01*
X145954774Y-115329463D01*
X145954771Y-115329465D01*
X145776221Y-115424902D01*
X145619721Y-115553338D01*
X145619717Y-115553342D01*
X145491281Y-115709842D01*
X145395844Y-115888392D01*
X145395842Y-115888395D01*
X145337072Y-116082132D01*
X145329735Y-116156621D01*
X145866182Y-116156621D01*
X145850000Y-116211732D01*
X145850000Y-116355510D01*
X145866182Y-116410621D01*
X145329735Y-116410621D01*
X144830265Y-116410621D01*
X144293818Y-116410621D01*
X144310000Y-116355510D01*
X144310000Y-116211732D01*
X144293818Y-116156621D01*
X144830264Y-116156621D01*
X144822927Y-116082132D01*
X144764157Y-115888395D01*
X144764155Y-115888392D01*
X144668718Y-115709842D01*
X144540282Y-115553342D01*
X144540278Y-115553338D01*
X144383778Y-115424902D01*
X144205228Y-115329465D01*
X144205225Y-115329463D01*
X144011488Y-115270693D01*
X143937000Y-115263356D01*
X143937000Y-115796739D01*
X143845763Y-115783621D01*
X143774237Y-115783621D01*
X143683000Y-115796739D01*
X143683000Y-115263356D01*
X143608511Y-115270693D01*
X143414774Y-115329463D01*
X143414771Y-115329465D01*
X143236221Y-115424902D01*
X143079721Y-115553338D01*
X143079717Y-115553342D01*
X142951281Y-115709842D01*
X142855844Y-115888392D01*
X142855842Y-115888395D01*
X142797072Y-116082132D01*
X142789735Y-116156621D01*
X143326182Y-116156621D01*
X143310000Y-116211732D01*
X143310000Y-116355510D01*
X143326182Y-116410621D01*
X142789735Y-116410621D01*
X139013441Y-116410621D01*
X130509248Y-111500723D01*
X130470600Y-111454664D01*
X130465300Y-111424605D01*
X130465300Y-110496915D01*
X130749884Y-110496915D01*
X130769115Y-110729011D01*
X130769116Y-110729017D01*
X130826286Y-110954775D01*
X130826289Y-110954783D01*
X130897987Y-111118236D01*
X130919840Y-111168056D01*
X130919844Y-111168062D01*
X131047215Y-111363020D01*
X131047216Y-111363022D01*
X131173979Y-111500724D01*
X131204954Y-111534371D01*
X131388740Y-111677417D01*
X131593563Y-111788262D01*
X131813837Y-111863882D01*
X131813839Y-111863882D01*
X131813841Y-111863883D01*
X132043550Y-111902215D01*
X132043554Y-111902215D01*
X132276450Y-111902215D01*
X132506158Y-111863883D01*
X132506158Y-111863882D01*
X132506163Y-111863882D01*
X132726437Y-111788262D01*
X132931260Y-111677417D01*
X133115046Y-111534371D01*
X133272780Y-111363026D01*
X133400160Y-111168056D01*
X133493712Y-110954779D01*
X133550884Y-110729012D01*
X133570116Y-110496915D01*
X133550884Y-110264818D01*
X133550883Y-110264812D01*
X133493713Y-110039054D01*
X133493710Y-110039046D01*
X133400164Y-109825784D01*
X133400160Y-109825774D01*
X133319435Y-109702215D01*
X133272784Y-109630809D01*
X133272783Y-109630807D01*
X133115050Y-109459463D01*
X133115048Y-109459462D01*
X133115046Y-109459459D01*
X132931260Y-109316413D01*
X132726437Y-109205568D01*
X132726433Y-109205566D01*
X132726430Y-109205565D01*
X132506167Y-109129949D01*
X132506158Y-109129946D01*
X132276450Y-109091615D01*
X132276446Y-109091615D01*
X132043554Y-109091615D01*
X132043550Y-109091615D01*
X131813841Y-109129946D01*
X131813832Y-109129949D01*
X131593569Y-109205565D01*
X131388740Y-109316413D01*
X131204949Y-109459463D01*
X131047216Y-109630807D01*
X131047215Y-109630809D01*
X130919844Y-109825767D01*
X130919835Y-109825784D01*
X130826289Y-110039046D01*
X130826286Y-110039054D01*
X130769116Y-110264812D01*
X130769115Y-110264818D01*
X130749884Y-110496915D01*
X130465300Y-110496915D01*
X130465300Y-102149120D01*
X131607200Y-102149120D01*
X131607201Y-102149121D01*
X132075779Y-102149121D01*
X132074835Y-102150973D01*
X132055014Y-102276121D01*
X132074835Y-102401269D01*
X132075779Y-102403121D01*
X131607201Y-102403121D01*
X131607201Y-102968629D01*
X131617516Y-103020496D01*
X131656811Y-103079303D01*
X131656817Y-103079309D01*
X131715624Y-103118604D01*
X131767486Y-103128920D01*
X132332998Y-103128920D01*
X132333000Y-103128918D01*
X132333000Y-102660342D01*
X132334852Y-102661286D01*
X132428519Y-102676121D01*
X132491481Y-102676121D01*
X132585148Y-102661286D01*
X132586999Y-102660342D01*
X132587000Y-103128919D01*
X132587001Y-103128920D01*
X133152509Y-103128920D01*
X133204375Y-103118604D01*
X133263182Y-103079309D01*
X133263188Y-103079303D01*
X133302483Y-103020496D01*
X133312800Y-102968633D01*
X133312800Y-102403122D01*
X133312799Y-102403121D01*
X132844221Y-102403121D01*
X132845165Y-102401269D01*
X132864986Y-102276121D01*
X132845165Y-102150973D01*
X132844221Y-102149121D01*
X133312798Y-102149121D01*
X133312798Y-102149120D01*
X133312799Y-101583612D01*
X133302483Y-101531745D01*
X133263188Y-101472938D01*
X133263182Y-101472932D01*
X133204375Y-101433637D01*
X133152513Y-101423321D01*
X132587001Y-101423321D01*
X132587000Y-101423322D01*
X132586999Y-101891899D01*
X132585148Y-101890956D01*
X132491481Y-101876121D01*
X132428519Y-101876121D01*
X132334852Y-101890956D01*
X132332999Y-101891899D01*
X132333000Y-101423322D01*
X132332999Y-101423321D01*
X131767486Y-101423321D01*
X131767484Y-101423322D01*
X131715628Y-101433635D01*
X131715624Y-101433637D01*
X131656817Y-101472932D01*
X131656811Y-101472938D01*
X131617516Y-101531745D01*
X131607200Y-101583608D01*
X131607200Y-102149120D01*
X130465300Y-102149120D01*
X130465300Y-100276125D01*
X131627540Y-100276125D01*
X131645729Y-100449193D01*
X131645731Y-100449199D01*
X131699510Y-100614713D01*
X131786526Y-100765429D01*
X131902976Y-100894759D01*
X132043770Y-100997053D01*
X132202756Y-101067838D01*
X132372984Y-101104021D01*
X132547016Y-101104021D01*
X132717244Y-101067838D01*
X132876230Y-100997053D01*
X133017024Y-100894759D01*
X133133474Y-100765429D01*
X133192339Y-100663470D01*
X133238399Y-100624822D01*
X133268463Y-100619521D01*
X135078849Y-100619521D01*
X135135350Y-100640086D01*
X135141004Y-100645266D01*
X141810855Y-107315117D01*
X141836266Y-107369611D01*
X141836600Y-107377272D01*
X141836600Y-112096721D01*
X141836433Y-112100535D01*
X141835121Y-112115546D01*
X141832629Y-112144010D01*
X141832629Y-112144012D01*
X141843922Y-112186159D01*
X141844752Y-112189902D01*
X141852331Y-112232882D01*
X141854216Y-112236146D01*
X141862995Y-112257338D01*
X141863973Y-112260989D01*
X141889003Y-112296734D01*
X141891064Y-112299969D01*
X141912884Y-112337760D01*
X141946298Y-112365798D01*
X141949126Y-112368389D01*
X142855610Y-113274872D01*
X142881021Y-113329366D01*
X142877570Y-113362543D01*
X142821612Y-113547011D01*
X142821611Y-113547016D01*
X142821611Y-113547018D01*
X142802247Y-113743621D01*
X142821594Y-113940053D01*
X142821612Y-113940230D01*
X142858133Y-114060621D01*
X142878958Y-114129271D01*
X142972084Y-114303499D01*
X143097411Y-114456210D01*
X143250122Y-114581537D01*
X143424350Y-114674663D01*
X143613397Y-114732010D01*
X143810000Y-114751374D01*
X144006603Y-114732010D01*
X144195650Y-114674663D01*
X144369878Y-114581537D01*
X144522589Y-114456210D01*
X144647916Y-114303499D01*
X144741042Y-114129271D01*
X144798389Y-113940224D01*
X144817753Y-113743621D01*
X145342247Y-113743621D01*
X145361594Y-113940053D01*
X145361612Y-113940230D01*
X145398133Y-114060621D01*
X145418958Y-114129271D01*
X145512084Y-114303499D01*
X145637411Y-114456210D01*
X145790122Y-114581537D01*
X145964350Y-114674663D01*
X146153397Y-114732010D01*
X146350000Y-114751374D01*
X146546603Y-114732010D01*
X146735650Y-114674663D01*
X146909878Y-114581537D01*
X147062589Y-114456210D01*
X147187916Y-114303499D01*
X147281042Y-114129271D01*
X147338389Y-113940224D01*
X147357753Y-113743621D01*
X147882247Y-113743621D01*
X147901594Y-113940053D01*
X147901612Y-113940230D01*
X147938133Y-114060621D01*
X147958958Y-114129271D01*
X148052084Y-114303499D01*
X148177411Y-114456210D01*
X148330122Y-114581537D01*
X148504350Y-114674663D01*
X148693397Y-114732010D01*
X148890000Y-114751374D01*
X149086603Y-114732010D01*
X149275650Y-114674663D01*
X149449878Y-114581537D01*
X149602589Y-114456210D01*
X149727916Y-114303499D01*
X149821042Y-114129271D01*
X149878389Y-113940224D01*
X149897753Y-113743621D01*
X150422247Y-113743621D01*
X150441594Y-113940053D01*
X150441612Y-113940230D01*
X150478133Y-114060621D01*
X150498958Y-114129271D01*
X150592084Y-114303499D01*
X150717411Y-114456210D01*
X150870122Y-114581537D01*
X151044350Y-114674663D01*
X151233397Y-114732010D01*
X151430000Y-114751374D01*
X151626603Y-114732010D01*
X151815650Y-114674663D01*
X151989878Y-114581537D01*
X152142589Y-114456210D01*
X152267916Y-114303499D01*
X152361042Y-114129271D01*
X152418389Y-113940224D01*
X152437753Y-113743621D01*
X152962247Y-113743621D01*
X152981594Y-113940053D01*
X152981612Y-113940230D01*
X153018133Y-114060621D01*
X153038958Y-114129271D01*
X153132084Y-114303499D01*
X153257411Y-114456210D01*
X153410122Y-114581537D01*
X153584350Y-114674663D01*
X153773397Y-114732010D01*
X153970000Y-114751374D01*
X154166603Y-114732010D01*
X154355650Y-114674663D01*
X154529878Y-114581537D01*
X154682589Y-114456210D01*
X154807916Y-114303499D01*
X154901042Y-114129271D01*
X154958389Y-113940224D01*
X154977753Y-113743621D01*
X154958389Y-113547018D01*
X154901042Y-113357971D01*
X154854653Y-113271183D01*
X154846156Y-113211663D01*
X154870018Y-113167597D01*
X155464150Y-112573466D01*
X155518645Y-112548055D01*
X155526306Y-112547721D01*
X158434693Y-112547721D01*
X158491194Y-112568286D01*
X158521258Y-112620357D01*
X158510817Y-112679571D01*
X158496848Y-112697776D01*
X157705848Y-113488776D01*
X157651354Y-113514187D01*
X157643693Y-113514521D01*
X157600799Y-113514521D01*
X157544298Y-113493956D01*
X157514234Y-113441885D01*
X157512899Y-113426621D01*
X157512899Y-112878562D01*
X157509001Y-112858965D01*
X157504028Y-112833963D01*
X157470234Y-112783387D01*
X157470002Y-112783232D01*
X157419658Y-112749592D01*
X157382456Y-112742192D01*
X157375057Y-112740721D01*
X157375056Y-112740721D01*
X155644941Y-112740721D01*
X155600341Y-112749593D01*
X155549767Y-112783386D01*
X155549764Y-112783389D01*
X155515971Y-112833962D01*
X155507100Y-112878564D01*
X155507100Y-114608679D01*
X155515972Y-114653279D01*
X155549766Y-114703855D01*
X155566701Y-114715171D01*
X155600341Y-114737649D01*
X155607741Y-114739120D01*
X155644943Y-114746521D01*
X157375056Y-114746520D01*
X157375058Y-114746520D01*
X157387750Y-114743995D01*
X157419658Y-114737649D01*
X157470234Y-114703855D01*
X157504028Y-114653279D01*
X157512900Y-114608678D01*
X157512900Y-114060621D01*
X157533465Y-114004120D01*
X157585536Y-113974056D01*
X157600800Y-113972721D01*
X157767851Y-113972721D01*
X157770152Y-113972781D01*
X157777843Y-113973183D01*
X157811639Y-113974955D01*
X157833809Y-113966444D01*
X157847027Y-113962528D01*
X157870265Y-113957590D01*
X157875894Y-113953499D01*
X157896061Y-113942548D01*
X157902564Y-113940053D01*
X157919365Y-113923250D01*
X157929840Y-113914304D01*
X157949058Y-113900343D01*
X157952540Y-113894311D01*
X157966503Y-113876112D01*
X161345701Y-110496914D01*
X166749884Y-110496914D01*
X166769115Y-110729011D01*
X166769116Y-110729017D01*
X166826286Y-110954775D01*
X166826289Y-110954783D01*
X166897987Y-111118236D01*
X166919840Y-111168056D01*
X166919844Y-111168062D01*
X167047215Y-111363020D01*
X167047216Y-111363022D01*
X167173979Y-111500724D01*
X167204954Y-111534371D01*
X167388740Y-111677417D01*
X167593563Y-111788262D01*
X167813837Y-111863882D01*
X167813839Y-111863882D01*
X167813841Y-111863883D01*
X168043550Y-111902215D01*
X168043554Y-111902215D01*
X168276450Y-111902215D01*
X168506158Y-111863883D01*
X168506158Y-111863882D01*
X168506163Y-111863882D01*
X168726437Y-111788262D01*
X168931260Y-111677417D01*
X169115046Y-111534371D01*
X169272780Y-111363026D01*
X169400160Y-111168056D01*
X169493712Y-110954779D01*
X169550884Y-110729012D01*
X169570116Y-110496915D01*
X169550884Y-110264818D01*
X169550883Y-110264812D01*
X169493713Y-110039054D01*
X169493710Y-110039046D01*
X169400164Y-109825784D01*
X169400160Y-109825774D01*
X169319435Y-109702215D01*
X169272784Y-109630809D01*
X169272783Y-109630807D01*
X169115050Y-109459463D01*
X169115048Y-109459462D01*
X169115046Y-109459459D01*
X168931260Y-109316413D01*
X168726437Y-109205568D01*
X168726433Y-109205566D01*
X168726430Y-109205565D01*
X168506167Y-109129949D01*
X168506158Y-109129946D01*
X168276450Y-109091615D01*
X168276446Y-109091615D01*
X168043554Y-109091615D01*
X168043550Y-109091615D01*
X167813841Y-109129946D01*
X167813832Y-109129949D01*
X167593569Y-109205565D01*
X167388740Y-109316413D01*
X167204949Y-109459463D01*
X167047216Y-109630807D01*
X167047215Y-109630809D01*
X166919844Y-109825767D01*
X166919835Y-109825784D01*
X166826289Y-110039046D01*
X166826286Y-110039054D01*
X166769116Y-110264812D01*
X166769115Y-110264818D01*
X166749884Y-110496914D01*
X161345701Y-110496914D01*
X168786965Y-103055650D01*
X168788598Y-103054101D01*
X168819486Y-103026291D01*
X168829145Y-103004594D01*
X168835719Y-102992485D01*
X168848661Y-102972558D01*
X168849749Y-102965681D01*
X168856265Y-102943683D01*
X168859100Y-102937318D01*
X168859100Y-102913568D01*
X168860182Y-102899817D01*
X168863897Y-102876363D01*
X168863896Y-102876359D01*
X168863896Y-102876357D01*
X168862095Y-102869635D01*
X168859100Y-102846887D01*
X168859100Y-101913646D01*
X168879665Y-101857145D01*
X168899477Y-101839700D01*
X168949617Y-101807478D01*
X169040589Y-101702490D01*
X169098298Y-101576126D01*
X169106444Y-101519469D01*
X169118068Y-101438624D01*
X169118068Y-101438617D01*
X169098299Y-101301122D01*
X169098298Y-101301121D01*
X169098298Y-101301116D01*
X169040589Y-101174752D01*
X168949617Y-101069764D01*
X168949615Y-101069763D01*
X168949613Y-101069761D01*
X168832754Y-100994660D01*
X168832751Y-100994659D01*
X168799011Y-100984752D01*
X168699463Y-100955521D01*
X168699459Y-100955521D01*
X168560541Y-100955521D01*
X168560536Y-100955521D01*
X168427249Y-100994659D01*
X168427245Y-100994660D01*
X168310386Y-101069761D01*
X168310381Y-101069765D01*
X168219410Y-101174753D01*
X168161702Y-101301116D01*
X168161700Y-101301122D01*
X168141932Y-101438617D01*
X168141932Y-101438624D01*
X168161700Y-101576119D01*
X168161701Y-101576124D01*
X168161702Y-101576126D01*
X168219411Y-101702490D01*
X168297905Y-101793077D01*
X168310384Y-101807479D01*
X168336673Y-101824373D01*
X168360521Y-101839699D01*
X168396935Y-101887545D01*
X168400900Y-101913646D01*
X168400900Y-102757313D01*
X168380335Y-102813814D01*
X168375155Y-102819468D01*
X167159155Y-104035468D01*
X167104661Y-104060879D01*
X167046583Y-104045316D01*
X167012095Y-103996063D01*
X167009100Y-103973313D01*
X167009100Y-102825776D01*
X167009160Y-102823476D01*
X167009666Y-102813814D01*
X167011334Y-102781982D01*
X167002819Y-102759800D01*
X166998907Y-102746592D01*
X166993969Y-102723356D01*
X166989874Y-102717720D01*
X166978927Y-102697556D01*
X166976433Y-102691059D01*
X166976432Y-102691058D01*
X166976432Y-102691057D01*
X166959630Y-102674255D01*
X166950677Y-102663771D01*
X166936721Y-102644562D01*
X166936722Y-102644562D01*
X166930692Y-102641081D01*
X166912488Y-102627113D01*
X165804845Y-101519469D01*
X165779434Y-101464975D01*
X165779100Y-101457314D01*
X165779100Y-101373646D01*
X165799665Y-101317145D01*
X165819477Y-101299700D01*
X165869617Y-101267478D01*
X165960589Y-101162490D01*
X166018298Y-101036126D01*
X166025684Y-100984753D01*
X166038068Y-100898624D01*
X166038068Y-100898617D01*
X166018299Y-100761122D01*
X166018298Y-100761121D01*
X166018298Y-100761116D01*
X165960589Y-100634752D01*
X165869617Y-100529764D01*
X165869615Y-100529763D01*
X165869613Y-100529761D01*
X165752754Y-100454660D01*
X165752751Y-100454659D01*
X165726092Y-100446831D01*
X165619463Y-100415521D01*
X165619459Y-100415521D01*
X165480541Y-100415521D01*
X165480536Y-100415521D01*
X165347249Y-100454659D01*
X165347245Y-100454660D01*
X165230386Y-100529761D01*
X165230381Y-100529765D01*
X165139410Y-100634753D01*
X165081702Y-100761116D01*
X165081700Y-100761122D01*
X165061932Y-100898617D01*
X165061932Y-100898624D01*
X165081700Y-101036119D01*
X165081701Y-101036124D01*
X165081702Y-101036126D01*
X165139411Y-101162490D01*
X165214046Y-101248624D01*
X165230384Y-101267479D01*
X165256673Y-101284373D01*
X165280521Y-101299699D01*
X165316935Y-101347545D01*
X165320900Y-101373646D01*
X165320900Y-101581471D01*
X165320840Y-101583772D01*
X165318666Y-101625260D01*
X165327177Y-101647433D01*
X165331092Y-101660650D01*
X165336031Y-101683888D01*
X165340124Y-101689521D01*
X165351071Y-101709682D01*
X165353567Y-101716183D01*
X165353568Y-101716185D01*
X165370364Y-101732982D01*
X165379320Y-101743468D01*
X165393276Y-101762677D01*
X165393278Y-101762679D01*
X165399308Y-101766160D01*
X165417510Y-101780127D01*
X166525155Y-102887772D01*
X166550566Y-102942265D01*
X166550900Y-102949926D01*
X166550900Y-103937313D01*
X166530335Y-103993814D01*
X166525155Y-103999468D01*
X158460848Y-112063776D01*
X158406354Y-112089187D01*
X158398693Y-112089521D01*
X155402149Y-112089521D01*
X155399848Y-112089461D01*
X155358360Y-112087287D01*
X155336188Y-112095797D01*
X155322972Y-112099711D01*
X155299736Y-112104651D01*
X155299735Y-112104651D01*
X155294095Y-112108749D01*
X155273942Y-112119691D01*
X155267435Y-112122189D01*
X155267432Y-112122191D01*
X155250639Y-112138984D01*
X155240154Y-112147939D01*
X155220945Y-112161895D01*
X155220938Y-112161902D01*
X155217458Y-112167931D01*
X155203493Y-112186130D01*
X154546023Y-112843599D01*
X154491529Y-112869010D01*
X154442433Y-112858965D01*
X154355650Y-112812579D01*
X154355649Y-112812578D01*
X154355648Y-112812578D01*
X154166609Y-112755233D01*
X154166604Y-112755232D01*
X154166603Y-112755232D01*
X153970000Y-112735868D01*
X153773397Y-112755232D01*
X153773395Y-112755232D01*
X153773390Y-112755233D01*
X153584351Y-112812578D01*
X153410121Y-112905705D01*
X153257413Y-113031030D01*
X153257409Y-113031034D01*
X153132084Y-113183742D01*
X153038957Y-113357972D01*
X152981612Y-113547011D01*
X152981611Y-113547016D01*
X152981611Y-113547018D01*
X152962247Y-113743621D01*
X152437753Y-113743621D01*
X152418389Y-113547018D01*
X152361042Y-113357971D01*
X152267916Y-113183743D01*
X152142589Y-113031032D01*
X151989878Y-112905705D01*
X151815650Y-112812579D01*
X151815649Y-112812578D01*
X151815648Y-112812578D01*
X151626609Y-112755233D01*
X151626604Y-112755232D01*
X151626603Y-112755232D01*
X151430000Y-112735868D01*
X151429999Y-112735868D01*
X151382657Y-112740530D01*
X151233397Y-112755232D01*
X151233395Y-112755232D01*
X151233390Y-112755233D01*
X151044351Y-112812578D01*
X150870121Y-112905705D01*
X150717413Y-113031030D01*
X150717409Y-113031034D01*
X150592084Y-113183742D01*
X150498957Y-113357972D01*
X150441612Y-113547011D01*
X150441611Y-113547016D01*
X150441611Y-113547018D01*
X150422247Y-113743621D01*
X149897753Y-113743621D01*
X149878389Y-113547018D01*
X149821042Y-113357971D01*
X149727916Y-113183743D01*
X149602589Y-113031032D01*
X149449878Y-112905705D01*
X149275650Y-112812579D01*
X149275649Y-112812578D01*
X149275648Y-112812578D01*
X149086609Y-112755233D01*
X149086604Y-112755232D01*
X149086603Y-112755232D01*
X148890000Y-112735868D01*
X148693397Y-112755232D01*
X148693395Y-112755232D01*
X148693390Y-112755233D01*
X148504351Y-112812578D01*
X148330121Y-112905705D01*
X148177413Y-113031030D01*
X148177409Y-113031034D01*
X148052084Y-113183742D01*
X147958957Y-113357972D01*
X147901612Y-113547011D01*
X147901611Y-113547016D01*
X147901611Y-113547018D01*
X147882247Y-113743621D01*
X147357753Y-113743621D01*
X147338389Y-113547018D01*
X147281042Y-113357971D01*
X147187916Y-113183743D01*
X147062589Y-113031032D01*
X146909878Y-112905705D01*
X146735650Y-112812579D01*
X146735649Y-112812578D01*
X146735648Y-112812578D01*
X146546609Y-112755233D01*
X146546604Y-112755232D01*
X146546603Y-112755232D01*
X146350000Y-112735868D01*
X146153397Y-112755232D01*
X146153395Y-112755232D01*
X146153390Y-112755233D01*
X145964351Y-112812578D01*
X145790121Y-112905705D01*
X145637413Y-113031030D01*
X145637409Y-113031034D01*
X145512084Y-113183742D01*
X145418957Y-113357972D01*
X145361612Y-113547011D01*
X145361611Y-113547016D01*
X145361611Y-113547018D01*
X145342247Y-113743621D01*
X144817753Y-113743621D01*
X144798389Y-113547018D01*
X144741042Y-113357971D01*
X144647916Y-113183743D01*
X144522589Y-113031032D01*
X144369878Y-112905705D01*
X144195650Y-112812579D01*
X144195649Y-112812578D01*
X144195648Y-112812578D01*
X144006609Y-112755233D01*
X144006604Y-112755232D01*
X144006603Y-112755232D01*
X143810000Y-112735868D01*
X143613397Y-112755232D01*
X143613395Y-112755232D01*
X143613390Y-112755233D01*
X143428922Y-112811191D01*
X143368884Y-112807913D01*
X143341251Y-112789231D01*
X142549145Y-111997124D01*
X142523734Y-111942630D01*
X142523400Y-111934969D01*
X142523400Y-107215508D01*
X142523566Y-107211696D01*
X142527369Y-107168230D01*
X142516074Y-107126081D01*
X142515250Y-107122364D01*
X142507668Y-107079360D01*
X142505783Y-107076096D01*
X142496999Y-107054889D01*
X142496026Y-107051255D01*
X142470995Y-107015508D01*
X142468935Y-107012273D01*
X142447118Y-106974483D01*
X142413699Y-106946442D01*
X142410871Y-106943851D01*
X137515226Y-102048206D01*
X139467201Y-102048206D01*
X139473675Y-102097394D01*
X139473677Y-102097400D01*
X139524022Y-102205364D01*
X139608256Y-102289598D01*
X139716220Y-102339943D01*
X139765417Y-102346420D01*
X139875500Y-102346420D01*
X139875500Y-101975622D01*
X139875499Y-101975621D01*
X139467202Y-101975621D01*
X139467201Y-101975622D01*
X139467201Y-102048206D01*
X137515226Y-102048206D01*
X137188640Y-101721620D01*
X139467200Y-101721620D01*
X139467201Y-101721621D01*
X139875499Y-101721621D01*
X139875500Y-101721619D01*
X139875500Y-101350821D01*
X140129500Y-101350821D01*
X140129500Y-102346419D01*
X140129501Y-102346420D01*
X140239584Y-102346420D01*
X140239585Y-102346419D01*
X140288773Y-102339945D01*
X140288779Y-102339943D01*
X140396743Y-102289598D01*
X140480976Y-102205365D01*
X140534071Y-102091503D01*
X140576588Y-102048987D01*
X140636486Y-102043746D01*
X140685739Y-102078233D01*
X140693400Y-102091502D01*
X140726502Y-102162488D01*
X140739733Y-102190862D01*
X140817759Y-102268888D01*
X140917766Y-102315522D01*
X140952730Y-102320124D01*
X140963332Y-102321521D01*
X140963334Y-102321521D01*
X141103166Y-102321521D01*
X141127929Y-102325081D01*
X141150541Y-102331721D01*
X141150542Y-102331721D01*
X141289458Y-102331721D01*
X141289459Y-102331721D01*
X141308714Y-102326067D01*
X141368719Y-102329879D01*
X141395634Y-102348251D01*
X142972960Y-103925579D01*
X142974544Y-103927248D01*
X143002330Y-103958107D01*
X143002331Y-103958107D01*
X143002332Y-103958108D01*
X143024024Y-103967766D01*
X143036144Y-103974347D01*
X143056061Y-103987281D01*
X143056062Y-103987281D01*
X143056064Y-103987282D01*
X143062939Y-103988370D01*
X143084938Y-103994887D01*
X143091303Y-103997721D01*
X143115053Y-103997721D01*
X143128802Y-103998802D01*
X143152258Y-104002518D01*
X143158983Y-104000715D01*
X143181733Y-103997721D01*
X163199231Y-103997721D01*
X163255732Y-104018286D01*
X163285796Y-104070357D01*
X163286236Y-104073112D01*
X163291700Y-104111119D01*
X163291701Y-104111124D01*
X163291702Y-104111126D01*
X163349411Y-104237490D01*
X163440383Y-104342478D01*
X163440385Y-104342479D01*
X163440386Y-104342480D01*
X163557245Y-104417581D01*
X163557246Y-104417581D01*
X163557249Y-104417583D01*
X163648035Y-104444240D01*
X163690536Y-104456720D01*
X163690539Y-104456720D01*
X163690541Y-104456721D01*
X163690542Y-104456721D01*
X163829458Y-104456721D01*
X163829459Y-104456721D01*
X163829461Y-104456720D01*
X163829463Y-104456720D01*
X163845305Y-104452068D01*
X163962751Y-104417583D01*
X164079617Y-104342478D01*
X164170589Y-104237490D01*
X164228298Y-104111126D01*
X164239176Y-104035468D01*
X164248068Y-103973624D01*
X164248068Y-103973617D01*
X164228299Y-103836122D01*
X164228298Y-103836121D01*
X164228298Y-103836116D01*
X164178527Y-103727135D01*
X164173763Y-103667198D01*
X164208640Y-103618220D01*
X164258485Y-103602721D01*
X165004141Y-103602721D01*
X165060642Y-103623286D01*
X165070572Y-103633059D01*
X165074410Y-103637488D01*
X165074411Y-103637490D01*
X165165383Y-103742478D01*
X165165385Y-103742479D01*
X165165386Y-103742480D01*
X165282245Y-103817581D01*
X165282246Y-103817581D01*
X165282249Y-103817583D01*
X165373035Y-103844240D01*
X165415536Y-103856720D01*
X165415539Y-103856720D01*
X165415541Y-103856721D01*
X165415542Y-103856721D01*
X165554458Y-103856721D01*
X165554459Y-103856721D01*
X165554461Y-103856720D01*
X165554463Y-103856720D01*
X165570305Y-103852068D01*
X165687751Y-103817583D01*
X165804617Y-103742478D01*
X165895589Y-103637490D01*
X165953298Y-103511126D01*
X165973068Y-103373621D01*
X165973068Y-103373617D01*
X165953299Y-103236122D01*
X165953298Y-103236121D01*
X165953298Y-103236116D01*
X165895589Y-103109752D01*
X165804617Y-103004764D01*
X165804615Y-103004763D01*
X165804613Y-103004761D01*
X165687754Y-102929660D01*
X165687751Y-102929659D01*
X165661092Y-102921831D01*
X165554463Y-102890521D01*
X165554459Y-102890521D01*
X165415541Y-102890521D01*
X165415536Y-102890521D01*
X165282249Y-102929659D01*
X165282245Y-102929660D01*
X165165386Y-103004761D01*
X165165381Y-103004765D01*
X165070572Y-103114183D01*
X165018030Y-103143417D01*
X165004141Y-103144521D01*
X150756306Y-103144521D01*
X150699805Y-103123956D01*
X150694151Y-103118776D01*
X149633645Y-102058269D01*
X149628953Y-102048206D01*
X155267201Y-102048206D01*
X155273675Y-102097394D01*
X155273677Y-102097400D01*
X155324022Y-102205364D01*
X155408256Y-102289598D01*
X155516220Y-102339943D01*
X155565417Y-102346420D01*
X155675500Y-102346420D01*
X155675500Y-101975622D01*
X155675499Y-101975621D01*
X155267202Y-101975621D01*
X155267201Y-101975622D01*
X155267201Y-102048206D01*
X149628953Y-102048206D01*
X149608234Y-102003775D01*
X149607900Y-101996114D01*
X149607900Y-101721620D01*
X155267200Y-101721620D01*
X155267201Y-101721621D01*
X155675499Y-101721621D01*
X155675500Y-101721619D01*
X155675500Y-101350821D01*
X155565416Y-101350821D01*
X155565414Y-101350822D01*
X155516226Y-101357296D01*
X155516220Y-101357298D01*
X155408256Y-101407643D01*
X155324022Y-101491877D01*
X155273677Y-101599841D01*
X155267200Y-101649038D01*
X155267200Y-101721620D01*
X149607900Y-101721620D01*
X149607900Y-101651953D01*
X149605635Y-101634752D01*
X149601901Y-101606387D01*
X149555267Y-101506380D01*
X149477241Y-101428354D01*
X149432826Y-101407643D01*
X149377237Y-101381721D01*
X149377234Y-101381720D01*
X149331668Y-101375721D01*
X149331666Y-101375721D01*
X149187138Y-101375721D01*
X149184342Y-101375521D01*
X149179459Y-101375521D01*
X149040541Y-101375521D01*
X149035658Y-101375521D01*
X149032862Y-101375721D01*
X148863332Y-101375721D01*
X148817765Y-101381720D01*
X148817762Y-101381721D01*
X148717758Y-101428354D01*
X148639733Y-101506379D01*
X148593400Y-101605739D01*
X148550883Y-101648255D01*
X148490985Y-101653495D01*
X148441732Y-101619007D01*
X148434072Y-101605738D01*
X148380978Y-101491878D01*
X148296743Y-101407643D01*
X148188779Y-101357298D01*
X148139583Y-101350821D01*
X148029500Y-101350821D01*
X148029500Y-102346419D01*
X148029501Y-102346420D01*
X148139584Y-102346420D01*
X148139585Y-102346419D01*
X148188773Y-102339945D01*
X148188779Y-102339943D01*
X148296743Y-102289598D01*
X148380976Y-102205365D01*
X148434071Y-102091503D01*
X148476588Y-102048987D01*
X148536486Y-102043746D01*
X148585739Y-102078233D01*
X148593400Y-102091502D01*
X148626502Y-102162488D01*
X148639733Y-102190862D01*
X148717759Y-102268888D01*
X148817766Y-102315522D01*
X148852730Y-102320124D01*
X148863332Y-102321521D01*
X148863334Y-102321521D01*
X148959109Y-102321521D01*
X148983874Y-102325082D01*
X149040536Y-102341720D01*
X149040539Y-102341720D01*
X149040541Y-102341721D01*
X149040542Y-102341721D01*
X149179458Y-102341721D01*
X149179459Y-102341721D01*
X149198714Y-102336067D01*
X149258719Y-102339879D01*
X149285634Y-102358251D01*
X150316849Y-103389466D01*
X150342260Y-103443960D01*
X150326697Y-103502038D01*
X150277444Y-103536526D01*
X150254694Y-103539521D01*
X143271306Y-103539521D01*
X143214805Y-103518956D01*
X143209151Y-103513776D01*
X141743582Y-102048206D01*
X147367201Y-102048206D01*
X147373675Y-102097394D01*
X147373677Y-102097400D01*
X147424022Y-102205364D01*
X147508256Y-102289598D01*
X147616220Y-102339943D01*
X147665417Y-102346420D01*
X147775500Y-102346420D01*
X147775500Y-101975622D01*
X147775499Y-101975621D01*
X147367202Y-101975621D01*
X147367201Y-101975622D01*
X147367201Y-102048206D01*
X141743582Y-102048206D01*
X141733645Y-102038269D01*
X141708234Y-101983775D01*
X141707900Y-101976114D01*
X141707900Y-101856080D01*
X141708068Y-101853734D01*
X141708068Y-101843522D01*
X141707900Y-101841170D01*
X141707900Y-101721620D01*
X147367200Y-101721620D01*
X147367201Y-101721621D01*
X147775499Y-101721621D01*
X147775500Y-101721620D01*
X147775500Y-101350821D01*
X147665416Y-101350821D01*
X147665414Y-101350822D01*
X147616226Y-101357296D01*
X147616220Y-101357298D01*
X147508256Y-101407643D01*
X147424022Y-101491877D01*
X147373677Y-101599841D01*
X147367200Y-101649038D01*
X147367200Y-101721620D01*
X141707900Y-101721620D01*
X141707900Y-101651953D01*
X141705635Y-101634752D01*
X141701901Y-101606387D01*
X141655267Y-101506380D01*
X141577241Y-101428354D01*
X141532826Y-101407643D01*
X141477237Y-101381721D01*
X141477234Y-101381720D01*
X141431668Y-101375721D01*
X141431666Y-101375721D01*
X141336834Y-101375721D01*
X141312070Y-101372160D01*
X141299075Y-101368344D01*
X141289460Y-101365521D01*
X141289459Y-101365521D01*
X141150541Y-101365521D01*
X141150539Y-101365521D01*
X141137047Y-101369483D01*
X141127929Y-101372160D01*
X141103166Y-101375721D01*
X140963332Y-101375721D01*
X140917765Y-101381720D01*
X140917762Y-101381721D01*
X140817758Y-101428354D01*
X140739733Y-101506379D01*
X140693400Y-101605739D01*
X140650883Y-101648255D01*
X140590985Y-101653495D01*
X140541732Y-101619007D01*
X140534072Y-101605738D01*
X140480978Y-101491878D01*
X140396743Y-101407643D01*
X140288779Y-101357298D01*
X140239583Y-101350821D01*
X140129500Y-101350821D01*
X139875500Y-101350821D01*
X139765416Y-101350821D01*
X139765414Y-101350822D01*
X139716226Y-101357296D01*
X139716220Y-101357298D01*
X139608256Y-101407643D01*
X139524022Y-101491877D01*
X139473677Y-101599841D01*
X139467200Y-101649038D01*
X139467200Y-101721620D01*
X137188640Y-101721620D01*
X135626645Y-100159625D01*
X135601234Y-100105131D01*
X135600900Y-100097470D01*
X135600900Y-98977272D01*
X135621465Y-98920771D01*
X135626645Y-98915117D01*
X135866141Y-98675621D01*
X137579701Y-98675621D01*
X137579701Y-98748206D01*
X137586175Y-98797394D01*
X137586177Y-98797400D01*
X137636522Y-98905364D01*
X137720756Y-98989598D01*
X137828720Y-99039943D01*
X137877917Y-99046420D01*
X137988000Y-99046420D01*
X137988000Y-99046418D01*
X138242000Y-99046418D01*
X138242001Y-99046420D01*
X138352084Y-99046420D01*
X138352085Y-99046419D01*
X138401273Y-99039945D01*
X138401279Y-99039943D01*
X138509243Y-98989598D01*
X138593476Y-98905365D01*
X138646571Y-98791503D01*
X138689088Y-98748987D01*
X138748986Y-98743746D01*
X138798239Y-98778233D01*
X138805900Y-98791502D01*
X138826709Y-98836126D01*
X138852233Y-98890862D01*
X138930259Y-98968888D01*
X139030266Y-99015522D01*
X139065230Y-99020124D01*
X139075832Y-99021521D01*
X139075834Y-99021521D01*
X139200666Y-99021521D01*
X139225429Y-99025081D01*
X139248041Y-99031721D01*
X139248042Y-99031721D01*
X139386958Y-99031721D01*
X139386959Y-99031721D01*
X139409570Y-99025081D01*
X139434334Y-99021521D01*
X139544168Y-99021521D01*
X139553664Y-99020270D01*
X139589734Y-99015522D01*
X139689741Y-98968888D01*
X139767767Y-98890862D01*
X139814401Y-98790855D01*
X139820016Y-98748206D01*
X145479701Y-98748206D01*
X145486175Y-98797394D01*
X145486177Y-98797400D01*
X145536522Y-98905364D01*
X145620756Y-98989598D01*
X145728720Y-99039943D01*
X145777917Y-99046420D01*
X145888000Y-99046420D01*
X145888000Y-98675621D01*
X145479702Y-98675621D01*
X145479701Y-98675622D01*
X145479701Y-98748206D01*
X139820016Y-98748206D01*
X139820400Y-98745287D01*
X139820400Y-98421620D01*
X145479700Y-98421620D01*
X145479701Y-98421621D01*
X145887999Y-98421621D01*
X145888000Y-98421620D01*
X145888000Y-98050821D01*
X145777916Y-98050821D01*
X145777914Y-98050822D01*
X145728726Y-98057296D01*
X145728720Y-98057298D01*
X145620756Y-98107643D01*
X145536522Y-98191877D01*
X145486177Y-98299841D01*
X145479700Y-98349038D01*
X145479700Y-98421620D01*
X139820400Y-98421620D01*
X139820400Y-98406125D01*
X139840965Y-98349625D01*
X139846134Y-98343982D01*
X140956650Y-97233466D01*
X141011145Y-97208055D01*
X141018806Y-97207721D01*
X148014694Y-97207721D01*
X148071195Y-97228286D01*
X148101259Y-97280357D01*
X148090818Y-97339571D01*
X148076849Y-97357776D01*
X147385065Y-98049558D01*
X147330571Y-98074969D01*
X147298147Y-98071742D01*
X147276959Y-98065521D01*
X147138041Y-98065521D01*
X147138039Y-98065521D01*
X147124585Y-98069472D01*
X147115429Y-98072160D01*
X147090666Y-98075721D01*
X146975832Y-98075721D01*
X146930265Y-98081720D01*
X146930262Y-98081721D01*
X146830258Y-98128354D01*
X146752233Y-98206379D01*
X146705900Y-98305739D01*
X146663383Y-98348255D01*
X146603485Y-98353495D01*
X146554232Y-98319007D01*
X146546572Y-98305738D01*
X146493478Y-98191878D01*
X146409243Y-98107643D01*
X146301279Y-98057298D01*
X146252083Y-98050821D01*
X146142000Y-98050821D01*
X146142000Y-99046419D01*
X146142001Y-99046420D01*
X146252084Y-99046420D01*
X146252085Y-99046419D01*
X146301273Y-99039945D01*
X146301279Y-99039943D01*
X146409243Y-98989598D01*
X146493476Y-98905365D01*
X146546571Y-98791503D01*
X146589088Y-98748987D01*
X146648986Y-98743746D01*
X146698239Y-98778233D01*
X146705900Y-98791502D01*
X146726709Y-98836126D01*
X146752233Y-98890862D01*
X146830259Y-98968888D01*
X146930266Y-99015522D01*
X146965230Y-99020124D01*
X146975832Y-99021521D01*
X146975834Y-99021521D01*
X147090666Y-99021521D01*
X147115429Y-99025081D01*
X147138041Y-99031721D01*
X147138042Y-99031721D01*
X147276958Y-99031721D01*
X147276959Y-99031721D01*
X147299570Y-99025081D01*
X147324334Y-99021521D01*
X147444168Y-99021521D01*
X147453664Y-99020270D01*
X147489734Y-99015522D01*
X147589741Y-98968888D01*
X147667767Y-98890862D01*
X147714401Y-98790855D01*
X147720016Y-98748206D01*
X153379701Y-98748206D01*
X153386175Y-98797394D01*
X153386177Y-98797400D01*
X153436522Y-98905364D01*
X153520756Y-98989598D01*
X153628720Y-99039943D01*
X153677917Y-99046420D01*
X153788000Y-99046420D01*
X153788000Y-98675622D01*
X153787999Y-98675621D01*
X153379702Y-98675621D01*
X153379701Y-98675622D01*
X153379701Y-98748206D01*
X147720016Y-98748206D01*
X147720400Y-98745287D01*
X147720400Y-98421620D01*
X153379700Y-98421620D01*
X153379701Y-98421621D01*
X153787999Y-98421621D01*
X153788000Y-98421619D01*
X153788000Y-98050821D01*
X153677916Y-98050821D01*
X153677914Y-98050822D01*
X153628726Y-98057296D01*
X153628720Y-98057298D01*
X153520756Y-98107643D01*
X153436522Y-98191877D01*
X153386177Y-98299841D01*
X153379700Y-98349038D01*
X153379700Y-98421620D01*
X147720400Y-98421620D01*
X147720400Y-98398627D01*
X147740965Y-98342126D01*
X147746145Y-98336472D01*
X148519152Y-97563466D01*
X148573646Y-97538055D01*
X148581307Y-97537721D01*
X155584693Y-97537721D01*
X155641194Y-97558286D01*
X155671258Y-97610357D01*
X155660817Y-97669571D01*
X155646848Y-97687776D01*
X155287335Y-98047288D01*
X155232841Y-98072699D01*
X155200415Y-98069472D01*
X155194168Y-98067637D01*
X155186960Y-98065521D01*
X155186959Y-98065521D01*
X155048041Y-98065521D01*
X155048039Y-98065521D01*
X155034585Y-98069472D01*
X155025429Y-98072160D01*
X155000666Y-98075721D01*
X154875832Y-98075721D01*
X154830265Y-98081720D01*
X154830262Y-98081721D01*
X154730258Y-98128354D01*
X154652233Y-98206379D01*
X154605900Y-98305739D01*
X154563383Y-98348255D01*
X154503485Y-98353495D01*
X154454232Y-98319007D01*
X154446572Y-98305738D01*
X154393478Y-98191878D01*
X154309243Y-98107643D01*
X154201279Y-98057298D01*
X154152083Y-98050821D01*
X154042001Y-98050821D01*
X154042000Y-98050822D01*
X154042000Y-99046418D01*
X154042001Y-99046420D01*
X154152084Y-99046420D01*
X154152085Y-99046419D01*
X154201273Y-99039945D01*
X154201279Y-99039943D01*
X154309243Y-98989598D01*
X154393476Y-98905365D01*
X154446571Y-98791503D01*
X154489088Y-98748987D01*
X154548986Y-98743746D01*
X154598239Y-98778233D01*
X154605900Y-98791502D01*
X154626709Y-98836126D01*
X154652233Y-98890862D01*
X154730259Y-98968888D01*
X154830266Y-99015522D01*
X154865230Y-99020124D01*
X154875832Y-99021521D01*
X154875834Y-99021521D01*
X155000666Y-99021521D01*
X155025429Y-99025081D01*
X155048041Y-99031721D01*
X155048042Y-99031721D01*
X155186958Y-99031721D01*
X155186959Y-99031721D01*
X155209570Y-99025081D01*
X155234334Y-99021521D01*
X155344168Y-99021521D01*
X155353664Y-99020270D01*
X155389734Y-99015522D01*
X155489741Y-98968888D01*
X155567767Y-98890862D01*
X155614401Y-98790855D01*
X155620400Y-98745287D01*
X155620400Y-98398627D01*
X155640965Y-98342126D01*
X155646145Y-98336472D01*
X156049152Y-97933466D01*
X156103646Y-97908055D01*
X156111307Y-97907721D01*
X159468694Y-97907721D01*
X159525195Y-97928286D01*
X159530849Y-97933466D01*
X162891722Y-101294339D01*
X162917133Y-101348833D01*
X162901570Y-101406911D01*
X162854333Y-101440833D01*
X162807248Y-101454659D01*
X162807245Y-101454660D01*
X162690386Y-101529761D01*
X162690381Y-101529765D01*
X162595572Y-101639183D01*
X162543030Y-101668417D01*
X162529141Y-101669521D01*
X157586240Y-101669521D01*
X157529739Y-101648956D01*
X157505662Y-101612054D01*
X157504744Y-101612483D01*
X157467095Y-101531745D01*
X157455267Y-101506380D01*
X157377241Y-101428354D01*
X157332826Y-101407643D01*
X157277237Y-101381721D01*
X157277234Y-101381720D01*
X157231668Y-101375721D01*
X157231666Y-101375721D01*
X157184948Y-101375721D01*
X157160183Y-101372160D01*
X157069463Y-101345521D01*
X157069459Y-101345521D01*
X156930541Y-101345521D01*
X156930536Y-101345521D01*
X156839817Y-101372160D01*
X156815052Y-101375721D01*
X156763332Y-101375721D01*
X156717765Y-101381720D01*
X156717762Y-101381721D01*
X156617758Y-101428354D01*
X156539733Y-101506379D01*
X156493400Y-101605739D01*
X156450883Y-101648255D01*
X156390985Y-101653495D01*
X156341732Y-101619007D01*
X156334072Y-101605738D01*
X156280978Y-101491878D01*
X156196743Y-101407643D01*
X156088779Y-101357298D01*
X156039583Y-101350821D01*
X155929501Y-101350821D01*
X155929500Y-101350822D01*
X155929500Y-102346419D01*
X155929501Y-102346420D01*
X156039584Y-102346420D01*
X156039585Y-102346419D01*
X156088773Y-102339945D01*
X156088779Y-102339943D01*
X156196743Y-102289598D01*
X156280976Y-102205365D01*
X156334071Y-102091503D01*
X156376588Y-102048987D01*
X156436486Y-102043746D01*
X156485739Y-102078233D01*
X156493400Y-102091502D01*
X156526502Y-102162488D01*
X156539733Y-102190862D01*
X156617759Y-102268888D01*
X156717766Y-102315522D01*
X156752730Y-102320124D01*
X156763332Y-102321521D01*
X156763334Y-102321521D01*
X157231668Y-102321521D01*
X157241164Y-102320270D01*
X157277234Y-102315522D01*
X157377241Y-102268888D01*
X157455267Y-102190862D01*
X157461044Y-102178472D01*
X157503559Y-102135957D01*
X157540708Y-102127721D01*
X162529141Y-102127721D01*
X162585642Y-102148286D01*
X162595572Y-102158059D01*
X162599410Y-102162488D01*
X162599411Y-102162490D01*
X162690383Y-102267478D01*
X162690385Y-102267479D01*
X162690386Y-102267480D01*
X162807245Y-102342581D01*
X162807246Y-102342581D01*
X162807249Y-102342583D01*
X162898035Y-102369240D01*
X162940536Y-102381720D01*
X162940539Y-102381720D01*
X162940541Y-102381721D01*
X162940542Y-102381721D01*
X163079458Y-102381721D01*
X163079459Y-102381721D01*
X163079461Y-102381720D01*
X163079463Y-102381720D01*
X163095305Y-102377067D01*
X163212751Y-102342583D01*
X163329617Y-102267478D01*
X163420589Y-102162490D01*
X163478298Y-102036126D01*
X163485825Y-101983775D01*
X163498068Y-101898624D01*
X163498068Y-101898619D01*
X163482893Y-101793077D01*
X163495207Y-101734224D01*
X163542470Y-101697056D01*
X163594663Y-101696228D01*
X163715536Y-101731720D01*
X163715539Y-101731720D01*
X163715541Y-101731721D01*
X163715542Y-101731721D01*
X163854458Y-101731721D01*
X163854459Y-101731721D01*
X163854461Y-101731720D01*
X163854463Y-101731720D01*
X163888856Y-101721621D01*
X163987751Y-101692583D01*
X164104617Y-101617478D01*
X164195589Y-101512490D01*
X164253298Y-101386126D01*
X164265520Y-101301122D01*
X164273068Y-101248624D01*
X164273068Y-101248617D01*
X164253299Y-101111122D01*
X164253298Y-101111121D01*
X164253298Y-101111116D01*
X164195589Y-100984752D01*
X164104617Y-100879764D01*
X164026786Y-100829745D01*
X163990373Y-100781898D01*
X163993234Y-100721839D01*
X164034031Y-100677670D01*
X164049541Y-100671461D01*
X164062751Y-100667583D01*
X164179617Y-100592478D01*
X164270589Y-100487490D01*
X164328298Y-100361126D01*
X164340520Y-100276121D01*
X164348068Y-100223624D01*
X164348068Y-100223617D01*
X164328299Y-100086122D01*
X164328298Y-100086121D01*
X164328298Y-100086116D01*
X164270589Y-99959752D01*
X164179617Y-99854764D01*
X164179615Y-99854763D01*
X164179613Y-99854761D01*
X164062754Y-99779660D01*
X164062751Y-99779659D01*
X164029280Y-99769831D01*
X163929463Y-99740521D01*
X163929459Y-99740521D01*
X163790541Y-99740521D01*
X163790536Y-99740521D01*
X163657249Y-99779659D01*
X163657245Y-99779660D01*
X163650270Y-99784143D01*
X163591620Y-99797386D01*
X163538178Y-99769831D01*
X163515747Y-99722702D01*
X163503299Y-99636122D01*
X163503298Y-99636121D01*
X163503298Y-99636116D01*
X163445589Y-99509752D01*
X163354617Y-99404764D01*
X163354615Y-99404763D01*
X163354613Y-99404761D01*
X163237754Y-99329660D01*
X163237751Y-99329659D01*
X163211092Y-99321831D01*
X163104463Y-99290521D01*
X163104459Y-99290521D01*
X162965541Y-99290521D01*
X162965536Y-99290521D01*
X162832249Y-99329659D01*
X162832244Y-99329660D01*
X162716991Y-99403730D01*
X162658341Y-99416977D01*
X162607314Y-99391939D01*
X160037039Y-96821662D01*
X160035470Y-96820010D01*
X160007670Y-96789135D01*
X160007669Y-96789134D01*
X159985972Y-96779473D01*
X159973858Y-96772896D01*
X159961022Y-96764561D01*
X159953936Y-96759960D01*
X159953933Y-96759959D01*
X159953932Y-96759959D01*
X159947058Y-96758870D01*
X159925064Y-96752355D01*
X159918699Y-96749521D01*
X159918697Y-96749521D01*
X159894947Y-96749521D01*
X159881197Y-96748439D01*
X159869119Y-96746526D01*
X159857743Y-96744724D01*
X159857740Y-96744724D01*
X159851017Y-96746526D01*
X159828267Y-96749521D01*
X140894649Y-96749521D01*
X140892348Y-96749461D01*
X140850860Y-96747287D01*
X140828688Y-96755797D01*
X140815472Y-96759711D01*
X140792236Y-96764651D01*
X140792235Y-96764651D01*
X140786595Y-96768749D01*
X140766442Y-96779691D01*
X140759935Y-96782189D01*
X140759932Y-96782191D01*
X140743139Y-96798984D01*
X140732654Y-96807939D01*
X140713445Y-96821895D01*
X140713438Y-96821902D01*
X140709958Y-96827931D01*
X140695993Y-96846130D01*
X139493133Y-98048990D01*
X139438639Y-98074401D01*
X139406214Y-98071174D01*
X139386965Y-98065522D01*
X139386959Y-98065521D01*
X139248041Y-98065521D01*
X139248039Y-98065521D01*
X139234585Y-98069472D01*
X139225429Y-98072160D01*
X139200666Y-98075721D01*
X139075832Y-98075721D01*
X139030265Y-98081720D01*
X139030262Y-98081721D01*
X138930258Y-98128354D01*
X138852233Y-98206379D01*
X138805900Y-98305739D01*
X138763383Y-98348255D01*
X138703485Y-98353495D01*
X138654232Y-98319007D01*
X138646572Y-98305738D01*
X138593478Y-98191878D01*
X138509243Y-98107643D01*
X138401279Y-98057298D01*
X138352083Y-98050821D01*
X138242001Y-98050821D01*
X138242000Y-98050822D01*
X138242000Y-99046418D01*
X137988000Y-99046418D01*
X137988000Y-98675621D01*
X137579701Y-98675621D01*
X135866141Y-98675621D01*
X136120142Y-98421620D01*
X137579700Y-98421620D01*
X137579701Y-98421621D01*
X137987999Y-98421621D01*
X137988000Y-98421620D01*
X137988000Y-98050821D01*
X137877916Y-98050821D01*
X137877914Y-98050822D01*
X137828726Y-98057296D01*
X137828720Y-98057298D01*
X137720756Y-98107643D01*
X137636522Y-98191877D01*
X137586177Y-98299841D01*
X137579700Y-98349038D01*
X137579700Y-98421620D01*
X136120142Y-98421620D01*
X140686496Y-93855266D01*
X140740990Y-93829855D01*
X140748651Y-93829521D01*
X146059200Y-93829521D01*
X146115701Y-93850086D01*
X146145765Y-93902157D01*
X146147100Y-93917421D01*
X146147100Y-94043839D01*
X146147101Y-94043858D01*
X146150038Y-94069170D01*
X146150039Y-94069174D01*
X146195213Y-94171482D01*
X146195780Y-94172766D01*
X146275855Y-94252841D01*
X146379450Y-94298583D01*
X146404774Y-94301521D01*
X146404781Y-94301521D01*
X146795219Y-94301521D01*
X146795226Y-94301521D01*
X146820550Y-94298583D01*
X146924145Y-94252841D01*
X146995654Y-94181331D01*
X147050146Y-94155921D01*
X147108225Y-94171482D01*
X147121373Y-94184631D01*
X147121903Y-94184102D01*
X147209083Y-94271282D01*
X147313845Y-94320133D01*
X147313854Y-94320136D01*
X147361586Y-94326420D01*
X147422999Y-94326419D01*
X147423000Y-94326419D01*
X147423000Y-92645821D01*
X147677000Y-92645821D01*
X147677000Y-94326418D01*
X147677001Y-94326420D01*
X147738414Y-94326420D01*
X147738415Y-94326419D01*
X147786145Y-94320137D01*
X147786151Y-94320135D01*
X147890917Y-94271281D01*
X147978097Y-94184102D01*
X147980117Y-94186122D01*
X148019415Y-94158588D01*
X148079315Y-94163810D01*
X148104342Y-94181328D01*
X148175855Y-94252841D01*
X148279450Y-94298583D01*
X148304774Y-94301521D01*
X148304781Y-94301521D01*
X148695219Y-94301521D01*
X148695226Y-94301521D01*
X148720550Y-94298583D01*
X148824145Y-94252841D01*
X148904220Y-94172766D01*
X148949962Y-94069171D01*
X148952900Y-94043847D01*
X148952900Y-93803121D01*
X148973465Y-93746620D01*
X149025536Y-93716556D01*
X149040800Y-93715221D01*
X149405434Y-93715221D01*
X149461935Y-93735786D01*
X149491999Y-93787857D01*
X149492252Y-93789371D01*
X149501579Y-93848262D01*
X149501579Y-93848263D01*
X149501580Y-93848265D01*
X149557723Y-93958453D01*
X149645168Y-94045898D01*
X149755356Y-94102041D01*
X149846778Y-94116521D01*
X149846779Y-94116521D01*
X150408221Y-94116521D01*
X150408222Y-94116521D01*
X150499644Y-94102041D01*
X150609832Y-94045898D01*
X150697277Y-93958453D01*
X150753420Y-93848265D01*
X150767900Y-93756843D01*
X150767900Y-93220399D01*
X150753420Y-93128977D01*
X150697277Y-93018789D01*
X150609832Y-92931344D01*
X150499644Y-92875201D01*
X150499642Y-92875200D01*
X150499641Y-92875200D01*
X150428230Y-92863890D01*
X150408222Y-92860721D01*
X149846778Y-92860721D01*
X149829574Y-92863445D01*
X149755358Y-92875200D01*
X149645168Y-92931344D01*
X149557723Y-93018789D01*
X149501579Y-93128979D01*
X149493044Y-93182871D01*
X149463894Y-93235460D01*
X149407760Y-93257008D01*
X149406226Y-93257021D01*
X149040800Y-93257021D01*
X148984299Y-93236456D01*
X148954235Y-93184385D01*
X148952900Y-93169121D01*
X148952900Y-92928402D01*
X148952900Y-92928395D01*
X148949962Y-92903071D01*
X148904220Y-92799476D01*
X148824145Y-92719401D01*
X148788552Y-92703685D01*
X148720553Y-92673660D01*
X148720551Y-92673659D01*
X148720550Y-92673659D01*
X148713061Y-92672790D01*
X148695237Y-92670722D01*
X148695232Y-92670721D01*
X148695226Y-92670721D01*
X148304774Y-92670721D01*
X148304768Y-92670721D01*
X148304762Y-92670722D01*
X148279450Y-92673659D01*
X148279446Y-92673660D01*
X148175856Y-92719400D01*
X148175853Y-92719402D01*
X148104345Y-92790910D01*
X148049851Y-92816321D01*
X147991773Y-92800758D01*
X147978627Y-92787609D01*
X147978097Y-92788140D01*
X147890916Y-92700959D01*
X147786154Y-92652108D01*
X147786145Y-92652105D01*
X147738413Y-92645821D01*
X147677000Y-92645821D01*
X147423000Y-92645821D01*
X147423000Y-92645820D01*
X147361587Y-92645821D01*
X147361584Y-92645822D01*
X147313854Y-92652104D01*
X147313848Y-92652106D01*
X147209082Y-92700960D01*
X147121903Y-92788140D01*
X147119886Y-92786123D01*
X147080549Y-92813662D01*
X147020652Y-92808416D01*
X146995656Y-92790912D01*
X146924145Y-92719401D01*
X146888552Y-92703685D01*
X146820553Y-92673660D01*
X146820551Y-92673659D01*
X146820550Y-92673659D01*
X146813061Y-92672790D01*
X146795237Y-92670722D01*
X146795232Y-92670721D01*
X146795226Y-92670721D01*
X146404774Y-92670721D01*
X146404768Y-92670721D01*
X146404762Y-92670722D01*
X146379450Y-92673659D01*
X146379446Y-92673660D01*
X146275856Y-92719400D01*
X146195779Y-92799477D01*
X146150039Y-92903067D01*
X146150038Y-92903071D01*
X146147101Y-92928383D01*
X146147100Y-92928402D01*
X146147100Y-93054821D01*
X146126535Y-93111322D01*
X146074464Y-93141386D01*
X146059200Y-93142721D01*
X140586901Y-93142721D01*
X140583086Y-93142554D01*
X140565359Y-93141003D01*
X140539612Y-93138750D01*
X140539607Y-93138751D01*
X140497459Y-93150044D01*
X140493715Y-93150874D01*
X140450739Y-93158452D01*
X140450738Y-93158452D01*
X140447471Y-93160339D01*
X140426276Y-93169118D01*
X140422633Y-93170094D01*
X140386879Y-93195129D01*
X140383645Y-93197189D01*
X140345863Y-93219003D01*
X140345860Y-93219006D01*
X140317822Y-93252419D01*
X140315231Y-93255246D01*
X135026629Y-98543849D01*
X135023801Y-98546439D01*
X134990385Y-98574480D01*
X134990383Y-98574482D01*
X134968567Y-98612267D01*
X134966508Y-98615499D01*
X134941472Y-98651255D01*
X134941472Y-98651257D01*
X134940493Y-98654909D01*
X134931721Y-98676088D01*
X134929833Y-98679358D01*
X134929831Y-98679364D01*
X134922252Y-98722338D01*
X134921423Y-98726080D01*
X134910129Y-98768232D01*
X134912110Y-98790858D01*
X134913933Y-98811707D01*
X134914100Y-98815519D01*
X134914100Y-99844821D01*
X134893535Y-99901322D01*
X134841464Y-99931386D01*
X134826200Y-99932721D01*
X133268463Y-99932721D01*
X133211962Y-99912156D01*
X133192339Y-99888771D01*
X133172706Y-99854765D01*
X133133474Y-99786813D01*
X133017024Y-99657483D01*
X132876230Y-99555189D01*
X132717244Y-99484404D01*
X132717242Y-99484403D01*
X132717241Y-99484403D01*
X132547016Y-99448221D01*
X132372984Y-99448221D01*
X132202758Y-99484403D01*
X132202754Y-99484405D01*
X132043769Y-99555189D01*
X131902977Y-99657482D01*
X131902975Y-99657483D01*
X131786527Y-99786811D01*
X131786525Y-99786813D01*
X131786526Y-99786813D01*
X131699510Y-99937529D01*
X131692289Y-99959753D01*
X131645729Y-100103048D01*
X131627540Y-100276116D01*
X131627540Y-100276125D01*
X130465300Y-100276125D01*
X130465300Y-89712304D01*
X130749884Y-89712304D01*
X130769115Y-89944401D01*
X130769116Y-89944407D01*
X130826286Y-90170165D01*
X130826289Y-90170173D01*
X130897987Y-90333626D01*
X130919840Y-90383446D01*
X130919844Y-90383452D01*
X131047215Y-90578410D01*
X131047216Y-90578412D01*
X131185350Y-90728466D01*
X131204954Y-90749761D01*
X131388740Y-90892807D01*
X131593563Y-91003652D01*
X131813837Y-91079272D01*
X131813839Y-91079272D01*
X131813841Y-91079273D01*
X132043550Y-91117605D01*
X132043554Y-91117605D01*
X132276450Y-91117605D01*
X132506158Y-91079273D01*
X132506158Y-91079272D01*
X132506163Y-91079272D01*
X132726437Y-91003652D01*
X132931260Y-90892807D01*
X133115046Y-90749761D01*
X133272780Y-90578416D01*
X133400160Y-90383446D01*
X133493712Y-90170169D01*
X133509855Y-90106421D01*
X133550883Y-89944407D01*
X133550884Y-89944401D01*
X133550923Y-89943935D01*
X133561804Y-89812618D01*
X144927200Y-89812618D01*
X144933580Y-89861080D01*
X144933583Y-89861089D01*
X144983179Y-89967449D01*
X145066171Y-90050441D01*
X145172531Y-90100037D01*
X145172540Y-90100040D01*
X145221002Y-90106421D01*
X145345499Y-90106421D01*
X145345500Y-90106420D01*
X145345500Y-89745622D01*
X145345499Y-89745621D01*
X144927201Y-89745621D01*
X144927200Y-89745622D01*
X144927200Y-89812618D01*
X133561804Y-89812618D01*
X133570116Y-89712305D01*
X133551830Y-89491620D01*
X144927200Y-89491620D01*
X144927201Y-89491621D01*
X145345499Y-89491621D01*
X145345500Y-89491620D01*
X145345500Y-89130821D01*
X145221002Y-89130821D01*
X145172540Y-89137201D01*
X145172531Y-89137204D01*
X145066171Y-89186800D01*
X144983179Y-89269792D01*
X144933583Y-89376152D01*
X144933580Y-89376161D01*
X144927200Y-89424623D01*
X144927200Y-89491620D01*
X133551830Y-89491620D01*
X133550884Y-89480208D01*
X133550883Y-89480202D01*
X133493713Y-89254444D01*
X133493710Y-89254436D01*
X133451720Y-89158708D01*
X133400160Y-89041164D01*
X133332453Y-88937530D01*
X133272784Y-88846199D01*
X133272783Y-88846197D01*
X133115050Y-88674853D01*
X133115048Y-88674852D01*
X133115046Y-88674849D01*
X132931260Y-88531803D01*
X132726437Y-88420958D01*
X132726433Y-88420956D01*
X132726430Y-88420955D01*
X132506167Y-88345339D01*
X132506158Y-88345336D01*
X132276450Y-88307005D01*
X132276446Y-88307005D01*
X132043554Y-88307005D01*
X132043550Y-88307005D01*
X131813841Y-88345336D01*
X131813832Y-88345339D01*
X131593569Y-88420955D01*
X131593564Y-88420957D01*
X131593563Y-88420958D01*
X131388740Y-88531803D01*
X131379779Y-88538778D01*
X131204949Y-88674853D01*
X131047216Y-88846197D01*
X131047215Y-88846199D01*
X130919844Y-89041157D01*
X130919835Y-89041174D01*
X130826289Y-89254436D01*
X130826286Y-89254444D01*
X130769116Y-89480202D01*
X130769115Y-89480208D01*
X130749884Y-89712304D01*
X130465300Y-89712304D01*
X130465300Y-88784618D01*
X130485865Y-88728118D01*
X130509248Y-88708496D01*
X132895735Y-87330657D01*
X142807100Y-87330657D01*
X142815972Y-87375256D01*
X142815972Y-87375257D01*
X142849766Y-87425833D01*
X142866701Y-87437149D01*
X142900341Y-87459627D01*
X142907741Y-87461098D01*
X142944943Y-87468499D01*
X144675056Y-87468498D01*
X144675058Y-87468498D01*
X144687750Y-87465973D01*
X144719658Y-87459627D01*
X144770234Y-87425833D01*
X144804028Y-87375257D01*
X144812900Y-87330656D01*
X144812899Y-86465598D01*
X145342247Y-86465598D01*
X145361612Y-86662208D01*
X145418957Y-86851247D01*
X145418958Y-86851249D01*
X145512084Y-87025477D01*
X145637411Y-87178188D01*
X145790122Y-87303515D01*
X145964350Y-87396641D01*
X146058516Y-87425206D01*
X146149546Y-87452820D01*
X146153397Y-87453988D01*
X146350000Y-87473352D01*
X146546603Y-87453988D01*
X146735650Y-87396641D01*
X146909878Y-87303515D01*
X147062589Y-87178188D01*
X147080752Y-87156055D01*
X147132492Y-87125425D01*
X147191816Y-87135219D01*
X147230966Y-87180854D01*
X147236600Y-87211818D01*
X147236600Y-88467470D01*
X147216035Y-88523971D01*
X147210855Y-88529625D01*
X146610504Y-89129976D01*
X146556010Y-89155387D01*
X146548349Y-89155721D01*
X146349032Y-89155721D01*
X146349026Y-89155721D01*
X146349020Y-89155722D01*
X146323284Y-89158708D01*
X146323281Y-89158709D01*
X146217982Y-89205204D01*
X146136583Y-89286603D01*
X146133623Y-89293308D01*
X146091986Y-89336686D01*
X146032208Y-89343152D01*
X145982258Y-89309681D01*
X145973549Y-89294947D01*
X145961818Y-89269790D01*
X145878828Y-89186800D01*
X145772468Y-89137204D01*
X145772459Y-89137201D01*
X145723998Y-89130821D01*
X145599500Y-89130821D01*
X145599500Y-90106420D01*
X145599501Y-90106421D01*
X145723998Y-90106421D01*
X145772459Y-90100040D01*
X145772468Y-90100037D01*
X145878828Y-90050441D01*
X145961818Y-89967451D01*
X145973549Y-89942295D01*
X146016065Y-89899778D01*
X146075963Y-89894537D01*
X146125217Y-89929024D01*
X146133621Y-89943930D01*
X146136584Y-89950640D01*
X146217981Y-90032037D01*
X146217982Y-90032037D01*
X146217984Y-90032039D01*
X146224703Y-90036642D01*
X146222593Y-90039721D01*
X146255075Y-90070879D01*
X146264100Y-90109676D01*
X146264100Y-90419746D01*
X146243535Y-90476247D01*
X146238355Y-90481900D01*
X146195781Y-90524474D01*
X146195779Y-90524477D01*
X146150039Y-90628067D01*
X146150038Y-90628071D01*
X146147101Y-90653383D01*
X146147100Y-90653402D01*
X146147100Y-91768839D01*
X146147101Y-91768858D01*
X146150038Y-91794170D01*
X146150039Y-91794174D01*
X146195779Y-91897764D01*
X146195780Y-91897766D01*
X146275855Y-91977841D01*
X146379450Y-92023583D01*
X146404774Y-92026521D01*
X146404781Y-92026521D01*
X146795219Y-92026521D01*
X146795226Y-92026521D01*
X146820550Y-92023583D01*
X146924145Y-91977841D01*
X147004220Y-91897766D01*
X147049962Y-91794171D01*
X147052900Y-91768847D01*
X147052900Y-91768839D01*
X148047100Y-91768839D01*
X148047101Y-91768858D01*
X148050038Y-91794170D01*
X148050039Y-91794174D01*
X148095779Y-91897764D01*
X148095780Y-91897766D01*
X148175855Y-91977841D01*
X148279450Y-92023583D01*
X148304774Y-92026521D01*
X148304781Y-92026521D01*
X148695219Y-92026521D01*
X148695226Y-92026521D01*
X148720550Y-92023583D01*
X148824145Y-91977841D01*
X148904220Y-91897766D01*
X148949962Y-91794171D01*
X148952900Y-91768847D01*
X148952900Y-91528120D01*
X148973465Y-91471620D01*
X149025536Y-91441556D01*
X149040800Y-91440221D01*
X149407810Y-91440221D01*
X149464311Y-91460786D01*
X149494375Y-91512857D01*
X149494628Y-91514371D01*
X149501579Y-91558262D01*
X149501579Y-91558263D01*
X149501580Y-91558265D01*
X149557723Y-91668453D01*
X149645168Y-91755898D01*
X149755356Y-91812041D01*
X149846778Y-91826521D01*
X149846779Y-91826521D01*
X150408221Y-91826521D01*
X150408222Y-91826521D01*
X150499644Y-91812041D01*
X150609832Y-91755898D01*
X150660846Y-91704883D01*
X150715338Y-91679473D01*
X150773417Y-91695034D01*
X150807905Y-91744287D01*
X150810900Y-91767038D01*
X150810900Y-92568971D01*
X150810840Y-92571272D01*
X150808666Y-92612760D01*
X150817177Y-92634933D01*
X150821092Y-92648150D01*
X150826031Y-92671388D01*
X150830124Y-92677021D01*
X150841071Y-92697182D01*
X150843567Y-92703683D01*
X150843568Y-92703685D01*
X150860364Y-92720482D01*
X150869320Y-92730968D01*
X150883276Y-92750177D01*
X150883278Y-92750179D01*
X150889308Y-92753660D01*
X150907510Y-92767627D01*
X151287018Y-93147136D01*
X151312429Y-93201630D01*
X151311903Y-93216922D01*
X151312371Y-93216959D01*
X151312100Y-93220401D01*
X151312100Y-93756842D01*
X151326579Y-93848262D01*
X151326579Y-93848263D01*
X151326580Y-93848265D01*
X151382723Y-93958453D01*
X151470168Y-94045898D01*
X151580356Y-94102041D01*
X151671778Y-94116521D01*
X151671779Y-94116521D01*
X152233221Y-94116521D01*
X152233222Y-94116521D01*
X152324644Y-94102041D01*
X152434832Y-94045898D01*
X152522277Y-93958453D01*
X152578420Y-93848265D01*
X152592900Y-93756843D01*
X152592900Y-93220399D01*
X152578420Y-93128977D01*
X152522277Y-93018789D01*
X152434832Y-92931344D01*
X152324644Y-92875201D01*
X152324642Y-92875200D01*
X152324641Y-92875200D01*
X152253230Y-92863890D01*
X152233222Y-92860721D01*
X151685007Y-92860721D01*
X151628506Y-92840156D01*
X151622852Y-92834976D01*
X151294845Y-92506969D01*
X151269434Y-92452475D01*
X151269100Y-92444814D01*
X151269100Y-91802253D01*
X151289665Y-91745752D01*
X151341736Y-91715688D01*
X151400950Y-91726129D01*
X151419155Y-91740098D01*
X151455351Y-91776294D01*
X151572567Y-91836018D01*
X151669816Y-91851421D01*
X151825499Y-91851421D01*
X151825500Y-91851420D01*
X152079500Y-91851420D01*
X152079501Y-91851421D01*
X152235184Y-91851421D01*
X152332432Y-91836018D01*
X152449648Y-91776294D01*
X152542673Y-91683269D01*
X152602397Y-91566053D01*
X152617800Y-91468805D01*
X152617800Y-91325622D01*
X152617799Y-91325621D01*
X152079501Y-91325621D01*
X152079500Y-91325622D01*
X152079500Y-91851420D01*
X151825500Y-91851420D01*
X151825500Y-91071620D01*
X152079500Y-91071620D01*
X152079501Y-91071621D01*
X152617799Y-91071621D01*
X152617800Y-91071619D01*
X152617800Y-90928436D01*
X152602397Y-90831188D01*
X152542673Y-90713972D01*
X152449648Y-90620947D01*
X152332432Y-90561223D01*
X152235184Y-90545821D01*
X152079501Y-90545821D01*
X152079500Y-90545822D01*
X152079500Y-91071620D01*
X151825500Y-91071620D01*
X151825500Y-90545821D01*
X151669816Y-90545821D01*
X151572567Y-90561223D01*
X151455351Y-90620947D01*
X151419155Y-90657144D01*
X151364661Y-90682555D01*
X151306583Y-90666992D01*
X151272095Y-90617739D01*
X151269100Y-90594989D01*
X151269100Y-89775776D01*
X151269160Y-89773476D01*
X151270619Y-89745621D01*
X151271334Y-89731982D01*
X151262819Y-89709800D01*
X151258907Y-89696592D01*
X151253969Y-89673356D01*
X151249874Y-89667720D01*
X151238927Y-89647556D01*
X151236433Y-89641059D01*
X151236432Y-89641058D01*
X151236432Y-89641057D01*
X151219630Y-89624255D01*
X151210677Y-89613771D01*
X151197249Y-89595288D01*
X152152100Y-89595288D01*
X152158099Y-89640855D01*
X152158100Y-89640858D01*
X152170627Y-89667721D01*
X152204733Y-89740862D01*
X152282759Y-89818888D01*
X152382766Y-89865522D01*
X152417730Y-89870124D01*
X152428332Y-89871521D01*
X152428334Y-89871521D01*
X152543166Y-89871521D01*
X152567929Y-89875081D01*
X152590541Y-89881721D01*
X152590542Y-89881721D01*
X152729458Y-89881721D01*
X152729459Y-89881721D01*
X152752070Y-89875081D01*
X152776834Y-89871521D01*
X152896668Y-89871521D01*
X152906164Y-89870270D01*
X152942234Y-89865522D01*
X153042241Y-89818888D01*
X153120267Y-89740862D01*
X153166901Y-89640855D01*
X153172851Y-89595653D01*
X153200616Y-89542320D01*
X153256167Y-89519311D01*
X153313511Y-89537392D01*
X153345817Y-89588103D01*
X153347148Y-89595653D01*
X153353099Y-89640855D01*
X153353100Y-89640858D01*
X153365627Y-89667721D01*
X153399733Y-89740862D01*
X153477759Y-89818888D01*
X153577649Y-89865467D01*
X153620164Y-89907983D01*
X153628400Y-89945131D01*
X153628400Y-89963971D01*
X153628340Y-89966272D01*
X153628278Y-89967451D01*
X153626166Y-90007760D01*
X153634677Y-90029933D01*
X153638592Y-90043150D01*
X153643531Y-90066388D01*
X153647624Y-90072021D01*
X153658571Y-90092182D01*
X153661067Y-90098683D01*
X153661068Y-90098685D01*
X153677864Y-90115482D01*
X153686820Y-90125968D01*
X153700776Y-90145177D01*
X153700778Y-90145179D01*
X153706808Y-90148660D01*
X153725010Y-90162627D01*
X154192951Y-90630569D01*
X154194535Y-90632238D01*
X154222330Y-90663107D01*
X154222331Y-90663107D01*
X154222332Y-90663108D01*
X154244022Y-90672765D01*
X154256144Y-90679347D01*
X154274051Y-90690975D01*
X154276063Y-90692282D01*
X154282939Y-90693371D01*
X154304942Y-90699889D01*
X154311301Y-90702720D01*
X154311302Y-90702721D01*
X154311303Y-90702721D01*
X154335052Y-90702721D01*
X154348802Y-90703803D01*
X154372258Y-90707518D01*
X154378983Y-90705715D01*
X154401733Y-90702721D01*
X155728694Y-90702721D01*
X155785195Y-90723286D01*
X155790849Y-90728466D01*
X163586444Y-98524061D01*
X163611855Y-98578555D01*
X163611294Y-98598725D01*
X163596932Y-98698617D01*
X163596932Y-98698624D01*
X163616700Y-98836119D01*
X163616701Y-98836124D01*
X163616702Y-98836126D01*
X163674411Y-98962490D01*
X163720363Y-99015522D01*
X163747134Y-99046418D01*
X163765383Y-99067478D01*
X163765385Y-99067479D01*
X163765386Y-99067480D01*
X163882245Y-99142581D01*
X163882246Y-99142581D01*
X163882249Y-99142583D01*
X163973035Y-99169240D01*
X164015536Y-99181720D01*
X164015539Y-99181720D01*
X164015541Y-99181721D01*
X164015542Y-99181721D01*
X164154458Y-99181721D01*
X164154459Y-99181721D01*
X164154461Y-99181720D01*
X164154463Y-99181720D01*
X164170305Y-99177067D01*
X164287751Y-99142583D01*
X164404617Y-99067478D01*
X164495589Y-98962490D01*
X164553298Y-98836126D01*
X164559714Y-98791502D01*
X164573068Y-98698624D01*
X164573068Y-98698617D01*
X164553299Y-98561122D01*
X164553298Y-98561121D01*
X164553298Y-98561116D01*
X164495589Y-98434752D01*
X164415329Y-98342126D01*
X164404618Y-98329765D01*
X164404613Y-98329761D01*
X164287754Y-98254660D01*
X164287751Y-98254659D01*
X164261092Y-98246831D01*
X164154463Y-98215521D01*
X164154459Y-98215521D01*
X164015541Y-98215521D01*
X164015538Y-98215521D01*
X163996283Y-98221175D01*
X163936277Y-98217360D01*
X163909365Y-98198990D01*
X156027039Y-90316662D01*
X156025470Y-90315010D01*
X155997670Y-90284135D01*
X155997669Y-90284134D01*
X155975972Y-90274473D01*
X155963858Y-90267896D01*
X155951022Y-90259561D01*
X155943936Y-90254960D01*
X155943933Y-90254959D01*
X155943932Y-90254959D01*
X155937058Y-90253870D01*
X155915064Y-90247355D01*
X155908699Y-90244521D01*
X155908697Y-90244521D01*
X155884947Y-90244521D01*
X155871197Y-90243439D01*
X155859119Y-90241526D01*
X155847743Y-90239724D01*
X155847740Y-90239724D01*
X155841017Y-90241526D01*
X155818267Y-90244521D01*
X154491306Y-90244521D01*
X154434805Y-90223956D01*
X154429151Y-90218776D01*
X154184169Y-89973793D01*
X154158758Y-89919299D01*
X154174321Y-89861220D01*
X154209175Y-89831975D01*
X154237241Y-89818888D01*
X154315267Y-89740862D01*
X154361901Y-89640855D01*
X154367900Y-89595287D01*
X154367900Y-89248626D01*
X154388465Y-89192125D01*
X154393634Y-89186482D01*
X155391965Y-88188150D01*
X155393598Y-88186601D01*
X155424486Y-88158791D01*
X155434145Y-88137094D01*
X155440719Y-88124985D01*
X155453661Y-88105058D01*
X155454749Y-88098181D01*
X155461265Y-88076183D01*
X155464100Y-88069818D01*
X155464100Y-88046067D01*
X155465182Y-88032317D01*
X155468897Y-88008863D01*
X155467094Y-88002135D01*
X155464099Y-87979394D01*
X155464099Y-86987279D01*
X155484664Y-86930780D01*
X155536735Y-86900716D01*
X155595949Y-86911157D01*
X155629520Y-86945845D01*
X155672084Y-87025477D01*
X155797411Y-87178188D01*
X155950122Y-87303515D01*
X156124350Y-87396641D01*
X156215491Y-87424288D01*
X156218516Y-87425206D01*
X156266614Y-87461286D01*
X156280900Y-87509321D01*
X156280900Y-88874260D01*
X156260335Y-88930761D01*
X156230149Y-88953924D01*
X156177758Y-88978354D01*
X156099733Y-89056379D01*
X156053100Y-89156383D01*
X156053099Y-89156386D01*
X156047148Y-89201588D01*
X156019384Y-89254921D01*
X155963833Y-89277930D01*
X155906489Y-89259849D01*
X155874183Y-89209138D01*
X155872852Y-89201588D01*
X155870905Y-89186800D01*
X155866901Y-89156387D01*
X155820267Y-89056380D01*
X155742241Y-88978354D01*
X155654694Y-88937530D01*
X155642237Y-88931721D01*
X155642234Y-88931720D01*
X155596668Y-88925721D01*
X155596666Y-88925721D01*
X155476834Y-88925721D01*
X155452070Y-88922160D01*
X155439075Y-88918344D01*
X155429460Y-88915521D01*
X155429459Y-88915521D01*
X155290541Y-88915521D01*
X155290539Y-88915521D01*
X155277047Y-88919483D01*
X155267929Y-88922160D01*
X155243166Y-88925721D01*
X155128332Y-88925721D01*
X155082765Y-88931720D01*
X155082762Y-88931721D01*
X154982758Y-88978354D01*
X154904733Y-89056379D01*
X154858100Y-89156383D01*
X154858099Y-89156386D01*
X154852100Y-89201953D01*
X154852100Y-89595288D01*
X154858099Y-89640855D01*
X154858100Y-89640858D01*
X154870627Y-89667721D01*
X154904733Y-89740862D01*
X154982759Y-89818888D01*
X155082766Y-89865522D01*
X155117730Y-89870124D01*
X155128332Y-89871521D01*
X155128334Y-89871521D01*
X155243166Y-89871521D01*
X155267929Y-89875081D01*
X155290541Y-89881721D01*
X155290542Y-89881721D01*
X155429458Y-89881721D01*
X155429459Y-89881721D01*
X155452070Y-89875081D01*
X155476834Y-89871521D01*
X155596668Y-89871521D01*
X155606164Y-89870270D01*
X155642234Y-89865522D01*
X155742241Y-89818888D01*
X155820267Y-89740862D01*
X155866901Y-89640855D01*
X155872851Y-89595653D01*
X155900616Y-89542320D01*
X155956167Y-89519311D01*
X156013511Y-89537392D01*
X156045817Y-89588103D01*
X156047148Y-89595653D01*
X156053099Y-89640855D01*
X156053100Y-89640858D01*
X156065627Y-89667721D01*
X156099733Y-89740862D01*
X156177759Y-89818888D01*
X156277766Y-89865522D01*
X156312730Y-89870124D01*
X156323332Y-89871521D01*
X156323334Y-89871521D01*
X156669994Y-89871521D01*
X156726495Y-89892086D01*
X156732149Y-89897266D01*
X165179844Y-98344962D01*
X165205255Y-98399456D01*
X165204695Y-98419625D01*
X165196932Y-98473624D01*
X165216700Y-98611119D01*
X165216701Y-98611124D01*
X165216702Y-98611126D01*
X165274411Y-98737490D01*
X165365383Y-98842478D01*
X165365385Y-98842479D01*
X165365386Y-98842480D01*
X165482245Y-98917581D01*
X165482246Y-98917581D01*
X165482249Y-98917583D01*
X165573035Y-98944240D01*
X165615536Y-98956720D01*
X165615539Y-98956720D01*
X165615541Y-98956721D01*
X165615542Y-98956721D01*
X165754458Y-98956721D01*
X165754459Y-98956721D01*
X165754461Y-98956720D01*
X165754463Y-98956720D01*
X165770305Y-98952068D01*
X165887751Y-98917583D01*
X166004617Y-98842478D01*
X166095589Y-98737490D01*
X166153298Y-98611126D01*
X166157981Y-98578555D01*
X166173068Y-98473624D01*
X166173068Y-98473617D01*
X166153299Y-98336122D01*
X166153298Y-98336121D01*
X166153298Y-98336116D01*
X166095589Y-98209752D01*
X166004617Y-98104764D01*
X166004615Y-98104763D01*
X166004613Y-98104761D01*
X165887754Y-98029660D01*
X165887751Y-98029659D01*
X165861092Y-98021831D01*
X165754463Y-97990521D01*
X165754459Y-97990521D01*
X165615541Y-97990521D01*
X165615538Y-97990521D01*
X165555699Y-98008091D01*
X165495693Y-98004276D01*
X165468781Y-97985906D01*
X161285996Y-93803121D01*
X157195181Y-89712305D01*
X166749884Y-89712305D01*
X166769115Y-89944401D01*
X166769116Y-89944407D01*
X166826286Y-90170165D01*
X166826289Y-90170173D01*
X166897987Y-90333626D01*
X166919840Y-90383446D01*
X166919844Y-90383452D01*
X167047215Y-90578410D01*
X167047216Y-90578412D01*
X167185350Y-90728466D01*
X167204954Y-90749761D01*
X167388740Y-90892807D01*
X167593563Y-91003652D01*
X167813837Y-91079272D01*
X167813839Y-91079272D01*
X167813841Y-91079273D01*
X168043550Y-91117605D01*
X168043554Y-91117605D01*
X168276450Y-91117605D01*
X168506158Y-91079273D01*
X168506158Y-91079272D01*
X168506163Y-91079272D01*
X168726437Y-91003652D01*
X168931260Y-90892807D01*
X169115046Y-90749761D01*
X169272780Y-90578416D01*
X169400160Y-90383446D01*
X169493712Y-90170169D01*
X169509855Y-90106421D01*
X169550883Y-89944407D01*
X169550884Y-89944401D01*
X169550923Y-89943935D01*
X169570116Y-89712305D01*
X169550884Y-89480208D01*
X169550883Y-89480202D01*
X169493713Y-89254444D01*
X169493710Y-89254436D01*
X169451720Y-89158708D01*
X169400160Y-89041164D01*
X169332453Y-88937530D01*
X169272784Y-88846199D01*
X169272783Y-88846197D01*
X169115050Y-88674853D01*
X169115048Y-88674852D01*
X169115046Y-88674849D01*
X168931260Y-88531803D01*
X168726437Y-88420958D01*
X168726433Y-88420956D01*
X168726430Y-88420955D01*
X168506167Y-88345339D01*
X168506158Y-88345336D01*
X168276450Y-88307005D01*
X168276446Y-88307005D01*
X168043554Y-88307005D01*
X168043550Y-88307005D01*
X167813841Y-88345336D01*
X167813832Y-88345339D01*
X167593569Y-88420955D01*
X167593564Y-88420957D01*
X167593563Y-88420958D01*
X167388740Y-88531803D01*
X167379779Y-88538778D01*
X167204949Y-88674853D01*
X167047216Y-88846197D01*
X167047215Y-88846199D01*
X166919844Y-89041157D01*
X166919835Y-89041174D01*
X166826289Y-89254436D01*
X166826286Y-89254444D01*
X166769116Y-89480202D01*
X166769115Y-89480208D01*
X166749884Y-89712305D01*
X157195181Y-89712305D01*
X157093645Y-89610769D01*
X157068234Y-89556275D01*
X157067900Y-89548614D01*
X157067900Y-89201953D01*
X157065905Y-89186800D01*
X157061901Y-89156387D01*
X157015267Y-89056380D01*
X156937241Y-88978354D01*
X156849694Y-88937530D01*
X156837237Y-88931721D01*
X156837235Y-88931720D01*
X156815525Y-88928862D01*
X156762192Y-88901097D01*
X156739184Y-88845547D01*
X156739100Y-88841714D01*
X156739100Y-87509321D01*
X156759665Y-87452820D01*
X156801484Y-87425206D01*
X156803020Y-87424739D01*
X156895650Y-87396641D01*
X157069878Y-87303515D01*
X157222589Y-87178188D01*
X157347916Y-87025477D01*
X157441042Y-86851249D01*
X157498389Y-86662202D01*
X157517753Y-86465599D01*
X157498389Y-86268996D01*
X157441042Y-86079949D01*
X157347916Y-85905721D01*
X157222589Y-85753010D01*
X157069878Y-85627683D01*
X156895650Y-85534557D01*
X156895649Y-85534556D01*
X156895648Y-85534556D01*
X156706609Y-85477211D01*
X156706604Y-85477210D01*
X156706603Y-85477210D01*
X156510000Y-85457846D01*
X156509999Y-85457846D01*
X156462657Y-85462508D01*
X156313397Y-85477210D01*
X156313395Y-85477210D01*
X156313390Y-85477211D01*
X156124351Y-85534556D01*
X155950121Y-85627683D01*
X155797413Y-85753008D01*
X155797409Y-85753012D01*
X155672084Y-85905720D01*
X155629520Y-85985353D01*
X155584749Y-86025488D01*
X155524654Y-86027455D01*
X155477354Y-85990334D01*
X155464099Y-85943917D01*
X155464099Y-85331904D01*
X155484664Y-85275403D01*
X155489833Y-85269760D01*
X155933975Y-84825618D01*
X155988468Y-84800208D01*
X156037562Y-84810252D01*
X156124350Y-84856641D01*
X156313397Y-84913988D01*
X156510000Y-84933352D01*
X156706603Y-84913988D01*
X156895650Y-84856641D01*
X157069878Y-84763515D01*
X157222589Y-84638188D01*
X157347916Y-84485477D01*
X157441042Y-84311249D01*
X157498389Y-84122202D01*
X157517753Y-83925599D01*
X157498389Y-83728996D01*
X157441042Y-83539949D01*
X157347916Y-83365721D01*
X157222589Y-83213010D01*
X157069878Y-83087683D01*
X156895650Y-82994557D01*
X156895649Y-82994556D01*
X156895648Y-82994556D01*
X156706609Y-82937211D01*
X156706604Y-82937210D01*
X156706603Y-82937210D01*
X156510000Y-82917846D01*
X156313397Y-82937210D01*
X156313395Y-82937210D01*
X156313390Y-82937211D01*
X156124351Y-82994556D01*
X155950121Y-83087683D01*
X155797413Y-83213008D01*
X155797409Y-83213012D01*
X155672084Y-83365720D01*
X155578957Y-83539950D01*
X155521612Y-83728989D01*
X155502247Y-83925599D01*
X155521612Y-84122208D01*
X155578957Y-84311247D01*
X155625344Y-84398031D01*
X155633842Y-84457555D01*
X155609978Y-84501622D01*
X155078040Y-85033560D01*
X155076372Y-85035143D01*
X155045514Y-85062928D01*
X155045513Y-85062929D01*
X155045514Y-85062929D01*
X155035849Y-85084633D01*
X155029278Y-85096736D01*
X155025177Y-85103053D01*
X155016338Y-85116664D01*
X155015248Y-85123546D01*
X155008735Y-85145533D01*
X155005900Y-85151902D01*
X155005900Y-85175650D01*
X155004818Y-85189399D01*
X155001103Y-85212854D01*
X155001103Y-85212857D01*
X155002905Y-85219581D01*
X155005900Y-85242332D01*
X155005900Y-85925207D01*
X154985335Y-85981708D01*
X154933264Y-86011772D01*
X154874050Y-86001331D01*
X154840479Y-85966643D01*
X154807915Y-85905720D01*
X154760399Y-85847822D01*
X154682589Y-85753010D01*
X154529878Y-85627683D01*
X154355650Y-85534557D01*
X154355649Y-85534556D01*
X154355648Y-85534556D01*
X154166609Y-85477211D01*
X154166604Y-85477210D01*
X154166603Y-85477210D01*
X153970000Y-85457846D01*
X153773397Y-85477210D01*
X153773395Y-85477210D01*
X153773390Y-85477211D01*
X153584351Y-85534556D01*
X153410121Y-85627683D01*
X153257413Y-85753008D01*
X153257409Y-85753012D01*
X153132084Y-85905720D01*
X153038957Y-86079950D01*
X152981612Y-86268989D01*
X152962247Y-86465599D01*
X152981612Y-86662208D01*
X153038957Y-86851247D01*
X153038958Y-86851249D01*
X153132084Y-87025477D01*
X153257411Y-87178188D01*
X153410122Y-87303515D01*
X153584350Y-87396641D01*
X153678516Y-87425206D01*
X153769546Y-87452820D01*
X153773397Y-87453988D01*
X153970000Y-87473352D01*
X154166603Y-87453988D01*
X154355650Y-87396641D01*
X154529878Y-87303515D01*
X154682589Y-87178188D01*
X154807916Y-87025477D01*
X154840479Y-86964554D01*
X154885250Y-86924419D01*
X154945344Y-86922451D01*
X154992645Y-86959572D01*
X155005900Y-87005990D01*
X155005900Y-87889813D01*
X154985335Y-87946314D01*
X154980155Y-87951968D01*
X154032148Y-88899976D01*
X153977654Y-88925387D01*
X153969993Y-88925721D01*
X153623332Y-88925721D01*
X153577765Y-88931720D01*
X153577762Y-88931721D01*
X153477758Y-88978354D01*
X153399733Y-89056379D01*
X153353100Y-89156383D01*
X153353099Y-89156386D01*
X153347148Y-89201588D01*
X153319384Y-89254921D01*
X153263833Y-89277930D01*
X153206489Y-89259849D01*
X153174183Y-89209138D01*
X153172852Y-89201588D01*
X153170905Y-89186800D01*
X153166901Y-89156387D01*
X153120267Y-89056380D01*
X153042241Y-88978354D01*
X152954694Y-88937530D01*
X152942237Y-88931721D01*
X152942234Y-88931720D01*
X152896668Y-88925721D01*
X152896666Y-88925721D01*
X152776834Y-88925721D01*
X152752070Y-88922160D01*
X152739075Y-88918344D01*
X152729460Y-88915521D01*
X152729459Y-88915521D01*
X152590541Y-88915521D01*
X152590539Y-88915521D01*
X152577047Y-88919483D01*
X152567929Y-88922160D01*
X152543166Y-88925721D01*
X152428332Y-88925721D01*
X152382765Y-88931720D01*
X152382762Y-88931721D01*
X152282758Y-88978354D01*
X152204733Y-89056379D01*
X152158100Y-89156383D01*
X152158099Y-89156386D01*
X152152100Y-89201953D01*
X152152100Y-89595288D01*
X151197249Y-89595288D01*
X151196722Y-89594563D01*
X151190691Y-89591081D01*
X151172486Y-89577111D01*
X151108555Y-89513179D01*
X151083144Y-89458685D01*
X151083704Y-89438520D01*
X151098068Y-89338621D01*
X151098068Y-89338617D01*
X151078299Y-89201122D01*
X151078298Y-89201121D01*
X151078298Y-89201116D01*
X151020589Y-89074752D01*
X150929617Y-88969764D01*
X150929615Y-88969763D01*
X150929613Y-88969761D01*
X150812754Y-88894660D01*
X150812751Y-88894659D01*
X150786092Y-88886831D01*
X150679463Y-88855521D01*
X150679459Y-88855521D01*
X150540541Y-88855521D01*
X150540536Y-88855521D01*
X150407249Y-88894659D01*
X150407245Y-88894660D01*
X150290386Y-88969761D01*
X150290381Y-88969765D01*
X150199410Y-89074753D01*
X150141702Y-89201116D01*
X150141700Y-89201122D01*
X150121932Y-89338617D01*
X150121932Y-89338624D01*
X150141700Y-89476119D01*
X150141701Y-89476124D01*
X150141702Y-89476126D01*
X150199411Y-89602490D01*
X150290383Y-89707478D01*
X150290385Y-89707479D01*
X150290386Y-89707480D01*
X150407245Y-89782581D01*
X150407246Y-89782581D01*
X150407249Y-89782583D01*
X150498035Y-89809240D01*
X150540536Y-89821720D01*
X150540539Y-89821720D01*
X150540541Y-89821721D01*
X150540542Y-89821721D01*
X150679455Y-89821721D01*
X150679459Y-89821721D01*
X150698236Y-89816207D01*
X150758240Y-89820019D01*
X150801757Y-89861510D01*
X150810900Y-89900546D01*
X150810900Y-90630203D01*
X150790335Y-90686704D01*
X150738264Y-90716768D01*
X150679050Y-90706327D01*
X150660849Y-90692361D01*
X150609832Y-90641344D01*
X150499644Y-90585201D01*
X150499642Y-90585200D01*
X150499641Y-90585200D01*
X150429414Y-90574077D01*
X150408222Y-90570721D01*
X149846778Y-90570721D01*
X149829574Y-90573445D01*
X149755358Y-90585200D01*
X149645168Y-90641344D01*
X149557723Y-90728789D01*
X149501579Y-90838979D01*
X149490668Y-90907872D01*
X149461518Y-90960460D01*
X149405384Y-90982008D01*
X149403850Y-90982021D01*
X149040800Y-90982021D01*
X148984299Y-90961456D01*
X148954235Y-90909385D01*
X148952900Y-90894121D01*
X148952900Y-90653402D01*
X148952900Y-90653395D01*
X148949962Y-90628071D01*
X148904220Y-90524476D01*
X148824145Y-90444401D01*
X148802279Y-90434746D01*
X148720553Y-90398660D01*
X148720551Y-90398659D01*
X148720550Y-90398659D01*
X148713061Y-90397790D01*
X148695237Y-90395722D01*
X148695232Y-90395721D01*
X148695226Y-90395721D01*
X148304774Y-90395721D01*
X148304768Y-90395721D01*
X148304762Y-90395722D01*
X148279450Y-90398659D01*
X148279446Y-90398660D01*
X148175856Y-90444400D01*
X148095779Y-90524477D01*
X148050039Y-90628067D01*
X148050038Y-90628071D01*
X148047101Y-90653383D01*
X148047100Y-90653402D01*
X148047100Y-91768839D01*
X147052900Y-91768839D01*
X147052900Y-90653395D01*
X147049962Y-90628071D01*
X147004220Y-90524476D01*
X146976644Y-90496900D01*
X146951234Y-90442406D01*
X146950900Y-90434746D01*
X146950900Y-90109676D01*
X146971465Y-90053175D01*
X146991378Y-90038220D01*
X146990297Y-90036642D01*
X146997015Y-90032039D01*
X146997015Y-90032038D01*
X146997019Y-90032037D01*
X147078416Y-89950640D01*
X147124913Y-89845336D01*
X147127900Y-89819589D01*
X147127900Y-89620270D01*
X147148465Y-89563770D01*
X147153634Y-89558127D01*
X147810884Y-88900876D01*
X147813693Y-88898303D01*
X147847117Y-88870259D01*
X147868940Y-88832457D01*
X147870985Y-88829248D01*
X147896027Y-88793487D01*
X147897001Y-88789848D01*
X147905787Y-88768639D01*
X147907667Y-88765383D01*
X147907668Y-88765382D01*
X147915247Y-88722392D01*
X147916072Y-88718670D01*
X147927370Y-88676512D01*
X147923567Y-88633039D01*
X147923400Y-88629207D01*
X147923400Y-87114338D01*
X147943965Y-87057837D01*
X147996036Y-87027773D01*
X148055250Y-87038214D01*
X148079244Y-87058571D01*
X148177411Y-87178188D01*
X148330122Y-87303515D01*
X148504350Y-87396641D01*
X148598516Y-87425206D01*
X148689546Y-87452820D01*
X148693397Y-87453988D01*
X148890000Y-87473352D01*
X149086603Y-87453988D01*
X149275650Y-87396641D01*
X149449878Y-87303515D01*
X149602589Y-87178188D01*
X149727916Y-87025477D01*
X149821042Y-86851249D01*
X149878389Y-86662202D01*
X149897753Y-86465599D01*
X150422247Y-86465599D01*
X150441612Y-86662208D01*
X150498957Y-86851247D01*
X150498958Y-86851249D01*
X150592084Y-87025477D01*
X150717411Y-87178188D01*
X150870122Y-87303515D01*
X151044350Y-87396641D01*
X151138516Y-87425206D01*
X151229546Y-87452820D01*
X151233397Y-87453988D01*
X151430000Y-87473352D01*
X151626603Y-87453988D01*
X151815650Y-87396641D01*
X151989878Y-87303515D01*
X152142589Y-87178188D01*
X152267916Y-87025477D01*
X152361042Y-86851249D01*
X152418389Y-86662202D01*
X152437753Y-86465599D01*
X152418389Y-86268996D01*
X152361042Y-86079949D01*
X152267916Y-85905721D01*
X152142589Y-85753010D01*
X151989878Y-85627683D01*
X151815650Y-85534557D01*
X151815649Y-85534556D01*
X151815648Y-85534556D01*
X151626609Y-85477211D01*
X151626604Y-85477210D01*
X151626603Y-85477210D01*
X151430000Y-85457846D01*
X151233397Y-85477210D01*
X151233395Y-85477210D01*
X151233390Y-85477211D01*
X151044351Y-85534556D01*
X150870121Y-85627683D01*
X150717413Y-85753008D01*
X150717409Y-85753012D01*
X150592084Y-85905720D01*
X150498957Y-86079950D01*
X150441612Y-86268989D01*
X150422247Y-86465599D01*
X149897753Y-86465599D01*
X149878389Y-86268996D01*
X149821042Y-86079949D01*
X149727916Y-85905721D01*
X149602589Y-85753010D01*
X149449878Y-85627683D01*
X149275650Y-85534557D01*
X149275649Y-85534556D01*
X149275648Y-85534556D01*
X149086609Y-85477211D01*
X149086604Y-85477210D01*
X149086603Y-85477210D01*
X148890000Y-85457846D01*
X148889999Y-85457846D01*
X148842657Y-85462508D01*
X148693397Y-85477210D01*
X148693395Y-85477210D01*
X148693390Y-85477211D01*
X148504351Y-85534556D01*
X148330121Y-85627683D01*
X148177413Y-85753008D01*
X148177403Y-85753018D01*
X148079247Y-85872622D01*
X148027507Y-85903252D01*
X147968183Y-85893457D01*
X147929034Y-85847822D01*
X147923400Y-85816859D01*
X147923400Y-85414249D01*
X147943965Y-85357748D01*
X147949134Y-85352105D01*
X148421252Y-84879987D01*
X148475744Y-84854577D01*
X148508921Y-84858028D01*
X148693390Y-84913986D01*
X148693397Y-84913988D01*
X148890000Y-84933352D01*
X149086603Y-84913988D01*
X149275650Y-84856641D01*
X149449878Y-84763515D01*
X149602589Y-84638188D01*
X149727916Y-84485477D01*
X149821042Y-84311249D01*
X149878389Y-84122202D01*
X149885244Y-84052599D01*
X150409735Y-84052599D01*
X150417072Y-84127087D01*
X150475842Y-84320824D01*
X150475844Y-84320827D01*
X150571281Y-84499377D01*
X150699717Y-84655877D01*
X150699721Y-84655881D01*
X150856221Y-84784317D01*
X151034771Y-84879754D01*
X151034774Y-84879756D01*
X151228515Y-84938528D01*
X151303000Y-84945862D01*
X151303000Y-84412480D01*
X151394237Y-84425599D01*
X151465763Y-84425599D01*
X151557000Y-84412480D01*
X151557000Y-84945862D01*
X151631484Y-84938528D01*
X151825225Y-84879756D01*
X151825228Y-84879754D01*
X152003778Y-84784317D01*
X152160278Y-84655881D01*
X152160282Y-84655877D01*
X152288718Y-84499377D01*
X152384155Y-84320827D01*
X152384157Y-84320824D01*
X152442927Y-84127087D01*
X152450265Y-84052599D01*
X152949735Y-84052599D01*
X152957072Y-84127087D01*
X153015842Y-84320824D01*
X153015844Y-84320827D01*
X153111281Y-84499377D01*
X153239717Y-84655877D01*
X153239721Y-84655881D01*
X153396221Y-84784317D01*
X153574771Y-84879754D01*
X153574774Y-84879756D01*
X153768515Y-84938528D01*
X153843000Y-84945862D01*
X153843000Y-84412480D01*
X153934237Y-84425599D01*
X154005763Y-84425599D01*
X154097000Y-84412480D01*
X154097000Y-84945862D01*
X154171484Y-84938528D01*
X154365225Y-84879756D01*
X154365228Y-84879754D01*
X154543778Y-84784317D01*
X154700278Y-84655881D01*
X154700282Y-84655877D01*
X154828718Y-84499377D01*
X154924155Y-84320827D01*
X154924157Y-84320824D01*
X154982927Y-84127087D01*
X154990265Y-84052599D01*
X154453818Y-84052599D01*
X154470000Y-83997488D01*
X154470000Y-83853710D01*
X154453818Y-83798599D01*
X154990264Y-83798599D01*
X154982927Y-83724110D01*
X154924157Y-83530373D01*
X154924155Y-83530370D01*
X154828718Y-83351820D01*
X154700282Y-83195320D01*
X154700278Y-83195316D01*
X154543778Y-83066880D01*
X154365228Y-82971443D01*
X154365225Y-82971441D01*
X154171488Y-82912671D01*
X154097000Y-82905334D01*
X154097000Y-83438717D01*
X154005763Y-83425599D01*
X153934237Y-83425599D01*
X153843000Y-83438717D01*
X153843000Y-82905334D01*
X153768511Y-82912671D01*
X153574774Y-82971441D01*
X153574771Y-82971443D01*
X153396221Y-83066880D01*
X153239721Y-83195316D01*
X153239717Y-83195320D01*
X153111281Y-83351820D01*
X153015844Y-83530370D01*
X153015842Y-83530373D01*
X152957072Y-83724110D01*
X152949735Y-83798599D01*
X153486182Y-83798599D01*
X153470000Y-83853710D01*
X153470000Y-83997488D01*
X153486182Y-84052599D01*
X152949735Y-84052599D01*
X152450265Y-84052599D01*
X151913818Y-84052599D01*
X151930000Y-83997488D01*
X151930000Y-83853710D01*
X151913818Y-83798599D01*
X152450264Y-83798599D01*
X152442927Y-83724110D01*
X152384157Y-83530373D01*
X152384155Y-83530370D01*
X152288718Y-83351820D01*
X152160282Y-83195320D01*
X152160278Y-83195316D01*
X152003778Y-83066880D01*
X151825228Y-82971443D01*
X151825225Y-82971441D01*
X151631488Y-82912671D01*
X151557000Y-82905334D01*
X151557000Y-83438717D01*
X151465763Y-83425599D01*
X151394237Y-83425599D01*
X151303000Y-83438717D01*
X151303000Y-82905334D01*
X151228511Y-82912671D01*
X151034774Y-82971441D01*
X151034771Y-82971443D01*
X150856221Y-83066880D01*
X150699721Y-83195316D01*
X150699717Y-83195320D01*
X150571281Y-83351820D01*
X150475844Y-83530370D01*
X150475842Y-83530373D01*
X150417072Y-83724110D01*
X150409735Y-83798599D01*
X150946182Y-83798599D01*
X150930000Y-83853710D01*
X150930000Y-83997488D01*
X150946182Y-84052599D01*
X150409735Y-84052599D01*
X149885244Y-84052599D01*
X149897753Y-83925599D01*
X149878389Y-83728996D01*
X149821042Y-83539949D01*
X149727916Y-83365721D01*
X149602589Y-83213010D01*
X149449878Y-83087683D01*
X149275650Y-82994557D01*
X149275649Y-82994556D01*
X149275648Y-82994556D01*
X149086609Y-82937211D01*
X149086604Y-82937210D01*
X149086603Y-82937210D01*
X148890000Y-82917846D01*
X148693397Y-82937210D01*
X148693395Y-82937210D01*
X148693390Y-82937211D01*
X148504351Y-82994556D01*
X148330121Y-83087683D01*
X148177413Y-83213008D01*
X148177409Y-83213012D01*
X148052084Y-83365720D01*
X147958957Y-83539950D01*
X147901612Y-83728989D01*
X147882247Y-83925599D01*
X147901612Y-84122208D01*
X147957570Y-84306675D01*
X147954292Y-84366713D01*
X147935610Y-84394346D01*
X147349129Y-84980827D01*
X147346301Y-84983417D01*
X147312885Y-85011458D01*
X147312883Y-85011460D01*
X147291067Y-85049245D01*
X147289008Y-85052477D01*
X147263972Y-85088233D01*
X147263972Y-85088235D01*
X147262993Y-85091887D01*
X147254221Y-85113066D01*
X147252333Y-85116336D01*
X147252331Y-85116342D01*
X147244752Y-85159316D01*
X147243923Y-85163058D01*
X147232629Y-85205210D01*
X147234696Y-85228828D01*
X147236433Y-85248685D01*
X147236600Y-85252497D01*
X147236600Y-85719379D01*
X147216035Y-85775880D01*
X147163964Y-85805944D01*
X147104750Y-85795503D01*
X147080753Y-85775143D01*
X147062589Y-85753010D01*
X146909878Y-85627683D01*
X146735650Y-85534557D01*
X146735649Y-85534556D01*
X146735648Y-85534556D01*
X146546609Y-85477211D01*
X146546604Y-85477210D01*
X146546603Y-85477210D01*
X146350000Y-85457846D01*
X146153397Y-85477210D01*
X146153395Y-85477210D01*
X146153390Y-85477211D01*
X145964351Y-85534556D01*
X145790121Y-85627683D01*
X145637413Y-85753008D01*
X145637409Y-85753012D01*
X145512084Y-85905720D01*
X145418957Y-86079950D01*
X145361612Y-86268989D01*
X145342247Y-86465598D01*
X144812899Y-86465598D01*
X144812899Y-85600543D01*
X144812899Y-85600542D01*
X144812899Y-85600540D01*
X144809111Y-85581501D01*
X144804028Y-85555941D01*
X144770234Y-85505365D01*
X144770002Y-85505210D01*
X144719658Y-85471570D01*
X144682456Y-85464170D01*
X144675057Y-85462699D01*
X144675056Y-85462699D01*
X142944941Y-85462699D01*
X142900341Y-85471571D01*
X142849767Y-85505364D01*
X142849764Y-85505367D01*
X142815971Y-85555940D01*
X142807100Y-85600542D01*
X142807100Y-87330657D01*
X132895735Y-87330657D01*
X138793467Y-83925599D01*
X142802247Y-83925599D01*
X142821612Y-84122208D01*
X142877570Y-84306675D01*
X142878958Y-84311249D01*
X142972084Y-84485477D01*
X143097411Y-84638188D01*
X143250122Y-84763515D01*
X143424350Y-84856641D01*
X143613397Y-84913988D01*
X143810000Y-84933352D01*
X144006603Y-84913988D01*
X144195650Y-84856641D01*
X144369878Y-84763515D01*
X144522589Y-84638188D01*
X144647916Y-84485477D01*
X144741042Y-84311249D01*
X144798389Y-84122202D01*
X144817753Y-83925599D01*
X145342247Y-83925599D01*
X145361612Y-84122208D01*
X145417570Y-84306675D01*
X145418958Y-84311249D01*
X145512084Y-84485477D01*
X145637411Y-84638188D01*
X145790122Y-84763515D01*
X145964350Y-84856641D01*
X146153397Y-84913988D01*
X146350000Y-84933352D01*
X146546603Y-84913988D01*
X146735650Y-84856641D01*
X146909878Y-84763515D01*
X147062589Y-84638188D01*
X147187916Y-84485477D01*
X147281042Y-84311249D01*
X147338389Y-84122202D01*
X147357753Y-83925599D01*
X147338389Y-83728996D01*
X147281042Y-83539949D01*
X147187916Y-83365721D01*
X147062589Y-83213010D01*
X146909878Y-83087683D01*
X146735650Y-82994557D01*
X146735649Y-82994556D01*
X146735648Y-82994556D01*
X146546609Y-82937211D01*
X146546604Y-82937210D01*
X146546603Y-82937210D01*
X146350000Y-82917846D01*
X146153397Y-82937210D01*
X146153395Y-82937210D01*
X146153390Y-82937211D01*
X145964351Y-82994556D01*
X145790121Y-83087683D01*
X145637413Y-83213008D01*
X145637409Y-83213012D01*
X145512084Y-83365720D01*
X145418957Y-83539950D01*
X145361612Y-83728989D01*
X145342247Y-83925599D01*
X144817753Y-83925599D01*
X144798389Y-83728996D01*
X144741042Y-83539949D01*
X144647916Y-83365721D01*
X144522589Y-83213010D01*
X144369878Y-83087683D01*
X144195650Y-82994557D01*
X144195649Y-82994556D01*
X144195648Y-82994556D01*
X144006609Y-82937211D01*
X144006604Y-82937210D01*
X144006603Y-82937210D01*
X143810000Y-82917846D01*
X143613397Y-82937210D01*
X143613395Y-82937210D01*
X143613390Y-82937211D01*
X143424351Y-82994556D01*
X143250121Y-83087683D01*
X143097413Y-83213008D01*
X143097409Y-83213012D01*
X142972084Y-83365720D01*
X142878957Y-83539950D01*
X142821612Y-83728989D01*
X142802247Y-83925599D01*
X138793467Y-83925599D01*
X146770598Y-79320000D01*
X148749884Y-79320000D01*
X148769115Y-79552096D01*
X148769116Y-79552102D01*
X148826286Y-79777860D01*
X148826289Y-79777868D01*
X148897987Y-79941321D01*
X148919840Y-79991141D01*
X148919844Y-79991147D01*
X149047215Y-80186105D01*
X149047216Y-80186107D01*
X149047220Y-80186111D01*
X149204954Y-80357456D01*
X149388740Y-80500502D01*
X149593563Y-80611347D01*
X149813837Y-80686967D01*
X149813839Y-80686967D01*
X149813841Y-80686968D01*
X150043550Y-80725300D01*
X150043554Y-80725300D01*
X150276450Y-80725300D01*
X150506158Y-80686968D01*
X150506158Y-80686967D01*
X150506163Y-80686967D01*
X150726437Y-80611347D01*
X150931260Y-80500502D01*
X151115046Y-80357456D01*
X151272780Y-80186111D01*
X151400160Y-79991141D01*
X151493712Y-79777864D01*
X151550884Y-79552097D01*
X151570116Y-79320000D01*
X151550884Y-79087903D01*
X151550883Y-79087897D01*
X151493713Y-78862139D01*
X151493710Y-78862131D01*
X151400164Y-78648869D01*
X151400160Y-78648859D01*
X151319435Y-78525300D01*
X151272784Y-78453894D01*
X151272783Y-78453892D01*
X151115050Y-78282548D01*
X151115048Y-78282547D01*
X151115046Y-78282544D01*
X150931260Y-78139498D01*
X150726437Y-78028653D01*
X150726433Y-78028651D01*
X150726430Y-78028650D01*
X150506167Y-77953034D01*
X150506158Y-77953031D01*
X150276450Y-77914700D01*
X150276446Y-77914700D01*
X150043554Y-77914700D01*
X150043550Y-77914700D01*
X149813841Y-77953031D01*
X149813832Y-77953034D01*
X149593569Y-78028650D01*
X149388740Y-78139498D01*
X149204949Y-78282548D01*
X149047216Y-78453892D01*
X149047215Y-78453894D01*
X148919844Y-78648852D01*
X148919835Y-78648869D01*
X148826289Y-78862131D01*
X148826286Y-78862139D01*
X148769116Y-79087897D01*
X148769115Y-79087903D01*
X148749884Y-79320000D01*
X146770598Y-79320000D01*
X150116050Y-77388502D01*
X150175263Y-77378062D01*
X150203946Y-77388502D01*
G37*
%TD.AperFunction*%
%TD*%
M02*
