M48
; DRILL file {KiCad 7.0.5} date Mon Jun  5 00:45:27 2023
; FORMAT={-:-/ absolute / inch / decimal}
; #@! TF.CreationDate,2023-06-05T00:45:27-04:00
; #@! TF.GenerationSoftware,Kicad,Pcbnew,7.0.5
; #@! TF.FileFunction,Plated,1,2,PTH
FMAT,2
INCH
; #@! TA.AperFunction,Plated,PTH,ViaDrill
T1C0.0130
; #@! TA.AperFunction,Plated,PTH,ComponentDrill
T2C0.0315
; #@! TA.AperFunction,Plated,PTH,ComponentDrill
T3C0.0394
%
G90
G05
T1
X5.2031Y-3.6692
X5.2031Y-3.748
X5.2031Y-3.8267
X5.2031Y-4.1417
X5.2031Y-4.2204
X5.2819Y-3.433
X5.2819Y-3.5118
X5.2819Y-3.5905
X5.2819Y-3.6692
X5.2819Y-3.748
X5.2819Y-3.8267
X5.2819Y-4.1417
X5.2819Y-4.2204
X5.2819Y-4.2992
X5.2819Y-4.3779
X5.2819Y-4.4566
X5.3606Y-3.433
X5.3606Y-3.5118
X5.3606Y-3.5905
X5.3606Y-3.6692
X5.3606Y-3.748
X5.3606Y-4.1417
X5.3606Y-4.2204
X5.3606Y-4.2992
X5.3606Y-4.3779
X5.3606Y-4.4566
X5.4394Y-3.3543
X5.4394Y-3.433
X5.4394Y-3.5118
X5.4394Y-4.3779
X5.4394Y-4.4566
X5.4394Y-4.5354
X5.4849Y-3.8799
X5.5181Y-3.3543
X5.5181Y-3.433
X5.5181Y-3.5118
X5.5181Y-3.5905
X5.5181Y-4.2992
X5.5181Y-4.3779
X5.5181Y-4.4566
X5.5181Y-4.5354
X5.5598Y-4.0098
X5.5969Y-3.3543
X5.5969Y-3.433
X5.5969Y-3.5118
X5.6362Y-3.8858
X5.6362Y-4.0236
X5.6756Y-3.2362
X5.6756Y-4.1417
X5.6756Y-4.2204
X5.6756Y-4.3779
X5.6756Y-4.6535
X5.7543Y-3.2362
X5.7543Y-4.3779
X5.7543Y-4.6535
X5.7956Y-3.8799
X5.8331Y-3.1574
X5.8331Y-3.2362
X5.8331Y-4.2992
X5.8331Y-4.3779
X5.8331Y-4.6535
X5.8331Y-4.7322
X5.8705Y-4.0102
X5.9118Y-3.2362
X5.9118Y-4.3779
X5.9118Y-4.6535
X5.9295Y-3.5173
X5.9512Y-3.8858
X5.9512Y-4.0236
X5.9906Y-3.1574
X5.9906Y-3.2362
X5.9906Y-4.1417
X5.9906Y-4.2204
X5.9906Y-4.3779
X5.9906Y-4.6535
X5.9906Y-4.7322
X6.0102Y-3.5196
X6.0693Y-3.2362
X6.0693Y-4.6535
X6.107Y-3.8799
X6.1087Y-3.5905
X6.1165Y-3.5196
X6.148Y-3.2362
X6.148Y-4.2204
X6.148Y-4.2992
X6.148Y-4.6535
X6.1811Y-4.009
X6.3055Y-3.3543
X6.3055Y-3.433
X6.3055Y-3.5905
X6.3055Y-4.1417
X6.3055Y-4.2204
X6.3055Y-4.4566
X6.3055Y-4.5354
X6.3843Y-3.3543
X6.3843Y-3.433
X6.3843Y-3.5905
X6.3843Y-3.6692
X6.3843Y-4.1417
X6.3843Y-4.3779
X6.3843Y-4.4566
X6.3843Y-4.5354
X6.4177Y-4.0118
X6.4187Y-3.9281
X6.4472Y-4.0934
X6.4482Y-3.9862
X6.4512Y-3.9458
X6.46Y-3.8858
X6.463Y-3.433
X6.463Y-3.5118
X6.463Y-3.6692
X6.463Y-3.748
X6.463Y-4.2992
X6.463Y-4.3779
X6.463Y-4.4566
X6.5152Y-4.0698
X6.5177Y-3.9724
X6.523Y-3.8769
X6.5417Y-3.433
X6.5417Y-3.5118
X6.5417Y-3.5905
X6.6205Y-3.6692
X6.6205Y-4.2204
X6.639Y-3.9936
T2
X5.215Y-3.9479
X5.215Y-4.0266
T3
X5.6618Y-3.3042
X5.6618Y-3.4042
X5.6618Y-4.4781
X5.6618Y-4.5781
X5.7618Y-3.3042
X5.7618Y-3.4042
X5.7618Y-4.4781
X5.7618Y-4.5781
X5.8618Y-3.3042
X5.8618Y-3.4042
X5.8618Y-4.4781
X5.8618Y-4.5781
X5.9618Y-3.3042
X5.9618Y-3.4042
X5.9618Y-4.4781
X5.9618Y-4.5781
X6.0618Y-3.3042
X6.0618Y-3.4042
X6.0618Y-4.4781
X6.0618Y-4.5781
X6.1618Y-3.3042
X6.1618Y-3.4042
X6.1618Y-4.4781
X6.1618Y-4.5781
T0
M30
