%TF.GenerationSoftware,KiCad,Pcbnew,7.0.5*%
%TF.CreationDate,2023-06-06T16:57:11-04:00*%
%TF.ProjectId,PWR,5057522e-6b69-4636-9164-5f7063625858,rev?*%
%TF.SameCoordinates,Original*%
%TF.FileFunction,Drillmap*%
%TF.FilePolarity,Positive*%
%FSLAX45Y45*%
G04 Gerber Fmt 4.5, Leading zero omitted, Abs format (unit mm)*
G04 Created by KiCad (PCBNEW 7.0.5) date 2023-06-06 16:57:11*
%MOMM*%
%LPD*%
G01*
G04 APERTURE LIST*
%ADD10C,0.100000*%
%ADD11C,0.200000*%
G04 APERTURE END LIST*
D10*
X12700000Y-8385898D02*
X12700000Y-10695299D01*
X14810000Y-7462138D02*
G75*
G03*
X14810000Y-7462138I-110000J0D01*
G01*
X13010000Y-8501368D02*
G75*
G03*
X13010000Y-8501368I-110000J0D01*
G01*
X14700000Y-7231198D02*
X12700000Y-8385898D01*
X14810000Y-11619060D02*
G75*
G03*
X14810000Y-11619060I-110000J0D01*
G01*
X16610000Y-10579829D02*
G75*
G03*
X16610000Y-10579829I-110000J0D01*
G01*
X12700000Y-10695299D02*
X14700000Y-11850000D01*
X13010000Y-10579829D02*
G75*
G03*
X13010000Y-10579829I-110000J0D01*
G01*
X16700000Y-10695299D02*
X16700000Y-8385898D01*
X16700000Y-8385898D02*
X14700000Y-7231198D01*
X14700000Y-11850000D02*
X16700000Y-10695299D01*
X16610000Y-8501368D02*
G75*
G03*
X16610000Y-8501368I-110000J0D01*
G01*
D11*
X12955777Y-12166484D02*
X12955777Y-11966484D01*
X12955777Y-11966484D02*
X13003396Y-11966484D01*
X13003396Y-11966484D02*
X13031967Y-11976008D01*
X13031967Y-11976008D02*
X13051015Y-11995055D01*
X13051015Y-11995055D02*
X13060539Y-12014103D01*
X13060539Y-12014103D02*
X13070062Y-12052198D01*
X13070062Y-12052198D02*
X13070062Y-12080769D01*
X13070062Y-12080769D02*
X13060539Y-12118865D01*
X13060539Y-12118865D02*
X13051015Y-12137912D01*
X13051015Y-12137912D02*
X13031967Y-12156960D01*
X13031967Y-12156960D02*
X13003396Y-12166484D01*
X13003396Y-12166484D02*
X12955777Y-12166484D01*
X13155777Y-12166484D02*
X13155777Y-12033150D01*
X13155777Y-12071246D02*
X13165301Y-12052198D01*
X13165301Y-12052198D02*
X13174824Y-12042674D01*
X13174824Y-12042674D02*
X13193872Y-12033150D01*
X13193872Y-12033150D02*
X13212920Y-12033150D01*
X13279586Y-12166484D02*
X13279586Y-12033150D01*
X13279586Y-11966484D02*
X13270062Y-11976008D01*
X13270062Y-11976008D02*
X13279586Y-11985531D01*
X13279586Y-11985531D02*
X13289110Y-11976008D01*
X13289110Y-11976008D02*
X13279586Y-11966484D01*
X13279586Y-11966484D02*
X13279586Y-11985531D01*
X13403396Y-12166484D02*
X13384348Y-12156960D01*
X13384348Y-12156960D02*
X13374824Y-12137912D01*
X13374824Y-12137912D02*
X13374824Y-11966484D01*
X13508158Y-12166484D02*
X13489110Y-12156960D01*
X13489110Y-12156960D02*
X13479586Y-12137912D01*
X13479586Y-12137912D02*
X13479586Y-11966484D01*
X13736729Y-12166484D02*
X13736729Y-11966484D01*
X13736729Y-11966484D02*
X13803396Y-12109341D01*
X13803396Y-12109341D02*
X13870062Y-11966484D01*
X13870062Y-11966484D02*
X13870062Y-12166484D01*
X14051015Y-12166484D02*
X14051015Y-12061722D01*
X14051015Y-12061722D02*
X14041491Y-12042674D01*
X14041491Y-12042674D02*
X14022443Y-12033150D01*
X14022443Y-12033150D02*
X13984348Y-12033150D01*
X13984348Y-12033150D02*
X13965301Y-12042674D01*
X14051015Y-12156960D02*
X14031967Y-12166484D01*
X14031967Y-12166484D02*
X13984348Y-12166484D01*
X13984348Y-12166484D02*
X13965301Y-12156960D01*
X13965301Y-12156960D02*
X13955777Y-12137912D01*
X13955777Y-12137912D02*
X13955777Y-12118865D01*
X13955777Y-12118865D02*
X13965301Y-12099817D01*
X13965301Y-12099817D02*
X13984348Y-12090293D01*
X13984348Y-12090293D02*
X14031967Y-12090293D01*
X14031967Y-12090293D02*
X14051015Y-12080769D01*
X14146253Y-12033150D02*
X14146253Y-12233150D01*
X14146253Y-12042674D02*
X14165301Y-12033150D01*
X14165301Y-12033150D02*
X14203396Y-12033150D01*
X14203396Y-12033150D02*
X14222443Y-12042674D01*
X14222443Y-12042674D02*
X14231967Y-12052198D01*
X14231967Y-12052198D02*
X14241491Y-12071246D01*
X14241491Y-12071246D02*
X14241491Y-12128388D01*
X14241491Y-12128388D02*
X14231967Y-12147436D01*
X14231967Y-12147436D02*
X14222443Y-12156960D01*
X14222443Y-12156960D02*
X14203396Y-12166484D01*
X14203396Y-12166484D02*
X14165301Y-12166484D01*
X14165301Y-12166484D02*
X14146253Y-12156960D01*
X14327205Y-12147436D02*
X14336729Y-12156960D01*
X14336729Y-12156960D02*
X14327205Y-12166484D01*
X14327205Y-12166484D02*
X14317682Y-12156960D01*
X14317682Y-12156960D02*
X14327205Y-12147436D01*
X14327205Y-12147436D02*
X14327205Y-12166484D01*
X14327205Y-12042674D02*
X14336729Y-12052198D01*
X14336729Y-12052198D02*
X14327205Y-12061722D01*
X14327205Y-12061722D02*
X14317682Y-12052198D01*
X14317682Y-12052198D02*
X14327205Y-12042674D01*
X14327205Y-12042674D02*
X14327205Y-12061722D01*
M02*
