%TF.GenerationSoftware,KiCad,Pcbnew,7.0.5*%
%TF.CreationDate,2023-06-06T16:57:07-04:00*%
%TF.ProjectId,PWR,5057522e-6b69-4636-9164-5f7063625858,rev?*%
%TF.SameCoordinates,Original*%
%TF.FileFunction,Copper,L2,Bot*%
%TF.FilePolarity,Positive*%
%FSLAX46Y46*%
G04 Gerber Fmt 4.6, Leading zero omitted, Abs format (unit mm)*
G04 Created by KiCad (PCBNEW 7.0.5) date 2023-06-06 16:57:07*
%MOMM*%
%LPD*%
G01*
G04 APERTURE LIST*
G04 Aperture macros list*
%AMHorizOval*
0 Thick line with rounded ends*
0 $1 width*
0 $2 $3 position (X,Y) of the first rounded end (center of the circle)*
0 $4 $5 position (X,Y) of the second rounded end (center of the circle)*
0 Add line between two ends*
20,1,$1,$2,$3,$4,$5,0*
0 Add two circle primitives to create the rounded ends*
1,1,$1,$2,$3*
1,1,$1,$4,$5*%
%AMRotRect*
0 Rectangle, with rotation*
0 The origin of the aperture is its center*
0 $1 length*
0 $2 width*
0 $3 Rotation angle, in degrees counterclockwise*
0 Add horizontal line*
21,1,$1,$2,0,0,$3*%
G04 Aperture macros list end*
%TA.AperFunction,ComponentPad*%
%ADD10R,1.350000X1.350000*%
%TD*%
%TA.AperFunction,ComponentPad*%
%ADD11O,1.350000X1.350000*%
%TD*%
%TA.AperFunction,ComponentPad*%
%ADD12RotRect,1.700000X1.700000X120.000000*%
%TD*%
%TA.AperFunction,ComponentPad*%
%ADD13HorizOval,1.700000X0.000000X0.000000X0.000000X0.000000X0*%
%TD*%
%TA.AperFunction,ComponentPad*%
%ADD14R,1.700000X1.700000*%
%TD*%
%TA.AperFunction,ComponentPad*%
%ADD15O,1.700000X1.700000*%
%TD*%
%TA.AperFunction,ViaPad*%
%ADD16C,0.660400*%
%TD*%
%TA.AperFunction,ViaPad*%
%ADD17C,0.863600*%
%TD*%
%TA.AperFunction,ViaPad*%
%ADD18C,0.800000*%
%TD*%
%TA.AperFunction,ViaPad*%
%ADD19C,0.762000*%
%TD*%
%TA.AperFunction,Conductor*%
%ADD20C,0.254000*%
%TD*%
%TA.AperFunction,Conductor*%
%ADD21C,0.762000*%
%TD*%
G04 APERTURE END LIST*
D10*
%TO.P,J4,1,Pin_1*%
%TO.N,/SC*%
X165000000Y-91700000D03*
D11*
%TO.P,J4,2,Pin_2*%
X165000000Y-93700000D03*
%TD*%
D10*
%TO.P,J3,1,Pin_1*%
%TO.N,/VBAT*%
X165000000Y-99000000D03*
D11*
%TO.P,J3,2,Pin_2*%
%TO.N,GND*%
X165000000Y-97000000D03*
%TD*%
D12*
%TO.P,J1,1,Pin_1*%
%TO.N,Net-(J1-Pin_1)*%
X154795818Y-111437500D03*
D13*
%TO.P,J1,2,Pin_2*%
%TO.N,GND*%
X156995523Y-110167500D03*
%TD*%
D14*
%TO.P,J2,1,Pin_1*%
%TO.N,GND*%
X129225000Y-89100000D03*
D15*
%TO.P,J2,2,Pin_2*%
%TO.N,/~{EN}*%
X131765000Y-89100000D03*
%TO.P,J2,3,Pin_3*%
%TO.N,GND*%
X129225000Y-91640000D03*
%TO.P,J2,4,Pin_4*%
%TO.N,/VBAT_OK*%
X131765000Y-91640000D03*
%TO.P,J2,5,Pin_5*%
%TO.N,GND*%
X129225000Y-94180000D03*
%TO.P,J2,6,Pin_6*%
%TO.N,/VBAT*%
X131765000Y-94180000D03*
%TO.P,J2,7,Pin_7*%
%TO.N,+3V3*%
X129225000Y-96720000D03*
%TO.P,J2,8,Pin_8*%
X131765000Y-96720000D03*
%TO.P,J2,9,Pin_9*%
%TO.N,+1V8*%
X129225000Y-99260000D03*
%TO.P,J2,10,Pin_10*%
X131765000Y-99260000D03*
%TO.P,J2,11,Pin_11*%
%TO.N,GND*%
X129225000Y-101800000D03*
%TO.P,J2,12,Pin_12*%
%TO.N,+5V*%
X131765000Y-101800000D03*
%TD*%
D16*
%TO.N,Net-(J1-Pin_1)*%
X149802494Y-108449999D03*
%TO.N,GND*%
X133650000Y-90160000D03*
X155740000Y-92990000D03*
X139650000Y-80160000D03*
X159650000Y-107160000D03*
X161650000Y-107160000D03*
X151650000Y-76160000D03*
X135650000Y-90160000D03*
X136650000Y-109160000D03*
X161650000Y-87160000D03*
X142650000Y-113160000D03*
X141650000Y-78160000D03*
X137650000Y-80160000D03*
X134650000Y-109160000D03*
X165650000Y-101160000D03*
X153650000Y-78160000D03*
X151650000Y-78160000D03*
X148410000Y-89870000D03*
X150650000Y-115160000D03*
X133650000Y-82160000D03*
X136650000Y-111160000D03*
X146650000Y-113160000D03*
X149650000Y-76160000D03*
X147650000Y-80160000D03*
X149650000Y-80160000D03*
X145650000Y-80160000D03*
X135650000Y-86160000D03*
X163650000Y-83160000D03*
X135650000Y-84160000D03*
X151190000Y-87610000D03*
X159650000Y-83160000D03*
X143650000Y-80160000D03*
X163650000Y-89160000D03*
X159650000Y-81160000D03*
X157650000Y-80160000D03*
X157670000Y-95250000D03*
X147650000Y-78160000D03*
X161650000Y-89160000D03*
X163650000Y-87160000D03*
X155280000Y-85610000D03*
X138650000Y-109160000D03*
X148410000Y-90944280D03*
X163650000Y-103160000D03*
X159650000Y-105160000D03*
X132650000Y-107160000D03*
X149650000Y-82160000D03*
X131650000Y-86160000D03*
X135650000Y-82160000D03*
X161650000Y-105160000D03*
X152730000Y-85570000D03*
X149650000Y-78160000D03*
X165650000Y-89160000D03*
X153650000Y-80160000D03*
X149565720Y-90944280D03*
X144650000Y-113160000D03*
X159650000Y-109160000D03*
X142650000Y-115160000D03*
X150650000Y-113160000D03*
X161650000Y-85160000D03*
X143650000Y-76160000D03*
X143650000Y-78160000D03*
X157650000Y-107160000D03*
X148410000Y-97950000D03*
X152650000Y-113160000D03*
X138650000Y-111160000D03*
X132650000Y-105160000D03*
X155650000Y-80160000D03*
X136650000Y-107160000D03*
X145650000Y-78160000D03*
X163650000Y-101160000D03*
X139650000Y-78160000D03*
X134650000Y-107160000D03*
X149555000Y-89885000D03*
X148650000Y-113160000D03*
X135650000Y-80160000D03*
X165650000Y-87160000D03*
X161650000Y-83160000D03*
X133650000Y-84160000D03*
X140650000Y-113160000D03*
X133650000Y-86160000D03*
X141650000Y-80160000D03*
X161650000Y-103160000D03*
D17*
%TO.N,/VBAT*%
X153450011Y-92380003D03*
D18*
X150030000Y-103252500D03*
X143130000Y-99420000D03*
X143130000Y-104320000D03*
%TO.N,Net-(U2-VOC_SAMP)*%
X152125720Y-89944280D03*
X149760000Y-85850000D03*
%TO.N,+5V*%
X158500000Y-99640000D03*
D17*
X156390010Y-104869996D03*
D19*
X140350011Y-107179999D03*
D18*
%TO.N,/~{EN}*%
X147345720Y-87204280D03*
X143508220Y-82594280D03*
%TO.N,/VBAT_OK*%
X148375720Y-94464280D03*
%TO.N,/VOUT_EN*%
X145725720Y-86784280D03*
X143508220Y-84294280D03*
D16*
%TO.N,Net-(U2-VRDIV)*%
X145027500Y-96110000D03*
X145450000Y-90650000D03*
%TD*%
D20*
%TO.N,Net-(J1-Pin_1)*%
X154795818Y-111437500D02*
X150527500Y-111437500D01*
X149802500Y-110712500D02*
X149802500Y-108450000D01*
X150527500Y-111437500D02*
X149802500Y-110712500D01*
D21*
%TO.N,/VBAT*%
X150030000Y-103252500D02*
X150030000Y-101580000D01*
X153450011Y-92380003D02*
X153450011Y-98160002D01*
X161030000Y-98160000D02*
X161870000Y-99000000D01*
X144197500Y-103252500D02*
X143130000Y-104320000D01*
X147870000Y-99420000D02*
X143130000Y-99420000D01*
X150030000Y-101580000D02*
X153450000Y-98160000D01*
X150030000Y-101580000D02*
X147870000Y-99420000D01*
X150030000Y-103252500D02*
X144197500Y-103252500D01*
X153450000Y-98160000D02*
X161030000Y-98160000D01*
X161870000Y-99000000D02*
X165000000Y-99000000D01*
D20*
%TO.N,Net-(U2-VOC_SAMP)*%
X149760000Y-85850000D02*
X151370000Y-85850000D01*
X151370000Y-85850000D02*
X152125720Y-86605720D01*
X152125720Y-86605720D02*
X152125720Y-89944280D01*
D21*
%TO.N,+5V*%
X134925989Y-101755989D02*
X140350000Y-107180000D01*
X153560000Y-107180000D02*
X154840000Y-107180000D01*
X153560000Y-107180000D02*
X140350000Y-107180000D01*
D20*
X158500000Y-103750000D02*
X157380000Y-104870000D01*
D21*
X131765000Y-101755989D02*
X134925989Y-101755989D01*
X154840000Y-107180000D02*
X156390000Y-105630000D01*
D20*
X157380000Y-104870000D02*
X156390000Y-104870000D01*
X158500000Y-99640000D02*
X158500000Y-103750000D01*
D21*
X156390000Y-105630000D02*
X156390000Y-104870000D01*
D20*
%TO.N,/~{EN}*%
X143508220Y-82594280D02*
X141565720Y-82594280D01*
X147345720Y-84534280D02*
X145405720Y-82594280D01*
X141565720Y-82594280D02*
X135104011Y-89055989D01*
X131765000Y-89055989D02*
X135104011Y-89055989D01*
X147345720Y-87204280D02*
X147345720Y-84534280D01*
X145405720Y-82594280D02*
X143508220Y-82594280D01*
%TO.N,/VBAT_OK*%
X148375720Y-96264280D02*
X146970000Y-97670000D01*
X146970000Y-97670000D02*
X144190000Y-97670000D01*
X135305989Y-91595989D02*
X135970000Y-92260000D01*
X148375720Y-94464280D02*
X148375720Y-96264280D01*
X144190000Y-97670000D02*
X141380000Y-97670000D01*
X135970000Y-92260000D02*
X141380000Y-97670000D01*
X131765000Y-91595989D02*
X135305989Y-91595989D01*
%TO.N,/VOUT_EN*%
X145725720Y-85314280D02*
X144705720Y-84294280D01*
X144705720Y-84294280D02*
X143508220Y-84294280D01*
X145725720Y-86784280D02*
X145725720Y-85314280D01*
%TO.N,Net-(U2-VRDIV)*%
X145450000Y-90650000D02*
X145450000Y-95687500D01*
X145450000Y-95687500D02*
X145027500Y-96110000D01*
%TD*%
%TA.AperFunction,Conductor*%
%TO.N,GND*%
G36*
X147043946Y-72689881D02*
G01*
X166650750Y-84009873D01*
X166689399Y-84055933D01*
X166694700Y-84085997D01*
X166694700Y-106725978D01*
X166674135Y-106782479D01*
X166650750Y-106802102D01*
X147043949Y-118122094D01*
X146984735Y-118132535D01*
X146956049Y-118122094D01*
X145978254Y-117557564D01*
X143610602Y-116190599D01*
X145589884Y-116190599D01*
X145609115Y-116422695D01*
X145609116Y-116422701D01*
X145666286Y-116648459D01*
X145666289Y-116648467D01*
X145737987Y-116811920D01*
X145759840Y-116861740D01*
X145759844Y-116861746D01*
X145887215Y-117056704D01*
X145887216Y-117056706D01*
X145887220Y-117056710D01*
X146044954Y-117228055D01*
X146228740Y-117371101D01*
X146433563Y-117481946D01*
X146653837Y-117557566D01*
X146653839Y-117557566D01*
X146653841Y-117557567D01*
X146883550Y-117595899D01*
X146883554Y-117595899D01*
X147116450Y-117595899D01*
X147346158Y-117557567D01*
X147346158Y-117557566D01*
X147346163Y-117557566D01*
X147566437Y-117481946D01*
X147771260Y-117371101D01*
X147955046Y-117228055D01*
X148112780Y-117056710D01*
X148240160Y-116861740D01*
X148333712Y-116648463D01*
X148390884Y-116422696D01*
X148410116Y-116190599D01*
X148390884Y-115958502D01*
X148390883Y-115958496D01*
X148333713Y-115732738D01*
X148333710Y-115732730D01*
X148240164Y-115519468D01*
X148240160Y-115519458D01*
X148159435Y-115395899D01*
X148112784Y-115324493D01*
X148112783Y-115324491D01*
X147955050Y-115153147D01*
X147955048Y-115153146D01*
X147955046Y-115153143D01*
X147771260Y-115010097D01*
X147566437Y-114899252D01*
X147566433Y-114899250D01*
X147566430Y-114899249D01*
X147346167Y-114823633D01*
X147346158Y-114823630D01*
X147116450Y-114785299D01*
X147116446Y-114785299D01*
X146883554Y-114785299D01*
X146883550Y-114785299D01*
X146653841Y-114823630D01*
X146653832Y-114823633D01*
X146433569Y-114899249D01*
X146228740Y-115010097D01*
X146044949Y-115153147D01*
X145887216Y-115324491D01*
X145887215Y-115324493D01*
X145759844Y-115519451D01*
X145759835Y-115519468D01*
X145666289Y-115732730D01*
X145666286Y-115732738D01*
X145609116Y-115958496D01*
X145609115Y-115958502D01*
X145589884Y-116190599D01*
X143610602Y-116190599D01*
X141176551Y-114785299D01*
X130203495Y-108450002D01*
X149314426Y-108450002D01*
X149334194Y-108587497D01*
X149334195Y-108587502D01*
X149334196Y-108587504D01*
X149391905Y-108713868D01*
X149482876Y-108818855D01*
X149482879Y-108818858D01*
X149487631Y-108822976D01*
X149486590Y-108824176D01*
X149518636Y-108866282D01*
X149522600Y-108892382D01*
X149522600Y-110652503D01*
X149520571Y-110664948D01*
X149521607Y-110665093D01*
X149520482Y-110673158D01*
X149522553Y-110717951D01*
X149522600Y-110719981D01*
X149522600Y-110738442D01*
X149523235Y-110741839D01*
X149523935Y-110747882D01*
X149525314Y-110777692D01*
X149529214Y-110786525D01*
X149535204Y-110805868D01*
X149536978Y-110815358D01*
X149536981Y-110815365D01*
X149552687Y-110840730D01*
X149555529Y-110846121D01*
X149567584Y-110873422D01*
X149574414Y-110880252D01*
X149586986Y-110896124D01*
X149592068Y-110904331D01*
X149592071Y-110904335D01*
X149615874Y-110922310D01*
X149620471Y-110926310D01*
X150287157Y-111592995D01*
X150294525Y-111603228D01*
X150295358Y-111602600D01*
X150300267Y-111609101D01*
X150321228Y-111628208D01*
X150333417Y-111639321D01*
X150334850Y-111640688D01*
X150347920Y-111653758D01*
X150347923Y-111653760D01*
X150347924Y-111653761D01*
X150350764Y-111655706D01*
X150355543Y-111659491D01*
X150377599Y-111679598D01*
X150386600Y-111683084D01*
X150404529Y-111692536D01*
X150412483Y-111697985D01*
X150412484Y-111697986D01*
X150441531Y-111704817D01*
X150447347Y-111706617D01*
X150475178Y-111717400D01*
X150484832Y-111717400D01*
X150504956Y-111719734D01*
X150514349Y-111721944D01*
X150543900Y-111717821D01*
X150549978Y-111717400D01*
X153748621Y-111717400D01*
X153805122Y-111737965D01*
X153824743Y-111761348D01*
X154359810Y-112688110D01*
X154389793Y-112722301D01*
X154444348Y-112749204D01*
X154505045Y-112753183D01*
X154548107Y-112738565D01*
X156046428Y-111873508D01*
X156080619Y-111843525D01*
X156107522Y-111788970D01*
X156111501Y-111728273D01*
X156096883Y-111685211D01*
X155231826Y-110186890D01*
X155214822Y-110167500D01*
X155988273Y-110167500D01*
X156007628Y-110364011D01*
X156028422Y-110432560D01*
X156495523Y-110162879D01*
X156495523Y-110239389D01*
X156536030Y-110377344D01*
X156613762Y-110498298D01*
X156722423Y-110592452D01*
X156747580Y-110603941D01*
X156278984Y-110874486D01*
X156283289Y-110879732D01*
X156283291Y-110879734D01*
X156435924Y-111004997D01*
X156610070Y-111098080D01*
X156799011Y-111155394D01*
X156995523Y-111174749D01*
X157192029Y-111155395D01*
X157260583Y-111134599D01*
X157260583Y-111134598D01*
X156990904Y-110667500D01*
X157031286Y-110667500D01*
X157137838Y-110652180D01*
X157268623Y-110592452D01*
X157377284Y-110498298D01*
X157431286Y-110414267D01*
X157702508Y-110884037D01*
X157707749Y-110879738D01*
X157707761Y-110879726D01*
X157833018Y-110727101D01*
X157926103Y-110552952D01*
X157983417Y-110364011D01*
X158002772Y-110167500D01*
X157983418Y-109970993D01*
X157962621Y-109902438D01*
X157495523Y-110172117D01*
X157495523Y-110095611D01*
X157455016Y-109957656D01*
X157377284Y-109836702D01*
X157268623Y-109742548D01*
X157243462Y-109731057D01*
X157712060Y-109460513D01*
X157712061Y-109460512D01*
X157707756Y-109455267D01*
X157707754Y-109455265D01*
X157555121Y-109330002D01*
X157380975Y-109236919D01*
X157192034Y-109179605D01*
X156995523Y-109160250D01*
X156799016Y-109179604D01*
X156799006Y-109179606D01*
X156730461Y-109200399D01*
X157000142Y-109667500D01*
X156959760Y-109667500D01*
X156853208Y-109682820D01*
X156722423Y-109742548D01*
X156613762Y-109836702D01*
X156559758Y-109920733D01*
X156288535Y-109450960D01*
X156283297Y-109455260D01*
X156283281Y-109455276D01*
X156158027Y-109607897D01*
X156064942Y-109782047D01*
X156007628Y-109970988D01*
X155988273Y-110167500D01*
X155214822Y-110167500D01*
X155201843Y-110152699D01*
X155147288Y-110125796D01*
X155086591Y-110121817D01*
X155086590Y-110121817D01*
X155086589Y-110121817D01*
X155043530Y-110136434D01*
X153545209Y-111001491D01*
X153545207Y-111001492D01*
X153511018Y-111031473D01*
X153511016Y-111031476D01*
X153484114Y-111086030D01*
X153482394Y-111092451D01*
X153447906Y-111141704D01*
X153397489Y-111157600D01*
X150679849Y-111157600D01*
X150623348Y-111137035D01*
X150617694Y-111131855D01*
X150108145Y-110622306D01*
X150082734Y-110567812D01*
X150082400Y-110560151D01*
X150082400Y-108892373D01*
X150102965Y-108835872D01*
X150117471Y-108823100D01*
X150117360Y-108822972D01*
X150122106Y-108818858D01*
X150122111Y-108818856D01*
X150213083Y-108713868D01*
X150270792Y-108587504D01*
X150290562Y-108449999D01*
X150290562Y-108449995D01*
X150270793Y-108312500D01*
X150270792Y-108312499D01*
X150270792Y-108312494D01*
X150213083Y-108186130D01*
X150122111Y-108081142D01*
X150122109Y-108081141D01*
X150122107Y-108081139D01*
X150005248Y-108006038D01*
X150005245Y-108006037D01*
X149978586Y-107998209D01*
X149871957Y-107966899D01*
X149871953Y-107966899D01*
X149733035Y-107966899D01*
X149733030Y-107966899D01*
X149599743Y-108006037D01*
X149599739Y-108006038D01*
X149482880Y-108081139D01*
X149482875Y-108081143D01*
X149391904Y-108186131D01*
X149334196Y-108312494D01*
X149334194Y-108312500D01*
X149314426Y-108449995D01*
X149314426Y-108450002D01*
X130203495Y-108450002D01*
X127349250Y-106802103D01*
X127310601Y-106756043D01*
X127305300Y-106725979D01*
X127305300Y-105798293D01*
X127589884Y-105798293D01*
X127609115Y-106030390D01*
X127609116Y-106030396D01*
X127666286Y-106256154D01*
X127666289Y-106256162D01*
X127737987Y-106419615D01*
X127759840Y-106469435D01*
X127759844Y-106469441D01*
X127887215Y-106664399D01*
X127887216Y-106664401D01*
X128013979Y-106802103D01*
X128044954Y-106835750D01*
X128228740Y-106978796D01*
X128433563Y-107089641D01*
X128653837Y-107165261D01*
X128653839Y-107165261D01*
X128653841Y-107165262D01*
X128883550Y-107203594D01*
X128883554Y-107203594D01*
X129116450Y-107203594D01*
X129346158Y-107165262D01*
X129346158Y-107165261D01*
X129346163Y-107165261D01*
X129566437Y-107089641D01*
X129771260Y-106978796D01*
X129955046Y-106835750D01*
X130112780Y-106664405D01*
X130240160Y-106469435D01*
X130333712Y-106256158D01*
X130390884Y-106030391D01*
X130410116Y-105798294D01*
X130390884Y-105566197D01*
X130390883Y-105566191D01*
X130333713Y-105340433D01*
X130333710Y-105340425D01*
X130288694Y-105237800D01*
X130240160Y-105127153D01*
X130159435Y-105003594D01*
X130112784Y-104932188D01*
X130112783Y-104932186D01*
X129955050Y-104760842D01*
X129955048Y-104760841D01*
X129955046Y-104760838D01*
X129771260Y-104617792D01*
X129566437Y-104506947D01*
X129566433Y-104506945D01*
X129566430Y-104506944D01*
X129346167Y-104431328D01*
X129346158Y-104431325D01*
X129116450Y-104392994D01*
X129116446Y-104392994D01*
X128883554Y-104392994D01*
X128883550Y-104392994D01*
X128653841Y-104431325D01*
X128653832Y-104431328D01*
X128433569Y-104506944D01*
X128228740Y-104617792D01*
X128044949Y-104760842D01*
X127887216Y-104932186D01*
X127887215Y-104932188D01*
X127759844Y-105127146D01*
X127759835Y-105127163D01*
X127666289Y-105340425D01*
X127666286Y-105340433D01*
X127609116Y-105566191D01*
X127609115Y-105566197D01*
X127589884Y-105798293D01*
X127305300Y-105798293D01*
X127305300Y-101545999D01*
X128254544Y-101545999D01*
X128254545Y-101546000D01*
X128793884Y-101546000D01*
X128765507Y-101590156D01*
X128725000Y-101728111D01*
X128725000Y-101871889D01*
X128765507Y-102009844D01*
X128793884Y-102054000D01*
X128254545Y-102054000D01*
X128294419Y-102185452D01*
X128387504Y-102359601D01*
X128512759Y-102512224D01*
X128512775Y-102512240D01*
X128665398Y-102637495D01*
X128665397Y-102637495D01*
X128839547Y-102730580D01*
X128970999Y-102770455D01*
X128971000Y-102770454D01*
X128971000Y-102233674D01*
X129082685Y-102284680D01*
X129189237Y-102300000D01*
X129260763Y-102300000D01*
X129367315Y-102284680D01*
X129479000Y-102233674D01*
X129479000Y-102770455D01*
X129610452Y-102730580D01*
X129784601Y-102637495D01*
X129937224Y-102512240D01*
X129937240Y-102512224D01*
X130062495Y-102359601D01*
X130155580Y-102185452D01*
X130195455Y-102054000D01*
X129656116Y-102054000D01*
X129684493Y-102009844D01*
X129725000Y-101871889D01*
X129725000Y-101799999D01*
X130757247Y-101799999D01*
X130776612Y-101996609D01*
X130833898Y-102185452D01*
X130833958Y-102185650D01*
X130927084Y-102359878D01*
X131052411Y-102512589D01*
X131205122Y-102637916D01*
X131379350Y-102731042D01*
X131568397Y-102788389D01*
X131765000Y-102807753D01*
X131961603Y-102788389D01*
X132150650Y-102731042D01*
X132324878Y-102637916D01*
X132477589Y-102512589D01*
X132602916Y-102359878D01*
X132615490Y-102336352D01*
X132660261Y-102296218D01*
X132693011Y-102289889D01*
X134668430Y-102289889D01*
X134724931Y-102310454D01*
X134730585Y-102315634D01*
X139945744Y-107530794D01*
X139949538Y-107535120D01*
X139969229Y-107560781D01*
X139969232Y-107560783D01*
X139984148Y-107572229D01*
X139994877Y-107581967D01*
X140009893Y-107598045D01*
X140009899Y-107598050D01*
X140045932Y-107619962D01*
X140049855Y-107622648D01*
X140080752Y-107646357D01*
X140081030Y-107646517D01*
X140085619Y-107649565D01*
X140085870Y-107649755D01*
X140104631Y-107657153D01*
X140118054Y-107663820D01*
X140123942Y-107667400D01*
X140135294Y-107674304D01*
X140172711Y-107684787D01*
X140177673Y-107686504D01*
X140181051Y-107687903D01*
X140210635Y-107700157D01*
X140210638Y-107700157D01*
X140217703Y-107702050D01*
X140222357Y-107703586D01*
X140222399Y-107703595D01*
X140222403Y-107703597D01*
X140242466Y-107705659D01*
X140257188Y-107708456D01*
X140276617Y-107713900D01*
X140312141Y-107713900D01*
X140317878Y-107714275D01*
X140350011Y-107718506D01*
X140350011Y-107718505D01*
X140350013Y-107718506D01*
X140355778Y-107718506D01*
X140355778Y-107718728D01*
X140367903Y-107718555D01*
X140368399Y-107718606D01*
X140388281Y-107715177D01*
X140403216Y-107713900D01*
X153486617Y-107713900D01*
X154830120Y-107713900D01*
X154831620Y-107713926D01*
X154857852Y-107714821D01*
X154895112Y-107716094D01*
X154937635Y-107705731D01*
X154942036Y-107704894D01*
X154985399Y-107698935D01*
X155003901Y-107690897D01*
X155018104Y-107686122D01*
X155037706Y-107681346D01*
X155075863Y-107659890D01*
X155079862Y-107657903D01*
X155120014Y-107640464D01*
X155135662Y-107627732D01*
X155148055Y-107619298D01*
X155165635Y-107609414D01*
X155196577Y-107578470D01*
X155199907Y-107575464D01*
X155233862Y-107547842D01*
X155245497Y-107531356D01*
X155255144Y-107519903D01*
X156760580Y-106014467D01*
X156761607Y-106013475D01*
X156808046Y-105970106D01*
X156830782Y-105932716D01*
X156833308Y-105929004D01*
X156859755Y-105894130D01*
X156867153Y-105875366D01*
X156873820Y-105861943D01*
X156884304Y-105844706D01*
X156896112Y-105802555D01*
X156897542Y-105798305D01*
X156897547Y-105798294D01*
X163589884Y-105798294D01*
X163609115Y-106030390D01*
X163609116Y-106030396D01*
X163666286Y-106256154D01*
X163666289Y-106256162D01*
X163737987Y-106419615D01*
X163759840Y-106469435D01*
X163759844Y-106469441D01*
X163887215Y-106664399D01*
X163887216Y-106664401D01*
X164013979Y-106802103D01*
X164044954Y-106835750D01*
X164228740Y-106978796D01*
X164433563Y-107089641D01*
X164653837Y-107165261D01*
X164653839Y-107165261D01*
X164653841Y-107165262D01*
X164883550Y-107203594D01*
X164883554Y-107203594D01*
X165116450Y-107203594D01*
X165346158Y-107165262D01*
X165346158Y-107165261D01*
X165346163Y-107165261D01*
X165566437Y-107089641D01*
X165771260Y-106978796D01*
X165955046Y-106835750D01*
X166112780Y-106664405D01*
X166240160Y-106469435D01*
X166333712Y-106256158D01*
X166390884Y-106030391D01*
X166410116Y-105798294D01*
X166390884Y-105566197D01*
X166390883Y-105566191D01*
X166333713Y-105340433D01*
X166333710Y-105340425D01*
X166288694Y-105237800D01*
X166240160Y-105127153D01*
X166159435Y-105003594D01*
X166112784Y-104932188D01*
X166112783Y-104932186D01*
X165955050Y-104760842D01*
X165955048Y-104760841D01*
X165955046Y-104760838D01*
X165771260Y-104617792D01*
X165566437Y-104506947D01*
X165566433Y-104506945D01*
X165566430Y-104506944D01*
X165346167Y-104431328D01*
X165346158Y-104431325D01*
X165116450Y-104392994D01*
X165116446Y-104392994D01*
X164883554Y-104392994D01*
X164883550Y-104392994D01*
X164653841Y-104431325D01*
X164653832Y-104431328D01*
X164433569Y-104506944D01*
X164228740Y-104617792D01*
X164044949Y-104760842D01*
X163887216Y-104932186D01*
X163887215Y-104932188D01*
X163759844Y-105127146D01*
X163759835Y-105127163D01*
X163666289Y-105340425D01*
X163666286Y-105340433D01*
X163609116Y-105566191D01*
X163609115Y-105566197D01*
X163589884Y-105798294D01*
X156897547Y-105798294D01*
X156913597Y-105757597D01*
X156915660Y-105737525D01*
X156918456Y-105722812D01*
X156923900Y-105703383D01*
X156923900Y-105659628D01*
X156924131Y-105655131D01*
X156928606Y-105611600D01*
X156928606Y-105611599D01*
X156925178Y-105591717D01*
X156923900Y-105576782D01*
X156923900Y-105237800D01*
X156944465Y-105181299D01*
X156996536Y-105151235D01*
X157011800Y-105149900D01*
X157320001Y-105149900D01*
X157332442Y-105151931D01*
X157332588Y-105150892D01*
X157340654Y-105152016D01*
X157340660Y-105152018D01*
X157385454Y-105149946D01*
X157387482Y-105149900D01*
X157405935Y-105149900D01*
X157409332Y-105149264D01*
X157415383Y-105148563D01*
X157433772Y-105147712D01*
X157445193Y-105147185D01*
X157451049Y-105144598D01*
X157454019Y-105143288D01*
X157473374Y-105137293D01*
X157482863Y-105135520D01*
X157508241Y-105119804D01*
X157513607Y-105116975D01*
X157540922Y-105104916D01*
X157547748Y-105098089D01*
X157563628Y-105085510D01*
X157571833Y-105080431D01*
X157589813Y-105056619D01*
X157593804Y-105052032D01*
X158655495Y-103990342D01*
X158665730Y-103982987D01*
X158665095Y-103982146D01*
X158671599Y-103977234D01*
X158671598Y-103977233D01*
X158701821Y-103944081D01*
X158703168Y-103942670D01*
X158716258Y-103929581D01*
X158718213Y-103926726D01*
X158721983Y-103921964D01*
X158742098Y-103899901D01*
X158745584Y-103890900D01*
X158755034Y-103872973D01*
X158760486Y-103865016D01*
X158767319Y-103835961D01*
X158769116Y-103830156D01*
X158779900Y-103802322D01*
X158779900Y-103792663D01*
X158782235Y-103772537D01*
X158784443Y-103763151D01*
X158780321Y-103733605D01*
X158779900Y-103727528D01*
X158779900Y-100165487D01*
X158800465Y-100108986D01*
X158814291Y-100095751D01*
X158894325Y-100034339D01*
X158894333Y-100034333D01*
X158982957Y-99918836D01*
X159038669Y-99784336D01*
X159057671Y-99640000D01*
X159038669Y-99495664D01*
X158982957Y-99361165D01*
X158982957Y-99361164D01*
X158894336Y-99245670D01*
X158894333Y-99245667D01*
X158778835Y-99157042D01*
X158644336Y-99101331D01*
X158500000Y-99082329D01*
X158355663Y-99101331D01*
X158221165Y-99157042D01*
X158105668Y-99245665D01*
X158105665Y-99245668D01*
X158017042Y-99361165D01*
X157961331Y-99495663D01*
X157942328Y-99639999D01*
X157942328Y-99640000D01*
X157961331Y-99784336D01*
X158017042Y-99918835D01*
X158105667Y-100034333D01*
X158105674Y-100034339D01*
X158185709Y-100095751D01*
X158218016Y-100146461D01*
X158220100Y-100165487D01*
X158220100Y-103597652D01*
X158199535Y-103654153D01*
X158194355Y-103659807D01*
X157289807Y-104564355D01*
X157235313Y-104589766D01*
X157227652Y-104590100D01*
X156955583Y-104590100D01*
X156899082Y-104569535D01*
X156885847Y-104555709D01*
X156807027Y-104452987D01*
X156807021Y-104452981D01*
X156684882Y-104359261D01*
X156542647Y-104300346D01*
X156390010Y-104280251D01*
X156237372Y-104300346D01*
X156095137Y-104359262D01*
X156095135Y-104359263D01*
X155973001Y-104452978D01*
X155972992Y-104452987D01*
X155879277Y-104575121D01*
X155879276Y-104575123D01*
X155869455Y-104598835D01*
X155820360Y-104717359D01*
X155800265Y-104869996D01*
X155820360Y-105022633D01*
X155848628Y-105090879D01*
X155849409Y-105092763D01*
X155856100Y-105126401D01*
X155856100Y-105372440D01*
X155835535Y-105428941D01*
X155830355Y-105434595D01*
X154644596Y-106620355D01*
X154590102Y-106645766D01*
X154582441Y-106646100D01*
X140607559Y-106646100D01*
X140551058Y-106625535D01*
X140545404Y-106620355D01*
X138245049Y-104320000D01*
X142572329Y-104320000D01*
X142591331Y-104464336D01*
X142647042Y-104598835D01*
X142735665Y-104714331D01*
X142735668Y-104714334D01*
X142796273Y-104760838D01*
X142851164Y-104802957D01*
X142985664Y-104858669D01*
X143130000Y-104877671D01*
X143274336Y-104858669D01*
X143408836Y-104802957D01*
X143524333Y-104714333D01*
X143612957Y-104598836D01*
X143612958Y-104598831D01*
X143615838Y-104593846D01*
X143617023Y-104594530D01*
X143630086Y-104574961D01*
X144392903Y-103812145D01*
X144447398Y-103786734D01*
X144455059Y-103786400D01*
X149856665Y-103786400D01*
X149879741Y-103790991D01*
X149880094Y-103789677D01*
X149885660Y-103791167D01*
X149885664Y-103791169D01*
X150030000Y-103810171D01*
X150174336Y-103791169D01*
X150308836Y-103735457D01*
X150424333Y-103646833D01*
X150512957Y-103531336D01*
X150568669Y-103396836D01*
X150587671Y-103252500D01*
X150568669Y-103108164D01*
X150567178Y-103102600D01*
X150568486Y-103102249D01*
X150563900Y-103079166D01*
X150563900Y-101837559D01*
X150584465Y-101781058D01*
X150589645Y-101775404D01*
X153645404Y-98719645D01*
X153699898Y-98694234D01*
X153707559Y-98693900D01*
X160772441Y-98693900D01*
X160828942Y-98714465D01*
X160834596Y-98719645D01*
X161485502Y-99370552D01*
X161486524Y-99371609D01*
X161504170Y-99390503D01*
X161529892Y-99418045D01*
X161567276Y-99440779D01*
X161570998Y-99443312D01*
X161605867Y-99469753D01*
X161605866Y-99469753D01*
X161605868Y-99469754D01*
X161605870Y-99469755D01*
X161624631Y-99477153D01*
X161638054Y-99483820D01*
X161643942Y-99487400D01*
X161655294Y-99494304D01*
X161683033Y-99502075D01*
X161697431Y-99506110D01*
X161701699Y-99507546D01*
X161729565Y-99518534D01*
X161742402Y-99523597D01*
X161762472Y-99525660D01*
X161777191Y-99528457D01*
X161796617Y-99533900D01*
X161840369Y-99533900D01*
X161844866Y-99534131D01*
X161864356Y-99536134D01*
X161888399Y-99538606D01*
X161904435Y-99535840D01*
X161908281Y-99535178D01*
X161923215Y-99533900D01*
X164084201Y-99533900D01*
X164140702Y-99554465D01*
X164170766Y-99606536D01*
X164172101Y-99621799D01*
X164172101Y-99690056D01*
X164180972Y-99734658D01*
X164214766Y-99785234D01*
X164231701Y-99796550D01*
X164265341Y-99819028D01*
X164269615Y-99819878D01*
X164309943Y-99827900D01*
X165690056Y-99827899D01*
X165690058Y-99827899D01*
X165702750Y-99825374D01*
X165734658Y-99819028D01*
X165785234Y-99785234D01*
X165819028Y-99734658D01*
X165827900Y-99690057D01*
X165827899Y-98309944D01*
X165827899Y-98309943D01*
X165827899Y-98309941D01*
X165824111Y-98290902D01*
X165819028Y-98265342D01*
X165785234Y-98214766D01*
X165785002Y-98214611D01*
X165734658Y-98180971D01*
X165697456Y-98173571D01*
X165690057Y-98172100D01*
X165690056Y-98172100D01*
X164309941Y-98172100D01*
X164265341Y-98180972D01*
X164214767Y-98214765D01*
X164214764Y-98214768D01*
X164180971Y-98265341D01*
X164172100Y-98309943D01*
X164172100Y-98378200D01*
X164151535Y-98434701D01*
X164099464Y-98464765D01*
X164084200Y-98466100D01*
X162127559Y-98466100D01*
X162071058Y-98445535D01*
X162065404Y-98440355D01*
X161414482Y-97789432D01*
X161413487Y-97788404D01*
X161370106Y-97741954D01*
X161346754Y-97727753D01*
X161332721Y-97719219D01*
X161329000Y-97716687D01*
X161318054Y-97708387D01*
X161294130Y-97690245D01*
X161294128Y-97690244D01*
X161286345Y-97687175D01*
X161275364Y-97682844D01*
X161261945Y-97676179D01*
X161244706Y-97665696D01*
X161244703Y-97665695D01*
X161222312Y-97659421D01*
X161202561Y-97653888D01*
X161198300Y-97652454D01*
X161157597Y-97636403D01*
X161137524Y-97634338D01*
X161122807Y-97631541D01*
X161111061Y-97628251D01*
X161103384Y-97626100D01*
X161103383Y-97626100D01*
X161059630Y-97626100D01*
X161055133Y-97625869D01*
X161011606Y-97621394D01*
X161011598Y-97621394D01*
X160991719Y-97624822D01*
X160976785Y-97626100D01*
X154071811Y-97626100D01*
X154015310Y-97605535D01*
X153985246Y-97553464D01*
X153983911Y-97538200D01*
X153983911Y-97254000D01*
X164212549Y-97254000D01*
X164239970Y-97338389D01*
X164326934Y-97489015D01*
X164326935Y-97489016D01*
X164443310Y-97618264D01*
X164584022Y-97720497D01*
X164742912Y-97791239D01*
X164745999Y-97791894D01*
X164746000Y-97791894D01*
X164746000Y-97311686D01*
X164761955Y-97327641D01*
X164874852Y-97385165D01*
X164968519Y-97400000D01*
X165031481Y-97400000D01*
X165125148Y-97385165D01*
X165238045Y-97327641D01*
X165254000Y-97311686D01*
X165254000Y-97791894D01*
X165257087Y-97791239D01*
X165415977Y-97720497D01*
X165556689Y-97618264D01*
X165673064Y-97489016D01*
X165673065Y-97489015D01*
X165760029Y-97338389D01*
X165787451Y-97254000D01*
X165311686Y-97254000D01*
X165327641Y-97238045D01*
X165385165Y-97125148D01*
X165404986Y-97000000D01*
X165385165Y-96874852D01*
X165327641Y-96761955D01*
X165311686Y-96746000D01*
X165787450Y-96746000D01*
X165787450Y-96745999D01*
X165760029Y-96661610D01*
X165673065Y-96510984D01*
X165673064Y-96510983D01*
X165556689Y-96381735D01*
X165415977Y-96279502D01*
X165257088Y-96208761D01*
X165254000Y-96208104D01*
X165254000Y-96688313D01*
X165238045Y-96672359D01*
X165125148Y-96614835D01*
X165031481Y-96600000D01*
X164968519Y-96600000D01*
X164874852Y-96614835D01*
X164761955Y-96672359D01*
X164746000Y-96688314D01*
X164746000Y-96208104D01*
X164742911Y-96208761D01*
X164584022Y-96279502D01*
X164443310Y-96381735D01*
X164326935Y-96510983D01*
X164326934Y-96510984D01*
X164239970Y-96661610D01*
X164212549Y-96745999D01*
X164212550Y-96746000D01*
X164688314Y-96746000D01*
X164672359Y-96761955D01*
X164614835Y-96874852D01*
X164595014Y-97000000D01*
X164614835Y-97125148D01*
X164672359Y-97238045D01*
X164688314Y-97254000D01*
X164212549Y-97254000D01*
X153983911Y-97254000D01*
X153983911Y-93700004D01*
X164167540Y-93700004D01*
X164185729Y-93873072D01*
X164185731Y-93873078D01*
X164239510Y-94038592D01*
X164326526Y-94189308D01*
X164442976Y-94318638D01*
X164583770Y-94420932D01*
X164742756Y-94491717D01*
X164912984Y-94527900D01*
X165087016Y-94527900D01*
X165257244Y-94491717D01*
X165416230Y-94420932D01*
X165557024Y-94318638D01*
X165673474Y-94189308D01*
X165760490Y-94038592D01*
X165814269Y-93873078D01*
X165814270Y-93873072D01*
X165832460Y-93700004D01*
X165832460Y-93699995D01*
X165814270Y-93526927D01*
X165814269Y-93526924D01*
X165814269Y-93526922D01*
X165760490Y-93361408D01*
X165673474Y-93210692D01*
X165557024Y-93081362D01*
X165416230Y-92979068D01*
X165257244Y-92908283D01*
X165257242Y-92908282D01*
X165257241Y-92908282D01*
X165087016Y-92872100D01*
X164912984Y-92872100D01*
X164742758Y-92908282D01*
X164742754Y-92908284D01*
X164583769Y-92979068D01*
X164442977Y-93081361D01*
X164442975Y-93081362D01*
X164326527Y-93210690D01*
X164239511Y-93361406D01*
X164185729Y-93526927D01*
X164167540Y-93699995D01*
X164167540Y-93700004D01*
X153983911Y-93700004D01*
X153983911Y-92636432D01*
X153990602Y-92602794D01*
X154003754Y-92571042D01*
X154019661Y-92532640D01*
X154038432Y-92390058D01*
X164172100Y-92390058D01*
X164180972Y-92434658D01*
X164214766Y-92485234D01*
X164231701Y-92496550D01*
X164265341Y-92519028D01*
X164272741Y-92520499D01*
X164309943Y-92527900D01*
X165690056Y-92527899D01*
X165690058Y-92527899D01*
X165702750Y-92525374D01*
X165734658Y-92519028D01*
X165785234Y-92485234D01*
X165819028Y-92434658D01*
X165827900Y-92390057D01*
X165827899Y-91009944D01*
X165827899Y-91009943D01*
X165827899Y-91009941D01*
X165824111Y-90990902D01*
X165819028Y-90965342D01*
X165785234Y-90914766D01*
X165783892Y-90913869D01*
X165734658Y-90880971D01*
X165697456Y-90873571D01*
X165690057Y-90872100D01*
X165690056Y-90872100D01*
X164309941Y-90872100D01*
X164265341Y-90880972D01*
X164214767Y-90914765D01*
X164214764Y-90914768D01*
X164180971Y-90965341D01*
X164172100Y-91009943D01*
X164172100Y-92390058D01*
X154038432Y-92390058D01*
X154039756Y-92380003D01*
X154019661Y-92227366D01*
X153960745Y-92085131D01*
X153960743Y-92085128D01*
X153867028Y-91962994D01*
X153867022Y-91962988D01*
X153744883Y-91869268D01*
X153602648Y-91810353D01*
X153450011Y-91790258D01*
X153297373Y-91810353D01*
X153155138Y-91869269D01*
X153155136Y-91869270D01*
X153033002Y-91962985D01*
X153032993Y-91962994D01*
X152939278Y-92085128D01*
X152939277Y-92085130D01*
X152880361Y-92227365D01*
X152860266Y-92380002D01*
X152860266Y-92380003D01*
X152880361Y-92532640D01*
X152909420Y-92602794D01*
X152916111Y-92636432D01*
X152916111Y-97902430D01*
X152895546Y-97958931D01*
X152890366Y-97964585D01*
X150092155Y-100762796D01*
X150037661Y-100788207D01*
X149979583Y-100772644D01*
X149967845Y-100762796D01*
X148254482Y-99049432D01*
X148253487Y-99048404D01*
X148210106Y-99001954D01*
X148172722Y-98979219D01*
X148169000Y-98976687D01*
X148162589Y-98971825D01*
X148134130Y-98950245D01*
X148134128Y-98950244D01*
X148126345Y-98947175D01*
X148115364Y-98942844D01*
X148101945Y-98936179D01*
X148084706Y-98925696D01*
X148084703Y-98925695D01*
X148062312Y-98919421D01*
X148042561Y-98913888D01*
X148038300Y-98912454D01*
X147997597Y-98896403D01*
X147977524Y-98894338D01*
X147962807Y-98891541D01*
X147951061Y-98888251D01*
X147943384Y-98886100D01*
X147943383Y-98886100D01*
X147899630Y-98886100D01*
X147895133Y-98885869D01*
X147851606Y-98881394D01*
X147851598Y-98881394D01*
X147831719Y-98884822D01*
X147816785Y-98886100D01*
X143303335Y-98886100D01*
X143280258Y-98881508D01*
X143279906Y-98882823D01*
X143274337Y-98881331D01*
X143130000Y-98862329D01*
X142985663Y-98881331D01*
X142851165Y-98937042D01*
X142735668Y-99025665D01*
X142735665Y-99025668D01*
X142647042Y-99141165D01*
X142591331Y-99275663D01*
X142572329Y-99419999D01*
X142572329Y-99420000D01*
X142591331Y-99564336D01*
X142647042Y-99698835D01*
X142735665Y-99814331D01*
X142735668Y-99814334D01*
X142753348Y-99827900D01*
X142851164Y-99902957D01*
X142985664Y-99958669D01*
X143130000Y-99977671D01*
X143274336Y-99958669D01*
X143274340Y-99958666D01*
X143279906Y-99957177D01*
X143280258Y-99958491D01*
X143303335Y-99953900D01*
X147612441Y-99953900D01*
X147668942Y-99974465D01*
X147674596Y-99979645D01*
X149470355Y-101775403D01*
X149495766Y-101829897D01*
X149496100Y-101837558D01*
X149496100Y-102630700D01*
X149475535Y-102687201D01*
X149423464Y-102717265D01*
X149408200Y-102718600D01*
X144207381Y-102718600D01*
X144205881Y-102718574D01*
X144142389Y-102716406D01*
X144142388Y-102716406D01*
X144138863Y-102717265D01*
X144099872Y-102726765D01*
X144095451Y-102727605D01*
X144052100Y-102733565D01*
X144052094Y-102733566D01*
X144033595Y-102741601D01*
X144019396Y-102746376D01*
X143999795Y-102751153D01*
X143999790Y-102751155D01*
X143961641Y-102772604D01*
X143957610Y-102774606D01*
X143917488Y-102792034D01*
X143917482Y-102792038D01*
X143901837Y-102804766D01*
X143889453Y-102813195D01*
X143871866Y-102823084D01*
X143871862Y-102823088D01*
X143840922Y-102854026D01*
X143837581Y-102857041D01*
X143803640Y-102884655D01*
X143803638Y-102884658D01*
X143792005Y-102901137D01*
X143782351Y-102912598D01*
X142875036Y-103819913D01*
X142855481Y-103832995D01*
X142856155Y-103834162D01*
X142851161Y-103837045D01*
X142735671Y-103925662D01*
X142735665Y-103925668D01*
X142647042Y-104041165D01*
X142591331Y-104175663D01*
X142572329Y-104319999D01*
X142572329Y-104320000D01*
X138245049Y-104320000D01*
X135310471Y-101385421D01*
X135309476Y-101384393D01*
X135266095Y-101337943D01*
X135228711Y-101315208D01*
X135224989Y-101312676D01*
X135218578Y-101307814D01*
X135190119Y-101286234D01*
X135190117Y-101286233D01*
X135182334Y-101283164D01*
X135171353Y-101278833D01*
X135157934Y-101272168D01*
X135140695Y-101261685D01*
X135140692Y-101261684D01*
X135118301Y-101255410D01*
X135098550Y-101249877D01*
X135094289Y-101248443D01*
X135053586Y-101232392D01*
X135033513Y-101230327D01*
X135018796Y-101227530D01*
X135007050Y-101224240D01*
X134999373Y-101222089D01*
X134999372Y-101222089D01*
X134955619Y-101222089D01*
X134951122Y-101221858D01*
X134907595Y-101217383D01*
X134907587Y-101217383D01*
X134887708Y-101220811D01*
X134872774Y-101222089D01*
X132629690Y-101222089D01*
X132573189Y-101201524D01*
X132561746Y-101189956D01*
X132477589Y-101087411D01*
X132324878Y-100962084D01*
X132150650Y-100868958D01*
X132150649Y-100868957D01*
X132150648Y-100868957D01*
X131961609Y-100811612D01*
X131961604Y-100811611D01*
X131961603Y-100811611D01*
X131765000Y-100792247D01*
X131764999Y-100792247D01*
X131717657Y-100796909D01*
X131568397Y-100811611D01*
X131568395Y-100811611D01*
X131568390Y-100811612D01*
X131379351Y-100868957D01*
X131205121Y-100962084D01*
X131052413Y-101087409D01*
X131052409Y-101087413D01*
X130927084Y-101240121D01*
X130833957Y-101414351D01*
X130776612Y-101603390D01*
X130757247Y-101799999D01*
X129725000Y-101799999D01*
X129725000Y-101728111D01*
X129684493Y-101590156D01*
X129656116Y-101546000D01*
X130195455Y-101546000D01*
X130195455Y-101545999D01*
X130155580Y-101414547D01*
X130062495Y-101240398D01*
X129937240Y-101087775D01*
X129937224Y-101087759D01*
X129784601Y-100962504D01*
X129784602Y-100962504D01*
X129610458Y-100869422D01*
X129479000Y-100829544D01*
X129478999Y-101366325D01*
X129367315Y-101315320D01*
X129260763Y-101300000D01*
X129189237Y-101300000D01*
X129082685Y-101315320D01*
X128971000Y-101366325D01*
X128971000Y-100829544D01*
X128839541Y-100869422D01*
X128665398Y-100962504D01*
X128512775Y-101087759D01*
X128512759Y-101087775D01*
X128387504Y-101240398D01*
X128294419Y-101414547D01*
X128254544Y-101545999D01*
X127305300Y-101545999D01*
X127305300Y-99260000D01*
X128217247Y-99260000D01*
X128235052Y-99440779D01*
X128236612Y-99456609D01*
X128292244Y-99640000D01*
X128293958Y-99645650D01*
X128387084Y-99819878D01*
X128512411Y-99972589D01*
X128665122Y-100097916D01*
X128839350Y-100191042D01*
X129028397Y-100248389D01*
X129225000Y-100267753D01*
X129421603Y-100248389D01*
X129610650Y-100191042D01*
X129784878Y-100097916D01*
X129937589Y-99972589D01*
X130062916Y-99819878D01*
X130156042Y-99645650D01*
X130213389Y-99456603D01*
X130232753Y-99260000D01*
X130757247Y-99260000D01*
X130775052Y-99440779D01*
X130776612Y-99456609D01*
X130832244Y-99640000D01*
X130833958Y-99645650D01*
X130927084Y-99819878D01*
X131052411Y-99972589D01*
X131205122Y-100097916D01*
X131379350Y-100191042D01*
X131568397Y-100248389D01*
X131765000Y-100267753D01*
X131961603Y-100248389D01*
X132150650Y-100191042D01*
X132324878Y-100097916D01*
X132477589Y-99972589D01*
X132602916Y-99819878D01*
X132696042Y-99645650D01*
X132753389Y-99456603D01*
X132772753Y-99260000D01*
X132753389Y-99063397D01*
X132748825Y-99048353D01*
X132727086Y-98976687D01*
X132696042Y-98874350D01*
X132602916Y-98700122D01*
X132477589Y-98547411D01*
X132324878Y-98422084D01*
X132150650Y-98328958D01*
X132150649Y-98328957D01*
X132150648Y-98328957D01*
X131961609Y-98271612D01*
X131961604Y-98271611D01*
X131961603Y-98271611D01*
X131765000Y-98252247D01*
X131568397Y-98271611D01*
X131568395Y-98271611D01*
X131568390Y-98271612D01*
X131379351Y-98328957D01*
X131205121Y-98422084D01*
X131052413Y-98547409D01*
X131052409Y-98547413D01*
X130927084Y-98700121D01*
X130833957Y-98874351D01*
X130776612Y-99063390D01*
X130776611Y-99063395D01*
X130776611Y-99063397D01*
X130757247Y-99260000D01*
X130232753Y-99260000D01*
X130213389Y-99063397D01*
X130208825Y-99048353D01*
X130187086Y-98976687D01*
X130156042Y-98874350D01*
X130062916Y-98700122D01*
X129937589Y-98547411D01*
X129784878Y-98422084D01*
X129610650Y-98328958D01*
X129610649Y-98328957D01*
X129610648Y-98328957D01*
X129421609Y-98271612D01*
X129421604Y-98271611D01*
X129421603Y-98271611D01*
X129225000Y-98252247D01*
X129028397Y-98271611D01*
X129028395Y-98271611D01*
X129028390Y-98271612D01*
X128839351Y-98328957D01*
X128665121Y-98422084D01*
X128512413Y-98547409D01*
X128512409Y-98547413D01*
X128387084Y-98700121D01*
X128293957Y-98874351D01*
X128236612Y-99063390D01*
X128236611Y-99063395D01*
X128236611Y-99063397D01*
X128217247Y-99260000D01*
X127305300Y-99260000D01*
X127305300Y-96719999D01*
X128217247Y-96719999D01*
X128236612Y-96916609D01*
X128261909Y-97000000D01*
X128293958Y-97105650D01*
X128387084Y-97279878D01*
X128512411Y-97432589D01*
X128665122Y-97557916D01*
X128839350Y-97651042D01*
X129028397Y-97708389D01*
X129225000Y-97727753D01*
X129421603Y-97708389D01*
X129610650Y-97651042D01*
X129784878Y-97557916D01*
X129937589Y-97432589D01*
X130062916Y-97279878D01*
X130156042Y-97105650D01*
X130213389Y-96916603D01*
X130232753Y-96720000D01*
X130757247Y-96720000D01*
X130776612Y-96916609D01*
X130801909Y-97000000D01*
X130833958Y-97105650D01*
X130927084Y-97279878D01*
X131052411Y-97432589D01*
X131205122Y-97557916D01*
X131379350Y-97651042D01*
X131568397Y-97708389D01*
X131765000Y-97727753D01*
X131961603Y-97708389D01*
X132150650Y-97651042D01*
X132324878Y-97557916D01*
X132477589Y-97432589D01*
X132602916Y-97279878D01*
X132696042Y-97105650D01*
X132753389Y-96916603D01*
X132772753Y-96720000D01*
X132753389Y-96523397D01*
X132739878Y-96478859D01*
X132726947Y-96436231D01*
X132696042Y-96334350D01*
X132602916Y-96160122D01*
X132477589Y-96007411D01*
X132324878Y-95882084D01*
X132150650Y-95788958D01*
X132150649Y-95788957D01*
X132150648Y-95788957D01*
X131961609Y-95731612D01*
X131961604Y-95731611D01*
X131961603Y-95731611D01*
X131765000Y-95712247D01*
X131764999Y-95712247D01*
X131717657Y-95716909D01*
X131568397Y-95731611D01*
X131568395Y-95731611D01*
X131568390Y-95731612D01*
X131379351Y-95788957D01*
X131205121Y-95882084D01*
X131052413Y-96007409D01*
X131052409Y-96007413D01*
X130927084Y-96160121D01*
X130833957Y-96334351D01*
X130776612Y-96523390D01*
X130757247Y-96720000D01*
X130232753Y-96720000D01*
X130213389Y-96523397D01*
X130199878Y-96478859D01*
X130186947Y-96436231D01*
X130156042Y-96334350D01*
X130062916Y-96160122D01*
X129937589Y-96007411D01*
X129784878Y-95882084D01*
X129610650Y-95788958D01*
X129610649Y-95788957D01*
X129610648Y-95788957D01*
X129421609Y-95731612D01*
X129421604Y-95731611D01*
X129421603Y-95731611D01*
X129225000Y-95712247D01*
X129224999Y-95712247D01*
X129177657Y-95716909D01*
X129028397Y-95731611D01*
X129028395Y-95731611D01*
X129028390Y-95731612D01*
X128839351Y-95788957D01*
X128665121Y-95882084D01*
X128512413Y-96007409D01*
X128512409Y-96007413D01*
X128387084Y-96160121D01*
X128293957Y-96334351D01*
X128236612Y-96523390D01*
X128217247Y-96719999D01*
X127305300Y-96719999D01*
X127305300Y-95535152D01*
X127305300Y-93925999D01*
X128254544Y-93925999D01*
X128254545Y-93926000D01*
X128793884Y-93926000D01*
X128765507Y-93970156D01*
X128725000Y-94108111D01*
X128725000Y-94251889D01*
X128765507Y-94389844D01*
X128793884Y-94434000D01*
X128254545Y-94434000D01*
X128294419Y-94565452D01*
X128387504Y-94739601D01*
X128512759Y-94892224D01*
X128512775Y-94892240D01*
X128665398Y-95017495D01*
X128665397Y-95017495D01*
X128839547Y-95110580D01*
X128970999Y-95150455D01*
X128971000Y-95150454D01*
X128971000Y-94613674D01*
X129082685Y-94664680D01*
X129189237Y-94680000D01*
X129260763Y-94680000D01*
X129367315Y-94664680D01*
X129479000Y-94613674D01*
X129479000Y-95150455D01*
X129610452Y-95110580D01*
X129784601Y-95017495D01*
X129937224Y-94892240D01*
X129937240Y-94892224D01*
X130062495Y-94739601D01*
X130155580Y-94565452D01*
X130195455Y-94434000D01*
X129656116Y-94434000D01*
X129684493Y-94389844D01*
X129725000Y-94251889D01*
X129725000Y-94180000D01*
X130757247Y-94180000D01*
X130771030Y-94319944D01*
X130776612Y-94376609D01*
X130833898Y-94565452D01*
X130833958Y-94565650D01*
X130927084Y-94739878D01*
X131052411Y-94892589D01*
X131205122Y-95017916D01*
X131379350Y-95111042D01*
X131568397Y-95168389D01*
X131765000Y-95187753D01*
X131961603Y-95168389D01*
X132150650Y-95111042D01*
X132324878Y-95017916D01*
X132477589Y-94892589D01*
X132602916Y-94739878D01*
X132696042Y-94565650D01*
X132753389Y-94376603D01*
X132772753Y-94180000D01*
X132753389Y-93983397D01*
X132696042Y-93794350D01*
X132602916Y-93620122D01*
X132477589Y-93467411D01*
X132324878Y-93342084D01*
X132150650Y-93248958D01*
X132150649Y-93248957D01*
X132150648Y-93248957D01*
X131961609Y-93191612D01*
X131961604Y-93191611D01*
X131961603Y-93191611D01*
X131765000Y-93172247D01*
X131568397Y-93191611D01*
X131568395Y-93191611D01*
X131568390Y-93191612D01*
X131379351Y-93248957D01*
X131205121Y-93342084D01*
X131052413Y-93467409D01*
X131052409Y-93467413D01*
X130927084Y-93620121D01*
X130833957Y-93794351D01*
X130776612Y-93983390D01*
X130776611Y-93983395D01*
X130776611Y-93983397D01*
X130757247Y-94180000D01*
X129725000Y-94180000D01*
X129725000Y-94108111D01*
X129684493Y-93970156D01*
X129656116Y-93926000D01*
X130195455Y-93926000D01*
X130195455Y-93925999D01*
X130155580Y-93794547D01*
X130062495Y-93620398D01*
X129937240Y-93467775D01*
X129937224Y-93467759D01*
X129784601Y-93342504D01*
X129784602Y-93342504D01*
X129610458Y-93249422D01*
X129479000Y-93209544D01*
X129478999Y-93746325D01*
X129367315Y-93695320D01*
X129260763Y-93680000D01*
X129189237Y-93680000D01*
X129082685Y-93695320D01*
X128971000Y-93746325D01*
X128971000Y-93209544D01*
X128839541Y-93249422D01*
X128665398Y-93342504D01*
X128512775Y-93467759D01*
X128512759Y-93467775D01*
X128387504Y-93620398D01*
X128294419Y-93794547D01*
X128254544Y-93925999D01*
X127305300Y-93925999D01*
X127305300Y-91385999D01*
X128254544Y-91385999D01*
X128254545Y-91386000D01*
X128793884Y-91386000D01*
X128765507Y-91430156D01*
X128725000Y-91568111D01*
X128725000Y-91711889D01*
X128765507Y-91849844D01*
X128793884Y-91894000D01*
X128254545Y-91894000D01*
X128294419Y-92025452D01*
X128387504Y-92199601D01*
X128512759Y-92352224D01*
X128512775Y-92352240D01*
X128665398Y-92477495D01*
X128665397Y-92477495D01*
X128839547Y-92570580D01*
X128970999Y-92610455D01*
X128971000Y-92610454D01*
X128971000Y-92073674D01*
X129082685Y-92124680D01*
X129189237Y-92140000D01*
X129260763Y-92140000D01*
X129367315Y-92124680D01*
X129479000Y-92073674D01*
X129479000Y-92610455D01*
X129610452Y-92570580D01*
X129784601Y-92477495D01*
X129937224Y-92352240D01*
X129937240Y-92352224D01*
X130062495Y-92199601D01*
X130155580Y-92025452D01*
X130195455Y-91894000D01*
X129656116Y-91894000D01*
X129684493Y-91849844D01*
X129725000Y-91711889D01*
X129725000Y-91640000D01*
X130757247Y-91640000D01*
X130772046Y-91790258D01*
X130776612Y-91836609D01*
X130833898Y-92025452D01*
X130833958Y-92025650D01*
X130927084Y-92199878D01*
X131052411Y-92352589D01*
X131205122Y-92477916D01*
X131379350Y-92571042D01*
X131568397Y-92628389D01*
X131765000Y-92647753D01*
X131961603Y-92628389D01*
X132150650Y-92571042D01*
X132324878Y-92477916D01*
X132477589Y-92352589D01*
X132602916Y-92199878D01*
X132696042Y-92025650D01*
X132722548Y-91938271D01*
X132758629Y-91890174D01*
X132806663Y-91875889D01*
X135153641Y-91875889D01*
X135210142Y-91896454D01*
X135215795Y-91901633D01*
X135790419Y-92476258D01*
X135790422Y-92476260D01*
X141139658Y-97825497D01*
X141147024Y-97835729D01*
X141147858Y-97835100D01*
X141152766Y-97841599D01*
X141185890Y-97871796D01*
X141187359Y-97873198D01*
X141200419Y-97886258D01*
X141203274Y-97888213D01*
X141208047Y-97891995D01*
X141230099Y-97912098D01*
X141239101Y-97915585D01*
X141257019Y-97925030D01*
X141264984Y-97930486D01*
X141294027Y-97937316D01*
X141299845Y-97939118D01*
X141310610Y-97943288D01*
X141327678Y-97949900D01*
X141337334Y-97949900D01*
X141357456Y-97952234D01*
X141366849Y-97954443D01*
X141396394Y-97950321D01*
X141402472Y-97949900D01*
X144137678Y-97949900D01*
X146910001Y-97949900D01*
X146922442Y-97951931D01*
X146922588Y-97950892D01*
X146930654Y-97952016D01*
X146930660Y-97952018D01*
X146975454Y-97949946D01*
X146977482Y-97949900D01*
X146995935Y-97949900D01*
X146999332Y-97949264D01*
X147005383Y-97948563D01*
X147023772Y-97947712D01*
X147035193Y-97947185D01*
X147041049Y-97944598D01*
X147044019Y-97943288D01*
X147063374Y-97937293D01*
X147072863Y-97935520D01*
X147098241Y-97919804D01*
X147103607Y-97916975D01*
X147130922Y-97904916D01*
X147137749Y-97898088D01*
X147153628Y-97885510D01*
X147161833Y-97880431D01*
X147179822Y-97856609D01*
X147183802Y-97852035D01*
X148531215Y-96504622D01*
X148541450Y-96497267D01*
X148540815Y-96496426D01*
X148547319Y-96491514D01*
X148558859Y-96478855D01*
X148577541Y-96458361D01*
X148578888Y-96456950D01*
X148591978Y-96443861D01*
X148593933Y-96441006D01*
X148597703Y-96436244D01*
X148617818Y-96414181D01*
X148621304Y-96405180D01*
X148630754Y-96387253D01*
X148636206Y-96379296D01*
X148643039Y-96350241D01*
X148644836Y-96344436D01*
X148655620Y-96316602D01*
X148655620Y-96306943D01*
X148657955Y-96286817D01*
X148660163Y-96277431D01*
X148656041Y-96247885D01*
X148655620Y-96241808D01*
X148655620Y-94989767D01*
X148676185Y-94933266D01*
X148690011Y-94920031D01*
X148770045Y-94858619D01*
X148770053Y-94858613D01*
X148858677Y-94743116D01*
X148914389Y-94608616D01*
X148933391Y-94464280D01*
X148914389Y-94319944D01*
X148858677Y-94185445D01*
X148799337Y-94108111D01*
X148770056Y-94069950D01*
X148770053Y-94069947D01*
X148654555Y-93981322D01*
X148520056Y-93925611D01*
X148375720Y-93906609D01*
X148231383Y-93925611D01*
X148096885Y-93981322D01*
X147981388Y-94069945D01*
X147981385Y-94069948D01*
X147892762Y-94185445D01*
X147837051Y-94319943D01*
X147818049Y-94464279D01*
X147818049Y-94464280D01*
X147837051Y-94608616D01*
X147892762Y-94743115D01*
X147981387Y-94858613D01*
X147981394Y-94858619D01*
X148061429Y-94920031D01*
X148093736Y-94970741D01*
X148095820Y-94989767D01*
X148095820Y-96111931D01*
X148075255Y-96168432D01*
X148070075Y-96174086D01*
X146879807Y-97364355D01*
X146825313Y-97389766D01*
X146817652Y-97390100D01*
X141532348Y-97390100D01*
X141475847Y-97369535D01*
X141470193Y-97364355D01*
X140215841Y-96110003D01*
X144539432Y-96110003D01*
X144559200Y-96247498D01*
X144559201Y-96247503D01*
X144559202Y-96247505D01*
X144616911Y-96373869D01*
X144707883Y-96478857D01*
X144707885Y-96478858D01*
X144707886Y-96478859D01*
X144824745Y-96553960D01*
X144824746Y-96553960D01*
X144824749Y-96553962D01*
X144915535Y-96580619D01*
X144958036Y-96593099D01*
X144958039Y-96593099D01*
X144958041Y-96593100D01*
X144958042Y-96593100D01*
X145096958Y-96593100D01*
X145096959Y-96593100D01*
X145096961Y-96593099D01*
X145096963Y-96593099D01*
X145112805Y-96588446D01*
X145230251Y-96553962D01*
X145347117Y-96478857D01*
X145438089Y-96373869D01*
X145495798Y-96247505D01*
X145496617Y-96241808D01*
X145515568Y-96110003D01*
X145515568Y-96109998D01*
X145510236Y-96072916D01*
X145522550Y-96014064D01*
X145535082Y-95998255D01*
X145605496Y-95927841D01*
X145615732Y-95920486D01*
X145615097Y-95919644D01*
X145621595Y-95914736D01*
X145621595Y-95914735D01*
X145621599Y-95914734D01*
X145651852Y-95881547D01*
X145653178Y-95880159D01*
X145666258Y-95867081D01*
X145668213Y-95864226D01*
X145671983Y-95859464D01*
X145692098Y-95837401D01*
X145695584Y-95828400D01*
X145705034Y-95810473D01*
X145710486Y-95802516D01*
X145717319Y-95773461D01*
X145719116Y-95767656D01*
X145729900Y-95739822D01*
X145729900Y-95730162D01*
X145732235Y-95710037D01*
X145734443Y-95700651D01*
X145730321Y-95671105D01*
X145729900Y-95665028D01*
X145729900Y-91092379D01*
X145750465Y-91035878D01*
X145764969Y-91023106D01*
X145764860Y-91022980D01*
X145769614Y-91018859D01*
X145769614Y-91018858D01*
X145769617Y-91018857D01*
X145860589Y-90913869D01*
X145918298Y-90787505D01*
X145929591Y-90708958D01*
X145938068Y-90650003D01*
X145938068Y-90649996D01*
X145918299Y-90512501D01*
X145918298Y-90512500D01*
X145918298Y-90512495D01*
X145860589Y-90386131D01*
X145769617Y-90281143D01*
X145769615Y-90281142D01*
X145769613Y-90281140D01*
X145652754Y-90206039D01*
X145652751Y-90206038D01*
X145626092Y-90198210D01*
X145519463Y-90166900D01*
X145519459Y-90166900D01*
X145380541Y-90166900D01*
X145380536Y-90166900D01*
X145247249Y-90206038D01*
X145247245Y-90206039D01*
X145130386Y-90281140D01*
X145130381Y-90281144D01*
X145039410Y-90386132D01*
X144981702Y-90512495D01*
X144981700Y-90512501D01*
X144961932Y-90649996D01*
X144961932Y-90650003D01*
X144981700Y-90787498D01*
X144981702Y-90787504D01*
X145039411Y-90913870D01*
X145130385Y-91018859D01*
X145135140Y-91022980D01*
X145134097Y-91024182D01*
X145166135Y-91066277D01*
X145170100Y-91092379D01*
X145170100Y-95535152D01*
X145149535Y-95591653D01*
X145144367Y-95597293D01*
X145140513Y-95601148D01*
X145086025Y-95626565D01*
X145078353Y-95626900D01*
X144958036Y-95626900D01*
X144824749Y-95666038D01*
X144824745Y-95666039D01*
X144707886Y-95741140D01*
X144707881Y-95741144D01*
X144616910Y-95846132D01*
X144559202Y-95972495D01*
X144559200Y-95972501D01*
X144539432Y-96109996D01*
X144539432Y-96110003D01*
X140215841Y-96110003D01*
X135546331Y-91440493D01*
X135538967Y-91430255D01*
X135538130Y-91430888D01*
X135533224Y-91424390D01*
X135500086Y-91394181D01*
X135498617Y-91392779D01*
X135485568Y-91379730D01*
X135482719Y-91377778D01*
X135477944Y-91373996D01*
X135455892Y-91353893D01*
X135455890Y-91353891D01*
X135455887Y-91353890D01*
X135455886Y-91353889D01*
X135446887Y-91350403D01*
X135428965Y-91340956D01*
X135421005Y-91335503D01*
X135414204Y-91333903D01*
X135391956Y-91328670D01*
X135386136Y-91326868D01*
X135358315Y-91316090D01*
X135358312Y-91316089D01*
X135358311Y-91316089D01*
X135358310Y-91316089D01*
X135348657Y-91316089D01*
X135328532Y-91313754D01*
X135319140Y-91311545D01*
X135289588Y-91315667D01*
X135283511Y-91316089D01*
X132779962Y-91316089D01*
X132723461Y-91295524D01*
X132698645Y-91257946D01*
X132697695Y-91258340D01*
X132696043Y-91254352D01*
X132609467Y-91092379D01*
X132602916Y-91080122D01*
X132477589Y-90927411D01*
X132324878Y-90802084D01*
X132150650Y-90708958D01*
X132150649Y-90708957D01*
X132150648Y-90708957D01*
X131961609Y-90651612D01*
X131961604Y-90651611D01*
X131961603Y-90651611D01*
X131765000Y-90632247D01*
X131764999Y-90632247D01*
X131717657Y-90636909D01*
X131568397Y-90651611D01*
X131568395Y-90651611D01*
X131568390Y-90651612D01*
X131379351Y-90708957D01*
X131205121Y-90802084D01*
X131052413Y-90927409D01*
X131052409Y-90927413D01*
X130927084Y-91080121D01*
X130833957Y-91254351D01*
X130776612Y-91443390D01*
X130776611Y-91443395D01*
X130776611Y-91443397D01*
X130757247Y-91640000D01*
X129725000Y-91640000D01*
X129725000Y-91568111D01*
X129684493Y-91430156D01*
X129656116Y-91386000D01*
X130195455Y-91386000D01*
X130195455Y-91385999D01*
X130155580Y-91254547D01*
X130062495Y-91080398D01*
X129937240Y-90927775D01*
X129937224Y-90927759D01*
X129784601Y-90802504D01*
X129784602Y-90802504D01*
X129610458Y-90709422D01*
X129479000Y-90669544D01*
X129478999Y-91206325D01*
X129367315Y-91155320D01*
X129260763Y-91140000D01*
X129189237Y-91140000D01*
X129082685Y-91155320D01*
X128971000Y-91206325D01*
X128971000Y-90669544D01*
X128839541Y-90709422D01*
X128665398Y-90802504D01*
X128512775Y-90927759D01*
X128512759Y-90927775D01*
X128387504Y-91080398D01*
X128294419Y-91254547D01*
X128254544Y-91385999D01*
X127305300Y-91385999D01*
X127305300Y-89965010D01*
X128222600Y-89965010D01*
X128231442Y-90009465D01*
X128265123Y-90059870D01*
X128265129Y-90059876D01*
X128315534Y-90093557D01*
X128359990Y-90102400D01*
X128970999Y-90102400D01*
X128971000Y-90102399D01*
X128971000Y-89533674D01*
X129082685Y-89584680D01*
X129189237Y-89600000D01*
X129260763Y-89600000D01*
X129367315Y-89584680D01*
X129479000Y-89533674D01*
X129479000Y-90102399D01*
X129479001Y-90102400D01*
X130090010Y-90102400D01*
X130134465Y-90093557D01*
X130184870Y-90059876D01*
X130184876Y-90059870D01*
X130218557Y-90009465D01*
X130227399Y-89965010D01*
X130227400Y-89354001D01*
X130227399Y-89354000D01*
X129656116Y-89354000D01*
X129684493Y-89309844D01*
X129725000Y-89171889D01*
X129725000Y-89100000D01*
X130757247Y-89100000D01*
X130774667Y-89276868D01*
X130776612Y-89296609D01*
X130819447Y-89437815D01*
X130833958Y-89485650D01*
X130927084Y-89659878D01*
X131052411Y-89812589D01*
X131205122Y-89937916D01*
X131379350Y-90031042D01*
X131568397Y-90088389D01*
X131765000Y-90107753D01*
X131961603Y-90088389D01*
X132150650Y-90031042D01*
X132324878Y-89937916D01*
X132477589Y-89812589D01*
X132602916Y-89659878D01*
X132696042Y-89485650D01*
X132722548Y-89398271D01*
X132758629Y-89350174D01*
X132806663Y-89335889D01*
X135044012Y-89335889D01*
X135056453Y-89337920D01*
X135056599Y-89336881D01*
X135064665Y-89338005D01*
X135064671Y-89338007D01*
X135109465Y-89335935D01*
X135111493Y-89335889D01*
X135129946Y-89335889D01*
X135133343Y-89335253D01*
X135139394Y-89334552D01*
X135157783Y-89333701D01*
X135169204Y-89333174D01*
X135175060Y-89330587D01*
X135178030Y-89329277D01*
X135197385Y-89323282D01*
X135206874Y-89321509D01*
X135232252Y-89305793D01*
X135237618Y-89302964D01*
X135264933Y-89290905D01*
X135271759Y-89284078D01*
X135287639Y-89271499D01*
X135295844Y-89266420D01*
X135313826Y-89242606D01*
X135317814Y-89238022D01*
X140261557Y-84294280D01*
X142950549Y-84294280D01*
X142969551Y-84438616D01*
X143025262Y-84573115D01*
X143112363Y-84686628D01*
X143113887Y-84688613D01*
X143229384Y-84777237D01*
X143363884Y-84832949D01*
X143508220Y-84851951D01*
X143652556Y-84832949D01*
X143787056Y-84777237D01*
X143902553Y-84688613D01*
X143963972Y-84608569D01*
X144014683Y-84576264D01*
X144033708Y-84574180D01*
X144553372Y-84574180D01*
X144609873Y-84594745D01*
X144615527Y-84599924D01*
X145420075Y-85404473D01*
X145445486Y-85458966D01*
X145445820Y-85466627D01*
X145445820Y-86258792D01*
X145425255Y-86315293D01*
X145411430Y-86328528D01*
X145331388Y-86389945D01*
X145331385Y-86389948D01*
X145242762Y-86505445D01*
X145187051Y-86639943D01*
X145168049Y-86784279D01*
X145168049Y-86784280D01*
X145187051Y-86928616D01*
X145242762Y-87063115D01*
X145331385Y-87178611D01*
X145331388Y-87178614D01*
X145364837Y-87204280D01*
X145446884Y-87267237D01*
X145581384Y-87322949D01*
X145725720Y-87341951D01*
X145870056Y-87322949D01*
X146004556Y-87267237D01*
X146120053Y-87178613D01*
X146208677Y-87063116D01*
X146264389Y-86928616D01*
X146283391Y-86784280D01*
X146264389Y-86639944D01*
X146208677Y-86505445D01*
X146183088Y-86472096D01*
X146120056Y-86389950D01*
X146120054Y-86389948D01*
X146120053Y-86389947D01*
X146045783Y-86332957D01*
X146040009Y-86328526D01*
X146007703Y-86277815D01*
X146005620Y-86258791D01*
X146005620Y-85374279D01*
X146007651Y-85361837D01*
X146006612Y-85361692D01*
X146007735Y-85353626D01*
X146007738Y-85353620D01*
X146005666Y-85308824D01*
X146005620Y-85306797D01*
X146005620Y-85288344D01*
X146004985Y-85284950D01*
X146004283Y-85278905D01*
X146002905Y-85249087D01*
X145999005Y-85240256D01*
X145993013Y-85220904D01*
X145991240Y-85211417D01*
X145985049Y-85201418D01*
X145975533Y-85186049D01*
X145972691Y-85180658D01*
X145960637Y-85153358D01*
X145960636Y-85153356D01*
X145953804Y-85146524D01*
X145941229Y-85130649D01*
X145936151Y-85122447D01*
X145936150Y-85122446D01*
X145936149Y-85122445D01*
X145912348Y-85104471D01*
X145907751Y-85100471D01*
X144946062Y-84138784D01*
X144938698Y-84128546D01*
X144937861Y-84129179D01*
X144932955Y-84122681D01*
X144899817Y-84092472D01*
X144898348Y-84091070D01*
X144885299Y-84078021D01*
X144882450Y-84076069D01*
X144877675Y-84072287D01*
X144862182Y-84058163D01*
X144855621Y-84052182D01*
X144855618Y-84052181D01*
X144855617Y-84052180D01*
X144846618Y-84048694D01*
X144828696Y-84039247D01*
X144820736Y-84033794D01*
X144813935Y-84032194D01*
X144791687Y-84026961D01*
X144785867Y-84025159D01*
X144758046Y-84014381D01*
X144758043Y-84014380D01*
X144758042Y-84014380D01*
X144758041Y-84014380D01*
X144748388Y-84014380D01*
X144728263Y-84012045D01*
X144718871Y-84009836D01*
X144689319Y-84013958D01*
X144683242Y-84014380D01*
X144033708Y-84014380D01*
X143977207Y-83993815D01*
X143963972Y-83979990D01*
X143902556Y-83899950D01*
X143902553Y-83899947D01*
X143787055Y-83811322D01*
X143652556Y-83755611D01*
X143508220Y-83736609D01*
X143363883Y-83755611D01*
X143229385Y-83811322D01*
X143113888Y-83899945D01*
X143113885Y-83899948D01*
X143025262Y-84015445D01*
X142969551Y-84149943D01*
X142950549Y-84294279D01*
X142950549Y-84294280D01*
X140261557Y-84294280D01*
X141655912Y-82899925D01*
X141710407Y-82874514D01*
X141718068Y-82874180D01*
X142982732Y-82874180D01*
X143039233Y-82894745D01*
X143052468Y-82908570D01*
X143113887Y-82988613D01*
X143113890Y-82988616D01*
X143229384Y-83077236D01*
X143229384Y-83077237D01*
X143363884Y-83132949D01*
X143508220Y-83151951D01*
X143652556Y-83132949D01*
X143787056Y-83077237D01*
X143902553Y-82988613D01*
X143963972Y-82908569D01*
X144014683Y-82876264D01*
X144033708Y-82874180D01*
X145253372Y-82874180D01*
X145309873Y-82894745D01*
X145315527Y-82899925D01*
X147040075Y-84624473D01*
X147065486Y-84678967D01*
X147065820Y-84686628D01*
X147065820Y-86678792D01*
X147045255Y-86735293D01*
X147031430Y-86748528D01*
X146951388Y-86809945D01*
X146951385Y-86809948D01*
X146862762Y-86925445D01*
X146807051Y-87059943D01*
X146788049Y-87204279D01*
X146788049Y-87204280D01*
X146807051Y-87348616D01*
X146862762Y-87483115D01*
X146862763Y-87483116D01*
X146951387Y-87598613D01*
X147066884Y-87687237D01*
X147201384Y-87742949D01*
X147345720Y-87761951D01*
X147490056Y-87742949D01*
X147624556Y-87687237D01*
X147740053Y-87598613D01*
X147828677Y-87483116D01*
X147884389Y-87348616D01*
X147903391Y-87204280D01*
X147884389Y-87059944D01*
X147828677Y-86925445D01*
X147828677Y-86925444D01*
X147740056Y-86809950D01*
X147740054Y-86809948D01*
X147740053Y-86809947D01*
X147706602Y-86784279D01*
X147660009Y-86748526D01*
X147627703Y-86697815D01*
X147625620Y-86678791D01*
X147625620Y-85850000D01*
X149202329Y-85850000D01*
X149221331Y-85994336D01*
X149277042Y-86128835D01*
X149365665Y-86244331D01*
X149365668Y-86244334D01*
X149444770Y-86305031D01*
X149481164Y-86332957D01*
X149615664Y-86388669D01*
X149740996Y-86405169D01*
X149759999Y-86407671D01*
X149759999Y-86407670D01*
X149760000Y-86407671D01*
X149904336Y-86388669D01*
X150038836Y-86332957D01*
X150154333Y-86244333D01*
X150215752Y-86164289D01*
X150266463Y-86131984D01*
X150285488Y-86129900D01*
X151217652Y-86129900D01*
X151274153Y-86150465D01*
X151279807Y-86155645D01*
X151820075Y-86695913D01*
X151845486Y-86750407D01*
X151845820Y-86758068D01*
X151845820Y-89418792D01*
X151825255Y-89475293D01*
X151811430Y-89488528D01*
X151731388Y-89549945D01*
X151731385Y-89549948D01*
X151642762Y-89665445D01*
X151587051Y-89799943D01*
X151568049Y-89944279D01*
X151568049Y-89944280D01*
X151587051Y-90088616D01*
X151642762Y-90223115D01*
X151731385Y-90338611D01*
X151731388Y-90338614D01*
X151793315Y-90386132D01*
X151846884Y-90427237D01*
X151981384Y-90482949D01*
X152125720Y-90501951D01*
X152270056Y-90482949D01*
X152404556Y-90427237D01*
X152520053Y-90338613D01*
X152608677Y-90223116D01*
X152664389Y-90088616D01*
X152683391Y-89944280D01*
X152664389Y-89799944D01*
X152608677Y-89665445D01*
X152558460Y-89600000D01*
X152520056Y-89549950D01*
X152520054Y-89549948D01*
X152520053Y-89549947D01*
X152486719Y-89524369D01*
X152440009Y-89488526D01*
X152407703Y-89437815D01*
X152405620Y-89418791D01*
X152405620Y-86665716D01*
X152407651Y-86653276D01*
X152406611Y-86653131D01*
X152407734Y-86645066D01*
X152407737Y-86645060D01*
X152405666Y-86600275D01*
X152405620Y-86598250D01*
X152405620Y-86579785D01*
X152404985Y-86576391D01*
X152404282Y-86570341D01*
X152402905Y-86540527D01*
X152399008Y-86531701D01*
X152393013Y-86512344D01*
X152391240Y-86502857D01*
X152375529Y-86477484D01*
X152372689Y-86472096D01*
X152369678Y-86465277D01*
X152360636Y-86444798D01*
X152360635Y-86444797D01*
X152360635Y-86444796D01*
X152353807Y-86437968D01*
X152341232Y-86422092D01*
X152336153Y-86413890D01*
X152336149Y-86413885D01*
X152312344Y-86395908D01*
X152307747Y-86391908D01*
X151610342Y-85694504D01*
X151602978Y-85684266D01*
X151602141Y-85684899D01*
X151597235Y-85678401D01*
X151564097Y-85648192D01*
X151562628Y-85646790D01*
X151549579Y-85633741D01*
X151546730Y-85631789D01*
X151541955Y-85628007D01*
X151519903Y-85607904D01*
X151519901Y-85607902D01*
X151519898Y-85607901D01*
X151519897Y-85607900D01*
X151510898Y-85604414D01*
X151492976Y-85594967D01*
X151485016Y-85589514D01*
X151478215Y-85587914D01*
X151455967Y-85582681D01*
X151450147Y-85580879D01*
X151422326Y-85570101D01*
X151422323Y-85570100D01*
X151422322Y-85570100D01*
X151422321Y-85570100D01*
X151412668Y-85570100D01*
X151392543Y-85567765D01*
X151383151Y-85565556D01*
X151353599Y-85569678D01*
X151347522Y-85570100D01*
X150285488Y-85570100D01*
X150228987Y-85549535D01*
X150215752Y-85535710D01*
X150154336Y-85455670D01*
X150154333Y-85455667D01*
X150038835Y-85367042D01*
X149904336Y-85311331D01*
X149760000Y-85292329D01*
X149615663Y-85311331D01*
X149481165Y-85367042D01*
X149365668Y-85455665D01*
X149365665Y-85455668D01*
X149277042Y-85571165D01*
X149221331Y-85705663D01*
X149202329Y-85849999D01*
X149202329Y-85850000D01*
X147625620Y-85850000D01*
X147625620Y-85013684D01*
X163589884Y-85013684D01*
X163609115Y-85245780D01*
X163609116Y-85245786D01*
X163666286Y-85471544D01*
X163666289Y-85471552D01*
X163759835Y-85684814D01*
X163759840Y-85684825D01*
X163759844Y-85684831D01*
X163887215Y-85879789D01*
X163887216Y-85879791D01*
X163887220Y-85879795D01*
X164044954Y-86051140D01*
X164228740Y-86194186D01*
X164433563Y-86305031D01*
X164653837Y-86380651D01*
X164653839Y-86380651D01*
X164653841Y-86380652D01*
X164883550Y-86418984D01*
X164883554Y-86418984D01*
X165116450Y-86418984D01*
X165346158Y-86380652D01*
X165346158Y-86380651D01*
X165346163Y-86380651D01*
X165566437Y-86305031D01*
X165771260Y-86194186D01*
X165955046Y-86051140D01*
X166112780Y-85879795D01*
X166240160Y-85684825D01*
X166333712Y-85471548D01*
X166362342Y-85358491D01*
X166390883Y-85245786D01*
X166390884Y-85245780D01*
X166393731Y-85211417D01*
X166410116Y-85013684D01*
X166390884Y-84781587D01*
X166390883Y-84781581D01*
X166333713Y-84555823D01*
X166333710Y-84555815D01*
X166283305Y-84440904D01*
X166240160Y-84342543D01*
X166159435Y-84218984D01*
X166112784Y-84147578D01*
X166112783Y-84147576D01*
X165955050Y-83976232D01*
X165955048Y-83976231D01*
X165955046Y-83976228D01*
X165771260Y-83833182D01*
X165566437Y-83722337D01*
X165566433Y-83722335D01*
X165566430Y-83722334D01*
X165346167Y-83646718D01*
X165346158Y-83646715D01*
X165116450Y-83608384D01*
X165116446Y-83608384D01*
X164883554Y-83608384D01*
X164883550Y-83608384D01*
X164653841Y-83646715D01*
X164653832Y-83646718D01*
X164433569Y-83722334D01*
X164433564Y-83722336D01*
X164433563Y-83722337D01*
X164228740Y-83833182D01*
X164219779Y-83840157D01*
X164044949Y-83976232D01*
X163887216Y-84147576D01*
X163887215Y-84147578D01*
X163759844Y-84342536D01*
X163759835Y-84342553D01*
X163666289Y-84555815D01*
X163666286Y-84555823D01*
X163609116Y-84781581D01*
X163609115Y-84781587D01*
X163589884Y-85013684D01*
X147625620Y-85013684D01*
X147625620Y-84594276D01*
X147627651Y-84581836D01*
X147626611Y-84581691D01*
X147627734Y-84573626D01*
X147627737Y-84573620D01*
X147625666Y-84528835D01*
X147625620Y-84526810D01*
X147625620Y-84508345D01*
X147624985Y-84504951D01*
X147624282Y-84498901D01*
X147622905Y-84469087D01*
X147619008Y-84460261D01*
X147613013Y-84440904D01*
X147611240Y-84431417D01*
X147595529Y-84406044D01*
X147592689Y-84400656D01*
X147589027Y-84392363D01*
X147580636Y-84373358D01*
X147580635Y-84373357D01*
X147580635Y-84373356D01*
X147573807Y-84366528D01*
X147561232Y-84350652D01*
X147556153Y-84342450D01*
X147556149Y-84342445D01*
X147532344Y-84324468D01*
X147527747Y-84320468D01*
X145646062Y-82438784D01*
X145638698Y-82428546D01*
X145637861Y-82429179D01*
X145632955Y-82422681D01*
X145599817Y-82392472D01*
X145598348Y-82391070D01*
X145585299Y-82378021D01*
X145582450Y-82376069D01*
X145577675Y-82372287D01*
X145555623Y-82352184D01*
X145555621Y-82352182D01*
X145555618Y-82352181D01*
X145555617Y-82352180D01*
X145546618Y-82348694D01*
X145528696Y-82339247D01*
X145520736Y-82333794D01*
X145513935Y-82332194D01*
X145491687Y-82326961D01*
X145485867Y-82325159D01*
X145458046Y-82314381D01*
X145458043Y-82314380D01*
X145458042Y-82314380D01*
X145458041Y-82314380D01*
X145448388Y-82314380D01*
X145428263Y-82312045D01*
X145418871Y-82309836D01*
X145389319Y-82313958D01*
X145383242Y-82314380D01*
X144033708Y-82314380D01*
X143977207Y-82293815D01*
X143963972Y-82279990D01*
X143902556Y-82199950D01*
X143902553Y-82199947D01*
X143787055Y-82111322D01*
X143652556Y-82055611D01*
X143508220Y-82036609D01*
X143363883Y-82055611D01*
X143229385Y-82111322D01*
X143113888Y-82199945D01*
X143113885Y-82199948D01*
X143052468Y-82279990D01*
X143001757Y-82312296D01*
X142982732Y-82314380D01*
X141625719Y-82314380D01*
X141613276Y-82312347D01*
X141613131Y-82313388D01*
X141605061Y-82312262D01*
X141605060Y-82312262D01*
X141605058Y-82312262D01*
X141587894Y-82313055D01*
X141560253Y-82314333D01*
X141558230Y-82314380D01*
X141539784Y-82314380D01*
X141536388Y-82315014D01*
X141530345Y-82315714D01*
X141529241Y-82315765D01*
X141500529Y-82317093D01*
X141500524Y-82317094D01*
X141491688Y-82320996D01*
X141472344Y-82326986D01*
X141466485Y-82328081D01*
X141462856Y-82328760D01*
X141437488Y-82344466D01*
X141432102Y-82347305D01*
X141404798Y-82359363D01*
X141404795Y-82359364D01*
X141397966Y-82366194D01*
X141382090Y-82378769D01*
X141373889Y-82383846D01*
X141373885Y-82383850D01*
X141355908Y-82407654D01*
X141351909Y-82412249D01*
X135013818Y-88750344D01*
X134959324Y-88775755D01*
X134951663Y-88776089D01*
X132779962Y-88776089D01*
X132723461Y-88755524D01*
X132698645Y-88717946D01*
X132697695Y-88718340D01*
X132696043Y-88714352D01*
X132602915Y-88540121D01*
X132477589Y-88387411D01*
X132324878Y-88262084D01*
X132150650Y-88168958D01*
X132150649Y-88168957D01*
X132150648Y-88168957D01*
X131961609Y-88111612D01*
X131961604Y-88111611D01*
X131961603Y-88111611D01*
X131765000Y-88092247D01*
X131764999Y-88092247D01*
X131717657Y-88096909D01*
X131568397Y-88111611D01*
X131568395Y-88111611D01*
X131568390Y-88111612D01*
X131379351Y-88168957D01*
X131205121Y-88262084D01*
X131052413Y-88387409D01*
X131052409Y-88387413D01*
X130927084Y-88540121D01*
X130833957Y-88714351D01*
X130776612Y-88903390D01*
X130776611Y-88903395D01*
X130776611Y-88903397D01*
X130757247Y-89100000D01*
X129725000Y-89100000D01*
X129725000Y-89028111D01*
X129684493Y-88890156D01*
X129656116Y-88846000D01*
X130227399Y-88846000D01*
X130227400Y-88845999D01*
X130227399Y-88234989D01*
X130218557Y-88190534D01*
X130184876Y-88140129D01*
X130184870Y-88140123D01*
X130134465Y-88106442D01*
X130090010Y-88097600D01*
X129479001Y-88097600D01*
X129479000Y-88097601D01*
X129479000Y-88666325D01*
X129367315Y-88615320D01*
X129260763Y-88600000D01*
X129189237Y-88600000D01*
X129082685Y-88615320D01*
X128971000Y-88666325D01*
X128971000Y-88097601D01*
X128970999Y-88097600D01*
X128359990Y-88097600D01*
X128315534Y-88106442D01*
X128265129Y-88140123D01*
X128265123Y-88140129D01*
X128231442Y-88190534D01*
X128222600Y-88234989D01*
X128222600Y-88845999D01*
X128222601Y-88846000D01*
X128793884Y-88846000D01*
X128765507Y-88890156D01*
X128725000Y-89028111D01*
X128725000Y-89171889D01*
X128765507Y-89309844D01*
X128793884Y-89354000D01*
X128222601Y-89354000D01*
X128222600Y-89354001D01*
X128222600Y-89965010D01*
X127305300Y-89965010D01*
X127305300Y-85013684D01*
X127589884Y-85013684D01*
X127609115Y-85245780D01*
X127609116Y-85245786D01*
X127666286Y-85471544D01*
X127666289Y-85471552D01*
X127759835Y-85684814D01*
X127759840Y-85684825D01*
X127759844Y-85684831D01*
X127887215Y-85879789D01*
X127887216Y-85879791D01*
X127887220Y-85879795D01*
X128044954Y-86051140D01*
X128228740Y-86194186D01*
X128433563Y-86305031D01*
X128653837Y-86380651D01*
X128653839Y-86380651D01*
X128653841Y-86380652D01*
X128883550Y-86418984D01*
X128883554Y-86418984D01*
X129116450Y-86418984D01*
X129346158Y-86380652D01*
X129346158Y-86380651D01*
X129346163Y-86380651D01*
X129566437Y-86305031D01*
X129771260Y-86194186D01*
X129955046Y-86051140D01*
X130112780Y-85879795D01*
X130240160Y-85684825D01*
X130333712Y-85471548D01*
X130362342Y-85358491D01*
X130390883Y-85245786D01*
X130390884Y-85245780D01*
X130393731Y-85211417D01*
X130410116Y-85013684D01*
X130390884Y-84781587D01*
X130390883Y-84781581D01*
X130333713Y-84555823D01*
X130333710Y-84555815D01*
X130283305Y-84440904D01*
X130240160Y-84342543D01*
X130159435Y-84218984D01*
X130112784Y-84147578D01*
X130112783Y-84147576D01*
X129955050Y-83976232D01*
X129955048Y-83976231D01*
X129955046Y-83976228D01*
X129771260Y-83833182D01*
X129566437Y-83722337D01*
X129566433Y-83722335D01*
X129566430Y-83722334D01*
X129346167Y-83646718D01*
X129346158Y-83646715D01*
X129116450Y-83608384D01*
X129116446Y-83608384D01*
X128883554Y-83608384D01*
X128883550Y-83608384D01*
X128653841Y-83646715D01*
X128653832Y-83646718D01*
X128433569Y-83722334D01*
X128433564Y-83722336D01*
X128433563Y-83722337D01*
X128228740Y-83833182D01*
X128219779Y-83840157D01*
X128044949Y-83976232D01*
X127887216Y-84147576D01*
X127887215Y-84147578D01*
X127759844Y-84342536D01*
X127759835Y-84342553D01*
X127666289Y-84555815D01*
X127666286Y-84555823D01*
X127609116Y-84781581D01*
X127609115Y-84781587D01*
X127589884Y-85013684D01*
X127305300Y-85013684D01*
X127305300Y-84085995D01*
X127325864Y-84029497D01*
X127349245Y-84009877D01*
X143610600Y-74621378D01*
X145589884Y-74621378D01*
X145609115Y-74853475D01*
X145609116Y-74853481D01*
X145666286Y-75079239D01*
X145666289Y-75079247D01*
X145737987Y-75242700D01*
X145759840Y-75292520D01*
X145759844Y-75292526D01*
X145887215Y-75487484D01*
X145887216Y-75487486D01*
X145887220Y-75487490D01*
X146044954Y-75658835D01*
X146228740Y-75801881D01*
X146433563Y-75912726D01*
X146653837Y-75988346D01*
X146653839Y-75988346D01*
X146653841Y-75988347D01*
X146883550Y-76026679D01*
X146883554Y-76026679D01*
X147116450Y-76026679D01*
X147346158Y-75988347D01*
X147346158Y-75988346D01*
X147346163Y-75988346D01*
X147566437Y-75912726D01*
X147771260Y-75801881D01*
X147955046Y-75658835D01*
X148112780Y-75487490D01*
X148240160Y-75292520D01*
X148333712Y-75079243D01*
X148390884Y-74853476D01*
X148410116Y-74621379D01*
X148390884Y-74389282D01*
X148390883Y-74389276D01*
X148333713Y-74163518D01*
X148333710Y-74163510D01*
X148240164Y-73950248D01*
X148240160Y-73950238D01*
X148159435Y-73826679D01*
X148112784Y-73755273D01*
X148112783Y-73755271D01*
X147955050Y-73583927D01*
X147955048Y-73583926D01*
X147955046Y-73583923D01*
X147771260Y-73440877D01*
X147566437Y-73330032D01*
X147566433Y-73330030D01*
X147566430Y-73330029D01*
X147346167Y-73254413D01*
X147346158Y-73254410D01*
X147116450Y-73216079D01*
X147116446Y-73216079D01*
X146883554Y-73216079D01*
X146883550Y-73216079D01*
X146653841Y-73254410D01*
X146653832Y-73254413D01*
X146433569Y-73330029D01*
X146228740Y-73440877D01*
X146044949Y-73583927D01*
X145887216Y-73755271D01*
X145887215Y-73755273D01*
X145759844Y-73950231D01*
X145759835Y-73950248D01*
X145666289Y-74163510D01*
X145666286Y-74163518D01*
X145609116Y-74389276D01*
X145609115Y-74389282D01*
X145589884Y-74621378D01*
X143610600Y-74621378D01*
X146956050Y-72689881D01*
X147015263Y-72679441D01*
X147043946Y-72689881D01*
G37*
%TD.AperFunction*%
%TD*%
M02*
