%TF.GenerationSoftware,KiCad,Pcbnew,7.0.5*%
%TF.CreationDate,2023-06-06T16:57:07-04:00*%
%TF.ProjectId,PWR,5057522e-6b69-4636-9164-5f7063625858,rev?*%
%TF.SameCoordinates,Original*%
%TF.FileFunction,Legend,Top*%
%TF.FilePolarity,Positive*%
%FSLAX46Y46*%
G04 Gerber Fmt 4.6, Leading zero omitted, Abs format (unit mm)*
G04 Created by KiCad (PCBNEW 7.0.5) date 2023-06-06 16:57:07*
%MOMM*%
%LPD*%
G01*
G04 APERTURE LIST*
%ADD10C,0.150000*%
%ADD11C,0.120000*%
%ADD12C,0.127000*%
%ADD13C,0.200000*%
G04 APERTURE END LIST*
D10*
%TO.C,C5*%
X144213333Y-108309580D02*
X144165714Y-108357200D01*
X144165714Y-108357200D02*
X144022857Y-108404819D01*
X144022857Y-108404819D02*
X143927619Y-108404819D01*
X143927619Y-108404819D02*
X143784762Y-108357200D01*
X143784762Y-108357200D02*
X143689524Y-108261961D01*
X143689524Y-108261961D02*
X143641905Y-108166723D01*
X143641905Y-108166723D02*
X143594286Y-107976247D01*
X143594286Y-107976247D02*
X143594286Y-107833390D01*
X143594286Y-107833390D02*
X143641905Y-107642914D01*
X143641905Y-107642914D02*
X143689524Y-107547676D01*
X143689524Y-107547676D02*
X143784762Y-107452438D01*
X143784762Y-107452438D02*
X143927619Y-107404819D01*
X143927619Y-107404819D02*
X144022857Y-107404819D01*
X144022857Y-107404819D02*
X144165714Y-107452438D01*
X144165714Y-107452438D02*
X144213333Y-107500057D01*
X145118095Y-107404819D02*
X144641905Y-107404819D01*
X144641905Y-107404819D02*
X144594286Y-107881009D01*
X144594286Y-107881009D02*
X144641905Y-107833390D01*
X144641905Y-107833390D02*
X144737143Y-107785771D01*
X144737143Y-107785771D02*
X144975238Y-107785771D01*
X144975238Y-107785771D02*
X145070476Y-107833390D01*
X145070476Y-107833390D02*
X145118095Y-107881009D01*
X145118095Y-107881009D02*
X145165714Y-107976247D01*
X145165714Y-107976247D02*
X145165714Y-108214342D01*
X145165714Y-108214342D02*
X145118095Y-108309580D01*
X145118095Y-108309580D02*
X145070476Y-108357200D01*
X145070476Y-108357200D02*
X144975238Y-108404819D01*
X144975238Y-108404819D02*
X144737143Y-108404819D01*
X144737143Y-108404819D02*
X144641905Y-108357200D01*
X144641905Y-108357200D02*
X144594286Y-108309580D01*
%TO.C,R3*%
X141687319Y-110866666D02*
X141211128Y-111199999D01*
X141687319Y-111438094D02*
X140687319Y-111438094D01*
X140687319Y-111438094D02*
X140687319Y-111057142D01*
X140687319Y-111057142D02*
X140734938Y-110961904D01*
X140734938Y-110961904D02*
X140782557Y-110914285D01*
X140782557Y-110914285D02*
X140877795Y-110866666D01*
X140877795Y-110866666D02*
X141020652Y-110866666D01*
X141020652Y-110866666D02*
X141115890Y-110914285D01*
X141115890Y-110914285D02*
X141163509Y-110961904D01*
X141163509Y-110961904D02*
X141211128Y-111057142D01*
X141211128Y-111057142D02*
X141211128Y-111438094D01*
X140687319Y-110533332D02*
X140687319Y-109914285D01*
X140687319Y-109914285D02*
X141068271Y-110247618D01*
X141068271Y-110247618D02*
X141068271Y-110104761D01*
X141068271Y-110104761D02*
X141115890Y-110009523D01*
X141115890Y-110009523D02*
X141163509Y-109961904D01*
X141163509Y-109961904D02*
X141258747Y-109914285D01*
X141258747Y-109914285D02*
X141496842Y-109914285D01*
X141496842Y-109914285D02*
X141592080Y-109961904D01*
X141592080Y-109961904D02*
X141639700Y-110009523D01*
X141639700Y-110009523D02*
X141687319Y-110104761D01*
X141687319Y-110104761D02*
X141687319Y-110390475D01*
X141687319Y-110390475D02*
X141639700Y-110485713D01*
X141639700Y-110485713D02*
X141592080Y-110533332D01*
%TO.C,R15*%
X160137142Y-101894819D02*
X159803809Y-101418628D01*
X159565714Y-101894819D02*
X159565714Y-100894819D01*
X159565714Y-100894819D02*
X159946666Y-100894819D01*
X159946666Y-100894819D02*
X160041904Y-100942438D01*
X160041904Y-100942438D02*
X160089523Y-100990057D01*
X160089523Y-100990057D02*
X160137142Y-101085295D01*
X160137142Y-101085295D02*
X160137142Y-101228152D01*
X160137142Y-101228152D02*
X160089523Y-101323390D01*
X160089523Y-101323390D02*
X160041904Y-101371009D01*
X160041904Y-101371009D02*
X159946666Y-101418628D01*
X159946666Y-101418628D02*
X159565714Y-101418628D01*
X161089523Y-101894819D02*
X160518095Y-101894819D01*
X160803809Y-101894819D02*
X160803809Y-100894819D01*
X160803809Y-100894819D02*
X160708571Y-101037676D01*
X160708571Y-101037676D02*
X160613333Y-101132914D01*
X160613333Y-101132914D02*
X160518095Y-101180533D01*
X161994285Y-100894819D02*
X161518095Y-100894819D01*
X161518095Y-100894819D02*
X161470476Y-101371009D01*
X161470476Y-101371009D02*
X161518095Y-101323390D01*
X161518095Y-101323390D02*
X161613333Y-101275771D01*
X161613333Y-101275771D02*
X161851428Y-101275771D01*
X161851428Y-101275771D02*
X161946666Y-101323390D01*
X161946666Y-101323390D02*
X161994285Y-101371009D01*
X161994285Y-101371009D02*
X162041904Y-101466247D01*
X162041904Y-101466247D02*
X162041904Y-101704342D01*
X162041904Y-101704342D02*
X161994285Y-101799580D01*
X161994285Y-101799580D02*
X161946666Y-101847200D01*
X161946666Y-101847200D02*
X161851428Y-101894819D01*
X161851428Y-101894819D02*
X161613333Y-101894819D01*
X161613333Y-101894819D02*
X161518095Y-101847200D01*
X161518095Y-101847200D02*
X161470476Y-101799580D01*
%TO.C,C4*%
X148959580Y-102556666D02*
X149007200Y-102604285D01*
X149007200Y-102604285D02*
X149054819Y-102747142D01*
X149054819Y-102747142D02*
X149054819Y-102842380D01*
X149054819Y-102842380D02*
X149007200Y-102985237D01*
X149007200Y-102985237D02*
X148911961Y-103080475D01*
X148911961Y-103080475D02*
X148816723Y-103128094D01*
X148816723Y-103128094D02*
X148626247Y-103175713D01*
X148626247Y-103175713D02*
X148483390Y-103175713D01*
X148483390Y-103175713D02*
X148292914Y-103128094D01*
X148292914Y-103128094D02*
X148197676Y-103080475D01*
X148197676Y-103080475D02*
X148102438Y-102985237D01*
X148102438Y-102985237D02*
X148054819Y-102842380D01*
X148054819Y-102842380D02*
X148054819Y-102747142D01*
X148054819Y-102747142D02*
X148102438Y-102604285D01*
X148102438Y-102604285D02*
X148150057Y-102556666D01*
X148388152Y-101699523D02*
X149054819Y-101699523D01*
X148007200Y-101937618D02*
X148721485Y-102175713D01*
X148721485Y-102175713D02*
X148721485Y-101556666D01*
%TO.C,C13*%
X159037142Y-103999580D02*
X158989523Y-104047200D01*
X158989523Y-104047200D02*
X158846666Y-104094819D01*
X158846666Y-104094819D02*
X158751428Y-104094819D01*
X158751428Y-104094819D02*
X158608571Y-104047200D01*
X158608571Y-104047200D02*
X158513333Y-103951961D01*
X158513333Y-103951961D02*
X158465714Y-103856723D01*
X158465714Y-103856723D02*
X158418095Y-103666247D01*
X158418095Y-103666247D02*
X158418095Y-103523390D01*
X158418095Y-103523390D02*
X158465714Y-103332914D01*
X158465714Y-103332914D02*
X158513333Y-103237676D01*
X158513333Y-103237676D02*
X158608571Y-103142438D01*
X158608571Y-103142438D02*
X158751428Y-103094819D01*
X158751428Y-103094819D02*
X158846666Y-103094819D01*
X158846666Y-103094819D02*
X158989523Y-103142438D01*
X158989523Y-103142438D02*
X159037142Y-103190057D01*
X159989523Y-104094819D02*
X159418095Y-104094819D01*
X159703809Y-104094819D02*
X159703809Y-103094819D01*
X159703809Y-103094819D02*
X159608571Y-103237676D01*
X159608571Y-103237676D02*
X159513333Y-103332914D01*
X159513333Y-103332914D02*
X159418095Y-103380533D01*
X160322857Y-103094819D02*
X160941904Y-103094819D01*
X160941904Y-103094819D02*
X160608571Y-103475771D01*
X160608571Y-103475771D02*
X160751428Y-103475771D01*
X160751428Y-103475771D02*
X160846666Y-103523390D01*
X160846666Y-103523390D02*
X160894285Y-103571009D01*
X160894285Y-103571009D02*
X160941904Y-103666247D01*
X160941904Y-103666247D02*
X160941904Y-103904342D01*
X160941904Y-103904342D02*
X160894285Y-103999580D01*
X160894285Y-103999580D02*
X160846666Y-104047200D01*
X160846666Y-104047200D02*
X160751428Y-104094819D01*
X160751428Y-104094819D02*
X160465714Y-104094819D01*
X160465714Y-104094819D02*
X160370476Y-104047200D01*
X160370476Y-104047200D02*
X160322857Y-103999580D01*
%TO.C,R13*%
X138652862Y-83049099D02*
X138319529Y-82572908D01*
X138081434Y-83049099D02*
X138081434Y-82049099D01*
X138081434Y-82049099D02*
X138462386Y-82049099D01*
X138462386Y-82049099D02*
X138557624Y-82096718D01*
X138557624Y-82096718D02*
X138605243Y-82144337D01*
X138605243Y-82144337D02*
X138652862Y-82239575D01*
X138652862Y-82239575D02*
X138652862Y-82382432D01*
X138652862Y-82382432D02*
X138605243Y-82477670D01*
X138605243Y-82477670D02*
X138557624Y-82525289D01*
X138557624Y-82525289D02*
X138462386Y-82572908D01*
X138462386Y-82572908D02*
X138081434Y-82572908D01*
X139605243Y-83049099D02*
X139033815Y-83049099D01*
X139319529Y-83049099D02*
X139319529Y-82049099D01*
X139319529Y-82049099D02*
X139224291Y-82191956D01*
X139224291Y-82191956D02*
X139129053Y-82287194D01*
X139129053Y-82287194D02*
X139033815Y-82334813D01*
X139938577Y-82049099D02*
X140557624Y-82049099D01*
X140557624Y-82049099D02*
X140224291Y-82430051D01*
X140224291Y-82430051D02*
X140367148Y-82430051D01*
X140367148Y-82430051D02*
X140462386Y-82477670D01*
X140462386Y-82477670D02*
X140510005Y-82525289D01*
X140510005Y-82525289D02*
X140557624Y-82620527D01*
X140557624Y-82620527D02*
X140557624Y-82858622D01*
X140557624Y-82858622D02*
X140510005Y-82953860D01*
X140510005Y-82953860D02*
X140462386Y-83001480D01*
X140462386Y-83001480D02*
X140367148Y-83049099D01*
X140367148Y-83049099D02*
X140081434Y-83049099D01*
X140081434Y-83049099D02*
X139986196Y-83001480D01*
X139986196Y-83001480D02*
X139938577Y-82953860D01*
%TO.C,R16*%
X149587142Y-100034819D02*
X149253809Y-99558628D01*
X149015714Y-100034819D02*
X149015714Y-99034819D01*
X149015714Y-99034819D02*
X149396666Y-99034819D01*
X149396666Y-99034819D02*
X149491904Y-99082438D01*
X149491904Y-99082438D02*
X149539523Y-99130057D01*
X149539523Y-99130057D02*
X149587142Y-99225295D01*
X149587142Y-99225295D02*
X149587142Y-99368152D01*
X149587142Y-99368152D02*
X149539523Y-99463390D01*
X149539523Y-99463390D02*
X149491904Y-99511009D01*
X149491904Y-99511009D02*
X149396666Y-99558628D01*
X149396666Y-99558628D02*
X149015714Y-99558628D01*
X150539523Y-100034819D02*
X149968095Y-100034819D01*
X150253809Y-100034819D02*
X150253809Y-99034819D01*
X150253809Y-99034819D02*
X150158571Y-99177676D01*
X150158571Y-99177676D02*
X150063333Y-99272914D01*
X150063333Y-99272914D02*
X149968095Y-99320533D01*
X151396666Y-99034819D02*
X151206190Y-99034819D01*
X151206190Y-99034819D02*
X151110952Y-99082438D01*
X151110952Y-99082438D02*
X151063333Y-99130057D01*
X151063333Y-99130057D02*
X150968095Y-99272914D01*
X150968095Y-99272914D02*
X150920476Y-99463390D01*
X150920476Y-99463390D02*
X150920476Y-99844342D01*
X150920476Y-99844342D02*
X150968095Y-99939580D01*
X150968095Y-99939580D02*
X151015714Y-99987200D01*
X151015714Y-99987200D02*
X151110952Y-100034819D01*
X151110952Y-100034819D02*
X151301428Y-100034819D01*
X151301428Y-100034819D02*
X151396666Y-99987200D01*
X151396666Y-99987200D02*
X151444285Y-99939580D01*
X151444285Y-99939580D02*
X151491904Y-99844342D01*
X151491904Y-99844342D02*
X151491904Y-99606247D01*
X151491904Y-99606247D02*
X151444285Y-99511009D01*
X151444285Y-99511009D02*
X151396666Y-99463390D01*
X151396666Y-99463390D02*
X151301428Y-99415771D01*
X151301428Y-99415771D02*
X151110952Y-99415771D01*
X151110952Y-99415771D02*
X151015714Y-99463390D01*
X151015714Y-99463390D02*
X150968095Y-99511009D01*
X150968095Y-99511009D02*
X150920476Y-99606247D01*
%TO.C,C1*%
X152443333Y-108999580D02*
X152395714Y-109047200D01*
X152395714Y-109047200D02*
X152252857Y-109094819D01*
X152252857Y-109094819D02*
X152157619Y-109094819D01*
X152157619Y-109094819D02*
X152014762Y-109047200D01*
X152014762Y-109047200D02*
X151919524Y-108951961D01*
X151919524Y-108951961D02*
X151871905Y-108856723D01*
X151871905Y-108856723D02*
X151824286Y-108666247D01*
X151824286Y-108666247D02*
X151824286Y-108523390D01*
X151824286Y-108523390D02*
X151871905Y-108332914D01*
X151871905Y-108332914D02*
X151919524Y-108237676D01*
X151919524Y-108237676D02*
X152014762Y-108142438D01*
X152014762Y-108142438D02*
X152157619Y-108094819D01*
X152157619Y-108094819D02*
X152252857Y-108094819D01*
X152252857Y-108094819D02*
X152395714Y-108142438D01*
X152395714Y-108142438D02*
X152443333Y-108190057D01*
X153395714Y-109094819D02*
X152824286Y-109094819D01*
X153110000Y-109094819D02*
X153110000Y-108094819D01*
X153110000Y-108094819D02*
X153014762Y-108237676D01*
X153014762Y-108237676D02*
X152919524Y-108332914D01*
X152919524Y-108332914D02*
X152824286Y-108380533D01*
%TO.C,R12*%
X138652862Y-84749099D02*
X138319529Y-84272908D01*
X138081434Y-84749099D02*
X138081434Y-83749099D01*
X138081434Y-83749099D02*
X138462386Y-83749099D01*
X138462386Y-83749099D02*
X138557624Y-83796718D01*
X138557624Y-83796718D02*
X138605243Y-83844337D01*
X138605243Y-83844337D02*
X138652862Y-83939575D01*
X138652862Y-83939575D02*
X138652862Y-84082432D01*
X138652862Y-84082432D02*
X138605243Y-84177670D01*
X138605243Y-84177670D02*
X138557624Y-84225289D01*
X138557624Y-84225289D02*
X138462386Y-84272908D01*
X138462386Y-84272908D02*
X138081434Y-84272908D01*
X139605243Y-84749099D02*
X139033815Y-84749099D01*
X139319529Y-84749099D02*
X139319529Y-83749099D01*
X139319529Y-83749099D02*
X139224291Y-83891956D01*
X139224291Y-83891956D02*
X139129053Y-83987194D01*
X139129053Y-83987194D02*
X139033815Y-84034813D01*
X139986196Y-83844337D02*
X140033815Y-83796718D01*
X140033815Y-83796718D02*
X140129053Y-83749099D01*
X140129053Y-83749099D02*
X140367148Y-83749099D01*
X140367148Y-83749099D02*
X140462386Y-83796718D01*
X140462386Y-83796718D02*
X140510005Y-83844337D01*
X140510005Y-83844337D02*
X140557624Y-83939575D01*
X140557624Y-83939575D02*
X140557624Y-84034813D01*
X140557624Y-84034813D02*
X140510005Y-84177670D01*
X140510005Y-84177670D02*
X139938577Y-84749099D01*
X139938577Y-84749099D02*
X140557624Y-84749099D01*
%TO.C,R11*%
X150434819Y-97512857D02*
X149958628Y-97846190D01*
X150434819Y-98084285D02*
X149434819Y-98084285D01*
X149434819Y-98084285D02*
X149434819Y-97703333D01*
X149434819Y-97703333D02*
X149482438Y-97608095D01*
X149482438Y-97608095D02*
X149530057Y-97560476D01*
X149530057Y-97560476D02*
X149625295Y-97512857D01*
X149625295Y-97512857D02*
X149768152Y-97512857D01*
X149768152Y-97512857D02*
X149863390Y-97560476D01*
X149863390Y-97560476D02*
X149911009Y-97608095D01*
X149911009Y-97608095D02*
X149958628Y-97703333D01*
X149958628Y-97703333D02*
X149958628Y-98084285D01*
X150434819Y-96560476D02*
X150434819Y-97131904D01*
X150434819Y-96846190D02*
X149434819Y-96846190D01*
X149434819Y-96846190D02*
X149577676Y-96941428D01*
X149577676Y-96941428D02*
X149672914Y-97036666D01*
X149672914Y-97036666D02*
X149720533Y-97131904D01*
X150434819Y-95608095D02*
X150434819Y-96179523D01*
X150434819Y-95893809D02*
X149434819Y-95893809D01*
X149434819Y-95893809D02*
X149577676Y-95989047D01*
X149577676Y-95989047D02*
X149672914Y-96084285D01*
X149672914Y-96084285D02*
X149720533Y-96179523D01*
%TO.C,R5*%
X146843333Y-105374819D02*
X146510000Y-104898628D01*
X146271905Y-105374819D02*
X146271905Y-104374819D01*
X146271905Y-104374819D02*
X146652857Y-104374819D01*
X146652857Y-104374819D02*
X146748095Y-104422438D01*
X146748095Y-104422438D02*
X146795714Y-104470057D01*
X146795714Y-104470057D02*
X146843333Y-104565295D01*
X146843333Y-104565295D02*
X146843333Y-104708152D01*
X146843333Y-104708152D02*
X146795714Y-104803390D01*
X146795714Y-104803390D02*
X146748095Y-104851009D01*
X146748095Y-104851009D02*
X146652857Y-104898628D01*
X146652857Y-104898628D02*
X146271905Y-104898628D01*
X147748095Y-104374819D02*
X147271905Y-104374819D01*
X147271905Y-104374819D02*
X147224286Y-104851009D01*
X147224286Y-104851009D02*
X147271905Y-104803390D01*
X147271905Y-104803390D02*
X147367143Y-104755771D01*
X147367143Y-104755771D02*
X147605238Y-104755771D01*
X147605238Y-104755771D02*
X147700476Y-104803390D01*
X147700476Y-104803390D02*
X147748095Y-104851009D01*
X147748095Y-104851009D02*
X147795714Y-104946247D01*
X147795714Y-104946247D02*
X147795714Y-105184342D01*
X147795714Y-105184342D02*
X147748095Y-105279580D01*
X147748095Y-105279580D02*
X147700476Y-105327200D01*
X147700476Y-105327200D02*
X147605238Y-105374819D01*
X147605238Y-105374819D02*
X147367143Y-105374819D01*
X147367143Y-105374819D02*
X147271905Y-105327200D01*
X147271905Y-105327200D02*
X147224286Y-105279580D01*
%TO.C,C11*%
X144759580Y-105522857D02*
X144807200Y-105570476D01*
X144807200Y-105570476D02*
X144854819Y-105713333D01*
X144854819Y-105713333D02*
X144854819Y-105808571D01*
X144854819Y-105808571D02*
X144807200Y-105951428D01*
X144807200Y-105951428D02*
X144711961Y-106046666D01*
X144711961Y-106046666D02*
X144616723Y-106094285D01*
X144616723Y-106094285D02*
X144426247Y-106141904D01*
X144426247Y-106141904D02*
X144283390Y-106141904D01*
X144283390Y-106141904D02*
X144092914Y-106094285D01*
X144092914Y-106094285D02*
X143997676Y-106046666D01*
X143997676Y-106046666D02*
X143902438Y-105951428D01*
X143902438Y-105951428D02*
X143854819Y-105808571D01*
X143854819Y-105808571D02*
X143854819Y-105713333D01*
X143854819Y-105713333D02*
X143902438Y-105570476D01*
X143902438Y-105570476D02*
X143950057Y-105522857D01*
X144854819Y-104570476D02*
X144854819Y-105141904D01*
X144854819Y-104856190D02*
X143854819Y-104856190D01*
X143854819Y-104856190D02*
X143997676Y-104951428D01*
X143997676Y-104951428D02*
X144092914Y-105046666D01*
X144092914Y-105046666D02*
X144140533Y-105141904D01*
X144854819Y-103618095D02*
X144854819Y-104189523D01*
X144854819Y-103903809D02*
X143854819Y-103903809D01*
X143854819Y-103903809D02*
X143997676Y-103999047D01*
X143997676Y-103999047D02*
X144092914Y-104094285D01*
X144092914Y-104094285D02*
X144140533Y-104189523D01*
%TO.C,C3*%
X157545300Y-91010946D02*
X157592920Y-91058565D01*
X157592920Y-91058565D02*
X157640539Y-91201422D01*
X157640539Y-91201422D02*
X157640539Y-91296660D01*
X157640539Y-91296660D02*
X157592920Y-91439517D01*
X157592920Y-91439517D02*
X157497681Y-91534755D01*
X157497681Y-91534755D02*
X157402443Y-91582374D01*
X157402443Y-91582374D02*
X157211967Y-91629993D01*
X157211967Y-91629993D02*
X157069110Y-91629993D01*
X157069110Y-91629993D02*
X156878634Y-91582374D01*
X156878634Y-91582374D02*
X156783396Y-91534755D01*
X156783396Y-91534755D02*
X156688158Y-91439517D01*
X156688158Y-91439517D02*
X156640539Y-91296660D01*
X156640539Y-91296660D02*
X156640539Y-91201422D01*
X156640539Y-91201422D02*
X156688158Y-91058565D01*
X156688158Y-91058565D02*
X156735777Y-91010946D01*
X156640539Y-90677612D02*
X156640539Y-90058565D01*
X156640539Y-90058565D02*
X157021491Y-90391898D01*
X157021491Y-90391898D02*
X157021491Y-90249041D01*
X157021491Y-90249041D02*
X157069110Y-90153803D01*
X157069110Y-90153803D02*
X157116729Y-90106184D01*
X157116729Y-90106184D02*
X157211967Y-90058565D01*
X157211967Y-90058565D02*
X157450062Y-90058565D01*
X157450062Y-90058565D02*
X157545300Y-90106184D01*
X157545300Y-90106184D02*
X157592920Y-90153803D01*
X157592920Y-90153803D02*
X157640539Y-90249041D01*
X157640539Y-90249041D02*
X157640539Y-90534755D01*
X157640539Y-90534755D02*
X157592920Y-90629993D01*
X157592920Y-90629993D02*
X157545300Y-90677612D01*
%TO.C,R10*%
X138682862Y-92749099D02*
X138349529Y-92272908D01*
X138111434Y-92749099D02*
X138111434Y-91749099D01*
X138111434Y-91749099D02*
X138492386Y-91749099D01*
X138492386Y-91749099D02*
X138587624Y-91796718D01*
X138587624Y-91796718D02*
X138635243Y-91844337D01*
X138635243Y-91844337D02*
X138682862Y-91939575D01*
X138682862Y-91939575D02*
X138682862Y-92082432D01*
X138682862Y-92082432D02*
X138635243Y-92177670D01*
X138635243Y-92177670D02*
X138587624Y-92225289D01*
X138587624Y-92225289D02*
X138492386Y-92272908D01*
X138492386Y-92272908D02*
X138111434Y-92272908D01*
X139635243Y-92749099D02*
X139063815Y-92749099D01*
X139349529Y-92749099D02*
X139349529Y-91749099D01*
X139349529Y-91749099D02*
X139254291Y-91891956D01*
X139254291Y-91891956D02*
X139159053Y-91987194D01*
X139159053Y-91987194D02*
X139063815Y-92034813D01*
X140254291Y-91749099D02*
X140349529Y-91749099D01*
X140349529Y-91749099D02*
X140444767Y-91796718D01*
X140444767Y-91796718D02*
X140492386Y-91844337D01*
X140492386Y-91844337D02*
X140540005Y-91939575D01*
X140540005Y-91939575D02*
X140587624Y-92130051D01*
X140587624Y-92130051D02*
X140587624Y-92368146D01*
X140587624Y-92368146D02*
X140540005Y-92558622D01*
X140540005Y-92558622D02*
X140492386Y-92653860D01*
X140492386Y-92653860D02*
X140444767Y-92701480D01*
X140444767Y-92701480D02*
X140349529Y-92749099D01*
X140349529Y-92749099D02*
X140254291Y-92749099D01*
X140254291Y-92749099D02*
X140159053Y-92701480D01*
X140159053Y-92701480D02*
X140111434Y-92653860D01*
X140111434Y-92653860D02*
X140063815Y-92558622D01*
X140063815Y-92558622D02*
X140016196Y-92368146D01*
X140016196Y-92368146D02*
X140016196Y-92130051D01*
X140016196Y-92130051D02*
X140063815Y-91939575D01*
X140063815Y-91939575D02*
X140111434Y-91844337D01*
X140111434Y-91844337D02*
X140159053Y-91796718D01*
X140159053Y-91796718D02*
X140254291Y-91749099D01*
%TO.C,R1*%
X152450833Y-106264819D02*
X152117500Y-105788628D01*
X151879405Y-106264819D02*
X151879405Y-105264819D01*
X151879405Y-105264819D02*
X152260357Y-105264819D01*
X152260357Y-105264819D02*
X152355595Y-105312438D01*
X152355595Y-105312438D02*
X152403214Y-105360057D01*
X152403214Y-105360057D02*
X152450833Y-105455295D01*
X152450833Y-105455295D02*
X152450833Y-105598152D01*
X152450833Y-105598152D02*
X152403214Y-105693390D01*
X152403214Y-105693390D02*
X152355595Y-105741009D01*
X152355595Y-105741009D02*
X152260357Y-105788628D01*
X152260357Y-105788628D02*
X151879405Y-105788628D01*
X153403214Y-106264819D02*
X152831786Y-106264819D01*
X153117500Y-106264819D02*
X153117500Y-105264819D01*
X153117500Y-105264819D02*
X153022262Y-105407676D01*
X153022262Y-105407676D02*
X152927024Y-105502914D01*
X152927024Y-105502914D02*
X152831786Y-105550533D01*
%TO.C,C10*%
X134989580Y-99072857D02*
X135037200Y-99120476D01*
X135037200Y-99120476D02*
X135084819Y-99263333D01*
X135084819Y-99263333D02*
X135084819Y-99358571D01*
X135084819Y-99358571D02*
X135037200Y-99501428D01*
X135037200Y-99501428D02*
X134941961Y-99596666D01*
X134941961Y-99596666D02*
X134846723Y-99644285D01*
X134846723Y-99644285D02*
X134656247Y-99691904D01*
X134656247Y-99691904D02*
X134513390Y-99691904D01*
X134513390Y-99691904D02*
X134322914Y-99644285D01*
X134322914Y-99644285D02*
X134227676Y-99596666D01*
X134227676Y-99596666D02*
X134132438Y-99501428D01*
X134132438Y-99501428D02*
X134084819Y-99358571D01*
X134084819Y-99358571D02*
X134084819Y-99263333D01*
X134084819Y-99263333D02*
X134132438Y-99120476D01*
X134132438Y-99120476D02*
X134180057Y-99072857D01*
X135084819Y-98120476D02*
X135084819Y-98691904D01*
X135084819Y-98406190D02*
X134084819Y-98406190D01*
X134084819Y-98406190D02*
X134227676Y-98501428D01*
X134227676Y-98501428D02*
X134322914Y-98596666D01*
X134322914Y-98596666D02*
X134370533Y-98691904D01*
X134084819Y-97501428D02*
X134084819Y-97406190D01*
X134084819Y-97406190D02*
X134132438Y-97310952D01*
X134132438Y-97310952D02*
X134180057Y-97263333D01*
X134180057Y-97263333D02*
X134275295Y-97215714D01*
X134275295Y-97215714D02*
X134465771Y-97168095D01*
X134465771Y-97168095D02*
X134703866Y-97168095D01*
X134703866Y-97168095D02*
X134894342Y-97215714D01*
X134894342Y-97215714D02*
X134989580Y-97263333D01*
X134989580Y-97263333D02*
X135037200Y-97310952D01*
X135037200Y-97310952D02*
X135084819Y-97406190D01*
X135084819Y-97406190D02*
X135084819Y-97501428D01*
X135084819Y-97501428D02*
X135037200Y-97596666D01*
X135037200Y-97596666D02*
X134989580Y-97644285D01*
X134989580Y-97644285D02*
X134894342Y-97691904D01*
X134894342Y-97691904D02*
X134703866Y-97739523D01*
X134703866Y-97739523D02*
X134465771Y-97739523D01*
X134465771Y-97739523D02*
X134275295Y-97691904D01*
X134275295Y-97691904D02*
X134180057Y-97644285D01*
X134180057Y-97644285D02*
X134132438Y-97596666D01*
X134132438Y-97596666D02*
X134084819Y-97501428D01*
%TO.C,R14*%
X138522862Y-94419099D02*
X138189529Y-93942908D01*
X137951434Y-94419099D02*
X137951434Y-93419099D01*
X137951434Y-93419099D02*
X138332386Y-93419099D01*
X138332386Y-93419099D02*
X138427624Y-93466718D01*
X138427624Y-93466718D02*
X138475243Y-93514337D01*
X138475243Y-93514337D02*
X138522862Y-93609575D01*
X138522862Y-93609575D02*
X138522862Y-93752432D01*
X138522862Y-93752432D02*
X138475243Y-93847670D01*
X138475243Y-93847670D02*
X138427624Y-93895289D01*
X138427624Y-93895289D02*
X138332386Y-93942908D01*
X138332386Y-93942908D02*
X137951434Y-93942908D01*
X139475243Y-94419099D02*
X138903815Y-94419099D01*
X139189529Y-94419099D02*
X139189529Y-93419099D01*
X139189529Y-93419099D02*
X139094291Y-93561956D01*
X139094291Y-93561956D02*
X138999053Y-93657194D01*
X138999053Y-93657194D02*
X138903815Y-93704813D01*
X140332386Y-93752432D02*
X140332386Y-94419099D01*
X140094291Y-93371480D02*
X139856196Y-94085765D01*
X139856196Y-94085765D02*
X140475243Y-94085765D01*
%TO.C,C2*%
X153355300Y-90770946D02*
X153402920Y-90818565D01*
X153402920Y-90818565D02*
X153450539Y-90961422D01*
X153450539Y-90961422D02*
X153450539Y-91056660D01*
X153450539Y-91056660D02*
X153402920Y-91199517D01*
X153402920Y-91199517D02*
X153307681Y-91294755D01*
X153307681Y-91294755D02*
X153212443Y-91342374D01*
X153212443Y-91342374D02*
X153021967Y-91389993D01*
X153021967Y-91389993D02*
X152879110Y-91389993D01*
X152879110Y-91389993D02*
X152688634Y-91342374D01*
X152688634Y-91342374D02*
X152593396Y-91294755D01*
X152593396Y-91294755D02*
X152498158Y-91199517D01*
X152498158Y-91199517D02*
X152450539Y-91056660D01*
X152450539Y-91056660D02*
X152450539Y-90961422D01*
X152450539Y-90961422D02*
X152498158Y-90818565D01*
X152498158Y-90818565D02*
X152545777Y-90770946D01*
X152545777Y-90389993D02*
X152498158Y-90342374D01*
X152498158Y-90342374D02*
X152450539Y-90247136D01*
X152450539Y-90247136D02*
X152450539Y-90009041D01*
X152450539Y-90009041D02*
X152498158Y-89913803D01*
X152498158Y-89913803D02*
X152545777Y-89866184D01*
X152545777Y-89866184D02*
X152641015Y-89818565D01*
X152641015Y-89818565D02*
X152736253Y-89818565D01*
X152736253Y-89818565D02*
X152879110Y-89866184D01*
X152879110Y-89866184D02*
X153450539Y-90437612D01*
X153450539Y-90437612D02*
X153450539Y-89818565D01*
%TO.C,D1*%
X159684405Y-100114819D02*
X159684405Y-99114819D01*
X159684405Y-99114819D02*
X159922500Y-99114819D01*
X159922500Y-99114819D02*
X160065357Y-99162438D01*
X160065357Y-99162438D02*
X160160595Y-99257676D01*
X160160595Y-99257676D02*
X160208214Y-99352914D01*
X160208214Y-99352914D02*
X160255833Y-99543390D01*
X160255833Y-99543390D02*
X160255833Y-99686247D01*
X160255833Y-99686247D02*
X160208214Y-99876723D01*
X160208214Y-99876723D02*
X160160595Y-99971961D01*
X160160595Y-99971961D02*
X160065357Y-100067200D01*
X160065357Y-100067200D02*
X159922500Y-100114819D01*
X159922500Y-100114819D02*
X159684405Y-100114819D01*
X161208214Y-100114819D02*
X160636786Y-100114819D01*
X160922500Y-100114819D02*
X160922500Y-99114819D01*
X160922500Y-99114819D02*
X160827262Y-99257676D01*
X160827262Y-99257676D02*
X160732024Y-99352914D01*
X160732024Y-99352914D02*
X160636786Y-99400533D01*
%TO.C,R9*%
X139683333Y-87604819D02*
X139350000Y-87128628D01*
X139111905Y-87604819D02*
X139111905Y-86604819D01*
X139111905Y-86604819D02*
X139492857Y-86604819D01*
X139492857Y-86604819D02*
X139588095Y-86652438D01*
X139588095Y-86652438D02*
X139635714Y-86700057D01*
X139635714Y-86700057D02*
X139683333Y-86795295D01*
X139683333Y-86795295D02*
X139683333Y-86938152D01*
X139683333Y-86938152D02*
X139635714Y-87033390D01*
X139635714Y-87033390D02*
X139588095Y-87081009D01*
X139588095Y-87081009D02*
X139492857Y-87128628D01*
X139492857Y-87128628D02*
X139111905Y-87128628D01*
X140159524Y-87604819D02*
X140350000Y-87604819D01*
X140350000Y-87604819D02*
X140445238Y-87557200D01*
X140445238Y-87557200D02*
X140492857Y-87509580D01*
X140492857Y-87509580D02*
X140588095Y-87366723D01*
X140588095Y-87366723D02*
X140635714Y-87176247D01*
X140635714Y-87176247D02*
X140635714Y-86795295D01*
X140635714Y-86795295D02*
X140588095Y-86700057D01*
X140588095Y-86700057D02*
X140540476Y-86652438D01*
X140540476Y-86652438D02*
X140445238Y-86604819D01*
X140445238Y-86604819D02*
X140254762Y-86604819D01*
X140254762Y-86604819D02*
X140159524Y-86652438D01*
X140159524Y-86652438D02*
X140111905Y-86700057D01*
X140111905Y-86700057D02*
X140064286Y-86795295D01*
X140064286Y-86795295D02*
X140064286Y-87033390D01*
X140064286Y-87033390D02*
X140111905Y-87128628D01*
X140111905Y-87128628D02*
X140159524Y-87176247D01*
X140159524Y-87176247D02*
X140254762Y-87223866D01*
X140254762Y-87223866D02*
X140445238Y-87223866D01*
X140445238Y-87223866D02*
X140540476Y-87176247D01*
X140540476Y-87176247D02*
X140588095Y-87128628D01*
X140588095Y-87128628D02*
X140635714Y-87033390D01*
%TO.C,C9*%
X144779580Y-100156666D02*
X144827200Y-100204285D01*
X144827200Y-100204285D02*
X144874819Y-100347142D01*
X144874819Y-100347142D02*
X144874819Y-100442380D01*
X144874819Y-100442380D02*
X144827200Y-100585237D01*
X144827200Y-100585237D02*
X144731961Y-100680475D01*
X144731961Y-100680475D02*
X144636723Y-100728094D01*
X144636723Y-100728094D02*
X144446247Y-100775713D01*
X144446247Y-100775713D02*
X144303390Y-100775713D01*
X144303390Y-100775713D02*
X144112914Y-100728094D01*
X144112914Y-100728094D02*
X144017676Y-100680475D01*
X144017676Y-100680475D02*
X143922438Y-100585237D01*
X143922438Y-100585237D02*
X143874819Y-100442380D01*
X143874819Y-100442380D02*
X143874819Y-100347142D01*
X143874819Y-100347142D02*
X143922438Y-100204285D01*
X143922438Y-100204285D02*
X143970057Y-100156666D01*
X144874819Y-99680475D02*
X144874819Y-99489999D01*
X144874819Y-99489999D02*
X144827200Y-99394761D01*
X144827200Y-99394761D02*
X144779580Y-99347142D01*
X144779580Y-99347142D02*
X144636723Y-99251904D01*
X144636723Y-99251904D02*
X144446247Y-99204285D01*
X144446247Y-99204285D02*
X144065295Y-99204285D01*
X144065295Y-99204285D02*
X143970057Y-99251904D01*
X143970057Y-99251904D02*
X143922438Y-99299523D01*
X143922438Y-99299523D02*
X143874819Y-99394761D01*
X143874819Y-99394761D02*
X143874819Y-99585237D01*
X143874819Y-99585237D02*
X143922438Y-99680475D01*
X143922438Y-99680475D02*
X143970057Y-99728094D01*
X143970057Y-99728094D02*
X144065295Y-99775713D01*
X144065295Y-99775713D02*
X144303390Y-99775713D01*
X144303390Y-99775713D02*
X144398628Y-99728094D01*
X144398628Y-99728094D02*
X144446247Y-99680475D01*
X144446247Y-99680475D02*
X144493866Y-99585237D01*
X144493866Y-99585237D02*
X144493866Y-99394761D01*
X144493866Y-99394761D02*
X144446247Y-99299523D01*
X144446247Y-99299523D02*
X144398628Y-99251904D01*
X144398628Y-99251904D02*
X144303390Y-99204285D01*
%TO.C,C6*%
X159519580Y-92586666D02*
X159567200Y-92634285D01*
X159567200Y-92634285D02*
X159614819Y-92777142D01*
X159614819Y-92777142D02*
X159614819Y-92872380D01*
X159614819Y-92872380D02*
X159567200Y-93015237D01*
X159567200Y-93015237D02*
X159471961Y-93110475D01*
X159471961Y-93110475D02*
X159376723Y-93158094D01*
X159376723Y-93158094D02*
X159186247Y-93205713D01*
X159186247Y-93205713D02*
X159043390Y-93205713D01*
X159043390Y-93205713D02*
X158852914Y-93158094D01*
X158852914Y-93158094D02*
X158757676Y-93110475D01*
X158757676Y-93110475D02*
X158662438Y-93015237D01*
X158662438Y-93015237D02*
X158614819Y-92872380D01*
X158614819Y-92872380D02*
X158614819Y-92777142D01*
X158614819Y-92777142D02*
X158662438Y-92634285D01*
X158662438Y-92634285D02*
X158710057Y-92586666D01*
X158614819Y-91729523D02*
X158614819Y-91919999D01*
X158614819Y-91919999D02*
X158662438Y-92015237D01*
X158662438Y-92015237D02*
X158710057Y-92062856D01*
X158710057Y-92062856D02*
X158852914Y-92158094D01*
X158852914Y-92158094D02*
X159043390Y-92205713D01*
X159043390Y-92205713D02*
X159424342Y-92205713D01*
X159424342Y-92205713D02*
X159519580Y-92158094D01*
X159519580Y-92158094D02*
X159567200Y-92110475D01*
X159567200Y-92110475D02*
X159614819Y-92015237D01*
X159614819Y-92015237D02*
X159614819Y-91824761D01*
X159614819Y-91824761D02*
X159567200Y-91729523D01*
X159567200Y-91729523D02*
X159519580Y-91681904D01*
X159519580Y-91681904D02*
X159424342Y-91634285D01*
X159424342Y-91634285D02*
X159186247Y-91634285D01*
X159186247Y-91634285D02*
X159091009Y-91681904D01*
X159091009Y-91681904D02*
X159043390Y-91729523D01*
X159043390Y-91729523D02*
X158995771Y-91824761D01*
X158995771Y-91824761D02*
X158995771Y-92015237D01*
X158995771Y-92015237D02*
X159043390Y-92110475D01*
X159043390Y-92110475D02*
X159091009Y-92158094D01*
X159091009Y-92158094D02*
X159186247Y-92205713D01*
%TO.C,C12*%
X134989580Y-103912857D02*
X135037200Y-103960476D01*
X135037200Y-103960476D02*
X135084819Y-104103333D01*
X135084819Y-104103333D02*
X135084819Y-104198571D01*
X135084819Y-104198571D02*
X135037200Y-104341428D01*
X135037200Y-104341428D02*
X134941961Y-104436666D01*
X134941961Y-104436666D02*
X134846723Y-104484285D01*
X134846723Y-104484285D02*
X134656247Y-104531904D01*
X134656247Y-104531904D02*
X134513390Y-104531904D01*
X134513390Y-104531904D02*
X134322914Y-104484285D01*
X134322914Y-104484285D02*
X134227676Y-104436666D01*
X134227676Y-104436666D02*
X134132438Y-104341428D01*
X134132438Y-104341428D02*
X134084819Y-104198571D01*
X134084819Y-104198571D02*
X134084819Y-104103333D01*
X134084819Y-104103333D02*
X134132438Y-103960476D01*
X134132438Y-103960476D02*
X134180057Y-103912857D01*
X135084819Y-102960476D02*
X135084819Y-103531904D01*
X135084819Y-103246190D02*
X134084819Y-103246190D01*
X134084819Y-103246190D02*
X134227676Y-103341428D01*
X134227676Y-103341428D02*
X134322914Y-103436666D01*
X134322914Y-103436666D02*
X134370533Y-103531904D01*
X134180057Y-102579523D02*
X134132438Y-102531904D01*
X134132438Y-102531904D02*
X134084819Y-102436666D01*
X134084819Y-102436666D02*
X134084819Y-102198571D01*
X134084819Y-102198571D02*
X134132438Y-102103333D01*
X134132438Y-102103333D02*
X134180057Y-102055714D01*
X134180057Y-102055714D02*
X134275295Y-102008095D01*
X134275295Y-102008095D02*
X134370533Y-102008095D01*
X134370533Y-102008095D02*
X134513390Y-102055714D01*
X134513390Y-102055714D02*
X135084819Y-102627142D01*
X135084819Y-102627142D02*
X135084819Y-102008095D01*
%TO.C,R2*%
X152483333Y-107674819D02*
X152150000Y-107198628D01*
X151911905Y-107674819D02*
X151911905Y-106674819D01*
X151911905Y-106674819D02*
X152292857Y-106674819D01*
X152292857Y-106674819D02*
X152388095Y-106722438D01*
X152388095Y-106722438D02*
X152435714Y-106770057D01*
X152435714Y-106770057D02*
X152483333Y-106865295D01*
X152483333Y-106865295D02*
X152483333Y-107008152D01*
X152483333Y-107008152D02*
X152435714Y-107103390D01*
X152435714Y-107103390D02*
X152388095Y-107151009D01*
X152388095Y-107151009D02*
X152292857Y-107198628D01*
X152292857Y-107198628D02*
X151911905Y-107198628D01*
X152864286Y-106770057D02*
X152911905Y-106722438D01*
X152911905Y-106722438D02*
X153007143Y-106674819D01*
X153007143Y-106674819D02*
X153245238Y-106674819D01*
X153245238Y-106674819D02*
X153340476Y-106722438D01*
X153340476Y-106722438D02*
X153388095Y-106770057D01*
X153388095Y-106770057D02*
X153435714Y-106865295D01*
X153435714Y-106865295D02*
X153435714Y-106960533D01*
X153435714Y-106960533D02*
X153388095Y-107103390D01*
X153388095Y-107103390D02*
X152816667Y-107674819D01*
X152816667Y-107674819D02*
X153435714Y-107674819D01*
%TO.C,R4*%
X143207319Y-110806666D02*
X142731128Y-111139999D01*
X143207319Y-111378094D02*
X142207319Y-111378094D01*
X142207319Y-111378094D02*
X142207319Y-110997142D01*
X142207319Y-110997142D02*
X142254938Y-110901904D01*
X142254938Y-110901904D02*
X142302557Y-110854285D01*
X142302557Y-110854285D02*
X142397795Y-110806666D01*
X142397795Y-110806666D02*
X142540652Y-110806666D01*
X142540652Y-110806666D02*
X142635890Y-110854285D01*
X142635890Y-110854285D02*
X142683509Y-110901904D01*
X142683509Y-110901904D02*
X142731128Y-110997142D01*
X142731128Y-110997142D02*
X142731128Y-111378094D01*
X142540652Y-109949523D02*
X143207319Y-109949523D01*
X142159700Y-110187618D02*
X142873985Y-110425713D01*
X142873985Y-110425713D02*
X142873985Y-109806666D01*
%TO.C,R6*%
X139683333Y-89334819D02*
X139350000Y-88858628D01*
X139111905Y-89334819D02*
X139111905Y-88334819D01*
X139111905Y-88334819D02*
X139492857Y-88334819D01*
X139492857Y-88334819D02*
X139588095Y-88382438D01*
X139588095Y-88382438D02*
X139635714Y-88430057D01*
X139635714Y-88430057D02*
X139683333Y-88525295D01*
X139683333Y-88525295D02*
X139683333Y-88668152D01*
X139683333Y-88668152D02*
X139635714Y-88763390D01*
X139635714Y-88763390D02*
X139588095Y-88811009D01*
X139588095Y-88811009D02*
X139492857Y-88858628D01*
X139492857Y-88858628D02*
X139111905Y-88858628D01*
X140540476Y-88334819D02*
X140350000Y-88334819D01*
X140350000Y-88334819D02*
X140254762Y-88382438D01*
X140254762Y-88382438D02*
X140207143Y-88430057D01*
X140207143Y-88430057D02*
X140111905Y-88572914D01*
X140111905Y-88572914D02*
X140064286Y-88763390D01*
X140064286Y-88763390D02*
X140064286Y-89144342D01*
X140064286Y-89144342D02*
X140111905Y-89239580D01*
X140111905Y-89239580D02*
X140159524Y-89287200D01*
X140159524Y-89287200D02*
X140254762Y-89334819D01*
X140254762Y-89334819D02*
X140445238Y-89334819D01*
X140445238Y-89334819D02*
X140540476Y-89287200D01*
X140540476Y-89287200D02*
X140588095Y-89239580D01*
X140588095Y-89239580D02*
X140635714Y-89144342D01*
X140635714Y-89144342D02*
X140635714Y-88906247D01*
X140635714Y-88906247D02*
X140588095Y-88811009D01*
X140588095Y-88811009D02*
X140540476Y-88763390D01*
X140540476Y-88763390D02*
X140445238Y-88715771D01*
X140445238Y-88715771D02*
X140254762Y-88715771D01*
X140254762Y-88715771D02*
X140159524Y-88763390D01*
X140159524Y-88763390D02*
X140111905Y-88811009D01*
X140111905Y-88811009D02*
X140064286Y-88906247D01*
%TO.C,C8*%
X140229053Y-86133860D02*
X140181434Y-86181480D01*
X140181434Y-86181480D02*
X140038577Y-86229099D01*
X140038577Y-86229099D02*
X139943339Y-86229099D01*
X139943339Y-86229099D02*
X139800482Y-86181480D01*
X139800482Y-86181480D02*
X139705244Y-86086241D01*
X139705244Y-86086241D02*
X139657625Y-85991003D01*
X139657625Y-85991003D02*
X139610006Y-85800527D01*
X139610006Y-85800527D02*
X139610006Y-85657670D01*
X139610006Y-85657670D02*
X139657625Y-85467194D01*
X139657625Y-85467194D02*
X139705244Y-85371956D01*
X139705244Y-85371956D02*
X139800482Y-85276718D01*
X139800482Y-85276718D02*
X139943339Y-85229099D01*
X139943339Y-85229099D02*
X140038577Y-85229099D01*
X140038577Y-85229099D02*
X140181434Y-85276718D01*
X140181434Y-85276718D02*
X140229053Y-85324337D01*
X140800482Y-85657670D02*
X140705244Y-85610051D01*
X140705244Y-85610051D02*
X140657625Y-85562432D01*
X140657625Y-85562432D02*
X140610006Y-85467194D01*
X140610006Y-85467194D02*
X140610006Y-85419575D01*
X140610006Y-85419575D02*
X140657625Y-85324337D01*
X140657625Y-85324337D02*
X140705244Y-85276718D01*
X140705244Y-85276718D02*
X140800482Y-85229099D01*
X140800482Y-85229099D02*
X140990958Y-85229099D01*
X140990958Y-85229099D02*
X141086196Y-85276718D01*
X141086196Y-85276718D02*
X141133815Y-85324337D01*
X141133815Y-85324337D02*
X141181434Y-85419575D01*
X141181434Y-85419575D02*
X141181434Y-85467194D01*
X141181434Y-85467194D02*
X141133815Y-85562432D01*
X141133815Y-85562432D02*
X141086196Y-85610051D01*
X141086196Y-85610051D02*
X140990958Y-85657670D01*
X140990958Y-85657670D02*
X140800482Y-85657670D01*
X140800482Y-85657670D02*
X140705244Y-85705289D01*
X140705244Y-85705289D02*
X140657625Y-85752908D01*
X140657625Y-85752908D02*
X140610006Y-85848146D01*
X140610006Y-85848146D02*
X140610006Y-86038622D01*
X140610006Y-86038622D02*
X140657625Y-86133860D01*
X140657625Y-86133860D02*
X140705244Y-86181480D01*
X140705244Y-86181480D02*
X140800482Y-86229099D01*
X140800482Y-86229099D02*
X140990958Y-86229099D01*
X140990958Y-86229099D02*
X141086196Y-86181480D01*
X141086196Y-86181480D02*
X141133815Y-86133860D01*
X141133815Y-86133860D02*
X141181434Y-86038622D01*
X141181434Y-86038622D02*
X141181434Y-85848146D01*
X141181434Y-85848146D02*
X141133815Y-85752908D01*
X141133815Y-85752908D02*
X141086196Y-85705289D01*
X141086196Y-85705289D02*
X140990958Y-85657670D01*
%TO.C,C7*%
X147767613Y-84125300D02*
X147719994Y-84172920D01*
X147719994Y-84172920D02*
X147577137Y-84220539D01*
X147577137Y-84220539D02*
X147481899Y-84220539D01*
X147481899Y-84220539D02*
X147339042Y-84172920D01*
X147339042Y-84172920D02*
X147243804Y-84077681D01*
X147243804Y-84077681D02*
X147196185Y-83982443D01*
X147196185Y-83982443D02*
X147148566Y-83791967D01*
X147148566Y-83791967D02*
X147148566Y-83649110D01*
X147148566Y-83649110D02*
X147196185Y-83458634D01*
X147196185Y-83458634D02*
X147243804Y-83363396D01*
X147243804Y-83363396D02*
X147339042Y-83268158D01*
X147339042Y-83268158D02*
X147481899Y-83220539D01*
X147481899Y-83220539D02*
X147577137Y-83220539D01*
X147577137Y-83220539D02*
X147719994Y-83268158D01*
X147719994Y-83268158D02*
X147767613Y-83315777D01*
X148100947Y-83220539D02*
X148767613Y-83220539D01*
X148767613Y-83220539D02*
X148339042Y-84220539D01*
%TO.C,R7*%
X139629053Y-91009099D02*
X139295720Y-90532908D01*
X139057625Y-91009099D02*
X139057625Y-90009099D01*
X139057625Y-90009099D02*
X139438577Y-90009099D01*
X139438577Y-90009099D02*
X139533815Y-90056718D01*
X139533815Y-90056718D02*
X139581434Y-90104337D01*
X139581434Y-90104337D02*
X139629053Y-90199575D01*
X139629053Y-90199575D02*
X139629053Y-90342432D01*
X139629053Y-90342432D02*
X139581434Y-90437670D01*
X139581434Y-90437670D02*
X139533815Y-90485289D01*
X139533815Y-90485289D02*
X139438577Y-90532908D01*
X139438577Y-90532908D02*
X139057625Y-90532908D01*
X139962387Y-90009099D02*
X140629053Y-90009099D01*
X140629053Y-90009099D02*
X140200482Y-91009099D01*
%TO.C,R8*%
X145823333Y-98114819D02*
X145490000Y-97638628D01*
X145251905Y-98114819D02*
X145251905Y-97114819D01*
X145251905Y-97114819D02*
X145632857Y-97114819D01*
X145632857Y-97114819D02*
X145728095Y-97162438D01*
X145728095Y-97162438D02*
X145775714Y-97210057D01*
X145775714Y-97210057D02*
X145823333Y-97305295D01*
X145823333Y-97305295D02*
X145823333Y-97448152D01*
X145823333Y-97448152D02*
X145775714Y-97543390D01*
X145775714Y-97543390D02*
X145728095Y-97591009D01*
X145728095Y-97591009D02*
X145632857Y-97638628D01*
X145632857Y-97638628D02*
X145251905Y-97638628D01*
X146394762Y-97543390D02*
X146299524Y-97495771D01*
X146299524Y-97495771D02*
X146251905Y-97448152D01*
X146251905Y-97448152D02*
X146204286Y-97352914D01*
X146204286Y-97352914D02*
X146204286Y-97305295D01*
X146204286Y-97305295D02*
X146251905Y-97210057D01*
X146251905Y-97210057D02*
X146299524Y-97162438D01*
X146299524Y-97162438D02*
X146394762Y-97114819D01*
X146394762Y-97114819D02*
X146585238Y-97114819D01*
X146585238Y-97114819D02*
X146680476Y-97162438D01*
X146680476Y-97162438D02*
X146728095Y-97210057D01*
X146728095Y-97210057D02*
X146775714Y-97305295D01*
X146775714Y-97305295D02*
X146775714Y-97352914D01*
X146775714Y-97352914D02*
X146728095Y-97448152D01*
X146728095Y-97448152D02*
X146680476Y-97495771D01*
X146680476Y-97495771D02*
X146585238Y-97543390D01*
X146585238Y-97543390D02*
X146394762Y-97543390D01*
X146394762Y-97543390D02*
X146299524Y-97591009D01*
X146299524Y-97591009D02*
X146251905Y-97638628D01*
X146251905Y-97638628D02*
X146204286Y-97733866D01*
X146204286Y-97733866D02*
X146204286Y-97924342D01*
X146204286Y-97924342D02*
X146251905Y-98019580D01*
X146251905Y-98019580D02*
X146299524Y-98067200D01*
X146299524Y-98067200D02*
X146394762Y-98114819D01*
X146394762Y-98114819D02*
X146585238Y-98114819D01*
X146585238Y-98114819D02*
X146680476Y-98067200D01*
X146680476Y-98067200D02*
X146728095Y-98019580D01*
X146728095Y-98019580D02*
X146775714Y-97924342D01*
X146775714Y-97924342D02*
X146775714Y-97733866D01*
X146775714Y-97733866D02*
X146728095Y-97638628D01*
X146728095Y-97638628D02*
X146680476Y-97591009D01*
X146680476Y-97591009D02*
X146585238Y-97543390D01*
D11*
%TO.C,C5*%
X146554165Y-107590000D02*
X146785835Y-107590000D01*
X146554165Y-108310000D02*
X146785835Y-108310000D01*
%TO.C,R3*%
X143792510Y-110907615D02*
X143792510Y-110572373D01*
X144552510Y-110907615D02*
X144552510Y-110572373D01*
%TO.C,R15*%
X157784724Y-101962500D02*
X157275276Y-101962500D01*
X157784724Y-100917500D02*
X157275276Y-100917500D01*
%TO.C,C4*%
X149520000Y-102536267D02*
X149520000Y-102243733D01*
X150540000Y-102536267D02*
X150540000Y-102243733D01*
%TO.C,U1*%
X140230000Y-100012500D02*
X142030000Y-100012500D01*
X140230000Y-100012500D02*
X139430000Y-100012500D01*
X140230000Y-96892500D02*
X141030000Y-96892500D01*
X140230000Y-96892500D02*
X139430000Y-96892500D01*
%TO.C,C13*%
X156844165Y-103230000D02*
X157075835Y-103230000D01*
X156844165Y-103950000D02*
X157075835Y-103950000D01*
%TO.C,TP1*%
X135120000Y-93440000D02*
X136520000Y-93440000D01*
X135120000Y-94840000D02*
X135120000Y-93440000D01*
X136520000Y-93440000D02*
X136520000Y-94840000D01*
X136520000Y-94840000D02*
X135120000Y-94840000D01*
%TO.C,R13*%
X142340996Y-82071780D02*
X142850444Y-82071780D01*
X142340996Y-83116780D02*
X142850444Y-83116780D01*
%TO.C,R16*%
X153784724Y-100152500D02*
X153275276Y-100152500D01*
X153784724Y-99107500D02*
X153275276Y-99107500D01*
%TO.C,C1*%
X150254165Y-108090000D02*
X150485835Y-108090000D01*
X150254165Y-108810000D02*
X150485835Y-108810000D01*
%TO.C,R12*%
X142340996Y-83771780D02*
X142850444Y-83771780D01*
X142340996Y-84816780D02*
X142850444Y-84816780D01*
%TO.C,L2*%
X157520000Y-82640000D02*
X157520000Y-88640000D01*
X153320000Y-82640000D02*
X153320000Y-88640000D01*
%TO.C,R11*%
X147897500Y-97294724D02*
X147897500Y-96785276D01*
X148942500Y-97294724D02*
X148942500Y-96785276D01*
%TO.C,R5*%
X146755276Y-105877500D02*
X147264724Y-105877500D01*
X146755276Y-106922500D02*
X147264724Y-106922500D01*
%TO.C,C11*%
X143490000Y-104774165D02*
X143490000Y-105005835D01*
X142770000Y-104774165D02*
X142770000Y-105005835D01*
%TO.C,U2*%
X147135720Y-88584280D02*
X147610720Y-88584280D01*
X150855720Y-89059280D02*
X150855720Y-88584280D01*
X147135720Y-89059280D02*
X147135720Y-88584280D01*
X150855720Y-91829280D02*
X150855720Y-92304280D01*
X147135720Y-91829280D02*
X147135720Y-92304280D01*
X150855720Y-92304280D02*
X150380720Y-92304280D01*
X147135720Y-92304280D02*
X147610720Y-92304280D01*
%TO.C,C3*%
X156265720Y-90698013D02*
X156265720Y-90990547D01*
X155245720Y-90698013D02*
X155245720Y-90990547D01*
%TO.C,R10*%
X142340996Y-91731780D02*
X142850444Y-91731780D01*
X142340996Y-92776780D02*
X142850444Y-92776780D01*
%TO.C,R1*%
X150222379Y-105740000D02*
X150557621Y-105740000D01*
X150222379Y-106500000D02*
X150557621Y-106500000D01*
%TO.C,C10*%
X135520000Y-100290000D02*
X137440000Y-100290000D01*
X137440000Y-100290000D02*
X137440000Y-97430000D01*
X135520000Y-97430000D02*
X135520000Y-100290000D01*
%TO.C,R14*%
X142340996Y-93431780D02*
X142850444Y-93431780D01*
X142340996Y-94476780D02*
X142850444Y-94476780D01*
%TO.C,L1*%
X156770000Y-95314280D02*
X156770000Y-95714280D01*
X153570000Y-95314280D02*
X153570000Y-95714280D01*
%TO.C,C2*%
X154605720Y-90378445D02*
X154605720Y-90610115D01*
X153885720Y-90378445D02*
X153885720Y-90610115D01*
%TO.C,J4*%
X166060000Y-90640000D02*
X166060000Y-91700000D01*
X165000000Y-90640000D02*
X166060000Y-90640000D01*
X164000000Y-90640000D02*
X163940000Y-90640000D01*
X164000000Y-90640000D02*
X164000000Y-92700000D01*
X163940000Y-90640000D02*
X163940000Y-94760000D01*
X166060000Y-92700000D02*
X166060000Y-94760000D01*
X164000000Y-92700000D02*
X166060000Y-92700000D01*
X166060000Y-94760000D02*
X163940000Y-94760000D01*
%TO.C,U4*%
X153530000Y-100830000D02*
X151730000Y-100830000D01*
X153530000Y-100830000D02*
X154330000Y-100830000D01*
X153530000Y-103950000D02*
X152730000Y-103950000D01*
X153530000Y-103950000D02*
X154330000Y-103950000D01*
%TO.C,D1*%
X155915000Y-98925000D02*
X155915000Y-100395000D01*
X155915000Y-100395000D02*
X158375000Y-100395000D01*
X158375000Y-98925000D02*
X155915000Y-98925000D01*
%TO.C,R9*%
X142345276Y-86677500D02*
X142854724Y-86677500D01*
X142345276Y-87722500D02*
X142854724Y-87722500D01*
%TO.C,C9*%
X143470000Y-99884165D02*
X143470000Y-100115835D01*
X142750000Y-99884165D02*
X142750000Y-100115835D01*
%TO.C,TP3*%
X150970000Y-80190000D02*
X152370000Y-80190000D01*
X150970000Y-81590000D02*
X150970000Y-80190000D01*
X152370000Y-80190000D02*
X152370000Y-81590000D01*
X152370000Y-81590000D02*
X150970000Y-81590000D01*
%TO.C,C6*%
X158410720Y-95775532D02*
X158410720Y-95253028D01*
X159880720Y-95775532D02*
X159880720Y-95253028D01*
%TO.C,C12*%
X135520000Y-105140000D02*
X137440000Y-105140000D01*
X137440000Y-105140000D02*
X137440000Y-102280000D01*
X135520000Y-102280000D02*
X135520000Y-105140000D01*
%TO.C,TP4*%
X139650000Y-106480000D02*
X141050000Y-106480000D01*
X139650000Y-107880000D02*
X139650000Y-106480000D01*
X141050000Y-106480000D02*
X141050000Y-107880000D01*
X141050000Y-107880000D02*
X139650000Y-107880000D01*
%TO.C,J3*%
X163940000Y-100060000D02*
X163940000Y-99000000D01*
X165000000Y-100060000D02*
X163940000Y-100060000D01*
X166000000Y-100060000D02*
X166060000Y-100060000D01*
X166000000Y-100060000D02*
X166000000Y-98000000D01*
X166060000Y-100060000D02*
X166060000Y-95940000D01*
X163940000Y-98000000D02*
X163940000Y-95940000D01*
X166000000Y-98000000D02*
X163940000Y-98000000D01*
X163940000Y-95940000D02*
X166060000Y-95940000D01*
%TO.C,J1*%
X154309004Y-113254314D02*
X153644004Y-112102500D01*
X155460818Y-112589314D02*
X154309004Y-113254314D01*
X156560670Y-111954314D02*
X158812336Y-110654314D01*
X156560670Y-111954314D02*
X155230670Y-109650686D01*
X158812336Y-110654314D02*
X157482336Y-108350686D01*
X155230670Y-109650686D02*
X157482336Y-108350686D01*
%TO.C,R2*%
X150222379Y-106910000D02*
X150557621Y-106910000D01*
X150222379Y-107670000D02*
X150557621Y-107670000D01*
%TO.C,R4*%
X145122500Y-110917621D02*
X145122500Y-110582379D01*
X145882500Y-110917621D02*
X145882500Y-110582379D01*
D12*
%TO.C,IC1*%
X148102500Y-109515000D02*
X150402500Y-109515000D01*
X148102500Y-111925000D02*
X150402500Y-111925000D01*
D13*
X146827500Y-109970000D02*
G75*
G03*
X146827500Y-109970000I-100000J0D01*
G01*
D11*
%TO.C,R6*%
X142844724Y-89412500D02*
X142335276Y-89412500D01*
X142844724Y-88367500D02*
X142335276Y-88367500D01*
%TO.C,C8*%
X142711555Y-86084280D02*
X142479885Y-86084280D01*
X142711555Y-85364280D02*
X142479885Y-85364280D01*
%TO.C,C7*%
X150916267Y-84230000D02*
X150623733Y-84230000D01*
X150916267Y-83210000D02*
X150623733Y-83210000D01*
%TO.C,R7*%
X142340996Y-90031780D02*
X142850444Y-90031780D01*
X142340996Y-91076780D02*
X142850444Y-91076780D01*
%TO.C,TP2*%
X160960000Y-95720000D02*
X162360000Y-95720000D01*
X160960000Y-97120000D02*
X160960000Y-95720000D01*
X162360000Y-95720000D02*
X162360000Y-97120000D01*
X162360000Y-97120000D02*
X160960000Y-97120000D01*
%TO.C,U3*%
X140230000Y-104862500D02*
X142030000Y-104862500D01*
X140230000Y-104862500D02*
X139430000Y-104862500D01*
X140230000Y-101742500D02*
X141030000Y-101742500D01*
X140230000Y-101742500D02*
X139430000Y-101742500D01*
%TO.C,J2*%
X127895000Y-87770000D02*
X129225000Y-87770000D01*
X127895000Y-89100000D02*
X127895000Y-87770000D01*
X127895000Y-90370000D02*
X127895000Y-103130000D01*
X127895000Y-90370000D02*
X130495000Y-90370000D01*
X127895000Y-103130000D02*
X133095000Y-103130000D01*
X130495000Y-87770000D02*
X133095000Y-87770000D01*
X130495000Y-90370000D02*
X130495000Y-87770000D01*
X133095000Y-87770000D02*
X133095000Y-103130000D01*
%TO.C,R8*%
X146194724Y-96632500D02*
X145685276Y-96632500D01*
X146194724Y-95587500D02*
X145685276Y-95587500D01*
%TD*%
M02*
