%TF.GenerationSoftware,KiCad,Pcbnew,7.0.5*%
%TF.CreationDate,2023-06-06T16:57:07-04:00*%
%TF.ProjectId,PWR,5057522e-6b69-4636-9164-5f7063625858,rev?*%
%TF.SameCoordinates,Original*%
%TF.FileFunction,Soldermask,Top*%
%TF.FilePolarity,Negative*%
%FSLAX46Y46*%
G04 Gerber Fmt 4.6, Leading zero omitted, Abs format (unit mm)*
G04 Created by KiCad (PCBNEW 7.0.5) date 2023-06-06 16:57:07*
%MOMM*%
%LPD*%
G01*
G04 APERTURE LIST*
G04 Aperture macros list*
%AMRoundRect*
0 Rectangle with rounded corners*
0 $1 Rounding radius*
0 $2 $3 $4 $5 $6 $7 $8 $9 X,Y pos of 4 corners*
0 Add a 4 corners polygon primitive as box body*
4,1,4,$2,$3,$4,$5,$6,$7,$8,$9,$2,$3,0*
0 Add four circle primitives for the rounded corners*
1,1,$1+$1,$2,$3*
1,1,$1+$1,$4,$5*
1,1,$1+$1,$6,$7*
1,1,$1+$1,$8,$9*
0 Add four rect primitives between the rounded corners*
20,1,$1+$1,$2,$3,$4,$5,0*
20,1,$1+$1,$4,$5,$6,$7,0*
20,1,$1+$1,$6,$7,$8,$9,0*
20,1,$1+$1,$8,$9,$2,$3,0*%
%AMHorizOval*
0 Thick line with rounded ends*
0 $1 width*
0 $2 $3 position (X,Y) of the first rounded end (center of the circle)*
0 $4 $5 position (X,Y) of the second rounded end (center of the circle)*
0 Add line between two ends*
20,1,$1,$2,$3,$4,$5,0*
0 Add two circle primitives to create the rounded ends*
1,1,$1,$2,$3*
1,1,$1,$4,$5*%
%AMRotRect*
0 Rectangle, with rotation*
0 The origin of the aperture is its center*
0 $1 length*
0 $2 width*
0 $3 Rotation angle, in degrees counterclockwise*
0 Add horizontal line*
21,1,$1,$2,0,0,$3*%
G04 Aperture macros list end*
%ADD10RoundRect,0.155000X-0.212500X-0.155000X0.212500X-0.155000X0.212500X0.155000X-0.212500X0.155000X0*%
%ADD11RoundRect,0.160000X0.160000X-0.197500X0.160000X0.197500X-0.160000X0.197500X-0.160000X-0.197500X0*%
%ADD12RoundRect,0.237500X0.250000X0.237500X-0.250000X0.237500X-0.250000X-0.237500X0.250000X-0.237500X0*%
%ADD13RoundRect,0.237500X0.237500X-0.300000X0.237500X0.300000X-0.237500X0.300000X-0.237500X-0.300000X0*%
%ADD14RoundRect,0.150000X0.512500X0.150000X-0.512500X0.150000X-0.512500X-0.150000X0.512500X-0.150000X0*%
%ADD15R,1.000000X1.000000*%
%ADD16RoundRect,0.237500X-0.250000X-0.237500X0.250000X-0.237500X0.250000X0.237500X-0.250000X0.237500X0*%
%ADD17R,3.900000X2.200000*%
%ADD18RoundRect,0.237500X0.237500X-0.250000X0.237500X0.250000X-0.237500X0.250000X-0.237500X-0.250000X0*%
%ADD19RoundRect,0.155000X-0.155000X0.212500X-0.155000X-0.212500X0.155000X-0.212500X0.155000X0.212500X0*%
%ADD20RoundRect,0.062500X-0.062500X0.375000X-0.062500X-0.375000X0.062500X-0.375000X0.062500X0.375000X0*%
%ADD21RoundRect,0.062500X-0.375000X0.062500X-0.375000X-0.062500X0.375000X-0.062500X0.375000X0.062500X0*%
%ADD22R,2.000000X2.000000*%
%ADD23RoundRect,0.237500X-0.237500X0.300000X-0.237500X-0.300000X0.237500X-0.300000X0.237500X0.300000X0*%
%ADD24RoundRect,0.160000X-0.197500X-0.160000X0.197500X-0.160000X0.197500X0.160000X-0.197500X0.160000X0*%
%ADD25RoundRect,0.250000X0.450000X-0.325000X0.450000X0.325000X-0.450000X0.325000X-0.450000X-0.325000X0*%
%ADD26R,3.400000X1.300000*%
%ADD27R,1.350000X1.350000*%
%ADD28O,1.350000X1.350000*%
%ADD29RoundRect,0.150000X-0.512500X-0.150000X0.512500X-0.150000X0.512500X0.150000X-0.512500X0.150000X0*%
%ADD30RoundRect,0.237500X-0.287500X-0.237500X0.287500X-0.237500X0.287500X0.237500X-0.287500X0.237500X0*%
%ADD31RoundRect,0.250000X0.475000X-0.337500X0.475000X0.337500X-0.475000X0.337500X-0.475000X-0.337500X0*%
%ADD32RotRect,1.700000X1.700000X120.000000*%
%ADD33HorizOval,1.700000X0.000000X0.000000X0.000000X0.000000X0*%
%ADD34R,1.120000X0.270000*%
%ADD35RoundRect,0.155000X0.212500X0.155000X-0.212500X0.155000X-0.212500X-0.155000X0.212500X-0.155000X0*%
%ADD36RoundRect,0.237500X0.300000X0.237500X-0.300000X0.237500X-0.300000X-0.237500X0.300000X-0.237500X0*%
%ADD37R,1.700000X1.700000*%
%ADD38O,1.700000X1.700000*%
G04 APERTURE END LIST*
D10*
%TO.C,C5*%
X146102500Y-107950000D03*
X147237500Y-107950000D03*
%TD*%
D11*
%TO.C,R3*%
X144172510Y-111337494D03*
X144172510Y-110142494D03*
%TD*%
D12*
%TO.C,R15*%
X158442500Y-101440000D03*
X156617500Y-101440000D03*
%TD*%
D13*
%TO.C,C4*%
X150030000Y-103252500D03*
X150030000Y-101527500D03*
%TD*%
D14*
%TO.C,U1*%
X141367500Y-99402500D03*
X141367500Y-98452500D03*
X141367500Y-97502500D03*
X139092500Y-97502500D03*
X139092500Y-99402500D03*
%TD*%
D10*
%TO.C,C13*%
X156392500Y-103590000D03*
X157527500Y-103590000D03*
%TD*%
D15*
%TO.C,TP1*%
X135820000Y-94140000D03*
%TD*%
D16*
%TO.C,R13*%
X141683220Y-82594280D03*
X143508220Y-82594280D03*
%TD*%
D12*
%TO.C,R16*%
X154442500Y-99630000D03*
X152617500Y-99630000D03*
%TD*%
D10*
%TO.C,C1*%
X149802500Y-108450000D03*
X150937500Y-108450000D03*
%TD*%
D16*
%TO.C,R12*%
X141683220Y-84294280D03*
X143508220Y-84294280D03*
%TD*%
D17*
%TO.C,L2*%
X155420000Y-83740000D03*
X155420000Y-87540000D03*
%TD*%
D18*
%TO.C,R11*%
X148420000Y-97952500D03*
X148420000Y-96127500D03*
%TD*%
D16*
%TO.C,R5*%
X146097500Y-106400000D03*
X147922500Y-106400000D03*
%TD*%
D19*
%TO.C,C11*%
X143130000Y-104322500D03*
X143130000Y-105457500D03*
%TD*%
D20*
%TO.C,U2*%
X149995720Y-88756780D03*
X149495720Y-88756780D03*
X148995720Y-88756780D03*
X148495720Y-88756780D03*
X147995720Y-88756780D03*
D21*
X147308220Y-89444280D03*
X147308220Y-89944280D03*
X147308220Y-90444280D03*
X147308220Y-90944280D03*
X147308220Y-91444280D03*
D20*
X147995720Y-92131780D03*
X148495720Y-92131780D03*
X148995720Y-92131780D03*
X149495720Y-92131780D03*
X149995720Y-92131780D03*
D21*
X150683220Y-91444280D03*
X150683220Y-90944280D03*
X150683220Y-90444280D03*
X150683220Y-89944280D03*
X150683220Y-89444280D03*
D22*
X148995720Y-90444280D03*
%TD*%
D23*
%TO.C,C3*%
X155755720Y-89981780D03*
X155755720Y-91706780D03*
%TD*%
D16*
%TO.C,R10*%
X141683220Y-92254280D03*
X143508220Y-92254280D03*
%TD*%
D24*
%TO.C,R1*%
X149792500Y-106120000D03*
X150987500Y-106120000D03*
%TD*%
D25*
%TO.C,C10*%
X136480000Y-99455000D03*
X136480000Y-97405000D03*
%TD*%
D16*
%TO.C,R14*%
X141683220Y-93954280D03*
X143508220Y-93954280D03*
%TD*%
D26*
%TO.C,L1*%
X155170000Y-94464280D03*
X155170000Y-96564280D03*
%TD*%
D19*
%TO.C,C2*%
X154245720Y-89926780D03*
X154245720Y-91061780D03*
%TD*%
D27*
%TO.C,J4*%
X165000000Y-91700000D03*
D28*
X165000000Y-93700000D03*
%TD*%
D29*
%TO.C,U4*%
X152392500Y-101440000D03*
X152392500Y-102390000D03*
X152392500Y-103340000D03*
X154667500Y-103340000D03*
X154667500Y-101440000D03*
%TD*%
D30*
%TO.C,D1*%
X156700000Y-99660000D03*
X158450000Y-99660000D03*
%TD*%
D16*
%TO.C,R9*%
X141687500Y-87200000D03*
X143512500Y-87200000D03*
%TD*%
D19*
%TO.C,C9*%
X143110000Y-99432500D03*
X143110000Y-100567500D03*
%TD*%
D15*
%TO.C,TP3*%
X151670000Y-80890000D03*
%TD*%
D31*
%TO.C,C6*%
X159145720Y-96551780D03*
X159145720Y-94476780D03*
%TD*%
D25*
%TO.C,C12*%
X136480000Y-104305000D03*
X136480000Y-102255000D03*
%TD*%
D15*
%TO.C,TP4*%
X140350000Y-107180000D03*
%TD*%
D27*
%TO.C,J3*%
X165000000Y-99000000D03*
D28*
X165000000Y-97000000D03*
%TD*%
D32*
%TO.C,J1*%
X154795818Y-111437500D03*
D33*
X156995523Y-110167500D03*
%TD*%
D24*
%TO.C,R2*%
X149792500Y-107290000D03*
X150987500Y-107290000D03*
%TD*%
D11*
%TO.C,R4*%
X145502500Y-111347500D03*
X145502500Y-110152500D03*
%TD*%
D34*
%TO.C,IC1*%
X147847500Y-109970000D03*
X147847500Y-110470000D03*
X147847500Y-110970000D03*
X147847500Y-111470000D03*
X150657500Y-111470000D03*
X150657500Y-110970000D03*
X150657500Y-110470000D03*
X150657500Y-109970000D03*
%TD*%
D12*
%TO.C,R6*%
X143502500Y-88890000D03*
X141677500Y-88890000D03*
%TD*%
D35*
%TO.C,C8*%
X143163220Y-85724280D03*
X142028220Y-85724280D03*
%TD*%
D36*
%TO.C,C7*%
X151632500Y-83720000D03*
X149907500Y-83720000D03*
%TD*%
D16*
%TO.C,R7*%
X141683220Y-90554280D03*
X143508220Y-90554280D03*
%TD*%
D15*
%TO.C,TP2*%
X161660000Y-96420000D03*
%TD*%
D14*
%TO.C,U3*%
X141367500Y-104252500D03*
X141367500Y-103302500D03*
X141367500Y-102352500D03*
X139092500Y-102352500D03*
X139092500Y-104252500D03*
%TD*%
D37*
%TO.C,J2*%
X129225000Y-89100000D03*
D38*
X131765000Y-89100000D03*
X129225000Y-91640000D03*
X131765000Y-91640000D03*
X129225000Y-94180000D03*
X131765000Y-94180000D03*
X129225000Y-96720000D03*
X131765000Y-96720000D03*
X129225000Y-99260000D03*
X131765000Y-99260000D03*
X129225000Y-101800000D03*
X131765000Y-101800000D03*
%TD*%
D12*
%TO.C,R8*%
X146852500Y-96110000D03*
X145027500Y-96110000D03*
%TD*%
M02*
